%TF.GenerationSoftware,KiCad,Pcbnew,(5.1.6-0-10_14)*%
%TF.CreationDate,2022-01-24T21:07:11+00:00*%
%TF.ProjectId,Quad Tube VCA Panel,51756164-2054-4756-9265-205643412050,rev?*%
%TF.SameCoordinates,Original*%
%TF.FileFunction,Soldermask,Top*%
%TF.FilePolarity,Negative*%
%FSLAX46Y46*%
G04 Gerber Fmt 4.6, Leading zero omitted, Abs format (unit mm)*
G04 Created by KiCad (PCBNEW (5.1.6-0-10_14)) date 2022-01-24 21:07:11*
%MOMM*%
%LPD*%
G01*
G04 APERTURE LIST*
%ADD10C,0.300000*%
%ADD11C,0.500000*%
%ADD12C,0.150000*%
%ADD13C,0.250000*%
%ADD14C,0.200000*%
G04 APERTURE END LIST*
D10*
X156210000Y-168275000D02*
G75*
G03*
X156210000Y-168275000I-5105337J0D01*
G01*
X114325337Y-168376663D02*
G75*
G03*
X114325337Y-168376663I-5105337J0D01*
G01*
X72034337Y-168376663D02*
G75*
G03*
X72034337Y-168376663I-5105337J0D01*
G01*
X30759337Y-168249663D02*
G75*
G03*
X30759337Y-168249663I-5105337J0D01*
G01*
D11*
X78971333Y-65333904D02*
X80638000Y-70333904D01*
X82304666Y-65333904D01*
X86114190Y-70333904D02*
X86114190Y-67714857D01*
X85876095Y-67238666D01*
X85399904Y-67000571D01*
X84447523Y-67000571D01*
X83971333Y-67238666D01*
X86114190Y-70095809D02*
X85638000Y-70333904D01*
X84447523Y-70333904D01*
X83971333Y-70095809D01*
X83733238Y-69619619D01*
X83733238Y-69143428D01*
X83971333Y-68667238D01*
X84447523Y-68429142D01*
X85638000Y-68429142D01*
X86114190Y-68191047D01*
X83733238Y-65572000D02*
X86114190Y-65572000D01*
X89209428Y-70333904D02*
X88733238Y-70095809D01*
X88495142Y-69619619D01*
X88495142Y-65333904D01*
X90638000Y-67000571D02*
X91828476Y-70333904D01*
X93018952Y-67000571D01*
X94685619Y-70095809D02*
X95161809Y-70333904D01*
X96114190Y-70333904D01*
X96590380Y-70095809D01*
X96828476Y-69619619D01*
X96828476Y-69381523D01*
X96590380Y-68905333D01*
X96114190Y-68667238D01*
X95399904Y-68667238D01*
X94923714Y-68429142D01*
X94685619Y-67952952D01*
X94685619Y-67714857D01*
X94923714Y-67238666D01*
X95399904Y-67000571D01*
X96114190Y-67000571D01*
X96590380Y-67238666D01*
D12*
X12597190Y-138279142D02*
X12549571Y-138326761D01*
X12406714Y-138374380D01*
X12311476Y-138374380D01*
X12168619Y-138326761D01*
X12073380Y-138231523D01*
X12025761Y-138136285D01*
X11978142Y-137945809D01*
X11978142Y-137802952D01*
X12025761Y-137612476D01*
X12073380Y-137517238D01*
X12168619Y-137422000D01*
X12311476Y-137374380D01*
X12406714Y-137374380D01*
X12549571Y-137422000D01*
X12597190Y-137469619D01*
X14263857Y-138374380D02*
X13787666Y-138374380D01*
X13787666Y-137374380D01*
X15359095Y-137850571D02*
X15692428Y-137850571D01*
X15835285Y-138374380D02*
X15359095Y-138374380D01*
X15359095Y-137374380D01*
X15835285Y-137374380D01*
X16978142Y-138088666D02*
X17454333Y-138088666D01*
X16882904Y-138374380D02*
X17216238Y-137374380D01*
X17549571Y-138374380D01*
X18644809Y-138374380D02*
X18644809Y-137374380D01*
X19216238Y-138374380D01*
X19216238Y-137374380D01*
X32480666Y-138374380D02*
X32480666Y-137374380D01*
X32718761Y-137374380D01*
X32861619Y-137422000D01*
X32956857Y-137517238D01*
X33004476Y-137612476D01*
X33052095Y-137802952D01*
X33052095Y-137945809D01*
X33004476Y-138136285D01*
X32956857Y-138231523D01*
X32861619Y-138326761D01*
X32718761Y-138374380D01*
X32480666Y-138374380D01*
X34242571Y-138374380D02*
X34242571Y-137374380D01*
X36052095Y-138374380D02*
X35718761Y-137898190D01*
X35480666Y-138374380D02*
X35480666Y-137374380D01*
X35861619Y-137374380D01*
X35956857Y-137422000D01*
X36004476Y-137469619D01*
X36052095Y-137564857D01*
X36052095Y-137707714D01*
X36004476Y-137802952D01*
X35956857Y-137850571D01*
X35861619Y-137898190D01*
X35480666Y-137898190D01*
X37099714Y-137374380D02*
X37671142Y-137374380D01*
X37385428Y-138374380D02*
X37385428Y-137374380D01*
X38956857Y-137898190D02*
X38956857Y-138374380D01*
X38623523Y-137374380D02*
X38956857Y-137898190D01*
X39290190Y-137374380D01*
X53618190Y-138279142D02*
X53570571Y-138326761D01*
X53427714Y-138374380D01*
X53332476Y-138374380D01*
X53189619Y-138326761D01*
X53094380Y-138231523D01*
X53046761Y-138136285D01*
X52999142Y-137945809D01*
X52999142Y-137802952D01*
X53046761Y-137612476D01*
X53094380Y-137517238D01*
X53189619Y-137422000D01*
X53332476Y-137374380D01*
X53427714Y-137374380D01*
X53570571Y-137422000D01*
X53618190Y-137469619D01*
X55284857Y-138374380D02*
X54808666Y-138374380D01*
X54808666Y-137374380D01*
X56380095Y-137850571D02*
X56713428Y-137850571D01*
X56856285Y-138374380D02*
X56380095Y-138374380D01*
X56380095Y-137374380D01*
X56856285Y-137374380D01*
X57999142Y-138088666D02*
X58475333Y-138088666D01*
X57903904Y-138374380D02*
X58237238Y-137374380D01*
X58570571Y-138374380D01*
X59665809Y-138374380D02*
X59665809Y-137374380D01*
X60237238Y-138374380D01*
X60237238Y-137374380D01*
X73882666Y-138374380D02*
X73882666Y-137374380D01*
X74120761Y-137374380D01*
X74263619Y-137422000D01*
X74358857Y-137517238D01*
X74406476Y-137612476D01*
X74454095Y-137802952D01*
X74454095Y-137945809D01*
X74406476Y-138136285D01*
X74358857Y-138231523D01*
X74263619Y-138326761D01*
X74120761Y-138374380D01*
X73882666Y-138374380D01*
X75644571Y-138374380D02*
X75644571Y-137374380D01*
X77454095Y-138374380D02*
X77120761Y-137898190D01*
X76882666Y-138374380D02*
X76882666Y-137374380D01*
X77263619Y-137374380D01*
X77358857Y-137422000D01*
X77406476Y-137469619D01*
X77454095Y-137564857D01*
X77454095Y-137707714D01*
X77406476Y-137802952D01*
X77358857Y-137850571D01*
X77263619Y-137898190D01*
X76882666Y-137898190D01*
X78501714Y-137374380D02*
X79073142Y-137374380D01*
X78787428Y-138374380D02*
X78787428Y-137374380D01*
X80358857Y-137898190D02*
X80358857Y-138374380D01*
X80025523Y-137374380D02*
X80358857Y-137898190D01*
X80692190Y-137374380D01*
X95909190Y-138279142D02*
X95861571Y-138326761D01*
X95718714Y-138374380D01*
X95623476Y-138374380D01*
X95480619Y-138326761D01*
X95385380Y-138231523D01*
X95337761Y-138136285D01*
X95290142Y-137945809D01*
X95290142Y-137802952D01*
X95337761Y-137612476D01*
X95385380Y-137517238D01*
X95480619Y-137422000D01*
X95623476Y-137374380D01*
X95718714Y-137374380D01*
X95861571Y-137422000D01*
X95909190Y-137469619D01*
X97575857Y-138374380D02*
X97099666Y-138374380D01*
X97099666Y-137374380D01*
X98671095Y-137850571D02*
X99004428Y-137850571D01*
X99147285Y-138374380D02*
X98671095Y-138374380D01*
X98671095Y-137374380D01*
X99147285Y-137374380D01*
X100290142Y-138088666D02*
X100766333Y-138088666D01*
X100194904Y-138374380D02*
X100528238Y-137374380D01*
X100861571Y-138374380D01*
X101956809Y-138374380D02*
X101956809Y-137374380D01*
X102528238Y-138374380D01*
X102528238Y-137374380D01*
X115792666Y-138374380D02*
X115792666Y-137374380D01*
X116030761Y-137374380D01*
X116173619Y-137422000D01*
X116268857Y-137517238D01*
X116316476Y-137612476D01*
X116364095Y-137802952D01*
X116364095Y-137945809D01*
X116316476Y-138136285D01*
X116268857Y-138231523D01*
X116173619Y-138326761D01*
X116030761Y-138374380D01*
X115792666Y-138374380D01*
X117554571Y-138374380D02*
X117554571Y-137374380D01*
X119364095Y-138374380D02*
X119030761Y-137898190D01*
X118792666Y-138374380D02*
X118792666Y-137374380D01*
X119173619Y-137374380D01*
X119268857Y-137422000D01*
X119316476Y-137469619D01*
X119364095Y-137564857D01*
X119364095Y-137707714D01*
X119316476Y-137802952D01*
X119268857Y-137850571D01*
X119173619Y-137898190D01*
X118792666Y-137898190D01*
X120411714Y-137374380D02*
X120983142Y-137374380D01*
X120697428Y-138374380D02*
X120697428Y-137374380D01*
X122268857Y-137898190D02*
X122268857Y-138374380D01*
X121935523Y-137374380D02*
X122268857Y-137898190D01*
X122602190Y-137374380D01*
X138327190Y-138279142D02*
X138279571Y-138326761D01*
X138136714Y-138374380D01*
X138041476Y-138374380D01*
X137898619Y-138326761D01*
X137803380Y-138231523D01*
X137755761Y-138136285D01*
X137708142Y-137945809D01*
X137708142Y-137802952D01*
X137755761Y-137612476D01*
X137803380Y-137517238D01*
X137898619Y-137422000D01*
X138041476Y-137374380D01*
X138136714Y-137374380D01*
X138279571Y-137422000D01*
X138327190Y-137469619D01*
X139993857Y-138374380D02*
X139517666Y-138374380D01*
X139517666Y-137374380D01*
X141089095Y-137850571D02*
X141422428Y-137850571D01*
X141565285Y-138374380D02*
X141089095Y-138374380D01*
X141089095Y-137374380D01*
X141565285Y-137374380D01*
X142708142Y-138088666D02*
X143184333Y-138088666D01*
X142612904Y-138374380D02*
X142946238Y-137374380D01*
X143279571Y-138374380D01*
X144374809Y-138374380D02*
X144374809Y-137374380D01*
X144946238Y-138374380D01*
X144946238Y-137374380D01*
X157575666Y-138374380D02*
X157575666Y-137374380D01*
X157813761Y-137374380D01*
X157956619Y-137422000D01*
X158051857Y-137517238D01*
X158099476Y-137612476D01*
X158147095Y-137802952D01*
X158147095Y-137945809D01*
X158099476Y-138136285D01*
X158051857Y-138231523D01*
X157956619Y-138326761D01*
X157813761Y-138374380D01*
X157575666Y-138374380D01*
X159337571Y-138374380D02*
X159337571Y-137374380D01*
X161147095Y-138374380D02*
X160813761Y-137898190D01*
X160575666Y-138374380D02*
X160575666Y-137374380D01*
X160956619Y-137374380D01*
X161051857Y-137422000D01*
X161099476Y-137469619D01*
X161147095Y-137564857D01*
X161147095Y-137707714D01*
X161099476Y-137802952D01*
X161051857Y-137850571D01*
X160956619Y-137898190D01*
X160575666Y-137898190D01*
X162194714Y-137374380D02*
X162766142Y-137374380D01*
X162480428Y-138374380D02*
X162480428Y-137374380D01*
X164051857Y-137898190D02*
X164051857Y-138374380D01*
X163718523Y-137374380D02*
X164051857Y-137898190D01*
X164385190Y-137374380D01*
D13*
X66463380Y-187384285D02*
X65868142Y-187384285D01*
X65868142Y-183812857D01*
X66463380Y-183812857D01*
X67415761Y-186550952D02*
X67415761Y-184050952D01*
X67415761Y-185241428D02*
X68844333Y-185241428D01*
X68844333Y-186550952D02*
X68844333Y-184050952D01*
X71106238Y-186550952D02*
X71106238Y-185241428D01*
X70987190Y-185003333D01*
X70749095Y-184884285D01*
X70272904Y-184884285D01*
X70034809Y-185003333D01*
X71106238Y-186431904D02*
X70868142Y-186550952D01*
X70272904Y-186550952D01*
X70034809Y-186431904D01*
X69915761Y-186193809D01*
X69915761Y-185955714D01*
X70034809Y-185717619D01*
X70272904Y-185598571D01*
X70868142Y-185598571D01*
X71106238Y-185479523D01*
X72296714Y-186550952D02*
X72296714Y-184884285D01*
X72296714Y-185360476D02*
X72415761Y-185122380D01*
X72534809Y-185003333D01*
X72772904Y-184884285D01*
X73011000Y-184884285D01*
X74915761Y-186550952D02*
X74915761Y-184050952D01*
X74915761Y-186431904D02*
X74677666Y-186550952D01*
X74201476Y-186550952D01*
X73963380Y-186431904D01*
X73844333Y-186312857D01*
X73725285Y-186074761D01*
X73725285Y-185360476D01*
X73844333Y-185122380D01*
X73963380Y-185003333D01*
X74201476Y-184884285D01*
X74677666Y-184884285D01*
X74915761Y-185003333D01*
X75868142Y-184050952D02*
X76463380Y-186550952D01*
X76939571Y-184765238D01*
X77415761Y-186550952D01*
X78011000Y-184050952D01*
X78963380Y-186550952D02*
X78963380Y-184884285D01*
X78963380Y-184050952D02*
X78844333Y-184170000D01*
X78963380Y-184289047D01*
X79082428Y-184170000D01*
X78963380Y-184050952D01*
X78963380Y-184289047D01*
X80153857Y-186550952D02*
X80153857Y-184884285D01*
X80153857Y-185360476D02*
X80272904Y-185122380D01*
X80391952Y-185003333D01*
X80630047Y-184884285D01*
X80868142Y-184884285D01*
X82653857Y-186431904D02*
X82415761Y-186550952D01*
X81939571Y-186550952D01*
X81701476Y-186431904D01*
X81582428Y-186193809D01*
X81582428Y-185241428D01*
X81701476Y-185003333D01*
X81939571Y-184884285D01*
X82415761Y-184884285D01*
X82653857Y-185003333D01*
X82772904Y-185241428D01*
X82772904Y-185479523D01*
X81582428Y-185717619D01*
X84915761Y-186550952D02*
X84915761Y-184050952D01*
X84915761Y-186431904D02*
X84677666Y-186550952D01*
X84201476Y-186550952D01*
X83963380Y-186431904D01*
X83844333Y-186312857D01*
X83725285Y-186074761D01*
X83725285Y-185360476D01*
X83844333Y-185122380D01*
X83963380Y-185003333D01*
X84201476Y-184884285D01*
X84677666Y-184884285D01*
X84915761Y-185003333D01*
X88011000Y-185241428D02*
X88844333Y-185241428D01*
X89201476Y-186550952D02*
X88011000Y-186550952D01*
X88011000Y-184050952D01*
X89201476Y-184050952D01*
X90272904Y-184884285D02*
X90272904Y-186550952D01*
X90272904Y-185122380D02*
X90391952Y-185003333D01*
X90630047Y-184884285D01*
X90987190Y-184884285D01*
X91225285Y-185003333D01*
X91344333Y-185241428D01*
X91344333Y-186550952D01*
X93606238Y-184884285D02*
X93606238Y-186908095D01*
X93487190Y-187146190D01*
X93368142Y-187265238D01*
X93130047Y-187384285D01*
X92772904Y-187384285D01*
X92534809Y-187265238D01*
X93606238Y-186431904D02*
X93368142Y-186550952D01*
X92891952Y-186550952D01*
X92653857Y-186431904D01*
X92534809Y-186312857D01*
X92415761Y-186074761D01*
X92415761Y-185360476D01*
X92534809Y-185122380D01*
X92653857Y-185003333D01*
X92891952Y-184884285D01*
X93368142Y-184884285D01*
X93606238Y-185003333D01*
X94796714Y-186550952D02*
X94796714Y-184884285D01*
X94796714Y-184050952D02*
X94677666Y-184170000D01*
X94796714Y-184289047D01*
X94915761Y-184170000D01*
X94796714Y-184050952D01*
X94796714Y-184289047D01*
X95987190Y-184884285D02*
X95987190Y-186550952D01*
X95987190Y-185122380D02*
X96106238Y-185003333D01*
X96344333Y-184884285D01*
X96701476Y-184884285D01*
X96939571Y-185003333D01*
X97058619Y-185241428D01*
X97058619Y-186550952D01*
X99201476Y-186431904D02*
X98963380Y-186550952D01*
X98487190Y-186550952D01*
X98249095Y-186431904D01*
X98130047Y-186193809D01*
X98130047Y-185241428D01*
X98249095Y-185003333D01*
X98487190Y-184884285D01*
X98963380Y-184884285D01*
X99201476Y-185003333D01*
X99320523Y-185241428D01*
X99320523Y-185479523D01*
X98130047Y-185717619D01*
X101344333Y-186431904D02*
X101106238Y-186550952D01*
X100630047Y-186550952D01*
X100391952Y-186431904D01*
X100272904Y-186193809D01*
X100272904Y-185241428D01*
X100391952Y-185003333D01*
X100630047Y-184884285D01*
X101106238Y-184884285D01*
X101344333Y-185003333D01*
X101463380Y-185241428D01*
X101463380Y-185479523D01*
X100272904Y-185717619D01*
X102534809Y-186550952D02*
X102534809Y-184884285D01*
X102534809Y-185360476D02*
X102653857Y-185122380D01*
X102772904Y-185003333D01*
X103011000Y-184884285D01*
X103249095Y-184884285D01*
X104082428Y-186550952D02*
X104082428Y-184884285D01*
X104082428Y-184050952D02*
X103963380Y-184170000D01*
X104082428Y-184289047D01*
X104201476Y-184170000D01*
X104082428Y-184050952D01*
X104082428Y-184289047D01*
X105272904Y-184884285D02*
X105272904Y-186550952D01*
X105272904Y-185122380D02*
X105391952Y-185003333D01*
X105630047Y-184884285D01*
X105987190Y-184884285D01*
X106225285Y-185003333D01*
X106344333Y-185241428D01*
X106344333Y-186550952D01*
X108606238Y-184884285D02*
X108606238Y-186908095D01*
X108487190Y-187146190D01*
X108368142Y-187265238D01*
X108130047Y-187384285D01*
X107772904Y-187384285D01*
X107534809Y-187265238D01*
X108606238Y-186431904D02*
X108368142Y-186550952D01*
X107891952Y-186550952D01*
X107653857Y-186431904D01*
X107534809Y-186312857D01*
X107415761Y-186074761D01*
X107415761Y-185360476D01*
X107534809Y-185122380D01*
X107653857Y-185003333D01*
X107891952Y-184884285D01*
X108368142Y-184884285D01*
X108606238Y-185003333D01*
X109558619Y-187384285D02*
X110153857Y-187384285D01*
X110153857Y-183812857D01*
X109558619Y-183812857D01*
D14*
X22761142Y-79545571D02*
X21904000Y-79545571D01*
X22332571Y-79545571D02*
X22332571Y-78045571D01*
X22189714Y-78259857D01*
X22046857Y-78402714D01*
X21904000Y-78474142D01*
X23975428Y-78688428D02*
X23332571Y-79545571D01*
X24189714Y-79545571D02*
X24189714Y-78045571D01*
X24189714Y-78902714D02*
X23332571Y-78045571D01*
X25046857Y-79545571D02*
X24404000Y-78688428D01*
X25046857Y-78045571D02*
X24189714Y-78902714D01*
X25618285Y-78188428D02*
X25689714Y-78117000D01*
X25832571Y-78045571D01*
X26189714Y-78045571D01*
X26332571Y-78117000D01*
X26404000Y-78188428D01*
X26475428Y-78331285D01*
X26475428Y-78474142D01*
X26404000Y-78688428D01*
X25546857Y-79545571D01*
X26475428Y-79545571D01*
X27761142Y-78545571D02*
X27761142Y-79545571D01*
X27403999Y-77974142D02*
X27046857Y-79045571D01*
X27975428Y-79045571D01*
X29261142Y-78045571D02*
X28546857Y-78045571D01*
X28546857Y-79545571D01*
X28975428Y-79545571D01*
X29189714Y-79474142D01*
X29332571Y-79331285D01*
X29403999Y-79188428D01*
X29403999Y-78974142D01*
X29332571Y-78831285D01*
X29189714Y-78688428D01*
X28975428Y-78617000D01*
X28546857Y-78617000D01*
X63909142Y-79545571D02*
X63052000Y-79545571D01*
X63480571Y-79545571D02*
X63480571Y-78045571D01*
X63337714Y-78259857D01*
X63194857Y-78402714D01*
X63052000Y-78474142D01*
X65123428Y-78688428D02*
X64480571Y-79545571D01*
X65337714Y-79545571D02*
X65337714Y-78045571D01*
X65337714Y-78902714D02*
X64480571Y-78045571D01*
X66194857Y-79545571D02*
X65552000Y-78688428D01*
X66194857Y-78045571D02*
X65337714Y-78902714D01*
X66766285Y-78188428D02*
X66837714Y-78117000D01*
X66980571Y-78045571D01*
X67337714Y-78045571D01*
X67480571Y-78117000D01*
X67552000Y-78188428D01*
X67623428Y-78331285D01*
X67623428Y-78474142D01*
X67552000Y-78688428D01*
X66694857Y-79545571D01*
X67623428Y-79545571D01*
X68909142Y-78545571D02*
X68909142Y-79545571D01*
X68552000Y-77974142D02*
X68194857Y-79045571D01*
X69123428Y-79045571D01*
X70409142Y-78045571D02*
X69694857Y-78045571D01*
X69694857Y-79545571D01*
X70123428Y-79545571D01*
X70337714Y-79474142D01*
X70480571Y-79331285D01*
X70552000Y-79188428D01*
X70552000Y-78974142D01*
X70480571Y-78831285D01*
X70337714Y-78688428D01*
X70123428Y-78617000D01*
X69694857Y-78617000D01*
X106200142Y-79545571D02*
X105343000Y-79545571D01*
X105771571Y-79545571D02*
X105771571Y-78045571D01*
X105628714Y-78259857D01*
X105485857Y-78402714D01*
X105343000Y-78474142D01*
X107414428Y-78688428D02*
X106771571Y-79545571D01*
X107628714Y-79545571D02*
X107628714Y-78045571D01*
X107628714Y-78902714D02*
X106771571Y-78045571D01*
X108485857Y-79545571D02*
X107843000Y-78688428D01*
X108485857Y-78045571D02*
X107628714Y-78902714D01*
X109057285Y-78188428D02*
X109128714Y-78117000D01*
X109271571Y-78045571D01*
X109628714Y-78045571D01*
X109771571Y-78117000D01*
X109843000Y-78188428D01*
X109914428Y-78331285D01*
X109914428Y-78474142D01*
X109843000Y-78688428D01*
X108985857Y-79545571D01*
X109914428Y-79545571D01*
X111200142Y-78545571D02*
X111200142Y-79545571D01*
X110843000Y-77974142D02*
X110485857Y-79045571D01*
X111414428Y-79045571D01*
X112700142Y-78045571D02*
X111985857Y-78045571D01*
X111985857Y-79545571D01*
X112414428Y-79545571D01*
X112628714Y-79474142D01*
X112771571Y-79331285D01*
X112843000Y-79188428D01*
X112843000Y-78974142D01*
X112771571Y-78831285D01*
X112628714Y-78688428D01*
X112414428Y-78617000D01*
X111985857Y-78617000D01*
X148364142Y-79545571D02*
X147507000Y-79545571D01*
X147935571Y-79545571D02*
X147935571Y-78045571D01*
X147792714Y-78259857D01*
X147649857Y-78402714D01*
X147507000Y-78474142D01*
X149578428Y-78688428D02*
X148935571Y-79545571D01*
X149792714Y-79545571D02*
X149792714Y-78045571D01*
X149792714Y-78902714D02*
X148935571Y-78045571D01*
X150649857Y-79545571D02*
X150007000Y-78688428D01*
X150649857Y-78045571D02*
X149792714Y-78902714D01*
X151221285Y-78188428D02*
X151292714Y-78117000D01*
X151435571Y-78045571D01*
X151792714Y-78045571D01*
X151935571Y-78117000D01*
X152007000Y-78188428D01*
X152078428Y-78331285D01*
X152078428Y-78474142D01*
X152007000Y-78688428D01*
X151149857Y-79545571D01*
X152078428Y-79545571D01*
X153364142Y-78545571D02*
X153364142Y-79545571D01*
X153007000Y-77974142D02*
X152649857Y-79045571D01*
X153578428Y-79045571D01*
X154864142Y-78045571D02*
X154149857Y-78045571D01*
X154149857Y-79545571D01*
X154578428Y-79545571D01*
X154792714Y-79474142D01*
X154935571Y-79331285D01*
X155007000Y-79188428D01*
X155007000Y-78974142D01*
X154935571Y-78831285D01*
X154792714Y-78688428D01*
X154578428Y-78617000D01*
X154149857Y-78617000D01*
M02*
