M48
; DRILL file {KiCad (5.1.6-0-10_14)} date Friday, January 28, 2022 at 11:34:33 AM
; FORMAT={-:-/ absolute / inch / decimal}
; #@! TF.CreationDate,2022-01-28T11:34:33+00:00
; #@! TF.GenerationSoftware,Kicad,Pcbnew,(5.1.6-0-10_14)
; #@! TF.FileFunction,Plated,1,2,PTH
FMAT,2
INCH
T1C0.0157
T2C0.0315
T3C0.0354
T4C0.0394
T5C0.0630
T6C0.0709
T7C0.0728
%
G90
G05
T1
X2.825Y-3.76
X2.825Y-3.715
X2.8961Y-3.9389
X3.0319Y-4.7831
X3.0319Y-4.8581
X3.0319Y-4.9331
X3.08Y-4.085
X3.11Y-3.99
X3.135Y-3.58
X3.14Y-3.775
X3.17Y-4.15
X3.2Y-2.945
X3.2827Y-2.7523
X3.32Y-4.405
X3.335Y-3.225
X3.34Y-3.04
X3.39Y-3.572
X3.4Y-4.41
X3.41Y-4.505
X3.43Y-3.23
X3.4362Y-3.61
X3.4697Y-3.195
X3.4697Y-3.835
X3.5Y-4.445
X3.51Y-4.75
X3.525Y-4.53
X3.555Y-5.355
X3.5642Y-3.8
X3.605Y-3.76
X3.615Y-5.03
X3.635Y-5.275
X3.655Y-5.495
X3.67Y-4.47
X3.68Y-4.68
X3.68Y-4.85
X3.68Y-5.12
X3.705Y-3.72
X3.705Y-5.28
X3.72Y-4.615
X3.745Y-5.42
X3.7675Y-4.885
X3.77Y-5.26
X3.8Y-5.57
X3.835Y-4.48
X3.845Y-3.775
X3.85Y-4.725
X3.88Y-4.755
X3.9Y-5.465
X3.9Y-5.555
X3.92Y-4.655
X3.95Y-3.77
X3.965Y-5.005
X3.995Y-5.12
X4.0025Y-4.87
X4.07Y-5.0
X4.07Y-5.155
X4.075Y-5.1
X4.085Y-5.3239
X4.09Y-5.545
X4.105Y-4.81
X4.115Y-4.88
X4.125Y-5.02
X4.135Y-4.67
X4.15Y-4.5
X4.165Y-5.465
X4.32Y-3.585
X4.34Y-4.925
X4.42Y-3.7
X4.4785Y-3.8915
X4.545Y-4.85
X4.565Y-3.58
X4.575Y-5.055
X4.605Y-5.555
X4.71Y-3.535
X4.72Y-3.575
X4.835Y-3.68
X4.875Y-2.945
X4.8852Y-2.7348
X4.915Y-3.375
X4.9311Y-4.345
X5.0Y-3.572
X5.005Y-4.385
X5.045Y-3.225
X5.0515Y-3.61
X5.085Y-3.2
X5.085Y-3.835
X5.135Y-4.34
X5.145Y-4.73
X5.15Y-2.6985
X5.1874Y-3.8
X5.2209Y-3.4185
X5.24Y-5.0165
X5.24Y-5.295
X5.285Y-5.57
X5.295Y-5.355
X5.3Y-3.385
X5.3Y-5.12
X5.325Y-5.25
X5.375Y-5.1
X5.3752Y-4.9848
X5.44Y-4.77
X5.44Y-5.275
X5.44Y-5.43
X5.445Y-5.085
X5.45Y-3.375
X5.52Y-5.005
X5.605Y-5.025
X5.6241Y-4.7541
X5.645Y-5.56
X5.67Y-3.88
X5.68Y-5.355
X5.685Y-5.4
X5.74Y-4.285
X5.76Y-4.99
X5.84Y-5.3265
X5.85Y-4.985
X5.92Y-5.07
X5.935Y-4.53
X5.97Y-3.585
X6.0Y-4.5
X6.0062Y-5.0438
X6.065Y-3.71
X6.065Y-5.41
X6.0684Y-4.53
X6.07Y-5.155
X6.121Y-3.884
X6.14Y-4.31
X6.21Y-3.59
X6.385Y-3.54
X6.42Y-3.585
X6.505Y-3.735
X6.535Y-2.945
X6.535Y-3.585
X6.58Y-2.76
X6.67Y-4.4
X6.675Y-3.572
X6.68Y-3.245
X6.7129Y-3.6235
X6.7475Y-3.245
X6.75Y-2.695
X6.753Y-3.8335
X6.77Y-4.96
X6.78Y-4.8
X6.83Y-2.875
X6.83Y-4.39
X6.85Y-3.8
X6.855Y-5.305
X6.8835Y-3.755
X6.8865Y-4.68
X6.89Y-5.14
X6.92Y-5.295
X6.935Y-5.015
X6.945Y-4.96
X6.96Y-4.625
X6.96Y-5.445
X6.965Y-5.14
X6.965Y-5.315
X6.9662Y-5.1862
X6.975Y-4.102
X6.977Y-5.4095
X6.9902Y-3.7648
X7.01Y-5.57
X7.02Y-4.985
X7.035Y-4.85
X7.045Y-5.11
X7.045Y-5.29
X7.045Y-5.54
X7.07Y-3.735
X7.105Y-4.69
X7.115Y-4.565
X7.115Y-4.74
X7.13Y-5.21
X7.13Y-5.365
X7.13Y-5.565
X7.135Y-5.29
X7.135Y-5.415
X7.16Y-4.995
X7.2109Y-5.1839
X7.2338Y-5.5541
X7.295Y-5.5226
X7.315Y-3.845
X7.315Y-4.565
X7.32Y-5.34
X7.325Y-4.43
X7.345Y-4.99
X7.365Y-5.495
X7.3814Y-4.46
X7.4332Y-4.9468
X7.465Y-5.195
X7.47Y-5.135
X7.48Y-5.32
X7.495Y-5.39
X7.5Y-5.49
X7.5035Y-3.86
X7.51Y-4.98
X7.52Y-4.345
X7.605Y-3.89
X7.625Y-5.12
X7.64Y-4.94
X7.65Y-4.03
X7.675Y-4.34
X7.675Y-5.4
X7.685Y-5.13
X7.705Y-3.7
X7.78Y-4.32
X7.8Y-5.245
X7.81Y-3.9
X7.82Y-5.18
X7.885Y-3.58
X7.9Y-5.565
X7.93Y-4.68
X8.1Y-3.535
X8.16Y-2.945
X8.16Y-4.56
X8.17Y-4.75
X8.17Y-4.925
X8.19Y-4.36
X8.23Y-2.74
X8.24Y-3.45
X8.245Y-3.495
X8.3531Y-3.555
X8.355Y-4.41
X8.36Y-4.355
X8.36Y-4.505
X8.365Y-3.25
X8.37Y-5.01
X8.385Y-2.71
X8.3865Y-3.61
X8.39Y-4.705
X8.39Y-4.9
X8.4Y-3.225
X8.42Y-3.84
X8.44Y-5.145
X8.4776Y-4.9826
X8.52Y-5.15
X8.52Y-5.34
X8.5232Y-3.8
X8.6Y-3.705
X8.63Y-4.785
X8.635Y-4.835
X8.66Y-4.515
X8.66Y-5.615
X8.67Y-4.91
X8.675Y-5.185
X8.71Y-4.59
X8.745Y-3.86
X8.75Y-4.99
X8.755Y-4.645
X8.755Y-4.765
X8.8Y-5.175
X8.8Y-5.5
X8.845Y-4.905
X8.85Y-5.045
X8.865Y-3.765
X8.875Y-5.235
X8.9025Y-4.913
X8.95Y-4.915
T2
X3.25Y-3.9
X3.3Y-3.7
X3.35Y-1.9
X3.35Y-3.8
X3.35Y-3.9
X3.4Y-3.7
X3.45Y-3.9
X2.75Y-4.25
X2.85Y-4.25
X2.95Y-4.25
X2.825Y-4.575
X2.9234Y-4.575
X4.37Y-1.9
X4.47Y-1.9
X4.57Y-1.9
X8.7366Y-3.94
X8.835Y-3.94
X5.37Y-4.25
X5.47Y-4.25
X5.57Y-4.25
X6.5333Y-3.9
X6.5833Y-3.7
X6.6333Y-1.9
X6.6333Y-3.8
X6.6333Y-3.9
X6.6833Y-3.7
X6.7333Y-3.9
X3.8016Y-3.94
X3.9Y-3.94
X7.7Y-2.7
X7.7Y-2.8969
X5.37Y-3.65
X5.47Y-3.65
X5.57Y-3.65
X6.05Y-2.7
X6.05Y-2.8969
X2.7016Y-4.855
X2.8Y-4.855
X5.55Y-2.7
X5.55Y-2.8969
X7.685Y-4.25
X7.785Y-4.25
X7.885Y-4.25
X7.035Y-4.25
X7.135Y-4.25
X7.235Y-4.25
X6.035Y-1.9
X6.135Y-1.9
X6.235Y-1.9
X2.77Y-2.7
X2.77Y-2.8969
X4.8667Y-3.9
X4.9167Y-3.7
X4.9667Y-1.9
X4.9667Y-3.8
X4.9667Y-3.9
X5.0167Y-3.7
X5.0667Y-3.9
X8.85Y-2.7
X8.85Y-2.8969
X7.035Y-3.65
X7.135Y-3.65
X7.235Y-3.65
X4.37Y-4.25
X4.47Y-4.25
X4.57Y-4.25
X7.2Y-2.7
X7.2Y-2.8969
X3.75Y-4.25
X3.85Y-4.25
X3.95Y-4.25
X8.1894Y-3.9
X8.2394Y-3.7
X8.2894Y-1.9
X8.2894Y-3.8
X8.2894Y-3.9
X8.3394Y-3.7
X8.3894Y-3.9
X8.685Y-4.25
X8.785Y-4.25
X8.885Y-4.25
X3.935Y-2.695
X3.935Y-2.8919
X8.685Y-3.65
X8.785Y-3.65
X8.885Y-3.65
X7.0866Y-3.94
X7.185Y-3.94
X4.4Y-2.7
X4.4Y-2.8969
X7.685Y-1.9
X7.785Y-1.9
X7.885Y-1.9
X3.75Y-3.65
X3.85Y-3.65
X3.95Y-3.65
X5.4216Y-3.94
X5.52Y-3.94
X2.75Y-1.9
X2.85Y-1.9
X2.95Y-1.9
X6.035Y-4.25
X6.135Y-4.25
X6.235Y-4.25
T3
X7.9132Y-2.8
X8.0132Y-2.8
X4.59Y-2.8
X4.69Y-2.8
X8.575Y-2.8
X8.675Y-2.8
X5.25Y-2.8
X5.35Y-2.8
X6.25Y-2.8
X6.35Y-2.8
X2.965Y-2.8
X3.065Y-2.8
X3.65Y-2.8
X3.75Y-2.8
X6.92Y-2.8
X7.02Y-2.8
T4
X3.6666Y-3.4953
X3.765Y-3.4953
X3.8634Y-3.4953
X5.3016Y-2.5453
X5.4Y-2.5453
X5.4984Y-2.5453
X6.1016Y-3.4953
X6.2Y-3.4953
X6.2984Y-3.4953
X8.6016Y-2.5453
X8.7Y-2.5453
X8.7984Y-2.5453
X4.4516Y-2.5453
X4.55Y-2.5453
X4.6484Y-2.5453
X2.8316Y-2.5453
X2.93Y-2.5453
X3.0284Y-2.5453
X2.72Y-5.1
X2.72Y-5.2
X2.72Y-5.3
X2.72Y-5.4
X2.72Y-5.5
X2.82Y-5.1
X2.82Y-5.2
X2.82Y-5.3
X2.82Y-5.4
X2.82Y-5.5
X3.6666Y-2.5453
X3.765Y-2.5453
X3.8634Y-2.5453
X4.4516Y-3.4953
X4.55Y-3.4953
X4.6484Y-3.4953
X6.9516Y-3.4953
X7.05Y-3.4953
X7.1484Y-3.4953
X6.9516Y-2.5453
X7.05Y-2.5453
X7.1484Y-2.5453
X7.7709Y-2.5453
X7.8693Y-2.5453
X7.9677Y-2.5453
X7.7709Y-3.4953
X7.8693Y-3.4953
X7.9677Y-3.4953
X2.8316Y-3.4953
X2.93Y-3.4953
X3.0284Y-3.4953
X5.3016Y-3.4953
X5.4Y-3.4953
X5.4984Y-3.4953
X8.6016Y-3.4953
X8.7Y-3.4953
X8.7984Y-3.4953
X6.1016Y-2.5453
X6.2Y-2.5453
X6.2984Y-2.5453
T5
X4.7149Y-4.65
X4.8369Y-4.65
X5.1637Y-4.65
X3.0949Y-5.45
X3.2169Y-5.45
X3.5437Y-5.45
X4.7149Y-5.45
X4.8369Y-5.45
X5.1637Y-5.45
X6.3799Y-5.05
X6.5019Y-5.05
X6.8287Y-5.05
X3.0949Y-4.65
X3.2169Y-4.65
X3.5437Y-4.65
X8.0311Y-5.45
X8.1531Y-5.45
X8.4799Y-5.45
X8.0311Y-4.65
X8.1531Y-4.65
X8.4799Y-4.65
X4.7149Y-5.05
X4.8369Y-5.05
X5.1637Y-5.05
X6.3799Y-4.65
X6.5019Y-4.65
X6.8287Y-4.65
X3.0949Y-5.05
X3.2169Y-5.05
X3.5437Y-5.05
X8.0311Y-5.05
X8.1531Y-5.05
X8.4799Y-5.05
X6.3799Y-5.45
X6.5019Y-5.45
X6.8287Y-5.45
T6
X3.576Y-3.2
X3.954Y-3.2
X5.211Y-2.25
X5.589Y-2.25
X6.011Y-3.2
X6.389Y-3.2
X8.511Y-2.25
X8.889Y-2.25
X4.361Y-2.25
X4.739Y-2.25
X2.741Y-2.25
X3.119Y-2.25
X3.576Y-2.25
X3.954Y-2.25
X4.361Y-3.2
X4.739Y-3.2
X6.861Y-3.2
X7.239Y-3.2
X6.861Y-2.25
X7.239Y-2.25
X7.6803Y-2.25
X8.0583Y-2.25
X7.6803Y-3.2
X8.0583Y-3.2
X2.741Y-3.2
X3.119Y-3.2
X5.211Y-3.2
X5.589Y-3.2
X8.511Y-3.2
X8.889Y-3.2
X6.011Y-2.25
X6.389Y-2.25
T7
X3.165Y-4.2403
X3.35Y-4.2403
X3.535Y-4.2403
X6.45Y-4.2403
X6.635Y-4.2403
X6.82Y-4.2403
X4.785Y-4.2403
X4.97Y-4.2403
X5.155Y-4.2403
X8.1Y-4.2403
X8.285Y-4.2403
X8.47Y-4.2403
T0
M30
