G04 #@! TF.GenerationSoftware,KiCad,Pcbnew,(5.1.6-0-10_14)*
G04 #@! TF.CreationDate,2022-01-28T11:34:31+00:00*
G04 #@! TF.ProjectId,Quad Tube VCA,51756164-2054-4756-9265-205643412e6b,rev?*
G04 #@! TF.SameCoordinates,Original*
G04 #@! TF.FileFunction,Copper,L1,Top*
G04 #@! TF.FilePolarity,Positive*
%FSLAX46Y46*%
G04 Gerber Fmt 4.6, Leading zero omitted, Abs format (unit mm)*
G04 Created by KiCad (PCBNEW (5.1.6-0-10_14)) date 2022-01-28 11:34:31*
%MOMM*%
%LPD*%
G01*
G04 APERTURE LIST*
G04 #@! TA.AperFunction,ComponentPad*
%ADD10C,2.775000*%
G04 #@! TD*
G04 #@! TA.AperFunction,ComponentPad*
%ADD11R,2.775000X2.775000*%
G04 #@! TD*
G04 #@! TA.AperFunction,ComponentPad*
%ADD12C,1.600000*%
G04 #@! TD*
G04 #@! TA.AperFunction,ComponentPad*
%ADD13R,1.600000X1.600000*%
G04 #@! TD*
G04 #@! TA.AperFunction,ComponentPad*
%ADD14C,1.800000*%
G04 #@! TD*
G04 #@! TA.AperFunction,ComponentPad*
%ADD15R,1.800000X1.800000*%
G04 #@! TD*
G04 #@! TA.AperFunction,ComponentPad*
%ADD16C,2.000000*%
G04 #@! TD*
G04 #@! TA.AperFunction,ComponentPad*
%ADD17C,1.300000*%
G04 #@! TD*
G04 #@! TA.AperFunction,ComponentPad*
%ADD18C,1.440000*%
G04 #@! TD*
G04 #@! TA.AperFunction,ComponentPad*
%ADD19O,1.700000X1.700000*%
G04 #@! TD*
G04 #@! TA.AperFunction,ComponentPad*
%ADD20R,1.700000X1.700000*%
G04 #@! TD*
G04 #@! TA.AperFunction,ViaPad*
%ADD21C,0.800000*%
G04 #@! TD*
G04 #@! TA.AperFunction,Conductor*
%ADD22C,0.500000*%
G04 #@! TD*
G04 #@! TA.AperFunction,Conductor*
%ADD23C,0.250000*%
G04 #@! TD*
G04 #@! TA.AperFunction,Conductor*
%ADD24C,1.000000*%
G04 #@! TD*
G04 APERTURE END LIST*
D10*
X89790000Y-107702500D03*
X85090000Y-107702500D03*
D11*
X80390000Y-107702500D03*
D10*
X130938000Y-107702500D03*
X126238000Y-107702500D03*
D11*
X121538000Y-107702500D03*
D10*
X173229000Y-107702500D03*
X168529000Y-107702500D03*
D11*
X163829000Y-107702500D03*
D10*
X215139000Y-107702500D03*
X210439000Y-107702500D03*
D11*
X205739000Y-107702500D03*
D12*
X221909000Y-100076000D03*
D13*
X224409000Y-100076000D03*
D12*
X179999000Y-100076000D03*
D13*
X182499000Y-100076000D03*
D12*
X137708000Y-100076000D03*
D13*
X140208000Y-100076000D03*
D12*
X96560000Y-100076000D03*
D13*
X99060000Y-100076000D03*
D12*
X68620000Y-123317000D03*
D13*
X71120000Y-123317000D03*
D12*
X74255000Y-116205000D03*
D13*
X71755000Y-116205000D03*
D14*
X126153333Y-48260000D03*
X126153333Y-96520000D03*
X124883333Y-93980000D03*
X127423333Y-93980000D03*
X128693333Y-99060000D03*
X126153333Y-99060000D03*
D15*
X123613333Y-99060000D03*
D14*
X85090000Y-48260000D03*
X85090000Y-96520000D03*
X83820000Y-93980000D03*
X86360000Y-93980000D03*
X87630000Y-99060000D03*
X85090000Y-99060000D03*
D15*
X82550000Y-99060000D03*
D14*
X210550000Y-48260000D03*
X210550000Y-96520000D03*
X209280000Y-93980000D03*
X211820000Y-93980000D03*
X213090000Y-99060000D03*
X210550000Y-99060000D03*
D15*
X208010000Y-99060000D03*
D14*
X168486666Y-48260000D03*
X168486666Y-96520000D03*
X167216666Y-93980000D03*
X169756666Y-93980000D03*
X171026666Y-99060000D03*
X168486666Y-99060000D03*
D15*
X165946666Y-99060000D03*
D16*
X204680000Y-57150000D03*
X195080000Y-57150000D03*
D17*
X202380000Y-64650000D03*
X199880000Y-64650000D03*
X197380000Y-64650000D03*
D16*
X162280000Y-57150000D03*
X152680000Y-57150000D03*
D17*
X159980000Y-64650000D03*
X157480000Y-64650000D03*
X154980000Y-64650000D03*
D16*
X120370000Y-57150000D03*
X110770000Y-57150000D03*
D17*
X118070000Y-64650000D03*
X115570000Y-64650000D03*
X113070000Y-64650000D03*
D16*
X79222000Y-57150000D03*
X69622000Y-57150000D03*
D17*
X76922000Y-64650000D03*
X74422000Y-64650000D03*
X71922000Y-64650000D03*
D16*
X204680000Y-81280000D03*
X195080000Y-81280000D03*
D17*
X202380000Y-88780000D03*
X199880000Y-88780000D03*
X197380000Y-88780000D03*
D16*
X162280000Y-81280000D03*
X152680000Y-81280000D03*
D17*
X159980000Y-88780000D03*
X157480000Y-88780000D03*
X154980000Y-88780000D03*
D16*
X120370000Y-81280000D03*
X110770000Y-81280000D03*
D17*
X118070000Y-88780000D03*
X115570000Y-88780000D03*
X113070000Y-88780000D03*
D16*
X79222000Y-81280000D03*
X69622000Y-81280000D03*
D17*
X76922000Y-88780000D03*
X74422000Y-88780000D03*
X71922000Y-88780000D03*
D16*
X225780000Y-57150000D03*
X216180000Y-57150000D03*
D17*
X223480000Y-64650000D03*
X220980000Y-64650000D03*
X218480000Y-64650000D03*
D16*
X183870000Y-57150000D03*
X174270000Y-57150000D03*
D17*
X181570000Y-64650000D03*
X179070000Y-64650000D03*
X176570000Y-64650000D03*
D16*
X141960000Y-57150000D03*
X132360000Y-57150000D03*
D17*
X139660000Y-64650000D03*
X137160000Y-64650000D03*
X134660000Y-64650000D03*
D16*
X100431000Y-57150000D03*
X90831000Y-57150000D03*
D17*
X98131000Y-64650000D03*
X95631000Y-64650000D03*
X93131000Y-64650000D03*
D16*
X225780000Y-81280000D03*
X216180000Y-81280000D03*
D17*
X223480000Y-88780000D03*
X220980000Y-88780000D03*
X218480000Y-88780000D03*
D16*
X183870000Y-81280000D03*
X174270000Y-81280000D03*
D17*
X181570000Y-88780000D03*
X179070000Y-88780000D03*
X176570000Y-88780000D03*
D16*
X141960000Y-81280000D03*
X132360000Y-81280000D03*
D17*
X139660000Y-88780000D03*
X137160000Y-88780000D03*
X134660000Y-88780000D03*
D16*
X100431000Y-81280000D03*
X90831000Y-81280000D03*
D17*
X98131000Y-88780000D03*
X95631000Y-88780000D03*
X93131000Y-88780000D03*
D14*
X215389000Y-138430000D03*
X203989000Y-138430000D03*
X207089000Y-138430000D03*
X173449000Y-138430000D03*
X162049000Y-138430000D03*
X165149000Y-138430000D03*
X131158000Y-138430000D03*
X119758000Y-138430000D03*
X122858000Y-138430000D03*
X90010000Y-138430000D03*
X78610000Y-138430000D03*
X81710000Y-138430000D03*
X215389000Y-118110000D03*
X203989000Y-118110000D03*
X207089000Y-118110000D03*
X173449000Y-118110000D03*
X162049000Y-118110000D03*
X165149000Y-118110000D03*
X131158000Y-118110000D03*
X119758000Y-118110000D03*
X122858000Y-118110000D03*
X90010000Y-118110000D03*
X78610000Y-118110000D03*
X81710000Y-118110000D03*
X215389000Y-128270000D03*
X203989000Y-128270000D03*
X207089000Y-128270000D03*
X173449000Y-128270000D03*
X162049000Y-128270000D03*
X165149000Y-128270000D03*
X131158000Y-128270000D03*
X119758000Y-128270000D03*
X122858000Y-128270000D03*
X90010000Y-128270000D03*
X78610000Y-128270000D03*
X81710000Y-128270000D03*
D18*
X195199000Y-48260000D03*
X197739000Y-48260000D03*
X200279000Y-48260000D03*
X153289000Y-48260000D03*
X155829000Y-48260000D03*
X158369000Y-48260000D03*
X110998000Y-48260000D03*
X113538000Y-48260000D03*
X116078000Y-48260000D03*
X69850000Y-48260000D03*
X72390000Y-48260000D03*
X74930000Y-48260000D03*
X220599000Y-107950000D03*
X223139000Y-107950000D03*
X225679000Y-107950000D03*
X178689000Y-107950000D03*
X181229000Y-107950000D03*
X183769000Y-107950000D03*
X136398000Y-107950000D03*
X138938000Y-107950000D03*
X141478000Y-107950000D03*
X95250000Y-107950000D03*
X97790000Y-107950000D03*
X100330000Y-107950000D03*
X220599000Y-92710000D03*
X223139000Y-92710000D03*
X225679000Y-92710000D03*
X178689000Y-92710000D03*
X181229000Y-92710000D03*
X183769000Y-92710000D03*
X136398000Y-92710000D03*
X138938000Y-92710000D03*
X141478000Y-92710000D03*
X95250000Y-92710000D03*
X97790000Y-92710000D03*
X100330000Y-92710000D03*
X195199000Y-107950000D03*
X197739000Y-107950000D03*
X200279000Y-107950000D03*
X153289000Y-107950000D03*
X155829000Y-107950000D03*
X158369000Y-107950000D03*
X110998000Y-107950000D03*
X113538000Y-107950000D03*
X116078000Y-107950000D03*
X69850000Y-107950000D03*
X72390000Y-107950000D03*
X74930000Y-107950000D03*
D19*
X69088000Y-139700000D03*
X71628000Y-139700000D03*
X69088000Y-137160000D03*
X71628000Y-137160000D03*
X69088000Y-134620000D03*
X71628000Y-134620000D03*
X69088000Y-132080000D03*
X71628000Y-132080000D03*
X69088000Y-129540000D03*
D20*
X71628000Y-129540000D03*
D14*
X217805000Y-71120000D03*
D15*
X220345000Y-71120000D03*
D14*
X203536000Y-71120000D03*
D15*
X200996000Y-71120000D03*
D14*
X175768000Y-71120000D03*
D15*
X178308000Y-71120000D03*
D14*
X161290000Y-71120000D03*
D15*
X158750000Y-71120000D03*
D14*
X133350000Y-71120000D03*
D15*
X135890000Y-71120000D03*
D14*
X119126000Y-71120000D03*
D15*
X116586000Y-71120000D03*
D14*
X92710000Y-71120000D03*
D15*
X95250000Y-71120000D03*
D14*
X77851000Y-71120000D03*
D15*
X75311000Y-71120000D03*
D12*
X224790000Y-73580000D03*
X224790000Y-68580000D03*
X195580000Y-73580000D03*
X195580000Y-68580000D03*
X182880000Y-73580000D03*
X182880000Y-68580000D03*
X153670000Y-73580000D03*
X153670000Y-68580000D03*
X140970000Y-73580000D03*
X140970000Y-68580000D03*
X111760000Y-73580000D03*
X111760000Y-68580000D03*
X99949000Y-73453000D03*
X99949000Y-68453000D03*
X70358000Y-73580000D03*
X70358000Y-68580000D03*
D21*
X207264000Y-115824000D03*
X212217000Y-112014000D03*
X218440000Y-94107000D03*
X194945000Y-110236000D03*
X191008000Y-110363000D03*
X186055000Y-112522000D03*
X185801000Y-115951000D03*
X186563000Y-126746000D03*
X188802291Y-125649709D03*
X190754000Y-126492000D03*
X194056000Y-125476000D03*
X193675000Y-130048000D03*
X173482000Y-111506000D03*
X169418000Y-111760000D03*
X179578000Y-94869000D03*
X177550042Y-95626958D03*
X138430000Y-85725000D03*
X134620000Y-85979000D03*
X94107000Y-94488000D03*
X97663000Y-95885000D03*
X100330000Y-95758000D03*
X89535000Y-115062000D03*
X86614000Y-114427000D03*
X97790000Y-120015000D03*
X94488000Y-117221000D03*
X181102000Y-136271000D03*
X185293000Y-140273011D03*
X190500000Y-139444990D03*
X183737850Y-141075156D03*
X178943000Y-129794000D03*
X103886000Y-140843000D03*
X105791000Y-138811000D03*
X99060000Y-138811000D03*
X105410000Y-114300000D03*
X105029000Y-118618000D03*
X103378000Y-127000000D03*
X103505000Y-129540000D03*
X104521000Y-123952000D03*
X110236000Y-125095000D03*
X212344000Y-110617000D03*
X208026000Y-110744000D03*
X222250000Y-126746000D03*
X224663000Y-124587000D03*
X180467000Y-119126000D03*
X146304000Y-126746000D03*
X148590000Y-126619000D03*
X142367000Y-127635000D03*
X127127000Y-111379000D03*
X130429000Y-110236000D03*
X80518000Y-105410000D03*
X78232000Y-103759000D03*
X116205000Y-128397000D03*
X95758000Y-133604000D03*
X101473000Y-130048000D03*
X152400000Y-114300000D03*
X152556541Y-128113459D03*
X198628000Y-131572000D03*
X225171000Y-95631000D03*
X222123000Y-98044000D03*
X194310000Y-102362000D03*
X84836000Y-77216000D03*
X84709000Y-81915000D03*
X145796000Y-108839000D03*
X219964000Y-142621000D03*
X99060000Y-141097000D03*
X143383000Y-141224000D03*
X181102000Y-141351000D03*
X200660000Y-141351000D03*
X181864000Y-126873000D03*
X100711000Y-127127000D03*
X116967000Y-141097000D03*
X77009999Y-121491001D03*
X77009999Y-125301001D03*
X77009999Y-123396001D03*
X130810000Y-68541000D03*
X173482000Y-73025000D03*
X171450000Y-68453000D03*
X212979000Y-68834000D03*
X193167000Y-98806000D03*
X190588000Y-98044000D03*
X185801000Y-97663000D03*
X81280000Y-74803000D03*
X87122000Y-82042000D03*
X87280001Y-91694000D03*
X104775000Y-127508000D03*
X103759000Y-135227990D03*
X90530011Y-96520000D03*
X97410000Y-113792000D03*
X91567000Y-95504000D03*
X79756000Y-95885000D03*
X71754999Y-95504000D03*
X95694990Y-124079000D03*
X93472000Y-123190000D03*
X93472000Y-118872000D03*
X78994000Y-101346000D03*
X89154000Y-120650000D03*
X98552000Y-120777000D03*
X99568000Y-118237000D03*
X91821000Y-127762000D03*
X124085041Y-69462959D03*
X135255000Y-133350000D03*
X138176000Y-137922000D03*
X138176000Y-133985000D03*
X134239000Y-141478000D03*
X134493000Y-136017000D03*
X129159000Y-81280000D03*
X129159000Y-97409000D03*
X148336000Y-135292000D03*
X144399000Y-137160000D03*
X133096000Y-134493000D03*
X154051000Y-137414000D03*
X144272000Y-136017000D03*
X131759999Y-96520000D03*
X136529905Y-126614095D03*
X133096000Y-127420000D03*
X134620000Y-130048000D03*
X150368000Y-128778000D03*
X154137510Y-115062000D03*
X150749000Y-115062000D03*
X167132000Y-70104000D03*
X175006000Y-130556000D03*
X176784000Y-138303000D03*
X175768000Y-134493000D03*
X174117000Y-134747000D03*
X178943000Y-140716000D03*
X171387500Y-82423000D03*
X171526667Y-97370000D03*
X187071000Y-139573000D03*
X183156991Y-131670261D03*
X173990000Y-96520000D03*
X172212000Y-121920000D03*
X174916511Y-118872000D03*
X176784000Y-117475000D03*
X180721000Y-115951000D03*
X226124083Y-124791288D03*
X224790000Y-128143000D03*
X225425000Y-132969000D03*
X223520000Y-139700000D03*
X216408000Y-135636000D03*
X207264000Y-74803000D03*
X212471000Y-82550000D03*
X213018000Y-91694000D03*
X219964000Y-114681000D03*
X220218000Y-124714000D03*
X220345000Y-131699000D03*
X223520000Y-131445000D03*
X119634000Y-89789000D03*
X115951000Y-90932000D03*
X162179000Y-89916000D03*
X157734000Y-91186000D03*
X209296000Y-87630000D03*
X200279000Y-90932000D03*
X93472000Y-130048000D03*
X136525000Y-129540000D03*
X176911000Y-130556000D03*
X216408000Y-130810000D03*
X96520000Y-141478000D03*
X178054000Y-141478000D03*
X190373000Y-136906000D03*
X194945000Y-137160000D03*
X101662500Y-123698000D03*
X104267000Y-122174000D03*
X115443000Y-123190000D03*
X189992000Y-135128000D03*
X181229000Y-137541000D03*
X177215970Y-137401112D03*
X176911000Y-135001000D03*
X176940541Y-131728541D03*
X189611000Y-131953000D03*
X181229000Y-134366000D03*
X178943000Y-134366000D03*
X86360000Y-112014000D03*
X93218000Y-113538000D03*
X88900000Y-112903000D03*
X84328000Y-111887000D03*
X125250499Y-110363000D03*
X155956000Y-109474000D03*
X197612000Y-109728000D03*
X103378000Y-130937000D03*
X154178000Y-130937000D03*
X189738000Y-130429000D03*
X227330000Y-124841000D03*
X83381541Y-69907459D03*
X92329000Y-133985000D03*
X95123000Y-137668000D03*
X94107000Y-134112000D03*
X88130001Y-81153000D03*
X88130001Y-97409000D03*
X92837000Y-139573000D03*
X90297000Y-136017000D03*
X123825000Y-74803000D03*
X128143000Y-81915000D03*
X128309000Y-91694000D03*
X144018000Y-98552000D03*
X132609999Y-86829999D03*
X124841000Y-85725000D03*
X109728000Y-91059000D03*
X138176000Y-121158000D03*
X142851458Y-120753458D03*
X138303000Y-129159000D03*
X140208000Y-127127000D03*
X113755022Y-98842978D03*
X130683000Y-120142000D03*
X165989000Y-74803000D03*
X169672000Y-82423000D03*
X170507942Y-92036630D03*
X187487980Y-113284000D03*
X178308000Y-126619000D03*
X181102000Y-132334000D03*
X185928000Y-135636000D03*
X177166000Y-104189541D03*
X174840000Y-95377000D03*
X165989000Y-91059000D03*
X151638000Y-91059000D03*
X176149000Y-127381000D03*
X178689000Y-123190000D03*
X176403000Y-125984000D03*
X180721000Y-120396000D03*
X155474522Y-98652478D03*
X171958000Y-125984000D03*
X209042000Y-69596000D03*
X214376000Y-130683000D03*
X213360000Y-81915000D03*
X213868000Y-97536000D03*
X216489777Y-96520000D03*
X219202000Y-121539000D03*
X222377000Y-121031000D03*
X201422000Y-118872000D03*
X207518000Y-125095000D03*
X219329000Y-122809000D03*
X222377000Y-117983000D03*
X213106000Y-119507000D03*
X213106000Y-124460000D03*
X198374000Y-99060000D03*
X207518000Y-120650000D03*
X221233301Y-116586699D03*
X215332272Y-126559272D03*
X212598000Y-127254000D03*
X212344000Y-114427000D03*
X195199000Y-130302000D03*
X198120000Y-133223000D03*
X73560541Y-100048459D03*
X86106000Y-90730001D03*
X71755000Y-94361000D03*
X79629000Y-90932000D03*
X122809000Y-93472000D03*
X127000000Y-90730001D03*
X112268000Y-93980000D03*
X119888000Y-90805000D03*
X165227000Y-94869000D03*
X169545000Y-90730001D03*
X154051000Y-94234000D03*
X163068000Y-91059000D03*
X205740000Y-89789000D03*
X212168000Y-90297000D03*
X195707000Y-93980000D03*
X209423000Y-88773000D03*
D22*
X218480000Y-88780000D02*
X218306000Y-88780000D01*
X208407000Y-115824000D02*
X212217000Y-112014000D01*
X207264000Y-115824000D02*
X208407000Y-115824000D01*
X218480000Y-94067000D02*
X218440000Y-94107000D01*
X218480000Y-88780000D02*
X218480000Y-94067000D01*
X191135000Y-110236000D02*
X191008000Y-110363000D01*
X194945000Y-110236000D02*
X191135000Y-110236000D01*
X186055000Y-115697000D02*
X185801000Y-115951000D01*
X186055000Y-112522000D02*
X186055000Y-115697000D01*
X187706000Y-126746000D02*
X188802291Y-125649709D01*
X186563000Y-126746000D02*
X187706000Y-126746000D01*
X193040000Y-126492000D02*
X194056000Y-125476000D01*
X190754000Y-126492000D02*
X193040000Y-126492000D01*
X194056000Y-129667000D02*
X193675000Y-130048000D01*
X194056000Y-125476000D02*
X194056000Y-129667000D01*
X169672000Y-111506000D02*
X169418000Y-111760000D01*
X173482000Y-111506000D02*
X169672000Y-111506000D01*
X181610000Y-94869000D02*
X183769000Y-92710000D01*
X179578000Y-94869000D02*
X181610000Y-94869000D01*
X176570000Y-94646916D02*
X177550042Y-95626958D01*
X176570000Y-88780000D02*
X176570000Y-94646916D01*
X138430000Y-89662000D02*
X138430000Y-85725000D01*
X141478000Y-92710000D02*
X138430000Y-89662000D01*
X134660000Y-86019000D02*
X134620000Y-85979000D01*
X134660000Y-88780000D02*
X134660000Y-86019000D01*
X93131000Y-93512000D02*
X94107000Y-94488000D01*
X93131000Y-88780000D02*
X93131000Y-93512000D01*
X97790000Y-95758000D02*
X97663000Y-95885000D01*
X100330000Y-95758000D02*
X97790000Y-95758000D01*
X87249000Y-115062000D02*
X86614000Y-114427000D01*
X89535000Y-115062000D02*
X87249000Y-115062000D01*
D23*
X97790000Y-119124590D02*
X95886410Y-117221000D01*
X95886410Y-117221000D02*
X94488000Y-117221000D01*
X97790000Y-120015000D02*
X97790000Y-119124590D01*
X185104011Y-140273011D02*
X185293000Y-140273011D01*
X181102000Y-136271000D02*
X185104011Y-140273011D01*
X202974010Y-139444990D02*
X203989000Y-138430000D01*
X190500000Y-139444990D02*
X202974010Y-139444990D01*
X184110714Y-141448020D02*
X183737850Y-141075156D01*
X188496970Y-141448020D02*
X184110714Y-141448020D01*
X190500000Y-139444990D02*
X188496970Y-141448020D01*
X176674095Y-133067989D02*
X167411011Y-133067989D01*
X178943000Y-130799084D02*
X176674095Y-133067989D01*
X167411011Y-133067989D02*
X162049000Y-138430000D01*
X178943000Y-129794000D02*
X178943000Y-130799084D01*
D22*
X105791000Y-138938000D02*
X103886000Y-140843000D01*
X105791000Y-138811000D02*
X105791000Y-138938000D01*
X101092000Y-140843000D02*
X99060000Y-138811000D01*
X103886000Y-140843000D02*
X101092000Y-140843000D01*
D23*
X105410000Y-118237000D02*
X105029000Y-118618000D01*
X105410000Y-114300000D02*
X105410000Y-118237000D01*
X103378000Y-129413000D02*
X103505000Y-129540000D01*
X103378000Y-127000000D02*
X103378000Y-129413000D01*
D22*
X109093000Y-123952000D02*
X108712000Y-123952000D01*
X110236000Y-125095000D02*
X109093000Y-123952000D01*
X108712000Y-123952000D02*
X104521000Y-123952000D01*
X208153000Y-110617000D02*
X208026000Y-110744000D01*
X212344000Y-110617000D02*
X208153000Y-110617000D01*
X223139000Y-126111000D02*
X224663000Y-124587000D01*
X222885000Y-126111000D02*
X222250000Y-126746000D01*
X223139000Y-126111000D02*
X222885000Y-126111000D01*
X182626000Y-119126000D02*
X185801000Y-115951000D01*
X180467000Y-119126000D02*
X182626000Y-119126000D01*
X146431000Y-126619000D02*
X146304000Y-126746000D01*
X148590000Y-126619000D02*
X146431000Y-126619000D01*
X143256000Y-126746000D02*
X142367000Y-127635000D01*
X146304000Y-126746000D02*
X143256000Y-126746000D01*
X129286000Y-111379000D02*
X127127000Y-111379000D01*
X130429000Y-110236000D02*
X129286000Y-111379000D01*
X79883000Y-105410000D02*
X78232000Y-103759000D01*
X80518000Y-105410000D02*
X79883000Y-105410000D01*
D23*
X119631000Y-128397000D02*
X119758000Y-128270000D01*
X116205000Y-128397000D02*
X119631000Y-128397000D01*
D22*
X101561001Y-129959999D02*
X101473000Y-130048000D01*
X101561001Y-126718999D02*
X101561001Y-129959999D01*
X100302999Y-126276999D02*
X101119001Y-126276999D01*
X101119001Y-126276999D02*
X101561001Y-126718999D01*
X95758000Y-130821998D02*
X100302999Y-126276999D01*
X95758000Y-133604000D02*
X95758000Y-130821998D01*
D23*
X154862511Y-125807489D02*
X152556541Y-128113459D01*
X154448512Y-114300000D02*
X154862511Y-114713999D01*
X154862511Y-114713999D02*
X154862511Y-125807489D01*
X152400000Y-114300000D02*
X154448512Y-114300000D01*
D22*
X196507999Y-129451999D02*
X198628000Y-131572000D01*
X194271001Y-129451999D02*
X196507999Y-129451999D01*
X193675000Y-130048000D02*
X194271001Y-129451999D01*
X224536000Y-95631000D02*
X222123000Y-98044000D01*
X225171000Y-95631000D02*
X224536000Y-95631000D01*
X193910001Y-109201001D02*
X194945000Y-110236000D01*
X193910001Y-102761999D02*
X193910001Y-109201001D01*
X194310000Y-102362000D02*
X193910001Y-102761999D01*
X84709000Y-77343000D02*
X84836000Y-77216000D01*
X84709000Y-81915000D02*
X84709000Y-77343000D01*
X144907000Y-107950000D02*
X145796000Y-108839000D01*
X141478000Y-107950000D02*
X144907000Y-107950000D01*
D24*
X69088000Y-134620000D02*
X71628000Y-134620000D01*
X69088000Y-137160000D02*
X71628000Y-137160000D01*
X69088000Y-132080000D02*
X71628000Y-132080000D01*
X71628000Y-134620000D02*
X69088000Y-132080000D01*
X71628000Y-137160000D02*
X69088000Y-134620000D01*
D22*
X133350000Y-71120000D02*
X133350000Y-70866000D01*
X99060000Y-141097000D02*
X97536000Y-142621000D01*
X97536000Y-142621000D02*
X96774000Y-142621000D01*
D24*
X79121000Y-142621000D02*
X96774000Y-142621000D01*
D22*
X141986000Y-142621000D02*
X140970000Y-142621000D01*
X143383000Y-141224000D02*
X141986000Y-142621000D01*
X179832000Y-142621000D02*
X178435000Y-142621000D01*
D24*
X140970000Y-142621000D02*
X178435000Y-142621000D01*
D22*
X199771000Y-142240000D02*
X199771000Y-142621000D01*
X200660000Y-141351000D02*
X199771000Y-142240000D01*
D24*
X199771000Y-142621000D02*
X219964000Y-142621000D01*
X178435000Y-142621000D02*
X199771000Y-142621000D01*
D22*
X180086000Y-128651000D02*
X181864000Y-126873000D01*
X180086000Y-142367000D02*
X180086000Y-128651000D01*
X181102000Y-141351000D02*
X180086000Y-142367000D01*
X180086000Y-142367000D02*
X179832000Y-142621000D01*
X97917000Y-129921000D02*
X100711000Y-127127000D01*
D24*
X96774000Y-142621000D02*
X97917000Y-142621000D01*
D22*
X97917000Y-142621000D02*
X97917000Y-129921000D01*
X115824000Y-142240000D02*
X115824000Y-142621000D01*
X116967000Y-141097000D02*
X115824000Y-142240000D01*
D24*
X115824000Y-142621000D02*
X140970000Y-142621000D01*
X97917000Y-142621000D02*
X115824000Y-142621000D01*
X77009999Y-140509999D02*
X79121000Y-142621000D01*
X77009999Y-121459999D02*
X77009999Y-121491001D01*
X71755000Y-116205000D02*
X77009999Y-121459999D01*
X77009999Y-121491001D02*
X77009999Y-140509999D01*
D22*
X133350000Y-71081000D02*
X130810000Y-68541000D01*
X133350000Y-71120000D02*
X133350000Y-71081000D01*
X171450000Y-70993000D02*
X171450000Y-68453000D01*
X173482000Y-73025000D02*
X171450000Y-70993000D01*
X215265000Y-71120000D02*
X212979000Y-68834000D01*
X217805000Y-71120000D02*
X215265000Y-71120000D01*
X87259999Y-96890001D02*
X85090000Y-99060000D01*
X87259999Y-94879999D02*
X87259999Y-96890001D01*
X86360000Y-93980000D02*
X87259999Y-94879999D01*
X128323332Y-96890001D02*
X126153333Y-99060000D01*
X128323332Y-94879999D02*
X128323332Y-96890001D01*
X127423333Y-93980000D02*
X128323332Y-94879999D01*
X169836667Y-94060001D02*
X169836667Y-97709999D01*
X169836667Y-97709999D02*
X168486666Y-99060000D01*
X169756666Y-93980000D02*
X169836667Y-94060001D01*
X211900001Y-97709999D02*
X210550000Y-99060000D01*
X211900001Y-94060001D02*
X211900001Y-97709999D01*
X211820000Y-93980000D02*
X211900001Y-94060001D01*
X220599000Y-98766000D02*
X221909000Y-100076000D01*
X220599000Y-92710000D02*
X220599000Y-98766000D01*
X178689000Y-98766000D02*
X179999000Y-100076000D01*
X178689000Y-92710000D02*
X178689000Y-98766000D01*
X136398000Y-98766000D02*
X137708000Y-100076000D01*
X136398000Y-92710000D02*
X136398000Y-98766000D01*
X95250000Y-98766000D02*
X96560000Y-100076000D01*
X95250000Y-92710000D02*
X95250000Y-98766000D01*
X191350000Y-98806000D02*
X190588000Y-98044000D01*
X193167000Y-98806000D02*
X191350000Y-98806000D01*
X180088998Y-100076000D02*
X179999000Y-100076000D01*
X182501998Y-97663000D02*
X180088998Y-100076000D01*
X185801000Y-97663000D02*
X182501998Y-97663000D01*
X71581000Y-74803000D02*
X70358000Y-73580000D01*
X81280000Y-74803000D02*
X71581000Y-74803000D01*
X87122000Y-91535999D02*
X87280001Y-91694000D01*
X87122000Y-82042000D02*
X87122000Y-91535999D01*
X104775000Y-134211990D02*
X103759000Y-135227990D01*
X104775000Y-127508000D02*
X104775000Y-134211990D01*
X69850000Y-48260000D02*
X72390000Y-48260000D01*
X72390000Y-48260000D02*
X73560001Y-47089999D01*
X83919999Y-47089999D02*
X85090000Y-48260000D01*
X73560001Y-47089999D02*
X83919999Y-47089999D01*
X68171999Y-66393999D02*
X68171999Y-49938001D01*
X68171999Y-49938001D02*
X69850000Y-48260000D01*
X70358000Y-68580000D02*
X68171999Y-66393999D01*
X90530011Y-89034987D02*
X90530011Y-96520000D01*
X99949000Y-73453000D02*
X99949000Y-76200000D01*
X90530011Y-85618989D02*
X90530011Y-89034987D01*
X99949000Y-76200000D02*
X90530011Y-85618989D01*
X82479998Y-96520000D02*
X85090000Y-96520000D01*
X81199999Y-97799999D02*
X82479998Y-96520000D01*
X81199999Y-103812499D02*
X81199999Y-97799999D01*
X85090000Y-107702500D02*
X81199999Y-103812499D01*
X93029010Y-109411010D02*
X93029010Y-106242084D01*
X97410000Y-113792000D02*
X93029010Y-109411010D01*
X93029010Y-106242084D02*
X90424000Y-103637074D01*
X90424000Y-103632000D02*
X90380021Y-103588021D01*
X90424000Y-103637074D02*
X90424000Y-103632000D01*
X90380021Y-103588021D02*
X90380021Y-97833979D01*
X91567000Y-96741013D02*
X91567000Y-95504000D01*
X90474034Y-97833979D02*
X91567000Y-96741013D01*
X90380021Y-97833979D02*
X90474034Y-97833979D01*
D23*
X72135999Y-95885000D02*
X71754999Y-95504000D01*
X79756000Y-95885000D02*
X72135999Y-95885000D01*
D22*
X94361000Y-124079000D02*
X93472000Y-123190000D01*
X95694990Y-124079000D02*
X94361000Y-124079000D01*
X89154000Y-119252002D02*
X89154000Y-120650000D01*
X83252499Y-113350501D02*
X89154000Y-119252002D01*
X78994000Y-102596463D02*
X83252499Y-106854962D01*
X83252499Y-106854962D02*
X83252499Y-113350501D01*
X78994000Y-101346000D02*
X78994000Y-102596463D01*
D23*
X95573998Y-118872000D02*
X93472000Y-118872000D01*
X97478998Y-120777000D02*
X95573998Y-118872000D01*
X98552000Y-120777000D02*
X97478998Y-120777000D01*
D22*
X93269992Y-127762000D02*
X91821000Y-127762000D01*
X99568000Y-121463992D02*
X93269992Y-127762000D01*
X99568000Y-118237000D02*
X99568000Y-121463992D01*
X130909999Y-103965035D02*
X135255000Y-108310036D01*
X130909999Y-76287917D02*
X130909999Y-103965035D01*
X124085041Y-69462959D02*
X130909999Y-76287917D01*
X135255000Y-108310036D02*
X135255000Y-117348000D01*
X134239998Y-133350000D02*
X135255000Y-133350000D01*
X129807999Y-122795001D02*
X129807999Y-128918001D01*
X129807999Y-128918001D02*
X134239998Y-133350000D01*
X135255000Y-117348000D02*
X129807999Y-122795001D01*
D23*
X138176000Y-137922000D02*
X138176000Y-133985000D01*
X134239000Y-136271000D02*
X134493000Y-136017000D01*
X134239000Y-141478000D02*
X134239000Y-136271000D01*
D22*
X129159000Y-81280000D02*
X129159000Y-97409000D01*
D23*
X143546999Y-136365001D02*
X144341998Y-137160000D01*
X143546999Y-135668999D02*
X143546999Y-136365001D01*
X143923998Y-135292000D02*
X143546999Y-135668999D01*
X144341998Y-137160000D02*
X144399000Y-137160000D01*
X148336000Y-135292000D02*
X143923998Y-135292000D01*
D22*
X143833315Y-137160000D02*
X144399000Y-137160000D01*
X139808314Y-133134999D02*
X143833315Y-137160000D01*
X137767999Y-133134999D02*
X139808314Y-133134999D01*
X136409998Y-134493000D02*
X137767999Y-133134999D01*
X133096000Y-134493000D02*
X136409998Y-134493000D01*
D23*
X152654000Y-136017000D02*
X144272000Y-136017000D01*
X154051000Y-137414000D02*
X152654000Y-136017000D01*
D22*
X131759999Y-89722999D02*
X131759999Y-96520000D01*
X131759999Y-89333999D02*
X131759999Y-89722999D01*
X123543331Y-96520000D02*
X126153333Y-96520000D01*
X122263332Y-97799999D02*
X123543331Y-96520000D01*
X122263332Y-103727832D02*
X122263332Y-97799999D01*
X126238000Y-107702500D02*
X122263332Y-103727832D01*
X135763000Y-83312000D02*
X132474002Y-83312000D01*
X131759999Y-84026003D02*
X131759999Y-89722999D01*
X132474002Y-83312000D02*
X131759999Y-84026003D01*
X140970000Y-78105000D02*
X135763000Y-83312000D01*
X140970000Y-73580000D02*
X140970000Y-78105000D01*
D23*
X135724000Y-127420000D02*
X133096000Y-127420000D01*
X136529905Y-126614095D02*
X135724000Y-127420000D01*
X148698001Y-130447999D02*
X150368000Y-128778000D01*
X135019999Y-130447999D02*
X148698001Y-130447999D01*
X134620000Y-130048000D02*
X135019999Y-130447999D01*
X154137510Y-115062000D02*
X150749000Y-115062000D01*
D22*
X175720001Y-78692001D02*
X175720001Y-82089999D01*
X167132000Y-70104000D02*
X175720001Y-78692001D01*
X175720001Y-82089999D02*
X173101000Y-84709000D01*
X173101000Y-103865036D02*
X175766511Y-106530546D01*
X173101000Y-84709000D02*
X173101000Y-103865036D01*
X175766511Y-106530546D02*
X175766511Y-123699489D01*
X173736998Y-130556000D02*
X175006000Y-130556000D01*
X172098999Y-128918001D02*
X173736998Y-130556000D01*
X172098999Y-127367001D02*
X172098999Y-128918001D01*
X175766511Y-123699489D02*
X172098999Y-127367001D01*
D23*
X175768000Y-137287000D02*
X175768000Y-134493000D01*
X176784000Y-138303000D02*
X175768000Y-137287000D01*
X174117000Y-136709002D02*
X178123998Y-140716000D01*
X178123998Y-140716000D02*
X178943000Y-140716000D01*
X174117000Y-134747000D02*
X174117000Y-136709002D01*
D22*
X171387500Y-97230833D02*
X171526667Y-97370000D01*
X171387500Y-82423000D02*
X171387500Y-97230833D01*
X183220263Y-131670261D02*
X183156991Y-131670261D01*
X187071000Y-135520998D02*
X183220263Y-131670261D01*
X187071000Y-139573000D02*
X187071000Y-135520998D01*
X173990000Y-89013998D02*
X173990000Y-96520000D01*
X182880000Y-73580000D02*
X182880000Y-75946000D01*
X173990000Y-84836000D02*
X173990000Y-89013998D01*
X182880000Y-75946000D02*
X173990000Y-84836000D01*
X165876664Y-96520000D02*
X168486666Y-96520000D01*
X164596665Y-97799999D02*
X165876664Y-96520000D01*
X164596665Y-103770165D02*
X164596665Y-97799999D01*
X168529000Y-107702500D02*
X164596665Y-103770165D01*
D23*
X174916511Y-119215489D02*
X174916511Y-118872000D01*
X172212000Y-121920000D02*
X174916511Y-119215489D01*
X178308000Y-115951000D02*
X180721000Y-115951000D01*
X176784000Y-117475000D02*
X178308000Y-115951000D01*
X224790000Y-126125371D02*
X224790000Y-128143000D01*
X226124083Y-124791288D02*
X224790000Y-126125371D01*
X223520000Y-134874000D02*
X223520000Y-139700000D01*
X225425000Y-132969000D02*
X223520000Y-134874000D01*
X219075000Y-132969000D02*
X225425000Y-132969000D01*
X216408000Y-135636000D02*
X219075000Y-132969000D01*
D22*
X206041000Y-73580000D02*
X195580000Y-73580000D01*
X207264000Y-74803000D02*
X206041000Y-73580000D01*
X213018000Y-83097000D02*
X213018000Y-91694000D01*
X212471000Y-82550000D02*
X213018000Y-83097000D01*
X223227001Y-117378316D02*
X223227001Y-121704999D01*
X220529685Y-114681000D02*
X223227001Y-117378316D01*
X223227001Y-121704999D02*
X220218000Y-124714000D01*
X219964000Y-114681000D02*
X220529685Y-114681000D01*
X223266000Y-131699000D02*
X223520000Y-131445000D01*
X220345000Y-131699000D02*
X223266000Y-131699000D01*
X195199000Y-48260000D02*
X197739000Y-48260000D01*
X209379999Y-47089999D02*
X210550000Y-48260000D01*
X198909001Y-47089999D02*
X209379999Y-47089999D01*
X197739000Y-48260000D02*
X198909001Y-47089999D01*
X193629999Y-66629999D02*
X195580000Y-68580000D01*
X193629999Y-49829001D02*
X193629999Y-66629999D01*
X195199000Y-48260000D02*
X193629999Y-49829001D01*
X98960001Y-89609001D02*
X98131000Y-88780000D01*
X101180991Y-105167409D02*
X101180991Y-95350989D01*
X98960001Y-93129999D02*
X98960001Y-92174999D01*
X101180991Y-95350989D02*
X98960001Y-93129999D01*
X99159999Y-107188401D02*
X101180991Y-105167409D01*
X99159999Y-108511601D02*
X99159999Y-107188401D01*
X101180991Y-121349047D02*
X101180991Y-110532593D01*
X93625038Y-128905000D02*
X101180991Y-121349047D01*
X101180991Y-110532593D02*
X99159999Y-108511601D01*
X90645000Y-128905000D02*
X93625038Y-128905000D01*
X90010000Y-128270000D02*
X90645000Y-128905000D01*
X98960001Y-92174999D02*
X98960001Y-89609001D01*
X118491000Y-90932000D02*
X115951000Y-90932000D01*
X119634000Y-89789000D02*
X118491000Y-90932000D01*
X145869988Y-118937010D02*
X136536998Y-128270000D01*
X145984990Y-110327047D02*
X145984990Y-118937010D01*
X145984990Y-118937010D02*
X145869988Y-118937010D01*
X146646001Y-109666036D02*
X145984990Y-110327047D01*
X146646001Y-108265964D02*
X146646001Y-109666036D01*
X145984990Y-107604953D02*
X146646001Y-108265964D01*
X145984990Y-91694000D02*
X145984990Y-107604953D01*
X136536998Y-128270000D02*
X131158000Y-128270000D01*
X143070990Y-88780000D02*
X145984990Y-91694000D01*
X139660000Y-88780000D02*
X143070990Y-88780000D01*
X159004000Y-89916000D02*
X157734000Y-91186000D01*
X162179000Y-89916000D02*
X159004000Y-89916000D01*
X186062000Y-88780000D02*
X181570000Y-88780000D01*
X188337980Y-91055980D02*
X186062000Y-88780000D01*
X188337980Y-118139058D02*
X188337980Y-91055980D01*
X178207038Y-128270000D02*
X188337980Y-118139058D01*
X173449000Y-128270000D02*
X178207038Y-128270000D01*
X205994000Y-90932000D02*
X200279000Y-90932000D01*
X209296000Y-87630000D02*
X205994000Y-90932000D01*
X215389000Y-128270000D02*
X217958038Y-128270000D01*
X224309001Y-93071603D02*
X224309001Y-89609001D01*
X226240601Y-95003203D02*
X224309001Y-93071603D01*
X224309001Y-89609001D02*
X223480000Y-88780000D01*
X226240601Y-105656797D02*
X226240601Y-95003203D01*
X224508999Y-107388399D02*
X226240601Y-105656797D01*
X224508999Y-121719039D02*
X224508999Y-107388399D01*
X217958038Y-128270000D02*
X224508999Y-121719039D01*
X99350003Y-65750001D02*
X101881001Y-68280999D01*
X101881001Y-121638999D02*
X93472000Y-130048000D01*
X101881001Y-68280999D02*
X101881001Y-121638999D01*
X96731001Y-65750001D02*
X99350003Y-65750001D01*
X95631000Y-64650000D02*
X96731001Y-65750001D01*
X138260001Y-65750001D02*
X139990003Y-65750001D01*
X139990003Y-65750001D02*
X146685000Y-72444998D01*
X137160000Y-64650000D02*
X138260001Y-65750001D01*
X146685000Y-119380000D02*
X136525000Y-129540000D01*
X146685000Y-72444998D02*
X146685000Y-107315000D01*
X146685000Y-110617000D02*
X146685000Y-119380000D01*
X147346009Y-109955991D02*
X146685000Y-110617000D01*
X147346009Y-107976010D02*
X147346009Y-109955991D01*
X146685000Y-107315000D02*
X147346009Y-107976010D01*
X182463001Y-65750001D02*
X189037990Y-72324990D01*
X180170001Y-65750001D02*
X182463001Y-65750001D01*
X179070000Y-64650000D02*
X180170001Y-65750001D01*
X189037990Y-118429010D02*
X176911000Y-130556000D01*
X189037990Y-72324990D02*
X189037990Y-118429010D01*
X227230001Y-119987999D02*
X227230001Y-69169999D01*
X222080001Y-65750001D02*
X220980000Y-64650000D01*
X223810003Y-65750001D02*
X222080001Y-65750001D01*
X227230001Y-69169999D02*
X223810003Y-65750001D01*
X216408000Y-130810000D02*
X227230001Y-119987999D01*
X91627501Y-106820499D02*
X91627501Y-116492499D01*
X88980001Y-104172999D02*
X91627501Y-106820499D01*
X88980001Y-76708001D02*
X88980001Y-104172999D01*
X91627501Y-116492499D02*
X90010000Y-118110000D01*
X76922000Y-64650000D02*
X88980001Y-76708001D01*
X132775501Y-116492499D02*
X131158000Y-118110000D01*
X132775501Y-106820499D02*
X132775501Y-116492499D01*
X130055999Y-104100997D02*
X132775501Y-106820499D01*
X130055999Y-76635999D02*
X130055999Y-104100997D01*
X118070000Y-64650000D02*
X130055999Y-76635999D01*
X175066501Y-106820499D02*
X175066501Y-116492499D01*
X175066501Y-116492499D02*
X173449000Y-118110000D01*
X172376667Y-104130665D02*
X175066501Y-106820499D01*
X172376667Y-77046667D02*
X172376667Y-104130665D01*
X159980000Y-64650000D02*
X172376667Y-77046667D01*
X216976501Y-106820499D02*
X216976501Y-116522499D01*
X214729999Y-104573997D02*
X216976501Y-106820499D01*
X216976501Y-116522499D02*
X215389000Y-118110000D01*
X214729999Y-76999999D02*
X214729999Y-104573997D01*
X202380000Y-64650000D02*
X214729999Y-76999999D01*
X93472000Y-138430000D02*
X96520000Y-141478000D01*
X90010000Y-138430000D02*
X93472000Y-138430000D01*
X175006000Y-138430000D02*
X178054000Y-141478000D01*
X173449000Y-138430000D02*
X175006000Y-138430000D01*
X194691000Y-136906000D02*
X194945000Y-137160000D01*
X190373000Y-136906000D02*
X194691000Y-136906000D01*
X93179001Y-134393001D02*
X93179001Y-132181499D01*
X93179001Y-132181499D02*
X101662500Y-123698000D01*
X92737001Y-134835001D02*
X93179001Y-134393001D01*
X85304999Y-134835001D02*
X92737001Y-134835001D01*
X81710000Y-138430000D02*
X85304999Y-134835001D01*
X105283000Y-123190000D02*
X115443000Y-123190000D01*
X104267000Y-122174000D02*
X105283000Y-123190000D01*
D23*
X189592001Y-139123187D02*
X187717177Y-140998011D01*
X184686011Y-140998011D02*
X181229000Y-137541000D01*
X189992000Y-135128000D02*
X189592001Y-135527999D01*
X187717177Y-140998011D02*
X184686011Y-140998011D01*
X189592001Y-135527999D02*
X189592001Y-139123187D01*
X177215970Y-135305970D02*
X176911000Y-135001000D01*
X177215970Y-137401112D02*
X177215970Y-135305970D01*
X125996001Y-135291999D02*
X122858000Y-138430000D01*
X135218001Y-135668999D02*
X134841001Y-135291999D01*
X134841001Y-135291999D02*
X125996001Y-135291999D01*
X138508001Y-139655001D02*
X135218001Y-136365001D01*
X135218001Y-136365001D02*
X135218001Y-135668999D01*
X160809461Y-131728541D02*
X152883001Y-139655001D01*
X152883001Y-139655001D02*
X138508001Y-139655001D01*
X176940541Y-131728541D02*
X160809461Y-131728541D01*
D22*
X181229000Y-134989002D02*
X181229000Y-134366000D01*
X187479001Y-140423001D02*
X186662999Y-140423001D01*
X187921001Y-133642999D02*
X187921001Y-139981001D01*
X186662999Y-140423001D02*
X181229000Y-134989002D01*
X187921001Y-139981001D02*
X187479001Y-140423001D01*
X189611000Y-131953000D02*
X187921001Y-133642999D01*
X169936001Y-133642999D02*
X165149000Y-138430000D01*
X178219999Y-133642999D02*
X169936001Y-133642999D01*
X178943000Y-134366000D02*
X178219999Y-133642999D01*
X86360000Y-111132500D02*
X86360000Y-112014000D01*
X89790000Y-107702500D02*
X86360000Y-111132500D01*
X94322001Y-114642001D02*
X93218000Y-113538000D01*
X97818001Y-114642001D02*
X94322001Y-114642001D01*
X98260001Y-114200001D02*
X97818001Y-114642001D01*
X98260001Y-110960001D02*
X98260001Y-114200001D01*
X95250000Y-107950000D02*
X98260001Y-110960001D01*
X85344000Y-112903000D02*
X84328000Y-111887000D01*
X88900000Y-112903000D02*
X85344000Y-112903000D01*
X128277500Y-110363000D02*
X125250499Y-110363000D01*
X130938000Y-107702500D02*
X128277500Y-110363000D01*
X144868001Y-99479999D02*
X136398000Y-107950000D01*
X144868001Y-98143999D02*
X144868001Y-99479999D01*
X144426001Y-97701999D02*
X144868001Y-98143999D01*
X112220001Y-87012035D02*
X112220001Y-80583999D01*
X141998399Y-97701999D02*
X144426001Y-97701999D01*
X117541999Y-63549999D02*
X118598001Y-63549999D01*
X137568001Y-92148399D02*
X137568001Y-93271601D01*
X135836399Y-90416797D02*
X137568001Y-92148399D01*
X142220001Y-78873997D02*
X135836399Y-85257599D01*
X142220001Y-72979999D02*
X142220001Y-78873997D01*
X118598001Y-63549999D02*
X122739002Y-67691000D01*
X108877999Y-96929999D02*
X108877999Y-90354037D01*
X110509999Y-72979999D02*
X116969999Y-66519999D01*
X122739002Y-67691000D02*
X136931002Y-67691000D01*
X116969999Y-64121999D02*
X117541999Y-63549999D01*
X116969999Y-66519999D02*
X116969999Y-64121999D01*
X136931002Y-67691000D02*
X142220001Y-72979999D01*
X112220001Y-80583999D02*
X110509999Y-78873997D01*
X110509999Y-78873997D02*
X110509999Y-72979999D01*
X137568001Y-93271601D02*
X141998399Y-97701999D01*
X121538000Y-107702500D02*
X119650500Y-107702500D01*
X108877999Y-90354037D02*
X112220001Y-87012035D01*
X119650500Y-107702500D02*
X108877999Y-96929999D01*
X135836399Y-85257599D02*
X135836399Y-90416797D01*
X156022001Y-109540001D02*
X155956000Y-109474000D01*
X171391499Y-109540001D02*
X156022001Y-109540001D01*
X173229000Y-107702500D02*
X171391499Y-109540001D01*
X150787999Y-92707953D02*
X163829000Y-105748954D01*
X158879999Y-64121999D02*
X158879999Y-65178001D01*
X159451999Y-63549999D02*
X158879999Y-64121999D01*
X173499999Y-63549999D02*
X159451999Y-63549999D01*
X182279999Y-72329999D02*
X173499999Y-63549999D01*
X183480001Y-72329999D02*
X182279999Y-72329999D01*
X163829000Y-105748954D02*
X163829000Y-107702500D01*
X174690010Y-85125952D02*
X184130001Y-75685961D01*
X174690010Y-93969008D02*
X174690010Y-85125952D01*
X184130001Y-75685961D02*
X184130001Y-72979999D01*
X177866010Y-97145008D02*
X174690010Y-93969008D01*
X150787999Y-73270001D02*
X150787999Y-92707953D01*
X177866010Y-103631549D02*
X177866010Y-97145008D01*
X184130001Y-72979999D02*
X183480001Y-72329999D01*
X178689000Y-104454539D02*
X177866010Y-103631549D01*
X158879999Y-65178001D02*
X150787999Y-73270001D01*
X178689000Y-107950000D02*
X178689000Y-104454539D01*
X213113500Y-109728000D02*
X197612000Y-109728000D01*
X215139000Y-107702500D02*
X213113500Y-109728000D01*
X205739000Y-105166998D02*
X205739000Y-107702500D01*
X195402003Y-94830001D02*
X205739000Y-105166998D01*
X194856999Y-94388001D02*
X195298999Y-94830001D01*
X194856999Y-93571999D02*
X194856999Y-94388001D01*
X198346999Y-90081999D02*
X194856999Y-93571999D01*
X204774997Y-90081999D02*
X198346999Y-90081999D01*
X214029989Y-77289951D02*
X204774997Y-86544943D01*
X202490039Y-65750001D02*
X214029989Y-77289951D01*
X201851999Y-65750001D02*
X202490039Y-65750001D01*
X201279999Y-65178001D02*
X201851999Y-65750001D01*
X195298999Y-94830001D02*
X195402003Y-94830001D01*
X201279999Y-64121999D02*
X201279999Y-65178001D01*
X224189999Y-72329999D02*
X215409999Y-63549999D01*
X204774997Y-86544943D02*
X204774997Y-90081999D01*
X225390001Y-72329999D02*
X224189999Y-72329999D01*
X226040001Y-72979999D02*
X225390001Y-72329999D01*
X226040001Y-75738230D02*
X226040001Y-72979999D01*
X201851999Y-63549999D02*
X201279999Y-64121999D01*
X217189787Y-84588444D02*
X226040001Y-75738230D01*
X217189787Y-95962008D02*
X217189787Y-84588444D01*
X215409999Y-63549999D02*
X201851999Y-63549999D01*
X219879001Y-98651222D02*
X217189787Y-95962008D01*
X219879001Y-107230001D02*
X219879001Y-98651222D01*
X220599000Y-107950000D02*
X219879001Y-107230001D01*
X98131000Y-64650000D02*
X99050238Y-64650000D01*
X102581011Y-67991046D02*
X102581011Y-124875989D01*
X99239964Y-64650000D02*
X102581011Y-67991046D01*
X98131000Y-64650000D02*
X99239964Y-64650000D01*
X102581011Y-124875989D02*
X102489000Y-124968000D01*
X102489000Y-130048000D02*
X103378000Y-130937000D01*
X102489000Y-124968000D02*
X102489000Y-130048000D01*
X154305000Y-130810000D02*
X154178000Y-130937000D01*
X148046019Y-107686057D02*
X148046019Y-110271981D01*
X147385010Y-124144010D02*
X154178000Y-130937000D01*
X147385010Y-110932990D02*
X147385010Y-124144010D01*
X139660000Y-64650000D02*
X139879964Y-64650000D01*
X147385010Y-107025047D02*
X148046019Y-107686057D01*
X147385010Y-72155045D02*
X147385010Y-107025047D01*
X148046019Y-110271981D02*
X147385010Y-110932990D01*
X139879964Y-64650000D02*
X147385010Y-72155045D01*
X189738000Y-71898762D02*
X189738000Y-130429000D01*
X182489238Y-64650000D02*
X189738000Y-71898762D01*
X181570000Y-64650000D02*
X182489238Y-64650000D01*
X223699965Y-64650000D02*
X223480000Y-64650000D01*
X227930011Y-124240989D02*
X227930011Y-68880046D01*
X227930011Y-68880046D02*
X223699965Y-64650000D01*
X227330000Y-124841000D02*
X227930011Y-124240989D01*
X92281001Y-82851999D02*
X89680011Y-85452989D01*
X92281001Y-78806919D02*
X92281001Y-82851999D01*
X83381541Y-69907459D02*
X92281001Y-78806919D01*
X89680011Y-103883047D02*
X92329000Y-106532036D01*
X89680011Y-85452989D02*
X89680011Y-103883047D01*
X92329000Y-106532036D02*
X92329000Y-120396000D01*
X88659999Y-130315999D02*
X92329000Y-133985000D01*
X88659999Y-124065001D02*
X88659999Y-130315999D01*
X92329000Y-120396000D02*
X88659999Y-124065001D01*
D23*
X95123000Y-137668000D02*
X95123000Y-134874000D01*
X94361000Y-134112000D02*
X94107000Y-134112000D01*
X95123000Y-134874000D02*
X94361000Y-134112000D01*
D22*
X88130001Y-81153000D02*
X88130001Y-97409000D01*
D23*
X88784999Y-137529001D02*
X90297000Y-136017000D01*
X88784999Y-139018001D02*
X88784999Y-137529001D01*
X92437001Y-139972999D02*
X89739997Y-139972999D01*
X89739997Y-139972999D02*
X88784999Y-139018001D01*
X92837000Y-139573000D02*
X92437001Y-139972999D01*
D22*
X122602000Y-73580000D02*
X111760000Y-73580000D01*
X123825000Y-74803000D02*
X122602000Y-73580000D01*
X128143000Y-91528000D02*
X128309000Y-91694000D01*
X128143000Y-81915000D02*
X128143000Y-91528000D01*
X110998000Y-48260000D02*
X113538000Y-48260000D01*
X124983332Y-47089999D02*
X126153333Y-48260000D01*
X114708001Y-47089999D02*
X124983332Y-47089999D01*
X113538000Y-48260000D02*
X114708001Y-47089999D01*
X109319999Y-49938001D02*
X110998000Y-48260000D01*
X109319999Y-66139999D02*
X109319999Y-49938001D01*
X111760000Y-68580000D02*
X109319999Y-66139999D01*
X132609999Y-96828001D02*
X132609999Y-88646000D01*
X137107999Y-101326001D02*
X132609999Y-96828001D01*
X132609999Y-88646000D02*
X132609999Y-86829999D01*
X109728000Y-90493998D02*
X109728000Y-91059000D01*
X114896997Y-85325001D02*
X109728000Y-90493998D01*
X124441001Y-85325001D02*
X114896997Y-85325001D01*
X124841000Y-85725000D02*
X124441001Y-85325001D01*
X141243999Y-101326001D02*
X137107999Y-101326001D01*
X144018000Y-98552000D02*
X141243999Y-101326001D01*
D23*
X138580542Y-120753458D02*
X142851458Y-120753458D01*
X138176000Y-121158000D02*
X138580542Y-120753458D01*
D22*
X138303000Y-129032000D02*
X140208000Y-127127000D01*
X138303000Y-129159000D02*
X138303000Y-129032000D01*
X124400499Y-113858087D02*
X130683000Y-120140588D01*
X124400499Y-106979997D02*
X124400499Y-113858087D01*
X113755022Y-98842978D02*
X116263480Y-98842978D01*
X116263480Y-98842978D02*
X124400499Y-106979997D01*
X130683000Y-120140588D02*
X130683000Y-120142000D01*
X164766000Y-73580000D02*
X153670000Y-73580000D01*
X165989000Y-74803000D02*
X164766000Y-73580000D01*
X170507942Y-83258942D02*
X170507942Y-92036630D01*
X169672000Y-82423000D02*
X170507942Y-83258942D01*
X187487980Y-117439020D02*
X178308000Y-126619000D01*
X187487980Y-113284000D02*
X187487980Y-117439020D01*
X182626000Y-132334000D02*
X185928000Y-135636000D01*
X181102000Y-132334000D02*
X182626000Y-132334000D01*
X153289000Y-48260000D02*
X155829000Y-48260000D01*
X167316665Y-47089999D02*
X168486666Y-48260000D01*
X156999001Y-47089999D02*
X167316665Y-47089999D01*
X155829000Y-48260000D02*
X156999001Y-47089999D01*
X151229999Y-50319001D02*
X153289000Y-48260000D01*
X151229999Y-66139999D02*
X151229999Y-50319001D01*
X153670000Y-68580000D02*
X151229999Y-66139999D01*
X177166000Y-97703000D02*
X174840000Y-95377000D01*
X177166000Y-104189541D02*
X177166000Y-97703000D01*
D23*
X159004999Y-88841999D02*
X156787998Y-91059000D01*
X161427999Y-85888999D02*
X159004999Y-88311999D01*
X166464001Y-85888999D02*
X161427999Y-85888999D01*
X156787998Y-91059000D02*
X151638000Y-91059000D01*
X166841001Y-86265999D02*
X166464001Y-85888999D01*
X166841001Y-90206999D02*
X166841001Y-86265999D01*
X159004999Y-88311999D02*
X159004999Y-88841999D01*
X165989000Y-91059000D02*
X166841001Y-90206999D01*
X178689000Y-124841000D02*
X178689000Y-123190000D01*
X176149000Y-127381000D02*
X178689000Y-124841000D01*
X176403000Y-124402998D02*
X180409998Y-120396000D01*
X180409998Y-120396000D02*
X180721000Y-120396000D01*
X176403000Y-125984000D02*
X176403000Y-124402998D01*
D22*
X167924998Y-125984000D02*
X171958000Y-125984000D01*
X154658999Y-112718001D02*
X167924998Y-125984000D01*
X154658999Y-99468001D02*
X154658999Y-112718001D01*
X155474522Y-98652478D02*
X154658999Y-99468001D01*
X215639777Y-104493813D02*
X217676511Y-106530546D01*
X215639777Y-83966225D02*
X215639777Y-104493813D01*
X217630001Y-78184001D02*
X217630001Y-81976001D01*
X217630001Y-81976001D02*
X215639777Y-83966225D01*
X209042000Y-69596000D02*
X217630001Y-78184001D01*
X217676511Y-106530546D02*
X217676511Y-119000489D01*
X214038999Y-130345999D02*
X214376000Y-130683000D01*
X214038999Y-122638001D02*
X214038999Y-130345999D01*
X217676511Y-119000489D02*
X214038999Y-122638001D01*
X213868000Y-82423000D02*
X213868000Y-97536000D01*
X213360000Y-81915000D02*
X213868000Y-82423000D01*
X224790000Y-73580000D02*
X224790000Y-75998269D01*
X216489777Y-84298492D02*
X216489777Y-88473777D01*
X224790000Y-75998269D02*
X216489777Y-84298492D01*
X216489777Y-88473777D02*
X216489777Y-96520000D01*
X216489777Y-88424221D02*
X216489777Y-88473777D01*
X207939998Y-96520000D02*
X210550000Y-96520000D01*
X206659999Y-97799999D02*
X207939998Y-96520000D01*
X206659999Y-103923499D02*
X206659999Y-97799999D01*
X210439000Y-107702500D02*
X206659999Y-103923499D01*
X218920999Y-123659001D02*
X219748999Y-123659001D01*
X219748999Y-123659001D02*
X222377000Y-121031000D01*
X218478999Y-123217001D02*
X218920999Y-123659001D01*
X218478999Y-122262001D02*
X218478999Y-123217001D01*
X219202000Y-121539000D02*
X218478999Y-122262001D01*
X207518000Y-124968000D02*
X207518000Y-125095000D01*
X201422000Y-118872000D02*
X207518000Y-124968000D01*
X219329000Y-122809000D02*
X221869000Y-120269000D01*
X222377000Y-119634000D02*
X222377000Y-117983000D01*
X221869000Y-120142000D02*
X222377000Y-119634000D01*
X221869000Y-120269000D02*
X221869000Y-120142000D01*
X213106000Y-119507000D02*
X213106000Y-124460000D01*
X204530998Y-120650000D02*
X207518000Y-120650000D01*
X196568999Y-112688001D02*
X204530998Y-120650000D01*
X196568999Y-100865001D02*
X196568999Y-112688001D01*
X198374000Y-99060000D02*
X196568999Y-100865001D01*
X215332272Y-122487728D02*
X215332272Y-126559272D01*
X221233301Y-116586699D02*
X215332272Y-122487728D01*
X212667010Y-114750010D02*
X212344000Y-114427000D01*
X212598000Y-127254000D02*
X212198001Y-126854001D01*
X212198001Y-118638411D02*
X212667010Y-118169402D01*
X212667010Y-118169402D02*
X212667010Y-114750010D01*
X212198001Y-126854001D02*
X212198001Y-118638411D01*
D24*
X71628000Y-129540000D02*
X69088000Y-129540000D01*
X71628000Y-139700000D02*
X69088000Y-139700000D01*
D23*
X195199000Y-130302000D02*
X198120000Y-133223000D01*
D22*
X86106000Y-88657998D02*
X86106000Y-90730001D01*
X83212001Y-85763999D02*
X86106000Y-88657998D01*
X77928008Y-90231990D02*
X82395999Y-85763999D01*
X73560541Y-100048459D02*
X70904999Y-97392917D01*
X70904999Y-93952999D02*
X74626008Y-90231990D01*
X82395999Y-85763999D02*
X83212001Y-85763999D01*
X70904999Y-97392917D02*
X70904999Y-93952999D01*
X74626008Y-90231990D02*
X77928008Y-90231990D01*
X75184000Y-90932000D02*
X79629000Y-90932000D01*
X71755000Y-94361000D02*
X75184000Y-90932000D01*
X125550999Y-90730001D02*
X127000000Y-90730001D01*
X122809000Y-93472000D02*
X125550999Y-90730001D01*
X113284000Y-94996000D02*
X115570000Y-94996000D01*
X112268000Y-93980000D02*
X113284000Y-94996000D01*
X119761000Y-90805000D02*
X119888000Y-90805000D01*
X115570000Y-94996000D02*
X119761000Y-90805000D01*
X168468663Y-90730001D02*
X169545000Y-90730001D01*
X165227000Y-93971664D02*
X168468663Y-90730001D01*
X165227000Y-94869000D02*
X165227000Y-93971664D01*
X159893000Y-94234000D02*
X163068000Y-91059000D01*
X154051000Y-94234000D02*
X159893000Y-94234000D01*
X208749001Y-86779999D02*
X210096999Y-86779999D01*
X205740000Y-89789000D02*
X208749001Y-86779999D01*
X212168000Y-88851000D02*
X212168000Y-90297000D01*
X210096999Y-86779999D02*
X212168000Y-88851000D01*
X204216000Y-93980000D02*
X209423000Y-88773000D01*
X195707000Y-93980000D02*
X204216000Y-93980000D01*
M02*
