G04 #@! TF.GenerationSoftware,KiCad,Pcbnew,(5.1.6-0-10_14)*
G04 #@! TF.CreationDate,2022-01-28T11:34:31+00:00*
G04 #@! TF.ProjectId,Quad Tube VCA,51756164-2054-4756-9265-205643412e6b,rev?*
G04 #@! TF.SameCoordinates,Original*
G04 #@! TF.FileFunction,Soldermask,Top*
G04 #@! TF.FilePolarity,Negative*
%FSLAX46Y46*%
G04 Gerber Fmt 4.6, Leading zero omitted, Abs format (unit mm)*
G04 Created by KiCad (PCBNEW (5.1.6-0-10_14)) date 2022-01-28 11:34:31*
%MOMM*%
%LPD*%
G01*
G04 APERTURE LIST*
%ADD10C,2.875000*%
%ADD11R,2.875000X2.875000*%
%ADD12C,1.700000*%
%ADD13R,1.700000X1.700000*%
%ADD14C,1.900000*%
%ADD15R,1.900000X1.900000*%
%ADD16C,2.100000*%
%ADD17C,1.400000*%
%ADD18C,1.540000*%
%ADD19O,1.800000X1.800000*%
%ADD20R,1.800000X1.800000*%
G04 APERTURE END LIST*
D10*
X89790000Y-107702500D03*
X85090000Y-107702500D03*
D11*
X80390000Y-107702500D03*
D10*
X130938000Y-107702500D03*
X126238000Y-107702500D03*
D11*
X121538000Y-107702500D03*
D10*
X173229000Y-107702500D03*
X168529000Y-107702500D03*
D11*
X163829000Y-107702500D03*
D10*
X215139000Y-107702500D03*
X210439000Y-107702500D03*
D11*
X205739000Y-107702500D03*
D12*
X221909000Y-100076000D03*
D13*
X224409000Y-100076000D03*
D12*
X179999000Y-100076000D03*
D13*
X182499000Y-100076000D03*
D12*
X137708000Y-100076000D03*
D13*
X140208000Y-100076000D03*
D12*
X96560000Y-100076000D03*
D13*
X99060000Y-100076000D03*
D12*
X68620000Y-123317000D03*
D13*
X71120000Y-123317000D03*
D12*
X74255000Y-116205000D03*
D13*
X71755000Y-116205000D03*
D14*
X126153333Y-48260000D03*
X126153333Y-96520000D03*
X124883333Y-93980000D03*
X127423333Y-93980000D03*
X128693333Y-99060000D03*
X126153333Y-99060000D03*
D15*
X123613333Y-99060000D03*
D14*
X85090000Y-48260000D03*
X85090000Y-96520000D03*
X83820000Y-93980000D03*
X86360000Y-93980000D03*
X87630000Y-99060000D03*
X85090000Y-99060000D03*
D15*
X82550000Y-99060000D03*
D14*
X210550000Y-48260000D03*
X210550000Y-96520000D03*
X209280000Y-93980000D03*
X211820000Y-93980000D03*
X213090000Y-99060000D03*
X210550000Y-99060000D03*
D15*
X208010000Y-99060000D03*
D14*
X168486666Y-48260000D03*
X168486666Y-96520000D03*
X167216666Y-93980000D03*
X169756666Y-93980000D03*
X171026666Y-99060000D03*
X168486666Y-99060000D03*
D15*
X165946666Y-99060000D03*
D16*
X204680000Y-57150000D03*
X195080000Y-57150000D03*
D17*
X202380000Y-64650000D03*
X199880000Y-64650000D03*
X197380000Y-64650000D03*
D16*
X162280000Y-57150000D03*
X152680000Y-57150000D03*
D17*
X159980000Y-64650000D03*
X157480000Y-64650000D03*
X154980000Y-64650000D03*
D16*
X120370000Y-57150000D03*
X110770000Y-57150000D03*
D17*
X118070000Y-64650000D03*
X115570000Y-64650000D03*
X113070000Y-64650000D03*
D16*
X79222000Y-57150000D03*
X69622000Y-57150000D03*
D17*
X76922000Y-64650000D03*
X74422000Y-64650000D03*
X71922000Y-64650000D03*
D16*
X204680000Y-81280000D03*
X195080000Y-81280000D03*
D17*
X202380000Y-88780000D03*
X199880000Y-88780000D03*
X197380000Y-88780000D03*
D16*
X162280000Y-81280000D03*
X152680000Y-81280000D03*
D17*
X159980000Y-88780000D03*
X157480000Y-88780000D03*
X154980000Y-88780000D03*
D16*
X120370000Y-81280000D03*
X110770000Y-81280000D03*
D17*
X118070000Y-88780000D03*
X115570000Y-88780000D03*
X113070000Y-88780000D03*
D16*
X79222000Y-81280000D03*
X69622000Y-81280000D03*
D17*
X76922000Y-88780000D03*
X74422000Y-88780000D03*
X71922000Y-88780000D03*
D16*
X225780000Y-57150000D03*
X216180000Y-57150000D03*
D17*
X223480000Y-64650000D03*
X220980000Y-64650000D03*
X218480000Y-64650000D03*
D16*
X183870000Y-57150000D03*
X174270000Y-57150000D03*
D17*
X181570000Y-64650000D03*
X179070000Y-64650000D03*
X176570000Y-64650000D03*
D16*
X141960000Y-57150000D03*
X132360000Y-57150000D03*
D17*
X139660000Y-64650000D03*
X137160000Y-64650000D03*
X134660000Y-64650000D03*
D16*
X100431000Y-57150000D03*
X90831000Y-57150000D03*
D17*
X98131000Y-64650000D03*
X95631000Y-64650000D03*
X93131000Y-64650000D03*
D16*
X225780000Y-81280000D03*
X216180000Y-81280000D03*
D17*
X223480000Y-88780000D03*
X220980000Y-88780000D03*
X218480000Y-88780000D03*
D16*
X183870000Y-81280000D03*
X174270000Y-81280000D03*
D17*
X181570000Y-88780000D03*
X179070000Y-88780000D03*
X176570000Y-88780000D03*
D16*
X141960000Y-81280000D03*
X132360000Y-81280000D03*
D17*
X139660000Y-88780000D03*
X137160000Y-88780000D03*
X134660000Y-88780000D03*
D16*
X100431000Y-81280000D03*
X90831000Y-81280000D03*
D17*
X98131000Y-88780000D03*
X95631000Y-88780000D03*
X93131000Y-88780000D03*
D14*
X215389000Y-138430000D03*
X203989000Y-138430000D03*
X207089000Y-138430000D03*
X173449000Y-138430000D03*
X162049000Y-138430000D03*
X165149000Y-138430000D03*
X131158000Y-138430000D03*
X119758000Y-138430000D03*
X122858000Y-138430000D03*
X90010000Y-138430000D03*
X78610000Y-138430000D03*
X81710000Y-138430000D03*
X215389000Y-118110000D03*
X203989000Y-118110000D03*
X207089000Y-118110000D03*
X173449000Y-118110000D03*
X162049000Y-118110000D03*
X165149000Y-118110000D03*
X131158000Y-118110000D03*
X119758000Y-118110000D03*
X122858000Y-118110000D03*
X90010000Y-118110000D03*
X78610000Y-118110000D03*
X81710000Y-118110000D03*
X215389000Y-128270000D03*
X203989000Y-128270000D03*
X207089000Y-128270000D03*
X173449000Y-128270000D03*
X162049000Y-128270000D03*
X165149000Y-128270000D03*
X131158000Y-128270000D03*
X119758000Y-128270000D03*
X122858000Y-128270000D03*
X90010000Y-128270000D03*
X78610000Y-128270000D03*
X81710000Y-128270000D03*
D18*
X195199000Y-48260000D03*
X197739000Y-48260000D03*
X200279000Y-48260000D03*
X153289000Y-48260000D03*
X155829000Y-48260000D03*
X158369000Y-48260000D03*
X110998000Y-48260000D03*
X113538000Y-48260000D03*
X116078000Y-48260000D03*
X69850000Y-48260000D03*
X72390000Y-48260000D03*
X74930000Y-48260000D03*
X220599000Y-107950000D03*
X223139000Y-107950000D03*
X225679000Y-107950000D03*
X178689000Y-107950000D03*
X181229000Y-107950000D03*
X183769000Y-107950000D03*
X136398000Y-107950000D03*
X138938000Y-107950000D03*
X141478000Y-107950000D03*
X95250000Y-107950000D03*
X97790000Y-107950000D03*
X100330000Y-107950000D03*
X220599000Y-92710000D03*
X223139000Y-92710000D03*
X225679000Y-92710000D03*
X178689000Y-92710000D03*
X181229000Y-92710000D03*
X183769000Y-92710000D03*
X136398000Y-92710000D03*
X138938000Y-92710000D03*
X141478000Y-92710000D03*
X95250000Y-92710000D03*
X97790000Y-92710000D03*
X100330000Y-92710000D03*
X195199000Y-107950000D03*
X197739000Y-107950000D03*
X200279000Y-107950000D03*
X153289000Y-107950000D03*
X155829000Y-107950000D03*
X158369000Y-107950000D03*
X110998000Y-107950000D03*
X113538000Y-107950000D03*
X116078000Y-107950000D03*
X69850000Y-107950000D03*
X72390000Y-107950000D03*
X74930000Y-107950000D03*
D19*
X69088000Y-139700000D03*
X71628000Y-139700000D03*
X69088000Y-137160000D03*
X71628000Y-137160000D03*
X69088000Y-134620000D03*
X71628000Y-134620000D03*
X69088000Y-132080000D03*
X71628000Y-132080000D03*
X69088000Y-129540000D03*
D20*
X71628000Y-129540000D03*
D14*
X217805000Y-71120000D03*
D15*
X220345000Y-71120000D03*
D14*
X203536000Y-71120000D03*
D15*
X200996000Y-71120000D03*
D14*
X175768000Y-71120000D03*
D15*
X178308000Y-71120000D03*
D14*
X161290000Y-71120000D03*
D15*
X158750000Y-71120000D03*
D14*
X133350000Y-71120000D03*
D15*
X135890000Y-71120000D03*
D14*
X119126000Y-71120000D03*
D15*
X116586000Y-71120000D03*
D14*
X92710000Y-71120000D03*
D15*
X95250000Y-71120000D03*
D14*
X77851000Y-71120000D03*
D15*
X75311000Y-71120000D03*
D12*
X224790000Y-73580000D03*
X224790000Y-68580000D03*
X195580000Y-73580000D03*
X195580000Y-68580000D03*
X182880000Y-73580000D03*
X182880000Y-68580000D03*
X153670000Y-73580000D03*
X153670000Y-68580000D03*
X140970000Y-73580000D03*
X140970000Y-68580000D03*
X111760000Y-73580000D03*
X111760000Y-68580000D03*
X99949000Y-73453000D03*
X99949000Y-68453000D03*
X70358000Y-73580000D03*
X70358000Y-68580000D03*
M02*
