%FSLAX45Y45*%
G04 Gerber Fmt 4.5, Leading zero omitted, Abs format (unit mm)*
G04 Created by KiCad (PCBNEW (5.1.6-0-10_14)) date 2022-01-25 14:28:14*
%MOMM*%
%LPD*%
G01*
G04 APERTURE LIST*
%TA.AperFunction,Profile*%
%ADD10C,0.050000*%
%TD*%
%ADD11C,0.200000*%
%ADD12C,0.300000*%
G04 APERTURE END LIST*
D10*
X6604000Y-14478000D02*
X22860000Y-14478000D01*
X6604000Y-4445000D02*
X6604000Y-14478000D01*
X22860000Y-4445000D02*
X6604000Y-4445000D01*
X22860000Y-14478000D02*
X22860000Y-4445000D01*
D11*
X7155500Y-9530400D02*
X7195500Y-9570400D01*
X7195500Y-9530400D02*
X7155500Y-9570400D01*
X7155500Y-9416100D02*
X7195500Y-9456100D01*
X7195500Y-9416100D02*
X7155500Y-9456100D01*
X7336054Y-9984846D02*
X7376054Y-10024846D01*
X7376054Y-9984846D02*
X7336054Y-10024846D01*
X7681000Y-12129100D02*
X7721000Y-12169100D01*
X7721000Y-12129100D02*
X7681000Y-12169100D01*
X7681000Y-12510100D02*
X7721000Y-12550100D01*
X7721000Y-12510100D02*
X7681000Y-12550100D01*
X7803200Y-10355900D02*
X7843200Y-10395900D01*
X7843200Y-10355900D02*
X7803200Y-10395900D01*
X7879400Y-10114600D02*
X7919400Y-10154600D01*
X7919400Y-10114600D02*
X7879400Y-10154600D01*
X7942900Y-9073200D02*
X7982900Y-9113200D01*
X7982900Y-9073200D02*
X7942900Y-9113200D01*
X7955600Y-9568500D02*
X7995600Y-9608500D01*
X7995600Y-9568500D02*
X7955600Y-9608500D01*
X8031800Y-10521000D02*
X8071800Y-10561000D01*
X8071800Y-10521000D02*
X8031800Y-10561000D01*
X8069900Y-9606600D02*
X8109900Y-9646600D01*
X8109900Y-9606600D02*
X8069900Y-9646600D01*
X8108000Y-7460300D02*
X8148000Y-7500300D01*
X8148000Y-7460300D02*
X8108000Y-7500300D01*
X8196900Y-8209600D02*
X8236900Y-8249600D01*
X8236900Y-8209600D02*
X8196900Y-8249600D01*
X8260400Y-8641400D02*
X8300400Y-8681400D01*
X8300400Y-8641400D02*
X8260400Y-8681400D01*
X8318154Y-6970746D02*
X8358154Y-7010746D01*
X8358154Y-6970746D02*
X8318154Y-7010746D01*
X8412800Y-11168700D02*
X8452800Y-11208700D01*
X8452800Y-11168700D02*
X8412800Y-11208700D01*
X8590600Y-9053000D02*
X8630600Y-9093000D01*
X8630600Y-9053000D02*
X8590600Y-9093000D01*
X8616000Y-11181400D02*
X8656000Y-11221400D01*
X8656000Y-11181400D02*
X8616000Y-11221400D01*
X8641400Y-11422700D02*
X8681400Y-11462700D01*
X8681400Y-11422700D02*
X8641400Y-11462700D01*
X8692200Y-8184200D02*
X8732200Y-8224200D01*
X8732200Y-8184200D02*
X8692200Y-8224200D01*
X8708000Y-9149400D02*
X8748000Y-9189400D01*
X8748000Y-9149400D02*
X8708000Y-9189400D01*
X8793000Y-8095300D02*
X8833000Y-8135300D01*
X8833000Y-8095300D02*
X8793000Y-8135300D01*
X8793000Y-9720900D02*
X8833000Y-9760900D01*
X8833000Y-9720900D02*
X8793000Y-9760900D01*
X8870000Y-11270300D02*
X8910000Y-11310300D01*
X8910000Y-11270300D02*
X8870000Y-11310300D01*
X8895400Y-12045000D02*
X8935400Y-12085000D01*
X8935400Y-12045000D02*
X8895400Y-12085000D01*
X8933500Y-11486200D02*
X8973500Y-11526200D01*
X8973500Y-11486200D02*
X8933500Y-11526200D01*
X9009700Y-13581700D02*
X9049700Y-13621700D01*
X9049700Y-13581700D02*
X9009700Y-13621700D01*
X9033001Y-9632000D02*
X9073001Y-9672000D01*
X9073001Y-9632000D02*
X9033001Y-9672000D01*
X9136700Y-9530400D02*
X9176700Y-9570400D01*
X9176700Y-9530400D02*
X9136700Y-9570400D01*
X9162100Y-12756200D02*
X9202100Y-12796200D01*
X9202100Y-12756200D02*
X9162100Y-12796200D01*
X9212900Y-13378500D02*
X9252900Y-13418500D01*
X9252900Y-13378500D02*
X9212900Y-13418500D01*
X9263700Y-13937300D02*
X9303700Y-13977300D01*
X9303700Y-13937300D02*
X9263700Y-13977300D01*
X9301800Y-11333800D02*
X9341800Y-11373800D01*
X9341800Y-11333800D02*
X9301800Y-11373800D01*
X9327200Y-11867200D02*
X9367200Y-11907200D01*
X9367200Y-11867200D02*
X9327200Y-11907200D01*
X9327200Y-12299000D02*
X9367200Y-12339000D01*
X9367200Y-12299000D02*
X9327200Y-12339000D01*
X9327200Y-12984800D02*
X9367200Y-13024800D01*
X9367200Y-12984800D02*
X9327200Y-13024800D01*
X9390700Y-9428800D02*
X9430700Y-9468800D01*
X9430700Y-9428800D02*
X9390700Y-9468800D01*
X9390700Y-13391200D02*
X9430700Y-13431200D01*
X9430700Y-13391200D02*
X9390700Y-13431200D01*
X9428800Y-11702100D02*
X9468800Y-11742100D01*
X9468800Y-11702100D02*
X9428800Y-11742100D01*
X9492300Y-13746800D02*
X9532300Y-13786800D01*
X9532300Y-13746800D02*
X9492300Y-13786800D01*
X9549499Y-12387900D02*
X9589499Y-12427900D01*
X9589499Y-12387900D02*
X9549499Y-12427900D01*
X9555800Y-13340400D02*
X9595800Y-13380400D01*
X9595800Y-13340400D02*
X9555800Y-13380400D01*
X9632000Y-14127800D02*
X9672000Y-14167800D01*
X9672000Y-14127800D02*
X9632000Y-14167800D01*
X9721000Y-11359200D02*
X9761000Y-11399200D01*
X9761000Y-11359200D02*
X9721000Y-11399200D01*
X9746300Y-9568500D02*
X9786300Y-9608500D01*
X9786300Y-9568500D02*
X9746300Y-9608500D01*
X9759000Y-11981500D02*
X9799000Y-12021500D01*
X9799000Y-11981500D02*
X9759000Y-12021500D01*
X9835200Y-12057700D02*
X9875200Y-12097700D01*
X9875200Y-12057700D02*
X9835200Y-12097700D01*
X9886000Y-13861100D02*
X9926000Y-13901100D01*
X9926000Y-13861100D02*
X9886000Y-13901100D01*
X9886000Y-14089700D02*
X9926000Y-14129700D01*
X9926000Y-14089700D02*
X9886000Y-14129700D01*
X9936800Y-11803700D02*
X9976800Y-11843700D01*
X9976800Y-11803700D02*
X9936800Y-11843700D01*
X10013000Y-9555800D02*
X10053000Y-9595800D01*
X10053000Y-9555800D02*
X10013000Y-9595800D01*
X10051100Y-12692700D02*
X10091100Y-12732700D01*
X10091100Y-12692700D02*
X10051100Y-12732700D01*
X10127300Y-12984800D02*
X10167300Y-13024800D01*
X10167300Y-12984800D02*
X10127300Y-13024800D01*
X10146250Y-12349800D02*
X10186250Y-12389800D01*
X10186250Y-12349800D02*
X10146250Y-12389800D01*
X10317800Y-12680000D02*
X10357800Y-12720000D01*
X10357800Y-12680000D02*
X10317800Y-12720000D01*
X10317800Y-13073700D02*
X10357800Y-13113700D01*
X10357800Y-13073700D02*
X10317800Y-13113700D01*
X10330500Y-12934000D02*
X10370500Y-12974000D01*
X10370500Y-12934000D02*
X10330500Y-12974000D01*
X10355900Y-13502799D02*
X10395900Y-13542799D01*
X10395900Y-13502799D02*
X10355900Y-13542799D01*
X10368600Y-14064300D02*
X10408600Y-14104300D01*
X10408600Y-14064300D02*
X10368600Y-14104300D01*
X10406700Y-12197400D02*
X10446700Y-12237400D01*
X10446700Y-12197400D02*
X10406700Y-12237400D01*
X10432100Y-12375200D02*
X10472100Y-12415200D01*
X10472100Y-12375200D02*
X10432100Y-12415200D01*
X10457500Y-12730800D02*
X10497500Y-12770800D01*
X10497500Y-12730800D02*
X10457500Y-12770800D01*
X10482900Y-11841800D02*
X10522900Y-11881800D01*
X10522900Y-11841800D02*
X10482900Y-11881800D01*
X10521000Y-11410000D02*
X10561000Y-11450000D01*
X10561000Y-11410000D02*
X10521000Y-11450000D01*
X10559100Y-13861100D02*
X10599100Y-13901100D01*
X10599100Y-13861100D02*
X10559100Y-13901100D01*
X10952800Y-9085900D02*
X10992800Y-9125900D01*
X10992800Y-9085900D02*
X10952800Y-9125900D01*
X11003600Y-12489500D02*
X11043600Y-12529500D01*
X11043600Y-12489500D02*
X11003600Y-12529500D01*
X11206800Y-9378000D02*
X11246800Y-9418000D01*
X11246800Y-9378000D02*
X11206800Y-9418000D01*
X11355502Y-9864298D02*
X11395502Y-9904298D01*
X11395502Y-9864298D02*
X11355502Y-9904298D01*
X11524300Y-12299000D02*
X11564300Y-12339000D01*
X11564300Y-12299000D02*
X11524300Y-12339000D01*
X11575100Y-9073200D02*
X11615100Y-9113200D01*
X11615100Y-9073200D02*
X11575100Y-9113200D01*
X11600500Y-12819700D02*
X11640500Y-12859700D01*
X11640500Y-12819700D02*
X11600500Y-12859700D01*
X11676700Y-14089700D02*
X11716700Y-14129700D01*
X11716700Y-14089700D02*
X11676700Y-14129700D01*
X11943400Y-8958900D02*
X11983400Y-8998900D01*
X11983400Y-8958900D02*
X11943400Y-8998900D01*
X11968800Y-9060500D02*
X12008800Y-9100500D01*
X12008800Y-9060500D02*
X11968800Y-9100500D01*
X12159300Y-9619300D02*
X12199300Y-9659300D01*
X12199300Y-9619300D02*
X12159300Y-9659300D01*
X12260900Y-9327200D02*
X12300900Y-9367200D01*
X12300900Y-9327200D02*
X12260900Y-9367200D01*
X12286300Y-8209600D02*
X12326300Y-8249600D01*
X12326300Y-8209600D02*
X12286300Y-8249600D01*
X12362500Y-7460300D02*
X12402500Y-7500300D01*
X12402500Y-7460300D02*
X12362500Y-7500300D01*
X12375200Y-8628700D02*
X12415200Y-8668700D01*
X12415200Y-8628700D02*
X12375200Y-8668700D01*
X12388504Y-6926296D02*
X12428504Y-6966296D01*
X12428504Y-6926296D02*
X12388504Y-6966296D01*
X12464100Y-8552500D02*
X12504100Y-8592500D01*
X12504100Y-8552500D02*
X12464100Y-8592500D01*
X12505050Y-11016300D02*
X12545050Y-11056300D01*
X12545050Y-11016300D02*
X12505050Y-11056300D01*
X12680000Y-9053000D02*
X12720000Y-9093000D01*
X12720000Y-9053000D02*
X12680000Y-9093000D01*
X12692700Y-11117900D02*
X12732700Y-11157900D01*
X12732700Y-11117900D02*
X12692700Y-11157900D01*
X12794300Y-8171500D02*
X12834300Y-8211500D01*
X12834300Y-8171500D02*
X12794300Y-8211500D01*
X12810900Y-9149400D02*
X12850900Y-9189400D01*
X12850900Y-9149400D02*
X12810900Y-9189400D01*
X12895900Y-8108000D02*
X12935900Y-8148000D01*
X12935900Y-8108000D02*
X12895900Y-8148000D01*
X12895900Y-9720900D02*
X12935900Y-9760900D01*
X12935900Y-9720900D02*
X12895900Y-9760900D01*
X13022900Y-11003600D02*
X13062900Y-11043600D01*
X13062900Y-11003600D02*
X13022900Y-11043600D01*
X13048300Y-11994200D02*
X13088300Y-12034200D01*
X13088300Y-11994200D02*
X13048300Y-12034200D01*
X13099100Y-6850700D02*
X13139100Y-6890700D01*
X13139100Y-6850700D02*
X13099100Y-6890700D01*
X13156000Y-9632000D02*
X13196000Y-9672000D01*
X13196000Y-9632000D02*
X13156000Y-9672000D01*
X13241000Y-8663000D02*
X13281000Y-8703000D01*
X13281000Y-8663000D02*
X13241000Y-8703000D01*
X13289600Y-12722000D02*
X13329600Y-12762000D01*
X13329600Y-12722000D02*
X13289600Y-12762000D01*
X13289600Y-13429300D02*
X13329600Y-13469300D01*
X13329600Y-13429300D02*
X13289600Y-13469300D01*
X13327700Y-8514400D02*
X13367700Y-8554400D01*
X13367700Y-8514400D02*
X13327700Y-8554400D01*
X13327700Y-9416100D02*
X13367700Y-9456100D01*
X13367700Y-9416100D02*
X13327700Y-9456100D01*
X13403900Y-14127800D02*
X13443900Y-14167800D01*
X13443900Y-14127800D02*
X13403900Y-14167800D01*
X13429300Y-13581700D02*
X13469300Y-13621700D01*
X13469300Y-13581700D02*
X13429300Y-13621700D01*
X13442000Y-8577900D02*
X13482000Y-8617900D01*
X13482000Y-8577900D02*
X13442000Y-8617900D01*
X13442000Y-12984800D02*
X13482000Y-13024800D01*
X13482000Y-12984800D02*
X13442000Y-13024800D01*
X13505500Y-13315000D02*
X13545500Y-13355000D01*
X13545500Y-13315000D02*
X13505500Y-13355000D01*
X13632500Y-12934000D02*
X13672500Y-12974000D01*
X13672500Y-12934000D02*
X13632500Y-12974000D01*
X13632990Y-12641409D02*
X13672990Y-12681409D01*
X13672990Y-12641409D02*
X13632990Y-12681409D01*
X13797600Y-12095800D02*
X13837600Y-12135800D01*
X13837600Y-12095800D02*
X13797600Y-12135800D01*
X13797600Y-13378500D02*
X13837600Y-13418500D01*
X13837600Y-13378500D02*
X13797600Y-13418500D01*
X13797600Y-13772200D02*
X13837600Y-13812200D01*
X13837600Y-13772200D02*
X13797600Y-13812200D01*
X13810300Y-12895900D02*
X13850300Y-12935900D01*
X13850300Y-12895900D02*
X13810300Y-12935900D01*
X13823000Y-8552500D02*
X13863000Y-8592500D01*
X13863000Y-8552500D02*
X13823000Y-8592500D01*
X14000800Y-12692700D02*
X14040800Y-12732700D01*
X14040800Y-12692700D02*
X14000800Y-12732700D01*
X14216700Y-12743500D02*
X14256700Y-12783500D01*
X14256700Y-12743500D02*
X14216700Y-12783500D01*
X14265146Y-12055346D02*
X14305146Y-12095346D01*
X14305146Y-12055346D02*
X14265146Y-12095346D01*
X14318300Y-14102400D02*
X14358300Y-14142400D01*
X14358300Y-14102400D02*
X14318300Y-14142400D01*
X14381800Y-9835200D02*
X14421800Y-9875200D01*
X14421800Y-9835200D02*
X14381800Y-9875200D01*
X14407200Y-13581700D02*
X14447200Y-13621700D01*
X14447200Y-13581700D02*
X14407200Y-13621700D01*
X14419900Y-13696000D02*
X14459900Y-13736000D01*
X14459900Y-13696000D02*
X14419900Y-13736000D01*
X14610400Y-12654600D02*
X14650400Y-12694600D01*
X14650400Y-12654600D02*
X14610400Y-12694600D01*
X14813600Y-13509200D02*
X14853600Y-13549200D01*
X14853600Y-13509200D02*
X14813600Y-13549200D01*
X14839000Y-12641900D02*
X14879000Y-12681900D01*
X14879000Y-12641900D02*
X14839000Y-12681900D01*
X15016800Y-12857800D02*
X15056800Y-12897800D01*
X15056800Y-12857800D02*
X15016800Y-12897800D01*
X15054900Y-11486200D02*
X15094900Y-11526200D01*
X15094900Y-11486200D02*
X15054900Y-11526200D01*
X15143800Y-9085900D02*
X15183800Y-9125900D01*
X15183800Y-9085900D02*
X15143800Y-9125900D01*
X15220000Y-11410000D02*
X15260000Y-11450000D01*
X15260000Y-11410000D02*
X15220000Y-11450000D01*
X15235654Y-12791346D02*
X15275654Y-12831346D01*
X15275654Y-12791346D02*
X15235654Y-12831346D01*
X15385100Y-9403400D02*
X15425100Y-9443400D01*
X15425100Y-9403400D02*
X15385100Y-9443400D01*
X15385100Y-13721400D02*
X15425100Y-13761400D01*
X15425100Y-13721400D02*
X15385100Y-13761400D01*
X15393751Y-11486200D02*
X15433751Y-11526200D01*
X15433751Y-11486200D02*
X15393751Y-11526200D01*
X15397800Y-13073700D02*
X15437800Y-13113700D01*
X15437800Y-13073700D02*
X15397800Y-13113700D01*
X15527452Y-9845248D02*
X15567452Y-9885248D01*
X15567452Y-9845248D02*
X15527452Y-9885248D01*
X15575600Y-10927400D02*
X15615600Y-10967400D01*
X15615600Y-10927400D02*
X15575600Y-10967400D01*
X15753400Y-9098600D02*
X15793400Y-9138600D01*
X15793400Y-9098600D02*
X15753400Y-9138600D01*
X16197900Y-8971600D02*
X16237900Y-9011600D01*
X16237900Y-8971600D02*
X16197900Y-9011600D01*
X16286800Y-9085900D02*
X16326800Y-9125900D01*
X16326800Y-9085900D02*
X16286800Y-9125900D01*
X16401100Y-9657400D02*
X16441100Y-9697400D01*
X16441100Y-9657400D02*
X16401100Y-9697400D01*
X16502700Y-8209600D02*
X16542700Y-8249600D01*
X16542700Y-8209600D02*
X16502700Y-8249600D01*
X16502700Y-9466900D02*
X16542700Y-9506900D01*
X16542700Y-9466900D02*
X16502700Y-9506900D01*
X16578900Y-7460300D02*
X16618900Y-7500300D01*
X16618900Y-7460300D02*
X16578900Y-7500300D01*
X16578900Y-9085900D02*
X16618900Y-9125900D01*
X16618900Y-9085900D02*
X16578900Y-9125900D01*
X16591600Y-8641400D02*
X16631600Y-8681400D01*
X16631600Y-8641400D02*
X16591600Y-8681400D01*
X16693200Y-6990400D02*
X16733200Y-7030400D01*
X16733200Y-6990400D02*
X16693200Y-7030400D01*
X16921800Y-11156000D02*
X16961800Y-11196000D01*
X16961800Y-11156000D02*
X16921800Y-11196000D01*
X16934500Y-9053000D02*
X16974500Y-9093000D01*
X16974500Y-9053000D02*
X16934500Y-9093000D01*
X16947200Y-8222300D02*
X16987200Y-8262300D01*
X16987200Y-8222300D02*
X16947200Y-8262300D01*
X17030794Y-9183663D02*
X17070794Y-9223663D01*
X17070794Y-9183663D02*
X17030794Y-9223663D01*
X17118750Y-8222300D02*
X17158750Y-8262300D01*
X17158750Y-8222300D02*
X17118750Y-8262300D01*
X17132667Y-9717000D02*
X17172667Y-9757000D01*
X17172667Y-9717000D02*
X17132667Y-9757000D01*
X17175800Y-12578400D02*
X17215800Y-12618400D01*
X17215800Y-12578400D02*
X17175800Y-12618400D01*
X17201200Y-12172000D02*
X17241200Y-12212000D01*
X17241200Y-12172000D02*
X17201200Y-12212000D01*
X17328200Y-11130600D02*
X17368200Y-11170600D01*
X17368200Y-11130600D02*
X17328200Y-11170600D01*
X17379000Y-9632000D02*
X17419000Y-9672000D01*
X17419000Y-9632000D02*
X17379000Y-9672000D01*
X17391700Y-13454700D02*
X17431700Y-13494700D01*
X17431700Y-13454700D02*
X17391700Y-13494700D01*
X17464000Y-9517700D02*
X17504000Y-9557700D01*
X17504000Y-9517700D02*
X17464000Y-9557700D01*
X17471651Y-11867200D02*
X17511651Y-11907200D01*
X17511651Y-11867200D02*
X17471651Y-11907200D01*
X17480600Y-6660200D02*
X17520600Y-6700200D01*
X17520600Y-6660200D02*
X17480600Y-6700200D01*
X17480600Y-13035600D02*
X17520600Y-13075600D01*
X17520600Y-13035600D02*
X17480600Y-13075600D01*
X17556800Y-13429300D02*
X17596800Y-13469300D01*
X17596800Y-13429300D02*
X17556800Y-13469300D01*
X17594900Y-12718100D02*
X17634900Y-12758100D01*
X17634900Y-12718100D02*
X17594900Y-12758100D01*
X17620300Y-12578400D02*
X17660300Y-12618400D01*
X17660300Y-12578400D02*
X17620300Y-12618400D01*
X17658400Y-11727500D02*
X17698400Y-11767500D01*
X17698400Y-11727500D02*
X17658400Y-11767500D01*
X17658400Y-13810300D02*
X17698400Y-13850300D01*
X17698400Y-13810300D02*
X17658400Y-13850300D01*
X17671100Y-13035600D02*
X17711100Y-13075600D01*
X17711100Y-13035600D02*
X17671100Y-13075600D01*
X17671100Y-13480100D02*
X17711100Y-13520100D01*
X17711100Y-13480100D02*
X17671100Y-13520100D01*
X17674054Y-13152854D02*
X17714054Y-13192854D01*
X17714054Y-13152854D02*
X17674054Y-13192854D01*
X17696600Y-10398954D02*
X17736600Y-10438954D01*
X17736600Y-10398954D02*
X17696600Y-10438954D01*
X17701597Y-13720111D02*
X17741597Y-13760111D01*
X17741597Y-13720111D02*
X17701597Y-13760111D01*
X17735004Y-9542696D02*
X17775004Y-9582696D01*
X17775004Y-9542696D02*
X17735004Y-9582696D01*
X17785400Y-14127800D02*
X17825400Y-14167800D01*
X17825400Y-14127800D02*
X17785400Y-14167800D01*
X17810800Y-12641900D02*
X17850800Y-12681900D01*
X17850800Y-12641900D02*
X17810800Y-12681900D01*
X17848900Y-12299000D02*
X17888900Y-12339000D01*
X17888900Y-12299000D02*
X17848900Y-12339000D01*
X17874300Y-12959400D02*
X17914300Y-12999400D01*
X17914300Y-12959400D02*
X17874300Y-12999400D01*
X17874300Y-13416600D02*
X17914300Y-13456600D01*
X17914300Y-13416600D02*
X17874300Y-13456600D01*
X17874300Y-14051600D02*
X17914300Y-14091600D01*
X17914300Y-14051600D02*
X17874300Y-14091600D01*
X17937800Y-9466900D02*
X17977800Y-9506900D01*
X17977800Y-9466900D02*
X17937800Y-9506900D01*
X18026700Y-11892600D02*
X18066700Y-11932600D01*
X18066700Y-11892600D02*
X18026700Y-11932600D01*
X18052100Y-11575100D02*
X18092100Y-11615100D01*
X18092100Y-11575100D02*
X18052100Y-11615100D01*
X18052100Y-12019600D02*
X18092100Y-12059600D01*
X18092100Y-12019600D02*
X18052100Y-12059600D01*
X18090200Y-13213400D02*
X18130200Y-13253400D01*
X18130200Y-13213400D02*
X18090200Y-13253400D01*
X18090200Y-13607100D02*
X18130200Y-13647100D01*
X18130200Y-13607100D02*
X18090200Y-13647100D01*
X18090200Y-14115100D02*
X18130200Y-14155100D01*
X18130200Y-14115100D02*
X18090200Y-14155100D01*
X18102900Y-13416600D02*
X18142900Y-13456600D01*
X18142900Y-13416600D02*
X18102900Y-13456600D01*
X18102900Y-13734100D02*
X18142900Y-13774100D01*
X18142900Y-13734100D02*
X18102900Y-13774100D01*
X18166400Y-12667300D02*
X18206400Y-12707300D01*
X18206400Y-12667300D02*
X18166400Y-12707300D01*
X18295699Y-13147026D02*
X18335699Y-13187026D01*
X18335699Y-13147026D02*
X18295699Y-13187026D01*
X18353785Y-14087516D02*
X18393785Y-14127516D01*
X18393785Y-14087516D02*
X18353785Y-14127516D01*
X18509300Y-14007301D02*
X18549300Y-14047301D01*
X18549300Y-14007301D02*
X18509300Y-14047301D01*
X18560100Y-9746300D02*
X18600100Y-9786300D01*
X18600100Y-9746300D02*
X18560100Y-9786300D01*
X18560100Y-11575100D02*
X18600100Y-11615100D01*
X18600100Y-11575100D02*
X18560100Y-11615100D01*
X18572800Y-13543600D02*
X18612800Y-13583600D01*
X18612800Y-13543600D02*
X18572800Y-13583600D01*
X18585500Y-11232200D02*
X18625500Y-11272200D01*
X18625500Y-11232200D02*
X18585500Y-11272200D01*
X18636300Y-12654600D02*
X18676300Y-12694600D01*
X18676300Y-12654600D02*
X18636300Y-12694600D01*
X18687100Y-13937300D02*
X18727100Y-13977300D01*
X18727100Y-13937300D02*
X18687100Y-13977300D01*
X18728798Y-11308400D02*
X18768798Y-11348400D01*
X18768798Y-11308400D02*
X18728798Y-11348400D01*
X18860229Y-12544971D02*
X18900229Y-12584971D01*
X18900229Y-12544971D02*
X18860229Y-12584971D01*
X18941100Y-13175300D02*
X18981100Y-13215300D01*
X18981100Y-13175300D02*
X18941100Y-13215300D01*
X18953800Y-13022900D02*
X18993800Y-13062900D01*
X18993800Y-13022900D02*
X18953800Y-13062900D01*
X18979200Y-13492800D02*
X19019200Y-13532800D01*
X19019200Y-13492800D02*
X18979200Y-13532800D01*
X19017300Y-13670600D02*
X19057300Y-13710600D01*
X19057300Y-13670600D02*
X19017300Y-13710600D01*
X19030000Y-13924499D02*
X19070000Y-13964499D01*
X19070000Y-13924499D02*
X19030000Y-13964499D01*
X19038800Y-9784400D02*
X19078800Y-9824400D01*
X19078800Y-9784400D02*
X19038800Y-9824400D01*
X19055400Y-12629200D02*
X19095400Y-12669200D01*
X19095400Y-12629200D02*
X19055400Y-12669200D01*
X19080800Y-11016300D02*
X19120800Y-11056300D01*
X19120800Y-11016300D02*
X19080800Y-11056300D01*
X19296700Y-9860600D02*
X19336700Y-9900600D01*
X19336700Y-9860600D02*
X19296700Y-9900600D01*
X19347500Y-12984800D02*
X19387500Y-13024800D01*
X19387500Y-12984800D02*
X19347500Y-13024800D01*
X19385600Y-12527600D02*
X19425600Y-12567600D01*
X19425600Y-12527600D02*
X19385600Y-12567600D01*
X19474500Y-11003600D02*
X19514500Y-11043600D01*
X19514500Y-11003600D02*
X19474500Y-11043600D01*
X19474500Y-13696000D02*
X19514500Y-13736000D01*
X19514500Y-13696000D02*
X19474500Y-13736000D01*
X19499900Y-13010200D02*
X19539900Y-13050200D01*
X19539900Y-13010200D02*
X19499900Y-13050200D01*
X19550700Y-9378000D02*
X19590700Y-9418000D01*
X19590700Y-9378000D02*
X19550700Y-9418000D01*
X19741200Y-10952800D02*
X19781200Y-10992800D01*
X19781200Y-10952800D02*
X19741200Y-10992800D01*
X19792000Y-13302300D02*
X19832000Y-13342300D01*
X19832000Y-13302300D02*
X19792000Y-13342300D01*
X19817400Y-9886000D02*
X19857400Y-9926000D01*
X19857400Y-9886000D02*
X19817400Y-9926000D01*
X19842800Y-13137200D02*
X19882800Y-13177200D01*
X19882800Y-13137200D02*
X19842800Y-13177200D01*
X20007900Y-9073200D02*
X20047900Y-9113200D01*
X20047900Y-9073200D02*
X20007900Y-9113200D01*
X20046000Y-14115100D02*
X20086000Y-14155100D01*
X20086000Y-14115100D02*
X20046000Y-14155100D01*
X20122200Y-11867200D02*
X20162200Y-11907200D01*
X20162200Y-11867200D02*
X20122200Y-11907200D01*
X20554000Y-8958900D02*
X20594000Y-8998900D01*
X20594000Y-8958900D02*
X20554000Y-8998900D01*
X20706400Y-7460300D02*
X20746400Y-7500300D01*
X20746400Y-7460300D02*
X20706400Y-7500300D01*
X20706400Y-11562400D02*
X20746400Y-11602400D01*
X20746400Y-11562400D02*
X20706400Y-11602400D01*
X20719100Y-8196900D02*
X20759100Y-8236900D01*
X20759100Y-8196900D02*
X20719100Y-8236900D01*
X20731800Y-12045000D02*
X20771800Y-12085000D01*
X20771800Y-12045000D02*
X20731800Y-12085000D01*
X20731800Y-12489500D02*
X20771800Y-12529500D01*
X20771800Y-12489500D02*
X20731800Y-12529500D01*
X20782600Y-11054400D02*
X20822600Y-11094400D01*
X20822600Y-11054400D02*
X20782600Y-11094400D01*
X20884200Y-6939600D02*
X20924200Y-6979600D01*
X20924200Y-6939600D02*
X20884200Y-6979600D01*
X20909600Y-8743000D02*
X20949600Y-8783000D01*
X20949600Y-8743000D02*
X20909600Y-8783000D01*
X20922300Y-8857300D02*
X20962300Y-8897300D01*
X20962300Y-8857300D02*
X20922300Y-8897300D01*
X21196800Y-9009700D02*
X21236800Y-9049700D01*
X21236800Y-9009700D02*
X21196800Y-9049700D01*
X21201700Y-11181400D02*
X21241700Y-11221400D01*
X21241700Y-11181400D02*
X21201700Y-11221400D01*
X21214400Y-11041700D02*
X21254400Y-11081700D01*
X21254400Y-11041700D02*
X21214400Y-11081700D01*
X21214400Y-11422700D02*
X21254400Y-11462700D01*
X21254400Y-11422700D02*
X21214400Y-11462700D01*
X21227100Y-8235000D02*
X21267100Y-8275000D01*
X21267100Y-8235000D02*
X21227100Y-8275000D01*
X21239800Y-12705400D02*
X21279800Y-12745400D01*
X21279800Y-12705400D02*
X21239800Y-12745400D01*
X21281800Y-9149400D02*
X21321800Y-9189400D01*
X21321800Y-9149400D02*
X21281800Y-9189400D01*
X21290600Y-11930700D02*
X21330600Y-11970700D01*
X21330600Y-11930700D02*
X21290600Y-11970700D01*
X21290600Y-12426000D02*
X21330600Y-12466000D01*
X21330600Y-12426000D02*
X21290600Y-12466000D01*
X21316000Y-8171500D02*
X21356000Y-8211500D01*
X21356000Y-8171500D02*
X21316000Y-8211500D01*
X21366800Y-9733600D02*
X21406800Y-9773600D01*
X21406800Y-9733600D02*
X21366800Y-9773600D01*
X21417600Y-13048300D02*
X21457600Y-13088300D01*
X21457600Y-13048300D02*
X21417600Y-13088300D01*
X21513227Y-12635927D02*
X21553227Y-12675927D01*
X21553227Y-12635927D02*
X21513227Y-12675927D01*
X21620800Y-13061000D02*
X21660800Y-13101000D01*
X21660800Y-13061000D02*
X21620800Y-13101000D01*
X21620800Y-13543600D02*
X21660800Y-13583600D01*
X21660800Y-13543600D02*
X21620800Y-13583600D01*
X21628978Y-9632000D02*
X21668978Y-9672000D01*
X21668978Y-9632000D02*
X21628978Y-9672000D01*
X21671600Y-6609400D02*
X21711600Y-6649400D01*
X21711600Y-6609400D02*
X21671600Y-6649400D01*
X21824000Y-9390700D02*
X21864000Y-9430700D01*
X21864000Y-9390700D02*
X21824000Y-9430700D01*
X21900200Y-12133900D02*
X21940200Y-12173900D01*
X21940200Y-12133900D02*
X21900200Y-12173900D01*
X21912900Y-12260900D02*
X21952900Y-12300900D01*
X21952900Y-12260900D02*
X21912900Y-12300900D01*
X21976400Y-11448100D02*
X22016400Y-11488100D01*
X22016400Y-11448100D02*
X21976400Y-11488100D01*
X21976400Y-14242100D02*
X22016400Y-14282100D01*
X22016400Y-14242100D02*
X21976400Y-14282100D01*
X22001800Y-12451400D02*
X22041800Y-12491400D01*
X22041800Y-12451400D02*
X22001800Y-12491400D01*
X22014500Y-13149900D02*
X22054500Y-13189900D01*
X22054500Y-13149900D02*
X22014500Y-13189900D01*
X22103330Y-11638670D02*
X22143330Y-11678670D01*
X22143330Y-11638670D02*
X22103330Y-11678670D01*
X22192300Y-9784400D02*
X22232300Y-9824400D01*
X22232300Y-9784400D02*
X22192300Y-9824400D01*
X22205000Y-12654600D02*
X22245000Y-12694600D01*
X22245000Y-12654600D02*
X22205000Y-12694600D01*
X22217700Y-11778300D02*
X22257700Y-11818300D01*
X22257700Y-11778300D02*
X22217700Y-11818300D01*
X22217700Y-12083100D02*
X22257700Y-12123100D01*
X22257700Y-12083100D02*
X22217700Y-12123100D01*
X22332000Y-13124500D02*
X22372000Y-13164500D01*
X22372000Y-13124500D02*
X22332000Y-13164500D01*
X22332000Y-13950000D02*
X22372000Y-13990000D01*
X22372000Y-13950000D02*
X22332000Y-13990000D01*
X22446300Y-12438700D02*
X22486300Y-12478700D01*
X22486300Y-12438700D02*
X22446300Y-12478700D01*
X22459000Y-12794300D02*
X22499000Y-12834300D01*
X22499000Y-12794300D02*
X22459000Y-12834300D01*
X22497100Y-9543100D02*
X22537100Y-9583100D01*
X22537100Y-9543100D02*
X22497100Y-9583100D01*
X22522500Y-13276900D02*
X22562500Y-13316900D01*
X22562500Y-13276900D02*
X22522500Y-13316900D01*
X22592408Y-12459129D02*
X22632408Y-12499129D01*
X22632408Y-12459129D02*
X22592408Y-12499129D01*
X22713000Y-12464100D02*
X22753000Y-12504100D01*
X22753000Y-12464100D02*
X22713000Y-12504100D01*
X22230900Y-10007600D02*
G75*
G03*
X22230900Y-10007600I-40000J0D01*
G01*
X22480900Y-10007600D02*
G75*
G03*
X22480900Y-10007600I-40000J0D01*
G01*
X8295000Y-9906000D02*
G75*
G03*
X8295000Y-9906000I-40000J0D01*
G01*
X8422000Y-9398000D02*
G75*
G03*
X8422000Y-9398000I-40000J0D01*
G01*
X8549000Y-4826000D02*
G75*
G03*
X8549000Y-4826000I-40000J0D01*
G01*
X8549000Y-9652000D02*
G75*
G03*
X8549000Y-9652000I-40000J0D01*
G01*
X8549000Y-9906000D02*
G75*
G03*
X8549000Y-9906000I-40000J0D01*
G01*
X8676000Y-9398000D02*
G75*
G03*
X8676000Y-9398000I-40000J0D01*
G01*
X8803000Y-9906000D02*
G75*
G03*
X8803000Y-9906000I-40000J0D01*
G01*
X13679800Y-10795000D02*
G75*
G03*
X13679800Y-10795000I-40000J0D01*
G01*
X13933800Y-10795000D02*
G75*
G03*
X13933800Y-10795000I-40000J0D01*
G01*
X14187800Y-10795000D02*
G75*
G03*
X14187800Y-10795000I-40000J0D01*
G01*
X19559900Y-10795000D02*
G75*
G03*
X19559900Y-10795000I-40000J0D01*
G01*
X19813900Y-10795000D02*
G75*
G03*
X19813900Y-10795000I-40000J0D01*
G01*
X20067900Y-10795000D02*
G75*
G03*
X20067900Y-10795000I-40000J0D01*
G01*
X11139800Y-4826000D02*
G75*
G03*
X11139800Y-4826000I-40000J0D01*
G01*
X11393800Y-4826000D02*
G75*
G03*
X11393800Y-4826000I-40000J0D01*
G01*
X11647800Y-4826000D02*
G75*
G03*
X11647800Y-4826000I-40000J0D01*
G01*
X9696000Y-10007600D02*
G75*
G03*
X9696000Y-10007600I-40000J0D01*
G01*
X9946000Y-10007600D02*
G75*
G03*
X9946000Y-10007600I-40000J0D01*
G01*
X15368900Y-4826000D02*
G75*
G03*
X15368900Y-4826000I-40000J0D01*
G01*
X15622900Y-4826000D02*
G75*
G03*
X15622900Y-4826000I-40000J0D01*
G01*
X15876900Y-4826000D02*
G75*
G03*
X15876900Y-4826000I-40000J0D01*
G01*
X17908900Y-9271000D02*
G75*
G03*
X17908900Y-9271000I-40000J0D01*
G01*
X18162900Y-9271000D02*
G75*
G03*
X18162900Y-9271000I-40000J0D01*
G01*
X18416900Y-9271000D02*
G75*
G03*
X18416900Y-9271000I-40000J0D01*
G01*
X14137000Y-6858000D02*
G75*
G03*
X14137000Y-6858000I-40000J0D01*
G01*
X14137000Y-7358000D02*
G75*
G03*
X14137000Y-7358000I-40000J0D01*
G01*
X7215500Y-11620500D02*
G75*
G03*
X7215500Y-11620500I-40000J0D01*
G01*
X7465500Y-11620500D02*
G75*
G03*
X7465500Y-11620500I-40000J0D01*
G01*
X17908900Y-10795000D02*
G75*
G03*
X17908900Y-10795000I-40000J0D01*
G01*
X18162900Y-10795000D02*
G75*
G03*
X18162900Y-10795000I-40000J0D01*
G01*
X18416900Y-10795000D02*
G75*
G03*
X18416900Y-10795000I-40000J0D01*
G01*
X15407000Y-6858000D02*
G75*
G03*
X15407000Y-6858000I-40000J0D01*
G01*
X15407000Y-7358000D02*
G75*
G03*
X15407000Y-7358000I-40000J0D01*
G01*
X22099900Y-9271000D02*
G75*
G03*
X22099900Y-9271000I-40000J0D01*
G01*
X22353900Y-9271000D02*
G75*
G03*
X22353900Y-9271000I-40000J0D01*
G01*
X22607900Y-9271000D02*
G75*
G03*
X22607900Y-9271000I-40000J0D01*
G01*
X19598000Y-6858000D02*
G75*
G03*
X19598000Y-6858000I-40000J0D01*
G01*
X19598000Y-7358000D02*
G75*
G03*
X19598000Y-7358000I-40000J0D01*
G01*
X19559900Y-4826000D02*
G75*
G03*
X19559900Y-4826000I-40000J0D01*
G01*
X19813900Y-4826000D02*
G75*
G03*
X19813900Y-4826000I-40000J0D01*
G01*
X20067900Y-4826000D02*
G75*
G03*
X20067900Y-4826000I-40000J0D01*
G01*
X20841000Y-9906000D02*
G75*
G03*
X20841000Y-9906000I-40000J0D01*
G01*
X20968000Y-9398000D02*
G75*
G03*
X20968000Y-9398000I-40000J0D01*
G01*
X21095000Y-4826000D02*
G75*
G03*
X21095000Y-4826000I-40000J0D01*
G01*
X21095000Y-9652000D02*
G75*
G03*
X21095000Y-9652000I-40000J0D01*
G01*
X21095000Y-9906000D02*
G75*
G03*
X21095000Y-9906000I-40000J0D01*
G01*
X21222000Y-9398000D02*
G75*
G03*
X21222000Y-9398000I-40000J0D01*
G01*
X21349000Y-9906000D02*
G75*
G03*
X21349000Y-9906000I-40000J0D01*
G01*
X7075800Y-6858000D02*
G75*
G03*
X7075800Y-6858000I-40000J0D01*
G01*
X7075800Y-7358000D02*
G75*
G03*
X7075800Y-7358000I-40000J0D01*
G01*
X9565000Y-9271000D02*
G75*
G03*
X9565000Y-9271000I-40000J0D01*
G01*
X9819000Y-9271000D02*
G75*
G03*
X9819000Y-9271000I-40000J0D01*
G01*
X10073000Y-9271000D02*
G75*
G03*
X10073000Y-9271000I-40000J0D01*
G01*
X7025000Y-10795000D02*
G75*
G03*
X7025000Y-10795000I-40000J0D01*
G01*
X7279000Y-10795000D02*
G75*
G03*
X7279000Y-10795000I-40000J0D01*
G01*
X7533000Y-10795000D02*
G75*
G03*
X7533000Y-10795000I-40000J0D01*
G01*
X18328000Y-6858000D02*
G75*
G03*
X18328000Y-6858000I-40000J0D01*
G01*
X18328000Y-7358000D02*
G75*
G03*
X18328000Y-7358000I-40000J0D01*
G01*
X13810800Y-10007600D02*
G75*
G03*
X13810800Y-10007600I-40000J0D01*
G01*
X14060800Y-10007600D02*
G75*
G03*
X14060800Y-10007600I-40000J0D01*
G01*
X18039900Y-10007600D02*
G75*
G03*
X18039900Y-10007600I-40000J0D01*
G01*
X18289900Y-10007600D02*
G75*
G03*
X18289900Y-10007600I-40000J0D01*
G01*
X22099900Y-10795000D02*
G75*
G03*
X22099900Y-10795000I-40000J0D01*
G01*
X22353900Y-10795000D02*
G75*
G03*
X22353900Y-10795000I-40000J0D01*
G01*
X22607900Y-10795000D02*
G75*
G03*
X22607900Y-10795000I-40000J0D01*
G01*
X9565000Y-10795000D02*
G75*
G03*
X9565000Y-10795000I-40000J0D01*
G01*
X9819000Y-10795000D02*
G75*
G03*
X9819000Y-10795000I-40000J0D01*
G01*
X10073000Y-10795000D02*
G75*
G03*
X10073000Y-10795000I-40000J0D01*
G01*
X15368900Y-10795000D02*
G75*
G03*
X15368900Y-10795000I-40000J0D01*
G01*
X15622900Y-10795000D02*
G75*
G03*
X15622900Y-10795000I-40000J0D01*
G01*
X15876900Y-10795000D02*
G75*
G03*
X15876900Y-10795000I-40000J0D01*
G01*
X22519000Y-6858000D02*
G75*
G03*
X22519000Y-6858000I-40000J0D01*
G01*
X22519000Y-7358000D02*
G75*
G03*
X22519000Y-7358000I-40000J0D01*
G01*
X6902000Y-12331700D02*
G75*
G03*
X6902000Y-12331700I-40000J0D01*
G01*
X7152000Y-12331700D02*
G75*
G03*
X7152000Y-12331700I-40000J0D01*
G01*
X16634667Y-9906000D02*
G75*
G03*
X16634667Y-9906000I-40000J0D01*
G01*
X16761667Y-9398000D02*
G75*
G03*
X16761667Y-9398000I-40000J0D01*
G01*
X16888667Y-4826000D02*
G75*
G03*
X16888667Y-4826000I-40000J0D01*
G01*
X16888667Y-9652000D02*
G75*
G03*
X16888667Y-9652000I-40000J0D01*
G01*
X16888667Y-9906000D02*
G75*
G03*
X16888667Y-9906000I-40000J0D01*
G01*
X17015667Y-9398000D02*
G75*
G03*
X17015667Y-9398000I-40000J0D01*
G01*
X17142667Y-9906000D02*
G75*
G03*
X17142667Y-9906000I-40000J0D01*
G01*
X13679800Y-9271000D02*
G75*
G03*
X13679800Y-9271000I-40000J0D01*
G01*
X13933800Y-9271000D02*
G75*
G03*
X13933800Y-9271000I-40000J0D01*
G01*
X14187800Y-9271000D02*
G75*
G03*
X14187800Y-9271000I-40000J0D01*
G01*
X10034900Y-6845300D02*
G75*
G03*
X10034900Y-6845300I-40000J0D01*
G01*
X10034900Y-7345300D02*
G75*
G03*
X10034900Y-7345300I-40000J0D01*
G01*
X11139800Y-10795000D02*
G75*
G03*
X11139800Y-10795000I-40000J0D01*
G01*
X11393800Y-10795000D02*
G75*
G03*
X11393800Y-10795000I-40000J0D01*
G01*
X11647800Y-10795000D02*
G75*
G03*
X11647800Y-10795000I-40000J0D01*
G01*
X12401333Y-9906000D02*
G75*
G03*
X12401333Y-9906000I-40000J0D01*
G01*
X12528333Y-9398000D02*
G75*
G03*
X12528333Y-9398000I-40000J0D01*
G01*
X12655333Y-4826000D02*
G75*
G03*
X12655333Y-4826000I-40000J0D01*
G01*
X12655333Y-9652000D02*
G75*
G03*
X12655333Y-9652000I-40000J0D01*
G01*
X12655333Y-9906000D02*
G75*
G03*
X12655333Y-9906000I-40000J0D01*
G01*
X12782333Y-9398000D02*
G75*
G03*
X12782333Y-9398000I-40000J0D01*
G01*
X12909333Y-9906000D02*
G75*
G03*
X12909333Y-9906000I-40000J0D01*
G01*
X7025000Y-4826000D02*
G75*
G03*
X7025000Y-4826000I-40000J0D01*
G01*
X7279000Y-4826000D02*
G75*
G03*
X7279000Y-4826000I-40000J0D01*
G01*
X7533000Y-4826000D02*
G75*
G03*
X7533000Y-4826000I-40000J0D01*
G01*
X11216000Y-6858000D02*
G75*
G03*
X11216000Y-6858000I-40000J0D01*
G01*
X11216000Y-7358000D02*
G75*
G03*
X11216000Y-7358000I-40000J0D01*
G01*
X15875000Y-7067000D02*
X15875000Y-7157000D01*
X15830000Y-7112000D02*
X15920000Y-7112000D01*
X16129000Y-7067000D02*
X16129000Y-7157000D01*
X16084000Y-7112000D02*
X16174000Y-7112000D01*
X7531100Y-7067000D02*
X7531100Y-7157000D01*
X7486100Y-7112000D02*
X7576100Y-7112000D01*
X7785100Y-7067000D02*
X7785100Y-7157000D01*
X7740100Y-7112000D02*
X7830100Y-7112000D01*
X20099600Y-7067000D02*
X20099600Y-7157000D01*
X20054600Y-7112000D02*
X20144600Y-7112000D01*
X20353600Y-7067000D02*
X20353600Y-7157000D01*
X20308600Y-7112000D02*
X20398600Y-7112000D01*
X11658600Y-7067000D02*
X11658600Y-7157000D01*
X11613600Y-7112000D02*
X11703600Y-7112000D01*
X11912600Y-7067000D02*
X11912600Y-7157000D01*
X11867600Y-7112000D02*
X11957600Y-7112000D01*
X21780500Y-7067000D02*
X21780500Y-7157000D01*
X21735500Y-7112000D02*
X21825500Y-7112000D01*
X22034500Y-7067000D02*
X22034500Y-7157000D01*
X21989500Y-7112000D02*
X22079500Y-7112000D01*
X17576800Y-7067000D02*
X17576800Y-7157000D01*
X17531800Y-7112000D02*
X17621800Y-7112000D01*
X17830800Y-7067000D02*
X17830800Y-7157000D01*
X17785800Y-7112000D02*
X17875800Y-7112000D01*
X13335000Y-7067000D02*
X13335000Y-7157000D01*
X13290000Y-7112000D02*
X13380000Y-7112000D01*
X13589000Y-7067000D02*
X13589000Y-7157000D01*
X13544000Y-7112000D02*
X13634000Y-7112000D01*
X9271000Y-7067000D02*
X9271000Y-7157000D01*
X9226000Y-7112000D02*
X9316000Y-7112000D01*
X9525000Y-7067000D02*
X9525000Y-7157000D01*
X9480000Y-7112000D02*
X9570000Y-7112000D01*
X21883356Y-6500356D02*
X21883356Y-6429644D01*
X21812644Y-6429644D01*
X21812644Y-6500356D01*
X21883356Y-6500356D01*
X22133356Y-6500356D02*
X22133356Y-6429644D01*
X22062644Y-6429644D01*
X22062644Y-6500356D01*
X22133356Y-6500356D01*
X22383356Y-6500356D02*
X22383356Y-6429644D01*
X22312644Y-6429644D01*
X22312644Y-6500356D01*
X22383356Y-6500356D01*
X9348456Y-6500356D02*
X9348456Y-6429644D01*
X9277744Y-6429644D01*
X9277744Y-6500356D01*
X9348456Y-6500356D01*
X9598456Y-6500356D02*
X9598456Y-6429644D01*
X9527744Y-6429644D01*
X9527744Y-6500356D01*
X9598456Y-6500356D01*
X9848456Y-6500356D02*
X9848456Y-6429644D01*
X9777744Y-6429644D01*
X9777744Y-6500356D01*
X9848456Y-6500356D01*
X11342356Y-6500356D02*
X11342356Y-6429644D01*
X11271644Y-6429644D01*
X11271644Y-6500356D01*
X11342356Y-6500356D01*
X11592356Y-6500356D02*
X11592356Y-6429644D01*
X11521644Y-6429644D01*
X11521644Y-6500356D01*
X11592356Y-6500356D01*
X11842356Y-6500356D02*
X11842356Y-6429644D01*
X11771644Y-6429644D01*
X11771644Y-6500356D01*
X11842356Y-6500356D01*
X15533356Y-8913356D02*
X15533356Y-8842644D01*
X15462644Y-8842644D01*
X15462644Y-8913356D01*
X15533356Y-8913356D01*
X15783356Y-8913356D02*
X15783356Y-8842644D01*
X15712644Y-8842644D01*
X15712644Y-8913356D01*
X15783356Y-8913356D01*
X16033356Y-8913356D02*
X16033356Y-8842644D01*
X15962644Y-8842644D01*
X15962644Y-8913356D01*
X16033356Y-8913356D01*
X13501356Y-8913356D02*
X13501356Y-8842644D01*
X13430644Y-8842644D01*
X13430644Y-8913356D01*
X13501356Y-8913356D01*
X13751356Y-8913356D02*
X13751356Y-8842644D01*
X13680644Y-8842644D01*
X13680644Y-8913356D01*
X13751356Y-8913356D01*
X14001356Y-8913356D02*
X14001356Y-8842644D01*
X13930644Y-8842644D01*
X13930644Y-8913356D01*
X14001356Y-8913356D01*
X17692356Y-6500356D02*
X17692356Y-6429644D01*
X17621644Y-6429644D01*
X17621644Y-6500356D01*
X17692356Y-6500356D01*
X17942356Y-6500356D02*
X17942356Y-6429644D01*
X17871644Y-6429644D01*
X17871644Y-6500356D01*
X17942356Y-6500356D01*
X18192356Y-6500356D02*
X18192356Y-6429644D01*
X18121644Y-6429644D01*
X18121644Y-6500356D01*
X18192356Y-6500356D01*
X6944156Y-12989356D02*
X6944156Y-12918644D01*
X6873444Y-12918644D01*
X6873444Y-12989356D01*
X6944156Y-12989356D01*
X6944156Y-13243356D02*
X6944156Y-13172644D01*
X6873444Y-13172644D01*
X6873444Y-13243356D01*
X6944156Y-13243356D01*
X6944156Y-13497356D02*
X6944156Y-13426644D01*
X6873444Y-13426644D01*
X6873444Y-13497356D01*
X6944156Y-13497356D01*
X6944156Y-13751356D02*
X6944156Y-13680644D01*
X6873444Y-13680644D01*
X6873444Y-13751356D01*
X6944156Y-13751356D01*
X6944156Y-14005356D02*
X6944156Y-13934644D01*
X6873444Y-13934644D01*
X6873444Y-14005356D01*
X6944156Y-14005356D01*
X7198156Y-12989356D02*
X7198156Y-12918644D01*
X7127444Y-12918644D01*
X7127444Y-12989356D01*
X7198156Y-12989356D01*
X7198156Y-13243356D02*
X7198156Y-13172644D01*
X7127444Y-13172644D01*
X7127444Y-13243356D01*
X7198156Y-13243356D01*
X7198156Y-13497356D02*
X7198156Y-13426644D01*
X7127444Y-13426644D01*
X7127444Y-13497356D01*
X7198156Y-13497356D01*
X7198156Y-13751356D02*
X7198156Y-13680644D01*
X7127444Y-13680644D01*
X7127444Y-13751356D01*
X7198156Y-13751356D01*
X7198156Y-14005356D02*
X7198156Y-13934644D01*
X7127444Y-13934644D01*
X7127444Y-14005356D01*
X7198156Y-14005356D01*
X11342356Y-8913356D02*
X11342356Y-8842644D01*
X11271644Y-8842644D01*
X11271644Y-8913356D01*
X11342356Y-8913356D01*
X11592356Y-8913356D02*
X11592356Y-8842644D01*
X11521644Y-8842644D01*
X11521644Y-8913356D01*
X11592356Y-8913356D01*
X11842356Y-8913356D02*
X11842356Y-8842644D01*
X11771644Y-8842644D01*
X11771644Y-8913356D01*
X11842356Y-8913356D01*
X19773356Y-6500356D02*
X19773356Y-6429644D01*
X19702644Y-6429644D01*
X19702644Y-6500356D01*
X19773356Y-6500356D01*
X20023356Y-6500356D02*
X20023356Y-6429644D01*
X19952644Y-6429644D01*
X19952644Y-6500356D01*
X20023356Y-6500356D01*
X20273356Y-6500356D02*
X20273356Y-6429644D01*
X20202644Y-6429644D01*
X20202644Y-6500356D01*
X20273356Y-6500356D01*
X9348456Y-8913356D02*
X9348456Y-8842644D01*
X9277744Y-8842644D01*
X9277744Y-8913356D01*
X9348456Y-8913356D01*
X9598456Y-8913356D02*
X9598456Y-8842644D01*
X9527744Y-8842644D01*
X9527744Y-8913356D01*
X9598456Y-8913356D01*
X9848456Y-8913356D02*
X9848456Y-8842644D01*
X9777744Y-8842644D01*
X9777744Y-8913356D01*
X9848456Y-8913356D01*
X7227556Y-6500356D02*
X7227556Y-6429644D01*
X7156844Y-6429644D01*
X7156844Y-6500356D01*
X7227556Y-6500356D01*
X7477556Y-6500356D02*
X7477556Y-6429644D01*
X7406844Y-6429644D01*
X7406844Y-6500356D01*
X7477556Y-6500356D01*
X7727556Y-6500356D02*
X7727556Y-6429644D01*
X7656844Y-6429644D01*
X7656844Y-6500356D01*
X7727556Y-6500356D01*
X21883356Y-8913356D02*
X21883356Y-8842644D01*
X21812644Y-8842644D01*
X21812644Y-8913356D01*
X21883356Y-8913356D01*
X22133356Y-8913356D02*
X22133356Y-8842644D01*
X22062644Y-8842644D01*
X22062644Y-8913356D01*
X22133356Y-8913356D01*
X22383356Y-8913356D02*
X22383356Y-8842644D01*
X22312644Y-8842644D01*
X22312644Y-8913356D01*
X22383356Y-8913356D01*
X13501356Y-6500356D02*
X13501356Y-6429644D01*
X13430644Y-6429644D01*
X13430644Y-6500356D01*
X13501356Y-6500356D01*
X13751356Y-6500356D02*
X13751356Y-6429644D01*
X13680644Y-6429644D01*
X13680644Y-6500356D01*
X13751356Y-6500356D01*
X14001356Y-6500356D02*
X14001356Y-6429644D01*
X13930644Y-6429644D01*
X13930644Y-6500356D01*
X14001356Y-6500356D01*
X17692356Y-8913356D02*
X17692356Y-8842644D01*
X17621644Y-8842644D01*
X17621644Y-8913356D01*
X17692356Y-8913356D01*
X17942356Y-8913356D02*
X17942356Y-8842644D01*
X17871644Y-8842644D01*
X17871644Y-8913356D01*
X17942356Y-8913356D01*
X18192356Y-8913356D02*
X18192356Y-8842644D01*
X18121644Y-8842644D01*
X18121644Y-8913356D01*
X18192356Y-8913356D01*
X7227556Y-8913356D02*
X7227556Y-8842644D01*
X7156844Y-8842644D01*
X7156844Y-8913356D01*
X7227556Y-8913356D01*
X7477556Y-8913356D02*
X7477556Y-8842644D01*
X7406844Y-8842644D01*
X7406844Y-8913356D01*
X7477556Y-8913356D01*
X7727556Y-8913356D02*
X7727556Y-8842644D01*
X7656844Y-8842644D01*
X7656844Y-8913356D01*
X7727556Y-8913356D01*
X15533356Y-6500356D02*
X15533356Y-6429644D01*
X15462644Y-6429644D01*
X15462644Y-6500356D01*
X15533356Y-6500356D01*
X15783356Y-6500356D02*
X15783356Y-6429644D01*
X15712644Y-6429644D01*
X15712644Y-6500356D01*
X15783356Y-6500356D01*
X16033356Y-6500356D02*
X16033356Y-6429644D01*
X15962644Y-6429644D01*
X15962644Y-6500356D01*
X16033356Y-6500356D01*
X19773356Y-8913356D02*
X19773356Y-8842644D01*
X19702644Y-8842644D01*
X19702644Y-8913356D01*
X19773356Y-8913356D01*
X20023356Y-8913356D02*
X20023356Y-8842644D01*
X19952644Y-8842644D01*
X19952644Y-8913356D01*
X20023356Y-8913356D01*
X20273356Y-8913356D02*
X20273356Y-8842644D01*
X20202644Y-8842644D01*
X20202644Y-8913356D01*
X20273356Y-8913356D01*
X11975800Y-11891000D02*
X12055800Y-11811000D01*
X11975800Y-11731000D01*
X11895800Y-11811000D01*
X11975800Y-11891000D01*
X12285800Y-11891000D02*
X12365800Y-11811000D01*
X12285800Y-11731000D01*
X12205800Y-11811000D01*
X12285800Y-11891000D01*
X13115800Y-11891000D02*
X13195800Y-11811000D01*
X13115800Y-11731000D01*
X13035800Y-11811000D01*
X13115800Y-11891000D01*
X16204900Y-12907000D02*
X16284900Y-12827000D01*
X16204900Y-12747000D01*
X16124900Y-12827000D01*
X16204900Y-12907000D01*
X16514900Y-12907000D02*
X16594900Y-12827000D01*
X16514900Y-12747000D01*
X16434900Y-12827000D01*
X16514900Y-12907000D01*
X17344900Y-12907000D02*
X17424900Y-12827000D01*
X17344900Y-12747000D01*
X17264900Y-12827000D01*
X17344900Y-12907000D01*
X16204900Y-13923000D02*
X16284900Y-13843000D01*
X16204900Y-13763000D01*
X16124900Y-13843000D01*
X16204900Y-13923000D01*
X16514900Y-13923000D02*
X16594900Y-13843000D01*
X16514900Y-13763000D01*
X16434900Y-13843000D01*
X16514900Y-13923000D01*
X17344900Y-13923000D02*
X17424900Y-13843000D01*
X17344900Y-13763000D01*
X17264900Y-13843000D01*
X17344900Y-13923000D01*
X20398900Y-11891000D02*
X20478900Y-11811000D01*
X20398900Y-11731000D01*
X20318900Y-11811000D01*
X20398900Y-11891000D01*
X20708900Y-11891000D02*
X20788900Y-11811000D01*
X20708900Y-11731000D01*
X20628900Y-11811000D01*
X20708900Y-11891000D01*
X21538900Y-11891000D02*
X21618900Y-11811000D01*
X21538900Y-11731000D01*
X21458900Y-11811000D01*
X21538900Y-11891000D01*
X11975800Y-12907000D02*
X12055800Y-12827000D01*
X11975800Y-12747000D01*
X11895800Y-12827000D01*
X11975800Y-12907000D01*
X12285800Y-12907000D02*
X12365800Y-12827000D01*
X12285800Y-12747000D01*
X12205800Y-12827000D01*
X12285800Y-12907000D01*
X13115800Y-12907000D02*
X13195800Y-12827000D01*
X13115800Y-12747000D01*
X13035800Y-12827000D01*
X13115800Y-12907000D01*
X7861000Y-11891000D02*
X7941000Y-11811000D01*
X7861000Y-11731000D01*
X7781000Y-11811000D01*
X7861000Y-11891000D01*
X8171000Y-11891000D02*
X8251000Y-11811000D01*
X8171000Y-11731000D01*
X8091000Y-11811000D01*
X8171000Y-11891000D01*
X9001000Y-11891000D02*
X9081000Y-11811000D01*
X9001000Y-11731000D01*
X8921000Y-11811000D01*
X9001000Y-11891000D01*
X11975800Y-13923000D02*
X12055800Y-13843000D01*
X11975800Y-13763000D01*
X11895800Y-13843000D01*
X11975800Y-13923000D01*
X12285800Y-13923000D02*
X12365800Y-13843000D01*
X12285800Y-13763000D01*
X12205800Y-13843000D01*
X12285800Y-13923000D01*
X13115800Y-13923000D02*
X13195800Y-13843000D01*
X13115800Y-13763000D01*
X13035800Y-13843000D01*
X13115800Y-13923000D01*
X7861000Y-12907000D02*
X7941000Y-12827000D01*
X7861000Y-12747000D01*
X7781000Y-12827000D01*
X7861000Y-12907000D01*
X8171000Y-12907000D02*
X8251000Y-12827000D01*
X8171000Y-12747000D01*
X8091000Y-12827000D01*
X8171000Y-12907000D01*
X9001000Y-12907000D02*
X9081000Y-12827000D01*
X9001000Y-12747000D01*
X8921000Y-12827000D01*
X9001000Y-12907000D01*
X20398900Y-13923000D02*
X20478900Y-13843000D01*
X20398900Y-13763000D01*
X20318900Y-13843000D01*
X20398900Y-13923000D01*
X20708900Y-13923000D02*
X20788900Y-13843000D01*
X20708900Y-13763000D01*
X20628900Y-13843000D01*
X20708900Y-13923000D01*
X21538900Y-13923000D02*
X21618900Y-13843000D01*
X21538900Y-13763000D01*
X21458900Y-13843000D01*
X21538900Y-13923000D01*
X16204900Y-11891000D02*
X16284900Y-11811000D01*
X16204900Y-11731000D01*
X16124900Y-11811000D01*
X16204900Y-11891000D01*
X16514900Y-11891000D02*
X16594900Y-11811000D01*
X16514900Y-11731000D01*
X16434900Y-11811000D01*
X16514900Y-11891000D01*
X17344900Y-11891000D02*
X17424900Y-11811000D01*
X17344900Y-11731000D01*
X17264900Y-11811000D01*
X17344900Y-11891000D01*
X7861000Y-13923000D02*
X7941000Y-13843000D01*
X7861000Y-13763000D01*
X7781000Y-13843000D01*
X7861000Y-13923000D01*
X8171000Y-13923000D02*
X8251000Y-13843000D01*
X8171000Y-13763000D01*
X8091000Y-13843000D01*
X8171000Y-13923000D01*
X9001000Y-13923000D02*
X9081000Y-13843000D01*
X9001000Y-13763000D01*
X8921000Y-13843000D01*
X9001000Y-13923000D01*
X20398900Y-12907000D02*
X20478900Y-12827000D01*
X20398900Y-12747000D01*
X20318900Y-12827000D01*
X20398900Y-12907000D01*
X20708900Y-12907000D02*
X20788900Y-12827000D01*
X20708900Y-12747000D01*
X20628900Y-12827000D01*
X20708900Y-12907000D01*
X21538900Y-12907000D02*
X21618900Y-12827000D01*
X21538900Y-12747000D01*
X21458900Y-12827000D01*
X21538900Y-12907000D01*
X13146000Y-5625000D02*
X13326000Y-5805000D01*
X13326000Y-5625000D02*
X13146000Y-5805000D01*
X13326000Y-5715000D02*
G75*
G03*
X13326000Y-5715000I-90000J0D01*
G01*
X14106000Y-5625000D02*
X14286000Y-5805000D01*
X14286000Y-5625000D02*
X14106000Y-5805000D01*
X14286000Y-5715000D02*
G75*
G03*
X14286000Y-5715000I-90000J0D01*
G01*
X17337000Y-8038000D02*
X17517000Y-8218000D01*
X17517000Y-8038000D02*
X17337000Y-8218000D01*
X17517000Y-8128000D02*
G75*
G03*
X17517000Y-8128000I-90000J0D01*
G01*
X18297000Y-8038000D02*
X18477000Y-8218000D01*
X18477000Y-8038000D02*
X18297000Y-8218000D01*
X18477000Y-8128000D02*
G75*
G03*
X18477000Y-8128000I-90000J0D01*
G01*
X6872200Y-8038000D02*
X7052200Y-8218000D01*
X7052200Y-8038000D02*
X6872200Y-8218000D01*
X7052200Y-8128000D02*
G75*
G03*
X7052200Y-8128000I-90000J0D01*
G01*
X7832200Y-8038000D02*
X8012200Y-8218000D01*
X8012200Y-8038000D02*
X7832200Y-8218000D01*
X8012200Y-8128000D02*
G75*
G03*
X8012200Y-8128000I-90000J0D01*
G01*
X15178000Y-5625000D02*
X15358000Y-5805000D01*
X15358000Y-5625000D02*
X15178000Y-5805000D01*
X15358000Y-5715000D02*
G75*
G03*
X15358000Y-5715000I-90000J0D01*
G01*
X16138000Y-5625000D02*
X16318000Y-5805000D01*
X16318000Y-5625000D02*
X16138000Y-5805000D01*
X16318000Y-5715000D02*
G75*
G03*
X16318000Y-5715000I-90000J0D01*
G01*
X19418000Y-8038000D02*
X19598000Y-8218000D01*
X19598000Y-8038000D02*
X19418000Y-8218000D01*
X19598000Y-8128000D02*
G75*
G03*
X19598000Y-8128000I-90000J0D01*
G01*
X20378000Y-8038000D02*
X20558000Y-8218000D01*
X20558000Y-8038000D02*
X20378000Y-8218000D01*
X20558000Y-8128000D02*
G75*
G03*
X20558000Y-8128000I-90000J0D01*
G01*
X21528000Y-5625000D02*
X21708000Y-5805000D01*
X21708000Y-5625000D02*
X21528000Y-5805000D01*
X21708000Y-5715000D02*
G75*
G03*
X21708000Y-5715000I-90000J0D01*
G01*
X22488000Y-5625000D02*
X22668000Y-5805000D01*
X22668000Y-5625000D02*
X22488000Y-5805000D01*
X22668000Y-5715000D02*
G75*
G03*
X22668000Y-5715000I-90000J0D01*
G01*
X8993100Y-5625000D02*
X9173100Y-5805000D01*
X9173100Y-5625000D02*
X8993100Y-5805000D01*
X9173100Y-5715000D02*
G75*
G03*
X9173100Y-5715000I-90000J0D01*
G01*
X9953100Y-5625000D02*
X10133100Y-5805000D01*
X10133100Y-5625000D02*
X9953100Y-5805000D01*
X10133100Y-5715000D02*
G75*
G03*
X10133100Y-5715000I-90000J0D01*
G01*
X10987000Y-5625000D02*
X11167000Y-5805000D01*
X11167000Y-5625000D02*
X10987000Y-5805000D01*
X11167000Y-5715000D02*
G75*
G03*
X11167000Y-5715000I-90000J0D01*
G01*
X11947000Y-5625000D02*
X12127000Y-5805000D01*
X12127000Y-5625000D02*
X11947000Y-5805000D01*
X12127000Y-5715000D02*
G75*
G03*
X12127000Y-5715000I-90000J0D01*
G01*
X15178000Y-8038000D02*
X15358000Y-8218000D01*
X15358000Y-8038000D02*
X15178000Y-8218000D01*
X15358000Y-8128000D02*
G75*
G03*
X15358000Y-8128000I-90000J0D01*
G01*
X16138000Y-8038000D02*
X16318000Y-8218000D01*
X16318000Y-8038000D02*
X16138000Y-8218000D01*
X16318000Y-8128000D02*
G75*
G03*
X16318000Y-8128000I-90000J0D01*
G01*
X13146000Y-8038000D02*
X13326000Y-8218000D01*
X13326000Y-8038000D02*
X13146000Y-8218000D01*
X13326000Y-8128000D02*
G75*
G03*
X13326000Y-8128000I-90000J0D01*
G01*
X14106000Y-8038000D02*
X14286000Y-8218000D01*
X14286000Y-8038000D02*
X14106000Y-8218000D01*
X14286000Y-8128000D02*
G75*
G03*
X14286000Y-8128000I-90000J0D01*
G01*
X17337000Y-5625000D02*
X17517000Y-5805000D01*
X17517000Y-5625000D02*
X17337000Y-5805000D01*
X17517000Y-5715000D02*
G75*
G03*
X17517000Y-5715000I-90000J0D01*
G01*
X18297000Y-5625000D02*
X18477000Y-5805000D01*
X18477000Y-5625000D02*
X18297000Y-5805000D01*
X18477000Y-5715000D02*
G75*
G03*
X18477000Y-5715000I-90000J0D01*
G01*
X10987000Y-8038000D02*
X11167000Y-8218000D01*
X11167000Y-8038000D02*
X10987000Y-8218000D01*
X11167000Y-8128000D02*
G75*
G03*
X11167000Y-8128000I-90000J0D01*
G01*
X11947000Y-8038000D02*
X12127000Y-8218000D01*
X12127000Y-8038000D02*
X11947000Y-8218000D01*
X12127000Y-8128000D02*
G75*
G03*
X12127000Y-8128000I-90000J0D01*
G01*
X19418000Y-5625000D02*
X19598000Y-5805000D01*
X19598000Y-5625000D02*
X19418000Y-5805000D01*
X19598000Y-5715000D02*
G75*
G03*
X19598000Y-5715000I-90000J0D01*
G01*
X20378000Y-5625000D02*
X20558000Y-5805000D01*
X20558000Y-5625000D02*
X20378000Y-5805000D01*
X20558000Y-5715000D02*
G75*
G03*
X20558000Y-5715000I-90000J0D01*
G01*
X8993100Y-8038000D02*
X9173100Y-8218000D01*
X9173100Y-8038000D02*
X8993100Y-8218000D01*
X9173100Y-8128000D02*
G75*
G03*
X9173100Y-8128000I-90000J0D01*
G01*
X9953100Y-8038000D02*
X10133100Y-8218000D01*
X10133100Y-8038000D02*
X9953100Y-8218000D01*
X10133100Y-8128000D02*
G75*
G03*
X10133100Y-8128000I-90000J0D01*
G01*
X6872200Y-5625000D02*
X7052200Y-5805000D01*
X7052200Y-5625000D02*
X6872200Y-5805000D01*
X7052200Y-5715000D02*
G75*
G03*
X7052200Y-5715000I-90000J0D01*
G01*
X7832200Y-5625000D02*
X8012200Y-5805000D01*
X8012200Y-5625000D02*
X7832200Y-5805000D01*
X8012200Y-5715000D02*
G75*
G03*
X8012200Y-5715000I-90000J0D01*
G01*
X21528000Y-8038000D02*
X21708000Y-8218000D01*
X21708000Y-8038000D02*
X21528000Y-8218000D01*
X21708000Y-8128000D02*
G75*
G03*
X21708000Y-8128000I-90000J0D01*
G01*
X22488000Y-8038000D02*
X22668000Y-8218000D01*
X22668000Y-8038000D02*
X22488000Y-8218000D01*
X22668000Y-8128000D02*
G75*
G03*
X22668000Y-8128000I-90000J0D01*
G01*
X12061300Y-10677750D02*
X12246300Y-10862750D01*
X12246300Y-10677750D02*
X12061300Y-10862750D01*
X12153800Y-10677750D02*
X12153800Y-10862750D01*
X12061300Y-10770250D02*
X12246300Y-10770250D01*
X12531300Y-10677750D02*
X12716300Y-10862750D01*
X12716300Y-10677750D02*
X12531300Y-10862750D01*
X12623800Y-10677750D02*
X12623800Y-10862750D01*
X12531300Y-10770250D02*
X12716300Y-10770250D01*
X13001300Y-10677750D02*
X13186300Y-10862750D01*
X13186300Y-10677750D02*
X13001300Y-10862750D01*
X13093800Y-10677750D02*
X13093800Y-10862750D01*
X13001300Y-10770250D02*
X13186300Y-10770250D01*
X16290400Y-10677750D02*
X16475400Y-10862750D01*
X16475400Y-10677750D02*
X16290400Y-10862750D01*
X16382900Y-10677750D02*
X16382900Y-10862750D01*
X16290400Y-10770250D02*
X16475400Y-10770250D01*
X16760400Y-10677750D02*
X16945400Y-10862750D01*
X16945400Y-10677750D02*
X16760400Y-10862750D01*
X16852900Y-10677750D02*
X16852900Y-10862750D01*
X16760400Y-10770250D02*
X16945400Y-10770250D01*
X17230400Y-10677750D02*
X17415400Y-10862750D01*
X17415400Y-10677750D02*
X17230400Y-10862750D01*
X17322900Y-10677750D02*
X17322900Y-10862750D01*
X17230400Y-10770250D02*
X17415400Y-10770250D01*
X7946500Y-10677750D02*
X8131500Y-10862750D01*
X8131500Y-10677750D02*
X7946500Y-10862750D01*
X8039000Y-10677750D02*
X8039000Y-10862750D01*
X7946500Y-10770250D02*
X8131500Y-10770250D01*
X8416500Y-10677750D02*
X8601500Y-10862750D01*
X8601500Y-10677750D02*
X8416500Y-10862750D01*
X8509000Y-10677750D02*
X8509000Y-10862750D01*
X8416500Y-10770250D02*
X8601500Y-10770250D01*
X8886500Y-10677750D02*
X9071500Y-10862750D01*
X9071500Y-10677750D02*
X8886500Y-10862750D01*
X8979000Y-10677750D02*
X8979000Y-10862750D01*
X8886500Y-10770250D02*
X9071500Y-10770250D01*
X20481400Y-10677750D02*
X20666400Y-10862750D01*
X20666400Y-10677750D02*
X20481400Y-10862750D01*
X20573900Y-10677750D02*
X20573900Y-10862750D01*
X20481400Y-10770250D02*
X20666400Y-10770250D01*
X20951400Y-10677750D02*
X21136400Y-10862750D01*
X21136400Y-10677750D02*
X20951400Y-10862750D01*
X21043900Y-10677750D02*
X21043900Y-10862750D01*
X20951400Y-10770250D02*
X21136400Y-10770250D01*
X21421400Y-10677750D02*
X21606400Y-10862750D01*
X21606400Y-10677750D02*
X21421400Y-10862750D01*
X21513900Y-10677750D02*
X21513900Y-10862750D01*
X21421400Y-10770250D02*
X21606400Y-10770250D01*
D12*
X6887928Y-14946214D02*
X6887928Y-14646214D01*
X6959357Y-14646214D01*
X7002214Y-14660500D01*
X7030786Y-14689071D01*
X7045071Y-14717643D01*
X7059357Y-14774786D01*
X7059357Y-14817643D01*
X7045071Y-14874786D01*
X7030786Y-14903357D01*
X7002214Y-14931929D01*
X6959357Y-14946214D01*
X6887928Y-14946214D01*
X7187928Y-14946214D02*
X7187928Y-14746214D01*
X7187928Y-14803357D02*
X7202214Y-14774786D01*
X7216500Y-14760500D01*
X7245071Y-14746214D01*
X7273643Y-14746214D01*
X7373643Y-14946214D02*
X7373643Y-14746214D01*
X7373643Y-14646214D02*
X7359357Y-14660500D01*
X7373643Y-14674786D01*
X7387928Y-14660500D01*
X7373643Y-14646214D01*
X7373643Y-14674786D01*
X7559357Y-14946214D02*
X7530786Y-14931929D01*
X7516500Y-14903357D01*
X7516500Y-14646214D01*
X7716500Y-14946214D02*
X7687928Y-14931929D01*
X7673643Y-14903357D01*
X7673643Y-14646214D01*
X8059357Y-14946214D02*
X8059357Y-14646214D01*
X8159357Y-14860500D01*
X8259357Y-14646214D01*
X8259357Y-14946214D01*
X8530786Y-14946214D02*
X8530786Y-14789071D01*
X8516500Y-14760500D01*
X8487928Y-14746214D01*
X8430786Y-14746214D01*
X8402214Y-14760500D01*
X8530786Y-14931929D02*
X8502214Y-14946214D01*
X8430786Y-14946214D01*
X8402214Y-14931929D01*
X8387928Y-14903357D01*
X8387928Y-14874786D01*
X8402214Y-14846214D01*
X8430786Y-14831929D01*
X8502214Y-14831929D01*
X8530786Y-14817643D01*
X8673643Y-14746214D02*
X8673643Y-15046214D01*
X8673643Y-14760500D02*
X8702214Y-14746214D01*
X8759357Y-14746214D01*
X8787928Y-14760500D01*
X8802214Y-14774786D01*
X8816500Y-14803357D01*
X8816500Y-14889071D01*
X8802214Y-14917643D01*
X8787928Y-14931929D01*
X8759357Y-14946214D01*
X8702214Y-14946214D01*
X8673643Y-14931929D01*
X8945071Y-14917643D02*
X8959357Y-14931929D01*
X8945071Y-14946214D01*
X8930786Y-14931929D01*
X8945071Y-14917643D01*
X8945071Y-14946214D01*
X8945071Y-14760500D02*
X8959357Y-14774786D01*
X8945071Y-14789071D01*
X8930786Y-14774786D01*
X8945071Y-14760500D01*
X8945071Y-14789071D01*
X6561500Y-15420500D02*
X6601500Y-15460500D01*
X6601500Y-15420500D02*
X6561500Y-15460500D01*
X6945071Y-15276214D02*
X6973643Y-15276214D01*
X7002214Y-15290500D01*
X7016500Y-15304786D01*
X7030786Y-15333357D01*
X7045071Y-15390500D01*
X7045071Y-15461929D01*
X7030786Y-15519071D01*
X7016500Y-15547643D01*
X7002214Y-15561929D01*
X6973643Y-15576214D01*
X6945071Y-15576214D01*
X6916500Y-15561929D01*
X6902214Y-15547643D01*
X6887928Y-15519071D01*
X6873643Y-15461929D01*
X6873643Y-15390500D01*
X6887928Y-15333357D01*
X6902214Y-15304786D01*
X6916500Y-15290500D01*
X6945071Y-15276214D01*
X7173643Y-15547643D02*
X7187928Y-15561929D01*
X7173643Y-15576214D01*
X7159357Y-15561929D01*
X7173643Y-15547643D01*
X7173643Y-15576214D01*
X7445071Y-15376214D02*
X7445071Y-15576214D01*
X7373643Y-15261929D02*
X7302214Y-15476214D01*
X7487928Y-15476214D01*
X7659357Y-15276214D02*
X7687928Y-15276214D01*
X7716500Y-15290500D01*
X7730786Y-15304786D01*
X7745071Y-15333357D01*
X7759357Y-15390500D01*
X7759357Y-15461929D01*
X7745071Y-15519071D01*
X7730786Y-15547643D01*
X7716500Y-15561929D01*
X7687928Y-15576214D01*
X7659357Y-15576214D01*
X7630786Y-15561929D01*
X7616500Y-15547643D01*
X7602214Y-15519071D01*
X7587928Y-15461929D01*
X7587928Y-15390500D01*
X7602214Y-15333357D01*
X7616500Y-15304786D01*
X7630786Y-15290500D01*
X7659357Y-15276214D01*
X7887928Y-15576214D02*
X7887928Y-15376214D01*
X7887928Y-15404786D02*
X7902214Y-15390500D01*
X7930786Y-15376214D01*
X7973643Y-15376214D01*
X8002214Y-15390500D01*
X8016500Y-15419071D01*
X8016500Y-15576214D01*
X8016500Y-15419071D02*
X8030786Y-15390500D01*
X8059357Y-15376214D01*
X8102214Y-15376214D01*
X8130786Y-15390500D01*
X8145071Y-15419071D01*
X8145071Y-15576214D01*
X8287928Y-15576214D02*
X8287928Y-15376214D01*
X8287928Y-15404786D02*
X8302214Y-15390500D01*
X8330786Y-15376214D01*
X8373643Y-15376214D01*
X8402214Y-15390500D01*
X8416500Y-15419071D01*
X8416500Y-15576214D01*
X8416500Y-15419071D02*
X8430786Y-15390500D01*
X8459357Y-15376214D01*
X8502214Y-15376214D01*
X8530786Y-15390500D01*
X8545071Y-15419071D01*
X8545071Y-15576214D01*
X9130786Y-15261929D02*
X8873643Y-15647643D01*
X9516500Y-15276214D02*
X9545071Y-15276214D01*
X9573643Y-15290500D01*
X9587928Y-15304786D01*
X9602214Y-15333357D01*
X9616500Y-15390500D01*
X9616500Y-15461929D01*
X9602214Y-15519071D01*
X9587928Y-15547643D01*
X9573643Y-15561929D01*
X9545071Y-15576214D01*
X9516500Y-15576214D01*
X9487928Y-15561929D01*
X9473643Y-15547643D01*
X9459357Y-15519071D01*
X9445071Y-15461929D01*
X9445071Y-15390500D01*
X9459357Y-15333357D01*
X9473643Y-15304786D01*
X9487928Y-15290500D01*
X9516500Y-15276214D01*
X9745071Y-15547643D02*
X9759357Y-15561929D01*
X9745071Y-15576214D01*
X9730786Y-15561929D01*
X9745071Y-15547643D01*
X9745071Y-15576214D01*
X9945071Y-15276214D02*
X9973643Y-15276214D01*
X10002214Y-15290500D01*
X10016500Y-15304786D01*
X10030786Y-15333357D01*
X10045071Y-15390500D01*
X10045071Y-15461929D01*
X10030786Y-15519071D01*
X10016500Y-15547643D01*
X10002214Y-15561929D01*
X9973643Y-15576214D01*
X9945071Y-15576214D01*
X9916500Y-15561929D01*
X9902214Y-15547643D01*
X9887928Y-15519071D01*
X9873643Y-15461929D01*
X9873643Y-15390500D01*
X9887928Y-15333357D01*
X9902214Y-15304786D01*
X9916500Y-15290500D01*
X9945071Y-15276214D01*
X10330786Y-15576214D02*
X10159357Y-15576214D01*
X10245071Y-15576214D02*
X10245071Y-15276214D01*
X10216500Y-15319071D01*
X10187928Y-15347643D01*
X10159357Y-15361929D01*
X10587928Y-15276214D02*
X10530786Y-15276214D01*
X10502214Y-15290500D01*
X10487928Y-15304786D01*
X10459357Y-15347643D01*
X10445071Y-15404786D01*
X10445071Y-15519071D01*
X10459357Y-15547643D01*
X10473643Y-15561929D01*
X10502214Y-15576214D01*
X10559357Y-15576214D01*
X10587928Y-15561929D01*
X10602214Y-15547643D01*
X10616500Y-15519071D01*
X10616500Y-15447643D01*
X10602214Y-15419071D01*
X10587928Y-15404786D01*
X10559357Y-15390500D01*
X10502214Y-15390500D01*
X10473643Y-15404786D01*
X10459357Y-15419071D01*
X10445071Y-15447643D01*
X10730786Y-15276214D02*
X10730786Y-15333357D01*
X10845071Y-15276214D02*
X10845071Y-15333357D01*
X11287928Y-15690500D02*
X11273643Y-15676214D01*
X11245071Y-15633357D01*
X11230786Y-15604786D01*
X11216500Y-15561929D01*
X11202214Y-15490500D01*
X11202214Y-15433357D01*
X11216500Y-15361929D01*
X11230786Y-15319071D01*
X11245071Y-15290500D01*
X11273643Y-15247643D01*
X11287928Y-15233357D01*
X11387928Y-15304786D02*
X11402214Y-15290500D01*
X11430786Y-15276214D01*
X11502214Y-15276214D01*
X11530786Y-15290500D01*
X11545071Y-15304786D01*
X11559357Y-15333357D01*
X11559357Y-15361929D01*
X11545071Y-15404786D01*
X11373643Y-15576214D01*
X11559357Y-15576214D01*
X11816500Y-15276214D02*
X11759357Y-15276214D01*
X11730786Y-15290500D01*
X11716500Y-15304786D01*
X11687928Y-15347643D01*
X11673643Y-15404786D01*
X11673643Y-15519071D01*
X11687928Y-15547643D01*
X11702214Y-15561929D01*
X11730786Y-15576214D01*
X11787928Y-15576214D01*
X11816500Y-15561929D01*
X11830786Y-15547643D01*
X11845071Y-15519071D01*
X11845071Y-15447643D01*
X11830786Y-15419071D01*
X11816500Y-15404786D01*
X11787928Y-15390500D01*
X11730786Y-15390500D01*
X11702214Y-15404786D01*
X11687928Y-15419071D01*
X11673643Y-15447643D01*
X11945071Y-15276214D02*
X12130786Y-15276214D01*
X12030786Y-15390500D01*
X12073643Y-15390500D01*
X12102214Y-15404786D01*
X12116500Y-15419071D01*
X12130786Y-15447643D01*
X12130786Y-15519071D01*
X12116500Y-15547643D01*
X12102214Y-15561929D01*
X12073643Y-15576214D01*
X11987928Y-15576214D01*
X11959357Y-15561929D01*
X11945071Y-15547643D01*
X12487928Y-15576214D02*
X12487928Y-15276214D01*
X12616500Y-15576214D02*
X12616500Y-15419071D01*
X12602214Y-15390500D01*
X12573643Y-15376214D01*
X12530786Y-15376214D01*
X12502214Y-15390500D01*
X12487928Y-15404786D01*
X12802214Y-15576214D02*
X12773643Y-15561929D01*
X12759357Y-15547643D01*
X12745071Y-15519071D01*
X12745071Y-15433357D01*
X12759357Y-15404786D01*
X12773643Y-15390500D01*
X12802214Y-15376214D01*
X12845071Y-15376214D01*
X12873643Y-15390500D01*
X12887928Y-15404786D01*
X12902214Y-15433357D01*
X12902214Y-15519071D01*
X12887928Y-15547643D01*
X12873643Y-15561929D01*
X12845071Y-15576214D01*
X12802214Y-15576214D01*
X13073643Y-15576214D02*
X13045071Y-15561929D01*
X13030786Y-15533357D01*
X13030786Y-15276214D01*
X13302214Y-15561929D02*
X13273643Y-15576214D01*
X13216500Y-15576214D01*
X13187928Y-15561929D01*
X13173643Y-15533357D01*
X13173643Y-15419071D01*
X13187928Y-15390500D01*
X13216500Y-15376214D01*
X13273643Y-15376214D01*
X13302214Y-15390500D01*
X13316500Y-15419071D01*
X13316500Y-15447643D01*
X13173643Y-15476214D01*
X13430786Y-15561929D02*
X13459357Y-15576214D01*
X13516500Y-15576214D01*
X13545071Y-15561929D01*
X13559357Y-15533357D01*
X13559357Y-15519071D01*
X13545071Y-15490500D01*
X13516500Y-15476214D01*
X13473643Y-15476214D01*
X13445071Y-15461929D01*
X13430786Y-15433357D01*
X13430786Y-15419071D01*
X13445071Y-15390500D01*
X13473643Y-15376214D01*
X13516500Y-15376214D01*
X13545071Y-15390500D01*
X13659357Y-15690500D02*
X13673643Y-15676214D01*
X13702214Y-15633357D01*
X13716500Y-15604786D01*
X13730786Y-15561929D01*
X13745071Y-15490500D01*
X13745071Y-15433357D01*
X13730786Y-15361929D01*
X13716500Y-15319071D01*
X13702214Y-15290500D01*
X13673643Y-15247643D01*
X13659357Y-15233357D01*
X6601500Y-15836500D02*
G75*
G03*
X6601500Y-15836500I-40000J0D01*
G01*
X6945071Y-15672214D02*
X6973643Y-15672214D01*
X7002214Y-15686500D01*
X7016500Y-15700786D01*
X7030786Y-15729357D01*
X7045071Y-15786500D01*
X7045071Y-15857929D01*
X7030786Y-15915071D01*
X7016500Y-15943643D01*
X7002214Y-15957929D01*
X6973643Y-15972214D01*
X6945071Y-15972214D01*
X6916500Y-15957929D01*
X6902214Y-15943643D01*
X6887928Y-15915071D01*
X6873643Y-15857929D01*
X6873643Y-15786500D01*
X6887928Y-15729357D01*
X6902214Y-15700786D01*
X6916500Y-15686500D01*
X6945071Y-15672214D01*
X7173643Y-15943643D02*
X7187928Y-15957929D01*
X7173643Y-15972214D01*
X7159357Y-15957929D01*
X7173643Y-15943643D01*
X7173643Y-15972214D01*
X7359357Y-15800786D02*
X7330786Y-15786500D01*
X7316500Y-15772214D01*
X7302214Y-15743643D01*
X7302214Y-15729357D01*
X7316500Y-15700786D01*
X7330786Y-15686500D01*
X7359357Y-15672214D01*
X7416500Y-15672214D01*
X7445071Y-15686500D01*
X7459357Y-15700786D01*
X7473643Y-15729357D01*
X7473643Y-15743643D01*
X7459357Y-15772214D01*
X7445071Y-15786500D01*
X7416500Y-15800786D01*
X7359357Y-15800786D01*
X7330786Y-15815071D01*
X7316500Y-15829357D01*
X7302214Y-15857929D01*
X7302214Y-15915071D01*
X7316500Y-15943643D01*
X7330786Y-15957929D01*
X7359357Y-15972214D01*
X7416500Y-15972214D01*
X7445071Y-15957929D01*
X7459357Y-15943643D01*
X7473643Y-15915071D01*
X7473643Y-15857929D01*
X7459357Y-15829357D01*
X7445071Y-15815071D01*
X7416500Y-15800786D01*
X7659357Y-15672214D02*
X7687928Y-15672214D01*
X7716500Y-15686500D01*
X7730786Y-15700786D01*
X7745071Y-15729357D01*
X7759357Y-15786500D01*
X7759357Y-15857929D01*
X7745071Y-15915071D01*
X7730786Y-15943643D01*
X7716500Y-15957929D01*
X7687928Y-15972214D01*
X7659357Y-15972214D01*
X7630786Y-15957929D01*
X7616500Y-15943643D01*
X7602214Y-15915071D01*
X7587928Y-15857929D01*
X7587928Y-15786500D01*
X7602214Y-15729357D01*
X7616500Y-15700786D01*
X7630786Y-15686500D01*
X7659357Y-15672214D01*
X7887928Y-15972214D02*
X7887928Y-15772214D01*
X7887928Y-15800786D02*
X7902214Y-15786500D01*
X7930786Y-15772214D01*
X7973643Y-15772214D01*
X8002214Y-15786500D01*
X8016500Y-15815071D01*
X8016500Y-15972214D01*
X8016500Y-15815071D02*
X8030786Y-15786500D01*
X8059357Y-15772214D01*
X8102214Y-15772214D01*
X8130786Y-15786500D01*
X8145071Y-15815071D01*
X8145071Y-15972214D01*
X8287928Y-15972214D02*
X8287928Y-15772214D01*
X8287928Y-15800786D02*
X8302214Y-15786500D01*
X8330786Y-15772214D01*
X8373643Y-15772214D01*
X8402214Y-15786500D01*
X8416500Y-15815071D01*
X8416500Y-15972214D01*
X8416500Y-15815071D02*
X8430786Y-15786500D01*
X8459357Y-15772214D01*
X8502214Y-15772214D01*
X8530786Y-15786500D01*
X8545071Y-15815071D01*
X8545071Y-15972214D01*
X9130786Y-15657929D02*
X8873643Y-16043643D01*
X9516500Y-15672214D02*
X9545071Y-15672214D01*
X9573643Y-15686500D01*
X9587928Y-15700786D01*
X9602214Y-15729357D01*
X9616500Y-15786500D01*
X9616500Y-15857929D01*
X9602214Y-15915071D01*
X9587928Y-15943643D01*
X9573643Y-15957929D01*
X9545071Y-15972214D01*
X9516500Y-15972214D01*
X9487928Y-15957929D01*
X9473643Y-15943643D01*
X9459357Y-15915071D01*
X9445071Y-15857929D01*
X9445071Y-15786500D01*
X9459357Y-15729357D01*
X9473643Y-15700786D01*
X9487928Y-15686500D01*
X9516500Y-15672214D01*
X9745071Y-15943643D02*
X9759357Y-15957929D01*
X9745071Y-15972214D01*
X9730786Y-15957929D01*
X9745071Y-15943643D01*
X9745071Y-15972214D01*
X9945071Y-15672214D02*
X9973643Y-15672214D01*
X10002214Y-15686500D01*
X10016500Y-15700786D01*
X10030786Y-15729357D01*
X10045071Y-15786500D01*
X10045071Y-15857929D01*
X10030786Y-15915071D01*
X10016500Y-15943643D01*
X10002214Y-15957929D01*
X9973643Y-15972214D01*
X9945071Y-15972214D01*
X9916500Y-15957929D01*
X9902214Y-15943643D01*
X9887928Y-15915071D01*
X9873643Y-15857929D01*
X9873643Y-15786500D01*
X9887928Y-15729357D01*
X9902214Y-15700786D01*
X9916500Y-15686500D01*
X9945071Y-15672214D01*
X10145071Y-15672214D02*
X10330786Y-15672214D01*
X10230786Y-15786500D01*
X10273643Y-15786500D01*
X10302214Y-15800786D01*
X10316500Y-15815071D01*
X10330786Y-15843643D01*
X10330786Y-15915071D01*
X10316500Y-15943643D01*
X10302214Y-15957929D01*
X10273643Y-15972214D01*
X10187928Y-15972214D01*
X10159357Y-15957929D01*
X10145071Y-15943643D01*
X10616500Y-15972214D02*
X10445071Y-15972214D01*
X10530786Y-15972214D02*
X10530786Y-15672214D01*
X10502214Y-15715071D01*
X10473643Y-15743643D01*
X10445071Y-15757929D01*
X10730786Y-15672214D02*
X10730786Y-15729357D01*
X10845071Y-15672214D02*
X10845071Y-15729357D01*
X11287928Y-16086500D02*
X11273643Y-16072214D01*
X11245071Y-16029357D01*
X11230786Y-16000786D01*
X11216500Y-15957929D01*
X11202214Y-15886500D01*
X11202214Y-15829357D01*
X11216500Y-15757929D01*
X11230786Y-15715071D01*
X11245071Y-15686500D01*
X11273643Y-15643643D01*
X11287928Y-15629357D01*
X11559357Y-15972214D02*
X11387928Y-15972214D01*
X11473643Y-15972214D02*
X11473643Y-15672214D01*
X11445071Y-15715071D01*
X11416500Y-15743643D01*
X11387928Y-15757929D01*
X11745071Y-15672214D02*
X11773643Y-15672214D01*
X11802214Y-15686500D01*
X11816500Y-15700786D01*
X11830786Y-15729357D01*
X11845071Y-15786500D01*
X11845071Y-15857929D01*
X11830786Y-15915071D01*
X11816500Y-15943643D01*
X11802214Y-15957929D01*
X11773643Y-15972214D01*
X11745071Y-15972214D01*
X11716500Y-15957929D01*
X11702214Y-15943643D01*
X11687928Y-15915071D01*
X11673643Y-15857929D01*
X11673643Y-15786500D01*
X11687928Y-15729357D01*
X11702214Y-15700786D01*
X11716500Y-15686500D01*
X11745071Y-15672214D01*
X12102214Y-15772214D02*
X12102214Y-15972214D01*
X12030786Y-15657929D02*
X11959357Y-15872214D01*
X12145071Y-15872214D01*
X12487928Y-15972214D02*
X12487928Y-15672214D01*
X12616500Y-15972214D02*
X12616500Y-15815071D01*
X12602214Y-15786500D01*
X12573643Y-15772214D01*
X12530786Y-15772214D01*
X12502214Y-15786500D01*
X12487928Y-15800786D01*
X12802214Y-15972214D02*
X12773643Y-15957929D01*
X12759357Y-15943643D01*
X12745071Y-15915071D01*
X12745071Y-15829357D01*
X12759357Y-15800786D01*
X12773643Y-15786500D01*
X12802214Y-15772214D01*
X12845071Y-15772214D01*
X12873643Y-15786500D01*
X12887928Y-15800786D01*
X12902214Y-15829357D01*
X12902214Y-15915071D01*
X12887928Y-15943643D01*
X12873643Y-15957929D01*
X12845071Y-15972214D01*
X12802214Y-15972214D01*
X13073643Y-15972214D02*
X13045071Y-15957929D01*
X13030786Y-15929357D01*
X13030786Y-15672214D01*
X13302214Y-15957929D02*
X13273643Y-15972214D01*
X13216500Y-15972214D01*
X13187928Y-15957929D01*
X13173643Y-15929357D01*
X13173643Y-15815071D01*
X13187928Y-15786500D01*
X13216500Y-15772214D01*
X13273643Y-15772214D01*
X13302214Y-15786500D01*
X13316500Y-15815071D01*
X13316500Y-15843643D01*
X13173643Y-15872214D01*
X13430786Y-15957929D02*
X13459357Y-15972214D01*
X13516500Y-15972214D01*
X13545071Y-15957929D01*
X13559357Y-15929357D01*
X13559357Y-15915071D01*
X13545071Y-15886500D01*
X13516500Y-15872214D01*
X13473643Y-15872214D01*
X13445071Y-15857929D01*
X13430786Y-15829357D01*
X13430786Y-15815071D01*
X13445071Y-15786500D01*
X13473643Y-15772214D01*
X13516500Y-15772214D01*
X13545071Y-15786500D01*
X13659357Y-16086500D02*
X13673643Y-16072214D01*
X13702214Y-16029357D01*
X13716500Y-16000786D01*
X13730786Y-15957929D01*
X13745071Y-15886500D01*
X13745071Y-15829357D01*
X13730786Y-15757929D01*
X13716500Y-15715071D01*
X13702214Y-15686500D01*
X13673643Y-15643643D01*
X13659357Y-15629357D01*
X6556500Y-16187500D02*
X6556500Y-16277500D01*
X6511500Y-16232500D02*
X6601500Y-16232500D01*
X6945071Y-16068214D02*
X6973643Y-16068214D01*
X7002214Y-16082500D01*
X7016500Y-16096786D01*
X7030786Y-16125357D01*
X7045071Y-16182500D01*
X7045071Y-16253929D01*
X7030786Y-16311071D01*
X7016500Y-16339643D01*
X7002214Y-16353929D01*
X6973643Y-16368214D01*
X6945071Y-16368214D01*
X6916500Y-16353929D01*
X6902214Y-16339643D01*
X6887928Y-16311071D01*
X6873643Y-16253929D01*
X6873643Y-16182500D01*
X6887928Y-16125357D01*
X6902214Y-16096786D01*
X6916500Y-16082500D01*
X6945071Y-16068214D01*
X7173643Y-16339643D02*
X7187928Y-16353929D01*
X7173643Y-16368214D01*
X7159357Y-16353929D01*
X7173643Y-16339643D01*
X7173643Y-16368214D01*
X7330786Y-16368214D02*
X7387928Y-16368214D01*
X7416500Y-16353929D01*
X7430786Y-16339643D01*
X7459357Y-16296786D01*
X7473643Y-16239643D01*
X7473643Y-16125357D01*
X7459357Y-16096786D01*
X7445071Y-16082500D01*
X7416500Y-16068214D01*
X7359357Y-16068214D01*
X7330786Y-16082500D01*
X7316500Y-16096786D01*
X7302214Y-16125357D01*
X7302214Y-16196786D01*
X7316500Y-16225357D01*
X7330786Y-16239643D01*
X7359357Y-16253929D01*
X7416500Y-16253929D01*
X7445071Y-16239643D01*
X7459357Y-16225357D01*
X7473643Y-16196786D01*
X7659357Y-16068214D02*
X7687928Y-16068214D01*
X7716500Y-16082500D01*
X7730786Y-16096786D01*
X7745071Y-16125357D01*
X7759357Y-16182500D01*
X7759357Y-16253929D01*
X7745071Y-16311071D01*
X7730786Y-16339643D01*
X7716500Y-16353929D01*
X7687928Y-16368214D01*
X7659357Y-16368214D01*
X7630786Y-16353929D01*
X7616500Y-16339643D01*
X7602214Y-16311071D01*
X7587928Y-16253929D01*
X7587928Y-16182500D01*
X7602214Y-16125357D01*
X7616500Y-16096786D01*
X7630786Y-16082500D01*
X7659357Y-16068214D01*
X7887928Y-16368214D02*
X7887928Y-16168214D01*
X7887928Y-16196786D02*
X7902214Y-16182500D01*
X7930786Y-16168214D01*
X7973643Y-16168214D01*
X8002214Y-16182500D01*
X8016500Y-16211071D01*
X8016500Y-16368214D01*
X8016500Y-16211071D02*
X8030786Y-16182500D01*
X8059357Y-16168214D01*
X8102214Y-16168214D01*
X8130786Y-16182500D01*
X8145071Y-16211071D01*
X8145071Y-16368214D01*
X8287928Y-16368214D02*
X8287928Y-16168214D01*
X8287928Y-16196786D02*
X8302214Y-16182500D01*
X8330786Y-16168214D01*
X8373643Y-16168214D01*
X8402214Y-16182500D01*
X8416500Y-16211071D01*
X8416500Y-16368214D01*
X8416500Y-16211071D02*
X8430786Y-16182500D01*
X8459357Y-16168214D01*
X8502214Y-16168214D01*
X8530786Y-16182500D01*
X8545071Y-16211071D01*
X8545071Y-16368214D01*
X9130786Y-16053929D02*
X8873643Y-16439643D01*
X9516500Y-16068214D02*
X9545071Y-16068214D01*
X9573643Y-16082500D01*
X9587928Y-16096786D01*
X9602214Y-16125357D01*
X9616500Y-16182500D01*
X9616500Y-16253929D01*
X9602214Y-16311071D01*
X9587928Y-16339643D01*
X9573643Y-16353929D01*
X9545071Y-16368214D01*
X9516500Y-16368214D01*
X9487928Y-16353929D01*
X9473643Y-16339643D01*
X9459357Y-16311071D01*
X9445071Y-16253929D01*
X9445071Y-16182500D01*
X9459357Y-16125357D01*
X9473643Y-16096786D01*
X9487928Y-16082500D01*
X9516500Y-16068214D01*
X9745071Y-16339643D02*
X9759357Y-16353929D01*
X9745071Y-16368214D01*
X9730786Y-16353929D01*
X9745071Y-16339643D01*
X9745071Y-16368214D01*
X9945071Y-16068214D02*
X9973643Y-16068214D01*
X10002214Y-16082500D01*
X10016500Y-16096786D01*
X10030786Y-16125357D01*
X10045071Y-16182500D01*
X10045071Y-16253929D01*
X10030786Y-16311071D01*
X10016500Y-16339643D01*
X10002214Y-16353929D01*
X9973643Y-16368214D01*
X9945071Y-16368214D01*
X9916500Y-16353929D01*
X9902214Y-16339643D01*
X9887928Y-16311071D01*
X9873643Y-16253929D01*
X9873643Y-16182500D01*
X9887928Y-16125357D01*
X9902214Y-16096786D01*
X9916500Y-16082500D01*
X9945071Y-16068214D01*
X10145071Y-16068214D02*
X10330786Y-16068214D01*
X10230786Y-16182500D01*
X10273643Y-16182500D01*
X10302214Y-16196786D01*
X10316500Y-16211071D01*
X10330786Y-16239643D01*
X10330786Y-16311071D01*
X10316500Y-16339643D01*
X10302214Y-16353929D01*
X10273643Y-16368214D01*
X10187928Y-16368214D01*
X10159357Y-16353929D01*
X10145071Y-16339643D01*
X10602214Y-16068214D02*
X10459357Y-16068214D01*
X10445071Y-16211071D01*
X10459357Y-16196786D01*
X10487928Y-16182500D01*
X10559357Y-16182500D01*
X10587928Y-16196786D01*
X10602214Y-16211071D01*
X10616500Y-16239643D01*
X10616500Y-16311071D01*
X10602214Y-16339643D01*
X10587928Y-16353929D01*
X10559357Y-16368214D01*
X10487928Y-16368214D01*
X10459357Y-16353929D01*
X10445071Y-16339643D01*
X10730786Y-16068214D02*
X10730786Y-16125357D01*
X10845071Y-16068214D02*
X10845071Y-16125357D01*
X11287928Y-16482500D02*
X11273643Y-16468214D01*
X11245071Y-16425357D01*
X11230786Y-16396786D01*
X11216500Y-16353929D01*
X11202214Y-16282500D01*
X11202214Y-16225357D01*
X11216500Y-16153929D01*
X11230786Y-16111071D01*
X11245071Y-16082500D01*
X11273643Y-16039643D01*
X11287928Y-16025357D01*
X11559357Y-16368214D02*
X11387928Y-16368214D01*
X11473643Y-16368214D02*
X11473643Y-16068214D01*
X11445071Y-16111071D01*
X11416500Y-16139643D01*
X11387928Y-16153929D01*
X11816500Y-16068214D02*
X11759357Y-16068214D01*
X11730786Y-16082500D01*
X11716500Y-16096786D01*
X11687928Y-16139643D01*
X11673643Y-16196786D01*
X11673643Y-16311071D01*
X11687928Y-16339643D01*
X11702214Y-16353929D01*
X11730786Y-16368214D01*
X11787928Y-16368214D01*
X11816500Y-16353929D01*
X11830786Y-16339643D01*
X11845071Y-16311071D01*
X11845071Y-16239643D01*
X11830786Y-16211071D01*
X11816500Y-16196786D01*
X11787928Y-16182500D01*
X11730786Y-16182500D01*
X11702214Y-16196786D01*
X11687928Y-16211071D01*
X11673643Y-16239643D01*
X12202214Y-16368214D02*
X12202214Y-16068214D01*
X12330786Y-16368214D02*
X12330786Y-16211071D01*
X12316500Y-16182500D01*
X12287928Y-16168214D01*
X12245071Y-16168214D01*
X12216500Y-16182500D01*
X12202214Y-16196786D01*
X12516500Y-16368214D02*
X12487928Y-16353929D01*
X12473643Y-16339643D01*
X12459357Y-16311071D01*
X12459357Y-16225357D01*
X12473643Y-16196786D01*
X12487928Y-16182500D01*
X12516500Y-16168214D01*
X12559357Y-16168214D01*
X12587928Y-16182500D01*
X12602214Y-16196786D01*
X12616500Y-16225357D01*
X12616500Y-16311071D01*
X12602214Y-16339643D01*
X12587928Y-16353929D01*
X12559357Y-16368214D01*
X12516500Y-16368214D01*
X12787928Y-16368214D02*
X12759357Y-16353929D01*
X12745071Y-16325357D01*
X12745071Y-16068214D01*
X13016500Y-16353929D02*
X12987928Y-16368214D01*
X12930786Y-16368214D01*
X12902214Y-16353929D01*
X12887928Y-16325357D01*
X12887928Y-16211071D01*
X12902214Y-16182500D01*
X12930786Y-16168214D01*
X12987928Y-16168214D01*
X13016500Y-16182500D01*
X13030786Y-16211071D01*
X13030786Y-16239643D01*
X12887928Y-16268214D01*
X13145071Y-16353929D02*
X13173643Y-16368214D01*
X13230786Y-16368214D01*
X13259357Y-16353929D01*
X13273643Y-16325357D01*
X13273643Y-16311071D01*
X13259357Y-16282500D01*
X13230786Y-16268214D01*
X13187928Y-16268214D01*
X13159357Y-16253929D01*
X13145071Y-16225357D01*
X13145071Y-16211071D01*
X13159357Y-16182500D01*
X13187928Y-16168214D01*
X13230786Y-16168214D01*
X13259357Y-16182500D01*
X13373643Y-16482500D02*
X13387928Y-16468214D01*
X13416500Y-16425357D01*
X13430786Y-16396786D01*
X13445071Y-16353929D01*
X13459357Y-16282500D01*
X13459357Y-16225357D01*
X13445071Y-16153929D01*
X13430786Y-16111071D01*
X13416500Y-16082500D01*
X13387928Y-16039643D01*
X13373643Y-16025357D01*
X6586856Y-16663856D02*
X6586856Y-16593144D01*
X6516144Y-16593144D01*
X6516144Y-16663856D01*
X6586856Y-16663856D01*
X7045071Y-16764214D02*
X6873643Y-16764214D01*
X6959357Y-16764214D02*
X6959357Y-16464214D01*
X6930786Y-16507071D01*
X6902214Y-16535643D01*
X6873643Y-16549929D01*
X7173643Y-16735643D02*
X7187928Y-16749929D01*
X7173643Y-16764214D01*
X7159357Y-16749929D01*
X7173643Y-16735643D01*
X7173643Y-16764214D01*
X7373643Y-16464214D02*
X7402214Y-16464214D01*
X7430786Y-16478500D01*
X7445071Y-16492786D01*
X7459357Y-16521357D01*
X7473643Y-16578500D01*
X7473643Y-16649929D01*
X7459357Y-16707071D01*
X7445071Y-16735643D01*
X7430786Y-16749929D01*
X7402214Y-16764214D01*
X7373643Y-16764214D01*
X7345071Y-16749929D01*
X7330786Y-16735643D01*
X7316500Y-16707071D01*
X7302214Y-16649929D01*
X7302214Y-16578500D01*
X7316500Y-16521357D01*
X7330786Y-16492786D01*
X7345071Y-16478500D01*
X7373643Y-16464214D01*
X7659357Y-16464214D02*
X7687928Y-16464214D01*
X7716500Y-16478500D01*
X7730786Y-16492786D01*
X7745071Y-16521357D01*
X7759357Y-16578500D01*
X7759357Y-16649929D01*
X7745071Y-16707071D01*
X7730786Y-16735643D01*
X7716500Y-16749929D01*
X7687928Y-16764214D01*
X7659357Y-16764214D01*
X7630786Y-16749929D01*
X7616500Y-16735643D01*
X7602214Y-16707071D01*
X7587928Y-16649929D01*
X7587928Y-16578500D01*
X7602214Y-16521357D01*
X7616500Y-16492786D01*
X7630786Y-16478500D01*
X7659357Y-16464214D01*
X7887928Y-16764214D02*
X7887928Y-16564214D01*
X7887928Y-16592786D02*
X7902214Y-16578500D01*
X7930786Y-16564214D01*
X7973643Y-16564214D01*
X8002214Y-16578500D01*
X8016500Y-16607071D01*
X8016500Y-16764214D01*
X8016500Y-16607071D02*
X8030786Y-16578500D01*
X8059357Y-16564214D01*
X8102214Y-16564214D01*
X8130786Y-16578500D01*
X8145071Y-16607071D01*
X8145071Y-16764214D01*
X8287928Y-16764214D02*
X8287928Y-16564214D01*
X8287928Y-16592786D02*
X8302214Y-16578500D01*
X8330786Y-16564214D01*
X8373643Y-16564214D01*
X8402214Y-16578500D01*
X8416500Y-16607071D01*
X8416500Y-16764214D01*
X8416500Y-16607071D02*
X8430786Y-16578500D01*
X8459357Y-16564214D01*
X8502214Y-16564214D01*
X8530786Y-16578500D01*
X8545071Y-16607071D01*
X8545071Y-16764214D01*
X9130786Y-16449929D02*
X8873643Y-16835643D01*
X9516500Y-16464214D02*
X9545071Y-16464214D01*
X9573643Y-16478500D01*
X9587928Y-16492786D01*
X9602214Y-16521357D01*
X9616500Y-16578500D01*
X9616500Y-16649929D01*
X9602214Y-16707071D01*
X9587928Y-16735643D01*
X9573643Y-16749929D01*
X9545071Y-16764214D01*
X9516500Y-16764214D01*
X9487928Y-16749929D01*
X9473643Y-16735643D01*
X9459357Y-16707071D01*
X9445071Y-16649929D01*
X9445071Y-16578500D01*
X9459357Y-16521357D01*
X9473643Y-16492786D01*
X9487928Y-16478500D01*
X9516500Y-16464214D01*
X9745071Y-16735643D02*
X9759357Y-16749929D01*
X9745071Y-16764214D01*
X9730786Y-16749929D01*
X9745071Y-16735643D01*
X9745071Y-16764214D01*
X9945071Y-16464214D02*
X9973643Y-16464214D01*
X10002214Y-16478500D01*
X10016500Y-16492786D01*
X10030786Y-16521357D01*
X10045071Y-16578500D01*
X10045071Y-16649929D01*
X10030786Y-16707071D01*
X10016500Y-16735643D01*
X10002214Y-16749929D01*
X9973643Y-16764214D01*
X9945071Y-16764214D01*
X9916500Y-16749929D01*
X9902214Y-16735643D01*
X9887928Y-16707071D01*
X9873643Y-16649929D01*
X9873643Y-16578500D01*
X9887928Y-16521357D01*
X9902214Y-16492786D01*
X9916500Y-16478500D01*
X9945071Y-16464214D01*
X10145071Y-16464214D02*
X10330786Y-16464214D01*
X10230786Y-16578500D01*
X10273643Y-16578500D01*
X10302214Y-16592786D01*
X10316500Y-16607071D01*
X10330786Y-16635643D01*
X10330786Y-16707071D01*
X10316500Y-16735643D01*
X10302214Y-16749929D01*
X10273643Y-16764214D01*
X10187928Y-16764214D01*
X10159357Y-16749929D01*
X10145071Y-16735643D01*
X10473643Y-16764214D02*
X10530786Y-16764214D01*
X10559357Y-16749929D01*
X10573643Y-16735643D01*
X10602214Y-16692786D01*
X10616500Y-16635643D01*
X10616500Y-16521357D01*
X10602214Y-16492786D01*
X10587928Y-16478500D01*
X10559357Y-16464214D01*
X10502214Y-16464214D01*
X10473643Y-16478500D01*
X10459357Y-16492786D01*
X10445071Y-16521357D01*
X10445071Y-16592786D01*
X10459357Y-16621357D01*
X10473643Y-16635643D01*
X10502214Y-16649929D01*
X10559357Y-16649929D01*
X10587928Y-16635643D01*
X10602214Y-16621357D01*
X10616500Y-16592786D01*
X10730786Y-16464214D02*
X10730786Y-16521357D01*
X10845071Y-16464214D02*
X10845071Y-16521357D01*
X11287928Y-16878500D02*
X11273643Y-16864214D01*
X11245071Y-16821357D01*
X11230786Y-16792786D01*
X11216500Y-16749929D01*
X11202214Y-16678500D01*
X11202214Y-16621357D01*
X11216500Y-16549929D01*
X11230786Y-16507071D01*
X11245071Y-16478500D01*
X11273643Y-16435643D01*
X11287928Y-16421357D01*
X11545071Y-16464214D02*
X11402214Y-16464214D01*
X11387928Y-16607071D01*
X11402214Y-16592786D01*
X11430786Y-16578500D01*
X11502214Y-16578500D01*
X11530786Y-16592786D01*
X11545071Y-16607071D01*
X11559357Y-16635643D01*
X11559357Y-16707071D01*
X11545071Y-16735643D01*
X11530786Y-16749929D01*
X11502214Y-16764214D01*
X11430786Y-16764214D01*
X11402214Y-16749929D01*
X11387928Y-16735643D01*
X11730786Y-16592786D02*
X11702214Y-16578500D01*
X11687928Y-16564214D01*
X11673643Y-16535643D01*
X11673643Y-16521357D01*
X11687928Y-16492786D01*
X11702214Y-16478500D01*
X11730786Y-16464214D01*
X11787928Y-16464214D01*
X11816500Y-16478500D01*
X11830786Y-16492786D01*
X11845071Y-16521357D01*
X11845071Y-16535643D01*
X11830786Y-16564214D01*
X11816500Y-16578500D01*
X11787928Y-16592786D01*
X11730786Y-16592786D01*
X11702214Y-16607071D01*
X11687928Y-16621357D01*
X11673643Y-16649929D01*
X11673643Y-16707071D01*
X11687928Y-16735643D01*
X11702214Y-16749929D01*
X11730786Y-16764214D01*
X11787928Y-16764214D01*
X11816500Y-16749929D01*
X11830786Y-16735643D01*
X11845071Y-16707071D01*
X11845071Y-16649929D01*
X11830786Y-16621357D01*
X11816500Y-16607071D01*
X11787928Y-16592786D01*
X12202214Y-16764214D02*
X12202214Y-16464214D01*
X12330786Y-16764214D02*
X12330786Y-16607071D01*
X12316500Y-16578500D01*
X12287928Y-16564214D01*
X12245071Y-16564214D01*
X12216500Y-16578500D01*
X12202214Y-16592786D01*
X12516500Y-16764214D02*
X12487928Y-16749929D01*
X12473643Y-16735643D01*
X12459357Y-16707071D01*
X12459357Y-16621357D01*
X12473643Y-16592786D01*
X12487928Y-16578500D01*
X12516500Y-16564214D01*
X12559357Y-16564214D01*
X12587928Y-16578500D01*
X12602214Y-16592786D01*
X12616500Y-16621357D01*
X12616500Y-16707071D01*
X12602214Y-16735643D01*
X12587928Y-16749929D01*
X12559357Y-16764214D01*
X12516500Y-16764214D01*
X12787928Y-16764214D02*
X12759357Y-16749929D01*
X12745071Y-16721357D01*
X12745071Y-16464214D01*
X13016500Y-16749929D02*
X12987928Y-16764214D01*
X12930786Y-16764214D01*
X12902214Y-16749929D01*
X12887928Y-16721357D01*
X12887928Y-16607071D01*
X12902214Y-16578500D01*
X12930786Y-16564214D01*
X12987928Y-16564214D01*
X13016500Y-16578500D01*
X13030786Y-16607071D01*
X13030786Y-16635643D01*
X12887928Y-16664214D01*
X13145071Y-16749929D02*
X13173643Y-16764214D01*
X13230786Y-16764214D01*
X13259357Y-16749929D01*
X13273643Y-16721357D01*
X13273643Y-16707071D01*
X13259357Y-16678500D01*
X13230786Y-16664214D01*
X13187928Y-16664214D01*
X13159357Y-16649929D01*
X13145071Y-16621357D01*
X13145071Y-16607071D01*
X13159357Y-16578500D01*
X13187928Y-16564214D01*
X13230786Y-16564214D01*
X13259357Y-16578500D01*
X13373643Y-16878500D02*
X13387928Y-16864214D01*
X13416500Y-16821357D01*
X13430786Y-16792786D01*
X13445071Y-16749929D01*
X13459357Y-16678500D01*
X13459357Y-16621357D01*
X13445071Y-16549929D01*
X13430786Y-16507071D01*
X13416500Y-16478500D01*
X13387928Y-16435643D01*
X13373643Y-16421357D01*
X6521500Y-17104500D02*
X6601500Y-17024500D01*
X6521500Y-16944500D01*
X6441500Y-17024500D01*
X6521500Y-17104500D01*
X7045071Y-17160214D02*
X6873643Y-17160214D01*
X6959357Y-17160214D02*
X6959357Y-16860214D01*
X6930786Y-16903072D01*
X6902214Y-16931643D01*
X6873643Y-16945929D01*
X7173643Y-17131643D02*
X7187928Y-17145929D01*
X7173643Y-17160214D01*
X7159357Y-17145929D01*
X7173643Y-17131643D01*
X7173643Y-17160214D01*
X7445071Y-16860214D02*
X7387928Y-16860214D01*
X7359357Y-16874500D01*
X7345071Y-16888786D01*
X7316500Y-16931643D01*
X7302214Y-16988786D01*
X7302214Y-17103072D01*
X7316500Y-17131643D01*
X7330786Y-17145929D01*
X7359357Y-17160214D01*
X7416500Y-17160214D01*
X7445071Y-17145929D01*
X7459357Y-17131643D01*
X7473643Y-17103072D01*
X7473643Y-17031643D01*
X7459357Y-17003072D01*
X7445071Y-16988786D01*
X7416500Y-16974500D01*
X7359357Y-16974500D01*
X7330786Y-16988786D01*
X7316500Y-17003072D01*
X7302214Y-17031643D01*
X7659357Y-16860214D02*
X7687928Y-16860214D01*
X7716500Y-16874500D01*
X7730786Y-16888786D01*
X7745071Y-16917357D01*
X7759357Y-16974500D01*
X7759357Y-17045929D01*
X7745071Y-17103072D01*
X7730786Y-17131643D01*
X7716500Y-17145929D01*
X7687928Y-17160214D01*
X7659357Y-17160214D01*
X7630786Y-17145929D01*
X7616500Y-17131643D01*
X7602214Y-17103072D01*
X7587928Y-17045929D01*
X7587928Y-16974500D01*
X7602214Y-16917357D01*
X7616500Y-16888786D01*
X7630786Y-16874500D01*
X7659357Y-16860214D01*
X7887928Y-17160214D02*
X7887928Y-16960214D01*
X7887928Y-16988786D02*
X7902214Y-16974500D01*
X7930786Y-16960214D01*
X7973643Y-16960214D01*
X8002214Y-16974500D01*
X8016500Y-17003072D01*
X8016500Y-17160214D01*
X8016500Y-17003072D02*
X8030786Y-16974500D01*
X8059357Y-16960214D01*
X8102214Y-16960214D01*
X8130786Y-16974500D01*
X8145071Y-17003072D01*
X8145071Y-17160214D01*
X8287928Y-17160214D02*
X8287928Y-16960214D01*
X8287928Y-16988786D02*
X8302214Y-16974500D01*
X8330786Y-16960214D01*
X8373643Y-16960214D01*
X8402214Y-16974500D01*
X8416500Y-17003072D01*
X8416500Y-17160214D01*
X8416500Y-17003072D02*
X8430786Y-16974500D01*
X8459357Y-16960214D01*
X8502214Y-16960214D01*
X8530786Y-16974500D01*
X8545071Y-17003072D01*
X8545071Y-17160214D01*
X9130786Y-16845929D02*
X8873643Y-17231643D01*
X9516500Y-16860214D02*
X9545071Y-16860214D01*
X9573643Y-16874500D01*
X9587928Y-16888786D01*
X9602214Y-16917357D01*
X9616500Y-16974500D01*
X9616500Y-17045929D01*
X9602214Y-17103072D01*
X9587928Y-17131643D01*
X9573643Y-17145929D01*
X9545071Y-17160214D01*
X9516500Y-17160214D01*
X9487928Y-17145929D01*
X9473643Y-17131643D01*
X9459357Y-17103072D01*
X9445071Y-17045929D01*
X9445071Y-16974500D01*
X9459357Y-16917357D01*
X9473643Y-16888786D01*
X9487928Y-16874500D01*
X9516500Y-16860214D01*
X9745071Y-17131643D02*
X9759357Y-17145929D01*
X9745071Y-17160214D01*
X9730786Y-17145929D01*
X9745071Y-17131643D01*
X9745071Y-17160214D01*
X9945071Y-16860214D02*
X9973643Y-16860214D01*
X10002214Y-16874500D01*
X10016500Y-16888786D01*
X10030786Y-16917357D01*
X10045071Y-16974500D01*
X10045071Y-17045929D01*
X10030786Y-17103072D01*
X10016500Y-17131643D01*
X10002214Y-17145929D01*
X9973643Y-17160214D01*
X9945071Y-17160214D01*
X9916500Y-17145929D01*
X9902214Y-17131643D01*
X9887928Y-17103072D01*
X9873643Y-17045929D01*
X9873643Y-16974500D01*
X9887928Y-16917357D01*
X9902214Y-16888786D01*
X9916500Y-16874500D01*
X9945071Y-16860214D01*
X10302214Y-16860214D02*
X10245071Y-16860214D01*
X10216500Y-16874500D01*
X10202214Y-16888786D01*
X10173643Y-16931643D01*
X10159357Y-16988786D01*
X10159357Y-17103072D01*
X10173643Y-17131643D01*
X10187928Y-17145929D01*
X10216500Y-17160214D01*
X10273643Y-17160214D01*
X10302214Y-17145929D01*
X10316500Y-17131643D01*
X10330786Y-17103072D01*
X10330786Y-17031643D01*
X10316500Y-17003072D01*
X10302214Y-16988786D01*
X10273643Y-16974500D01*
X10216500Y-16974500D01*
X10187928Y-16988786D01*
X10173643Y-17003072D01*
X10159357Y-17031643D01*
X10430786Y-16860214D02*
X10616500Y-16860214D01*
X10516500Y-16974500D01*
X10559357Y-16974500D01*
X10587928Y-16988786D01*
X10602214Y-17003072D01*
X10616500Y-17031643D01*
X10616500Y-17103072D01*
X10602214Y-17131643D01*
X10587928Y-17145929D01*
X10559357Y-17160214D01*
X10473643Y-17160214D01*
X10445071Y-17145929D01*
X10430786Y-17131643D01*
X10730786Y-16860214D02*
X10730786Y-16917357D01*
X10845071Y-16860214D02*
X10845071Y-16917357D01*
X11287928Y-17274500D02*
X11273643Y-17260214D01*
X11245071Y-17217357D01*
X11230786Y-17188786D01*
X11216500Y-17145929D01*
X11202214Y-17074500D01*
X11202214Y-17017357D01*
X11216500Y-16945929D01*
X11230786Y-16903072D01*
X11245071Y-16874500D01*
X11273643Y-16831643D01*
X11287928Y-16817357D01*
X11373643Y-16860214D02*
X11559357Y-16860214D01*
X11459357Y-16974500D01*
X11502214Y-16974500D01*
X11530786Y-16988786D01*
X11545071Y-17003072D01*
X11559357Y-17031643D01*
X11559357Y-17103072D01*
X11545071Y-17131643D01*
X11530786Y-17145929D01*
X11502214Y-17160214D01*
X11416500Y-17160214D01*
X11387928Y-17145929D01*
X11373643Y-17131643D01*
X11816500Y-16860214D02*
X11759357Y-16860214D01*
X11730786Y-16874500D01*
X11716500Y-16888786D01*
X11687928Y-16931643D01*
X11673643Y-16988786D01*
X11673643Y-17103072D01*
X11687928Y-17131643D01*
X11702214Y-17145929D01*
X11730786Y-17160214D01*
X11787928Y-17160214D01*
X11816500Y-17145929D01*
X11830786Y-17131643D01*
X11845071Y-17103072D01*
X11845071Y-17031643D01*
X11830786Y-17003072D01*
X11816500Y-16988786D01*
X11787928Y-16974500D01*
X11730786Y-16974500D01*
X11702214Y-16988786D01*
X11687928Y-17003072D01*
X11673643Y-17031643D01*
X12202214Y-17160214D02*
X12202214Y-16860214D01*
X12330786Y-17160214D02*
X12330786Y-17003072D01*
X12316500Y-16974500D01*
X12287928Y-16960214D01*
X12245071Y-16960214D01*
X12216500Y-16974500D01*
X12202214Y-16988786D01*
X12516500Y-17160214D02*
X12487928Y-17145929D01*
X12473643Y-17131643D01*
X12459357Y-17103072D01*
X12459357Y-17017357D01*
X12473643Y-16988786D01*
X12487928Y-16974500D01*
X12516500Y-16960214D01*
X12559357Y-16960214D01*
X12587928Y-16974500D01*
X12602214Y-16988786D01*
X12616500Y-17017357D01*
X12616500Y-17103072D01*
X12602214Y-17131643D01*
X12587928Y-17145929D01*
X12559357Y-17160214D01*
X12516500Y-17160214D01*
X12787928Y-17160214D02*
X12759357Y-17145929D01*
X12745071Y-17117357D01*
X12745071Y-16860214D01*
X13016500Y-17145929D02*
X12987928Y-17160214D01*
X12930786Y-17160214D01*
X12902214Y-17145929D01*
X12887928Y-17117357D01*
X12887928Y-17003072D01*
X12902214Y-16974500D01*
X12930786Y-16960214D01*
X12987928Y-16960214D01*
X13016500Y-16974500D01*
X13030786Y-17003072D01*
X13030786Y-17031643D01*
X12887928Y-17060214D01*
X13145071Y-17145929D02*
X13173643Y-17160214D01*
X13230786Y-17160214D01*
X13259357Y-17145929D01*
X13273643Y-17117357D01*
X13273643Y-17103072D01*
X13259357Y-17074500D01*
X13230786Y-17060214D01*
X13187928Y-17060214D01*
X13159357Y-17045929D01*
X13145071Y-17017357D01*
X13145071Y-17003072D01*
X13159357Y-16974500D01*
X13187928Y-16960214D01*
X13230786Y-16960214D01*
X13259357Y-16974500D01*
X13373643Y-17274500D02*
X13387928Y-17260214D01*
X13416500Y-17217357D01*
X13430786Y-17188786D01*
X13445071Y-17145929D01*
X13459357Y-17074500D01*
X13459357Y-17017357D01*
X13445071Y-16945929D01*
X13430786Y-16903072D01*
X13416500Y-16874500D01*
X13387928Y-16831643D01*
X13373643Y-16817357D01*
X6421500Y-17330500D02*
X6601500Y-17510500D01*
X6601500Y-17330500D02*
X6421500Y-17510500D01*
X6601500Y-17420500D02*
G75*
G03*
X6601500Y-17420500I-90000J0D01*
G01*
X7045071Y-17556214D02*
X6873643Y-17556214D01*
X6959357Y-17556214D02*
X6959357Y-17256214D01*
X6930786Y-17299072D01*
X6902214Y-17327643D01*
X6873643Y-17341929D01*
X7173643Y-17527643D02*
X7187928Y-17541929D01*
X7173643Y-17556214D01*
X7159357Y-17541929D01*
X7173643Y-17527643D01*
X7173643Y-17556214D01*
X7359357Y-17384786D02*
X7330786Y-17370500D01*
X7316500Y-17356214D01*
X7302214Y-17327643D01*
X7302214Y-17313357D01*
X7316500Y-17284786D01*
X7330786Y-17270500D01*
X7359357Y-17256214D01*
X7416500Y-17256214D01*
X7445071Y-17270500D01*
X7459357Y-17284786D01*
X7473643Y-17313357D01*
X7473643Y-17327643D01*
X7459357Y-17356214D01*
X7445071Y-17370500D01*
X7416500Y-17384786D01*
X7359357Y-17384786D01*
X7330786Y-17399072D01*
X7316500Y-17413357D01*
X7302214Y-17441929D01*
X7302214Y-17499072D01*
X7316500Y-17527643D01*
X7330786Y-17541929D01*
X7359357Y-17556214D01*
X7416500Y-17556214D01*
X7445071Y-17541929D01*
X7459357Y-17527643D01*
X7473643Y-17499072D01*
X7473643Y-17441929D01*
X7459357Y-17413357D01*
X7445071Y-17399072D01*
X7416500Y-17384786D01*
X7659357Y-17256214D02*
X7687928Y-17256214D01*
X7716500Y-17270500D01*
X7730786Y-17284786D01*
X7745071Y-17313357D01*
X7759357Y-17370500D01*
X7759357Y-17441929D01*
X7745071Y-17499072D01*
X7730786Y-17527643D01*
X7716500Y-17541929D01*
X7687928Y-17556214D01*
X7659357Y-17556214D01*
X7630786Y-17541929D01*
X7616500Y-17527643D01*
X7602214Y-17499072D01*
X7587928Y-17441929D01*
X7587928Y-17370500D01*
X7602214Y-17313357D01*
X7616500Y-17284786D01*
X7630786Y-17270500D01*
X7659357Y-17256214D01*
X7887928Y-17556214D02*
X7887928Y-17356214D01*
X7887928Y-17384786D02*
X7902214Y-17370500D01*
X7930786Y-17356214D01*
X7973643Y-17356214D01*
X8002214Y-17370500D01*
X8016500Y-17399072D01*
X8016500Y-17556214D01*
X8016500Y-17399072D02*
X8030786Y-17370500D01*
X8059357Y-17356214D01*
X8102214Y-17356214D01*
X8130786Y-17370500D01*
X8145071Y-17399072D01*
X8145071Y-17556214D01*
X8287928Y-17556214D02*
X8287928Y-17356214D01*
X8287928Y-17384786D02*
X8302214Y-17370500D01*
X8330786Y-17356214D01*
X8373643Y-17356214D01*
X8402214Y-17370500D01*
X8416500Y-17399072D01*
X8416500Y-17556214D01*
X8416500Y-17399072D02*
X8430786Y-17370500D01*
X8459357Y-17356214D01*
X8502214Y-17356214D01*
X8530786Y-17370500D01*
X8545071Y-17399072D01*
X8545071Y-17556214D01*
X9130786Y-17241929D02*
X8873643Y-17627643D01*
X9516500Y-17256214D02*
X9545071Y-17256214D01*
X9573643Y-17270500D01*
X9587928Y-17284786D01*
X9602214Y-17313357D01*
X9616500Y-17370500D01*
X9616500Y-17441929D01*
X9602214Y-17499072D01*
X9587928Y-17527643D01*
X9573643Y-17541929D01*
X9545071Y-17556214D01*
X9516500Y-17556214D01*
X9487928Y-17541929D01*
X9473643Y-17527643D01*
X9459357Y-17499072D01*
X9445071Y-17441929D01*
X9445071Y-17370500D01*
X9459357Y-17313357D01*
X9473643Y-17284786D01*
X9487928Y-17270500D01*
X9516500Y-17256214D01*
X9745071Y-17527643D02*
X9759357Y-17541929D01*
X9745071Y-17556214D01*
X9730786Y-17541929D01*
X9745071Y-17527643D01*
X9745071Y-17556214D01*
X9945071Y-17256214D02*
X9973643Y-17256214D01*
X10002214Y-17270500D01*
X10016500Y-17284786D01*
X10030786Y-17313357D01*
X10045071Y-17370500D01*
X10045071Y-17441929D01*
X10030786Y-17499072D01*
X10016500Y-17527643D01*
X10002214Y-17541929D01*
X9973643Y-17556214D01*
X9945071Y-17556214D01*
X9916500Y-17541929D01*
X9902214Y-17527643D01*
X9887928Y-17499072D01*
X9873643Y-17441929D01*
X9873643Y-17370500D01*
X9887928Y-17313357D01*
X9902214Y-17284786D01*
X9916500Y-17270500D01*
X9945071Y-17256214D01*
X10145071Y-17256214D02*
X10345071Y-17256214D01*
X10216500Y-17556214D01*
X10616500Y-17556214D02*
X10445071Y-17556214D01*
X10530786Y-17556214D02*
X10530786Y-17256214D01*
X10502214Y-17299072D01*
X10473643Y-17327643D01*
X10445071Y-17341929D01*
X10730786Y-17256214D02*
X10730786Y-17313357D01*
X10845071Y-17256214D02*
X10845071Y-17313357D01*
X11287928Y-17670500D02*
X11273643Y-17656214D01*
X11245071Y-17613357D01*
X11230786Y-17584786D01*
X11216500Y-17541929D01*
X11202214Y-17470500D01*
X11202214Y-17413357D01*
X11216500Y-17341929D01*
X11230786Y-17299072D01*
X11245071Y-17270500D01*
X11273643Y-17227643D01*
X11287928Y-17213357D01*
X11373643Y-17256214D02*
X11559357Y-17256214D01*
X11459357Y-17370500D01*
X11502214Y-17370500D01*
X11530786Y-17384786D01*
X11545071Y-17399072D01*
X11559357Y-17427643D01*
X11559357Y-17499072D01*
X11545071Y-17527643D01*
X11530786Y-17541929D01*
X11502214Y-17556214D01*
X11416500Y-17556214D01*
X11387928Y-17541929D01*
X11373643Y-17527643D01*
X11673643Y-17284786D02*
X11687928Y-17270500D01*
X11716500Y-17256214D01*
X11787928Y-17256214D01*
X11816500Y-17270500D01*
X11830786Y-17284786D01*
X11845071Y-17313357D01*
X11845071Y-17341929D01*
X11830786Y-17384786D01*
X11659357Y-17556214D01*
X11845071Y-17556214D01*
X12202214Y-17556214D02*
X12202214Y-17256214D01*
X12330786Y-17556214D02*
X12330786Y-17399072D01*
X12316500Y-17370500D01*
X12287928Y-17356214D01*
X12245071Y-17356214D01*
X12216500Y-17370500D01*
X12202214Y-17384786D01*
X12516500Y-17556214D02*
X12487928Y-17541929D01*
X12473643Y-17527643D01*
X12459357Y-17499072D01*
X12459357Y-17413357D01*
X12473643Y-17384786D01*
X12487928Y-17370500D01*
X12516500Y-17356214D01*
X12559357Y-17356214D01*
X12587928Y-17370500D01*
X12602214Y-17384786D01*
X12616500Y-17413357D01*
X12616500Y-17499072D01*
X12602214Y-17527643D01*
X12587928Y-17541929D01*
X12559357Y-17556214D01*
X12516500Y-17556214D01*
X12787928Y-17556214D02*
X12759357Y-17541929D01*
X12745071Y-17513357D01*
X12745071Y-17256214D01*
X13016500Y-17541929D02*
X12987928Y-17556214D01*
X12930786Y-17556214D01*
X12902214Y-17541929D01*
X12887928Y-17513357D01*
X12887928Y-17399072D01*
X12902214Y-17370500D01*
X12930786Y-17356214D01*
X12987928Y-17356214D01*
X13016500Y-17370500D01*
X13030786Y-17399072D01*
X13030786Y-17427643D01*
X12887928Y-17456214D01*
X13145071Y-17541929D02*
X13173643Y-17556214D01*
X13230786Y-17556214D01*
X13259357Y-17541929D01*
X13273643Y-17513357D01*
X13273643Y-17499072D01*
X13259357Y-17470500D01*
X13230786Y-17456214D01*
X13187928Y-17456214D01*
X13159357Y-17441929D01*
X13145071Y-17413357D01*
X13145071Y-17399072D01*
X13159357Y-17370500D01*
X13187928Y-17356214D01*
X13230786Y-17356214D01*
X13259357Y-17370500D01*
X13373643Y-17670500D02*
X13387928Y-17656214D01*
X13416500Y-17613357D01*
X13430786Y-17584786D01*
X13445071Y-17541929D01*
X13459357Y-17470500D01*
X13459357Y-17413357D01*
X13445071Y-17341929D01*
X13430786Y-17299072D01*
X13416500Y-17270500D01*
X13387928Y-17227643D01*
X13373643Y-17213357D01*
X6416500Y-17724000D02*
X6601500Y-17909000D01*
X6601500Y-17724000D02*
X6416500Y-17909000D01*
X6509000Y-17724000D02*
X6509000Y-17909000D01*
X6416500Y-17816500D02*
X6601500Y-17816500D01*
X7045071Y-17952214D02*
X6873643Y-17952214D01*
X6959357Y-17952214D02*
X6959357Y-17652214D01*
X6930786Y-17695072D01*
X6902214Y-17723643D01*
X6873643Y-17737929D01*
X7173643Y-17923643D02*
X7187928Y-17937929D01*
X7173643Y-17952214D01*
X7159357Y-17937929D01*
X7173643Y-17923643D01*
X7173643Y-17952214D01*
X7359357Y-17780786D02*
X7330786Y-17766500D01*
X7316500Y-17752214D01*
X7302214Y-17723643D01*
X7302214Y-17709357D01*
X7316500Y-17680786D01*
X7330786Y-17666500D01*
X7359357Y-17652214D01*
X7416500Y-17652214D01*
X7445071Y-17666500D01*
X7459357Y-17680786D01*
X7473643Y-17709357D01*
X7473643Y-17723643D01*
X7459357Y-17752214D01*
X7445071Y-17766500D01*
X7416500Y-17780786D01*
X7359357Y-17780786D01*
X7330786Y-17795072D01*
X7316500Y-17809357D01*
X7302214Y-17837929D01*
X7302214Y-17895072D01*
X7316500Y-17923643D01*
X7330786Y-17937929D01*
X7359357Y-17952214D01*
X7416500Y-17952214D01*
X7445071Y-17937929D01*
X7459357Y-17923643D01*
X7473643Y-17895072D01*
X7473643Y-17837929D01*
X7459357Y-17809357D01*
X7445071Y-17795072D01*
X7416500Y-17780786D01*
X7745071Y-17652214D02*
X7602214Y-17652214D01*
X7587928Y-17795072D01*
X7602214Y-17780786D01*
X7630786Y-17766500D01*
X7702214Y-17766500D01*
X7730786Y-17780786D01*
X7745071Y-17795072D01*
X7759357Y-17823643D01*
X7759357Y-17895072D01*
X7745071Y-17923643D01*
X7730786Y-17937929D01*
X7702214Y-17952214D01*
X7630786Y-17952214D01*
X7602214Y-17937929D01*
X7587928Y-17923643D01*
X7887928Y-17952214D02*
X7887928Y-17752214D01*
X7887928Y-17780786D02*
X7902214Y-17766500D01*
X7930786Y-17752214D01*
X7973643Y-17752214D01*
X8002214Y-17766500D01*
X8016500Y-17795072D01*
X8016500Y-17952214D01*
X8016500Y-17795072D02*
X8030786Y-17766500D01*
X8059357Y-17752214D01*
X8102214Y-17752214D01*
X8130786Y-17766500D01*
X8145071Y-17795072D01*
X8145071Y-17952214D01*
X8287928Y-17952214D02*
X8287928Y-17752214D01*
X8287928Y-17780786D02*
X8302214Y-17766500D01*
X8330786Y-17752214D01*
X8373643Y-17752214D01*
X8402214Y-17766500D01*
X8416500Y-17795072D01*
X8416500Y-17952214D01*
X8416500Y-17795072D02*
X8430786Y-17766500D01*
X8459357Y-17752214D01*
X8502214Y-17752214D01*
X8530786Y-17766500D01*
X8545071Y-17795072D01*
X8545071Y-17952214D01*
X9130786Y-17637929D02*
X8873643Y-18023643D01*
X9516500Y-17652214D02*
X9545071Y-17652214D01*
X9573643Y-17666500D01*
X9587928Y-17680786D01*
X9602214Y-17709357D01*
X9616500Y-17766500D01*
X9616500Y-17837929D01*
X9602214Y-17895072D01*
X9587928Y-17923643D01*
X9573643Y-17937929D01*
X9545071Y-17952214D01*
X9516500Y-17952214D01*
X9487928Y-17937929D01*
X9473643Y-17923643D01*
X9459357Y-17895072D01*
X9445071Y-17837929D01*
X9445071Y-17766500D01*
X9459357Y-17709357D01*
X9473643Y-17680786D01*
X9487928Y-17666500D01*
X9516500Y-17652214D01*
X9745071Y-17923643D02*
X9759357Y-17937929D01*
X9745071Y-17952214D01*
X9730786Y-17937929D01*
X9745071Y-17923643D01*
X9745071Y-17952214D01*
X9945071Y-17652214D02*
X9973643Y-17652214D01*
X10002214Y-17666500D01*
X10016500Y-17680786D01*
X10030786Y-17709357D01*
X10045071Y-17766500D01*
X10045071Y-17837929D01*
X10030786Y-17895072D01*
X10016500Y-17923643D01*
X10002214Y-17937929D01*
X9973643Y-17952214D01*
X9945071Y-17952214D01*
X9916500Y-17937929D01*
X9902214Y-17923643D01*
X9887928Y-17895072D01*
X9873643Y-17837929D01*
X9873643Y-17766500D01*
X9887928Y-17709357D01*
X9902214Y-17680786D01*
X9916500Y-17666500D01*
X9945071Y-17652214D01*
X10145071Y-17652214D02*
X10345071Y-17652214D01*
X10216500Y-17952214D01*
X10430786Y-17652214D02*
X10616500Y-17652214D01*
X10516500Y-17766500D01*
X10559357Y-17766500D01*
X10587928Y-17780786D01*
X10602214Y-17795072D01*
X10616500Y-17823643D01*
X10616500Y-17895072D01*
X10602214Y-17923643D01*
X10587928Y-17937929D01*
X10559357Y-17952214D01*
X10473643Y-17952214D01*
X10445071Y-17937929D01*
X10430786Y-17923643D01*
X10730786Y-17652214D02*
X10730786Y-17709357D01*
X10845071Y-17652214D02*
X10845071Y-17709357D01*
X11287928Y-18066500D02*
X11273643Y-18052214D01*
X11245071Y-18009357D01*
X11230786Y-17980786D01*
X11216500Y-17937929D01*
X11202214Y-17866500D01*
X11202214Y-17809357D01*
X11216500Y-17737929D01*
X11230786Y-17695072D01*
X11245071Y-17666500D01*
X11273643Y-17623643D01*
X11287928Y-17609357D01*
X11559357Y-17952214D02*
X11387928Y-17952214D01*
X11473643Y-17952214D02*
X11473643Y-17652214D01*
X11445071Y-17695072D01*
X11416500Y-17723643D01*
X11387928Y-17737929D01*
X11673643Y-17680786D02*
X11687928Y-17666500D01*
X11716500Y-17652214D01*
X11787928Y-17652214D01*
X11816500Y-17666500D01*
X11830786Y-17680786D01*
X11845071Y-17709357D01*
X11845071Y-17737929D01*
X11830786Y-17780786D01*
X11659357Y-17952214D01*
X11845071Y-17952214D01*
X12202214Y-17952214D02*
X12202214Y-17652214D01*
X12330786Y-17952214D02*
X12330786Y-17795072D01*
X12316500Y-17766500D01*
X12287928Y-17752214D01*
X12245071Y-17752214D01*
X12216500Y-17766500D01*
X12202214Y-17780786D01*
X12516500Y-17952214D02*
X12487928Y-17937929D01*
X12473643Y-17923643D01*
X12459357Y-17895072D01*
X12459357Y-17809357D01*
X12473643Y-17780786D01*
X12487928Y-17766500D01*
X12516500Y-17752214D01*
X12559357Y-17752214D01*
X12587928Y-17766500D01*
X12602214Y-17780786D01*
X12616500Y-17809357D01*
X12616500Y-17895072D01*
X12602214Y-17923643D01*
X12587928Y-17937929D01*
X12559357Y-17952214D01*
X12516500Y-17952214D01*
X12787928Y-17952214D02*
X12759357Y-17937929D01*
X12745071Y-17909357D01*
X12745071Y-17652214D01*
X13016500Y-17937929D02*
X12987928Y-17952214D01*
X12930786Y-17952214D01*
X12902214Y-17937929D01*
X12887928Y-17909357D01*
X12887928Y-17795072D01*
X12902214Y-17766500D01*
X12930786Y-17752214D01*
X12987928Y-17752214D01*
X13016500Y-17766500D01*
X13030786Y-17795072D01*
X13030786Y-17823643D01*
X12887928Y-17852214D01*
X13145071Y-17937929D02*
X13173643Y-17952214D01*
X13230786Y-17952214D01*
X13259357Y-17937929D01*
X13273643Y-17909357D01*
X13273643Y-17895072D01*
X13259357Y-17866500D01*
X13230786Y-17852214D01*
X13187928Y-17852214D01*
X13159357Y-17837929D01*
X13145071Y-17809357D01*
X13145071Y-17795072D01*
X13159357Y-17766500D01*
X13187928Y-17752214D01*
X13230786Y-17752214D01*
X13259357Y-17766500D01*
X13373643Y-18066500D02*
X13387928Y-18052214D01*
X13416500Y-18009357D01*
X13430786Y-17980786D01*
X13445071Y-17937929D01*
X13459357Y-17866500D01*
X13459357Y-17809357D01*
X13445071Y-17737929D01*
X13430786Y-17695072D01*
X13416500Y-17666500D01*
X13387928Y-17623643D01*
X13373643Y-17609357D01*
M02*
