G04 #@! TF.GenerationSoftware,KiCad,Pcbnew,(5.1.6-0-10_14)*
G04 #@! TF.CreationDate,2022-01-26T11:03:14+00:00*
G04 #@! TF.ProjectId,Quad Tube VCA,51756164-2054-4756-9265-205643412e6b,rev?*
G04 #@! TF.SameCoordinates,Original*
G04 #@! TF.FileFunction,Legend,Top*
G04 #@! TF.FilePolarity,Positive*
%FSLAX46Y46*%
G04 Gerber Fmt 4.6, Leading zero omitted, Abs format (unit mm)*
G04 Created by KiCad (PCBNEW (5.1.6-0-10_14)) date 2022-01-26 11:03:14*
%MOMM*%
%LPD*%
G01*
G04 APERTURE LIST*
%ADD10C,0.150000*%
%ADD11C,0.127000*%
%ADD12C,0.200000*%
%ADD13C,0.120000*%
%ADD14C,2.875000*%
%ADD15R,2.875000X2.875000*%
%ADD16C,1.700000*%
%ADD17R,1.700000X1.700000*%
%ADD18C,1.900000*%
%ADD19R,1.900000X1.900000*%
%ADD20C,2.100000*%
%ADD21C,1.400000*%
%ADD22C,1.540000*%
%ADD23O,1.800000X1.800000*%
%ADD24R,1.800000X1.800000*%
G04 APERTURE END LIST*
D10*
X208641428Y-71572380D02*
X208070000Y-71572380D01*
X208355714Y-71572380D02*
X208355714Y-70572380D01*
X208260476Y-70715238D01*
X208165238Y-70810476D01*
X208070000Y-70858095D01*
X209450952Y-71000952D02*
X209022380Y-71572380D01*
X209593809Y-71572380D02*
X209593809Y-70572380D01*
X209593809Y-71143809D02*
X209022380Y-70572380D01*
X210165238Y-71572380D02*
X209736666Y-71000952D01*
X210165238Y-70572380D02*
X209593809Y-71143809D01*
X210546190Y-70667619D02*
X210593809Y-70620000D01*
X210689047Y-70572380D01*
X210927142Y-70572380D01*
X211022380Y-70620000D01*
X211070000Y-70667619D01*
X211117619Y-70762857D01*
X211117619Y-70858095D01*
X211070000Y-71000952D01*
X210498571Y-71572380D01*
X211117619Y-71572380D01*
X211974761Y-70905714D02*
X211974761Y-71572380D01*
X211736666Y-70524761D02*
X211498571Y-71239047D01*
X212117619Y-71239047D01*
X212974761Y-70572380D02*
X212498571Y-70572380D01*
X212498571Y-71572380D01*
X212784285Y-71572380D01*
X212927142Y-71524761D01*
X213022380Y-71429523D01*
X213070000Y-71334285D01*
X213070000Y-71191428D01*
X213022380Y-71096190D01*
X212927142Y-71000952D01*
X212784285Y-70953333D01*
X212498571Y-70953333D01*
X166571428Y-71552380D02*
X166000000Y-71552380D01*
X166285714Y-71552380D02*
X166285714Y-70552380D01*
X166190476Y-70695238D01*
X166095238Y-70790476D01*
X166000000Y-70838095D01*
X167380952Y-70980952D02*
X166952380Y-71552380D01*
X167523809Y-71552380D02*
X167523809Y-70552380D01*
X167523809Y-71123809D02*
X166952380Y-70552380D01*
X168095238Y-71552380D02*
X167666666Y-70980952D01*
X168095238Y-70552380D02*
X167523809Y-71123809D01*
X168476190Y-70647619D02*
X168523809Y-70600000D01*
X168619047Y-70552380D01*
X168857142Y-70552380D01*
X168952380Y-70600000D01*
X169000000Y-70647619D01*
X169047619Y-70742857D01*
X169047619Y-70838095D01*
X169000000Y-70980952D01*
X168428571Y-71552380D01*
X169047619Y-71552380D01*
X169904761Y-70885714D02*
X169904761Y-71552380D01*
X169666666Y-70504761D02*
X169428571Y-71219047D01*
X170047619Y-71219047D01*
X170904761Y-70552380D02*
X170428571Y-70552380D01*
X170428571Y-71552380D01*
X170714285Y-71552380D01*
X170857142Y-71504761D01*
X170952380Y-71409523D01*
X171000000Y-71314285D01*
X171000000Y-71171428D01*
X170952380Y-71076190D01*
X170857142Y-70980952D01*
X170714285Y-70933333D01*
X170428571Y-70933333D01*
X124161428Y-71562380D02*
X123590000Y-71562380D01*
X123875714Y-71562380D02*
X123875714Y-70562380D01*
X123780476Y-70705238D01*
X123685238Y-70800476D01*
X123590000Y-70848095D01*
X124970952Y-70990952D02*
X124542380Y-71562380D01*
X125113809Y-71562380D02*
X125113809Y-70562380D01*
X125113809Y-71133809D02*
X124542380Y-70562380D01*
X125685238Y-71562380D02*
X125256666Y-70990952D01*
X125685238Y-70562380D02*
X125113809Y-71133809D01*
X126066190Y-70657619D02*
X126113809Y-70610000D01*
X126209047Y-70562380D01*
X126447142Y-70562380D01*
X126542380Y-70610000D01*
X126590000Y-70657619D01*
X126637619Y-70752857D01*
X126637619Y-70848095D01*
X126590000Y-70990952D01*
X126018571Y-71562380D01*
X126637619Y-71562380D01*
X127494761Y-70895714D02*
X127494761Y-71562380D01*
X127256666Y-70514761D02*
X127018571Y-71229047D01*
X127637619Y-71229047D01*
X128494761Y-70562380D02*
X128018571Y-70562380D01*
X128018571Y-71562380D01*
X128304285Y-71562380D01*
X128447142Y-71514761D01*
X128542380Y-71419523D01*
X128590000Y-71324285D01*
X128590000Y-71181428D01*
X128542380Y-71086190D01*
X128447142Y-70990952D01*
X128304285Y-70943333D01*
X128018571Y-70943333D01*
X83161428Y-71572380D02*
X82590000Y-71572380D01*
X82875714Y-71572380D02*
X82875714Y-70572380D01*
X82780476Y-70715238D01*
X82685238Y-70810476D01*
X82590000Y-70858095D01*
X83970952Y-71000952D02*
X83542380Y-71572380D01*
X84113809Y-71572380D02*
X84113809Y-70572380D01*
X84113809Y-71143809D02*
X83542380Y-70572380D01*
X84685238Y-71572380D02*
X84256666Y-71000952D01*
X84685238Y-70572380D02*
X84113809Y-71143809D01*
X85066190Y-70667619D02*
X85113809Y-70620000D01*
X85209047Y-70572380D01*
X85447142Y-70572380D01*
X85542380Y-70620000D01*
X85590000Y-70667619D01*
X85637619Y-70762857D01*
X85637619Y-70858095D01*
X85590000Y-71000952D01*
X85018571Y-71572380D01*
X85637619Y-71572380D01*
X86494761Y-70905714D02*
X86494761Y-71572380D01*
X86256666Y-70524761D02*
X86018571Y-71239047D01*
X86637619Y-71239047D01*
X87494761Y-70572380D02*
X87018571Y-70572380D01*
X87018571Y-71572380D01*
X87304285Y-71572380D01*
X87447142Y-71524761D01*
X87542380Y-71429523D01*
X87590000Y-71334285D01*
X87590000Y-71191428D01*
X87542380Y-71096190D01*
X87447142Y-71000952D01*
X87304285Y-70953333D01*
X87018571Y-70953333D01*
D11*
X78740000Y-104272500D02*
X91440000Y-104272500D01*
X91440000Y-104272500D02*
X91440000Y-105992500D01*
X91440000Y-109412500D02*
X91440000Y-111132500D01*
X91440000Y-111132500D02*
X78740000Y-111132500D01*
X78740000Y-104272500D02*
X78740000Y-105992500D01*
X78740000Y-109412500D02*
X78740000Y-111132500D01*
D12*
X80490000Y-111702500D02*
G75*
G03*
X80490000Y-111702500I-100000J0D01*
G01*
D11*
X119888000Y-104272500D02*
X132588000Y-104272500D01*
X132588000Y-104272500D02*
X132588000Y-105992500D01*
X132588000Y-109412500D02*
X132588000Y-111132500D01*
X132588000Y-111132500D02*
X119888000Y-111132500D01*
X119888000Y-104272500D02*
X119888000Y-105992500D01*
X119888000Y-109412500D02*
X119888000Y-111132500D01*
D12*
X121638000Y-111702500D02*
G75*
G03*
X121638000Y-111702500I-100000J0D01*
G01*
D11*
X162179000Y-104272500D02*
X174879000Y-104272500D01*
X174879000Y-104272500D02*
X174879000Y-105992500D01*
X174879000Y-109412500D02*
X174879000Y-111132500D01*
X174879000Y-111132500D02*
X162179000Y-111132500D01*
X162179000Y-104272500D02*
X162179000Y-105992500D01*
X162179000Y-109412500D02*
X162179000Y-111132500D01*
D12*
X163929000Y-111702500D02*
G75*
G03*
X163929000Y-111702500I-100000J0D01*
G01*
D11*
X204089000Y-104272500D02*
X216789000Y-104272500D01*
X216789000Y-104272500D02*
X216789000Y-105992500D01*
X216789000Y-109412500D02*
X216789000Y-111132500D01*
X216789000Y-111132500D02*
X204089000Y-111132500D01*
X204089000Y-104272500D02*
X204089000Y-105992500D01*
X204089000Y-109412500D02*
X204089000Y-111132500D01*
D12*
X205839000Y-111702500D02*
G75*
G03*
X205839000Y-111702500I-100000J0D01*
G01*
D13*
X126153333Y-92710000D02*
X129963333Y-91440000D01*
X122343333Y-91440000D02*
X126153333Y-92710000D01*
X129963333Y-50800000D02*
X126153333Y-49530000D01*
X122343333Y-50800000D02*
X126153333Y-49530000D01*
X127423333Y-48260000D02*
G75*
G03*
X127423333Y-48260000I-1270000J0D01*
G01*
X122343333Y-50800000D02*
X122343333Y-91440000D01*
X123613333Y-50800000D02*
X122343333Y-50800000D01*
X129963333Y-50800000D02*
X123613333Y-50800000D01*
X129963333Y-91440000D02*
X129963333Y-50800000D01*
X122343333Y-91440000D02*
X129963333Y-91440000D01*
X85090000Y-92710000D02*
X88900000Y-91440000D01*
X81280000Y-91440000D02*
X85090000Y-92710000D01*
X88900000Y-50800000D02*
X85090000Y-49530000D01*
X81280000Y-50800000D02*
X85090000Y-49530000D01*
X86360000Y-48260000D02*
G75*
G03*
X86360000Y-48260000I-1270000J0D01*
G01*
X81280000Y-50800000D02*
X81280000Y-91440000D01*
X82550000Y-50800000D02*
X81280000Y-50800000D01*
X88900000Y-50800000D02*
X82550000Y-50800000D01*
X88900000Y-91440000D02*
X88900000Y-50800000D01*
X81280000Y-91440000D02*
X88900000Y-91440000D01*
X210550000Y-92710000D02*
X214360000Y-91440000D01*
X206740000Y-91440000D02*
X210550000Y-92710000D01*
X214360000Y-50800000D02*
X210550000Y-49530000D01*
X206740000Y-50800000D02*
X210550000Y-49530000D01*
X211820000Y-48260000D02*
G75*
G03*
X211820000Y-48260000I-1270000J0D01*
G01*
X206740000Y-50800000D02*
X206740000Y-91440000D01*
X208010000Y-50800000D02*
X206740000Y-50800000D01*
X214360000Y-50800000D02*
X208010000Y-50800000D01*
X214360000Y-91440000D02*
X214360000Y-50800000D01*
X206740000Y-91440000D02*
X214360000Y-91440000D01*
X168486666Y-92710000D02*
X172296666Y-91440000D01*
X164676666Y-91440000D02*
X168486666Y-92710000D01*
X172296666Y-50800000D02*
X168486666Y-49530000D01*
X164676666Y-50800000D02*
X168486666Y-49530000D01*
X169756666Y-48260000D02*
G75*
G03*
X169756666Y-48260000I-1270000J0D01*
G01*
X164676666Y-50800000D02*
X164676666Y-91440000D01*
X165946666Y-50800000D02*
X164676666Y-50800000D01*
X172296666Y-50800000D02*
X165946666Y-50800000D01*
X172296666Y-91440000D02*
X172296666Y-50800000D01*
X164676666Y-91440000D02*
X172296666Y-91440000D01*
D10*
X198610000Y-57150000D02*
X201150000Y-57150000D01*
X199880000Y-55880000D02*
X199880000Y-58420000D01*
X203055000Y-57150000D02*
G75*
G03*
X203055000Y-57150000I-3175000J0D01*
G01*
X195130000Y-52300000D02*
X195130000Y-63650000D01*
X204630000Y-52300000D02*
X204630000Y-63650000D01*
X195130000Y-63650000D02*
X204630000Y-63650000D01*
X195130000Y-52300000D02*
X204630000Y-52300000D01*
X156210000Y-57150000D02*
X158750000Y-57150000D01*
X157480000Y-55880000D02*
X157480000Y-58420000D01*
X160655000Y-57150000D02*
G75*
G03*
X160655000Y-57150000I-3175000J0D01*
G01*
X152730000Y-52300000D02*
X152730000Y-63650000D01*
X162230000Y-52300000D02*
X162230000Y-63650000D01*
X152730000Y-63650000D02*
X162230000Y-63650000D01*
X152730000Y-52300000D02*
X162230000Y-52300000D01*
X114300000Y-57150000D02*
X116840000Y-57150000D01*
X115570000Y-55880000D02*
X115570000Y-58420000D01*
X118745000Y-57150000D02*
G75*
G03*
X118745000Y-57150000I-3175000J0D01*
G01*
X110820000Y-52300000D02*
X110820000Y-63650000D01*
X120320000Y-52300000D02*
X120320000Y-63650000D01*
X110820000Y-63650000D02*
X120320000Y-63650000D01*
X110820000Y-52300000D02*
X120320000Y-52300000D01*
X73152000Y-57150000D02*
X75692000Y-57150000D01*
X74422000Y-55880000D02*
X74422000Y-58420000D01*
X77597000Y-57150000D02*
G75*
G03*
X77597000Y-57150000I-3175000J0D01*
G01*
X69672000Y-52300000D02*
X69672000Y-63650000D01*
X79172000Y-52300000D02*
X79172000Y-63650000D01*
X69672000Y-63650000D02*
X79172000Y-63650000D01*
X69672000Y-52300000D02*
X79172000Y-52300000D01*
X198610000Y-81280000D02*
X201150000Y-81280000D01*
X199880000Y-80010000D02*
X199880000Y-82550000D01*
X203055000Y-81280000D02*
G75*
G03*
X203055000Y-81280000I-3175000J0D01*
G01*
X195130000Y-76430000D02*
X195130000Y-87780000D01*
X204630000Y-76430000D02*
X204630000Y-87780000D01*
X195130000Y-87780000D02*
X204630000Y-87780000D01*
X195130000Y-76430000D02*
X204630000Y-76430000D01*
X156210000Y-81280000D02*
X158750000Y-81280000D01*
X157480000Y-80010000D02*
X157480000Y-82550000D01*
X160655000Y-81280000D02*
G75*
G03*
X160655000Y-81280000I-3175000J0D01*
G01*
X152730000Y-76430000D02*
X152730000Y-87780000D01*
X162230000Y-76430000D02*
X162230000Y-87780000D01*
X152730000Y-87780000D02*
X162230000Y-87780000D01*
X152730000Y-76430000D02*
X162230000Y-76430000D01*
X114300000Y-81280000D02*
X116840000Y-81280000D01*
X115570000Y-80010000D02*
X115570000Y-82550000D01*
X118745000Y-81280000D02*
G75*
G03*
X118745000Y-81280000I-3175000J0D01*
G01*
X110820000Y-76430000D02*
X110820000Y-87780000D01*
X120320000Y-76430000D02*
X120320000Y-87780000D01*
X110820000Y-87780000D02*
X120320000Y-87780000D01*
X110820000Y-76430000D02*
X120320000Y-76430000D01*
X73152000Y-81280000D02*
X75692000Y-81280000D01*
X74422000Y-80010000D02*
X74422000Y-82550000D01*
X77597000Y-81280000D02*
G75*
G03*
X77597000Y-81280000I-3175000J0D01*
G01*
X69672000Y-76430000D02*
X69672000Y-87780000D01*
X79172000Y-76430000D02*
X79172000Y-87780000D01*
X69672000Y-87780000D02*
X79172000Y-87780000D01*
X69672000Y-76430000D02*
X79172000Y-76430000D01*
X219710000Y-57150000D02*
X222250000Y-57150000D01*
X220980000Y-55880000D02*
X220980000Y-58420000D01*
X224155000Y-57150000D02*
G75*
G03*
X224155000Y-57150000I-3175000J0D01*
G01*
X216230000Y-52300000D02*
X216230000Y-63650000D01*
X225730000Y-52300000D02*
X225730000Y-63650000D01*
X216230000Y-63650000D02*
X225730000Y-63650000D01*
X216230000Y-52300000D02*
X225730000Y-52300000D01*
X177800000Y-57150000D02*
X180340000Y-57150000D01*
X179070000Y-55880000D02*
X179070000Y-58420000D01*
X182245000Y-57150000D02*
G75*
G03*
X182245000Y-57150000I-3175000J0D01*
G01*
X174320000Y-52300000D02*
X174320000Y-63650000D01*
X183820000Y-52300000D02*
X183820000Y-63650000D01*
X174320000Y-63650000D02*
X183820000Y-63650000D01*
X174320000Y-52300000D02*
X183820000Y-52300000D01*
X135890000Y-57150000D02*
X138430000Y-57150000D01*
X137160000Y-55880000D02*
X137160000Y-58420000D01*
X140335000Y-57150000D02*
G75*
G03*
X140335000Y-57150000I-3175000J0D01*
G01*
X132410000Y-52300000D02*
X132410000Y-63650000D01*
X141910000Y-52300000D02*
X141910000Y-63650000D01*
X132410000Y-63650000D02*
X141910000Y-63650000D01*
X132410000Y-52300000D02*
X141910000Y-52300000D01*
X94361000Y-57150000D02*
X96901000Y-57150000D01*
X95631000Y-55880000D02*
X95631000Y-58420000D01*
X98806000Y-57150000D02*
G75*
G03*
X98806000Y-57150000I-3175000J0D01*
G01*
X90881000Y-52300000D02*
X90881000Y-63650000D01*
X100381000Y-52300000D02*
X100381000Y-63650000D01*
X90881000Y-63650000D02*
X100381000Y-63650000D01*
X90881000Y-52300000D02*
X100381000Y-52300000D01*
X219710000Y-81280000D02*
X222250000Y-81280000D01*
X220980000Y-80010000D02*
X220980000Y-82550000D01*
X224155000Y-81280000D02*
G75*
G03*
X224155000Y-81280000I-3175000J0D01*
G01*
X216230000Y-76430000D02*
X216230000Y-87780000D01*
X225730000Y-76430000D02*
X225730000Y-87780000D01*
X216230000Y-87780000D02*
X225730000Y-87780000D01*
X216230000Y-76430000D02*
X225730000Y-76430000D01*
X177800000Y-81280000D02*
X180340000Y-81280000D01*
X179070000Y-80010000D02*
X179070000Y-82550000D01*
X182245000Y-81280000D02*
G75*
G03*
X182245000Y-81280000I-3175000J0D01*
G01*
X174320000Y-76430000D02*
X174320000Y-87780000D01*
X183820000Y-76430000D02*
X183820000Y-87780000D01*
X174320000Y-87780000D02*
X183820000Y-87780000D01*
X174320000Y-76430000D02*
X183820000Y-76430000D01*
X135890000Y-81280000D02*
X138430000Y-81280000D01*
X137160000Y-80010000D02*
X137160000Y-82550000D01*
X140335000Y-81280000D02*
G75*
G03*
X140335000Y-81280000I-3175000J0D01*
G01*
X132410000Y-76430000D02*
X132410000Y-87780000D01*
X141910000Y-76430000D02*
X141910000Y-87780000D01*
X132410000Y-87780000D02*
X141910000Y-87780000D01*
X132410000Y-76430000D02*
X141910000Y-76430000D01*
X94361000Y-81280000D02*
X96901000Y-81280000D01*
X95631000Y-80010000D02*
X95631000Y-82550000D01*
X98806000Y-81280000D02*
G75*
G03*
X98806000Y-81280000I-3175000J0D01*
G01*
X90881000Y-76430000D02*
X90881000Y-87780000D01*
X100381000Y-76430000D02*
X100381000Y-87780000D01*
X90881000Y-87780000D02*
X100381000Y-87780000D01*
X90881000Y-76430000D02*
X100381000Y-76430000D01*
X210469000Y-136630000D02*
X210469000Y-140230000D01*
X212269000Y-138430000D02*
X208669000Y-138430000D01*
X212269000Y-138430000D02*
G75*
G03*
X212269000Y-138430000I-1800000J0D01*
G01*
X216669000Y-142930000D02*
X205769000Y-142930000D01*
X216669000Y-133930000D02*
X205769000Y-133930000D01*
X205769000Y-133930000D02*
X205769000Y-142930000D01*
X216669000Y-133930000D02*
X216669000Y-142930000D01*
X168529000Y-136630000D02*
X168529000Y-140230000D01*
X170329000Y-138430000D02*
X166729000Y-138430000D01*
X170329000Y-138430000D02*
G75*
G03*
X170329000Y-138430000I-1800000J0D01*
G01*
X174729000Y-142930000D02*
X163829000Y-142930000D01*
X174729000Y-133930000D02*
X163829000Y-133930000D01*
X163829000Y-133930000D02*
X163829000Y-142930000D01*
X174729000Y-133930000D02*
X174729000Y-142930000D01*
X126238000Y-136630000D02*
X126238000Y-140230000D01*
X128038000Y-138430000D02*
X124438000Y-138430000D01*
X128038000Y-138430000D02*
G75*
G03*
X128038000Y-138430000I-1800000J0D01*
G01*
X132438000Y-142930000D02*
X121538000Y-142930000D01*
X132438000Y-133930000D02*
X121538000Y-133930000D01*
X121538000Y-133930000D02*
X121538000Y-142930000D01*
X132438000Y-133930000D02*
X132438000Y-142930000D01*
X85090000Y-136630000D02*
X85090000Y-140230000D01*
X86890000Y-138430000D02*
X83290000Y-138430000D01*
X86890000Y-138430000D02*
G75*
G03*
X86890000Y-138430000I-1800000J0D01*
G01*
X91290000Y-142930000D02*
X80390000Y-142930000D01*
X91290000Y-133930000D02*
X80390000Y-133930000D01*
X80390000Y-133930000D02*
X80390000Y-142930000D01*
X91290000Y-133930000D02*
X91290000Y-142930000D01*
X210469000Y-116310000D02*
X210469000Y-119910000D01*
X212269000Y-118110000D02*
X208669000Y-118110000D01*
X212269000Y-118110000D02*
G75*
G03*
X212269000Y-118110000I-1800000J0D01*
G01*
X216669000Y-122610000D02*
X205769000Y-122610000D01*
X216669000Y-113610000D02*
X205769000Y-113610000D01*
X205769000Y-113610000D02*
X205769000Y-122610000D01*
X216669000Y-113610000D02*
X216669000Y-122610000D01*
X168529000Y-116310000D02*
X168529000Y-119910000D01*
X170329000Y-118110000D02*
X166729000Y-118110000D01*
X170329000Y-118110000D02*
G75*
G03*
X170329000Y-118110000I-1800000J0D01*
G01*
X174729000Y-122610000D02*
X163829000Y-122610000D01*
X174729000Y-113610000D02*
X163829000Y-113610000D01*
X163829000Y-113610000D02*
X163829000Y-122610000D01*
X174729000Y-113610000D02*
X174729000Y-122610000D01*
X126238000Y-116310000D02*
X126238000Y-119910000D01*
X128038000Y-118110000D02*
X124438000Y-118110000D01*
X128038000Y-118110000D02*
G75*
G03*
X128038000Y-118110000I-1800000J0D01*
G01*
X132438000Y-122610000D02*
X121538000Y-122610000D01*
X132438000Y-113610000D02*
X121538000Y-113610000D01*
X121538000Y-113610000D02*
X121538000Y-122610000D01*
X132438000Y-113610000D02*
X132438000Y-122610000D01*
X85090000Y-116310000D02*
X85090000Y-119910000D01*
X86890000Y-118110000D02*
X83290000Y-118110000D01*
X86890000Y-118110000D02*
G75*
G03*
X86890000Y-118110000I-1800000J0D01*
G01*
X91290000Y-122610000D02*
X80390000Y-122610000D01*
X91290000Y-113610000D02*
X80390000Y-113610000D01*
X80390000Y-113610000D02*
X80390000Y-122610000D01*
X91290000Y-113610000D02*
X91290000Y-122610000D01*
X210469000Y-126470000D02*
X210469000Y-130070000D01*
X212269000Y-128270000D02*
X208669000Y-128270000D01*
X212269000Y-128270000D02*
G75*
G03*
X212269000Y-128270000I-1800000J0D01*
G01*
X216669000Y-132770000D02*
X205769000Y-132770000D01*
X216669000Y-123770000D02*
X205769000Y-123770000D01*
X205769000Y-123770000D02*
X205769000Y-132770000D01*
X216669000Y-123770000D02*
X216669000Y-132770000D01*
X168529000Y-126470000D02*
X168529000Y-130070000D01*
X170329000Y-128270000D02*
X166729000Y-128270000D01*
X170329000Y-128270000D02*
G75*
G03*
X170329000Y-128270000I-1800000J0D01*
G01*
X174729000Y-132770000D02*
X163829000Y-132770000D01*
X174729000Y-123770000D02*
X163829000Y-123770000D01*
X163829000Y-123770000D02*
X163829000Y-132770000D01*
X174729000Y-123770000D02*
X174729000Y-132770000D01*
X126238000Y-126470000D02*
X126238000Y-130070000D01*
X128038000Y-128270000D02*
X124438000Y-128270000D01*
X128038000Y-128270000D02*
G75*
G03*
X128038000Y-128270000I-1800000J0D01*
G01*
X132438000Y-132770000D02*
X121538000Y-132770000D01*
X132438000Y-123770000D02*
X121538000Y-123770000D01*
X121538000Y-123770000D02*
X121538000Y-132770000D01*
X132438000Y-123770000D02*
X132438000Y-132770000D01*
X85090000Y-126470000D02*
X85090000Y-130070000D01*
X86890000Y-128270000D02*
X83290000Y-128270000D01*
X86890000Y-128270000D02*
G75*
G03*
X86890000Y-128270000I-1800000J0D01*
G01*
X91290000Y-132770000D02*
X80390000Y-132770000D01*
X91290000Y-123770000D02*
X80390000Y-123770000D01*
X80390000Y-123770000D02*
X80390000Y-132770000D01*
X91290000Y-123770000D02*
X91290000Y-132770000D01*
D13*
X220635000Y-72356000D02*
X220635000Y-72200000D01*
X220635000Y-70040000D02*
X220635000Y-69884000D01*
X218033870Y-70040163D02*
G75*
G02*
X220115961Y-70040000I1041130J-1079837D01*
G01*
X218033870Y-72199837D02*
G75*
G03*
X220115961Y-72200000I1041130J1079837D01*
G01*
X217402665Y-70041392D02*
G75*
G02*
X220635000Y-69884484I1672335J-1078608D01*
G01*
X217402665Y-72198608D02*
G75*
G03*
X220635000Y-72355516I1672335J1078608D01*
G01*
X200706000Y-69884000D02*
X200706000Y-70040000D01*
X200706000Y-72200000D02*
X200706000Y-72356000D01*
X203307130Y-72199837D02*
G75*
G02*
X201225039Y-72200000I-1041130J1079837D01*
G01*
X203307130Y-70040163D02*
G75*
G03*
X201225039Y-70040000I-1041130J-1079837D01*
G01*
X203938335Y-72198608D02*
G75*
G02*
X200706000Y-72355516I-1672335J1078608D01*
G01*
X203938335Y-70041392D02*
G75*
G03*
X200706000Y-69884484I-1672335J-1078608D01*
G01*
X178598000Y-72356000D02*
X178598000Y-72200000D01*
X178598000Y-70040000D02*
X178598000Y-69884000D01*
X175996870Y-70040163D02*
G75*
G02*
X178078961Y-70040000I1041130J-1079837D01*
G01*
X175996870Y-72199837D02*
G75*
G03*
X178078961Y-72200000I1041130J1079837D01*
G01*
X175365665Y-70041392D02*
G75*
G02*
X178598000Y-69884484I1672335J-1078608D01*
G01*
X175365665Y-72198608D02*
G75*
G03*
X178598000Y-72355516I1672335J1078608D01*
G01*
X158460000Y-69884000D02*
X158460000Y-70040000D01*
X158460000Y-72200000D02*
X158460000Y-72356000D01*
X161061130Y-72199837D02*
G75*
G02*
X158979039Y-72200000I-1041130J1079837D01*
G01*
X161061130Y-70040163D02*
G75*
G03*
X158979039Y-70040000I-1041130J-1079837D01*
G01*
X161692335Y-72198608D02*
G75*
G02*
X158460000Y-72355516I-1672335J1078608D01*
G01*
X161692335Y-70041392D02*
G75*
G03*
X158460000Y-69884484I-1672335J-1078608D01*
G01*
X136180000Y-72356000D02*
X136180000Y-72200000D01*
X136180000Y-70040000D02*
X136180000Y-69884000D01*
X133578870Y-70040163D02*
G75*
G02*
X135660961Y-70040000I1041130J-1079837D01*
G01*
X133578870Y-72199837D02*
G75*
G03*
X135660961Y-72200000I1041130J1079837D01*
G01*
X132947665Y-70041392D02*
G75*
G02*
X136180000Y-69884484I1672335J-1078608D01*
G01*
X132947665Y-72198608D02*
G75*
G03*
X136180000Y-72355516I1672335J1078608D01*
G01*
X116296000Y-69884000D02*
X116296000Y-70040000D01*
X116296000Y-72200000D02*
X116296000Y-72356000D01*
X118897130Y-72199837D02*
G75*
G02*
X116815039Y-72200000I-1041130J1079837D01*
G01*
X118897130Y-70040163D02*
G75*
G03*
X116815039Y-70040000I-1041130J-1079837D01*
G01*
X119528335Y-72198608D02*
G75*
G02*
X116296000Y-72355516I-1672335J1078608D01*
G01*
X119528335Y-70041392D02*
G75*
G03*
X116296000Y-69884484I-1672335J-1078608D01*
G01*
X95540000Y-72356000D02*
X95540000Y-72200000D01*
X95540000Y-70040000D02*
X95540000Y-69884000D01*
X92938870Y-70040163D02*
G75*
G02*
X95020961Y-70040000I1041130J-1079837D01*
G01*
X92938870Y-72199837D02*
G75*
G03*
X95020961Y-72200000I1041130J1079837D01*
G01*
X92307665Y-70041392D02*
G75*
G02*
X95540000Y-69884484I1672335J-1078608D01*
G01*
X92307665Y-72198608D02*
G75*
G03*
X95540000Y-72355516I1672335J1078608D01*
G01*
X75021000Y-69884000D02*
X75021000Y-70040000D01*
X75021000Y-72200000D02*
X75021000Y-72356000D01*
X77622130Y-72199837D02*
G75*
G02*
X75540039Y-72200000I-1041130J1079837D01*
G01*
X77622130Y-70040163D02*
G75*
G03*
X75540039Y-70040000I-1041130J-1079837D01*
G01*
X78253335Y-72198608D02*
G75*
G02*
X75021000Y-72355516I-1672335J1078608D01*
G01*
X78253335Y-70041392D02*
G75*
G03*
X75021000Y-69884484I-1672335J-1078608D01*
G01*
X226160000Y-67360000D02*
X226160000Y-74800000D01*
X223420000Y-67360000D02*
X223420000Y-74800000D01*
X226160000Y-67360000D02*
X223420000Y-67360000D01*
X226160000Y-74800000D02*
X223420000Y-74800000D01*
X196950000Y-67360000D02*
X196950000Y-74800000D01*
X194210000Y-67360000D02*
X194210000Y-74800000D01*
X196950000Y-67360000D02*
X194210000Y-67360000D01*
X196950000Y-74800000D02*
X194210000Y-74800000D01*
X184250000Y-67360000D02*
X184250000Y-74800000D01*
X181510000Y-67360000D02*
X181510000Y-74800000D01*
X184250000Y-67360000D02*
X181510000Y-67360000D01*
X184250000Y-74800000D02*
X181510000Y-74800000D01*
X155040000Y-67360000D02*
X155040000Y-74800000D01*
X152300000Y-67360000D02*
X152300000Y-74800000D01*
X155040000Y-67360000D02*
X152300000Y-67360000D01*
X155040000Y-74800000D02*
X152300000Y-74800000D01*
X142340000Y-67360000D02*
X142340000Y-74800000D01*
X139600000Y-67360000D02*
X139600000Y-74800000D01*
X142340000Y-67360000D02*
X139600000Y-67360000D01*
X142340000Y-74800000D02*
X139600000Y-74800000D01*
X113130000Y-67360000D02*
X113130000Y-74800000D01*
X110390000Y-67360000D02*
X110390000Y-74800000D01*
X113130000Y-67360000D02*
X110390000Y-67360000D01*
X113130000Y-74800000D02*
X110390000Y-74800000D01*
X101319000Y-67233000D02*
X101319000Y-74673000D01*
X98579000Y-67233000D02*
X98579000Y-74673000D01*
X101319000Y-67233000D02*
X98579000Y-67233000D01*
X101319000Y-74673000D02*
X98579000Y-74673000D01*
X71728000Y-67360000D02*
X71728000Y-74800000D01*
X68988000Y-67360000D02*
X68988000Y-74800000D01*
X71728000Y-67360000D02*
X68988000Y-67360000D01*
X71728000Y-74800000D02*
X68988000Y-74800000D01*
D10*
X80180476Y-105567261D02*
X80323333Y-105614880D01*
X80561428Y-105614880D01*
X80656666Y-105567261D01*
X80704285Y-105519642D01*
X80751904Y-105424404D01*
X80751904Y-105329166D01*
X80704285Y-105233928D01*
X80656666Y-105186309D01*
X80561428Y-105138690D01*
X80370952Y-105091071D01*
X80275714Y-105043452D01*
X80228095Y-104995833D01*
X80180476Y-104900595D01*
X80180476Y-104805357D01*
X80228095Y-104710119D01*
X80275714Y-104662500D01*
X80370952Y-104614880D01*
X80609047Y-104614880D01*
X80751904Y-104662500D01*
X81085238Y-104614880D02*
X81323333Y-105614880D01*
X81513809Y-104900595D01*
X81704285Y-105614880D01*
X81942380Y-104614880D01*
X82085238Y-105710119D02*
X82847142Y-105710119D01*
X83085238Y-105614880D02*
X83085238Y-104614880D01*
X83323333Y-104614880D01*
X83466190Y-104662500D01*
X83561428Y-104757738D01*
X83609047Y-104852976D01*
X83656666Y-105043452D01*
X83656666Y-105186309D01*
X83609047Y-105376785D01*
X83561428Y-105472023D01*
X83466190Y-105567261D01*
X83323333Y-105614880D01*
X83085238Y-105614880D01*
X84085238Y-105614880D02*
X84085238Y-104614880D01*
X84513809Y-105567261D02*
X84656666Y-105614880D01*
X84894761Y-105614880D01*
X84990000Y-105567261D01*
X85037619Y-105519642D01*
X85085238Y-105424404D01*
X85085238Y-105329166D01*
X85037619Y-105233928D01*
X84990000Y-105186309D01*
X84894761Y-105138690D01*
X84704285Y-105091071D01*
X84609047Y-105043452D01*
X84561428Y-104995833D01*
X84513809Y-104900595D01*
X84513809Y-104805357D01*
X84561428Y-104710119D01*
X84609047Y-104662500D01*
X84704285Y-104614880D01*
X84942380Y-104614880D01*
X85085238Y-104662500D01*
X85370952Y-104614880D02*
X85942380Y-104614880D01*
X85656666Y-105614880D02*
X85656666Y-104614880D01*
X86799523Y-105614880D02*
X86228095Y-105614880D01*
X86513809Y-105614880D02*
X86513809Y-104614880D01*
X86418571Y-104757738D01*
X86323333Y-104852976D01*
X86228095Y-104900595D01*
X121328476Y-105567261D02*
X121471333Y-105614880D01*
X121709428Y-105614880D01*
X121804666Y-105567261D01*
X121852285Y-105519642D01*
X121899904Y-105424404D01*
X121899904Y-105329166D01*
X121852285Y-105233928D01*
X121804666Y-105186309D01*
X121709428Y-105138690D01*
X121518952Y-105091071D01*
X121423714Y-105043452D01*
X121376095Y-104995833D01*
X121328476Y-104900595D01*
X121328476Y-104805357D01*
X121376095Y-104710119D01*
X121423714Y-104662500D01*
X121518952Y-104614880D01*
X121757047Y-104614880D01*
X121899904Y-104662500D01*
X122233238Y-104614880D02*
X122471333Y-105614880D01*
X122661809Y-104900595D01*
X122852285Y-105614880D01*
X123090380Y-104614880D01*
X123233238Y-105710119D02*
X123995142Y-105710119D01*
X124233238Y-105614880D02*
X124233238Y-104614880D01*
X124471333Y-104614880D01*
X124614190Y-104662500D01*
X124709428Y-104757738D01*
X124757047Y-104852976D01*
X124804666Y-105043452D01*
X124804666Y-105186309D01*
X124757047Y-105376785D01*
X124709428Y-105472023D01*
X124614190Y-105567261D01*
X124471333Y-105614880D01*
X124233238Y-105614880D01*
X125233238Y-105614880D02*
X125233238Y-104614880D01*
X125661809Y-105567261D02*
X125804666Y-105614880D01*
X126042761Y-105614880D01*
X126138000Y-105567261D01*
X126185619Y-105519642D01*
X126233238Y-105424404D01*
X126233238Y-105329166D01*
X126185619Y-105233928D01*
X126138000Y-105186309D01*
X126042761Y-105138690D01*
X125852285Y-105091071D01*
X125757047Y-105043452D01*
X125709428Y-104995833D01*
X125661809Y-104900595D01*
X125661809Y-104805357D01*
X125709428Y-104710119D01*
X125757047Y-104662500D01*
X125852285Y-104614880D01*
X126090380Y-104614880D01*
X126233238Y-104662500D01*
X126518952Y-104614880D02*
X127090380Y-104614880D01*
X126804666Y-105614880D02*
X126804666Y-104614880D01*
X127376095Y-104710119D02*
X127423714Y-104662500D01*
X127518952Y-104614880D01*
X127757047Y-104614880D01*
X127852285Y-104662500D01*
X127899904Y-104710119D01*
X127947523Y-104805357D01*
X127947523Y-104900595D01*
X127899904Y-105043452D01*
X127328476Y-105614880D01*
X127947523Y-105614880D01*
X163619476Y-105567261D02*
X163762333Y-105614880D01*
X164000428Y-105614880D01*
X164095666Y-105567261D01*
X164143285Y-105519642D01*
X164190904Y-105424404D01*
X164190904Y-105329166D01*
X164143285Y-105233928D01*
X164095666Y-105186309D01*
X164000428Y-105138690D01*
X163809952Y-105091071D01*
X163714714Y-105043452D01*
X163667095Y-104995833D01*
X163619476Y-104900595D01*
X163619476Y-104805357D01*
X163667095Y-104710119D01*
X163714714Y-104662500D01*
X163809952Y-104614880D01*
X164048047Y-104614880D01*
X164190904Y-104662500D01*
X164524238Y-104614880D02*
X164762333Y-105614880D01*
X164952809Y-104900595D01*
X165143285Y-105614880D01*
X165381380Y-104614880D01*
X165524238Y-105710119D02*
X166286142Y-105710119D01*
X166524238Y-105614880D02*
X166524238Y-104614880D01*
X166762333Y-104614880D01*
X166905190Y-104662500D01*
X167000428Y-104757738D01*
X167048047Y-104852976D01*
X167095666Y-105043452D01*
X167095666Y-105186309D01*
X167048047Y-105376785D01*
X167000428Y-105472023D01*
X166905190Y-105567261D01*
X166762333Y-105614880D01*
X166524238Y-105614880D01*
X167524238Y-105614880D02*
X167524238Y-104614880D01*
X167952809Y-105567261D02*
X168095666Y-105614880D01*
X168333761Y-105614880D01*
X168429000Y-105567261D01*
X168476619Y-105519642D01*
X168524238Y-105424404D01*
X168524238Y-105329166D01*
X168476619Y-105233928D01*
X168429000Y-105186309D01*
X168333761Y-105138690D01*
X168143285Y-105091071D01*
X168048047Y-105043452D01*
X168000428Y-104995833D01*
X167952809Y-104900595D01*
X167952809Y-104805357D01*
X168000428Y-104710119D01*
X168048047Y-104662500D01*
X168143285Y-104614880D01*
X168381380Y-104614880D01*
X168524238Y-104662500D01*
X168809952Y-104614880D02*
X169381380Y-104614880D01*
X169095666Y-105614880D02*
X169095666Y-104614880D01*
X169619476Y-104614880D02*
X170238523Y-104614880D01*
X169905190Y-104995833D01*
X170048047Y-104995833D01*
X170143285Y-105043452D01*
X170190904Y-105091071D01*
X170238523Y-105186309D01*
X170238523Y-105424404D01*
X170190904Y-105519642D01*
X170143285Y-105567261D01*
X170048047Y-105614880D01*
X169762333Y-105614880D01*
X169667095Y-105567261D01*
X169619476Y-105519642D01*
X205529476Y-105567261D02*
X205672333Y-105614880D01*
X205910428Y-105614880D01*
X206005666Y-105567261D01*
X206053285Y-105519642D01*
X206100904Y-105424404D01*
X206100904Y-105329166D01*
X206053285Y-105233928D01*
X206005666Y-105186309D01*
X205910428Y-105138690D01*
X205719952Y-105091071D01*
X205624714Y-105043452D01*
X205577095Y-104995833D01*
X205529476Y-104900595D01*
X205529476Y-104805357D01*
X205577095Y-104710119D01*
X205624714Y-104662500D01*
X205719952Y-104614880D01*
X205958047Y-104614880D01*
X206100904Y-104662500D01*
X206434238Y-104614880D02*
X206672333Y-105614880D01*
X206862809Y-104900595D01*
X207053285Y-105614880D01*
X207291380Y-104614880D01*
X207434238Y-105710119D02*
X208196142Y-105710119D01*
X208434238Y-105614880D02*
X208434238Y-104614880D01*
X208672333Y-104614880D01*
X208815190Y-104662500D01*
X208910428Y-104757738D01*
X208958047Y-104852976D01*
X209005666Y-105043452D01*
X209005666Y-105186309D01*
X208958047Y-105376785D01*
X208910428Y-105472023D01*
X208815190Y-105567261D01*
X208672333Y-105614880D01*
X208434238Y-105614880D01*
X209434238Y-105614880D02*
X209434238Y-104614880D01*
X209862809Y-105567261D02*
X210005666Y-105614880D01*
X210243761Y-105614880D01*
X210339000Y-105567261D01*
X210386619Y-105519642D01*
X210434238Y-105424404D01*
X210434238Y-105329166D01*
X210386619Y-105233928D01*
X210339000Y-105186309D01*
X210243761Y-105138690D01*
X210053285Y-105091071D01*
X209958047Y-105043452D01*
X209910428Y-104995833D01*
X209862809Y-104900595D01*
X209862809Y-104805357D01*
X209910428Y-104710119D01*
X209958047Y-104662500D01*
X210053285Y-104614880D01*
X210291380Y-104614880D01*
X210434238Y-104662500D01*
X210719952Y-104614880D02*
X211291380Y-104614880D01*
X211005666Y-105614880D02*
X211005666Y-104614880D01*
X212053285Y-104948214D02*
X212053285Y-105614880D01*
X211815190Y-104567261D02*
X211577095Y-105281547D01*
X212196142Y-105281547D01*
X125343809Y-74382380D02*
X125677142Y-75382380D01*
X126010475Y-74382380D01*
X126296190Y-74477619D02*
X126343809Y-74430000D01*
X126439047Y-74382380D01*
X126677142Y-74382380D01*
X126772380Y-74430000D01*
X126819999Y-74477619D01*
X126867618Y-74572857D01*
X126867618Y-74668095D01*
X126819999Y-74810952D01*
X126248571Y-75382380D01*
X126867618Y-75382380D01*
X128359999Y-47712380D02*
X129026666Y-47712380D01*
X128598094Y-48712380D01*
X128883809Y-95972380D02*
X128693333Y-95972380D01*
X128598094Y-96020000D01*
X128550475Y-96067619D01*
X128455237Y-96210476D01*
X128407618Y-96400952D01*
X128407618Y-96781904D01*
X128455237Y-96877142D01*
X128502856Y-96924761D01*
X128598094Y-96972380D01*
X128788571Y-96972380D01*
X128883809Y-96924761D01*
X128931428Y-96877142D01*
X128979047Y-96781904D01*
X128979047Y-96543809D01*
X128931428Y-96448571D01*
X128883809Y-96400952D01*
X128788571Y-96353333D01*
X128598094Y-96353333D01*
X128502856Y-96400952D01*
X128455237Y-96448571D01*
X128407618Y-96543809D01*
X128883809Y-92495714D02*
X128883809Y-93162380D01*
X128645713Y-92114761D02*
X128407618Y-92829047D01*
X129026666Y-92829047D01*
X123851428Y-92162380D02*
X123375237Y-92162380D01*
X123327618Y-92638571D01*
X123375237Y-92590952D01*
X123470475Y-92543333D01*
X123708571Y-92543333D01*
X123803809Y-92590952D01*
X123851428Y-92638571D01*
X123899047Y-92733809D01*
X123899047Y-92971904D01*
X123851428Y-93067142D01*
X123803809Y-93114761D01*
X123708571Y-93162380D01*
X123470475Y-93162380D01*
X123375237Y-93114761D01*
X123327618Y-93067142D01*
X129629999Y-99782380D02*
X130249047Y-99782380D01*
X129915713Y-100163333D01*
X130058571Y-100163333D01*
X130153809Y-100210952D01*
X130201428Y-100258571D01*
X130249047Y-100353809D01*
X130249047Y-100591904D01*
X130201428Y-100687142D01*
X130153809Y-100734761D01*
X130058571Y-100782380D01*
X129772856Y-100782380D01*
X129677618Y-100734761D01*
X129629999Y-100687142D01*
X125867618Y-101147619D02*
X125915237Y-101100000D01*
X126010475Y-101052380D01*
X126248571Y-101052380D01*
X126343809Y-101100000D01*
X126391428Y-101147619D01*
X126439047Y-101242857D01*
X126439047Y-101338095D01*
X126391428Y-101480952D01*
X125819999Y-102052380D01*
X126439047Y-102052380D01*
X122629047Y-100782380D02*
X122057618Y-100782380D01*
X122343333Y-100782380D02*
X122343333Y-99782380D01*
X122248094Y-99925238D01*
X122152856Y-100020476D01*
X122057618Y-100068095D01*
X84280476Y-74382380D02*
X84613809Y-75382380D01*
X84947142Y-74382380D01*
X85804285Y-75382380D02*
X85232857Y-75382380D01*
X85518571Y-75382380D02*
X85518571Y-74382380D01*
X85423333Y-74525238D01*
X85328095Y-74620476D01*
X85232857Y-74668095D01*
X87296666Y-47712380D02*
X87963333Y-47712380D01*
X87534761Y-48712380D01*
X87820476Y-95972380D02*
X87630000Y-95972380D01*
X87534761Y-96020000D01*
X87487142Y-96067619D01*
X87391904Y-96210476D01*
X87344285Y-96400952D01*
X87344285Y-96781904D01*
X87391904Y-96877142D01*
X87439523Y-96924761D01*
X87534761Y-96972380D01*
X87725238Y-96972380D01*
X87820476Y-96924761D01*
X87868095Y-96877142D01*
X87915714Y-96781904D01*
X87915714Y-96543809D01*
X87868095Y-96448571D01*
X87820476Y-96400952D01*
X87725238Y-96353333D01*
X87534761Y-96353333D01*
X87439523Y-96400952D01*
X87391904Y-96448571D01*
X87344285Y-96543809D01*
X87820476Y-92495714D02*
X87820476Y-93162380D01*
X87582380Y-92114761D02*
X87344285Y-92829047D01*
X87963333Y-92829047D01*
X82788095Y-92162380D02*
X82311904Y-92162380D01*
X82264285Y-92638571D01*
X82311904Y-92590952D01*
X82407142Y-92543333D01*
X82645238Y-92543333D01*
X82740476Y-92590952D01*
X82788095Y-92638571D01*
X82835714Y-92733809D01*
X82835714Y-92971904D01*
X82788095Y-93067142D01*
X82740476Y-93114761D01*
X82645238Y-93162380D01*
X82407142Y-93162380D01*
X82311904Y-93114761D01*
X82264285Y-93067142D01*
X88566666Y-99782380D02*
X89185714Y-99782380D01*
X88852380Y-100163333D01*
X88995238Y-100163333D01*
X89090476Y-100210952D01*
X89138095Y-100258571D01*
X89185714Y-100353809D01*
X89185714Y-100591904D01*
X89138095Y-100687142D01*
X89090476Y-100734761D01*
X88995238Y-100782380D01*
X88709523Y-100782380D01*
X88614285Y-100734761D01*
X88566666Y-100687142D01*
X84804285Y-101147619D02*
X84851904Y-101100000D01*
X84947142Y-101052380D01*
X85185238Y-101052380D01*
X85280476Y-101100000D01*
X85328095Y-101147619D01*
X85375714Y-101242857D01*
X85375714Y-101338095D01*
X85328095Y-101480952D01*
X84756666Y-102052380D01*
X85375714Y-102052380D01*
X81565714Y-100782380D02*
X80994285Y-100782380D01*
X81280000Y-100782380D02*
X81280000Y-99782380D01*
X81184761Y-99925238D01*
X81089523Y-100020476D01*
X80994285Y-100068095D01*
X209740476Y-74382380D02*
X210073809Y-75382380D01*
X210407142Y-74382380D01*
X211169047Y-74715714D02*
X211169047Y-75382380D01*
X210930952Y-74334761D02*
X210692857Y-75049047D01*
X211311904Y-75049047D01*
X212756666Y-47712380D02*
X213423333Y-47712380D01*
X212994761Y-48712380D01*
X213280476Y-95972380D02*
X213090000Y-95972380D01*
X212994761Y-96020000D01*
X212947142Y-96067619D01*
X212851904Y-96210476D01*
X212804285Y-96400952D01*
X212804285Y-96781904D01*
X212851904Y-96877142D01*
X212899523Y-96924761D01*
X212994761Y-96972380D01*
X213185238Y-96972380D01*
X213280476Y-96924761D01*
X213328095Y-96877142D01*
X213375714Y-96781904D01*
X213375714Y-96543809D01*
X213328095Y-96448571D01*
X213280476Y-96400952D01*
X213185238Y-96353333D01*
X212994761Y-96353333D01*
X212899523Y-96400952D01*
X212851904Y-96448571D01*
X212804285Y-96543809D01*
X213280476Y-92495714D02*
X213280476Y-93162380D01*
X213042380Y-92114761D02*
X212804285Y-92829047D01*
X213423333Y-92829047D01*
X208248095Y-92162380D02*
X207771904Y-92162380D01*
X207724285Y-92638571D01*
X207771904Y-92590952D01*
X207867142Y-92543333D01*
X208105238Y-92543333D01*
X208200476Y-92590952D01*
X208248095Y-92638571D01*
X208295714Y-92733809D01*
X208295714Y-92971904D01*
X208248095Y-93067142D01*
X208200476Y-93114761D01*
X208105238Y-93162380D01*
X207867142Y-93162380D01*
X207771904Y-93114761D01*
X207724285Y-93067142D01*
X214026666Y-99782380D02*
X214645714Y-99782380D01*
X214312380Y-100163333D01*
X214455238Y-100163333D01*
X214550476Y-100210952D01*
X214598095Y-100258571D01*
X214645714Y-100353809D01*
X214645714Y-100591904D01*
X214598095Y-100687142D01*
X214550476Y-100734761D01*
X214455238Y-100782380D01*
X214169523Y-100782380D01*
X214074285Y-100734761D01*
X214026666Y-100687142D01*
X210264285Y-101147619D02*
X210311904Y-101100000D01*
X210407142Y-101052380D01*
X210645238Y-101052380D01*
X210740476Y-101100000D01*
X210788095Y-101147619D01*
X210835714Y-101242857D01*
X210835714Y-101338095D01*
X210788095Y-101480952D01*
X210216666Y-102052380D01*
X210835714Y-102052380D01*
X207025714Y-100782380D02*
X206454285Y-100782380D01*
X206740000Y-100782380D02*
X206740000Y-99782380D01*
X206644761Y-99925238D01*
X206549523Y-100020476D01*
X206454285Y-100068095D01*
X167677142Y-74382380D02*
X168010475Y-75382380D01*
X168343808Y-74382380D01*
X168581904Y-74382380D02*
X169200951Y-74382380D01*
X168867618Y-74763333D01*
X169010475Y-74763333D01*
X169105713Y-74810952D01*
X169153332Y-74858571D01*
X169200951Y-74953809D01*
X169200951Y-75191904D01*
X169153332Y-75287142D01*
X169105713Y-75334761D01*
X169010475Y-75382380D01*
X168724761Y-75382380D01*
X168629523Y-75334761D01*
X168581904Y-75287142D01*
X170693332Y-47712380D02*
X171359999Y-47712380D01*
X170931427Y-48712380D01*
X171217142Y-95972380D02*
X171026666Y-95972380D01*
X170931427Y-96020000D01*
X170883808Y-96067619D01*
X170788570Y-96210476D01*
X170740951Y-96400952D01*
X170740951Y-96781904D01*
X170788570Y-96877142D01*
X170836189Y-96924761D01*
X170931427Y-96972380D01*
X171121904Y-96972380D01*
X171217142Y-96924761D01*
X171264761Y-96877142D01*
X171312380Y-96781904D01*
X171312380Y-96543809D01*
X171264761Y-96448571D01*
X171217142Y-96400952D01*
X171121904Y-96353333D01*
X170931427Y-96353333D01*
X170836189Y-96400952D01*
X170788570Y-96448571D01*
X170740951Y-96543809D01*
X171217142Y-92495714D02*
X171217142Y-93162380D01*
X170979046Y-92114761D02*
X170740951Y-92829047D01*
X171359999Y-92829047D01*
X166184761Y-92162380D02*
X165708570Y-92162380D01*
X165660951Y-92638571D01*
X165708570Y-92590952D01*
X165803808Y-92543333D01*
X166041904Y-92543333D01*
X166137142Y-92590952D01*
X166184761Y-92638571D01*
X166232380Y-92733809D01*
X166232380Y-92971904D01*
X166184761Y-93067142D01*
X166137142Y-93114761D01*
X166041904Y-93162380D01*
X165803808Y-93162380D01*
X165708570Y-93114761D01*
X165660951Y-93067142D01*
X171963332Y-99782380D02*
X172582380Y-99782380D01*
X172249046Y-100163333D01*
X172391904Y-100163333D01*
X172487142Y-100210952D01*
X172534761Y-100258571D01*
X172582380Y-100353809D01*
X172582380Y-100591904D01*
X172534761Y-100687142D01*
X172487142Y-100734761D01*
X172391904Y-100782380D01*
X172106189Y-100782380D01*
X172010951Y-100734761D01*
X171963332Y-100687142D01*
X168200951Y-101147619D02*
X168248570Y-101100000D01*
X168343808Y-101052380D01*
X168581904Y-101052380D01*
X168677142Y-101100000D01*
X168724761Y-101147619D01*
X168772380Y-101242857D01*
X168772380Y-101338095D01*
X168724761Y-101480952D01*
X168153332Y-102052380D01*
X168772380Y-102052380D01*
X164962380Y-100782380D02*
X164390951Y-100782380D01*
X164676666Y-100782380D02*
X164676666Y-99782380D01*
X164581427Y-99925238D01*
X164486189Y-100020476D01*
X164390951Y-100068095D01*
X194624285Y-53792380D02*
X194624285Y-52792380D01*
X195005238Y-52792380D01*
X195100476Y-52840000D01*
X195148095Y-52887619D01*
X195195714Y-52982857D01*
X195195714Y-53125714D01*
X195148095Y-53220952D01*
X195100476Y-53268571D01*
X195005238Y-53316190D01*
X194624285Y-53316190D01*
X195814761Y-52792380D02*
X196005238Y-52792380D01*
X196100476Y-52840000D01*
X196195714Y-52935238D01*
X196243333Y-53125714D01*
X196243333Y-53459047D01*
X196195714Y-53649523D01*
X196100476Y-53744761D01*
X196005238Y-53792380D01*
X195814761Y-53792380D01*
X195719523Y-53744761D01*
X195624285Y-53649523D01*
X195576666Y-53459047D01*
X195576666Y-53125714D01*
X195624285Y-52935238D01*
X195719523Y-52840000D01*
X195814761Y-52792380D01*
X196529047Y-52792380D02*
X197100476Y-52792380D01*
X196814761Y-53792380D02*
X196814761Y-52792380D01*
X197195714Y-53887619D02*
X197957619Y-53887619D01*
X198195714Y-53792380D02*
X198195714Y-52792380D01*
X198671904Y-53792380D02*
X198671904Y-52792380D01*
X199243333Y-53792380D01*
X199243333Y-52792380D01*
X199481428Y-53887619D02*
X200243333Y-53887619D01*
X200481428Y-53792380D02*
X200481428Y-52792380D01*
X200719523Y-52792380D01*
X200862380Y-52840000D01*
X200957619Y-52935238D01*
X201005238Y-53030476D01*
X201052857Y-53220952D01*
X201052857Y-53363809D01*
X201005238Y-53554285D01*
X200957619Y-53649523D01*
X200862380Y-53744761D01*
X200719523Y-53792380D01*
X200481428Y-53792380D01*
X202052857Y-53792380D02*
X201719523Y-53316190D01*
X201481428Y-53792380D02*
X201481428Y-52792380D01*
X201862380Y-52792380D01*
X201957619Y-52840000D01*
X202005238Y-52887619D01*
X202052857Y-52982857D01*
X202052857Y-53125714D01*
X202005238Y-53220952D01*
X201957619Y-53268571D01*
X201862380Y-53316190D01*
X201481428Y-53316190D01*
X202481428Y-53792380D02*
X202481428Y-52792380D01*
X202814761Y-52792380D02*
X203148095Y-53792380D01*
X203481428Y-52792380D01*
X203814761Y-53268571D02*
X204148095Y-53268571D01*
X204290952Y-53792380D02*
X203814761Y-53792380D01*
X203814761Y-52792380D01*
X204290952Y-52792380D01*
X205148095Y-53125714D02*
X205148095Y-53792380D01*
X204910000Y-52744761D02*
X204671904Y-53459047D01*
X205290952Y-53459047D01*
X152074285Y-53752380D02*
X152074285Y-52752380D01*
X152455238Y-52752380D01*
X152550476Y-52800000D01*
X152598095Y-52847619D01*
X152645714Y-52942857D01*
X152645714Y-53085714D01*
X152598095Y-53180952D01*
X152550476Y-53228571D01*
X152455238Y-53276190D01*
X152074285Y-53276190D01*
X153264761Y-52752380D02*
X153455238Y-52752380D01*
X153550476Y-52800000D01*
X153645714Y-52895238D01*
X153693333Y-53085714D01*
X153693333Y-53419047D01*
X153645714Y-53609523D01*
X153550476Y-53704761D01*
X153455238Y-53752380D01*
X153264761Y-53752380D01*
X153169523Y-53704761D01*
X153074285Y-53609523D01*
X153026666Y-53419047D01*
X153026666Y-53085714D01*
X153074285Y-52895238D01*
X153169523Y-52800000D01*
X153264761Y-52752380D01*
X153979047Y-52752380D02*
X154550476Y-52752380D01*
X154264761Y-53752380D02*
X154264761Y-52752380D01*
X154645714Y-53847619D02*
X155407619Y-53847619D01*
X155645714Y-53752380D02*
X155645714Y-52752380D01*
X156121904Y-53752380D02*
X156121904Y-52752380D01*
X156693333Y-53752380D01*
X156693333Y-52752380D01*
X156931428Y-53847619D02*
X157693333Y-53847619D01*
X157931428Y-53752380D02*
X157931428Y-52752380D01*
X158169523Y-52752380D01*
X158312380Y-52800000D01*
X158407619Y-52895238D01*
X158455238Y-52990476D01*
X158502857Y-53180952D01*
X158502857Y-53323809D01*
X158455238Y-53514285D01*
X158407619Y-53609523D01*
X158312380Y-53704761D01*
X158169523Y-53752380D01*
X157931428Y-53752380D01*
X159502857Y-53752380D02*
X159169523Y-53276190D01*
X158931428Y-53752380D02*
X158931428Y-52752380D01*
X159312380Y-52752380D01*
X159407619Y-52800000D01*
X159455238Y-52847619D01*
X159502857Y-52942857D01*
X159502857Y-53085714D01*
X159455238Y-53180952D01*
X159407619Y-53228571D01*
X159312380Y-53276190D01*
X158931428Y-53276190D01*
X159931428Y-53752380D02*
X159931428Y-52752380D01*
X160264761Y-52752380D02*
X160598095Y-53752380D01*
X160931428Y-52752380D01*
X161264761Y-53228571D02*
X161598095Y-53228571D01*
X161740952Y-53752380D02*
X161264761Y-53752380D01*
X161264761Y-52752380D01*
X161740952Y-52752380D01*
X162074285Y-52752380D02*
X162693333Y-52752380D01*
X162360000Y-53133333D01*
X162502857Y-53133333D01*
X162598095Y-53180952D01*
X162645714Y-53228571D01*
X162693333Y-53323809D01*
X162693333Y-53561904D01*
X162645714Y-53657142D01*
X162598095Y-53704761D01*
X162502857Y-53752380D01*
X162217142Y-53752380D01*
X162121904Y-53704761D01*
X162074285Y-53657142D01*
X110524285Y-53722380D02*
X110524285Y-52722380D01*
X110905238Y-52722380D01*
X111000476Y-52770000D01*
X111048095Y-52817619D01*
X111095714Y-52912857D01*
X111095714Y-53055714D01*
X111048095Y-53150952D01*
X111000476Y-53198571D01*
X110905238Y-53246190D01*
X110524285Y-53246190D01*
X111714761Y-52722380D02*
X111905238Y-52722380D01*
X112000476Y-52770000D01*
X112095714Y-52865238D01*
X112143333Y-53055714D01*
X112143333Y-53389047D01*
X112095714Y-53579523D01*
X112000476Y-53674761D01*
X111905238Y-53722380D01*
X111714761Y-53722380D01*
X111619523Y-53674761D01*
X111524285Y-53579523D01*
X111476666Y-53389047D01*
X111476666Y-53055714D01*
X111524285Y-52865238D01*
X111619523Y-52770000D01*
X111714761Y-52722380D01*
X112429047Y-52722380D02*
X113000476Y-52722380D01*
X112714761Y-53722380D02*
X112714761Y-52722380D01*
X113095714Y-53817619D02*
X113857619Y-53817619D01*
X114095714Y-53722380D02*
X114095714Y-52722380D01*
X114571904Y-53722380D02*
X114571904Y-52722380D01*
X115143333Y-53722380D01*
X115143333Y-52722380D01*
X115381428Y-53817619D02*
X116143333Y-53817619D01*
X116381428Y-53722380D02*
X116381428Y-52722380D01*
X116619523Y-52722380D01*
X116762380Y-52770000D01*
X116857619Y-52865238D01*
X116905238Y-52960476D01*
X116952857Y-53150952D01*
X116952857Y-53293809D01*
X116905238Y-53484285D01*
X116857619Y-53579523D01*
X116762380Y-53674761D01*
X116619523Y-53722380D01*
X116381428Y-53722380D01*
X117952857Y-53722380D02*
X117619523Y-53246190D01*
X117381428Y-53722380D02*
X117381428Y-52722380D01*
X117762380Y-52722380D01*
X117857619Y-52770000D01*
X117905238Y-52817619D01*
X117952857Y-52912857D01*
X117952857Y-53055714D01*
X117905238Y-53150952D01*
X117857619Y-53198571D01*
X117762380Y-53246190D01*
X117381428Y-53246190D01*
X118381428Y-53722380D02*
X118381428Y-52722380D01*
X118714761Y-52722380D02*
X119048095Y-53722380D01*
X119381428Y-52722380D01*
X119714761Y-53198571D02*
X120048095Y-53198571D01*
X120190952Y-53722380D02*
X119714761Y-53722380D01*
X119714761Y-52722380D01*
X120190952Y-52722380D01*
X120571904Y-52817619D02*
X120619523Y-52770000D01*
X120714761Y-52722380D01*
X120952857Y-52722380D01*
X121048095Y-52770000D01*
X121095714Y-52817619D01*
X121143333Y-52912857D01*
X121143333Y-53008095D01*
X121095714Y-53150952D01*
X120524285Y-53722380D01*
X121143333Y-53722380D01*
X69146285Y-53922380D02*
X69146285Y-52922380D01*
X69527238Y-52922380D01*
X69622476Y-52970000D01*
X69670095Y-53017619D01*
X69717714Y-53112857D01*
X69717714Y-53255714D01*
X69670095Y-53350952D01*
X69622476Y-53398571D01*
X69527238Y-53446190D01*
X69146285Y-53446190D01*
X70336761Y-52922380D02*
X70527238Y-52922380D01*
X70622476Y-52970000D01*
X70717714Y-53065238D01*
X70765333Y-53255714D01*
X70765333Y-53589047D01*
X70717714Y-53779523D01*
X70622476Y-53874761D01*
X70527238Y-53922380D01*
X70336761Y-53922380D01*
X70241523Y-53874761D01*
X70146285Y-53779523D01*
X70098666Y-53589047D01*
X70098666Y-53255714D01*
X70146285Y-53065238D01*
X70241523Y-52970000D01*
X70336761Y-52922380D01*
X71051047Y-52922380D02*
X71622476Y-52922380D01*
X71336761Y-53922380D02*
X71336761Y-52922380D01*
X71717714Y-54017619D02*
X72479619Y-54017619D01*
X72717714Y-53922380D02*
X72717714Y-52922380D01*
X73193904Y-53922380D02*
X73193904Y-52922380D01*
X73765333Y-53922380D01*
X73765333Y-52922380D01*
X74003428Y-54017619D02*
X74765333Y-54017619D01*
X75003428Y-53922380D02*
X75003428Y-52922380D01*
X75241523Y-52922380D01*
X75384380Y-52970000D01*
X75479619Y-53065238D01*
X75527238Y-53160476D01*
X75574857Y-53350952D01*
X75574857Y-53493809D01*
X75527238Y-53684285D01*
X75479619Y-53779523D01*
X75384380Y-53874761D01*
X75241523Y-53922380D01*
X75003428Y-53922380D01*
X76574857Y-53922380D02*
X76241523Y-53446190D01*
X76003428Y-53922380D02*
X76003428Y-52922380D01*
X76384380Y-52922380D01*
X76479619Y-52970000D01*
X76527238Y-53017619D01*
X76574857Y-53112857D01*
X76574857Y-53255714D01*
X76527238Y-53350952D01*
X76479619Y-53398571D01*
X76384380Y-53446190D01*
X76003428Y-53446190D01*
X77003428Y-53922380D02*
X77003428Y-52922380D01*
X77336761Y-52922380D02*
X77670095Y-53922380D01*
X78003428Y-52922380D01*
X78336761Y-53398571D02*
X78670095Y-53398571D01*
X78812952Y-53922380D02*
X78336761Y-53922380D01*
X78336761Y-52922380D01*
X78812952Y-52922380D01*
X79765333Y-53922380D02*
X79193904Y-53922380D01*
X79479619Y-53922380D02*
X79479619Y-52922380D01*
X79384380Y-53065238D01*
X79289142Y-53160476D01*
X79193904Y-53208095D01*
X195925714Y-77832380D02*
X195925714Y-76832380D01*
X196306666Y-76832380D01*
X196401904Y-76880000D01*
X196449523Y-76927619D01*
X196497142Y-77022857D01*
X196497142Y-77165714D01*
X196449523Y-77260952D01*
X196401904Y-77308571D01*
X196306666Y-77356190D01*
X195925714Y-77356190D01*
X197116190Y-76832380D02*
X197306666Y-76832380D01*
X197401904Y-76880000D01*
X197497142Y-76975238D01*
X197544761Y-77165714D01*
X197544761Y-77499047D01*
X197497142Y-77689523D01*
X197401904Y-77784761D01*
X197306666Y-77832380D01*
X197116190Y-77832380D01*
X197020952Y-77784761D01*
X196925714Y-77689523D01*
X196878095Y-77499047D01*
X196878095Y-77165714D01*
X196925714Y-76975238D01*
X197020952Y-76880000D01*
X197116190Y-76832380D01*
X197830476Y-76832380D02*
X198401904Y-76832380D01*
X198116190Y-77832380D02*
X198116190Y-76832380D01*
X198497142Y-77927619D02*
X199259047Y-77927619D01*
X200020952Y-76880000D02*
X199925714Y-76832380D01*
X199782857Y-76832380D01*
X199640000Y-76880000D01*
X199544761Y-76975238D01*
X199497142Y-77070476D01*
X199449523Y-77260952D01*
X199449523Y-77403809D01*
X199497142Y-77594285D01*
X199544761Y-77689523D01*
X199640000Y-77784761D01*
X199782857Y-77832380D01*
X199878095Y-77832380D01*
X200020952Y-77784761D01*
X200068571Y-77737142D01*
X200068571Y-77403809D01*
X199878095Y-77403809D01*
X200449523Y-77546666D02*
X200925714Y-77546666D01*
X200354285Y-77832380D02*
X200687619Y-76832380D01*
X201020952Y-77832380D01*
X201354285Y-77832380D02*
X201354285Y-76832380D01*
X201830476Y-77832380D02*
X201830476Y-76832380D01*
X202401904Y-77832380D01*
X202401904Y-76832380D01*
X203306666Y-77165714D02*
X203306666Y-77832380D01*
X203068571Y-76784761D02*
X202830476Y-77499047D01*
X203449523Y-77499047D01*
X153915714Y-77772380D02*
X153915714Y-76772380D01*
X154296666Y-76772380D01*
X154391904Y-76820000D01*
X154439523Y-76867619D01*
X154487142Y-76962857D01*
X154487142Y-77105714D01*
X154439523Y-77200952D01*
X154391904Y-77248571D01*
X154296666Y-77296190D01*
X153915714Y-77296190D01*
X155106190Y-76772380D02*
X155296666Y-76772380D01*
X155391904Y-76820000D01*
X155487142Y-76915238D01*
X155534761Y-77105714D01*
X155534761Y-77439047D01*
X155487142Y-77629523D01*
X155391904Y-77724761D01*
X155296666Y-77772380D01*
X155106190Y-77772380D01*
X155010952Y-77724761D01*
X154915714Y-77629523D01*
X154868095Y-77439047D01*
X154868095Y-77105714D01*
X154915714Y-76915238D01*
X155010952Y-76820000D01*
X155106190Y-76772380D01*
X155820476Y-76772380D02*
X156391904Y-76772380D01*
X156106190Y-77772380D02*
X156106190Y-76772380D01*
X156487142Y-77867619D02*
X157249047Y-77867619D01*
X158010952Y-76820000D02*
X157915714Y-76772380D01*
X157772857Y-76772380D01*
X157630000Y-76820000D01*
X157534761Y-76915238D01*
X157487142Y-77010476D01*
X157439523Y-77200952D01*
X157439523Y-77343809D01*
X157487142Y-77534285D01*
X157534761Y-77629523D01*
X157630000Y-77724761D01*
X157772857Y-77772380D01*
X157868095Y-77772380D01*
X158010952Y-77724761D01*
X158058571Y-77677142D01*
X158058571Y-77343809D01*
X157868095Y-77343809D01*
X158439523Y-77486666D02*
X158915714Y-77486666D01*
X158344285Y-77772380D02*
X158677619Y-76772380D01*
X159010952Y-77772380D01*
X159344285Y-77772380D02*
X159344285Y-76772380D01*
X159820476Y-77772380D02*
X159820476Y-76772380D01*
X160391904Y-77772380D01*
X160391904Y-76772380D01*
X160772857Y-76772380D02*
X161391904Y-76772380D01*
X161058571Y-77153333D01*
X161201428Y-77153333D01*
X161296666Y-77200952D01*
X161344285Y-77248571D01*
X161391904Y-77343809D01*
X161391904Y-77581904D01*
X161344285Y-77677142D01*
X161296666Y-77724761D01*
X161201428Y-77772380D01*
X160915714Y-77772380D01*
X160820476Y-77724761D01*
X160772857Y-77677142D01*
X111905714Y-77852380D02*
X111905714Y-76852380D01*
X112286666Y-76852380D01*
X112381904Y-76900000D01*
X112429523Y-76947619D01*
X112477142Y-77042857D01*
X112477142Y-77185714D01*
X112429523Y-77280952D01*
X112381904Y-77328571D01*
X112286666Y-77376190D01*
X111905714Y-77376190D01*
X113096190Y-76852380D02*
X113286666Y-76852380D01*
X113381904Y-76900000D01*
X113477142Y-76995238D01*
X113524761Y-77185714D01*
X113524761Y-77519047D01*
X113477142Y-77709523D01*
X113381904Y-77804761D01*
X113286666Y-77852380D01*
X113096190Y-77852380D01*
X113000952Y-77804761D01*
X112905714Y-77709523D01*
X112858095Y-77519047D01*
X112858095Y-77185714D01*
X112905714Y-76995238D01*
X113000952Y-76900000D01*
X113096190Y-76852380D01*
X113810476Y-76852380D02*
X114381904Y-76852380D01*
X114096190Y-77852380D02*
X114096190Y-76852380D01*
X114477142Y-77947619D02*
X115239047Y-77947619D01*
X116000952Y-76900000D02*
X115905714Y-76852380D01*
X115762857Y-76852380D01*
X115620000Y-76900000D01*
X115524761Y-76995238D01*
X115477142Y-77090476D01*
X115429523Y-77280952D01*
X115429523Y-77423809D01*
X115477142Y-77614285D01*
X115524761Y-77709523D01*
X115620000Y-77804761D01*
X115762857Y-77852380D01*
X115858095Y-77852380D01*
X116000952Y-77804761D01*
X116048571Y-77757142D01*
X116048571Y-77423809D01*
X115858095Y-77423809D01*
X116429523Y-77566666D02*
X116905714Y-77566666D01*
X116334285Y-77852380D02*
X116667619Y-76852380D01*
X117000952Y-77852380D01*
X117334285Y-77852380D02*
X117334285Y-76852380D01*
X117810476Y-77852380D02*
X117810476Y-76852380D01*
X118381904Y-77852380D01*
X118381904Y-76852380D01*
X118810476Y-76947619D02*
X118858095Y-76900000D01*
X118953333Y-76852380D01*
X119191428Y-76852380D01*
X119286666Y-76900000D01*
X119334285Y-76947619D01*
X119381904Y-77042857D01*
X119381904Y-77138095D01*
X119334285Y-77280952D01*
X118762857Y-77852380D01*
X119381904Y-77852380D01*
X70597714Y-78062380D02*
X70597714Y-77062380D01*
X70978666Y-77062380D01*
X71073904Y-77110000D01*
X71121523Y-77157619D01*
X71169142Y-77252857D01*
X71169142Y-77395714D01*
X71121523Y-77490952D01*
X71073904Y-77538571D01*
X70978666Y-77586190D01*
X70597714Y-77586190D01*
X71788190Y-77062380D02*
X71978666Y-77062380D01*
X72073904Y-77110000D01*
X72169142Y-77205238D01*
X72216761Y-77395714D01*
X72216761Y-77729047D01*
X72169142Y-77919523D01*
X72073904Y-78014761D01*
X71978666Y-78062380D01*
X71788190Y-78062380D01*
X71692952Y-78014761D01*
X71597714Y-77919523D01*
X71550095Y-77729047D01*
X71550095Y-77395714D01*
X71597714Y-77205238D01*
X71692952Y-77110000D01*
X71788190Y-77062380D01*
X72502476Y-77062380D02*
X73073904Y-77062380D01*
X72788190Y-78062380D02*
X72788190Y-77062380D01*
X73169142Y-78157619D02*
X73931047Y-78157619D01*
X74692952Y-77110000D02*
X74597714Y-77062380D01*
X74454857Y-77062380D01*
X74312000Y-77110000D01*
X74216761Y-77205238D01*
X74169142Y-77300476D01*
X74121523Y-77490952D01*
X74121523Y-77633809D01*
X74169142Y-77824285D01*
X74216761Y-77919523D01*
X74312000Y-78014761D01*
X74454857Y-78062380D01*
X74550095Y-78062380D01*
X74692952Y-78014761D01*
X74740571Y-77967142D01*
X74740571Y-77633809D01*
X74550095Y-77633809D01*
X75121523Y-77776666D02*
X75597714Y-77776666D01*
X75026285Y-78062380D02*
X75359619Y-77062380D01*
X75692952Y-78062380D01*
X76026285Y-78062380D02*
X76026285Y-77062380D01*
X76502476Y-78062380D02*
X76502476Y-77062380D01*
X77073904Y-78062380D01*
X77073904Y-77062380D01*
X78073904Y-78062380D02*
X77502476Y-78062380D01*
X77788190Y-78062380D02*
X77788190Y-77062380D01*
X77692952Y-77205238D01*
X77597714Y-77300476D01*
X77502476Y-77348095D01*
X215274285Y-53732380D02*
X215274285Y-52732380D01*
X215655238Y-52732380D01*
X215750476Y-52780000D01*
X215798095Y-52827619D01*
X215845714Y-52922857D01*
X215845714Y-53065714D01*
X215798095Y-53160952D01*
X215750476Y-53208571D01*
X215655238Y-53256190D01*
X215274285Y-53256190D01*
X216464761Y-52732380D02*
X216655238Y-52732380D01*
X216750476Y-52780000D01*
X216845714Y-52875238D01*
X216893333Y-53065714D01*
X216893333Y-53399047D01*
X216845714Y-53589523D01*
X216750476Y-53684761D01*
X216655238Y-53732380D01*
X216464761Y-53732380D01*
X216369523Y-53684761D01*
X216274285Y-53589523D01*
X216226666Y-53399047D01*
X216226666Y-53065714D01*
X216274285Y-52875238D01*
X216369523Y-52780000D01*
X216464761Y-52732380D01*
X217179047Y-52732380D02*
X217750476Y-52732380D01*
X217464761Y-53732380D02*
X217464761Y-52732380D01*
X217845714Y-53827619D02*
X218607619Y-53827619D01*
X219179047Y-53208571D02*
X218845714Y-53208571D01*
X218845714Y-53732380D02*
X218845714Y-52732380D01*
X219321904Y-52732380D01*
X219702857Y-53208571D02*
X220036190Y-53208571D01*
X220179047Y-53732380D02*
X219702857Y-53732380D01*
X219702857Y-52732380D01*
X220179047Y-52732380D01*
X220607619Y-53208571D02*
X220940952Y-53208571D01*
X221083809Y-53732380D02*
X220607619Y-53732380D01*
X220607619Y-52732380D01*
X221083809Y-52732380D01*
X221512380Y-53732380D02*
X221512380Y-52732380D01*
X221750476Y-52732380D01*
X221893333Y-52780000D01*
X221988571Y-52875238D01*
X222036190Y-52970476D01*
X222083809Y-53160952D01*
X222083809Y-53303809D01*
X222036190Y-53494285D01*
X221988571Y-53589523D01*
X221893333Y-53684761D01*
X221750476Y-53732380D01*
X221512380Y-53732380D01*
X222845714Y-53208571D02*
X222988571Y-53256190D01*
X223036190Y-53303809D01*
X223083809Y-53399047D01*
X223083809Y-53541904D01*
X223036190Y-53637142D01*
X222988571Y-53684761D01*
X222893333Y-53732380D01*
X222512380Y-53732380D01*
X222512380Y-52732380D01*
X222845714Y-52732380D01*
X222940952Y-52780000D01*
X222988571Y-52827619D01*
X223036190Y-52922857D01*
X223036190Y-53018095D01*
X222988571Y-53113333D01*
X222940952Y-53160952D01*
X222845714Y-53208571D01*
X222512380Y-53208571D01*
X223464761Y-53446666D02*
X223940952Y-53446666D01*
X223369523Y-53732380D02*
X223702857Y-52732380D01*
X224036190Y-53732380D01*
X224940952Y-53637142D02*
X224893333Y-53684761D01*
X224750476Y-53732380D01*
X224655238Y-53732380D01*
X224512380Y-53684761D01*
X224417142Y-53589523D01*
X224369523Y-53494285D01*
X224321904Y-53303809D01*
X224321904Y-53160952D01*
X224369523Y-52970476D01*
X224417142Y-52875238D01*
X224512380Y-52780000D01*
X224655238Y-52732380D01*
X224750476Y-52732380D01*
X224893333Y-52780000D01*
X224940952Y-52827619D01*
X225369523Y-53732380D02*
X225369523Y-52732380D01*
X225940952Y-53732380D02*
X225512380Y-53160952D01*
X225940952Y-52732380D02*
X225369523Y-53303809D01*
X226798095Y-53065714D02*
X226798095Y-53732380D01*
X226560000Y-52684761D02*
X226321904Y-53399047D01*
X226940952Y-53399047D01*
X173354285Y-53842380D02*
X173354285Y-52842380D01*
X173735238Y-52842380D01*
X173830476Y-52890000D01*
X173878095Y-52937619D01*
X173925714Y-53032857D01*
X173925714Y-53175714D01*
X173878095Y-53270952D01*
X173830476Y-53318571D01*
X173735238Y-53366190D01*
X173354285Y-53366190D01*
X174544761Y-52842380D02*
X174735238Y-52842380D01*
X174830476Y-52890000D01*
X174925714Y-52985238D01*
X174973333Y-53175714D01*
X174973333Y-53509047D01*
X174925714Y-53699523D01*
X174830476Y-53794761D01*
X174735238Y-53842380D01*
X174544761Y-53842380D01*
X174449523Y-53794761D01*
X174354285Y-53699523D01*
X174306666Y-53509047D01*
X174306666Y-53175714D01*
X174354285Y-52985238D01*
X174449523Y-52890000D01*
X174544761Y-52842380D01*
X175259047Y-52842380D02*
X175830476Y-52842380D01*
X175544761Y-53842380D02*
X175544761Y-52842380D01*
X175925714Y-53937619D02*
X176687619Y-53937619D01*
X177259047Y-53318571D02*
X176925714Y-53318571D01*
X176925714Y-53842380D02*
X176925714Y-52842380D01*
X177401904Y-52842380D01*
X177782857Y-53318571D02*
X178116190Y-53318571D01*
X178259047Y-53842380D02*
X177782857Y-53842380D01*
X177782857Y-52842380D01*
X178259047Y-52842380D01*
X178687619Y-53318571D02*
X179020952Y-53318571D01*
X179163809Y-53842380D02*
X178687619Y-53842380D01*
X178687619Y-52842380D01*
X179163809Y-52842380D01*
X179592380Y-53842380D02*
X179592380Y-52842380D01*
X179830476Y-52842380D01*
X179973333Y-52890000D01*
X180068571Y-52985238D01*
X180116190Y-53080476D01*
X180163809Y-53270952D01*
X180163809Y-53413809D01*
X180116190Y-53604285D01*
X180068571Y-53699523D01*
X179973333Y-53794761D01*
X179830476Y-53842380D01*
X179592380Y-53842380D01*
X180925714Y-53318571D02*
X181068571Y-53366190D01*
X181116190Y-53413809D01*
X181163809Y-53509047D01*
X181163809Y-53651904D01*
X181116190Y-53747142D01*
X181068571Y-53794761D01*
X180973333Y-53842380D01*
X180592380Y-53842380D01*
X180592380Y-52842380D01*
X180925714Y-52842380D01*
X181020952Y-52890000D01*
X181068571Y-52937619D01*
X181116190Y-53032857D01*
X181116190Y-53128095D01*
X181068571Y-53223333D01*
X181020952Y-53270952D01*
X180925714Y-53318571D01*
X180592380Y-53318571D01*
X181544761Y-53556666D02*
X182020952Y-53556666D01*
X181449523Y-53842380D02*
X181782857Y-52842380D01*
X182116190Y-53842380D01*
X183020952Y-53747142D02*
X182973333Y-53794761D01*
X182830476Y-53842380D01*
X182735238Y-53842380D01*
X182592380Y-53794761D01*
X182497142Y-53699523D01*
X182449523Y-53604285D01*
X182401904Y-53413809D01*
X182401904Y-53270952D01*
X182449523Y-53080476D01*
X182497142Y-52985238D01*
X182592380Y-52890000D01*
X182735238Y-52842380D01*
X182830476Y-52842380D01*
X182973333Y-52890000D01*
X183020952Y-52937619D01*
X183449523Y-53842380D02*
X183449523Y-52842380D01*
X184020952Y-53842380D02*
X183592380Y-53270952D01*
X184020952Y-52842380D02*
X183449523Y-53413809D01*
X184354285Y-52842380D02*
X184973333Y-52842380D01*
X184640000Y-53223333D01*
X184782857Y-53223333D01*
X184878095Y-53270952D01*
X184925714Y-53318571D01*
X184973333Y-53413809D01*
X184973333Y-53651904D01*
X184925714Y-53747142D01*
X184878095Y-53794761D01*
X184782857Y-53842380D01*
X184497142Y-53842380D01*
X184401904Y-53794761D01*
X184354285Y-53747142D01*
X131294285Y-53842380D02*
X131294285Y-52842380D01*
X131675238Y-52842380D01*
X131770476Y-52890000D01*
X131818095Y-52937619D01*
X131865714Y-53032857D01*
X131865714Y-53175714D01*
X131818095Y-53270952D01*
X131770476Y-53318571D01*
X131675238Y-53366190D01*
X131294285Y-53366190D01*
X132484761Y-52842380D02*
X132675238Y-52842380D01*
X132770476Y-52890000D01*
X132865714Y-52985238D01*
X132913333Y-53175714D01*
X132913333Y-53509047D01*
X132865714Y-53699523D01*
X132770476Y-53794761D01*
X132675238Y-53842380D01*
X132484761Y-53842380D01*
X132389523Y-53794761D01*
X132294285Y-53699523D01*
X132246666Y-53509047D01*
X132246666Y-53175714D01*
X132294285Y-52985238D01*
X132389523Y-52890000D01*
X132484761Y-52842380D01*
X133199047Y-52842380D02*
X133770476Y-52842380D01*
X133484761Y-53842380D02*
X133484761Y-52842380D01*
X133865714Y-53937619D02*
X134627619Y-53937619D01*
X135199047Y-53318571D02*
X134865714Y-53318571D01*
X134865714Y-53842380D02*
X134865714Y-52842380D01*
X135341904Y-52842380D01*
X135722857Y-53318571D02*
X136056190Y-53318571D01*
X136199047Y-53842380D02*
X135722857Y-53842380D01*
X135722857Y-52842380D01*
X136199047Y-52842380D01*
X136627619Y-53318571D02*
X136960952Y-53318571D01*
X137103809Y-53842380D02*
X136627619Y-53842380D01*
X136627619Y-52842380D01*
X137103809Y-52842380D01*
X137532380Y-53842380D02*
X137532380Y-52842380D01*
X137770476Y-52842380D01*
X137913333Y-52890000D01*
X138008571Y-52985238D01*
X138056190Y-53080476D01*
X138103809Y-53270952D01*
X138103809Y-53413809D01*
X138056190Y-53604285D01*
X138008571Y-53699523D01*
X137913333Y-53794761D01*
X137770476Y-53842380D01*
X137532380Y-53842380D01*
X138865714Y-53318571D02*
X139008571Y-53366190D01*
X139056190Y-53413809D01*
X139103809Y-53509047D01*
X139103809Y-53651904D01*
X139056190Y-53747142D01*
X139008571Y-53794761D01*
X138913333Y-53842380D01*
X138532380Y-53842380D01*
X138532380Y-52842380D01*
X138865714Y-52842380D01*
X138960952Y-52890000D01*
X139008571Y-52937619D01*
X139056190Y-53032857D01*
X139056190Y-53128095D01*
X139008571Y-53223333D01*
X138960952Y-53270952D01*
X138865714Y-53318571D01*
X138532380Y-53318571D01*
X139484761Y-53556666D02*
X139960952Y-53556666D01*
X139389523Y-53842380D02*
X139722857Y-52842380D01*
X140056190Y-53842380D01*
X140960952Y-53747142D02*
X140913333Y-53794761D01*
X140770476Y-53842380D01*
X140675238Y-53842380D01*
X140532380Y-53794761D01*
X140437142Y-53699523D01*
X140389523Y-53604285D01*
X140341904Y-53413809D01*
X140341904Y-53270952D01*
X140389523Y-53080476D01*
X140437142Y-52985238D01*
X140532380Y-52890000D01*
X140675238Y-52842380D01*
X140770476Y-52842380D01*
X140913333Y-52890000D01*
X140960952Y-52937619D01*
X141389523Y-53842380D02*
X141389523Y-52842380D01*
X141960952Y-53842380D02*
X141532380Y-53270952D01*
X141960952Y-52842380D02*
X141389523Y-53413809D01*
X142341904Y-52937619D02*
X142389523Y-52890000D01*
X142484761Y-52842380D01*
X142722857Y-52842380D01*
X142818095Y-52890000D01*
X142865714Y-52937619D01*
X142913333Y-53032857D01*
X142913333Y-53128095D01*
X142865714Y-53270952D01*
X142294285Y-53842380D01*
X142913333Y-53842380D01*
X89835285Y-53742380D02*
X89835285Y-52742380D01*
X90216238Y-52742380D01*
X90311476Y-52790000D01*
X90359095Y-52837619D01*
X90406714Y-52932857D01*
X90406714Y-53075714D01*
X90359095Y-53170952D01*
X90311476Y-53218571D01*
X90216238Y-53266190D01*
X89835285Y-53266190D01*
X91025761Y-52742380D02*
X91216238Y-52742380D01*
X91311476Y-52790000D01*
X91406714Y-52885238D01*
X91454333Y-53075714D01*
X91454333Y-53409047D01*
X91406714Y-53599523D01*
X91311476Y-53694761D01*
X91216238Y-53742380D01*
X91025761Y-53742380D01*
X90930523Y-53694761D01*
X90835285Y-53599523D01*
X90787666Y-53409047D01*
X90787666Y-53075714D01*
X90835285Y-52885238D01*
X90930523Y-52790000D01*
X91025761Y-52742380D01*
X91740047Y-52742380D02*
X92311476Y-52742380D01*
X92025761Y-53742380D02*
X92025761Y-52742380D01*
X92406714Y-53837619D02*
X93168619Y-53837619D01*
X93740047Y-53218571D02*
X93406714Y-53218571D01*
X93406714Y-53742380D02*
X93406714Y-52742380D01*
X93882904Y-52742380D01*
X94263857Y-53218571D02*
X94597190Y-53218571D01*
X94740047Y-53742380D02*
X94263857Y-53742380D01*
X94263857Y-52742380D01*
X94740047Y-52742380D01*
X95168619Y-53218571D02*
X95501952Y-53218571D01*
X95644809Y-53742380D02*
X95168619Y-53742380D01*
X95168619Y-52742380D01*
X95644809Y-52742380D01*
X96073380Y-53742380D02*
X96073380Y-52742380D01*
X96311476Y-52742380D01*
X96454333Y-52790000D01*
X96549571Y-52885238D01*
X96597190Y-52980476D01*
X96644809Y-53170952D01*
X96644809Y-53313809D01*
X96597190Y-53504285D01*
X96549571Y-53599523D01*
X96454333Y-53694761D01*
X96311476Y-53742380D01*
X96073380Y-53742380D01*
X97406714Y-53218571D02*
X97549571Y-53266190D01*
X97597190Y-53313809D01*
X97644809Y-53409047D01*
X97644809Y-53551904D01*
X97597190Y-53647142D01*
X97549571Y-53694761D01*
X97454333Y-53742380D01*
X97073380Y-53742380D01*
X97073380Y-52742380D01*
X97406714Y-52742380D01*
X97501952Y-52790000D01*
X97549571Y-52837619D01*
X97597190Y-52932857D01*
X97597190Y-53028095D01*
X97549571Y-53123333D01*
X97501952Y-53170952D01*
X97406714Y-53218571D01*
X97073380Y-53218571D01*
X98025761Y-53456666D02*
X98501952Y-53456666D01*
X97930523Y-53742380D02*
X98263857Y-52742380D01*
X98597190Y-53742380D01*
X99501952Y-53647142D02*
X99454333Y-53694761D01*
X99311476Y-53742380D01*
X99216238Y-53742380D01*
X99073380Y-53694761D01*
X98978142Y-53599523D01*
X98930523Y-53504285D01*
X98882904Y-53313809D01*
X98882904Y-53170952D01*
X98930523Y-52980476D01*
X98978142Y-52885238D01*
X99073380Y-52790000D01*
X99216238Y-52742380D01*
X99311476Y-52742380D01*
X99454333Y-52790000D01*
X99501952Y-52837619D01*
X99930523Y-53742380D02*
X99930523Y-52742380D01*
X100501952Y-53742380D02*
X100073380Y-53170952D01*
X100501952Y-52742380D02*
X99930523Y-53313809D01*
X101454333Y-53742380D02*
X100882904Y-53742380D01*
X101168619Y-53742380D02*
X101168619Y-52742380D01*
X101073380Y-52885238D01*
X100978142Y-52980476D01*
X100882904Y-53028095D01*
X215863809Y-78362380D02*
X215863809Y-77362380D01*
X216244761Y-77362380D01*
X216340000Y-77410000D01*
X216387619Y-77457619D01*
X216435238Y-77552857D01*
X216435238Y-77695714D01*
X216387619Y-77790952D01*
X216340000Y-77838571D01*
X216244761Y-77886190D01*
X215863809Y-77886190D01*
X217054285Y-77362380D02*
X217244761Y-77362380D01*
X217340000Y-77410000D01*
X217435238Y-77505238D01*
X217482857Y-77695714D01*
X217482857Y-78029047D01*
X217435238Y-78219523D01*
X217340000Y-78314761D01*
X217244761Y-78362380D01*
X217054285Y-78362380D01*
X216959047Y-78314761D01*
X216863809Y-78219523D01*
X216816190Y-78029047D01*
X216816190Y-77695714D01*
X216863809Y-77505238D01*
X216959047Y-77410000D01*
X217054285Y-77362380D01*
X217768571Y-77362380D02*
X218340000Y-77362380D01*
X218054285Y-78362380D02*
X218054285Y-77362380D01*
X218435238Y-78457619D02*
X219197142Y-78457619D01*
X220006666Y-78267142D02*
X219959047Y-78314761D01*
X219816190Y-78362380D01*
X219720952Y-78362380D01*
X219578095Y-78314761D01*
X219482857Y-78219523D01*
X219435238Y-78124285D01*
X219387619Y-77933809D01*
X219387619Y-77790952D01*
X219435238Y-77600476D01*
X219482857Y-77505238D01*
X219578095Y-77410000D01*
X219720952Y-77362380D01*
X219816190Y-77362380D01*
X219959047Y-77410000D01*
X220006666Y-77457619D01*
X220292380Y-77362380D02*
X220625714Y-78362380D01*
X220959047Y-77362380D01*
X221054285Y-78457619D02*
X221816190Y-78457619D01*
X222530476Y-78362380D02*
X222054285Y-78362380D01*
X222054285Y-77362380D01*
X222863809Y-77838571D02*
X223197142Y-77838571D01*
X223340000Y-78362380D02*
X222863809Y-78362380D01*
X222863809Y-77362380D01*
X223340000Y-77362380D01*
X223625714Y-77362380D02*
X223959047Y-78362380D01*
X224292380Y-77362380D01*
X224625714Y-77838571D02*
X224959047Y-77838571D01*
X225101904Y-78362380D02*
X224625714Y-78362380D01*
X224625714Y-77362380D01*
X225101904Y-77362380D01*
X226006666Y-78362380D02*
X225530476Y-78362380D01*
X225530476Y-77362380D01*
X226768571Y-77695714D02*
X226768571Y-78362380D01*
X226530476Y-77314761D02*
X226292380Y-78029047D01*
X226911428Y-78029047D01*
X173793809Y-77942380D02*
X173793809Y-76942380D01*
X174174761Y-76942380D01*
X174270000Y-76990000D01*
X174317619Y-77037619D01*
X174365238Y-77132857D01*
X174365238Y-77275714D01*
X174317619Y-77370952D01*
X174270000Y-77418571D01*
X174174761Y-77466190D01*
X173793809Y-77466190D01*
X174984285Y-76942380D02*
X175174761Y-76942380D01*
X175270000Y-76990000D01*
X175365238Y-77085238D01*
X175412857Y-77275714D01*
X175412857Y-77609047D01*
X175365238Y-77799523D01*
X175270000Y-77894761D01*
X175174761Y-77942380D01*
X174984285Y-77942380D01*
X174889047Y-77894761D01*
X174793809Y-77799523D01*
X174746190Y-77609047D01*
X174746190Y-77275714D01*
X174793809Y-77085238D01*
X174889047Y-76990000D01*
X174984285Y-76942380D01*
X175698571Y-76942380D02*
X176270000Y-76942380D01*
X175984285Y-77942380D02*
X175984285Y-76942380D01*
X176365238Y-78037619D02*
X177127142Y-78037619D01*
X177936666Y-77847142D02*
X177889047Y-77894761D01*
X177746190Y-77942380D01*
X177650952Y-77942380D01*
X177508095Y-77894761D01*
X177412857Y-77799523D01*
X177365238Y-77704285D01*
X177317619Y-77513809D01*
X177317619Y-77370952D01*
X177365238Y-77180476D01*
X177412857Y-77085238D01*
X177508095Y-76990000D01*
X177650952Y-76942380D01*
X177746190Y-76942380D01*
X177889047Y-76990000D01*
X177936666Y-77037619D01*
X178222380Y-76942380D02*
X178555714Y-77942380D01*
X178889047Y-76942380D01*
X178984285Y-78037619D02*
X179746190Y-78037619D01*
X180460476Y-77942380D02*
X179984285Y-77942380D01*
X179984285Y-76942380D01*
X180793809Y-77418571D02*
X181127142Y-77418571D01*
X181270000Y-77942380D02*
X180793809Y-77942380D01*
X180793809Y-76942380D01*
X181270000Y-76942380D01*
X181555714Y-76942380D02*
X181889047Y-77942380D01*
X182222380Y-76942380D01*
X182555714Y-77418571D02*
X182889047Y-77418571D01*
X183031904Y-77942380D02*
X182555714Y-77942380D01*
X182555714Y-76942380D01*
X183031904Y-76942380D01*
X183936666Y-77942380D02*
X183460476Y-77942380D01*
X183460476Y-76942380D01*
X184174761Y-76942380D02*
X184793809Y-76942380D01*
X184460476Y-77323333D01*
X184603333Y-77323333D01*
X184698571Y-77370952D01*
X184746190Y-77418571D01*
X184793809Y-77513809D01*
X184793809Y-77751904D01*
X184746190Y-77847142D01*
X184698571Y-77894761D01*
X184603333Y-77942380D01*
X184317619Y-77942380D01*
X184222380Y-77894761D01*
X184174761Y-77847142D01*
X131813809Y-77862380D02*
X131813809Y-76862380D01*
X132194761Y-76862380D01*
X132290000Y-76910000D01*
X132337619Y-76957619D01*
X132385238Y-77052857D01*
X132385238Y-77195714D01*
X132337619Y-77290952D01*
X132290000Y-77338571D01*
X132194761Y-77386190D01*
X131813809Y-77386190D01*
X133004285Y-76862380D02*
X133194761Y-76862380D01*
X133290000Y-76910000D01*
X133385238Y-77005238D01*
X133432857Y-77195714D01*
X133432857Y-77529047D01*
X133385238Y-77719523D01*
X133290000Y-77814761D01*
X133194761Y-77862380D01*
X133004285Y-77862380D01*
X132909047Y-77814761D01*
X132813809Y-77719523D01*
X132766190Y-77529047D01*
X132766190Y-77195714D01*
X132813809Y-77005238D01*
X132909047Y-76910000D01*
X133004285Y-76862380D01*
X133718571Y-76862380D02*
X134290000Y-76862380D01*
X134004285Y-77862380D02*
X134004285Y-76862380D01*
X134385238Y-77957619D02*
X135147142Y-77957619D01*
X135956666Y-77767142D02*
X135909047Y-77814761D01*
X135766190Y-77862380D01*
X135670952Y-77862380D01*
X135528095Y-77814761D01*
X135432857Y-77719523D01*
X135385238Y-77624285D01*
X135337619Y-77433809D01*
X135337619Y-77290952D01*
X135385238Y-77100476D01*
X135432857Y-77005238D01*
X135528095Y-76910000D01*
X135670952Y-76862380D01*
X135766190Y-76862380D01*
X135909047Y-76910000D01*
X135956666Y-76957619D01*
X136242380Y-76862380D02*
X136575714Y-77862380D01*
X136909047Y-76862380D01*
X137004285Y-77957619D02*
X137766190Y-77957619D01*
X138480476Y-77862380D02*
X138004285Y-77862380D01*
X138004285Y-76862380D01*
X138813809Y-77338571D02*
X139147142Y-77338571D01*
X139290000Y-77862380D02*
X138813809Y-77862380D01*
X138813809Y-76862380D01*
X139290000Y-76862380D01*
X139575714Y-76862380D02*
X139909047Y-77862380D01*
X140242380Y-76862380D01*
X140575714Y-77338571D02*
X140909047Y-77338571D01*
X141051904Y-77862380D02*
X140575714Y-77862380D01*
X140575714Y-76862380D01*
X141051904Y-76862380D01*
X141956666Y-77862380D02*
X141480476Y-77862380D01*
X141480476Y-76862380D01*
X142242380Y-76957619D02*
X142290000Y-76910000D01*
X142385238Y-76862380D01*
X142623333Y-76862380D01*
X142718571Y-76910000D01*
X142766190Y-76957619D01*
X142813809Y-77052857D01*
X142813809Y-77148095D01*
X142766190Y-77290952D01*
X142194761Y-77862380D01*
X142813809Y-77862380D01*
X90004809Y-77942380D02*
X90004809Y-76942380D01*
X90385761Y-76942380D01*
X90481000Y-76990000D01*
X90528619Y-77037619D01*
X90576238Y-77132857D01*
X90576238Y-77275714D01*
X90528619Y-77370952D01*
X90481000Y-77418571D01*
X90385761Y-77466190D01*
X90004809Y-77466190D01*
X91195285Y-76942380D02*
X91385761Y-76942380D01*
X91481000Y-76990000D01*
X91576238Y-77085238D01*
X91623857Y-77275714D01*
X91623857Y-77609047D01*
X91576238Y-77799523D01*
X91481000Y-77894761D01*
X91385761Y-77942380D01*
X91195285Y-77942380D01*
X91100047Y-77894761D01*
X91004809Y-77799523D01*
X90957190Y-77609047D01*
X90957190Y-77275714D01*
X91004809Y-77085238D01*
X91100047Y-76990000D01*
X91195285Y-76942380D01*
X91909571Y-76942380D02*
X92481000Y-76942380D01*
X92195285Y-77942380D02*
X92195285Y-76942380D01*
X92576238Y-78037619D02*
X93338142Y-78037619D01*
X94147666Y-77847142D02*
X94100047Y-77894761D01*
X93957190Y-77942380D01*
X93861952Y-77942380D01*
X93719095Y-77894761D01*
X93623857Y-77799523D01*
X93576238Y-77704285D01*
X93528619Y-77513809D01*
X93528619Y-77370952D01*
X93576238Y-77180476D01*
X93623857Y-77085238D01*
X93719095Y-76990000D01*
X93861952Y-76942380D01*
X93957190Y-76942380D01*
X94100047Y-76990000D01*
X94147666Y-77037619D01*
X94433380Y-76942380D02*
X94766714Y-77942380D01*
X95100047Y-76942380D01*
X95195285Y-78037619D02*
X95957190Y-78037619D01*
X96671476Y-77942380D02*
X96195285Y-77942380D01*
X96195285Y-76942380D01*
X97004809Y-77418571D02*
X97338142Y-77418571D01*
X97481000Y-77942380D02*
X97004809Y-77942380D01*
X97004809Y-76942380D01*
X97481000Y-76942380D01*
X97766714Y-76942380D02*
X98100047Y-77942380D01*
X98433380Y-76942380D01*
X98766714Y-77418571D02*
X99100047Y-77418571D01*
X99242904Y-77942380D02*
X98766714Y-77942380D01*
X98766714Y-76942380D01*
X99242904Y-76942380D01*
X100147666Y-77942380D02*
X99671476Y-77942380D01*
X99671476Y-76942380D01*
X101004809Y-77942380D02*
X100433380Y-77942380D01*
X100719095Y-77942380D02*
X100719095Y-76942380D01*
X100623857Y-77085238D01*
X100528619Y-77180476D01*
X100433380Y-77228095D01*
X208866142Y-141182380D02*
X208866142Y-141896666D01*
X208818523Y-142039523D01*
X208723285Y-142134761D01*
X208580428Y-142182380D01*
X208485190Y-142182380D01*
X209104238Y-142277619D02*
X209866142Y-142277619D01*
X210294714Y-141182380D02*
X210485190Y-141182380D01*
X210580428Y-141230000D01*
X210675666Y-141325238D01*
X210723285Y-141515714D01*
X210723285Y-141849047D01*
X210675666Y-142039523D01*
X210580428Y-142134761D01*
X210485190Y-142182380D01*
X210294714Y-142182380D01*
X210199476Y-142134761D01*
X210104238Y-142039523D01*
X210056619Y-141849047D01*
X210056619Y-141515714D01*
X210104238Y-141325238D01*
X210199476Y-141230000D01*
X210294714Y-141182380D01*
X211151857Y-141182380D02*
X211151857Y-141991904D01*
X211199476Y-142087142D01*
X211247095Y-142134761D01*
X211342333Y-142182380D01*
X211532809Y-142182380D01*
X211628047Y-142134761D01*
X211675666Y-142087142D01*
X211723285Y-141991904D01*
X211723285Y-141182380D01*
X212056619Y-141182380D02*
X212628047Y-141182380D01*
X212342333Y-142182380D02*
X212342333Y-141182380D01*
X213389952Y-141515714D02*
X213389952Y-142182380D01*
X213151857Y-141134761D02*
X212913761Y-141849047D01*
X213532809Y-141849047D01*
X166936142Y-141012380D02*
X166936142Y-141726666D01*
X166888523Y-141869523D01*
X166793285Y-141964761D01*
X166650428Y-142012380D01*
X166555190Y-142012380D01*
X167174238Y-142107619D02*
X167936142Y-142107619D01*
X168364714Y-141012380D02*
X168555190Y-141012380D01*
X168650428Y-141060000D01*
X168745666Y-141155238D01*
X168793285Y-141345714D01*
X168793285Y-141679047D01*
X168745666Y-141869523D01*
X168650428Y-141964761D01*
X168555190Y-142012380D01*
X168364714Y-142012380D01*
X168269476Y-141964761D01*
X168174238Y-141869523D01*
X168126619Y-141679047D01*
X168126619Y-141345714D01*
X168174238Y-141155238D01*
X168269476Y-141060000D01*
X168364714Y-141012380D01*
X169221857Y-141012380D02*
X169221857Y-141821904D01*
X169269476Y-141917142D01*
X169317095Y-141964761D01*
X169412333Y-142012380D01*
X169602809Y-142012380D01*
X169698047Y-141964761D01*
X169745666Y-141917142D01*
X169793285Y-141821904D01*
X169793285Y-141012380D01*
X170126619Y-141012380D02*
X170698047Y-141012380D01*
X170412333Y-142012380D02*
X170412333Y-141012380D01*
X170936142Y-141012380D02*
X171555190Y-141012380D01*
X171221857Y-141393333D01*
X171364714Y-141393333D01*
X171459952Y-141440952D01*
X171507571Y-141488571D01*
X171555190Y-141583809D01*
X171555190Y-141821904D01*
X171507571Y-141917142D01*
X171459952Y-141964761D01*
X171364714Y-142012380D01*
X171079000Y-142012380D01*
X170983761Y-141964761D01*
X170936142Y-141917142D01*
X124755142Y-141082380D02*
X124755142Y-141796666D01*
X124707523Y-141939523D01*
X124612285Y-142034761D01*
X124469428Y-142082380D01*
X124374190Y-142082380D01*
X124993238Y-142177619D02*
X125755142Y-142177619D01*
X126183714Y-141082380D02*
X126374190Y-141082380D01*
X126469428Y-141130000D01*
X126564666Y-141225238D01*
X126612285Y-141415714D01*
X126612285Y-141749047D01*
X126564666Y-141939523D01*
X126469428Y-142034761D01*
X126374190Y-142082380D01*
X126183714Y-142082380D01*
X126088476Y-142034761D01*
X125993238Y-141939523D01*
X125945619Y-141749047D01*
X125945619Y-141415714D01*
X125993238Y-141225238D01*
X126088476Y-141130000D01*
X126183714Y-141082380D01*
X127040857Y-141082380D02*
X127040857Y-141891904D01*
X127088476Y-141987142D01*
X127136095Y-142034761D01*
X127231333Y-142082380D01*
X127421809Y-142082380D01*
X127517047Y-142034761D01*
X127564666Y-141987142D01*
X127612285Y-141891904D01*
X127612285Y-141082380D01*
X127945619Y-141082380D02*
X128517047Y-141082380D01*
X128231333Y-142082380D02*
X128231333Y-141082380D01*
X128802761Y-141177619D02*
X128850380Y-141130000D01*
X128945619Y-141082380D01*
X129183714Y-141082380D01*
X129278952Y-141130000D01*
X129326571Y-141177619D01*
X129374190Y-141272857D01*
X129374190Y-141368095D01*
X129326571Y-141510952D01*
X128755142Y-142082380D01*
X129374190Y-142082380D01*
X83247142Y-140882380D02*
X83247142Y-141596666D01*
X83199523Y-141739523D01*
X83104285Y-141834761D01*
X82961428Y-141882380D01*
X82866190Y-141882380D01*
X83485238Y-141977619D02*
X84247142Y-141977619D01*
X84675714Y-140882380D02*
X84866190Y-140882380D01*
X84961428Y-140930000D01*
X85056666Y-141025238D01*
X85104285Y-141215714D01*
X85104285Y-141549047D01*
X85056666Y-141739523D01*
X84961428Y-141834761D01*
X84866190Y-141882380D01*
X84675714Y-141882380D01*
X84580476Y-141834761D01*
X84485238Y-141739523D01*
X84437619Y-141549047D01*
X84437619Y-141215714D01*
X84485238Y-141025238D01*
X84580476Y-140930000D01*
X84675714Y-140882380D01*
X85532857Y-140882380D02*
X85532857Y-141691904D01*
X85580476Y-141787142D01*
X85628095Y-141834761D01*
X85723333Y-141882380D01*
X85913809Y-141882380D01*
X86009047Y-141834761D01*
X86056666Y-141787142D01*
X86104285Y-141691904D01*
X86104285Y-140882380D01*
X86437619Y-140882380D02*
X87009047Y-140882380D01*
X86723333Y-141882380D02*
X86723333Y-140882380D01*
X87866190Y-141882380D02*
X87294761Y-141882380D01*
X87580476Y-141882380D02*
X87580476Y-140882380D01*
X87485238Y-141025238D01*
X87390000Y-141120476D01*
X87294761Y-141168095D01*
X209412809Y-120872380D02*
X209412809Y-121586666D01*
X209365190Y-121729523D01*
X209269952Y-121824761D01*
X209127095Y-121872380D01*
X209031857Y-121872380D01*
X209650904Y-121967619D02*
X210412809Y-121967619D01*
X210650904Y-121872380D02*
X210650904Y-120872380D01*
X211127095Y-121872380D02*
X211127095Y-120872380D01*
X211698523Y-121872380D01*
X211698523Y-120872380D01*
X212603285Y-121205714D02*
X212603285Y-121872380D01*
X212365190Y-120824761D02*
X212127095Y-121539047D01*
X212746142Y-121539047D01*
X167272809Y-121142380D02*
X167272809Y-121856666D01*
X167225190Y-121999523D01*
X167129952Y-122094761D01*
X166987095Y-122142380D01*
X166891857Y-122142380D01*
X167510904Y-122237619D02*
X168272809Y-122237619D01*
X168510904Y-122142380D02*
X168510904Y-121142380D01*
X168987095Y-122142380D02*
X168987095Y-121142380D01*
X169558523Y-122142380D01*
X169558523Y-121142380D01*
X169939476Y-121142380D02*
X170558523Y-121142380D01*
X170225190Y-121523333D01*
X170368047Y-121523333D01*
X170463285Y-121570952D01*
X170510904Y-121618571D01*
X170558523Y-121713809D01*
X170558523Y-121951904D01*
X170510904Y-122047142D01*
X170463285Y-122094761D01*
X170368047Y-122142380D01*
X170082333Y-122142380D01*
X169987095Y-122094761D01*
X169939476Y-122047142D01*
X125131809Y-120942380D02*
X125131809Y-121656666D01*
X125084190Y-121799523D01*
X124988952Y-121894761D01*
X124846095Y-121942380D01*
X124750857Y-121942380D01*
X125369904Y-122037619D02*
X126131809Y-122037619D01*
X126369904Y-121942380D02*
X126369904Y-120942380D01*
X126846095Y-121942380D02*
X126846095Y-120942380D01*
X127417523Y-121942380D01*
X127417523Y-120942380D01*
X127846095Y-121037619D02*
X127893714Y-120990000D01*
X127988952Y-120942380D01*
X128227047Y-120942380D01*
X128322285Y-120990000D01*
X128369904Y-121037619D01*
X128417523Y-121132857D01*
X128417523Y-121228095D01*
X128369904Y-121370952D01*
X127798476Y-121942380D01*
X128417523Y-121942380D01*
X82263809Y-120892380D02*
X82263809Y-121606666D01*
X82216190Y-121749523D01*
X82120952Y-121844761D01*
X81978095Y-121892380D01*
X81882857Y-121892380D01*
X82501904Y-121987619D02*
X83263809Y-121987619D01*
X83501904Y-121892380D02*
X83501904Y-120892380D01*
X83978095Y-121892380D02*
X83978095Y-120892380D01*
X84549523Y-121892380D01*
X84549523Y-120892380D01*
X85549523Y-121892380D02*
X84978095Y-121892380D01*
X85263809Y-121892380D02*
X85263809Y-120892380D01*
X85168571Y-121035238D01*
X85073333Y-121130476D01*
X84978095Y-121178095D01*
X208453285Y-131062380D02*
X208453285Y-131776666D01*
X208405666Y-131919523D01*
X208310428Y-132014761D01*
X208167571Y-132062380D01*
X208072333Y-132062380D01*
X208691380Y-132157619D02*
X209453285Y-132157619D01*
X210262809Y-131967142D02*
X210215190Y-132014761D01*
X210072333Y-132062380D01*
X209977095Y-132062380D01*
X209834238Y-132014761D01*
X209739000Y-131919523D01*
X209691380Y-131824285D01*
X209643761Y-131633809D01*
X209643761Y-131490952D01*
X209691380Y-131300476D01*
X209739000Y-131205238D01*
X209834238Y-131110000D01*
X209977095Y-131062380D01*
X210072333Y-131062380D01*
X210215190Y-131110000D01*
X210262809Y-131157619D01*
X210548523Y-131062380D02*
X210881857Y-132062380D01*
X211215190Y-131062380D01*
X211310428Y-132157619D02*
X212072333Y-132157619D01*
X212310428Y-132062380D02*
X212310428Y-131062380D01*
X212786619Y-132062380D02*
X212786619Y-131062380D01*
X213358047Y-132062380D01*
X213358047Y-131062380D01*
X214262809Y-131395714D02*
X214262809Y-132062380D01*
X214024714Y-131014761D02*
X213786619Y-131729047D01*
X214405666Y-131729047D01*
X166183285Y-130932380D02*
X166183285Y-131646666D01*
X166135666Y-131789523D01*
X166040428Y-131884761D01*
X165897571Y-131932380D01*
X165802333Y-131932380D01*
X166421380Y-132027619D02*
X167183285Y-132027619D01*
X167992809Y-131837142D02*
X167945190Y-131884761D01*
X167802333Y-131932380D01*
X167707095Y-131932380D01*
X167564238Y-131884761D01*
X167469000Y-131789523D01*
X167421380Y-131694285D01*
X167373761Y-131503809D01*
X167373761Y-131360952D01*
X167421380Y-131170476D01*
X167469000Y-131075238D01*
X167564238Y-130980000D01*
X167707095Y-130932380D01*
X167802333Y-130932380D01*
X167945190Y-130980000D01*
X167992809Y-131027619D01*
X168278523Y-130932380D02*
X168611857Y-131932380D01*
X168945190Y-130932380D01*
X169040428Y-132027619D02*
X169802333Y-132027619D01*
X170040428Y-131932380D02*
X170040428Y-130932380D01*
X170516619Y-131932380D02*
X170516619Y-130932380D01*
X171088047Y-131932380D01*
X171088047Y-130932380D01*
X171469000Y-130932380D02*
X172088047Y-130932380D01*
X171754714Y-131313333D01*
X171897571Y-131313333D01*
X171992809Y-131360952D01*
X172040428Y-131408571D01*
X172088047Y-131503809D01*
X172088047Y-131741904D01*
X172040428Y-131837142D01*
X171992809Y-131884761D01*
X171897571Y-131932380D01*
X171611857Y-131932380D01*
X171516619Y-131884761D01*
X171469000Y-131837142D01*
X124012285Y-131182380D02*
X124012285Y-131896666D01*
X123964666Y-132039523D01*
X123869428Y-132134761D01*
X123726571Y-132182380D01*
X123631333Y-132182380D01*
X124250380Y-132277619D02*
X125012285Y-132277619D01*
X125821809Y-132087142D02*
X125774190Y-132134761D01*
X125631333Y-132182380D01*
X125536095Y-132182380D01*
X125393238Y-132134761D01*
X125298000Y-132039523D01*
X125250380Y-131944285D01*
X125202761Y-131753809D01*
X125202761Y-131610952D01*
X125250380Y-131420476D01*
X125298000Y-131325238D01*
X125393238Y-131230000D01*
X125536095Y-131182380D01*
X125631333Y-131182380D01*
X125774190Y-131230000D01*
X125821809Y-131277619D01*
X126107523Y-131182380D02*
X126440857Y-132182380D01*
X126774190Y-131182380D01*
X126869428Y-132277619D02*
X127631333Y-132277619D01*
X127869428Y-132182380D02*
X127869428Y-131182380D01*
X128345619Y-132182380D02*
X128345619Y-131182380D01*
X128917047Y-132182380D01*
X128917047Y-131182380D01*
X129345619Y-131277619D02*
X129393238Y-131230000D01*
X129488476Y-131182380D01*
X129726571Y-131182380D01*
X129821809Y-131230000D01*
X129869428Y-131277619D01*
X129917047Y-131372857D01*
X129917047Y-131468095D01*
X129869428Y-131610952D01*
X129298000Y-132182380D01*
X129917047Y-132182380D01*
X83734285Y-131112380D02*
X83734285Y-131826666D01*
X83686666Y-131969523D01*
X83591428Y-132064761D01*
X83448571Y-132112380D01*
X83353333Y-132112380D01*
X83972380Y-132207619D02*
X84734285Y-132207619D01*
X85543809Y-132017142D02*
X85496190Y-132064761D01*
X85353333Y-132112380D01*
X85258095Y-132112380D01*
X85115238Y-132064761D01*
X85020000Y-131969523D01*
X84972380Y-131874285D01*
X84924761Y-131683809D01*
X84924761Y-131540952D01*
X84972380Y-131350476D01*
X85020000Y-131255238D01*
X85115238Y-131160000D01*
X85258095Y-131112380D01*
X85353333Y-131112380D01*
X85496190Y-131160000D01*
X85543809Y-131207619D01*
X85829523Y-131112380D02*
X86162857Y-132112380D01*
X86496190Y-131112380D01*
X86591428Y-132207619D02*
X87353333Y-132207619D01*
X87591428Y-132112380D02*
X87591428Y-131112380D01*
X88067619Y-132112380D02*
X88067619Y-131112380D01*
X88639047Y-132112380D01*
X88639047Y-131112380D01*
X89639047Y-132112380D02*
X89067619Y-132112380D01*
X89353333Y-132112380D02*
X89353333Y-131112380D01*
X89258095Y-131255238D01*
X89162857Y-131350476D01*
X89067619Y-131398095D01*
X217860714Y-74532380D02*
X217860714Y-73532380D01*
X218098809Y-73532380D01*
X218241666Y-73580000D01*
X218336904Y-73675238D01*
X218384523Y-73770476D01*
X218432142Y-73960952D01*
X218432142Y-74103809D01*
X218384523Y-74294285D01*
X218336904Y-74389523D01*
X218241666Y-74484761D01*
X218098809Y-74532380D01*
X217860714Y-74532380D01*
X219384523Y-74532380D02*
X218813095Y-74532380D01*
X219098809Y-74532380D02*
X219098809Y-73532380D01*
X219003571Y-73675238D01*
X218908333Y-73770476D01*
X218813095Y-73818095D01*
X220241666Y-73532380D02*
X220051190Y-73532380D01*
X219955952Y-73580000D01*
X219908333Y-73627619D01*
X219813095Y-73770476D01*
X219765476Y-73960952D01*
X219765476Y-74341904D01*
X219813095Y-74437142D01*
X219860714Y-74484761D01*
X219955952Y-74532380D01*
X220146428Y-74532380D01*
X220241666Y-74484761D01*
X220289285Y-74437142D01*
X220336904Y-74341904D01*
X220336904Y-74103809D01*
X220289285Y-74008571D01*
X220241666Y-73960952D01*
X220146428Y-73913333D01*
X219955952Y-73913333D01*
X219860714Y-73960952D01*
X219813095Y-74008571D01*
X219765476Y-74103809D01*
X201051714Y-68612380D02*
X201051714Y-67612380D01*
X201289809Y-67612380D01*
X201432666Y-67660000D01*
X201527904Y-67755238D01*
X201575523Y-67850476D01*
X201623142Y-68040952D01*
X201623142Y-68183809D01*
X201575523Y-68374285D01*
X201527904Y-68469523D01*
X201432666Y-68564761D01*
X201289809Y-68612380D01*
X201051714Y-68612380D01*
X202575523Y-68612380D02*
X202004095Y-68612380D01*
X202289809Y-68612380D02*
X202289809Y-67612380D01*
X202194571Y-67755238D01*
X202099333Y-67850476D01*
X202004095Y-67898095D01*
X203480285Y-67612380D02*
X203004095Y-67612380D01*
X202956476Y-68088571D01*
X203004095Y-68040952D01*
X203099333Y-67993333D01*
X203337428Y-67993333D01*
X203432666Y-68040952D01*
X203480285Y-68088571D01*
X203527904Y-68183809D01*
X203527904Y-68421904D01*
X203480285Y-68517142D01*
X203432666Y-68564761D01*
X203337428Y-68612380D01*
X203099333Y-68612380D01*
X203004095Y-68564761D01*
X202956476Y-68517142D01*
X175823714Y-74532380D02*
X175823714Y-73532380D01*
X176061809Y-73532380D01*
X176204666Y-73580000D01*
X176299904Y-73675238D01*
X176347523Y-73770476D01*
X176395142Y-73960952D01*
X176395142Y-74103809D01*
X176347523Y-74294285D01*
X176299904Y-74389523D01*
X176204666Y-74484761D01*
X176061809Y-74532380D01*
X175823714Y-74532380D01*
X177347523Y-74532380D02*
X176776095Y-74532380D01*
X177061809Y-74532380D02*
X177061809Y-73532380D01*
X176966571Y-73675238D01*
X176871333Y-73770476D01*
X176776095Y-73818095D01*
X177728476Y-73627619D02*
X177776095Y-73580000D01*
X177871333Y-73532380D01*
X178109428Y-73532380D01*
X178204666Y-73580000D01*
X178252285Y-73627619D01*
X178299904Y-73722857D01*
X178299904Y-73818095D01*
X178252285Y-73960952D01*
X177680857Y-74532380D01*
X178299904Y-74532380D01*
X158805714Y-68612380D02*
X158805714Y-67612380D01*
X159043809Y-67612380D01*
X159186666Y-67660000D01*
X159281904Y-67755238D01*
X159329523Y-67850476D01*
X159377142Y-68040952D01*
X159377142Y-68183809D01*
X159329523Y-68374285D01*
X159281904Y-68469523D01*
X159186666Y-68564761D01*
X159043809Y-68612380D01*
X158805714Y-68612380D01*
X160329523Y-68612380D02*
X159758095Y-68612380D01*
X160043809Y-68612380D02*
X160043809Y-67612380D01*
X159948571Y-67755238D01*
X159853333Y-67850476D01*
X159758095Y-67898095D01*
X161281904Y-68612380D02*
X160710476Y-68612380D01*
X160996190Y-68612380D02*
X160996190Y-67612380D01*
X160900952Y-67755238D01*
X160805714Y-67850476D01*
X160710476Y-67898095D01*
X133881904Y-74532380D02*
X133881904Y-73532380D01*
X134120000Y-73532380D01*
X134262857Y-73580000D01*
X134358095Y-73675238D01*
X134405714Y-73770476D01*
X134453333Y-73960952D01*
X134453333Y-74103809D01*
X134405714Y-74294285D01*
X134358095Y-74389523D01*
X134262857Y-74484761D01*
X134120000Y-74532380D01*
X133881904Y-74532380D01*
X135024761Y-73960952D02*
X134929523Y-73913333D01*
X134881904Y-73865714D01*
X134834285Y-73770476D01*
X134834285Y-73722857D01*
X134881904Y-73627619D01*
X134929523Y-73580000D01*
X135024761Y-73532380D01*
X135215238Y-73532380D01*
X135310476Y-73580000D01*
X135358095Y-73627619D01*
X135405714Y-73722857D01*
X135405714Y-73770476D01*
X135358095Y-73865714D01*
X135310476Y-73913333D01*
X135215238Y-73960952D01*
X135024761Y-73960952D01*
X134929523Y-74008571D01*
X134881904Y-74056190D01*
X134834285Y-74151428D01*
X134834285Y-74341904D01*
X134881904Y-74437142D01*
X134929523Y-74484761D01*
X135024761Y-74532380D01*
X135215238Y-74532380D01*
X135310476Y-74484761D01*
X135358095Y-74437142D01*
X135405714Y-74341904D01*
X135405714Y-74151428D01*
X135358095Y-74056190D01*
X135310476Y-74008571D01*
X135215238Y-73960952D01*
X117117904Y-68612380D02*
X117117904Y-67612380D01*
X117356000Y-67612380D01*
X117498857Y-67660000D01*
X117594095Y-67755238D01*
X117641714Y-67850476D01*
X117689333Y-68040952D01*
X117689333Y-68183809D01*
X117641714Y-68374285D01*
X117594095Y-68469523D01*
X117498857Y-68564761D01*
X117356000Y-68612380D01*
X117117904Y-68612380D01*
X118022666Y-67612380D02*
X118689333Y-67612380D01*
X118260761Y-68612380D01*
X93241904Y-74532380D02*
X93241904Y-73532380D01*
X93480000Y-73532380D01*
X93622857Y-73580000D01*
X93718095Y-73675238D01*
X93765714Y-73770476D01*
X93813333Y-73960952D01*
X93813333Y-74103809D01*
X93765714Y-74294285D01*
X93718095Y-74389523D01*
X93622857Y-74484761D01*
X93480000Y-74532380D01*
X93241904Y-74532380D01*
X94670476Y-73865714D02*
X94670476Y-74532380D01*
X94432380Y-73484761D02*
X94194285Y-74199047D01*
X94813333Y-74199047D01*
X75842904Y-68612380D02*
X75842904Y-67612380D01*
X76081000Y-67612380D01*
X76223857Y-67660000D01*
X76319095Y-67755238D01*
X76366714Y-67850476D01*
X76414333Y-68040952D01*
X76414333Y-68183809D01*
X76366714Y-68374285D01*
X76319095Y-68469523D01*
X76223857Y-68564761D01*
X76081000Y-68612380D01*
X75842904Y-68612380D01*
X76747666Y-67612380D02*
X77366714Y-67612380D01*
X77033380Y-67993333D01*
X77176238Y-67993333D01*
X77271476Y-68040952D01*
X77319095Y-68088571D01*
X77366714Y-68183809D01*
X77366714Y-68421904D01*
X77319095Y-68517142D01*
X77271476Y-68564761D01*
X77176238Y-68612380D01*
X76890523Y-68612380D01*
X76795285Y-68564761D01*
X76747666Y-68517142D01*
X227647142Y-71722857D02*
X227694761Y-71770476D01*
X227742380Y-71913333D01*
X227742380Y-72008571D01*
X227694761Y-72151428D01*
X227599523Y-72246666D01*
X227504285Y-72294285D01*
X227313809Y-72341904D01*
X227170952Y-72341904D01*
X226980476Y-72294285D01*
X226885238Y-72246666D01*
X226790000Y-72151428D01*
X226742380Y-72008571D01*
X226742380Y-71913333D01*
X226790000Y-71770476D01*
X226837619Y-71722857D01*
X227075714Y-70865714D02*
X227742380Y-70865714D01*
X226694761Y-71103809D02*
X227409047Y-71341904D01*
X227409047Y-70722857D01*
X226837619Y-70389523D02*
X226790000Y-70341904D01*
X226742380Y-70246666D01*
X226742380Y-70008571D01*
X226790000Y-69913333D01*
X226837619Y-69865714D01*
X226932857Y-69818095D01*
X227028095Y-69818095D01*
X227170952Y-69865714D01*
X227742380Y-70437142D01*
X227742380Y-69818095D01*
X198437142Y-71722857D02*
X198484761Y-71770476D01*
X198532380Y-71913333D01*
X198532380Y-72008571D01*
X198484761Y-72151428D01*
X198389523Y-72246666D01*
X198294285Y-72294285D01*
X198103809Y-72341904D01*
X197960952Y-72341904D01*
X197770476Y-72294285D01*
X197675238Y-72246666D01*
X197580000Y-72151428D01*
X197532380Y-72008571D01*
X197532380Y-71913333D01*
X197580000Y-71770476D01*
X197627619Y-71722857D01*
X197865714Y-70865714D02*
X198532380Y-70865714D01*
X197484761Y-71103809D02*
X198199047Y-71341904D01*
X198199047Y-70722857D01*
X198532380Y-69818095D02*
X198532380Y-70389523D01*
X198532380Y-70103809D02*
X197532380Y-70103809D01*
X197675238Y-70199047D01*
X197770476Y-70294285D01*
X197818095Y-70389523D01*
X185737142Y-71722857D02*
X185784761Y-71770476D01*
X185832380Y-71913333D01*
X185832380Y-72008571D01*
X185784761Y-72151428D01*
X185689523Y-72246666D01*
X185594285Y-72294285D01*
X185403809Y-72341904D01*
X185260952Y-72341904D01*
X185070476Y-72294285D01*
X184975238Y-72246666D01*
X184880000Y-72151428D01*
X184832380Y-72008571D01*
X184832380Y-71913333D01*
X184880000Y-71770476D01*
X184927619Y-71722857D01*
X184832380Y-71389523D02*
X184832380Y-70770476D01*
X185213333Y-71103809D01*
X185213333Y-70960952D01*
X185260952Y-70865714D01*
X185308571Y-70818095D01*
X185403809Y-70770476D01*
X185641904Y-70770476D01*
X185737142Y-70818095D01*
X185784761Y-70865714D01*
X185832380Y-70960952D01*
X185832380Y-71246666D01*
X185784761Y-71341904D01*
X185737142Y-71389523D01*
X184832380Y-70151428D02*
X184832380Y-70056190D01*
X184880000Y-69960952D01*
X184927619Y-69913333D01*
X185022857Y-69865714D01*
X185213333Y-69818095D01*
X185451428Y-69818095D01*
X185641904Y-69865714D01*
X185737142Y-69913333D01*
X185784761Y-69960952D01*
X185832380Y-70056190D01*
X185832380Y-70151428D01*
X185784761Y-70246666D01*
X185737142Y-70294285D01*
X185641904Y-70341904D01*
X185451428Y-70389523D01*
X185213333Y-70389523D01*
X185022857Y-70341904D01*
X184927619Y-70294285D01*
X184880000Y-70246666D01*
X184832380Y-70151428D01*
X156527142Y-71722857D02*
X156574761Y-71770476D01*
X156622380Y-71913333D01*
X156622380Y-72008571D01*
X156574761Y-72151428D01*
X156479523Y-72246666D01*
X156384285Y-72294285D01*
X156193809Y-72341904D01*
X156050952Y-72341904D01*
X155860476Y-72294285D01*
X155765238Y-72246666D01*
X155670000Y-72151428D01*
X155622380Y-72008571D01*
X155622380Y-71913333D01*
X155670000Y-71770476D01*
X155717619Y-71722857D01*
X155717619Y-71341904D02*
X155670000Y-71294285D01*
X155622380Y-71199047D01*
X155622380Y-70960952D01*
X155670000Y-70865714D01*
X155717619Y-70818095D01*
X155812857Y-70770476D01*
X155908095Y-70770476D01*
X156050952Y-70818095D01*
X156622380Y-71389523D01*
X156622380Y-70770476D01*
X156622380Y-70294285D02*
X156622380Y-70103809D01*
X156574761Y-70008571D01*
X156527142Y-69960952D01*
X156384285Y-69865714D01*
X156193809Y-69818095D01*
X155812857Y-69818095D01*
X155717619Y-69865714D01*
X155670000Y-69913333D01*
X155622380Y-70008571D01*
X155622380Y-70199047D01*
X155670000Y-70294285D01*
X155717619Y-70341904D01*
X155812857Y-70389523D01*
X156050952Y-70389523D01*
X156146190Y-70341904D01*
X156193809Y-70294285D01*
X156241428Y-70199047D01*
X156241428Y-70008571D01*
X156193809Y-69913333D01*
X156146190Y-69865714D01*
X156050952Y-69818095D01*
X143827142Y-71722857D02*
X143874761Y-71770476D01*
X143922380Y-71913333D01*
X143922380Y-72008571D01*
X143874761Y-72151428D01*
X143779523Y-72246666D01*
X143684285Y-72294285D01*
X143493809Y-72341904D01*
X143350952Y-72341904D01*
X143160476Y-72294285D01*
X143065238Y-72246666D01*
X142970000Y-72151428D01*
X142922380Y-72008571D01*
X142922380Y-71913333D01*
X142970000Y-71770476D01*
X143017619Y-71722857D01*
X143922380Y-70770476D02*
X143922380Y-71341904D01*
X143922380Y-71056190D02*
X142922380Y-71056190D01*
X143065238Y-71151428D01*
X143160476Y-71246666D01*
X143208095Y-71341904D01*
X143350952Y-70199047D02*
X143303333Y-70294285D01*
X143255714Y-70341904D01*
X143160476Y-70389523D01*
X143112857Y-70389523D01*
X143017619Y-70341904D01*
X142970000Y-70294285D01*
X142922380Y-70199047D01*
X142922380Y-70008571D01*
X142970000Y-69913333D01*
X143017619Y-69865714D01*
X143112857Y-69818095D01*
X143160476Y-69818095D01*
X143255714Y-69865714D01*
X143303333Y-69913333D01*
X143350952Y-70008571D01*
X143350952Y-70199047D01*
X143398571Y-70294285D01*
X143446190Y-70341904D01*
X143541428Y-70389523D01*
X143731904Y-70389523D01*
X143827142Y-70341904D01*
X143874761Y-70294285D01*
X143922380Y-70199047D01*
X143922380Y-70008571D01*
X143874761Y-69913333D01*
X143827142Y-69865714D01*
X143731904Y-69818095D01*
X143541428Y-69818095D01*
X143446190Y-69865714D01*
X143398571Y-69913333D01*
X143350952Y-70008571D01*
X114617142Y-71722857D02*
X114664761Y-71770476D01*
X114712380Y-71913333D01*
X114712380Y-72008571D01*
X114664761Y-72151428D01*
X114569523Y-72246666D01*
X114474285Y-72294285D01*
X114283809Y-72341904D01*
X114140952Y-72341904D01*
X113950476Y-72294285D01*
X113855238Y-72246666D01*
X113760000Y-72151428D01*
X113712380Y-72008571D01*
X113712380Y-71913333D01*
X113760000Y-71770476D01*
X113807619Y-71722857D01*
X114712380Y-70770476D02*
X114712380Y-71341904D01*
X114712380Y-71056190D02*
X113712380Y-71056190D01*
X113855238Y-71151428D01*
X113950476Y-71246666D01*
X113998095Y-71341904D01*
X113712380Y-70437142D02*
X113712380Y-69770476D01*
X114712380Y-70199047D01*
X102806142Y-71119666D02*
X102853761Y-71167285D01*
X102901380Y-71310142D01*
X102901380Y-71405380D01*
X102853761Y-71548238D01*
X102758523Y-71643476D01*
X102663285Y-71691095D01*
X102472809Y-71738714D01*
X102329952Y-71738714D01*
X102139476Y-71691095D01*
X102044238Y-71643476D01*
X101949000Y-71548238D01*
X101901380Y-71405380D01*
X101901380Y-71310142D01*
X101949000Y-71167285D01*
X101996619Y-71119666D01*
X101901380Y-70262523D02*
X101901380Y-70453000D01*
X101949000Y-70548238D01*
X101996619Y-70595857D01*
X102139476Y-70691095D01*
X102329952Y-70738714D01*
X102710904Y-70738714D01*
X102806142Y-70691095D01*
X102853761Y-70643476D01*
X102901380Y-70548238D01*
X102901380Y-70357761D01*
X102853761Y-70262523D01*
X102806142Y-70214904D01*
X102710904Y-70167285D01*
X102472809Y-70167285D01*
X102377571Y-70214904D01*
X102329952Y-70262523D01*
X102282333Y-70357761D01*
X102282333Y-70548238D01*
X102329952Y-70643476D01*
X102377571Y-70691095D01*
X102472809Y-70738714D01*
X73215142Y-71246666D02*
X73262761Y-71294285D01*
X73310380Y-71437142D01*
X73310380Y-71532380D01*
X73262761Y-71675238D01*
X73167523Y-71770476D01*
X73072285Y-71818095D01*
X72881809Y-71865714D01*
X72738952Y-71865714D01*
X72548476Y-71818095D01*
X72453238Y-71770476D01*
X72358000Y-71675238D01*
X72310380Y-71532380D01*
X72310380Y-71437142D01*
X72358000Y-71294285D01*
X72405619Y-71246666D01*
X72310380Y-70341904D02*
X72310380Y-70818095D01*
X72786571Y-70865714D01*
X72738952Y-70818095D01*
X72691333Y-70722857D01*
X72691333Y-70484761D01*
X72738952Y-70389523D01*
X72786571Y-70341904D01*
X72881809Y-70294285D01*
X73119904Y-70294285D01*
X73215142Y-70341904D01*
X73262761Y-70389523D01*
X73310380Y-70484761D01*
X73310380Y-70722857D01*
X73262761Y-70818095D01*
X73215142Y-70865714D01*
%LPC*%
D14*
X89790000Y-107702500D03*
X85090000Y-107702500D03*
D15*
X80390000Y-107702500D03*
D14*
X130938000Y-107702500D03*
X126238000Y-107702500D03*
D15*
X121538000Y-107702500D03*
D14*
X173229000Y-107702500D03*
X168529000Y-107702500D03*
D15*
X163829000Y-107702500D03*
D14*
X215139000Y-107702500D03*
X210439000Y-107702500D03*
D15*
X205739000Y-107702500D03*
D16*
X221909000Y-100076000D03*
D17*
X224409000Y-100076000D03*
D16*
X179999000Y-100076000D03*
D17*
X182499000Y-100076000D03*
D16*
X137708000Y-100076000D03*
D17*
X140208000Y-100076000D03*
D16*
X96560000Y-100076000D03*
D17*
X99060000Y-100076000D03*
D16*
X68620000Y-123317000D03*
D17*
X71120000Y-123317000D03*
D16*
X74255000Y-116205000D03*
D17*
X71755000Y-116205000D03*
D18*
X126153333Y-48260000D03*
X126153333Y-96520000D03*
X124883333Y-93980000D03*
X127423333Y-93980000D03*
X128693333Y-99060000D03*
X126153333Y-99060000D03*
D19*
X123613333Y-99060000D03*
D18*
X85090000Y-48260000D03*
X85090000Y-96520000D03*
X83820000Y-93980000D03*
X86360000Y-93980000D03*
X87630000Y-99060000D03*
X85090000Y-99060000D03*
D19*
X82550000Y-99060000D03*
D18*
X210550000Y-48260000D03*
X210550000Y-96520000D03*
X209280000Y-93980000D03*
X211820000Y-93980000D03*
X213090000Y-99060000D03*
X210550000Y-99060000D03*
D19*
X208010000Y-99060000D03*
D18*
X168486666Y-48260000D03*
X168486666Y-96520000D03*
X167216666Y-93980000D03*
X169756666Y-93980000D03*
X171026666Y-99060000D03*
X168486666Y-99060000D03*
D19*
X165946666Y-99060000D03*
D20*
X204680000Y-57150000D03*
X195080000Y-57150000D03*
D21*
X202380000Y-64650000D03*
X199880000Y-64650000D03*
X197380000Y-64650000D03*
D20*
X162280000Y-57150000D03*
X152680000Y-57150000D03*
D21*
X159980000Y-64650000D03*
X157480000Y-64650000D03*
X154980000Y-64650000D03*
D20*
X120370000Y-57150000D03*
X110770000Y-57150000D03*
D21*
X118070000Y-64650000D03*
X115570000Y-64650000D03*
X113070000Y-64650000D03*
D20*
X79222000Y-57150000D03*
X69622000Y-57150000D03*
D21*
X76922000Y-64650000D03*
X74422000Y-64650000D03*
X71922000Y-64650000D03*
D20*
X204680000Y-81280000D03*
X195080000Y-81280000D03*
D21*
X202380000Y-88780000D03*
X199880000Y-88780000D03*
X197380000Y-88780000D03*
D20*
X162280000Y-81280000D03*
X152680000Y-81280000D03*
D21*
X159980000Y-88780000D03*
X157480000Y-88780000D03*
X154980000Y-88780000D03*
D20*
X120370000Y-81280000D03*
X110770000Y-81280000D03*
D21*
X118070000Y-88780000D03*
X115570000Y-88780000D03*
X113070000Y-88780000D03*
D20*
X79222000Y-81280000D03*
X69622000Y-81280000D03*
D21*
X76922000Y-88780000D03*
X74422000Y-88780000D03*
X71922000Y-88780000D03*
D20*
X225780000Y-57150000D03*
X216180000Y-57150000D03*
D21*
X223480000Y-64650000D03*
X220980000Y-64650000D03*
X218480000Y-64650000D03*
D20*
X183870000Y-57150000D03*
X174270000Y-57150000D03*
D21*
X181570000Y-64650000D03*
X179070000Y-64650000D03*
X176570000Y-64650000D03*
D20*
X141960000Y-57150000D03*
X132360000Y-57150000D03*
D21*
X139660000Y-64650000D03*
X137160000Y-64650000D03*
X134660000Y-64650000D03*
D20*
X100431000Y-57150000D03*
X90831000Y-57150000D03*
D21*
X98131000Y-64650000D03*
X95631000Y-64650000D03*
X93131000Y-64650000D03*
D20*
X225780000Y-81280000D03*
X216180000Y-81280000D03*
D21*
X223480000Y-88780000D03*
X220980000Y-88780000D03*
X218480000Y-88780000D03*
D20*
X183870000Y-81280000D03*
X174270000Y-81280000D03*
D21*
X181570000Y-88780000D03*
X179070000Y-88780000D03*
X176570000Y-88780000D03*
D20*
X141960000Y-81280000D03*
X132360000Y-81280000D03*
D21*
X139660000Y-88780000D03*
X137160000Y-88780000D03*
X134660000Y-88780000D03*
D20*
X100431000Y-81280000D03*
X90831000Y-81280000D03*
D21*
X98131000Y-88780000D03*
X95631000Y-88780000D03*
X93131000Y-88780000D03*
D18*
X215389000Y-138430000D03*
X203989000Y-138430000D03*
X207089000Y-138430000D03*
X173449000Y-138430000D03*
X162049000Y-138430000D03*
X165149000Y-138430000D03*
X131158000Y-138430000D03*
X119758000Y-138430000D03*
X122858000Y-138430000D03*
X90010000Y-138430000D03*
X78610000Y-138430000D03*
X81710000Y-138430000D03*
X215389000Y-118110000D03*
X203989000Y-118110000D03*
X207089000Y-118110000D03*
X173449000Y-118110000D03*
X162049000Y-118110000D03*
X165149000Y-118110000D03*
X131158000Y-118110000D03*
X119758000Y-118110000D03*
X122858000Y-118110000D03*
X90010000Y-118110000D03*
X78610000Y-118110000D03*
X81710000Y-118110000D03*
X215389000Y-128270000D03*
X203989000Y-128270000D03*
X207089000Y-128270000D03*
X173449000Y-128270000D03*
X162049000Y-128270000D03*
X165149000Y-128270000D03*
X131158000Y-128270000D03*
X119758000Y-128270000D03*
X122858000Y-128270000D03*
X90010000Y-128270000D03*
X78610000Y-128270000D03*
X81710000Y-128270000D03*
D22*
X195199000Y-48260000D03*
X197739000Y-48260000D03*
X200279000Y-48260000D03*
X153289000Y-48260000D03*
X155829000Y-48260000D03*
X158369000Y-48260000D03*
X110998000Y-48260000D03*
X113538000Y-48260000D03*
X116078000Y-48260000D03*
X69850000Y-48260000D03*
X72390000Y-48260000D03*
X74930000Y-48260000D03*
X220599000Y-107950000D03*
X223139000Y-107950000D03*
X225679000Y-107950000D03*
X178689000Y-107950000D03*
X181229000Y-107950000D03*
X183769000Y-107950000D03*
X136398000Y-107950000D03*
X138938000Y-107950000D03*
X141478000Y-107950000D03*
X95250000Y-107950000D03*
X97790000Y-107950000D03*
X100330000Y-107950000D03*
X220599000Y-92710000D03*
X223139000Y-92710000D03*
X225679000Y-92710000D03*
X178689000Y-92710000D03*
X181229000Y-92710000D03*
X183769000Y-92710000D03*
X136398000Y-92710000D03*
X138938000Y-92710000D03*
X141478000Y-92710000D03*
X95250000Y-92710000D03*
X97790000Y-92710000D03*
X100330000Y-92710000D03*
X195199000Y-107950000D03*
X197739000Y-107950000D03*
X200279000Y-107950000D03*
X153289000Y-107950000D03*
X155829000Y-107950000D03*
X158369000Y-107950000D03*
X110998000Y-107950000D03*
X113538000Y-107950000D03*
X116078000Y-107950000D03*
X69850000Y-107950000D03*
X72390000Y-107950000D03*
X74930000Y-107950000D03*
D23*
X69088000Y-139700000D03*
X71628000Y-139700000D03*
X69088000Y-137160000D03*
X71628000Y-137160000D03*
X69088000Y-134620000D03*
X71628000Y-134620000D03*
X69088000Y-132080000D03*
X71628000Y-132080000D03*
X69088000Y-129540000D03*
D24*
X71628000Y-129540000D03*
D18*
X217805000Y-71120000D03*
D19*
X220345000Y-71120000D03*
D18*
X203536000Y-71120000D03*
D19*
X200996000Y-71120000D03*
D18*
X175768000Y-71120000D03*
D19*
X178308000Y-71120000D03*
D18*
X161290000Y-71120000D03*
D19*
X158750000Y-71120000D03*
D18*
X133350000Y-71120000D03*
D19*
X135890000Y-71120000D03*
D18*
X119126000Y-71120000D03*
D19*
X116586000Y-71120000D03*
D18*
X92710000Y-71120000D03*
D19*
X95250000Y-71120000D03*
D18*
X77851000Y-71120000D03*
D19*
X75311000Y-71120000D03*
D16*
X224790000Y-73580000D03*
X224790000Y-68580000D03*
X195580000Y-73580000D03*
X195580000Y-68580000D03*
X182880000Y-73580000D03*
X182880000Y-68580000D03*
X153670000Y-73580000D03*
X153670000Y-68580000D03*
X140970000Y-73580000D03*
X140970000Y-68580000D03*
X111760000Y-73580000D03*
X111760000Y-68580000D03*
X99949000Y-73453000D03*
X99949000Y-68453000D03*
X70358000Y-73580000D03*
X70358000Y-68580000D03*
M02*
