M48
; DRILL file {KiCad (5.1.6-0-10_14)} date Tuesday, January 25, 2022 at 02:28:14 PM
; FORMAT={-:-/ absolute / metric / decimal}
; #@! TF.CreationDate,2022-01-25T14:28:14+00:00
; #@! TF.GenerationSoftware,Kicad,Pcbnew,(5.1.6-0-10_14)
; #@! TF.FileFunction,Plated,1,2,PTH
FMAT,2
METRIC
T1C0.400
T2C0.800
T3C0.900
T4C1.000
T5C1.600
T6C1.800
T7C1.850
%
G90
G05
T1
X71.755Y-95.504
X71.755Y-94.361
X73.561Y-100.048
X77.01Y-121.491
X77.01Y-125.301
X78.232Y-103.759
X78.994Y-101.346
X79.629Y-90.932
X79.756Y-95.885
X80.518Y-105.41
X80.899Y-96.266
X81.28Y-74.803
X82.169Y-82.296
X82.804Y-86.614
X83.382Y-69.907
X84.328Y-111.887
X86.106Y-90.73
X86.36Y-112.014
X86.614Y-114.427
X87.122Y-82.042
X87.28Y-91.694
X88.13Y-81.153
X88.13Y-97.409
X88.9Y-112.903
X89.154Y-120.65
X89.535Y-115.062
X90.297Y-136.017
X90.53Y-96.52
X91.567Y-95.504
X91.821Y-127.762
X92.329Y-133.985
X92.837Y-139.573
X93.218Y-113.538
X93.472Y-118.872
X93.472Y-123.19
X93.472Y-130.048
X94.107Y-94.488
X94.107Y-134.112
X94.488Y-117.221
X95.123Y-137.668
X95.695Y-124.079
X95.758Y-133.604
X96.52Y-141.478
X97.41Y-113.792
X97.663Y-95.885
X97.79Y-120.015
X98.552Y-120.777
X99.06Y-138.811
X99.06Y-141.097
X99.568Y-118.237
X100.33Y-95.758
X100.711Y-127.127
X101.473Y-130.048
X101.662Y-123.698
X103.378Y-127.0
X103.378Y-130.937
X103.505Y-129.54
X103.759Y-135.228
X103.886Y-140.843
X104.267Y-122.174
X104.521Y-123.952
X104.775Y-127.508
X105.029Y-118.618
X105.41Y-114.3
X105.791Y-138.811
X109.728Y-91.059
X110.236Y-125.095
X112.268Y-93.98
X113.755Y-98.843
X115.443Y-123.19
X115.951Y-90.932
X116.205Y-128.397
X116.967Y-141.097
X119.634Y-89.789
X119.888Y-90.805
X121.793Y-96.393
X122.809Y-93.472
X123.063Y-82.296
X123.825Y-74.803
X123.952Y-86.487
X124.085Y-69.463
X124.841Y-85.725
X125.25Y-110.363
X127.0Y-90.73
X127.127Y-111.379
X128.143Y-81.915
X128.309Y-91.694
X129.159Y-81.28
X129.159Y-97.409
X130.429Y-110.236
X130.683Y-120.142
X131.191Y-68.707
X131.76Y-96.52
X132.61Y-86.83
X133.096Y-127.42
X133.096Y-134.493
X133.477Y-85.344
X133.477Y-94.361
X134.239Y-141.478
X134.493Y-136.017
X134.62Y-85.979
X134.62Y-130.048
X135.255Y-133.35
X136.525Y-129.54
X136.53Y-126.614
X138.176Y-121.158
X138.176Y-133.985
X138.176Y-137.922
X138.303Y-129.159
X138.43Y-85.725
X140.208Y-127.127
X142.367Y-127.635
X142.851Y-120.753
X143.383Y-141.224
X144.018Y-98.552
X144.272Y-136.017
X144.399Y-137.16
X146.304Y-126.746
X148.336Y-135.292
X148.59Y-126.619
X150.368Y-128.778
X150.749Y-115.062
X151.638Y-91.059
X152.4Y-114.3
X152.557Y-128.113
X154.051Y-94.234
X154.051Y-137.414
X154.138Y-115.062
X154.178Y-130.937
X155.475Y-98.652
X155.956Y-109.474
X157.734Y-91.186
X162.179Y-89.916
X163.068Y-91.059
X164.211Y-96.774
X165.227Y-82.296
X165.227Y-94.869
X165.989Y-74.803
X165.989Y-91.059
X166.116Y-86.614
X167.132Y-70.104
X169.418Y-111.76
X169.545Y-90.73
X169.672Y-82.423
X170.508Y-92.037
X171.387Y-82.423
X171.527Y-97.37
X171.958Y-125.984
X172.212Y-121.92
X173.482Y-111.506
X173.99Y-96.52
X174.117Y-134.747
X174.84Y-95.377
X174.917Y-118.872
X175.006Y-66.802
X175.006Y-130.556
X175.768Y-134.493
X176.149Y-127.381
X176.403Y-125.984
X176.784Y-117.475
X176.784Y-138.303
X176.911Y-130.556
X176.911Y-135.001
X176.941Y-131.729
X177.166Y-104.19
X177.216Y-137.401
X177.55Y-95.627
X178.054Y-141.478
X178.308Y-126.619
X178.689Y-123.19
X178.943Y-129.794
X178.943Y-134.366
X178.943Y-140.716
X179.578Y-94.869
X180.467Y-119.126
X180.721Y-115.951
X180.721Y-120.396
X181.102Y-132.334
X181.102Y-136.271
X181.102Y-141.351
X181.229Y-134.366
X181.229Y-137.541
X181.864Y-126.873
X183.157Y-131.67
X183.738Y-141.075
X185.293Y-140.273
X185.801Y-97.663
X185.801Y-115.951
X185.928Y-135.636
X186.055Y-112.522
X186.563Y-126.746
X187.071Y-139.573
X187.488Y-113.284
X188.802Y-125.65
X189.611Y-131.953
X189.738Y-130.429
X189.992Y-135.128
X190.373Y-136.906
X190.5Y-139.445
X190.588Y-98.044
X190.754Y-126.492
X191.008Y-110.363
X193.167Y-98.806
X193.675Y-130.048
X194.056Y-125.476
X194.945Y-110.236
X194.945Y-137.16
X195.199Y-130.302
X195.707Y-93.98
X197.612Y-109.728
X198.12Y-133.223
X198.374Y-99.06
X198.628Y-131.572
X200.279Y-90.932
X200.66Y-141.351
X201.422Y-118.872
X205.74Y-89.789
X207.264Y-74.803
X207.264Y-115.824
X207.391Y-82.169
X207.518Y-120.65
X207.518Y-125.095
X208.026Y-110.744
X209.042Y-69.596
X209.296Y-87.63
X209.423Y-88.773
X212.168Y-90.297
X212.217Y-112.014
X212.344Y-110.617
X212.344Y-114.427
X212.471Y-82.55
X212.598Y-127.254
X213.018Y-91.694
X213.106Y-119.507
X213.106Y-124.46
X213.36Y-81.915
X213.868Y-97.536
X214.376Y-130.683
X215.332Y-126.559
X216.408Y-130.81
X216.408Y-135.636
X216.49Y-96.52
X216.916Y-66.294
X218.44Y-94.107
X219.202Y-121.539
X219.329Y-122.809
X219.964Y-114.681
X219.964Y-142.621
X220.218Y-124.714
X220.345Y-131.699
X221.233Y-116.587
X222.123Y-98.044
X222.25Y-126.746
X222.377Y-117.983
X222.377Y-121.031
X223.52Y-131.445
X223.52Y-139.7
X224.663Y-124.587
X224.79Y-128.143
X225.171Y-95.631
X225.425Y-132.969
X226.124Y-124.791
X227.33Y-124.841
T2
X221.909Y-100.076
X224.409Y-100.076
X82.55Y-99.06
X83.82Y-93.98
X85.09Y-48.26
X85.09Y-96.52
X85.09Y-99.06
X86.36Y-93.98
X87.63Y-99.06
X136.398Y-107.95
X138.938Y-107.95
X141.478Y-107.95
X195.199Y-107.95
X197.739Y-107.95
X200.279Y-107.95
X110.998Y-48.26
X113.538Y-48.26
X116.078Y-48.26
X96.56Y-100.076
X99.06Y-100.076
X153.289Y-48.26
X155.829Y-48.26
X158.369Y-48.26
X178.689Y-92.71
X181.229Y-92.71
X183.769Y-92.71
X140.97Y-68.58
X140.97Y-73.58
X71.755Y-116.205
X74.255Y-116.205
X178.689Y-107.95
X181.229Y-107.95
X183.769Y-107.95
X153.67Y-68.58
X153.67Y-73.58
X220.599Y-92.71
X223.139Y-92.71
X225.679Y-92.71
X195.58Y-68.58
X195.58Y-73.58
X195.199Y-48.26
X197.739Y-48.26
X200.279Y-48.26
X208.01Y-99.06
X209.28Y-93.98
X210.55Y-48.26
X210.55Y-96.52
X210.55Y-99.06
X211.82Y-93.98
X213.09Y-99.06
X70.358Y-68.58
X70.358Y-73.58
X95.25Y-92.71
X97.79Y-92.71
X100.33Y-92.71
X69.85Y-107.95
X72.39Y-107.95
X74.93Y-107.95
X182.88Y-68.58
X182.88Y-73.58
X137.708Y-100.076
X140.208Y-100.076
X179.999Y-100.076
X182.499Y-100.076
X220.599Y-107.95
X223.139Y-107.95
X225.679Y-107.95
X95.25Y-107.95
X97.79Y-107.95
X100.33Y-107.95
X153.289Y-107.95
X155.829Y-107.95
X158.369Y-107.95
X224.79Y-68.58
X224.79Y-73.58
X68.62Y-123.317
X71.12Y-123.317
X165.947Y-99.06
X167.217Y-93.98
X168.487Y-48.26
X168.487Y-96.52
X168.487Y-99.06
X169.757Y-93.98
X171.027Y-99.06
X136.398Y-92.71
X138.938Y-92.71
X141.478Y-92.71
X99.949Y-68.453
X99.949Y-73.453
X110.998Y-107.95
X113.538Y-107.95
X116.078Y-107.95
X123.613Y-99.06
X124.883Y-93.98
X126.153Y-48.26
X126.153Y-96.52
X126.153Y-99.06
X127.423Y-93.98
X128.693Y-99.06
X69.85Y-48.26
X72.39Y-48.26
X74.93Y-48.26
X111.76Y-68.58
X111.76Y-73.58
T3
X158.75Y-71.12
X161.29Y-71.12
X75.311Y-71.12
X77.851Y-71.12
X200.996Y-71.12
X203.536Y-71.12
X116.586Y-71.12
X119.126Y-71.12
X217.805Y-71.12
X220.345Y-71.12
X175.768Y-71.12
X178.308Y-71.12
X133.35Y-71.12
X135.89Y-71.12
X92.71Y-71.12
X95.25Y-71.12
T4
X218.48Y-64.65
X220.98Y-64.65
X223.48Y-64.65
X93.131Y-64.65
X95.631Y-64.65
X98.131Y-64.65
X113.07Y-64.65
X115.57Y-64.65
X118.07Y-64.65
X154.98Y-88.78
X157.48Y-88.78
X159.98Y-88.78
X134.66Y-88.78
X137.16Y-88.78
X139.66Y-88.78
X176.57Y-64.65
X179.07Y-64.65
X181.57Y-64.65
X69.088Y-129.54
X69.088Y-132.08
X69.088Y-134.62
X69.088Y-137.16
X69.088Y-139.7
X71.628Y-129.54
X71.628Y-132.08
X71.628Y-134.62
X71.628Y-137.16
X71.628Y-139.7
X113.07Y-88.78
X115.57Y-88.78
X118.07Y-88.78
X197.38Y-64.65
X199.88Y-64.65
X202.38Y-64.65
X93.131Y-88.78
X95.631Y-88.78
X98.131Y-88.78
X71.922Y-64.65
X74.422Y-64.65
X76.922Y-64.65
X218.48Y-88.78
X220.98Y-88.78
X223.48Y-88.78
X134.66Y-64.65
X137.16Y-64.65
X139.66Y-64.65
X176.57Y-88.78
X179.07Y-88.78
X181.57Y-88.78
X71.922Y-88.78
X74.422Y-88.78
X76.922Y-88.78
X154.98Y-64.65
X157.48Y-64.65
X159.98Y-64.65
X197.38Y-88.78
X199.88Y-88.78
X202.38Y-88.78
T5
X119.758Y-118.11
X122.858Y-118.11
X131.158Y-118.11
X162.049Y-128.27
X165.149Y-128.27
X173.449Y-128.27
X162.049Y-138.43
X165.149Y-138.43
X173.449Y-138.43
X203.989Y-118.11
X207.089Y-118.11
X215.389Y-118.11
X119.758Y-128.27
X122.858Y-128.27
X131.158Y-128.27
X78.61Y-118.11
X81.71Y-118.11
X90.01Y-118.11
X119.758Y-138.43
X122.858Y-138.43
X131.158Y-138.43
X78.61Y-128.27
X81.71Y-128.27
X90.01Y-128.27
X203.989Y-138.43
X207.089Y-138.43
X215.389Y-138.43
X162.049Y-118.11
X165.149Y-118.11
X173.449Y-118.11
X78.61Y-138.43
X81.71Y-138.43
X90.01Y-138.43
X203.989Y-128.27
X207.089Y-128.27
X215.389Y-128.27
T6
X132.36Y-57.15
X141.96Y-57.15
X174.27Y-81.28
X183.87Y-81.28
X69.622Y-81.28
X79.222Y-81.28
X152.68Y-57.15
X162.28Y-57.15
X195.08Y-81.28
X204.68Y-81.28
X216.18Y-57.15
X225.78Y-57.15
X90.831Y-57.15
X100.431Y-57.15
X110.77Y-57.15
X120.37Y-57.15
X152.68Y-81.28
X162.28Y-81.28
X132.36Y-81.28
X141.96Y-81.28
X174.27Y-57.15
X183.87Y-57.15
X110.77Y-81.28
X120.37Y-81.28
X195.08Y-57.15
X204.68Y-57.15
X90.831Y-81.28
X100.431Y-81.28
X69.622Y-57.15
X79.222Y-57.15
X216.18Y-81.28
X225.78Y-81.28
T7
X121.538Y-107.703
X126.238Y-107.703
X130.938Y-107.703
X163.829Y-107.703
X168.529Y-107.703
X173.229Y-107.703
X80.39Y-107.703
X85.09Y-107.703
X89.79Y-107.703
X205.739Y-107.703
X210.439Y-107.703
X215.139Y-107.703
T0
M30
