G04 #@! TF.GenerationSoftware,KiCad,Pcbnew,(5.1.6-0-10_14)*
G04 #@! TF.CreationDate,2022-01-24T21:06:01+00:00*
G04 #@! TF.ProjectId,Quad Tube VCA,51756164-2054-4756-9265-205643412e6b,rev?*
G04 #@! TF.SameCoordinates,Original*
G04 #@! TF.FileFunction,Paste,Bot*
G04 #@! TF.FilePolarity,Positive*
%FSLAX46Y46*%
G04 Gerber Fmt 4.6, Leading zero omitted, Abs format (unit mm)*
G04 Created by KiCad (PCBNEW (5.1.6-0-10_14)) date 2022-01-24 21:06:01*
%MOMM*%
%LPD*%
G01*
G04 APERTURE LIST*
%ADD10R,1.000000X1.000000*%
G04 APERTURE END LIST*
G36*
G01*
X222607000Y-136548000D02*
X222607000Y-136248000D01*
G75*
G02*
X222757000Y-136098000I150000J0D01*
G01*
X224407000Y-136098000D01*
G75*
G02*
X224557000Y-136248000I0J-150000D01*
G01*
X224557000Y-136548000D01*
G75*
G02*
X224407000Y-136698000I-150000J0D01*
G01*
X222757000Y-136698000D01*
G75*
G02*
X222607000Y-136548000I0J150000D01*
G01*
G37*
G36*
G01*
X222607000Y-135278000D02*
X222607000Y-134978000D01*
G75*
G02*
X222757000Y-134828000I150000J0D01*
G01*
X224407000Y-134828000D01*
G75*
G02*
X224557000Y-134978000I0J-150000D01*
G01*
X224557000Y-135278000D01*
G75*
G02*
X224407000Y-135428000I-150000J0D01*
G01*
X222757000Y-135428000D01*
G75*
G02*
X222607000Y-135278000I0J150000D01*
G01*
G37*
G36*
G01*
X222607000Y-134008000D02*
X222607000Y-133708000D01*
G75*
G02*
X222757000Y-133558000I150000J0D01*
G01*
X224407000Y-133558000D01*
G75*
G02*
X224557000Y-133708000I0J-150000D01*
G01*
X224557000Y-134008000D01*
G75*
G02*
X224407000Y-134158000I-150000J0D01*
G01*
X222757000Y-134158000D01*
G75*
G02*
X222607000Y-134008000I0J150000D01*
G01*
G37*
G36*
G01*
X222607000Y-132738000D02*
X222607000Y-132438000D01*
G75*
G02*
X222757000Y-132288000I150000J0D01*
G01*
X224407000Y-132288000D01*
G75*
G02*
X224557000Y-132438000I0J-150000D01*
G01*
X224557000Y-132738000D01*
G75*
G02*
X224407000Y-132888000I-150000J0D01*
G01*
X222757000Y-132888000D01*
G75*
G02*
X222607000Y-132738000I0J150000D01*
G01*
G37*
G36*
G01*
X217657000Y-132738000D02*
X217657000Y-132438000D01*
G75*
G02*
X217807000Y-132288000I150000J0D01*
G01*
X219457000Y-132288000D01*
G75*
G02*
X219607000Y-132438000I0J-150000D01*
G01*
X219607000Y-132738000D01*
G75*
G02*
X219457000Y-132888000I-150000J0D01*
G01*
X217807000Y-132888000D01*
G75*
G02*
X217657000Y-132738000I0J150000D01*
G01*
G37*
G36*
G01*
X217657000Y-134008000D02*
X217657000Y-133708000D01*
G75*
G02*
X217807000Y-133558000I150000J0D01*
G01*
X219457000Y-133558000D01*
G75*
G02*
X219607000Y-133708000I0J-150000D01*
G01*
X219607000Y-134008000D01*
G75*
G02*
X219457000Y-134158000I-150000J0D01*
G01*
X217807000Y-134158000D01*
G75*
G02*
X217657000Y-134008000I0J150000D01*
G01*
G37*
G36*
G01*
X217657000Y-135278000D02*
X217657000Y-134978000D01*
G75*
G02*
X217807000Y-134828000I150000J0D01*
G01*
X219457000Y-134828000D01*
G75*
G02*
X219607000Y-134978000I0J-150000D01*
G01*
X219607000Y-135278000D01*
G75*
G02*
X219457000Y-135428000I-150000J0D01*
G01*
X217807000Y-135428000D01*
G75*
G02*
X217657000Y-135278000I0J150000D01*
G01*
G37*
G36*
G01*
X217657000Y-136548000D02*
X217657000Y-136248000D01*
G75*
G02*
X217807000Y-136098000I150000J0D01*
G01*
X219457000Y-136098000D01*
G75*
G02*
X219607000Y-136248000I0J-150000D01*
G01*
X219607000Y-136548000D01*
G75*
G02*
X219457000Y-136698000I-150000J0D01*
G01*
X217807000Y-136698000D01*
G75*
G02*
X217657000Y-136548000I0J150000D01*
G01*
G37*
G36*
G01*
X100687000Y-139088000D02*
X100687000Y-138788000D01*
G75*
G02*
X100837000Y-138638000I150000J0D01*
G01*
X102487000Y-138638000D01*
G75*
G02*
X102637000Y-138788000I0J-150000D01*
G01*
X102637000Y-139088000D01*
G75*
G02*
X102487000Y-139238000I-150000J0D01*
G01*
X100837000Y-139238000D01*
G75*
G02*
X100687000Y-139088000I0J150000D01*
G01*
G37*
G36*
G01*
X100687000Y-137818000D02*
X100687000Y-137518000D01*
G75*
G02*
X100837000Y-137368000I150000J0D01*
G01*
X102487000Y-137368000D01*
G75*
G02*
X102637000Y-137518000I0J-150000D01*
G01*
X102637000Y-137818000D01*
G75*
G02*
X102487000Y-137968000I-150000J0D01*
G01*
X100837000Y-137968000D01*
G75*
G02*
X100687000Y-137818000I0J150000D01*
G01*
G37*
G36*
G01*
X100687000Y-136548000D02*
X100687000Y-136248000D01*
G75*
G02*
X100837000Y-136098000I150000J0D01*
G01*
X102487000Y-136098000D01*
G75*
G02*
X102637000Y-136248000I0J-150000D01*
G01*
X102637000Y-136548000D01*
G75*
G02*
X102487000Y-136698000I-150000J0D01*
G01*
X100837000Y-136698000D01*
G75*
G02*
X100687000Y-136548000I0J150000D01*
G01*
G37*
G36*
G01*
X100687000Y-135278000D02*
X100687000Y-134978000D01*
G75*
G02*
X100837000Y-134828000I150000J0D01*
G01*
X102487000Y-134828000D01*
G75*
G02*
X102637000Y-134978000I0J-150000D01*
G01*
X102637000Y-135278000D01*
G75*
G02*
X102487000Y-135428000I-150000J0D01*
G01*
X100837000Y-135428000D01*
G75*
G02*
X100687000Y-135278000I0J150000D01*
G01*
G37*
G36*
G01*
X95737000Y-135278000D02*
X95737000Y-134978000D01*
G75*
G02*
X95887000Y-134828000I150000J0D01*
G01*
X97537000Y-134828000D01*
G75*
G02*
X97687000Y-134978000I0J-150000D01*
G01*
X97687000Y-135278000D01*
G75*
G02*
X97537000Y-135428000I-150000J0D01*
G01*
X95887000Y-135428000D01*
G75*
G02*
X95737000Y-135278000I0J150000D01*
G01*
G37*
G36*
G01*
X95737000Y-136548000D02*
X95737000Y-136248000D01*
G75*
G02*
X95887000Y-136098000I150000J0D01*
G01*
X97537000Y-136098000D01*
G75*
G02*
X97687000Y-136248000I0J-150000D01*
G01*
X97687000Y-136548000D01*
G75*
G02*
X97537000Y-136698000I-150000J0D01*
G01*
X95887000Y-136698000D01*
G75*
G02*
X95737000Y-136548000I0J150000D01*
G01*
G37*
G36*
G01*
X95737000Y-137818000D02*
X95737000Y-137518000D01*
G75*
G02*
X95887000Y-137368000I150000J0D01*
G01*
X97537000Y-137368000D01*
G75*
G02*
X97687000Y-137518000I0J-150000D01*
G01*
X97687000Y-137818000D01*
G75*
G02*
X97537000Y-137968000I-150000J0D01*
G01*
X95887000Y-137968000D01*
G75*
G02*
X95737000Y-137818000I0J150000D01*
G01*
G37*
G36*
G01*
X95737000Y-139088000D02*
X95737000Y-138788000D01*
G75*
G02*
X95887000Y-138638000I150000J0D01*
G01*
X97537000Y-138638000D01*
G75*
G02*
X97687000Y-138788000I0J-150000D01*
G01*
X97687000Y-139088000D01*
G75*
G02*
X97537000Y-139238000I-150000J0D01*
G01*
X95887000Y-139238000D01*
G75*
G02*
X95737000Y-139088000I0J150000D01*
G01*
G37*
G36*
G01*
X205517000Y-131569750D02*
X205517000Y-132082250D01*
G75*
G02*
X205298250Y-132301000I-218750J0D01*
G01*
X204860750Y-132301000D01*
G75*
G02*
X204642000Y-132082250I0J218750D01*
G01*
X204642000Y-131569750D01*
G75*
G02*
X204860750Y-131351000I218750J0D01*
G01*
X205298250Y-131351000D01*
G75*
G02*
X205517000Y-131569750I0J-218750D01*
G01*
G37*
G36*
G01*
X207092000Y-131569750D02*
X207092000Y-132082250D01*
G75*
G02*
X206873250Y-132301000I-218750J0D01*
G01*
X206435750Y-132301000D01*
G75*
G02*
X206217000Y-132082250I0J218750D01*
G01*
X206217000Y-131569750D01*
G75*
G02*
X206435750Y-131351000I218750J0D01*
G01*
X206873250Y-131351000D01*
G75*
G02*
X207092000Y-131569750I0J-218750D01*
G01*
G37*
G36*
G01*
X198851000Y-141226250D02*
X198851000Y-140713750D01*
G75*
G02*
X199069750Y-140495000I218750J0D01*
G01*
X199507250Y-140495000D01*
G75*
G02*
X199726000Y-140713750I0J-218750D01*
G01*
X199726000Y-141226250D01*
G75*
G02*
X199507250Y-141445000I-218750J0D01*
G01*
X199069750Y-141445000D01*
G75*
G02*
X198851000Y-141226250I0J218750D01*
G01*
G37*
G36*
G01*
X197276000Y-141226250D02*
X197276000Y-140713750D01*
G75*
G02*
X197494750Y-140495000I218750J0D01*
G01*
X197932250Y-140495000D01*
G75*
G02*
X198151000Y-140713750I0J-218750D01*
G01*
X198151000Y-141226250D01*
G75*
G02*
X197932250Y-141445000I-218750J0D01*
G01*
X197494750Y-141445000D01*
G75*
G02*
X197276000Y-141226250I0J218750D01*
G01*
G37*
G36*
G01*
X122459000Y-131569750D02*
X122459000Y-132082250D01*
G75*
G02*
X122240250Y-132301000I-218750J0D01*
G01*
X121802750Y-132301000D01*
G75*
G02*
X121584000Y-132082250I0J218750D01*
G01*
X121584000Y-131569750D01*
G75*
G02*
X121802750Y-131351000I218750J0D01*
G01*
X122240250Y-131351000D01*
G75*
G02*
X122459000Y-131569750I0J-218750D01*
G01*
G37*
G36*
G01*
X124034000Y-131569750D02*
X124034000Y-132082250D01*
G75*
G02*
X123815250Y-132301000I-218750J0D01*
G01*
X123377750Y-132301000D01*
G75*
G02*
X123159000Y-132082250I0J218750D01*
G01*
X123159000Y-131569750D01*
G75*
G02*
X123377750Y-131351000I218750J0D01*
G01*
X123815250Y-131351000D01*
G75*
G02*
X124034000Y-131569750I0J-218750D01*
G01*
G37*
G36*
G01*
X111983000Y-137416250D02*
X111983000Y-136903750D01*
G75*
G02*
X112201750Y-136685000I218750J0D01*
G01*
X112639250Y-136685000D01*
G75*
G02*
X112858000Y-136903750I0J-218750D01*
G01*
X112858000Y-137416250D01*
G75*
G02*
X112639250Y-137635000I-218750J0D01*
G01*
X112201750Y-137635000D01*
G75*
G02*
X111983000Y-137416250I0J218750D01*
G01*
G37*
G36*
G01*
X110408000Y-137416250D02*
X110408000Y-136903750D01*
G75*
G02*
X110626750Y-136685000I218750J0D01*
G01*
X111064250Y-136685000D01*
G75*
G02*
X111283000Y-136903750I0J-218750D01*
G01*
X111283000Y-137416250D01*
G75*
G02*
X111064250Y-137635000I-218750J0D01*
G01*
X110626750Y-137635000D01*
G75*
G02*
X110408000Y-137416250I0J218750D01*
G01*
G37*
G36*
G01*
X200183000Y-127505750D02*
X200183000Y-128018250D01*
G75*
G02*
X199964250Y-128237000I-218750J0D01*
G01*
X199526750Y-128237000D01*
G75*
G02*
X199308000Y-128018250I0J218750D01*
G01*
X199308000Y-127505750D01*
G75*
G02*
X199526750Y-127287000I218750J0D01*
G01*
X199964250Y-127287000D01*
G75*
G02*
X200183000Y-127505750I0J-218750D01*
G01*
G37*
G36*
G01*
X201758000Y-127505750D02*
X201758000Y-128018250D01*
G75*
G02*
X201539250Y-128237000I-218750J0D01*
G01*
X201101750Y-128237000D01*
G75*
G02*
X200883000Y-128018250I0J218750D01*
G01*
X200883000Y-127505750D01*
G75*
G02*
X201101750Y-127287000I218750J0D01*
G01*
X201539250Y-127287000D01*
G75*
G02*
X201758000Y-127505750I0J-218750D01*
G01*
G37*
G36*
G01*
X192309000Y-134871750D02*
X192309000Y-135384250D01*
G75*
G02*
X192090250Y-135603000I-218750J0D01*
G01*
X191652750Y-135603000D01*
G75*
G02*
X191434000Y-135384250I0J218750D01*
G01*
X191434000Y-134871750D01*
G75*
G02*
X191652750Y-134653000I218750J0D01*
G01*
X192090250Y-134653000D01*
G75*
G02*
X192309000Y-134871750I0J-218750D01*
G01*
G37*
G36*
G01*
X193884000Y-134871750D02*
X193884000Y-135384250D01*
G75*
G02*
X193665250Y-135603000I-218750J0D01*
G01*
X193227750Y-135603000D01*
G75*
G02*
X193009000Y-135384250I0J218750D01*
G01*
X193009000Y-134871750D01*
G75*
G02*
X193227750Y-134653000I218750J0D01*
G01*
X193665250Y-134653000D01*
G75*
G02*
X193884000Y-134871750I0J-218750D01*
G01*
G37*
G36*
G01*
X117506000Y-122933750D02*
X117506000Y-123446250D01*
G75*
G02*
X117287250Y-123665000I-218750J0D01*
G01*
X116849750Y-123665000D01*
G75*
G02*
X116631000Y-123446250I0J218750D01*
G01*
X116631000Y-122933750D01*
G75*
G02*
X116849750Y-122715000I218750J0D01*
G01*
X117287250Y-122715000D01*
G75*
G02*
X117506000Y-122933750I0J-218750D01*
G01*
G37*
G36*
G01*
X119081000Y-122933750D02*
X119081000Y-123446250D01*
G75*
G02*
X118862250Y-123665000I-218750J0D01*
G01*
X118424750Y-123665000D01*
G75*
G02*
X118206000Y-123446250I0J218750D01*
G01*
X118206000Y-122933750D01*
G75*
G02*
X118424750Y-122715000I218750J0D01*
G01*
X118862250Y-122715000D01*
G75*
G02*
X119081000Y-122933750I0J-218750D01*
G01*
G37*
G36*
G01*
X210027000Y-133860250D02*
X210027000Y-133347750D01*
G75*
G02*
X210245750Y-133129000I218750J0D01*
G01*
X210683250Y-133129000D01*
G75*
G02*
X210902000Y-133347750I0J-218750D01*
G01*
X210902000Y-133860250D01*
G75*
G02*
X210683250Y-134079000I-218750J0D01*
G01*
X210245750Y-134079000D01*
G75*
G02*
X210027000Y-133860250I0J218750D01*
G01*
G37*
G36*
G01*
X208452000Y-133860250D02*
X208452000Y-133347750D01*
G75*
G02*
X208670750Y-133129000I218750J0D01*
G01*
X209108250Y-133129000D01*
G75*
G02*
X209327000Y-133347750I0J-218750D01*
G01*
X209327000Y-133860250D01*
G75*
G02*
X209108250Y-134079000I-218750J0D01*
G01*
X208670750Y-134079000D01*
G75*
G02*
X208452000Y-133860250I0J218750D01*
G01*
G37*
G36*
G01*
X192309000Y-131315750D02*
X192309000Y-131828250D01*
G75*
G02*
X192090250Y-132047000I-218750J0D01*
G01*
X191652750Y-132047000D01*
G75*
G02*
X191434000Y-131828250I0J218750D01*
G01*
X191434000Y-131315750D01*
G75*
G02*
X191652750Y-131097000I218750J0D01*
G01*
X192090250Y-131097000D01*
G75*
G02*
X192309000Y-131315750I0J-218750D01*
G01*
G37*
G36*
G01*
X193884000Y-131315750D02*
X193884000Y-131828250D01*
G75*
G02*
X193665250Y-132047000I-218750J0D01*
G01*
X193227750Y-132047000D01*
G75*
G02*
X193009000Y-131828250I0J218750D01*
G01*
X193009000Y-131315750D01*
G75*
G02*
X193227750Y-131097000I218750J0D01*
G01*
X193665250Y-131097000D01*
G75*
G02*
X193884000Y-131315750I0J-218750D01*
G01*
G37*
G36*
G01*
X118206000Y-120779250D02*
X118206000Y-120266750D01*
G75*
G02*
X118424750Y-120048000I218750J0D01*
G01*
X118862250Y-120048000D01*
G75*
G02*
X119081000Y-120266750I0J-218750D01*
G01*
X119081000Y-120779250D01*
G75*
G02*
X118862250Y-120998000I-218750J0D01*
G01*
X118424750Y-120998000D01*
G75*
G02*
X118206000Y-120779250I0J218750D01*
G01*
G37*
G36*
G01*
X116631000Y-120779250D02*
X116631000Y-120266750D01*
G75*
G02*
X116849750Y-120048000I218750J0D01*
G01*
X117287250Y-120048000D01*
G75*
G02*
X117506000Y-120266750I0J-218750D01*
G01*
X117506000Y-120779250D01*
G75*
G02*
X117287250Y-120998000I-218750J0D01*
G01*
X116849750Y-120998000D01*
G75*
G02*
X116631000Y-120779250I0J218750D01*
G01*
G37*
G36*
G01*
X107030000Y-130304250D02*
X107030000Y-129791750D01*
G75*
G02*
X107248750Y-129573000I218750J0D01*
G01*
X107686250Y-129573000D01*
G75*
G02*
X107905000Y-129791750I0J-218750D01*
G01*
X107905000Y-130304250D01*
G75*
G02*
X107686250Y-130523000I-218750J0D01*
G01*
X107248750Y-130523000D01*
G75*
G02*
X107030000Y-130304250I0J218750D01*
G01*
G37*
G36*
G01*
X105455000Y-130304250D02*
X105455000Y-129791750D01*
G75*
G02*
X105673750Y-129573000I218750J0D01*
G01*
X106111250Y-129573000D01*
G75*
G02*
X106330000Y-129791750I0J-218750D01*
G01*
X106330000Y-130304250D01*
G75*
G02*
X106111250Y-130523000I-218750J0D01*
G01*
X105673750Y-130523000D01*
G75*
G02*
X105455000Y-130304250I0J218750D01*
G01*
G37*
G36*
G01*
X200255000Y-135532000D02*
X200255000Y-135232000D01*
G75*
G02*
X200405000Y-135082000I150000J0D01*
G01*
X202055000Y-135082000D01*
G75*
G02*
X202205000Y-135232000I0J-150000D01*
G01*
X202205000Y-135532000D01*
G75*
G02*
X202055000Y-135682000I-150000J0D01*
G01*
X200405000Y-135682000D01*
G75*
G02*
X200255000Y-135532000I0J150000D01*
G01*
G37*
G36*
G01*
X200255000Y-134262000D02*
X200255000Y-133962000D01*
G75*
G02*
X200405000Y-133812000I150000J0D01*
G01*
X202055000Y-133812000D01*
G75*
G02*
X202205000Y-133962000I0J-150000D01*
G01*
X202205000Y-134262000D01*
G75*
G02*
X202055000Y-134412000I-150000J0D01*
G01*
X200405000Y-134412000D01*
G75*
G02*
X200255000Y-134262000I0J150000D01*
G01*
G37*
G36*
G01*
X200255000Y-132992000D02*
X200255000Y-132692000D01*
G75*
G02*
X200405000Y-132542000I150000J0D01*
G01*
X202055000Y-132542000D01*
G75*
G02*
X202205000Y-132692000I0J-150000D01*
G01*
X202205000Y-132992000D01*
G75*
G02*
X202055000Y-133142000I-150000J0D01*
G01*
X200405000Y-133142000D01*
G75*
G02*
X200255000Y-132992000I0J150000D01*
G01*
G37*
G36*
G01*
X200255000Y-131722000D02*
X200255000Y-131422000D01*
G75*
G02*
X200405000Y-131272000I150000J0D01*
G01*
X202055000Y-131272000D01*
G75*
G02*
X202205000Y-131422000I0J-150000D01*
G01*
X202205000Y-131722000D01*
G75*
G02*
X202055000Y-131872000I-150000J0D01*
G01*
X200405000Y-131872000D01*
G75*
G02*
X200255000Y-131722000I0J150000D01*
G01*
G37*
G36*
G01*
X195305000Y-131722000D02*
X195305000Y-131422000D01*
G75*
G02*
X195455000Y-131272000I150000J0D01*
G01*
X197105000Y-131272000D01*
G75*
G02*
X197255000Y-131422000I0J-150000D01*
G01*
X197255000Y-131722000D01*
G75*
G02*
X197105000Y-131872000I-150000J0D01*
G01*
X195455000Y-131872000D01*
G75*
G02*
X195305000Y-131722000I0J150000D01*
G01*
G37*
G36*
G01*
X195305000Y-132992000D02*
X195305000Y-132692000D01*
G75*
G02*
X195455000Y-132542000I150000J0D01*
G01*
X197105000Y-132542000D01*
G75*
G02*
X197255000Y-132692000I0J-150000D01*
G01*
X197255000Y-132992000D01*
G75*
G02*
X197105000Y-133142000I-150000J0D01*
G01*
X195455000Y-133142000D01*
G75*
G02*
X195305000Y-132992000I0J150000D01*
G01*
G37*
G36*
G01*
X195305000Y-134262000D02*
X195305000Y-133962000D01*
G75*
G02*
X195455000Y-133812000I150000J0D01*
G01*
X197105000Y-133812000D01*
G75*
G02*
X197255000Y-133962000I0J-150000D01*
G01*
X197255000Y-134262000D01*
G75*
G02*
X197105000Y-134412000I-150000J0D01*
G01*
X195455000Y-134412000D01*
G75*
G02*
X195305000Y-134262000I0J150000D01*
G01*
G37*
G36*
G01*
X195305000Y-135532000D02*
X195305000Y-135232000D01*
G75*
G02*
X195455000Y-135082000I150000J0D01*
G01*
X197105000Y-135082000D01*
G75*
G02*
X197255000Y-135232000I0J-150000D01*
G01*
X197255000Y-135532000D01*
G75*
G02*
X197105000Y-135682000I-150000J0D01*
G01*
X195455000Y-135682000D01*
G75*
G02*
X195305000Y-135532000I0J150000D01*
G01*
G37*
G36*
G01*
X115292000Y-134008000D02*
X115292000Y-133708000D01*
G75*
G02*
X115442000Y-133558000I150000J0D01*
G01*
X117092000Y-133558000D01*
G75*
G02*
X117242000Y-133708000I0J-150000D01*
G01*
X117242000Y-134008000D01*
G75*
G02*
X117092000Y-134158000I-150000J0D01*
G01*
X115442000Y-134158000D01*
G75*
G02*
X115292000Y-134008000I0J150000D01*
G01*
G37*
G36*
G01*
X115292000Y-132738000D02*
X115292000Y-132438000D01*
G75*
G02*
X115442000Y-132288000I150000J0D01*
G01*
X117092000Y-132288000D01*
G75*
G02*
X117242000Y-132438000I0J-150000D01*
G01*
X117242000Y-132738000D01*
G75*
G02*
X117092000Y-132888000I-150000J0D01*
G01*
X115442000Y-132888000D01*
G75*
G02*
X115292000Y-132738000I0J150000D01*
G01*
G37*
G36*
G01*
X115292000Y-131468000D02*
X115292000Y-131168000D01*
G75*
G02*
X115442000Y-131018000I150000J0D01*
G01*
X117092000Y-131018000D01*
G75*
G02*
X117242000Y-131168000I0J-150000D01*
G01*
X117242000Y-131468000D01*
G75*
G02*
X117092000Y-131618000I-150000J0D01*
G01*
X115442000Y-131618000D01*
G75*
G02*
X115292000Y-131468000I0J150000D01*
G01*
G37*
G36*
G01*
X115292000Y-130198000D02*
X115292000Y-129898000D01*
G75*
G02*
X115442000Y-129748000I150000J0D01*
G01*
X117092000Y-129748000D01*
G75*
G02*
X117242000Y-129898000I0J-150000D01*
G01*
X117242000Y-130198000D01*
G75*
G02*
X117092000Y-130348000I-150000J0D01*
G01*
X115442000Y-130348000D01*
G75*
G02*
X115292000Y-130198000I0J150000D01*
G01*
G37*
G36*
G01*
X110342000Y-130198000D02*
X110342000Y-129898000D01*
G75*
G02*
X110492000Y-129748000I150000J0D01*
G01*
X112142000Y-129748000D01*
G75*
G02*
X112292000Y-129898000I0J-150000D01*
G01*
X112292000Y-130198000D01*
G75*
G02*
X112142000Y-130348000I-150000J0D01*
G01*
X110492000Y-130348000D01*
G75*
G02*
X110342000Y-130198000I0J150000D01*
G01*
G37*
G36*
G01*
X110342000Y-131468000D02*
X110342000Y-131168000D01*
G75*
G02*
X110492000Y-131018000I150000J0D01*
G01*
X112142000Y-131018000D01*
G75*
G02*
X112292000Y-131168000I0J-150000D01*
G01*
X112292000Y-131468000D01*
G75*
G02*
X112142000Y-131618000I-150000J0D01*
G01*
X110492000Y-131618000D01*
G75*
G02*
X110342000Y-131468000I0J150000D01*
G01*
G37*
G36*
G01*
X110342000Y-132738000D02*
X110342000Y-132438000D01*
G75*
G02*
X110492000Y-132288000I150000J0D01*
G01*
X112142000Y-132288000D01*
G75*
G02*
X112292000Y-132438000I0J-150000D01*
G01*
X112292000Y-132738000D01*
G75*
G02*
X112142000Y-132888000I-150000J0D01*
G01*
X110492000Y-132888000D01*
G75*
G02*
X110342000Y-132738000I0J150000D01*
G01*
G37*
G36*
G01*
X110342000Y-134008000D02*
X110342000Y-133708000D01*
G75*
G02*
X110492000Y-133558000I150000J0D01*
G01*
X112142000Y-133558000D01*
G75*
G02*
X112292000Y-133708000I0J-150000D01*
G01*
X112292000Y-134008000D01*
G75*
G02*
X112142000Y-134158000I-150000J0D01*
G01*
X110492000Y-134158000D01*
G75*
G02*
X110342000Y-134008000I0J150000D01*
G01*
G37*
G36*
G01*
X196819000Y-128018250D02*
X196819000Y-127505750D01*
G75*
G02*
X197037750Y-127287000I218750J0D01*
G01*
X197475250Y-127287000D01*
G75*
G02*
X197694000Y-127505750I0J-218750D01*
G01*
X197694000Y-128018250D01*
G75*
G02*
X197475250Y-128237000I-218750J0D01*
G01*
X197037750Y-128237000D01*
G75*
G02*
X196819000Y-128018250I0J218750D01*
G01*
G37*
G36*
G01*
X195244000Y-128018250D02*
X195244000Y-127505750D01*
G75*
G02*
X195462750Y-127287000I218750J0D01*
G01*
X195900250Y-127287000D01*
G75*
G02*
X196119000Y-127505750I0J-218750D01*
G01*
X196119000Y-128018250D01*
G75*
G02*
X195900250Y-128237000I-218750J0D01*
G01*
X195462750Y-128237000D01*
G75*
G02*
X195244000Y-128018250I0J218750D01*
G01*
G37*
G36*
G01*
X202915000Y-141226250D02*
X202915000Y-140713750D01*
G75*
G02*
X203133750Y-140495000I218750J0D01*
G01*
X203571250Y-140495000D01*
G75*
G02*
X203790000Y-140713750I0J-218750D01*
G01*
X203790000Y-141226250D01*
G75*
G02*
X203571250Y-141445000I-218750J0D01*
G01*
X203133750Y-141445000D01*
G75*
G02*
X202915000Y-141226250I0J218750D01*
G01*
G37*
G36*
G01*
X201340000Y-141226250D02*
X201340000Y-140713750D01*
G75*
G02*
X201558750Y-140495000I218750J0D01*
G01*
X201996250Y-140495000D01*
G75*
G02*
X202215000Y-140713750I0J-218750D01*
G01*
X202215000Y-141226250D01*
G75*
G02*
X201996250Y-141445000I-218750J0D01*
G01*
X201558750Y-141445000D01*
G75*
G02*
X201340000Y-141226250I0J218750D01*
G01*
G37*
G36*
G01*
X111729000Y-127764250D02*
X111729000Y-127251750D01*
G75*
G02*
X111947750Y-127033000I218750J0D01*
G01*
X112385250Y-127033000D01*
G75*
G02*
X112604000Y-127251750I0J-218750D01*
G01*
X112604000Y-127764250D01*
G75*
G02*
X112385250Y-127983000I-218750J0D01*
G01*
X111947750Y-127983000D01*
G75*
G02*
X111729000Y-127764250I0J218750D01*
G01*
G37*
G36*
G01*
X110154000Y-127764250D02*
X110154000Y-127251750D01*
G75*
G02*
X110372750Y-127033000I218750J0D01*
G01*
X110810250Y-127033000D01*
G75*
G02*
X111029000Y-127251750I0J-218750D01*
G01*
X111029000Y-127764250D01*
G75*
G02*
X110810250Y-127983000I-218750J0D01*
G01*
X110372750Y-127983000D01*
G75*
G02*
X110154000Y-127764250I0J218750D01*
G01*
G37*
G36*
G01*
X118206000Y-136019250D02*
X118206000Y-135506750D01*
G75*
G02*
X118424750Y-135288000I218750J0D01*
G01*
X118862250Y-135288000D01*
G75*
G02*
X119081000Y-135506750I0J-218750D01*
G01*
X119081000Y-136019250D01*
G75*
G02*
X118862250Y-136238000I-218750J0D01*
G01*
X118424750Y-136238000D01*
G75*
G02*
X118206000Y-136019250I0J218750D01*
G01*
G37*
G36*
G01*
X116631000Y-136019250D02*
X116631000Y-135506750D01*
G75*
G02*
X116849750Y-135288000I218750J0D01*
G01*
X117287250Y-135288000D01*
G75*
G02*
X117506000Y-135506750I0J-218750D01*
G01*
X117506000Y-136019250D01*
G75*
G02*
X117287250Y-136238000I-218750J0D01*
G01*
X116849750Y-136238000D01*
G75*
G02*
X116631000Y-136019250I0J218750D01*
G01*
G37*
G36*
G01*
X186975000Y-142110750D02*
X186975000Y-142623250D01*
G75*
G02*
X186756250Y-142842000I-218750J0D01*
G01*
X186318750Y-142842000D01*
G75*
G02*
X186100000Y-142623250I0J218750D01*
G01*
X186100000Y-142110750D01*
G75*
G02*
X186318750Y-141892000I218750J0D01*
G01*
X186756250Y-141892000D01*
G75*
G02*
X186975000Y-142110750I0J-218750D01*
G01*
G37*
G36*
G01*
X188550000Y-142110750D02*
X188550000Y-142623250D01*
G75*
G02*
X188331250Y-142842000I-218750J0D01*
G01*
X187893750Y-142842000D01*
G75*
G02*
X187675000Y-142623250I0J218750D01*
G01*
X187675000Y-142110750D01*
G75*
G02*
X187893750Y-141892000I218750J0D01*
G01*
X188331250Y-141892000D01*
G75*
G02*
X188550000Y-142110750I0J-218750D01*
G01*
G37*
G36*
G01*
X187675000Y-137543250D02*
X187675000Y-137030750D01*
G75*
G02*
X187893750Y-136812000I218750J0D01*
G01*
X188331250Y-136812000D01*
G75*
G02*
X188550000Y-137030750I0J-218750D01*
G01*
X188550000Y-137543250D01*
G75*
G02*
X188331250Y-137762000I-218750J0D01*
G01*
X187893750Y-137762000D01*
G75*
G02*
X187675000Y-137543250I0J218750D01*
G01*
G37*
G36*
G01*
X186100000Y-137543250D02*
X186100000Y-137030750D01*
G75*
G02*
X186318750Y-136812000I218750J0D01*
G01*
X186756250Y-136812000D01*
G75*
G02*
X186975000Y-137030750I0J-218750D01*
G01*
X186975000Y-137543250D01*
G75*
G02*
X186756250Y-137762000I-218750J0D01*
G01*
X186318750Y-137762000D01*
G75*
G02*
X186100000Y-137543250I0J218750D01*
G01*
G37*
G36*
G01*
X225648000Y-113540250D02*
X225648000Y-113027750D01*
G75*
G02*
X225866750Y-112809000I218750J0D01*
G01*
X226304250Y-112809000D01*
G75*
G02*
X226523000Y-113027750I0J-218750D01*
G01*
X226523000Y-113540250D01*
G75*
G02*
X226304250Y-113759000I-218750J0D01*
G01*
X225866750Y-113759000D01*
G75*
G02*
X225648000Y-113540250I0J218750D01*
G01*
G37*
G36*
G01*
X224073000Y-113540250D02*
X224073000Y-113027750D01*
G75*
G02*
X224291750Y-112809000I218750J0D01*
G01*
X224729250Y-112809000D01*
G75*
G02*
X224948000Y-113027750I0J-218750D01*
G01*
X224948000Y-113540250D01*
G75*
G02*
X224729250Y-113759000I-218750J0D01*
G01*
X224291750Y-113759000D01*
G75*
G02*
X224073000Y-113540250I0J218750D01*
G01*
G37*
G36*
G01*
X210027000Y-114429250D02*
X210027000Y-113916750D01*
G75*
G02*
X210245750Y-113698000I218750J0D01*
G01*
X210683250Y-113698000D01*
G75*
G02*
X210902000Y-113916750I0J-218750D01*
G01*
X210902000Y-114429250D01*
G75*
G02*
X210683250Y-114648000I-218750J0D01*
G01*
X210245750Y-114648000D01*
G75*
G02*
X210027000Y-114429250I0J218750D01*
G01*
G37*
G36*
G01*
X208452000Y-114429250D02*
X208452000Y-113916750D01*
G75*
G02*
X208670750Y-113698000I218750J0D01*
G01*
X209108250Y-113698000D01*
G75*
G02*
X209327000Y-113916750I0J-218750D01*
G01*
X209327000Y-114429250D01*
G75*
G02*
X209108250Y-114648000I-218750J0D01*
G01*
X208670750Y-114648000D01*
G75*
G02*
X208452000Y-114429250I0J218750D01*
G01*
G37*
G36*
G01*
X194660000Y-92966250D02*
X194660000Y-92453750D01*
G75*
G02*
X194878750Y-92235000I218750J0D01*
G01*
X195316250Y-92235000D01*
G75*
G02*
X195535000Y-92453750I0J-218750D01*
G01*
X195535000Y-92966250D01*
G75*
G02*
X195316250Y-93185000I-218750J0D01*
G01*
X194878750Y-93185000D01*
G75*
G02*
X194660000Y-92966250I0J218750D01*
G01*
G37*
G36*
G01*
X193085000Y-92966250D02*
X193085000Y-92453750D01*
G75*
G02*
X193303750Y-92235000I218750J0D01*
G01*
X193741250Y-92235000D01*
G75*
G02*
X193960000Y-92453750I0J-218750D01*
G01*
X193960000Y-92966250D01*
G75*
G02*
X193741250Y-93185000I-218750J0D01*
G01*
X193303750Y-93185000D01*
G75*
G02*
X193085000Y-92966250I0J218750D01*
G01*
G37*
G36*
G01*
X200310000Y-92453750D02*
X200310000Y-92966250D01*
G75*
G02*
X200091250Y-93185000I-218750J0D01*
G01*
X199653750Y-93185000D01*
G75*
G02*
X199435000Y-92966250I0J218750D01*
G01*
X199435000Y-92453750D01*
G75*
G02*
X199653750Y-92235000I218750J0D01*
G01*
X200091250Y-92235000D01*
G75*
G02*
X200310000Y-92453750I0J-218750D01*
G01*
G37*
G36*
G01*
X201885000Y-92453750D02*
X201885000Y-92966250D01*
G75*
G02*
X201666250Y-93185000I-218750J0D01*
G01*
X201228750Y-93185000D01*
G75*
G02*
X201010000Y-92966250I0J218750D01*
G01*
X201010000Y-92453750D01*
G75*
G02*
X201228750Y-92235000I218750J0D01*
G01*
X201666250Y-92235000D01*
G75*
G02*
X201885000Y-92453750I0J-218750D01*
G01*
G37*
G36*
G01*
X214472000Y-121922250D02*
X214472000Y-121409750D01*
G75*
G02*
X214690750Y-121191000I218750J0D01*
G01*
X215128250Y-121191000D01*
G75*
G02*
X215347000Y-121409750I0J-218750D01*
G01*
X215347000Y-121922250D01*
G75*
G02*
X215128250Y-122141000I-218750J0D01*
G01*
X214690750Y-122141000D01*
G75*
G02*
X214472000Y-121922250I0J218750D01*
G01*
G37*
G36*
G01*
X212897000Y-121922250D02*
X212897000Y-121409750D01*
G75*
G02*
X213115750Y-121191000I218750J0D01*
G01*
X213553250Y-121191000D01*
G75*
G02*
X213772000Y-121409750I0J-218750D01*
G01*
X213772000Y-121922250D01*
G75*
G02*
X213553250Y-122141000I-218750J0D01*
G01*
X213115750Y-122141000D01*
G75*
G02*
X212897000Y-121922250I0J218750D01*
G01*
G37*
G36*
G01*
X209327000Y-126108750D02*
X209327000Y-126621250D01*
G75*
G02*
X209108250Y-126840000I-218750J0D01*
G01*
X208670750Y-126840000D01*
G75*
G02*
X208452000Y-126621250I0J218750D01*
G01*
X208452000Y-126108750D01*
G75*
G02*
X208670750Y-125890000I218750J0D01*
G01*
X209108250Y-125890000D01*
G75*
G02*
X209327000Y-126108750I0J-218750D01*
G01*
G37*
G36*
G01*
X210902000Y-126108750D02*
X210902000Y-126621250D01*
G75*
G02*
X210683250Y-126840000I-218750J0D01*
G01*
X210245750Y-126840000D01*
G75*
G02*
X210027000Y-126621250I0J218750D01*
G01*
X210027000Y-126108750D01*
G75*
G02*
X210245750Y-125890000I218750J0D01*
G01*
X210683250Y-125890000D01*
G75*
G02*
X210902000Y-126108750I0J-218750D01*
G01*
G37*
G36*
G01*
X201010000Y-96776250D02*
X201010000Y-96263750D01*
G75*
G02*
X201228750Y-96045000I218750J0D01*
G01*
X201666250Y-96045000D01*
G75*
G02*
X201885000Y-96263750I0J-218750D01*
G01*
X201885000Y-96776250D01*
G75*
G02*
X201666250Y-96995000I-218750J0D01*
G01*
X201228750Y-96995000D01*
G75*
G02*
X201010000Y-96776250I0J218750D01*
G01*
G37*
G36*
G01*
X199435000Y-96776250D02*
X199435000Y-96263750D01*
G75*
G02*
X199653750Y-96045000I218750J0D01*
G01*
X200091250Y-96045000D01*
G75*
G02*
X200310000Y-96263750I0J-218750D01*
G01*
X200310000Y-96776250D01*
G75*
G02*
X200091250Y-96995000I-218750J0D01*
G01*
X199653750Y-96995000D01*
G75*
G02*
X199435000Y-96776250I0J218750D01*
G01*
G37*
G36*
G01*
X213238500Y-83563750D02*
X213238500Y-84076250D01*
G75*
G02*
X213019750Y-84295000I-218750J0D01*
G01*
X212582250Y-84295000D01*
G75*
G02*
X212363500Y-84076250I0J218750D01*
G01*
X212363500Y-83563750D01*
G75*
G02*
X212582250Y-83345000I218750J0D01*
G01*
X213019750Y-83345000D01*
G75*
G02*
X213238500Y-83563750I0J-218750D01*
G01*
G37*
G36*
G01*
X214813500Y-83563750D02*
X214813500Y-84076250D01*
G75*
G02*
X214594750Y-84295000I-218750J0D01*
G01*
X214157250Y-84295000D01*
G75*
G02*
X213938500Y-84076250I0J218750D01*
G01*
X213938500Y-83563750D01*
G75*
G02*
X214157250Y-83345000I218750J0D01*
G01*
X214594750Y-83345000D01*
G75*
G02*
X214813500Y-83563750I0J-218750D01*
G01*
G37*
G36*
G01*
X201010000Y-100586250D02*
X201010000Y-100073750D01*
G75*
G02*
X201228750Y-99855000I218750J0D01*
G01*
X201666250Y-99855000D01*
G75*
G02*
X201885000Y-100073750I0J-218750D01*
G01*
X201885000Y-100586250D01*
G75*
G02*
X201666250Y-100805000I-218750J0D01*
G01*
X201228750Y-100805000D01*
G75*
G02*
X201010000Y-100586250I0J218750D01*
G01*
G37*
G36*
G01*
X199435000Y-100586250D02*
X199435000Y-100073750D01*
G75*
G02*
X199653750Y-99855000I218750J0D01*
G01*
X200091250Y-99855000D01*
G75*
G02*
X200310000Y-100073750I0J-218750D01*
G01*
X200310000Y-100586250D01*
G75*
G02*
X200091250Y-100805000I-218750J0D01*
G01*
X199653750Y-100805000D01*
G75*
G02*
X199435000Y-100586250I0J218750D01*
G01*
G37*
G36*
G01*
X207168000Y-83563750D02*
X207168000Y-84076250D01*
G75*
G02*
X206949250Y-84295000I-218750J0D01*
G01*
X206511750Y-84295000D01*
G75*
G02*
X206293000Y-84076250I0J218750D01*
G01*
X206293000Y-83563750D01*
G75*
G02*
X206511750Y-83345000I218750J0D01*
G01*
X206949250Y-83345000D01*
G75*
G02*
X207168000Y-83563750I0J-218750D01*
G01*
G37*
G36*
G01*
X208743000Y-83563750D02*
X208743000Y-84076250D01*
G75*
G02*
X208524250Y-84295000I-218750J0D01*
G01*
X208086750Y-84295000D01*
G75*
G02*
X207868000Y-84076250I0J218750D01*
G01*
X207868000Y-83563750D01*
G75*
G02*
X208086750Y-83345000I218750J0D01*
G01*
X208524250Y-83345000D01*
G75*
G02*
X208743000Y-83563750I0J-218750D01*
G01*
G37*
G36*
G01*
X207868000Y-76456250D02*
X207868000Y-75943750D01*
G75*
G02*
X208086750Y-75725000I218750J0D01*
G01*
X208524250Y-75725000D01*
G75*
G02*
X208743000Y-75943750I0J-218750D01*
G01*
X208743000Y-76456250D01*
G75*
G02*
X208524250Y-76675000I-218750J0D01*
G01*
X208086750Y-76675000D01*
G75*
G02*
X207868000Y-76456250I0J218750D01*
G01*
G37*
G36*
G01*
X206293000Y-76456250D02*
X206293000Y-75943750D01*
G75*
G02*
X206511750Y-75725000I218750J0D01*
G01*
X206949250Y-75725000D01*
G75*
G02*
X207168000Y-75943750I0J-218750D01*
G01*
X207168000Y-76456250D01*
G75*
G02*
X206949250Y-76675000I-218750J0D01*
G01*
X206511750Y-76675000D01*
G75*
G02*
X206293000Y-76456250I0J218750D01*
G01*
G37*
G36*
G01*
X213938500Y-76456250D02*
X213938500Y-75943750D01*
G75*
G02*
X214157250Y-75725000I218750J0D01*
G01*
X214594750Y-75725000D01*
G75*
G02*
X214813500Y-75943750I0J-218750D01*
G01*
X214813500Y-76456250D01*
G75*
G02*
X214594750Y-76675000I-218750J0D01*
G01*
X214157250Y-76675000D01*
G75*
G02*
X213938500Y-76456250I0J218750D01*
G01*
G37*
G36*
G01*
X212363500Y-76456250D02*
X212363500Y-75943750D01*
G75*
G02*
X212582250Y-75725000I218750J0D01*
G01*
X213019750Y-75725000D01*
G75*
G02*
X213238500Y-75943750I0J-218750D01*
G01*
X213238500Y-76456250D01*
G75*
G02*
X213019750Y-76675000I-218750J0D01*
G01*
X212582250Y-76675000D01*
G75*
G02*
X212363500Y-76456250I0J218750D01*
G01*
G37*
G36*
G01*
X206217000Y-135638250D02*
X206217000Y-135125750D01*
G75*
G02*
X206435750Y-134907000I218750J0D01*
G01*
X206873250Y-134907000D01*
G75*
G02*
X207092000Y-135125750I0J-218750D01*
G01*
X207092000Y-135638250D01*
G75*
G02*
X206873250Y-135857000I-218750J0D01*
G01*
X206435750Y-135857000D01*
G75*
G02*
X206217000Y-135638250I0J218750D01*
G01*
G37*
G36*
G01*
X204642000Y-135638250D02*
X204642000Y-135125750D01*
G75*
G02*
X204860750Y-134907000I218750J0D01*
G01*
X205298250Y-134907000D01*
G75*
G02*
X205517000Y-135125750I0J-218750D01*
G01*
X205517000Y-135638250D01*
G75*
G02*
X205298250Y-135857000I-218750J0D01*
G01*
X204860750Y-135857000D01*
G75*
G02*
X204642000Y-135638250I0J218750D01*
G01*
G37*
G36*
G01*
X208630000Y-63756250D02*
X208630000Y-63243750D01*
G75*
G02*
X208848750Y-63025000I218750J0D01*
G01*
X209286250Y-63025000D01*
G75*
G02*
X209505000Y-63243750I0J-218750D01*
G01*
X209505000Y-63756250D01*
G75*
G02*
X209286250Y-63975000I-218750J0D01*
G01*
X208848750Y-63975000D01*
G75*
G02*
X208630000Y-63756250I0J218750D01*
G01*
G37*
G36*
G01*
X207055000Y-63756250D02*
X207055000Y-63243750D01*
G75*
G02*
X207273750Y-63025000I218750J0D01*
G01*
X207711250Y-63025000D01*
G75*
G02*
X207930000Y-63243750I0J-218750D01*
G01*
X207930000Y-63756250D01*
G75*
G02*
X207711250Y-63975000I-218750J0D01*
G01*
X207273750Y-63975000D01*
G75*
G02*
X207055000Y-63756250I0J218750D01*
G01*
G37*
G36*
G01*
X213202000Y-63883250D02*
X213202000Y-63370750D01*
G75*
G02*
X213420750Y-63152000I218750J0D01*
G01*
X213858250Y-63152000D01*
G75*
G02*
X214077000Y-63370750I0J-218750D01*
G01*
X214077000Y-63883250D01*
G75*
G02*
X213858250Y-64102000I-218750J0D01*
G01*
X213420750Y-64102000D01*
G75*
G02*
X213202000Y-63883250I0J218750D01*
G01*
G37*
G36*
G01*
X211627000Y-63883250D02*
X211627000Y-63370750D01*
G75*
G02*
X211845750Y-63152000I218750J0D01*
G01*
X212283250Y-63152000D01*
G75*
G02*
X212502000Y-63370750I0J-218750D01*
G01*
X212502000Y-63883250D01*
G75*
G02*
X212283250Y-64102000I-218750J0D01*
G01*
X211845750Y-64102000D01*
G75*
G02*
X211627000Y-63883250I0J218750D01*
G01*
G37*
G36*
G01*
X217647000Y-141099250D02*
X217647000Y-140586750D01*
G75*
G02*
X217865750Y-140368000I218750J0D01*
G01*
X218303250Y-140368000D01*
G75*
G02*
X218522000Y-140586750I0J-218750D01*
G01*
X218522000Y-141099250D01*
G75*
G02*
X218303250Y-141318000I-218750J0D01*
G01*
X217865750Y-141318000D01*
G75*
G02*
X217647000Y-141099250I0J218750D01*
G01*
G37*
G36*
G01*
X216072000Y-141099250D02*
X216072000Y-140586750D01*
G75*
G02*
X216290750Y-140368000I218750J0D01*
G01*
X216728250Y-140368000D01*
G75*
G02*
X216947000Y-140586750I0J-218750D01*
G01*
X216947000Y-141099250D01*
G75*
G02*
X216728250Y-141318000I-218750J0D01*
G01*
X216290750Y-141318000D01*
G75*
G02*
X216072000Y-141099250I0J218750D01*
G01*
G37*
G36*
G01*
X213772000Y-131950750D02*
X213772000Y-132463250D01*
G75*
G02*
X213553250Y-132682000I-218750J0D01*
G01*
X213115750Y-132682000D01*
G75*
G02*
X212897000Y-132463250I0J218750D01*
G01*
X212897000Y-131950750D01*
G75*
G02*
X213115750Y-131732000I218750J0D01*
G01*
X213553250Y-131732000D01*
G75*
G02*
X213772000Y-131950750I0J-218750D01*
G01*
G37*
G36*
G01*
X215347000Y-131950750D02*
X215347000Y-132463250D01*
G75*
G02*
X215128250Y-132682000I-218750J0D01*
G01*
X214690750Y-132682000D01*
G75*
G02*
X214472000Y-132463250I0J218750D01*
G01*
X214472000Y-131950750D01*
G75*
G02*
X214690750Y-131732000I218750J0D01*
G01*
X215128250Y-131732000D01*
G75*
G02*
X215347000Y-131950750I0J-218750D01*
G01*
G37*
G36*
G01*
X224948000Y-140586750D02*
X224948000Y-141099250D01*
G75*
G02*
X224729250Y-141318000I-218750J0D01*
G01*
X224291750Y-141318000D01*
G75*
G02*
X224073000Y-141099250I0J218750D01*
G01*
X224073000Y-140586750D01*
G75*
G02*
X224291750Y-140368000I218750J0D01*
G01*
X224729250Y-140368000D01*
G75*
G02*
X224948000Y-140586750I0J-218750D01*
G01*
G37*
G36*
G01*
X226523000Y-140586750D02*
X226523000Y-141099250D01*
G75*
G02*
X226304250Y-141318000I-218750J0D01*
G01*
X225866750Y-141318000D01*
G75*
G02*
X225648000Y-141099250I0J218750D01*
G01*
X225648000Y-140586750D01*
G75*
G02*
X225866750Y-140368000I218750J0D01*
G01*
X226304250Y-140368000D01*
G75*
G02*
X226523000Y-140586750I0J-218750D01*
G01*
G37*
G36*
G01*
X221457000Y-129669250D02*
X221457000Y-129156750D01*
G75*
G02*
X221675750Y-128938000I218750J0D01*
G01*
X222113250Y-128938000D01*
G75*
G02*
X222332000Y-129156750I0J-218750D01*
G01*
X222332000Y-129669250D01*
G75*
G02*
X222113250Y-129888000I-218750J0D01*
G01*
X221675750Y-129888000D01*
G75*
G02*
X221457000Y-129669250I0J218750D01*
G01*
G37*
G36*
G01*
X219882000Y-129669250D02*
X219882000Y-129156750D01*
G75*
G02*
X220100750Y-128938000I218750J0D01*
G01*
X220538250Y-128938000D01*
G75*
G02*
X220757000Y-129156750I0J-218750D01*
G01*
X220757000Y-129669250D01*
G75*
G02*
X220538250Y-129888000I-218750J0D01*
G01*
X220100750Y-129888000D01*
G75*
G02*
X219882000Y-129669250I0J218750D01*
G01*
G37*
G36*
G01*
X225648000Y-126367250D02*
X225648000Y-125854750D01*
G75*
G02*
X225866750Y-125636000I218750J0D01*
G01*
X226304250Y-125636000D01*
G75*
G02*
X226523000Y-125854750I0J-218750D01*
G01*
X226523000Y-126367250D01*
G75*
G02*
X226304250Y-126586000I-218750J0D01*
G01*
X225866750Y-126586000D01*
G75*
G02*
X225648000Y-126367250I0J218750D01*
G01*
G37*
G36*
G01*
X224073000Y-126367250D02*
X224073000Y-125854750D01*
G75*
G02*
X224291750Y-125636000I218750J0D01*
G01*
X224729250Y-125636000D01*
G75*
G02*
X224948000Y-125854750I0J-218750D01*
G01*
X224948000Y-126367250D01*
G75*
G02*
X224729250Y-126586000I-218750J0D01*
G01*
X224291750Y-126586000D01*
G75*
G02*
X224073000Y-126367250I0J218750D01*
G01*
G37*
G36*
G01*
X187675000Y-114683250D02*
X187675000Y-114170750D01*
G75*
G02*
X187893750Y-113952000I218750J0D01*
G01*
X188331250Y-113952000D01*
G75*
G02*
X188550000Y-114170750I0J-218750D01*
G01*
X188550000Y-114683250D01*
G75*
G02*
X188331250Y-114902000I-218750J0D01*
G01*
X187893750Y-114902000D01*
G75*
G02*
X187675000Y-114683250I0J218750D01*
G01*
G37*
G36*
G01*
X186100000Y-114683250D02*
X186100000Y-114170750D01*
G75*
G02*
X186318750Y-113952000I218750J0D01*
G01*
X186756250Y-113952000D01*
G75*
G02*
X186975000Y-114170750I0J-218750D01*
G01*
X186975000Y-114683250D01*
G75*
G02*
X186756250Y-114902000I-218750J0D01*
G01*
X186318750Y-114902000D01*
G75*
G02*
X186100000Y-114683250I0J218750D01*
G01*
G37*
G36*
G01*
X171800000Y-123446250D02*
X171800000Y-122933750D01*
G75*
G02*
X172018750Y-122715000I218750J0D01*
G01*
X172456250Y-122715000D01*
G75*
G02*
X172675000Y-122933750I0J-218750D01*
G01*
X172675000Y-123446250D01*
G75*
G02*
X172456250Y-123665000I-218750J0D01*
G01*
X172018750Y-123665000D01*
G75*
G02*
X171800000Y-123446250I0J218750D01*
G01*
G37*
G36*
G01*
X170225000Y-123446250D02*
X170225000Y-122933750D01*
G75*
G02*
X170443750Y-122715000I218750J0D01*
G01*
X170881250Y-122715000D01*
G75*
G02*
X171100000Y-122933750I0J-218750D01*
G01*
X171100000Y-123446250D01*
G75*
G02*
X170881250Y-123665000I-218750J0D01*
G01*
X170443750Y-123665000D01*
G75*
G02*
X170225000Y-123446250I0J218750D01*
G01*
G37*
G36*
G01*
X152750000Y-92966250D02*
X152750000Y-92453750D01*
G75*
G02*
X152968750Y-92235000I218750J0D01*
G01*
X153406250Y-92235000D01*
G75*
G02*
X153625000Y-92453750I0J-218750D01*
G01*
X153625000Y-92966250D01*
G75*
G02*
X153406250Y-93185000I-218750J0D01*
G01*
X152968750Y-93185000D01*
G75*
G02*
X152750000Y-92966250I0J218750D01*
G01*
G37*
G36*
G01*
X151175000Y-92966250D02*
X151175000Y-92453750D01*
G75*
G02*
X151393750Y-92235000I218750J0D01*
G01*
X151831250Y-92235000D01*
G75*
G02*
X152050000Y-92453750I0J-218750D01*
G01*
X152050000Y-92966250D01*
G75*
G02*
X151831250Y-93185000I-218750J0D01*
G01*
X151393750Y-93185000D01*
G75*
G02*
X151175000Y-92966250I0J218750D01*
G01*
G37*
G36*
G01*
X158400000Y-92453750D02*
X158400000Y-92966250D01*
G75*
G02*
X158181250Y-93185000I-218750J0D01*
G01*
X157743750Y-93185000D01*
G75*
G02*
X157525000Y-92966250I0J218750D01*
G01*
X157525000Y-92453750D01*
G75*
G02*
X157743750Y-92235000I218750J0D01*
G01*
X158181250Y-92235000D01*
G75*
G02*
X158400000Y-92453750I0J-218750D01*
G01*
G37*
G36*
G01*
X159975000Y-92453750D02*
X159975000Y-92966250D01*
G75*
G02*
X159756250Y-93185000I-218750J0D01*
G01*
X159318750Y-93185000D01*
G75*
G02*
X159100000Y-92966250I0J218750D01*
G01*
X159100000Y-92453750D01*
G75*
G02*
X159318750Y-92235000I218750J0D01*
G01*
X159756250Y-92235000D01*
G75*
G02*
X159975000Y-92453750I0J-218750D01*
G01*
G37*
G36*
G01*
X175229000Y-125097250D02*
X175229000Y-124584750D01*
G75*
G02*
X175447750Y-124366000I218750J0D01*
G01*
X175885250Y-124366000D01*
G75*
G02*
X176104000Y-124584750I0J-218750D01*
G01*
X176104000Y-125097250D01*
G75*
G02*
X175885250Y-125316000I-218750J0D01*
G01*
X175447750Y-125316000D01*
G75*
G02*
X175229000Y-125097250I0J218750D01*
G01*
G37*
G36*
G01*
X173654000Y-125097250D02*
X173654000Y-124584750D01*
G75*
G02*
X173872750Y-124366000I218750J0D01*
G01*
X174310250Y-124366000D01*
G75*
G02*
X174529000Y-124584750I0J-218750D01*
G01*
X174529000Y-125097250D01*
G75*
G02*
X174310250Y-125316000I-218750J0D01*
G01*
X173872750Y-125316000D01*
G75*
G02*
X173654000Y-125097250I0J218750D01*
G01*
G37*
G36*
G01*
X186975000Y-124330750D02*
X186975000Y-124843250D01*
G75*
G02*
X186756250Y-125062000I-218750J0D01*
G01*
X186318750Y-125062000D01*
G75*
G02*
X186100000Y-124843250I0J218750D01*
G01*
X186100000Y-124330750D01*
G75*
G02*
X186318750Y-124112000I218750J0D01*
G01*
X186756250Y-124112000D01*
G75*
G02*
X186975000Y-124330750I0J-218750D01*
G01*
G37*
G36*
G01*
X188550000Y-124330750D02*
X188550000Y-124843250D01*
G75*
G02*
X188331250Y-125062000I-218750J0D01*
G01*
X187893750Y-125062000D01*
G75*
G02*
X187675000Y-124843250I0J218750D01*
G01*
X187675000Y-124330750D01*
G75*
G02*
X187893750Y-124112000I218750J0D01*
G01*
X188331250Y-124112000D01*
G75*
G02*
X188550000Y-124330750I0J-218750D01*
G01*
G37*
G36*
G01*
X159100000Y-96776250D02*
X159100000Y-96263750D01*
G75*
G02*
X159318750Y-96045000I218750J0D01*
G01*
X159756250Y-96045000D01*
G75*
G02*
X159975000Y-96263750I0J-218750D01*
G01*
X159975000Y-96776250D01*
G75*
G02*
X159756250Y-96995000I-218750J0D01*
G01*
X159318750Y-96995000D01*
G75*
G02*
X159100000Y-96776250I0J218750D01*
G01*
G37*
G36*
G01*
X157525000Y-96776250D02*
X157525000Y-96263750D01*
G75*
G02*
X157743750Y-96045000I218750J0D01*
G01*
X158181250Y-96045000D01*
G75*
G02*
X158400000Y-96263750I0J-218750D01*
G01*
X158400000Y-96776250D01*
G75*
G02*
X158181250Y-96995000I-218750J0D01*
G01*
X157743750Y-96995000D01*
G75*
G02*
X157525000Y-96776250I0J218750D01*
G01*
G37*
G36*
G01*
X171100000Y-83563750D02*
X171100000Y-84076250D01*
G75*
G02*
X170881250Y-84295000I-218750J0D01*
G01*
X170443750Y-84295000D01*
G75*
G02*
X170225000Y-84076250I0J218750D01*
G01*
X170225000Y-83563750D01*
G75*
G02*
X170443750Y-83345000I218750J0D01*
G01*
X170881250Y-83345000D01*
G75*
G02*
X171100000Y-83563750I0J-218750D01*
G01*
G37*
G36*
G01*
X172675000Y-83563750D02*
X172675000Y-84076250D01*
G75*
G02*
X172456250Y-84295000I-218750J0D01*
G01*
X172018750Y-84295000D01*
G75*
G02*
X171800000Y-84076250I0J218750D01*
G01*
X171800000Y-83563750D01*
G75*
G02*
X172018750Y-83345000I218750J0D01*
G01*
X172456250Y-83345000D01*
G75*
G02*
X172675000Y-83563750I0J-218750D01*
G01*
G37*
G36*
G01*
X159100000Y-100586250D02*
X159100000Y-100073750D01*
G75*
G02*
X159318750Y-99855000I218750J0D01*
G01*
X159756250Y-99855000D01*
G75*
G02*
X159975000Y-100073750I0J-218750D01*
G01*
X159975000Y-100586250D01*
G75*
G02*
X159756250Y-100805000I-218750J0D01*
G01*
X159318750Y-100805000D01*
G75*
G02*
X159100000Y-100586250I0J218750D01*
G01*
G37*
G36*
G01*
X157525000Y-100586250D02*
X157525000Y-100073750D01*
G75*
G02*
X157743750Y-99855000I218750J0D01*
G01*
X158181250Y-99855000D01*
G75*
G02*
X158400000Y-100073750I0J-218750D01*
G01*
X158400000Y-100586250D01*
G75*
G02*
X158181250Y-100805000I-218750J0D01*
G01*
X157743750Y-100805000D01*
G75*
G02*
X157525000Y-100586250I0J218750D01*
G01*
G37*
G36*
G01*
X165004000Y-83563750D02*
X165004000Y-84076250D01*
G75*
G02*
X164785250Y-84295000I-218750J0D01*
G01*
X164347750Y-84295000D01*
G75*
G02*
X164129000Y-84076250I0J218750D01*
G01*
X164129000Y-83563750D01*
G75*
G02*
X164347750Y-83345000I218750J0D01*
G01*
X164785250Y-83345000D01*
G75*
G02*
X165004000Y-83563750I0J-218750D01*
G01*
G37*
G36*
G01*
X166579000Y-83563750D02*
X166579000Y-84076250D01*
G75*
G02*
X166360250Y-84295000I-218750J0D01*
G01*
X165922750Y-84295000D01*
G75*
G02*
X165704000Y-84076250I0J218750D01*
G01*
X165704000Y-83563750D01*
G75*
G02*
X165922750Y-83345000I218750J0D01*
G01*
X166360250Y-83345000D01*
G75*
G02*
X166579000Y-83563750I0J-218750D01*
G01*
G37*
G36*
G01*
X165704000Y-76456250D02*
X165704000Y-75943750D01*
G75*
G02*
X165922750Y-75725000I218750J0D01*
G01*
X166360250Y-75725000D01*
G75*
G02*
X166579000Y-75943750I0J-218750D01*
G01*
X166579000Y-76456250D01*
G75*
G02*
X166360250Y-76675000I-218750J0D01*
G01*
X165922750Y-76675000D01*
G75*
G02*
X165704000Y-76456250I0J218750D01*
G01*
G37*
G36*
G01*
X164129000Y-76456250D02*
X164129000Y-75943750D01*
G75*
G02*
X164347750Y-75725000I218750J0D01*
G01*
X164785250Y-75725000D01*
G75*
G02*
X165004000Y-75943750I0J-218750D01*
G01*
X165004000Y-76456250D01*
G75*
G02*
X164785250Y-76675000I-218750J0D01*
G01*
X164347750Y-76675000D01*
G75*
G02*
X164129000Y-76456250I0J218750D01*
G01*
G37*
G36*
G01*
X171800000Y-76456250D02*
X171800000Y-75943750D01*
G75*
G02*
X172018750Y-75725000I218750J0D01*
G01*
X172456250Y-75725000D01*
G75*
G02*
X172675000Y-75943750I0J-218750D01*
G01*
X172675000Y-76456250D01*
G75*
G02*
X172456250Y-76675000I-218750J0D01*
G01*
X172018750Y-76675000D01*
G75*
G02*
X171800000Y-76456250I0J218750D01*
G01*
G37*
G36*
G01*
X170225000Y-76456250D02*
X170225000Y-75943750D01*
G75*
G02*
X170443750Y-75725000I218750J0D01*
G01*
X170881250Y-75725000D01*
G75*
G02*
X171100000Y-75943750I0J-218750D01*
G01*
X171100000Y-76456250D01*
G75*
G02*
X170881250Y-76675000I-218750J0D01*
G01*
X170443750Y-76675000D01*
G75*
G02*
X170225000Y-76456250I0J218750D01*
G01*
G37*
G36*
G01*
X193009000Y-137162250D02*
X193009000Y-136649750D01*
G75*
G02*
X193227750Y-136431000I218750J0D01*
G01*
X193665250Y-136431000D01*
G75*
G02*
X193884000Y-136649750I0J-218750D01*
G01*
X193884000Y-137162250D01*
G75*
G02*
X193665250Y-137381000I-218750J0D01*
G01*
X193227750Y-137381000D01*
G75*
G02*
X193009000Y-137162250I0J218750D01*
G01*
G37*
G36*
G01*
X191434000Y-137162250D02*
X191434000Y-136649750D01*
G75*
G02*
X191652750Y-136431000I218750J0D01*
G01*
X192090250Y-136431000D01*
G75*
G02*
X192309000Y-136649750I0J-218750D01*
G01*
X192309000Y-137162250D01*
G75*
G02*
X192090250Y-137381000I-218750J0D01*
G01*
X191652750Y-137381000D01*
G75*
G02*
X191434000Y-137162250I0J218750D01*
G01*
G37*
G36*
G01*
X166720000Y-63756250D02*
X166720000Y-63243750D01*
G75*
G02*
X166938750Y-63025000I218750J0D01*
G01*
X167376250Y-63025000D01*
G75*
G02*
X167595000Y-63243750I0J-218750D01*
G01*
X167595000Y-63756250D01*
G75*
G02*
X167376250Y-63975000I-218750J0D01*
G01*
X166938750Y-63975000D01*
G75*
G02*
X166720000Y-63756250I0J218750D01*
G01*
G37*
G36*
G01*
X165145000Y-63756250D02*
X165145000Y-63243750D01*
G75*
G02*
X165363750Y-63025000I218750J0D01*
G01*
X165801250Y-63025000D01*
G75*
G02*
X166020000Y-63243750I0J-218750D01*
G01*
X166020000Y-63756250D01*
G75*
G02*
X165801250Y-63975000I-218750J0D01*
G01*
X165363750Y-63975000D01*
G75*
G02*
X165145000Y-63756250I0J218750D01*
G01*
G37*
G36*
G01*
X171165000Y-63756250D02*
X171165000Y-63243750D01*
G75*
G02*
X171383750Y-63025000I218750J0D01*
G01*
X171821250Y-63025000D01*
G75*
G02*
X172040000Y-63243750I0J-218750D01*
G01*
X172040000Y-63756250D01*
G75*
G02*
X171821250Y-63975000I-218750J0D01*
G01*
X171383750Y-63975000D01*
G75*
G02*
X171165000Y-63756250I0J218750D01*
G01*
G37*
G36*
G01*
X169590000Y-63756250D02*
X169590000Y-63243750D01*
G75*
G02*
X169808750Y-63025000I218750J0D01*
G01*
X170246250Y-63025000D01*
G75*
G02*
X170465000Y-63243750I0J-218750D01*
G01*
X170465000Y-63756250D01*
G75*
G02*
X170246250Y-63975000I-218750J0D01*
G01*
X169808750Y-63975000D01*
G75*
G02*
X169590000Y-63756250I0J218750D01*
G01*
G37*
G36*
G01*
X175229000Y-142623250D02*
X175229000Y-142110750D01*
G75*
G02*
X175447750Y-141892000I218750J0D01*
G01*
X175885250Y-141892000D01*
G75*
G02*
X176104000Y-142110750I0J-218750D01*
G01*
X176104000Y-142623250D01*
G75*
G02*
X175885250Y-142842000I-218750J0D01*
G01*
X175447750Y-142842000D01*
G75*
G02*
X175229000Y-142623250I0J218750D01*
G01*
G37*
G36*
G01*
X173654000Y-142623250D02*
X173654000Y-142110750D01*
G75*
G02*
X173872750Y-141892000I218750J0D01*
G01*
X174310250Y-141892000D01*
G75*
G02*
X174529000Y-142110750I0J-218750D01*
G01*
X174529000Y-142623250D01*
G75*
G02*
X174310250Y-142842000I-218750J0D01*
G01*
X173872750Y-142842000D01*
G75*
G02*
X173654000Y-142623250I0J218750D01*
G01*
G37*
G36*
G01*
X174529000Y-132204750D02*
X174529000Y-132717250D01*
G75*
G02*
X174310250Y-132936000I-218750J0D01*
G01*
X173872750Y-132936000D01*
G75*
G02*
X173654000Y-132717250I0J218750D01*
G01*
X173654000Y-132204750D01*
G75*
G02*
X173872750Y-131986000I218750J0D01*
G01*
X174310250Y-131986000D01*
G75*
G02*
X174529000Y-132204750I0J-218750D01*
G01*
G37*
G36*
G01*
X176104000Y-132204750D02*
X176104000Y-132717250D01*
G75*
G02*
X175885250Y-132936000I-218750J0D01*
G01*
X175447750Y-132936000D01*
G75*
G02*
X175229000Y-132717250I0J218750D01*
G01*
X175229000Y-132204750D01*
G75*
G02*
X175447750Y-131986000I218750J0D01*
G01*
X175885250Y-131986000D01*
G75*
G02*
X176104000Y-132204750I0J-218750D01*
G01*
G37*
G36*
G01*
X187675000Y-132209250D02*
X187675000Y-131696750D01*
G75*
G02*
X187893750Y-131478000I218750J0D01*
G01*
X188331250Y-131478000D01*
G75*
G02*
X188550000Y-131696750I0J-218750D01*
G01*
X188550000Y-132209250D01*
G75*
G02*
X188331250Y-132428000I-218750J0D01*
G01*
X187893750Y-132428000D01*
G75*
G02*
X187675000Y-132209250I0J218750D01*
G01*
G37*
G36*
G01*
X186100000Y-132209250D02*
X186100000Y-131696750D01*
G75*
G02*
X186318750Y-131478000I218750J0D01*
G01*
X186756250Y-131478000D01*
G75*
G02*
X186975000Y-131696750I0J-218750D01*
G01*
X186975000Y-132209250D01*
G75*
G02*
X186756250Y-132428000I-218750J0D01*
G01*
X186318750Y-132428000D01*
G75*
G02*
X186100000Y-132209250I0J218750D01*
G01*
G37*
G36*
G01*
X151962500Y-116588250D02*
X151962500Y-116075750D01*
G75*
G02*
X152181250Y-115857000I218750J0D01*
G01*
X152618750Y-115857000D01*
G75*
G02*
X152837500Y-116075750I0J-218750D01*
G01*
X152837500Y-116588250D01*
G75*
G02*
X152618750Y-116807000I-218750J0D01*
G01*
X152181250Y-116807000D01*
G75*
G02*
X151962500Y-116588250I0J218750D01*
G01*
G37*
G36*
G01*
X150387500Y-116588250D02*
X150387500Y-116075750D01*
G75*
G02*
X150606250Y-115857000I218750J0D01*
G01*
X151043750Y-115857000D01*
G75*
G02*
X151262500Y-116075750I0J-218750D01*
G01*
X151262500Y-116588250D01*
G75*
G02*
X151043750Y-116807000I-218750J0D01*
G01*
X150606250Y-116807000D01*
G75*
G02*
X150387500Y-116588250I0J218750D01*
G01*
G37*
G36*
G01*
X136494000Y-125478250D02*
X136494000Y-124965750D01*
G75*
G02*
X136712750Y-124747000I218750J0D01*
G01*
X137150250Y-124747000D01*
G75*
G02*
X137369000Y-124965750I0J-218750D01*
G01*
X137369000Y-125478250D01*
G75*
G02*
X137150250Y-125697000I-218750J0D01*
G01*
X136712750Y-125697000D01*
G75*
G02*
X136494000Y-125478250I0J218750D01*
G01*
G37*
G36*
G01*
X134919000Y-125478250D02*
X134919000Y-124965750D01*
G75*
G02*
X135137750Y-124747000I218750J0D01*
G01*
X135575250Y-124747000D01*
G75*
G02*
X135794000Y-124965750I0J-218750D01*
G01*
X135794000Y-125478250D01*
G75*
G02*
X135575250Y-125697000I-218750J0D01*
G01*
X135137750Y-125697000D01*
G75*
G02*
X134919000Y-125478250I0J218750D01*
G01*
G37*
G36*
G01*
X110840000Y-92966250D02*
X110840000Y-92453750D01*
G75*
G02*
X111058750Y-92235000I218750J0D01*
G01*
X111496250Y-92235000D01*
G75*
G02*
X111715000Y-92453750I0J-218750D01*
G01*
X111715000Y-92966250D01*
G75*
G02*
X111496250Y-93185000I-218750J0D01*
G01*
X111058750Y-93185000D01*
G75*
G02*
X110840000Y-92966250I0J218750D01*
G01*
G37*
G36*
G01*
X109265000Y-92966250D02*
X109265000Y-92453750D01*
G75*
G02*
X109483750Y-92235000I218750J0D01*
G01*
X109921250Y-92235000D01*
G75*
G02*
X110140000Y-92453750I0J-218750D01*
G01*
X110140000Y-92966250D01*
G75*
G02*
X109921250Y-93185000I-218750J0D01*
G01*
X109483750Y-93185000D01*
G75*
G02*
X109265000Y-92966250I0J218750D01*
G01*
G37*
G36*
G01*
X116490000Y-92453750D02*
X116490000Y-92966250D01*
G75*
G02*
X116271250Y-93185000I-218750J0D01*
G01*
X115833750Y-93185000D01*
G75*
G02*
X115615000Y-92966250I0J218750D01*
G01*
X115615000Y-92453750D01*
G75*
G02*
X115833750Y-92235000I218750J0D01*
G01*
X116271250Y-92235000D01*
G75*
G02*
X116490000Y-92453750I0J-218750D01*
G01*
G37*
G36*
G01*
X118065000Y-92453750D02*
X118065000Y-92966250D01*
G75*
G02*
X117846250Y-93185000I-218750J0D01*
G01*
X117408750Y-93185000D01*
G75*
G02*
X117190000Y-92966250I0J218750D01*
G01*
X117190000Y-92453750D01*
G75*
G02*
X117408750Y-92235000I218750J0D01*
G01*
X117846250Y-92235000D01*
G75*
G02*
X118065000Y-92453750I0J-218750D01*
G01*
G37*
G36*
G01*
X141320000Y-125478250D02*
X141320000Y-124965750D01*
G75*
G02*
X141538750Y-124747000I218750J0D01*
G01*
X141976250Y-124747000D01*
G75*
G02*
X142195000Y-124965750I0J-218750D01*
G01*
X142195000Y-125478250D01*
G75*
G02*
X141976250Y-125697000I-218750J0D01*
G01*
X141538750Y-125697000D01*
G75*
G02*
X141320000Y-125478250I0J218750D01*
G01*
G37*
G36*
G01*
X139745000Y-125478250D02*
X139745000Y-124965750D01*
G75*
G02*
X139963750Y-124747000I218750J0D01*
G01*
X140401250Y-124747000D01*
G75*
G02*
X140620000Y-124965750I0J-218750D01*
G01*
X140620000Y-125478250D01*
G75*
G02*
X140401250Y-125697000I-218750J0D01*
G01*
X139963750Y-125697000D01*
G75*
G02*
X139745000Y-125478250I0J218750D01*
G01*
G37*
G36*
G01*
X151962500Y-125478250D02*
X151962500Y-124965750D01*
G75*
G02*
X152181250Y-124747000I218750J0D01*
G01*
X152618750Y-124747000D01*
G75*
G02*
X152837500Y-124965750I0J-218750D01*
G01*
X152837500Y-125478250D01*
G75*
G02*
X152618750Y-125697000I-218750J0D01*
G01*
X152181250Y-125697000D01*
G75*
G02*
X151962500Y-125478250I0J218750D01*
G01*
G37*
G36*
G01*
X150387500Y-125478250D02*
X150387500Y-124965750D01*
G75*
G02*
X150606250Y-124747000I218750J0D01*
G01*
X151043750Y-124747000D01*
G75*
G02*
X151262500Y-124965750I0J-218750D01*
G01*
X151262500Y-125478250D01*
G75*
G02*
X151043750Y-125697000I-218750J0D01*
G01*
X150606250Y-125697000D01*
G75*
G02*
X150387500Y-125478250I0J218750D01*
G01*
G37*
G36*
G01*
X117190000Y-96776250D02*
X117190000Y-96263750D01*
G75*
G02*
X117408750Y-96045000I218750J0D01*
G01*
X117846250Y-96045000D01*
G75*
G02*
X118065000Y-96263750I0J-218750D01*
G01*
X118065000Y-96776250D01*
G75*
G02*
X117846250Y-96995000I-218750J0D01*
G01*
X117408750Y-96995000D01*
G75*
G02*
X117190000Y-96776250I0J218750D01*
G01*
G37*
G36*
G01*
X115615000Y-96776250D02*
X115615000Y-96263750D01*
G75*
G02*
X115833750Y-96045000I218750J0D01*
G01*
X116271250Y-96045000D01*
G75*
G02*
X116490000Y-96263750I0J-218750D01*
G01*
X116490000Y-96776250D01*
G75*
G02*
X116271250Y-96995000I-218750J0D01*
G01*
X115833750Y-96995000D01*
G75*
G02*
X115615000Y-96776250I0J218750D01*
G01*
G37*
G36*
G01*
X128682000Y-83563750D02*
X128682000Y-84076250D01*
G75*
G02*
X128463250Y-84295000I-218750J0D01*
G01*
X128025750Y-84295000D01*
G75*
G02*
X127807000Y-84076250I0J218750D01*
G01*
X127807000Y-83563750D01*
G75*
G02*
X128025750Y-83345000I218750J0D01*
G01*
X128463250Y-83345000D01*
G75*
G02*
X128682000Y-83563750I0J-218750D01*
G01*
G37*
G36*
G01*
X130257000Y-83563750D02*
X130257000Y-84076250D01*
G75*
G02*
X130038250Y-84295000I-218750J0D01*
G01*
X129600750Y-84295000D01*
G75*
G02*
X129382000Y-84076250I0J218750D01*
G01*
X129382000Y-83563750D01*
G75*
G02*
X129600750Y-83345000I218750J0D01*
G01*
X130038250Y-83345000D01*
G75*
G02*
X130257000Y-83563750I0J-218750D01*
G01*
G37*
G36*
G01*
X117190000Y-100586250D02*
X117190000Y-100073750D01*
G75*
G02*
X117408750Y-99855000I218750J0D01*
G01*
X117846250Y-99855000D01*
G75*
G02*
X118065000Y-100073750I0J-218750D01*
G01*
X118065000Y-100586250D01*
G75*
G02*
X117846250Y-100805000I-218750J0D01*
G01*
X117408750Y-100805000D01*
G75*
G02*
X117190000Y-100586250I0J218750D01*
G01*
G37*
G36*
G01*
X115615000Y-100586250D02*
X115615000Y-100073750D01*
G75*
G02*
X115833750Y-99855000I218750J0D01*
G01*
X116271250Y-99855000D01*
G75*
G02*
X116490000Y-100073750I0J-218750D01*
G01*
X116490000Y-100586250D01*
G75*
G02*
X116271250Y-100805000I-218750J0D01*
G01*
X115833750Y-100805000D01*
G75*
G02*
X115615000Y-100586250I0J218750D01*
G01*
G37*
G36*
G01*
X122840000Y-83563750D02*
X122840000Y-84076250D01*
G75*
G02*
X122621250Y-84295000I-218750J0D01*
G01*
X122183750Y-84295000D01*
G75*
G02*
X121965000Y-84076250I0J218750D01*
G01*
X121965000Y-83563750D01*
G75*
G02*
X122183750Y-83345000I218750J0D01*
G01*
X122621250Y-83345000D01*
G75*
G02*
X122840000Y-83563750I0J-218750D01*
G01*
G37*
G36*
G01*
X124415000Y-83563750D02*
X124415000Y-84076250D01*
G75*
G02*
X124196250Y-84295000I-218750J0D01*
G01*
X123758750Y-84295000D01*
G75*
G02*
X123540000Y-84076250I0J218750D01*
G01*
X123540000Y-83563750D01*
G75*
G02*
X123758750Y-83345000I218750J0D01*
G01*
X124196250Y-83345000D01*
G75*
G02*
X124415000Y-83563750I0J-218750D01*
G01*
G37*
G36*
G01*
X123540000Y-76456250D02*
X123540000Y-75943750D01*
G75*
G02*
X123758750Y-75725000I218750J0D01*
G01*
X124196250Y-75725000D01*
G75*
G02*
X124415000Y-75943750I0J-218750D01*
G01*
X124415000Y-76456250D01*
G75*
G02*
X124196250Y-76675000I-218750J0D01*
G01*
X123758750Y-76675000D01*
G75*
G02*
X123540000Y-76456250I0J218750D01*
G01*
G37*
G36*
G01*
X121965000Y-76456250D02*
X121965000Y-75943750D01*
G75*
G02*
X122183750Y-75725000I218750J0D01*
G01*
X122621250Y-75725000D01*
G75*
G02*
X122840000Y-75943750I0J-218750D01*
G01*
X122840000Y-76456250D01*
G75*
G02*
X122621250Y-76675000I-218750J0D01*
G01*
X122183750Y-76675000D01*
G75*
G02*
X121965000Y-76456250I0J218750D01*
G01*
G37*
G36*
G01*
X129382000Y-76456250D02*
X129382000Y-75943750D01*
G75*
G02*
X129600750Y-75725000I218750J0D01*
G01*
X130038250Y-75725000D01*
G75*
G02*
X130257000Y-75943750I0J-218750D01*
G01*
X130257000Y-76456250D01*
G75*
G02*
X130038250Y-76675000I-218750J0D01*
G01*
X129600750Y-76675000D01*
G75*
G02*
X129382000Y-76456250I0J218750D01*
G01*
G37*
G36*
G01*
X127807000Y-76456250D02*
X127807000Y-75943750D01*
G75*
G02*
X128025750Y-75725000I218750J0D01*
G01*
X128463250Y-75725000D01*
G75*
G02*
X128682000Y-75943750I0J-218750D01*
G01*
X128682000Y-76456250D01*
G75*
G02*
X128463250Y-76675000I-218750J0D01*
G01*
X128025750Y-76675000D01*
G75*
G02*
X127807000Y-76456250I0J218750D01*
G01*
G37*
G36*
G01*
X123159000Y-136019250D02*
X123159000Y-135506750D01*
G75*
G02*
X123377750Y-135288000I218750J0D01*
G01*
X123815250Y-135288000D01*
G75*
G02*
X124034000Y-135506750I0J-218750D01*
G01*
X124034000Y-136019250D01*
G75*
G02*
X123815250Y-136238000I-218750J0D01*
G01*
X123377750Y-136238000D01*
G75*
G02*
X123159000Y-136019250I0J218750D01*
G01*
G37*
G36*
G01*
X121584000Y-136019250D02*
X121584000Y-135506750D01*
G75*
G02*
X121802750Y-135288000I218750J0D01*
G01*
X122240250Y-135288000D01*
G75*
G02*
X122459000Y-135506750I0J-218750D01*
G01*
X122459000Y-136019250D01*
G75*
G02*
X122240250Y-136238000I-218750J0D01*
G01*
X121802750Y-136238000D01*
G75*
G02*
X121584000Y-136019250I0J218750D01*
G01*
G37*
G36*
G01*
X123540000Y-63756250D02*
X123540000Y-63243750D01*
G75*
G02*
X123758750Y-63025000I218750J0D01*
G01*
X124196250Y-63025000D01*
G75*
G02*
X124415000Y-63243750I0J-218750D01*
G01*
X124415000Y-63756250D01*
G75*
G02*
X124196250Y-63975000I-218750J0D01*
G01*
X123758750Y-63975000D01*
G75*
G02*
X123540000Y-63756250I0J218750D01*
G01*
G37*
G36*
G01*
X121965000Y-63756250D02*
X121965000Y-63243750D01*
G75*
G02*
X122183750Y-63025000I218750J0D01*
G01*
X122621250Y-63025000D01*
G75*
G02*
X122840000Y-63243750I0J-218750D01*
G01*
X122840000Y-63756250D01*
G75*
G02*
X122621250Y-63975000I-218750J0D01*
G01*
X122183750Y-63975000D01*
G75*
G02*
X121965000Y-63756250I0J218750D01*
G01*
G37*
G36*
G01*
X128874000Y-63756250D02*
X128874000Y-63243750D01*
G75*
G02*
X129092750Y-63025000I218750J0D01*
G01*
X129530250Y-63025000D01*
G75*
G02*
X129749000Y-63243750I0J-218750D01*
G01*
X129749000Y-63756250D01*
G75*
G02*
X129530250Y-63975000I-218750J0D01*
G01*
X129092750Y-63975000D01*
G75*
G02*
X128874000Y-63756250I0J218750D01*
G01*
G37*
G36*
G01*
X127299000Y-63756250D02*
X127299000Y-63243750D01*
G75*
G02*
X127517750Y-63025000I218750J0D01*
G01*
X127955250Y-63025000D01*
G75*
G02*
X128174000Y-63243750I0J-218750D01*
G01*
X128174000Y-63756250D01*
G75*
G02*
X127955250Y-63975000I-218750J0D01*
G01*
X127517750Y-63975000D01*
G75*
G02*
X127299000Y-63756250I0J218750D01*
G01*
G37*
G36*
G01*
X135794000Y-140205750D02*
X135794000Y-140718250D01*
G75*
G02*
X135575250Y-140937000I-218750J0D01*
G01*
X135137750Y-140937000D01*
G75*
G02*
X134919000Y-140718250I0J218750D01*
G01*
X134919000Y-140205750D01*
G75*
G02*
X135137750Y-139987000I218750J0D01*
G01*
X135575250Y-139987000D01*
G75*
G02*
X135794000Y-140205750I0J-218750D01*
G01*
G37*
G36*
G01*
X137369000Y-140205750D02*
X137369000Y-140718250D01*
G75*
G02*
X137150250Y-140937000I-218750J0D01*
G01*
X136712750Y-140937000D01*
G75*
G02*
X136494000Y-140718250I0J218750D01*
G01*
X136494000Y-140205750D01*
G75*
G02*
X136712750Y-139987000I218750J0D01*
G01*
X137150250Y-139987000D01*
G75*
G02*
X137369000Y-140205750I0J-218750D01*
G01*
G37*
G36*
G01*
X136494000Y-131828250D02*
X136494000Y-131315750D01*
G75*
G02*
X136712750Y-131097000I218750J0D01*
G01*
X137150250Y-131097000D01*
G75*
G02*
X137369000Y-131315750I0J-218750D01*
G01*
X137369000Y-131828250D01*
G75*
G02*
X137150250Y-132047000I-218750J0D01*
G01*
X136712750Y-132047000D01*
G75*
G02*
X136494000Y-131828250I0J218750D01*
G01*
G37*
G36*
G01*
X134919000Y-131828250D02*
X134919000Y-131315750D01*
G75*
G02*
X135137750Y-131097000I218750J0D01*
G01*
X135575250Y-131097000D01*
G75*
G02*
X135794000Y-131315750I0J-218750D01*
G01*
X135794000Y-131828250D01*
G75*
G02*
X135575250Y-132047000I-218750J0D01*
G01*
X135137750Y-132047000D01*
G75*
G02*
X134919000Y-131828250I0J218750D01*
G01*
G37*
G36*
G01*
X151262500Y-141475750D02*
X151262500Y-141988250D01*
G75*
G02*
X151043750Y-142207000I-218750J0D01*
G01*
X150606250Y-142207000D01*
G75*
G02*
X150387500Y-141988250I0J218750D01*
G01*
X150387500Y-141475750D01*
G75*
G02*
X150606250Y-141257000I218750J0D01*
G01*
X151043750Y-141257000D01*
G75*
G02*
X151262500Y-141475750I0J-218750D01*
G01*
G37*
G36*
G01*
X152837500Y-141475750D02*
X152837500Y-141988250D01*
G75*
G02*
X152618750Y-142207000I-218750J0D01*
G01*
X152181250Y-142207000D01*
G75*
G02*
X151962500Y-141988250I0J218750D01*
G01*
X151962500Y-141475750D01*
G75*
G02*
X152181250Y-141257000I218750J0D01*
G01*
X152618750Y-141257000D01*
G75*
G02*
X152837500Y-141475750I0J-218750D01*
G01*
G37*
G36*
G01*
X151962500Y-136908250D02*
X151962500Y-136395750D01*
G75*
G02*
X152181250Y-136177000I218750J0D01*
G01*
X152618750Y-136177000D01*
G75*
G02*
X152837500Y-136395750I0J-218750D01*
G01*
X152837500Y-136908250D01*
G75*
G02*
X152618750Y-137127000I-218750J0D01*
G01*
X152181250Y-137127000D01*
G75*
G02*
X151962500Y-136908250I0J218750D01*
G01*
G37*
G36*
G01*
X150387500Y-136908250D02*
X150387500Y-136395750D01*
G75*
G02*
X150606250Y-136177000I218750J0D01*
G01*
X151043750Y-136177000D01*
G75*
G02*
X151262500Y-136395750I0J-218750D01*
G01*
X151262500Y-136908250D01*
G75*
G02*
X151043750Y-137127000I-218750J0D01*
G01*
X150606250Y-137127000D01*
G75*
G02*
X150387500Y-136908250I0J218750D01*
G01*
G37*
G36*
G01*
X151962500Y-133098250D02*
X151962500Y-132585750D01*
G75*
G02*
X152181250Y-132367000I218750J0D01*
G01*
X152618750Y-132367000D01*
G75*
G02*
X152837500Y-132585750I0J-218750D01*
G01*
X152837500Y-133098250D01*
G75*
G02*
X152618750Y-133317000I-218750J0D01*
G01*
X152181250Y-133317000D01*
G75*
G02*
X151962500Y-133098250I0J218750D01*
G01*
G37*
G36*
G01*
X150387500Y-133098250D02*
X150387500Y-132585750D01*
G75*
G02*
X150606250Y-132367000I218750J0D01*
G01*
X151043750Y-132367000D01*
G75*
G02*
X151262500Y-132585750I0J-218750D01*
G01*
X151262500Y-133098250D01*
G75*
G02*
X151043750Y-133317000I-218750J0D01*
G01*
X150606250Y-133317000D01*
G75*
G02*
X150387500Y-133098250I0J218750D01*
G01*
G37*
G36*
G01*
X107030000Y-117096250D02*
X107030000Y-116583750D01*
G75*
G02*
X107248750Y-116365000I218750J0D01*
G01*
X107686250Y-116365000D01*
G75*
G02*
X107905000Y-116583750I0J-218750D01*
G01*
X107905000Y-117096250D01*
G75*
G02*
X107686250Y-117315000I-218750J0D01*
G01*
X107248750Y-117315000D01*
G75*
G02*
X107030000Y-117096250I0J218750D01*
G01*
G37*
G36*
G01*
X105455000Y-117096250D02*
X105455000Y-116583750D01*
G75*
G02*
X105673750Y-116365000I218750J0D01*
G01*
X106111250Y-116365000D01*
G75*
G02*
X106330000Y-116583750I0J-218750D01*
G01*
X106330000Y-117096250D01*
G75*
G02*
X106111250Y-117315000I-218750J0D01*
G01*
X105673750Y-117315000D01*
G75*
G02*
X105455000Y-117096250I0J218750D01*
G01*
G37*
G36*
G01*
X92360000Y-125473750D02*
X92360000Y-125986250D01*
G75*
G02*
X92141250Y-126205000I-218750J0D01*
G01*
X91703750Y-126205000D01*
G75*
G02*
X91485000Y-125986250I0J218750D01*
G01*
X91485000Y-125473750D01*
G75*
G02*
X91703750Y-125255000I218750J0D01*
G01*
X92141250Y-125255000D01*
G75*
G02*
X92360000Y-125473750I0J-218750D01*
G01*
G37*
G36*
G01*
X93935000Y-125473750D02*
X93935000Y-125986250D01*
G75*
G02*
X93716250Y-126205000I-218750J0D01*
G01*
X93278750Y-126205000D01*
G75*
G02*
X93060000Y-125986250I0J218750D01*
G01*
X93060000Y-125473750D01*
G75*
G02*
X93278750Y-125255000I218750J0D01*
G01*
X93716250Y-125255000D01*
G75*
G02*
X93935000Y-125473750I0J-218750D01*
G01*
G37*
G36*
G01*
X70200000Y-92966250D02*
X70200000Y-92453750D01*
G75*
G02*
X70418750Y-92235000I218750J0D01*
G01*
X70856250Y-92235000D01*
G75*
G02*
X71075000Y-92453750I0J-218750D01*
G01*
X71075000Y-92966250D01*
G75*
G02*
X70856250Y-93185000I-218750J0D01*
G01*
X70418750Y-93185000D01*
G75*
G02*
X70200000Y-92966250I0J218750D01*
G01*
G37*
G36*
G01*
X68625000Y-92966250D02*
X68625000Y-92453750D01*
G75*
G02*
X68843750Y-92235000I218750J0D01*
G01*
X69281250Y-92235000D01*
G75*
G02*
X69500000Y-92453750I0J-218750D01*
G01*
X69500000Y-92966250D01*
G75*
G02*
X69281250Y-93185000I-218750J0D01*
G01*
X68843750Y-93185000D01*
G75*
G02*
X68625000Y-92966250I0J218750D01*
G01*
G37*
G36*
G01*
X76550000Y-92966250D02*
X76550000Y-92453750D01*
G75*
G02*
X76768750Y-92235000I218750J0D01*
G01*
X77206250Y-92235000D01*
G75*
G02*
X77425000Y-92453750I0J-218750D01*
G01*
X77425000Y-92966250D01*
G75*
G02*
X77206250Y-93185000I-218750J0D01*
G01*
X76768750Y-93185000D01*
G75*
G02*
X76550000Y-92966250I0J218750D01*
G01*
G37*
G36*
G01*
X74975000Y-92966250D02*
X74975000Y-92453750D01*
G75*
G02*
X75193750Y-92235000I218750J0D01*
G01*
X75631250Y-92235000D01*
G75*
G02*
X75850000Y-92453750I0J-218750D01*
G01*
X75850000Y-92966250D01*
G75*
G02*
X75631250Y-93185000I-218750J0D01*
G01*
X75193750Y-93185000D01*
G75*
G02*
X74975000Y-92966250I0J218750D01*
G01*
G37*
G36*
G01*
X96870000Y-125986250D02*
X96870000Y-125473750D01*
G75*
G02*
X97088750Y-125255000I218750J0D01*
G01*
X97526250Y-125255000D01*
G75*
G02*
X97745000Y-125473750I0J-218750D01*
G01*
X97745000Y-125986250D01*
G75*
G02*
X97526250Y-126205000I-218750J0D01*
G01*
X97088750Y-126205000D01*
G75*
G02*
X96870000Y-125986250I0J218750D01*
G01*
G37*
G36*
G01*
X95295000Y-125986250D02*
X95295000Y-125473750D01*
G75*
G02*
X95513750Y-125255000I218750J0D01*
G01*
X95951250Y-125255000D01*
G75*
G02*
X96170000Y-125473750I0J-218750D01*
G01*
X96170000Y-125986250D01*
G75*
G02*
X95951250Y-126205000I-218750J0D01*
G01*
X95513750Y-126205000D01*
G75*
G02*
X95295000Y-125986250I0J218750D01*
G01*
G37*
G36*
G01*
X106330000Y-125473750D02*
X106330000Y-125986250D01*
G75*
G02*
X106111250Y-126205000I-218750J0D01*
G01*
X105673750Y-126205000D01*
G75*
G02*
X105455000Y-125986250I0J218750D01*
G01*
X105455000Y-125473750D01*
G75*
G02*
X105673750Y-125255000I218750J0D01*
G01*
X106111250Y-125255000D01*
G75*
G02*
X106330000Y-125473750I0J-218750D01*
G01*
G37*
G36*
G01*
X107905000Y-125473750D02*
X107905000Y-125986250D01*
G75*
G02*
X107686250Y-126205000I-218750J0D01*
G01*
X107248750Y-126205000D01*
G75*
G02*
X107030000Y-125986250I0J218750D01*
G01*
X107030000Y-125473750D01*
G75*
G02*
X107248750Y-125255000I218750J0D01*
G01*
X107686250Y-125255000D01*
G75*
G02*
X107905000Y-125473750I0J-218750D01*
G01*
G37*
G36*
G01*
X75850000Y-97533750D02*
X75850000Y-98046250D01*
G75*
G02*
X75631250Y-98265000I-218750J0D01*
G01*
X75193750Y-98265000D01*
G75*
G02*
X74975000Y-98046250I0J218750D01*
G01*
X74975000Y-97533750D01*
G75*
G02*
X75193750Y-97315000I218750J0D01*
G01*
X75631250Y-97315000D01*
G75*
G02*
X75850000Y-97533750I0J-218750D01*
G01*
G37*
G36*
G01*
X77425000Y-97533750D02*
X77425000Y-98046250D01*
G75*
G02*
X77206250Y-98265000I-218750J0D01*
G01*
X76768750Y-98265000D01*
G75*
G02*
X76550000Y-98046250I0J218750D01*
G01*
X76550000Y-97533750D01*
G75*
G02*
X76768750Y-97315000I218750J0D01*
G01*
X77206250Y-97315000D01*
G75*
G02*
X77425000Y-97533750I0J-218750D01*
G01*
G37*
G36*
G01*
X87280000Y-83563750D02*
X87280000Y-84076250D01*
G75*
G02*
X87061250Y-84295000I-218750J0D01*
G01*
X86623750Y-84295000D01*
G75*
G02*
X86405000Y-84076250I0J218750D01*
G01*
X86405000Y-83563750D01*
G75*
G02*
X86623750Y-83345000I218750J0D01*
G01*
X87061250Y-83345000D01*
G75*
G02*
X87280000Y-83563750I0J-218750D01*
G01*
G37*
G36*
G01*
X88855000Y-83563750D02*
X88855000Y-84076250D01*
G75*
G02*
X88636250Y-84295000I-218750J0D01*
G01*
X88198750Y-84295000D01*
G75*
G02*
X87980000Y-84076250I0J218750D01*
G01*
X87980000Y-83563750D01*
G75*
G02*
X88198750Y-83345000I218750J0D01*
G01*
X88636250Y-83345000D01*
G75*
G02*
X88855000Y-83563750I0J-218750D01*
G01*
G37*
G36*
G01*
X75850000Y-101343750D02*
X75850000Y-101856250D01*
G75*
G02*
X75631250Y-102075000I-218750J0D01*
G01*
X75193750Y-102075000D01*
G75*
G02*
X74975000Y-101856250I0J218750D01*
G01*
X74975000Y-101343750D01*
G75*
G02*
X75193750Y-101125000I218750J0D01*
G01*
X75631250Y-101125000D01*
G75*
G02*
X75850000Y-101343750I0J-218750D01*
G01*
G37*
G36*
G01*
X77425000Y-101343750D02*
X77425000Y-101856250D01*
G75*
G02*
X77206250Y-102075000I-218750J0D01*
G01*
X76768750Y-102075000D01*
G75*
G02*
X76550000Y-101856250I0J218750D01*
G01*
X76550000Y-101343750D01*
G75*
G02*
X76768750Y-101125000I218750J0D01*
G01*
X77206250Y-101125000D01*
G75*
G02*
X77425000Y-101343750I0J-218750D01*
G01*
G37*
G36*
G01*
X81717500Y-83563750D02*
X81717500Y-84076250D01*
G75*
G02*
X81498750Y-84295000I-218750J0D01*
G01*
X81061250Y-84295000D01*
G75*
G02*
X80842500Y-84076250I0J218750D01*
G01*
X80842500Y-83563750D01*
G75*
G02*
X81061250Y-83345000I218750J0D01*
G01*
X81498750Y-83345000D01*
G75*
G02*
X81717500Y-83563750I0J-218750D01*
G01*
G37*
G36*
G01*
X83292500Y-83563750D02*
X83292500Y-84076250D01*
G75*
G02*
X83073750Y-84295000I-218750J0D01*
G01*
X82636250Y-84295000D01*
G75*
G02*
X82417500Y-84076250I0J218750D01*
G01*
X82417500Y-83563750D01*
G75*
G02*
X82636250Y-83345000I218750J0D01*
G01*
X83073750Y-83345000D01*
G75*
G02*
X83292500Y-83563750I0J-218750D01*
G01*
G37*
G36*
G01*
X82417500Y-76456250D02*
X82417500Y-75943750D01*
G75*
G02*
X82636250Y-75725000I218750J0D01*
G01*
X83073750Y-75725000D01*
G75*
G02*
X83292500Y-75943750I0J-218750D01*
G01*
X83292500Y-76456250D01*
G75*
G02*
X83073750Y-76675000I-218750J0D01*
G01*
X82636250Y-76675000D01*
G75*
G02*
X82417500Y-76456250I0J218750D01*
G01*
G37*
G36*
G01*
X80842500Y-76456250D02*
X80842500Y-75943750D01*
G75*
G02*
X81061250Y-75725000I218750J0D01*
G01*
X81498750Y-75725000D01*
G75*
G02*
X81717500Y-75943750I0J-218750D01*
G01*
X81717500Y-76456250D01*
G75*
G02*
X81498750Y-76675000I-218750J0D01*
G01*
X81061250Y-76675000D01*
G75*
G02*
X80842500Y-76456250I0J218750D01*
G01*
G37*
G36*
G01*
X87980000Y-76456250D02*
X87980000Y-75943750D01*
G75*
G02*
X88198750Y-75725000I218750J0D01*
G01*
X88636250Y-75725000D01*
G75*
G02*
X88855000Y-75943750I0J-218750D01*
G01*
X88855000Y-76456250D01*
G75*
G02*
X88636250Y-76675000I-218750J0D01*
G01*
X88198750Y-76675000D01*
G75*
G02*
X87980000Y-76456250I0J218750D01*
G01*
G37*
G36*
G01*
X86405000Y-76456250D02*
X86405000Y-75943750D01*
G75*
G02*
X86623750Y-75725000I218750J0D01*
G01*
X87061250Y-75725000D01*
G75*
G02*
X87280000Y-75943750I0J-218750D01*
G01*
X87280000Y-76456250D01*
G75*
G02*
X87061250Y-76675000I-218750J0D01*
G01*
X86623750Y-76675000D01*
G75*
G02*
X86405000Y-76456250I0J218750D01*
G01*
G37*
G36*
G01*
X114777000Y-141226250D02*
X114777000Y-140713750D01*
G75*
G02*
X114995750Y-140495000I218750J0D01*
G01*
X115433250Y-140495000D01*
G75*
G02*
X115652000Y-140713750I0J-218750D01*
G01*
X115652000Y-141226250D01*
G75*
G02*
X115433250Y-141445000I-218750J0D01*
G01*
X114995750Y-141445000D01*
G75*
G02*
X114777000Y-141226250I0J218750D01*
G01*
G37*
G36*
G01*
X113202000Y-141226250D02*
X113202000Y-140713750D01*
G75*
G02*
X113420750Y-140495000I218750J0D01*
G01*
X113858250Y-140495000D01*
G75*
G02*
X114077000Y-140713750I0J-218750D01*
G01*
X114077000Y-141226250D01*
G75*
G02*
X113858250Y-141445000I-218750J0D01*
G01*
X113420750Y-141445000D01*
G75*
G02*
X113202000Y-141226250I0J218750D01*
G01*
G37*
G36*
G01*
X82900000Y-63756250D02*
X82900000Y-63243750D01*
G75*
G02*
X83118750Y-63025000I218750J0D01*
G01*
X83556250Y-63025000D01*
G75*
G02*
X83775000Y-63243750I0J-218750D01*
G01*
X83775000Y-63756250D01*
G75*
G02*
X83556250Y-63975000I-218750J0D01*
G01*
X83118750Y-63975000D01*
G75*
G02*
X82900000Y-63756250I0J218750D01*
G01*
G37*
G36*
G01*
X81325000Y-63756250D02*
X81325000Y-63243750D01*
G75*
G02*
X81543750Y-63025000I218750J0D01*
G01*
X81981250Y-63025000D01*
G75*
G02*
X82200000Y-63243750I0J-218750D01*
G01*
X82200000Y-63756250D01*
G75*
G02*
X81981250Y-63975000I-218750J0D01*
G01*
X81543750Y-63975000D01*
G75*
G02*
X81325000Y-63756250I0J218750D01*
G01*
G37*
G36*
G01*
X87726000Y-63756250D02*
X87726000Y-63243750D01*
G75*
G02*
X87944750Y-63025000I218750J0D01*
G01*
X88382250Y-63025000D01*
G75*
G02*
X88601000Y-63243750I0J-218750D01*
G01*
X88601000Y-63756250D01*
G75*
G02*
X88382250Y-63975000I-218750J0D01*
G01*
X87944750Y-63975000D01*
G75*
G02*
X87726000Y-63756250I0J218750D01*
G01*
G37*
G36*
G01*
X86151000Y-63756250D02*
X86151000Y-63243750D01*
G75*
G02*
X86369750Y-63025000I218750J0D01*
G01*
X86807250Y-63025000D01*
G75*
G02*
X87026000Y-63243750I0J-218750D01*
G01*
X87026000Y-63756250D01*
G75*
G02*
X86807250Y-63975000I-218750J0D01*
G01*
X86369750Y-63975000D01*
G75*
G02*
X86151000Y-63756250I0J218750D01*
G01*
G37*
G36*
G01*
X92360000Y-140713750D02*
X92360000Y-141226250D01*
G75*
G02*
X92141250Y-141445000I-218750J0D01*
G01*
X91703750Y-141445000D01*
G75*
G02*
X91485000Y-141226250I0J218750D01*
G01*
X91485000Y-140713750D01*
G75*
G02*
X91703750Y-140495000I218750J0D01*
G01*
X92141250Y-140495000D01*
G75*
G02*
X92360000Y-140713750I0J-218750D01*
G01*
G37*
G36*
G01*
X93935000Y-140713750D02*
X93935000Y-141226250D01*
G75*
G02*
X93716250Y-141445000I-218750J0D01*
G01*
X93278750Y-141445000D01*
G75*
G02*
X93060000Y-141226250I0J218750D01*
G01*
X93060000Y-140713750D01*
G75*
G02*
X93278750Y-140495000I218750J0D01*
G01*
X93716250Y-140495000D01*
G75*
G02*
X93935000Y-140713750I0J-218750D01*
G01*
G37*
G36*
G01*
X93060000Y-132336250D02*
X93060000Y-131823750D01*
G75*
G02*
X93278750Y-131605000I218750J0D01*
G01*
X93716250Y-131605000D01*
G75*
G02*
X93935000Y-131823750I0J-218750D01*
G01*
X93935000Y-132336250D01*
G75*
G02*
X93716250Y-132555000I-218750J0D01*
G01*
X93278750Y-132555000D01*
G75*
G02*
X93060000Y-132336250I0J218750D01*
G01*
G37*
G36*
G01*
X91485000Y-132336250D02*
X91485000Y-131823750D01*
G75*
G02*
X91703750Y-131605000I218750J0D01*
G01*
X92141250Y-131605000D01*
G75*
G02*
X92360000Y-131823750I0J-218750D01*
G01*
X92360000Y-132336250D01*
G75*
G02*
X92141250Y-132555000I-218750J0D01*
G01*
X91703750Y-132555000D01*
G75*
G02*
X91485000Y-132336250I0J218750D01*
G01*
G37*
G36*
G01*
X106330000Y-140713750D02*
X106330000Y-141226250D01*
G75*
G02*
X106111250Y-141445000I-218750J0D01*
G01*
X105673750Y-141445000D01*
G75*
G02*
X105455000Y-141226250I0J218750D01*
G01*
X105455000Y-140713750D01*
G75*
G02*
X105673750Y-140495000I218750J0D01*
G01*
X106111250Y-140495000D01*
G75*
G02*
X106330000Y-140713750I0J-218750D01*
G01*
G37*
G36*
G01*
X107905000Y-140713750D02*
X107905000Y-141226250D01*
G75*
G02*
X107686250Y-141445000I-218750J0D01*
G01*
X107248750Y-141445000D01*
G75*
G02*
X107030000Y-141226250I0J218750D01*
G01*
X107030000Y-140713750D01*
G75*
G02*
X107248750Y-140495000I218750J0D01*
G01*
X107686250Y-140495000D01*
G75*
G02*
X107905000Y-140713750I0J-218750D01*
G01*
G37*
G36*
G01*
X107030000Y-137416250D02*
X107030000Y-136903750D01*
G75*
G02*
X107248750Y-136685000I218750J0D01*
G01*
X107686250Y-136685000D01*
G75*
G02*
X107905000Y-136903750I0J-218750D01*
G01*
X107905000Y-137416250D01*
G75*
G02*
X107686250Y-137635000I-218750J0D01*
G01*
X107248750Y-137635000D01*
G75*
G02*
X107030000Y-137416250I0J218750D01*
G01*
G37*
G36*
G01*
X105455000Y-137416250D02*
X105455000Y-136903750D01*
G75*
G02*
X105673750Y-136685000I218750J0D01*
G01*
X106111250Y-136685000D01*
G75*
G02*
X106330000Y-136903750I0J-218750D01*
G01*
X106330000Y-137416250D01*
G75*
G02*
X106111250Y-137635000I-218750J0D01*
G01*
X105673750Y-137635000D01*
G75*
G02*
X105455000Y-137416250I0J218750D01*
G01*
G37*
G36*
G01*
X106330000Y-133093750D02*
X106330000Y-133606250D01*
G75*
G02*
X106111250Y-133825000I-218750J0D01*
G01*
X105673750Y-133825000D01*
G75*
G02*
X105455000Y-133606250I0J218750D01*
G01*
X105455000Y-133093750D01*
G75*
G02*
X105673750Y-132875000I218750J0D01*
G01*
X106111250Y-132875000D01*
G75*
G02*
X106330000Y-133093750I0J-218750D01*
G01*
G37*
G36*
G01*
X107905000Y-133093750D02*
X107905000Y-133606250D01*
G75*
G02*
X107686250Y-133825000I-218750J0D01*
G01*
X107248750Y-133825000D01*
G75*
G02*
X107030000Y-133606250I0J218750D01*
G01*
X107030000Y-133093750D01*
G75*
G02*
X107248750Y-132875000I218750J0D01*
G01*
X107686250Y-132875000D01*
G75*
G02*
X107905000Y-133093750I0J-218750D01*
G01*
G37*
G36*
G01*
X222861000Y-120038000D02*
X222861000Y-119738000D01*
G75*
G02*
X223011000Y-119588000I150000J0D01*
G01*
X224661000Y-119588000D01*
G75*
G02*
X224811000Y-119738000I0J-150000D01*
G01*
X224811000Y-120038000D01*
G75*
G02*
X224661000Y-120188000I-150000J0D01*
G01*
X223011000Y-120188000D01*
G75*
G02*
X222861000Y-120038000I0J150000D01*
G01*
G37*
G36*
G01*
X222861000Y-118768000D02*
X222861000Y-118468000D01*
G75*
G02*
X223011000Y-118318000I150000J0D01*
G01*
X224661000Y-118318000D01*
G75*
G02*
X224811000Y-118468000I0J-150000D01*
G01*
X224811000Y-118768000D01*
G75*
G02*
X224661000Y-118918000I-150000J0D01*
G01*
X223011000Y-118918000D01*
G75*
G02*
X222861000Y-118768000I0J150000D01*
G01*
G37*
G36*
G01*
X222861000Y-117498000D02*
X222861000Y-117198000D01*
G75*
G02*
X223011000Y-117048000I150000J0D01*
G01*
X224661000Y-117048000D01*
G75*
G02*
X224811000Y-117198000I0J-150000D01*
G01*
X224811000Y-117498000D01*
G75*
G02*
X224661000Y-117648000I-150000J0D01*
G01*
X223011000Y-117648000D01*
G75*
G02*
X222861000Y-117498000I0J150000D01*
G01*
G37*
G36*
G01*
X222861000Y-116228000D02*
X222861000Y-115928000D01*
G75*
G02*
X223011000Y-115778000I150000J0D01*
G01*
X224661000Y-115778000D01*
G75*
G02*
X224811000Y-115928000I0J-150000D01*
G01*
X224811000Y-116228000D01*
G75*
G02*
X224661000Y-116378000I-150000J0D01*
G01*
X223011000Y-116378000D01*
G75*
G02*
X222861000Y-116228000I0J150000D01*
G01*
G37*
G36*
G01*
X217911000Y-116228000D02*
X217911000Y-115928000D01*
G75*
G02*
X218061000Y-115778000I150000J0D01*
G01*
X219711000Y-115778000D01*
G75*
G02*
X219861000Y-115928000I0J-150000D01*
G01*
X219861000Y-116228000D01*
G75*
G02*
X219711000Y-116378000I-150000J0D01*
G01*
X218061000Y-116378000D01*
G75*
G02*
X217911000Y-116228000I0J150000D01*
G01*
G37*
G36*
G01*
X217911000Y-117498000D02*
X217911000Y-117198000D01*
G75*
G02*
X218061000Y-117048000I150000J0D01*
G01*
X219711000Y-117048000D01*
G75*
G02*
X219861000Y-117198000I0J-150000D01*
G01*
X219861000Y-117498000D01*
G75*
G02*
X219711000Y-117648000I-150000J0D01*
G01*
X218061000Y-117648000D01*
G75*
G02*
X217911000Y-117498000I0J150000D01*
G01*
G37*
G36*
G01*
X217911000Y-118768000D02*
X217911000Y-118468000D01*
G75*
G02*
X218061000Y-118318000I150000J0D01*
G01*
X219711000Y-118318000D01*
G75*
G02*
X219861000Y-118468000I0J-150000D01*
G01*
X219861000Y-118768000D01*
G75*
G02*
X219711000Y-118918000I-150000J0D01*
G01*
X218061000Y-118918000D01*
G75*
G02*
X217911000Y-118768000I0J150000D01*
G01*
G37*
G36*
G01*
X217911000Y-120038000D02*
X217911000Y-119738000D01*
G75*
G02*
X218061000Y-119588000I150000J0D01*
G01*
X219711000Y-119588000D01*
G75*
G02*
X219861000Y-119738000I0J-150000D01*
G01*
X219861000Y-120038000D01*
G75*
G02*
X219711000Y-120188000I-150000J0D01*
G01*
X218061000Y-120188000D01*
G75*
G02*
X217911000Y-120038000I0J150000D01*
G01*
G37*
G36*
G01*
X182729000Y-121816000D02*
X182729000Y-121516000D01*
G75*
G02*
X182879000Y-121366000I150000J0D01*
G01*
X184529000Y-121366000D01*
G75*
G02*
X184679000Y-121516000I0J-150000D01*
G01*
X184679000Y-121816000D01*
G75*
G02*
X184529000Y-121966000I-150000J0D01*
G01*
X182879000Y-121966000D01*
G75*
G02*
X182729000Y-121816000I0J150000D01*
G01*
G37*
G36*
G01*
X182729000Y-120546000D02*
X182729000Y-120246000D01*
G75*
G02*
X182879000Y-120096000I150000J0D01*
G01*
X184529000Y-120096000D01*
G75*
G02*
X184679000Y-120246000I0J-150000D01*
G01*
X184679000Y-120546000D01*
G75*
G02*
X184529000Y-120696000I-150000J0D01*
G01*
X182879000Y-120696000D01*
G75*
G02*
X182729000Y-120546000I0J150000D01*
G01*
G37*
G36*
G01*
X182729000Y-119276000D02*
X182729000Y-118976000D01*
G75*
G02*
X182879000Y-118826000I150000J0D01*
G01*
X184529000Y-118826000D01*
G75*
G02*
X184679000Y-118976000I0J-150000D01*
G01*
X184679000Y-119276000D01*
G75*
G02*
X184529000Y-119426000I-150000J0D01*
G01*
X182879000Y-119426000D01*
G75*
G02*
X182729000Y-119276000I0J150000D01*
G01*
G37*
G36*
G01*
X182729000Y-118006000D02*
X182729000Y-117706000D01*
G75*
G02*
X182879000Y-117556000I150000J0D01*
G01*
X184529000Y-117556000D01*
G75*
G02*
X184679000Y-117706000I0J-150000D01*
G01*
X184679000Y-118006000D01*
G75*
G02*
X184529000Y-118156000I-150000J0D01*
G01*
X182879000Y-118156000D01*
G75*
G02*
X182729000Y-118006000I0J150000D01*
G01*
G37*
G36*
G01*
X177779000Y-118006000D02*
X177779000Y-117706000D01*
G75*
G02*
X177929000Y-117556000I150000J0D01*
G01*
X179579000Y-117556000D01*
G75*
G02*
X179729000Y-117706000I0J-150000D01*
G01*
X179729000Y-118006000D01*
G75*
G02*
X179579000Y-118156000I-150000J0D01*
G01*
X177929000Y-118156000D01*
G75*
G02*
X177779000Y-118006000I0J150000D01*
G01*
G37*
G36*
G01*
X177779000Y-119276000D02*
X177779000Y-118976000D01*
G75*
G02*
X177929000Y-118826000I150000J0D01*
G01*
X179579000Y-118826000D01*
G75*
G02*
X179729000Y-118976000I0J-150000D01*
G01*
X179729000Y-119276000D01*
G75*
G02*
X179579000Y-119426000I-150000J0D01*
G01*
X177929000Y-119426000D01*
G75*
G02*
X177779000Y-119276000I0J150000D01*
G01*
G37*
G36*
G01*
X177779000Y-120546000D02*
X177779000Y-120246000D01*
G75*
G02*
X177929000Y-120096000I150000J0D01*
G01*
X179579000Y-120096000D01*
G75*
G02*
X179729000Y-120246000I0J-150000D01*
G01*
X179729000Y-120546000D01*
G75*
G02*
X179579000Y-120696000I-150000J0D01*
G01*
X177929000Y-120696000D01*
G75*
G02*
X177779000Y-120546000I0J150000D01*
G01*
G37*
G36*
G01*
X177779000Y-121816000D02*
X177779000Y-121516000D01*
G75*
G02*
X177929000Y-121366000I150000J0D01*
G01*
X179579000Y-121366000D01*
G75*
G02*
X179729000Y-121516000I0J-150000D01*
G01*
X179729000Y-121816000D01*
G75*
G02*
X179579000Y-121966000I-150000J0D01*
G01*
X177929000Y-121966000D01*
G75*
G02*
X177779000Y-121816000I0J150000D01*
G01*
G37*
G36*
G01*
X182729000Y-139596000D02*
X182729000Y-139296000D01*
G75*
G02*
X182879000Y-139146000I150000J0D01*
G01*
X184529000Y-139146000D01*
G75*
G02*
X184679000Y-139296000I0J-150000D01*
G01*
X184679000Y-139596000D01*
G75*
G02*
X184529000Y-139746000I-150000J0D01*
G01*
X182879000Y-139746000D01*
G75*
G02*
X182729000Y-139596000I0J150000D01*
G01*
G37*
G36*
G01*
X182729000Y-138326000D02*
X182729000Y-138026000D01*
G75*
G02*
X182879000Y-137876000I150000J0D01*
G01*
X184529000Y-137876000D01*
G75*
G02*
X184679000Y-138026000I0J-150000D01*
G01*
X184679000Y-138326000D01*
G75*
G02*
X184529000Y-138476000I-150000J0D01*
G01*
X182879000Y-138476000D01*
G75*
G02*
X182729000Y-138326000I0J150000D01*
G01*
G37*
G36*
G01*
X182729000Y-137056000D02*
X182729000Y-136756000D01*
G75*
G02*
X182879000Y-136606000I150000J0D01*
G01*
X184529000Y-136606000D01*
G75*
G02*
X184679000Y-136756000I0J-150000D01*
G01*
X184679000Y-137056000D01*
G75*
G02*
X184529000Y-137206000I-150000J0D01*
G01*
X182879000Y-137206000D01*
G75*
G02*
X182729000Y-137056000I0J150000D01*
G01*
G37*
G36*
G01*
X182729000Y-135786000D02*
X182729000Y-135486000D01*
G75*
G02*
X182879000Y-135336000I150000J0D01*
G01*
X184529000Y-135336000D01*
G75*
G02*
X184679000Y-135486000I0J-150000D01*
G01*
X184679000Y-135786000D01*
G75*
G02*
X184529000Y-135936000I-150000J0D01*
G01*
X182879000Y-135936000D01*
G75*
G02*
X182729000Y-135786000I0J150000D01*
G01*
G37*
G36*
G01*
X177779000Y-135786000D02*
X177779000Y-135486000D01*
G75*
G02*
X177929000Y-135336000I150000J0D01*
G01*
X179579000Y-135336000D01*
G75*
G02*
X179729000Y-135486000I0J-150000D01*
G01*
X179729000Y-135786000D01*
G75*
G02*
X179579000Y-135936000I-150000J0D01*
G01*
X177929000Y-135936000D01*
G75*
G02*
X177779000Y-135786000I0J150000D01*
G01*
G37*
G36*
G01*
X177779000Y-137056000D02*
X177779000Y-136756000D01*
G75*
G02*
X177929000Y-136606000I150000J0D01*
G01*
X179579000Y-136606000D01*
G75*
G02*
X179729000Y-136756000I0J-150000D01*
G01*
X179729000Y-137056000D01*
G75*
G02*
X179579000Y-137206000I-150000J0D01*
G01*
X177929000Y-137206000D01*
G75*
G02*
X177779000Y-137056000I0J150000D01*
G01*
G37*
G36*
G01*
X177779000Y-138326000D02*
X177779000Y-138026000D01*
G75*
G02*
X177929000Y-137876000I150000J0D01*
G01*
X179579000Y-137876000D01*
G75*
G02*
X179729000Y-138026000I0J-150000D01*
G01*
X179729000Y-138326000D01*
G75*
G02*
X179579000Y-138476000I-150000J0D01*
G01*
X177929000Y-138476000D01*
G75*
G02*
X177779000Y-138326000I0J150000D01*
G01*
G37*
G36*
G01*
X177779000Y-139596000D02*
X177779000Y-139296000D01*
G75*
G02*
X177929000Y-139146000I150000J0D01*
G01*
X179579000Y-139146000D01*
G75*
G02*
X179729000Y-139296000I0J-150000D01*
G01*
X179729000Y-139596000D01*
G75*
G02*
X179579000Y-139746000I-150000J0D01*
G01*
X177929000Y-139746000D01*
G75*
G02*
X177779000Y-139596000I0J150000D01*
G01*
G37*
G36*
G01*
X145010000Y-122197000D02*
X145010000Y-121897000D01*
G75*
G02*
X145160000Y-121747000I150000J0D01*
G01*
X146810000Y-121747000D01*
G75*
G02*
X146960000Y-121897000I0J-150000D01*
G01*
X146960000Y-122197000D01*
G75*
G02*
X146810000Y-122347000I-150000J0D01*
G01*
X145160000Y-122347000D01*
G75*
G02*
X145010000Y-122197000I0J150000D01*
G01*
G37*
G36*
G01*
X145010000Y-120927000D02*
X145010000Y-120627000D01*
G75*
G02*
X145160000Y-120477000I150000J0D01*
G01*
X146810000Y-120477000D01*
G75*
G02*
X146960000Y-120627000I0J-150000D01*
G01*
X146960000Y-120927000D01*
G75*
G02*
X146810000Y-121077000I-150000J0D01*
G01*
X145160000Y-121077000D01*
G75*
G02*
X145010000Y-120927000I0J150000D01*
G01*
G37*
G36*
G01*
X145010000Y-119657000D02*
X145010000Y-119357000D01*
G75*
G02*
X145160000Y-119207000I150000J0D01*
G01*
X146810000Y-119207000D01*
G75*
G02*
X146960000Y-119357000I0J-150000D01*
G01*
X146960000Y-119657000D01*
G75*
G02*
X146810000Y-119807000I-150000J0D01*
G01*
X145160000Y-119807000D01*
G75*
G02*
X145010000Y-119657000I0J150000D01*
G01*
G37*
G36*
G01*
X145010000Y-118387000D02*
X145010000Y-118087000D01*
G75*
G02*
X145160000Y-117937000I150000J0D01*
G01*
X146810000Y-117937000D01*
G75*
G02*
X146960000Y-118087000I0J-150000D01*
G01*
X146960000Y-118387000D01*
G75*
G02*
X146810000Y-118537000I-150000J0D01*
G01*
X145160000Y-118537000D01*
G75*
G02*
X145010000Y-118387000I0J150000D01*
G01*
G37*
G36*
G01*
X140060000Y-118387000D02*
X140060000Y-118087000D01*
G75*
G02*
X140210000Y-117937000I150000J0D01*
G01*
X141860000Y-117937000D01*
G75*
G02*
X142010000Y-118087000I0J-150000D01*
G01*
X142010000Y-118387000D01*
G75*
G02*
X141860000Y-118537000I-150000J0D01*
G01*
X140210000Y-118537000D01*
G75*
G02*
X140060000Y-118387000I0J150000D01*
G01*
G37*
G36*
G01*
X140060000Y-119657000D02*
X140060000Y-119357000D01*
G75*
G02*
X140210000Y-119207000I150000J0D01*
G01*
X141860000Y-119207000D01*
G75*
G02*
X142010000Y-119357000I0J-150000D01*
G01*
X142010000Y-119657000D01*
G75*
G02*
X141860000Y-119807000I-150000J0D01*
G01*
X140210000Y-119807000D01*
G75*
G02*
X140060000Y-119657000I0J150000D01*
G01*
G37*
G36*
G01*
X140060000Y-120927000D02*
X140060000Y-120627000D01*
G75*
G02*
X140210000Y-120477000I150000J0D01*
G01*
X141860000Y-120477000D01*
G75*
G02*
X142010000Y-120627000I0J-150000D01*
G01*
X142010000Y-120927000D01*
G75*
G02*
X141860000Y-121077000I-150000J0D01*
G01*
X140210000Y-121077000D01*
G75*
G02*
X140060000Y-120927000I0J150000D01*
G01*
G37*
G36*
G01*
X140060000Y-122197000D02*
X140060000Y-121897000D01*
G75*
G02*
X140210000Y-121747000I150000J0D01*
G01*
X141860000Y-121747000D01*
G75*
G02*
X142010000Y-121897000I0J-150000D01*
G01*
X142010000Y-122197000D01*
G75*
G02*
X141860000Y-122347000I-150000J0D01*
G01*
X140210000Y-122347000D01*
G75*
G02*
X140060000Y-122197000I0J150000D01*
G01*
G37*
G36*
G01*
X145010000Y-138707000D02*
X145010000Y-138407000D01*
G75*
G02*
X145160000Y-138257000I150000J0D01*
G01*
X146810000Y-138257000D01*
G75*
G02*
X146960000Y-138407000I0J-150000D01*
G01*
X146960000Y-138707000D01*
G75*
G02*
X146810000Y-138857000I-150000J0D01*
G01*
X145160000Y-138857000D01*
G75*
G02*
X145010000Y-138707000I0J150000D01*
G01*
G37*
G36*
G01*
X145010000Y-137437000D02*
X145010000Y-137137000D01*
G75*
G02*
X145160000Y-136987000I150000J0D01*
G01*
X146810000Y-136987000D01*
G75*
G02*
X146960000Y-137137000I0J-150000D01*
G01*
X146960000Y-137437000D01*
G75*
G02*
X146810000Y-137587000I-150000J0D01*
G01*
X145160000Y-137587000D01*
G75*
G02*
X145010000Y-137437000I0J150000D01*
G01*
G37*
G36*
G01*
X145010000Y-136167000D02*
X145010000Y-135867000D01*
G75*
G02*
X145160000Y-135717000I150000J0D01*
G01*
X146810000Y-135717000D01*
G75*
G02*
X146960000Y-135867000I0J-150000D01*
G01*
X146960000Y-136167000D01*
G75*
G02*
X146810000Y-136317000I-150000J0D01*
G01*
X145160000Y-136317000D01*
G75*
G02*
X145010000Y-136167000I0J150000D01*
G01*
G37*
G36*
G01*
X145010000Y-134897000D02*
X145010000Y-134597000D01*
G75*
G02*
X145160000Y-134447000I150000J0D01*
G01*
X146810000Y-134447000D01*
G75*
G02*
X146960000Y-134597000I0J-150000D01*
G01*
X146960000Y-134897000D01*
G75*
G02*
X146810000Y-135047000I-150000J0D01*
G01*
X145160000Y-135047000D01*
G75*
G02*
X145010000Y-134897000I0J150000D01*
G01*
G37*
G36*
G01*
X140060000Y-134897000D02*
X140060000Y-134597000D01*
G75*
G02*
X140210000Y-134447000I150000J0D01*
G01*
X141860000Y-134447000D01*
G75*
G02*
X142010000Y-134597000I0J-150000D01*
G01*
X142010000Y-134897000D01*
G75*
G02*
X141860000Y-135047000I-150000J0D01*
G01*
X140210000Y-135047000D01*
G75*
G02*
X140060000Y-134897000I0J150000D01*
G01*
G37*
G36*
G01*
X140060000Y-136167000D02*
X140060000Y-135867000D01*
G75*
G02*
X140210000Y-135717000I150000J0D01*
G01*
X141860000Y-135717000D01*
G75*
G02*
X142010000Y-135867000I0J-150000D01*
G01*
X142010000Y-136167000D01*
G75*
G02*
X141860000Y-136317000I-150000J0D01*
G01*
X140210000Y-136317000D01*
G75*
G02*
X140060000Y-136167000I0J150000D01*
G01*
G37*
G36*
G01*
X140060000Y-137437000D02*
X140060000Y-137137000D01*
G75*
G02*
X140210000Y-136987000I150000J0D01*
G01*
X141860000Y-136987000D01*
G75*
G02*
X142010000Y-137137000I0J-150000D01*
G01*
X142010000Y-137437000D01*
G75*
G02*
X141860000Y-137587000I-150000J0D01*
G01*
X140210000Y-137587000D01*
G75*
G02*
X140060000Y-137437000I0J150000D01*
G01*
G37*
G36*
G01*
X140060000Y-138707000D02*
X140060000Y-138407000D01*
G75*
G02*
X140210000Y-138257000I150000J0D01*
G01*
X141860000Y-138257000D01*
G75*
G02*
X142010000Y-138407000I0J-150000D01*
G01*
X142010000Y-138707000D01*
G75*
G02*
X141860000Y-138857000I-150000J0D01*
G01*
X140210000Y-138857000D01*
G75*
G02*
X140060000Y-138707000I0J150000D01*
G01*
G37*
G36*
G01*
X100560000Y-122705000D02*
X100560000Y-122405000D01*
G75*
G02*
X100710000Y-122255000I150000J0D01*
G01*
X102360000Y-122255000D01*
G75*
G02*
X102510000Y-122405000I0J-150000D01*
G01*
X102510000Y-122705000D01*
G75*
G02*
X102360000Y-122855000I-150000J0D01*
G01*
X100710000Y-122855000D01*
G75*
G02*
X100560000Y-122705000I0J150000D01*
G01*
G37*
G36*
G01*
X100560000Y-121435000D02*
X100560000Y-121135000D01*
G75*
G02*
X100710000Y-120985000I150000J0D01*
G01*
X102360000Y-120985000D01*
G75*
G02*
X102510000Y-121135000I0J-150000D01*
G01*
X102510000Y-121435000D01*
G75*
G02*
X102360000Y-121585000I-150000J0D01*
G01*
X100710000Y-121585000D01*
G75*
G02*
X100560000Y-121435000I0J150000D01*
G01*
G37*
G36*
G01*
X100560000Y-120165000D02*
X100560000Y-119865000D01*
G75*
G02*
X100710000Y-119715000I150000J0D01*
G01*
X102360000Y-119715000D01*
G75*
G02*
X102510000Y-119865000I0J-150000D01*
G01*
X102510000Y-120165000D01*
G75*
G02*
X102360000Y-120315000I-150000J0D01*
G01*
X100710000Y-120315000D01*
G75*
G02*
X100560000Y-120165000I0J150000D01*
G01*
G37*
G36*
G01*
X100560000Y-118895000D02*
X100560000Y-118595000D01*
G75*
G02*
X100710000Y-118445000I150000J0D01*
G01*
X102360000Y-118445000D01*
G75*
G02*
X102510000Y-118595000I0J-150000D01*
G01*
X102510000Y-118895000D01*
G75*
G02*
X102360000Y-119045000I-150000J0D01*
G01*
X100710000Y-119045000D01*
G75*
G02*
X100560000Y-118895000I0J150000D01*
G01*
G37*
G36*
G01*
X95610000Y-118895000D02*
X95610000Y-118595000D01*
G75*
G02*
X95760000Y-118445000I150000J0D01*
G01*
X97410000Y-118445000D01*
G75*
G02*
X97560000Y-118595000I0J-150000D01*
G01*
X97560000Y-118895000D01*
G75*
G02*
X97410000Y-119045000I-150000J0D01*
G01*
X95760000Y-119045000D01*
G75*
G02*
X95610000Y-118895000I0J150000D01*
G01*
G37*
G36*
G01*
X95610000Y-120165000D02*
X95610000Y-119865000D01*
G75*
G02*
X95760000Y-119715000I150000J0D01*
G01*
X97410000Y-119715000D01*
G75*
G02*
X97560000Y-119865000I0J-150000D01*
G01*
X97560000Y-120165000D01*
G75*
G02*
X97410000Y-120315000I-150000J0D01*
G01*
X95760000Y-120315000D01*
G75*
G02*
X95610000Y-120165000I0J150000D01*
G01*
G37*
G36*
G01*
X95610000Y-121435000D02*
X95610000Y-121135000D01*
G75*
G02*
X95760000Y-120985000I150000J0D01*
G01*
X97410000Y-120985000D01*
G75*
G02*
X97560000Y-121135000I0J-150000D01*
G01*
X97560000Y-121435000D01*
G75*
G02*
X97410000Y-121585000I-150000J0D01*
G01*
X95760000Y-121585000D01*
G75*
G02*
X95610000Y-121435000I0J150000D01*
G01*
G37*
G36*
G01*
X95610000Y-122705000D02*
X95610000Y-122405000D01*
G75*
G02*
X95760000Y-122255000I150000J0D01*
G01*
X97410000Y-122255000D01*
G75*
G02*
X97560000Y-122405000I0J-150000D01*
G01*
X97560000Y-122705000D01*
G75*
G02*
X97410000Y-122855000I-150000J0D01*
G01*
X95760000Y-122855000D01*
G75*
G02*
X95610000Y-122705000I0J150000D01*
G01*
G37*
G36*
G01*
X75915000Y-142623250D02*
X75915000Y-142110750D01*
G75*
G02*
X76133750Y-141892000I218750J0D01*
G01*
X76571250Y-141892000D01*
G75*
G02*
X76790000Y-142110750I0J-218750D01*
G01*
X76790000Y-142623250D01*
G75*
G02*
X76571250Y-142842000I-218750J0D01*
G01*
X76133750Y-142842000D01*
G75*
G02*
X75915000Y-142623250I0J218750D01*
G01*
G37*
G36*
G01*
X74340000Y-142623250D02*
X74340000Y-142110750D01*
G75*
G02*
X74558750Y-141892000I218750J0D01*
G01*
X74996250Y-141892000D01*
G75*
G02*
X75215000Y-142110750I0J-218750D01*
G01*
X75215000Y-142623250D01*
G75*
G02*
X74996250Y-142842000I-218750J0D01*
G01*
X74558750Y-142842000D01*
G75*
G02*
X74340000Y-142623250I0J218750D01*
G01*
G37*
G36*
G01*
X75889500Y-127002250D02*
X75889500Y-126489750D01*
G75*
G02*
X76108250Y-126271000I218750J0D01*
G01*
X76545750Y-126271000D01*
G75*
G02*
X76764500Y-126489750I0J-218750D01*
G01*
X76764500Y-127002250D01*
G75*
G02*
X76545750Y-127221000I-218750J0D01*
G01*
X76108250Y-127221000D01*
G75*
G02*
X75889500Y-127002250I0J218750D01*
G01*
G37*
G36*
G01*
X74314500Y-127002250D02*
X74314500Y-126489750D01*
G75*
G02*
X74533250Y-126271000I218750J0D01*
G01*
X74970750Y-126271000D01*
G75*
G02*
X75189500Y-126489750I0J-218750D01*
G01*
X75189500Y-127002250D01*
G75*
G02*
X74970750Y-127221000I-218750J0D01*
G01*
X74533250Y-127221000D01*
G75*
G02*
X74314500Y-127002250I0J218750D01*
G01*
G37*
D10*
X195560000Y-100330000D03*
X193060000Y-100330000D03*
X195560000Y-96520000D03*
X193060000Y-96520000D03*
X153650000Y-100330000D03*
X151150000Y-100330000D03*
X153650000Y-96520000D03*
X151150000Y-96520000D03*
X111740000Y-100330000D03*
X109240000Y-100330000D03*
X111740000Y-96520000D03*
X109240000Y-96520000D03*
X71100000Y-101600000D03*
X68600000Y-101600000D03*
X71100000Y-97790000D03*
X68600000Y-97790000D03*
G36*
G01*
X224948000Y-122933750D02*
X224948000Y-123446250D01*
G75*
G02*
X224729250Y-123665000I-218750J0D01*
G01*
X224291750Y-123665000D01*
G75*
G02*
X224073000Y-123446250I0J218750D01*
G01*
X224073000Y-122933750D01*
G75*
G02*
X224291750Y-122715000I218750J0D01*
G01*
X224729250Y-122715000D01*
G75*
G02*
X224948000Y-122933750I0J-218750D01*
G01*
G37*
G36*
G01*
X226523000Y-122933750D02*
X226523000Y-123446250D01*
G75*
G02*
X226304250Y-123665000I-218750J0D01*
G01*
X225866750Y-123665000D01*
G75*
G02*
X225648000Y-123446250I0J218750D01*
G01*
X225648000Y-122933750D01*
G75*
G02*
X225866750Y-122715000I218750J0D01*
G01*
X226304250Y-122715000D01*
G75*
G02*
X226523000Y-122933750I0J-218750D01*
G01*
G37*
G36*
G01*
X217647000Y-113540250D02*
X217647000Y-113027750D01*
G75*
G02*
X217865750Y-112809000I218750J0D01*
G01*
X218303250Y-112809000D01*
G75*
G02*
X218522000Y-113027750I0J-218750D01*
G01*
X218522000Y-113540250D01*
G75*
G02*
X218303250Y-113759000I-218750J0D01*
G01*
X217865750Y-113759000D01*
G75*
G02*
X217647000Y-113540250I0J218750D01*
G01*
G37*
G36*
G01*
X216072000Y-113540250D02*
X216072000Y-113027750D01*
G75*
G02*
X216290750Y-112809000I218750J0D01*
G01*
X216728250Y-112809000D01*
G75*
G02*
X216947000Y-113027750I0J-218750D01*
G01*
X216947000Y-113540250D01*
G75*
G02*
X216728250Y-113759000I-218750J0D01*
G01*
X216290750Y-113759000D01*
G75*
G02*
X216072000Y-113540250I0J218750D01*
G01*
G37*
G36*
G01*
X217647000Y-125859250D02*
X217647000Y-125346750D01*
G75*
G02*
X217865750Y-125128000I218750J0D01*
G01*
X218303250Y-125128000D01*
G75*
G02*
X218522000Y-125346750I0J-218750D01*
G01*
X218522000Y-125859250D01*
G75*
G02*
X218303250Y-126078000I-218750J0D01*
G01*
X217865750Y-126078000D01*
G75*
G02*
X217647000Y-125859250I0J218750D01*
G01*
G37*
G36*
G01*
X216072000Y-125859250D02*
X216072000Y-125346750D01*
G75*
G02*
X216290750Y-125128000I218750J0D01*
G01*
X216728250Y-125128000D01*
G75*
G02*
X216947000Y-125346750I0J-218750D01*
G01*
X216947000Y-125859250D01*
G75*
G02*
X216728250Y-126078000I-218750J0D01*
G01*
X216290750Y-126078000D01*
G75*
G02*
X216072000Y-125859250I0J218750D01*
G01*
G37*
G36*
G01*
X187675000Y-120525250D02*
X187675000Y-120012750D01*
G75*
G02*
X187893750Y-119794000I218750J0D01*
G01*
X188331250Y-119794000D01*
G75*
G02*
X188550000Y-120012750I0J-218750D01*
G01*
X188550000Y-120525250D01*
G75*
G02*
X188331250Y-120744000I-218750J0D01*
G01*
X187893750Y-120744000D01*
G75*
G02*
X187675000Y-120525250I0J218750D01*
G01*
G37*
G36*
G01*
X186100000Y-120525250D02*
X186100000Y-120012750D01*
G75*
G02*
X186318750Y-119794000I218750J0D01*
G01*
X186756250Y-119794000D01*
G75*
G02*
X186975000Y-120012750I0J-218750D01*
G01*
X186975000Y-120525250D01*
G75*
G02*
X186756250Y-120744000I-218750J0D01*
G01*
X186318750Y-120744000D01*
G75*
G02*
X186100000Y-120525250I0J218750D01*
G01*
G37*
G36*
G01*
X220757000Y-140586750D02*
X220757000Y-141099250D01*
G75*
G02*
X220538250Y-141318000I-218750J0D01*
G01*
X220100750Y-141318000D01*
G75*
G02*
X219882000Y-141099250I0J218750D01*
G01*
X219882000Y-140586750D01*
G75*
G02*
X220100750Y-140368000I218750J0D01*
G01*
X220538250Y-140368000D01*
G75*
G02*
X220757000Y-140586750I0J-218750D01*
G01*
G37*
G36*
G01*
X222332000Y-140586750D02*
X222332000Y-141099250D01*
G75*
G02*
X222113250Y-141318000I-218750J0D01*
G01*
X221675750Y-141318000D01*
G75*
G02*
X221457000Y-141099250I0J218750D01*
G01*
X221457000Y-140586750D01*
G75*
G02*
X221675750Y-140368000I218750J0D01*
G01*
X222113250Y-140368000D01*
G75*
G02*
X222332000Y-140586750I0J-218750D01*
G01*
G37*
G36*
G01*
X210027000Y-120779250D02*
X210027000Y-120266750D01*
G75*
G02*
X210245750Y-120048000I218750J0D01*
G01*
X210683250Y-120048000D01*
G75*
G02*
X210902000Y-120266750I0J-218750D01*
G01*
X210902000Y-120779250D01*
G75*
G02*
X210683250Y-120998000I-218750J0D01*
G01*
X210245750Y-120998000D01*
G75*
G02*
X210027000Y-120779250I0J218750D01*
G01*
G37*
G36*
G01*
X208452000Y-120779250D02*
X208452000Y-120266750D01*
G75*
G02*
X208670750Y-120048000I218750J0D01*
G01*
X209108250Y-120048000D01*
G75*
G02*
X209327000Y-120266750I0J-218750D01*
G01*
X209327000Y-120779250D01*
G75*
G02*
X209108250Y-120998000I-218750J0D01*
G01*
X208670750Y-120998000D01*
G75*
G02*
X208452000Y-120779250I0J218750D01*
G01*
G37*
G36*
G01*
X216947000Y-122933750D02*
X216947000Y-123446250D01*
G75*
G02*
X216728250Y-123665000I-218750J0D01*
G01*
X216290750Y-123665000D01*
G75*
G02*
X216072000Y-123446250I0J218750D01*
G01*
X216072000Y-122933750D01*
G75*
G02*
X216290750Y-122715000I218750J0D01*
G01*
X216728250Y-122715000D01*
G75*
G02*
X216947000Y-122933750I0J-218750D01*
G01*
G37*
G36*
G01*
X218522000Y-122933750D02*
X218522000Y-123446250D01*
G75*
G02*
X218303250Y-123665000I-218750J0D01*
G01*
X217865750Y-123665000D01*
G75*
G02*
X217647000Y-123446250I0J218750D01*
G01*
X217647000Y-122933750D01*
G75*
G02*
X217865750Y-122715000I218750J0D01*
G01*
X218303250Y-122715000D01*
G75*
G02*
X218522000Y-122933750I0J-218750D01*
G01*
G37*
G36*
G01*
X225648000Y-129669250D02*
X225648000Y-129156750D01*
G75*
G02*
X225866750Y-128938000I218750J0D01*
G01*
X226304250Y-128938000D01*
G75*
G02*
X226523000Y-129156750I0J-218750D01*
G01*
X226523000Y-129669250D01*
G75*
G02*
X226304250Y-129888000I-218750J0D01*
G01*
X225866750Y-129888000D01*
G75*
G02*
X225648000Y-129669250I0J218750D01*
G01*
G37*
G36*
G01*
X224073000Y-129669250D02*
X224073000Y-129156750D01*
G75*
G02*
X224291750Y-128938000I218750J0D01*
G01*
X224729250Y-128938000D01*
G75*
G02*
X224948000Y-129156750I0J-218750D01*
G01*
X224948000Y-129669250D01*
G75*
G02*
X224729250Y-129888000I-218750J0D01*
G01*
X224291750Y-129888000D01*
G75*
G02*
X224073000Y-129669250I0J218750D01*
G01*
G37*
G36*
G01*
X214472000Y-135003250D02*
X214472000Y-134490750D01*
G75*
G02*
X214690750Y-134272000I218750J0D01*
G01*
X215128250Y-134272000D01*
G75*
G02*
X215347000Y-134490750I0J-218750D01*
G01*
X215347000Y-135003250D01*
G75*
G02*
X215128250Y-135222000I-218750J0D01*
G01*
X214690750Y-135222000D01*
G75*
G02*
X214472000Y-135003250I0J218750D01*
G01*
G37*
G36*
G01*
X212897000Y-135003250D02*
X212897000Y-134490750D01*
G75*
G02*
X213115750Y-134272000I218750J0D01*
G01*
X213553250Y-134272000D01*
G75*
G02*
X213772000Y-134490750I0J-218750D01*
G01*
X213772000Y-135003250D01*
G75*
G02*
X213553250Y-135222000I-218750J0D01*
G01*
X213115750Y-135222000D01*
G75*
G02*
X212897000Y-135003250I0J218750D01*
G01*
G37*
G36*
G01*
X179609000Y-114424750D02*
X179609000Y-114937250D01*
G75*
G02*
X179390250Y-115156000I-218750J0D01*
G01*
X178952750Y-115156000D01*
G75*
G02*
X178734000Y-114937250I0J218750D01*
G01*
X178734000Y-114424750D01*
G75*
G02*
X178952750Y-114206000I218750J0D01*
G01*
X179390250Y-114206000D01*
G75*
G02*
X179609000Y-114424750I0J-218750D01*
G01*
G37*
G36*
G01*
X181184000Y-114424750D02*
X181184000Y-114937250D01*
G75*
G02*
X180965250Y-115156000I-218750J0D01*
G01*
X180527750Y-115156000D01*
G75*
G02*
X180309000Y-114937250I0J218750D01*
G01*
X180309000Y-114424750D01*
G75*
G02*
X180527750Y-114206000I218750J0D01*
G01*
X180965250Y-114206000D01*
G75*
G02*
X181184000Y-114424750I0J-218750D01*
G01*
G37*
G36*
G01*
X175229000Y-114937250D02*
X175229000Y-114424750D01*
G75*
G02*
X175447750Y-114206000I218750J0D01*
G01*
X175885250Y-114206000D01*
G75*
G02*
X176104000Y-114424750I0J-218750D01*
G01*
X176104000Y-114937250D01*
G75*
G02*
X175885250Y-115156000I-218750J0D01*
G01*
X175447750Y-115156000D01*
G75*
G02*
X175229000Y-114937250I0J218750D01*
G01*
G37*
G36*
G01*
X173654000Y-114937250D02*
X173654000Y-114424750D01*
G75*
G02*
X173872750Y-114206000I218750J0D01*
G01*
X174310250Y-114206000D01*
G75*
G02*
X174529000Y-114424750I0J-218750D01*
G01*
X174529000Y-114937250D01*
G75*
G02*
X174310250Y-115156000I-218750J0D01*
G01*
X173872750Y-115156000D01*
G75*
G02*
X173654000Y-114937250I0J218750D01*
G01*
G37*
G36*
G01*
X178339000Y-132204750D02*
X178339000Y-132717250D01*
G75*
G02*
X178120250Y-132936000I-218750J0D01*
G01*
X177682750Y-132936000D01*
G75*
G02*
X177464000Y-132717250I0J218750D01*
G01*
X177464000Y-132204750D01*
G75*
G02*
X177682750Y-131986000I218750J0D01*
G01*
X178120250Y-131986000D01*
G75*
G02*
X178339000Y-132204750I0J-218750D01*
G01*
G37*
G36*
G01*
X179914000Y-132204750D02*
X179914000Y-132717250D01*
G75*
G02*
X179695250Y-132936000I-218750J0D01*
G01*
X179257750Y-132936000D01*
G75*
G02*
X179039000Y-132717250I0J218750D01*
G01*
X179039000Y-132204750D01*
G75*
G02*
X179257750Y-131986000I218750J0D01*
G01*
X179695250Y-131986000D01*
G75*
G02*
X179914000Y-132204750I0J-218750D01*
G01*
G37*
G36*
G01*
X182149000Y-124584750D02*
X182149000Y-125097250D01*
G75*
G02*
X181930250Y-125316000I-218750J0D01*
G01*
X181492750Y-125316000D01*
G75*
G02*
X181274000Y-125097250I0J218750D01*
G01*
X181274000Y-124584750D01*
G75*
G02*
X181492750Y-124366000I218750J0D01*
G01*
X181930250Y-124366000D01*
G75*
G02*
X182149000Y-124584750I0J-218750D01*
G01*
G37*
G36*
G01*
X183724000Y-124584750D02*
X183724000Y-125097250D01*
G75*
G02*
X183505250Y-125316000I-218750J0D01*
G01*
X183067750Y-125316000D01*
G75*
G02*
X182849000Y-125097250I0J218750D01*
G01*
X182849000Y-124584750D01*
G75*
G02*
X183067750Y-124366000I218750J0D01*
G01*
X183505250Y-124366000D01*
G75*
G02*
X183724000Y-124584750I0J-218750D01*
G01*
G37*
G36*
G01*
X184119000Y-142623250D02*
X184119000Y-142110750D01*
G75*
G02*
X184337750Y-141892000I218750J0D01*
G01*
X184775250Y-141892000D01*
G75*
G02*
X184994000Y-142110750I0J-218750D01*
G01*
X184994000Y-142623250D01*
G75*
G02*
X184775250Y-142842000I-218750J0D01*
G01*
X184337750Y-142842000D01*
G75*
G02*
X184119000Y-142623250I0J218750D01*
G01*
G37*
G36*
G01*
X182544000Y-142623250D02*
X182544000Y-142110750D01*
G75*
G02*
X182762750Y-141892000I218750J0D01*
G01*
X183200250Y-141892000D01*
G75*
G02*
X183419000Y-142110750I0J-218750D01*
G01*
X183419000Y-142623250D01*
G75*
G02*
X183200250Y-142842000I-218750J0D01*
G01*
X182762750Y-142842000D01*
G75*
G02*
X182544000Y-142623250I0J218750D01*
G01*
G37*
G36*
G01*
X175229000Y-121287250D02*
X175229000Y-120774750D01*
G75*
G02*
X175447750Y-120556000I218750J0D01*
G01*
X175885250Y-120556000D01*
G75*
G02*
X176104000Y-120774750I0J-218750D01*
G01*
X176104000Y-121287250D01*
G75*
G02*
X175885250Y-121506000I-218750J0D01*
G01*
X175447750Y-121506000D01*
G75*
G02*
X175229000Y-121287250I0J218750D01*
G01*
G37*
G36*
G01*
X173654000Y-121287250D02*
X173654000Y-120774750D01*
G75*
G02*
X173872750Y-120556000I218750J0D01*
G01*
X174310250Y-120556000D01*
G75*
G02*
X174529000Y-120774750I0J-218750D01*
G01*
X174529000Y-121287250D01*
G75*
G02*
X174310250Y-121506000I-218750J0D01*
G01*
X173872750Y-121506000D01*
G75*
G02*
X173654000Y-121287250I0J218750D01*
G01*
G37*
G36*
G01*
X192309000Y-127505750D02*
X192309000Y-128018250D01*
G75*
G02*
X192090250Y-128237000I-218750J0D01*
G01*
X191652750Y-128237000D01*
G75*
G02*
X191434000Y-128018250I0J218750D01*
G01*
X191434000Y-127505750D01*
G75*
G02*
X191652750Y-127287000I218750J0D01*
G01*
X192090250Y-127287000D01*
G75*
G02*
X192309000Y-127505750I0J-218750D01*
G01*
G37*
G36*
G01*
X193884000Y-127505750D02*
X193884000Y-128018250D01*
G75*
G02*
X193665250Y-128237000I-218750J0D01*
G01*
X193227750Y-128237000D01*
G75*
G02*
X193009000Y-128018250I0J218750D01*
G01*
X193009000Y-127505750D01*
G75*
G02*
X193227750Y-127287000I218750J0D01*
G01*
X193665250Y-127287000D01*
G75*
G02*
X193884000Y-127505750I0J-218750D01*
G01*
G37*
G36*
G01*
X194787000Y-141226250D02*
X194787000Y-140713750D01*
G75*
G02*
X195005750Y-140495000I218750J0D01*
G01*
X195443250Y-140495000D01*
G75*
G02*
X195662000Y-140713750I0J-218750D01*
G01*
X195662000Y-141226250D01*
G75*
G02*
X195443250Y-141445000I-218750J0D01*
G01*
X195005750Y-141445000D01*
G75*
G02*
X194787000Y-141226250I0J218750D01*
G01*
G37*
G36*
G01*
X193212000Y-141226250D02*
X193212000Y-140713750D01*
G75*
G02*
X193430750Y-140495000I218750J0D01*
G01*
X193868250Y-140495000D01*
G75*
G02*
X194087000Y-140713750I0J-218750D01*
G01*
X194087000Y-141226250D01*
G75*
G02*
X193868250Y-141445000I-218750J0D01*
G01*
X193430750Y-141445000D01*
G75*
G02*
X193212000Y-141226250I0J218750D01*
G01*
G37*
G36*
G01*
X175229000Y-136527250D02*
X175229000Y-136014750D01*
G75*
G02*
X175447750Y-135796000I218750J0D01*
G01*
X175885250Y-135796000D01*
G75*
G02*
X176104000Y-136014750I0J-218750D01*
G01*
X176104000Y-136527250D01*
G75*
G02*
X175885250Y-136746000I-218750J0D01*
G01*
X175447750Y-136746000D01*
G75*
G02*
X175229000Y-136527250I0J218750D01*
G01*
G37*
G36*
G01*
X173654000Y-136527250D02*
X173654000Y-136014750D01*
G75*
G02*
X173872750Y-135796000I218750J0D01*
G01*
X174310250Y-135796000D01*
G75*
G02*
X174529000Y-136014750I0J-218750D01*
G01*
X174529000Y-136527250D01*
G75*
G02*
X174310250Y-136746000I-218750J0D01*
G01*
X173872750Y-136746000D01*
G75*
G02*
X173654000Y-136527250I0J218750D01*
G01*
G37*
G36*
G01*
X147670000Y-115318250D02*
X147670000Y-114805750D01*
G75*
G02*
X147888750Y-114587000I218750J0D01*
G01*
X148326250Y-114587000D01*
G75*
G02*
X148545000Y-114805750I0J-218750D01*
G01*
X148545000Y-115318250D01*
G75*
G02*
X148326250Y-115537000I-218750J0D01*
G01*
X147888750Y-115537000D01*
G75*
G02*
X147670000Y-115318250I0J218750D01*
G01*
G37*
G36*
G01*
X146095000Y-115318250D02*
X146095000Y-114805750D01*
G75*
G02*
X146313750Y-114587000I218750J0D01*
G01*
X146751250Y-114587000D01*
G75*
G02*
X146970000Y-114805750I0J-218750D01*
G01*
X146970000Y-115318250D01*
G75*
G02*
X146751250Y-115537000I-218750J0D01*
G01*
X146313750Y-115537000D01*
G75*
G02*
X146095000Y-115318250I0J218750D01*
G01*
G37*
G36*
G01*
X140050000Y-115318250D02*
X140050000Y-114805750D01*
G75*
G02*
X140268750Y-114587000I218750J0D01*
G01*
X140706250Y-114587000D01*
G75*
G02*
X140925000Y-114805750I0J-218750D01*
G01*
X140925000Y-115318250D01*
G75*
G02*
X140706250Y-115537000I-218750J0D01*
G01*
X140268750Y-115537000D01*
G75*
G02*
X140050000Y-115318250I0J218750D01*
G01*
G37*
G36*
G01*
X138475000Y-115318250D02*
X138475000Y-114805750D01*
G75*
G02*
X138693750Y-114587000I218750J0D01*
G01*
X139131250Y-114587000D01*
G75*
G02*
X139350000Y-114805750I0J-218750D01*
G01*
X139350000Y-115318250D01*
G75*
G02*
X139131250Y-115537000I-218750J0D01*
G01*
X138693750Y-115537000D01*
G75*
G02*
X138475000Y-115318250I0J218750D01*
G01*
G37*
G36*
G01*
X140620000Y-131315750D02*
X140620000Y-131828250D01*
G75*
G02*
X140401250Y-132047000I-218750J0D01*
G01*
X139963750Y-132047000D01*
G75*
G02*
X139745000Y-131828250I0J218750D01*
G01*
X139745000Y-131315750D01*
G75*
G02*
X139963750Y-131097000I218750J0D01*
G01*
X140401250Y-131097000D01*
G75*
G02*
X140620000Y-131315750I0J-218750D01*
G01*
G37*
G36*
G01*
X142195000Y-131315750D02*
X142195000Y-131828250D01*
G75*
G02*
X141976250Y-132047000I-218750J0D01*
G01*
X141538750Y-132047000D01*
G75*
G02*
X141320000Y-131828250I0J218750D01*
G01*
X141320000Y-131315750D01*
G75*
G02*
X141538750Y-131097000I218750J0D01*
G01*
X141976250Y-131097000D01*
G75*
G02*
X142195000Y-131315750I0J-218750D01*
G01*
G37*
G36*
G01*
X145700000Y-124965750D02*
X145700000Y-125478250D01*
G75*
G02*
X145481250Y-125697000I-218750J0D01*
G01*
X145043750Y-125697000D01*
G75*
G02*
X144825000Y-125478250I0J218750D01*
G01*
X144825000Y-124965750D01*
G75*
G02*
X145043750Y-124747000I218750J0D01*
G01*
X145481250Y-124747000D01*
G75*
G02*
X145700000Y-124965750I0J-218750D01*
G01*
G37*
G36*
G01*
X147275000Y-124965750D02*
X147275000Y-125478250D01*
G75*
G02*
X147056250Y-125697000I-218750J0D01*
G01*
X146618750Y-125697000D01*
G75*
G02*
X146400000Y-125478250I0J218750D01*
G01*
X146400000Y-124965750D01*
G75*
G02*
X146618750Y-124747000I218750J0D01*
G01*
X147056250Y-124747000D01*
G75*
G02*
X147275000Y-124965750I0J-218750D01*
G01*
G37*
G36*
G01*
X146400000Y-141988250D02*
X146400000Y-141475750D01*
G75*
G02*
X146618750Y-141257000I218750J0D01*
G01*
X147056250Y-141257000D01*
G75*
G02*
X147275000Y-141475750I0J-218750D01*
G01*
X147275000Y-141988250D01*
G75*
G02*
X147056250Y-142207000I-218750J0D01*
G01*
X146618750Y-142207000D01*
G75*
G02*
X146400000Y-141988250I0J218750D01*
G01*
G37*
G36*
G01*
X144825000Y-141988250D02*
X144825000Y-141475750D01*
G75*
G02*
X145043750Y-141257000I218750J0D01*
G01*
X145481250Y-141257000D01*
G75*
G02*
X145700000Y-141475750I0J-218750D01*
G01*
X145700000Y-141988250D01*
G75*
G02*
X145481250Y-142207000I-218750J0D01*
G01*
X145043750Y-142207000D01*
G75*
G02*
X144825000Y-141988250I0J218750D01*
G01*
G37*
G36*
G01*
X136494000Y-120398250D02*
X136494000Y-119885750D01*
G75*
G02*
X136712750Y-119667000I218750J0D01*
G01*
X137150250Y-119667000D01*
G75*
G02*
X137369000Y-119885750I0J-218750D01*
G01*
X137369000Y-120398250D01*
G75*
G02*
X137150250Y-120617000I-218750J0D01*
G01*
X136712750Y-120617000D01*
G75*
G02*
X136494000Y-120398250I0J218750D01*
G01*
G37*
G36*
G01*
X134919000Y-120398250D02*
X134919000Y-119885750D01*
G75*
G02*
X135137750Y-119667000I218750J0D01*
G01*
X135575250Y-119667000D01*
G75*
G02*
X135794000Y-119885750I0J-218750D01*
G01*
X135794000Y-120398250D01*
G75*
G02*
X135575250Y-120617000I-218750J0D01*
G01*
X135137750Y-120617000D01*
G75*
G02*
X134919000Y-120398250I0J218750D01*
G01*
G37*
G36*
G01*
X151962500Y-120398250D02*
X151962500Y-119885750D01*
G75*
G02*
X152181250Y-119667000I218750J0D01*
G01*
X152618750Y-119667000D01*
G75*
G02*
X152837500Y-119885750I0J-218750D01*
G01*
X152837500Y-120398250D01*
G75*
G02*
X152618750Y-120617000I-218750J0D01*
G01*
X152181250Y-120617000D01*
G75*
G02*
X151962500Y-120398250I0J218750D01*
G01*
G37*
G36*
G01*
X150387500Y-120398250D02*
X150387500Y-119885750D01*
G75*
G02*
X150606250Y-119667000I218750J0D01*
G01*
X151043750Y-119667000D01*
G75*
G02*
X151262500Y-119885750I0J-218750D01*
G01*
X151262500Y-120398250D01*
G75*
G02*
X151043750Y-120617000I-218750J0D01*
G01*
X150606250Y-120617000D01*
G75*
G02*
X150387500Y-120398250I0J218750D01*
G01*
G37*
G36*
G01*
X155860000Y-138935750D02*
X155860000Y-139448250D01*
G75*
G02*
X155641250Y-139667000I-218750J0D01*
G01*
X155203750Y-139667000D01*
G75*
G02*
X154985000Y-139448250I0J218750D01*
G01*
X154985000Y-138935750D01*
G75*
G02*
X155203750Y-138717000I218750J0D01*
G01*
X155641250Y-138717000D01*
G75*
G02*
X155860000Y-138935750I0J-218750D01*
G01*
G37*
G36*
G01*
X157435000Y-138935750D02*
X157435000Y-139448250D01*
G75*
G02*
X157216250Y-139667000I-218750J0D01*
G01*
X156778750Y-139667000D01*
G75*
G02*
X156560000Y-139448250I0J218750D01*
G01*
X156560000Y-138935750D01*
G75*
G02*
X156778750Y-138717000I218750J0D01*
G01*
X157216250Y-138717000D01*
G75*
G02*
X157435000Y-138935750I0J-218750D01*
G01*
G37*
G36*
G01*
X136494000Y-135638250D02*
X136494000Y-135125750D01*
G75*
G02*
X136712750Y-134907000I218750J0D01*
G01*
X137150250Y-134907000D01*
G75*
G02*
X137369000Y-135125750I0J-218750D01*
G01*
X137369000Y-135638250D01*
G75*
G02*
X137150250Y-135857000I-218750J0D01*
G01*
X136712750Y-135857000D01*
G75*
G02*
X136494000Y-135638250I0J218750D01*
G01*
G37*
G36*
G01*
X134919000Y-135638250D02*
X134919000Y-135125750D01*
G75*
G02*
X135137750Y-134907000I218750J0D01*
G01*
X135575250Y-134907000D01*
G75*
G02*
X135794000Y-135125750I0J-218750D01*
G01*
X135794000Y-135638250D01*
G75*
G02*
X135575250Y-135857000I-218750J0D01*
G01*
X135137750Y-135857000D01*
G75*
G02*
X134919000Y-135638250I0J218750D01*
G01*
G37*
G36*
G01*
X103220000Y-115826250D02*
X103220000Y-115313750D01*
G75*
G02*
X103438750Y-115095000I218750J0D01*
G01*
X103876250Y-115095000D01*
G75*
G02*
X104095000Y-115313750I0J-218750D01*
G01*
X104095000Y-115826250D01*
G75*
G02*
X103876250Y-116045000I-218750J0D01*
G01*
X103438750Y-116045000D01*
G75*
G02*
X103220000Y-115826250I0J218750D01*
G01*
G37*
G36*
G01*
X101645000Y-115826250D02*
X101645000Y-115313750D01*
G75*
G02*
X101863750Y-115095000I218750J0D01*
G01*
X102301250Y-115095000D01*
G75*
G02*
X102520000Y-115313750I0J-218750D01*
G01*
X102520000Y-115826250D01*
G75*
G02*
X102301250Y-116045000I-218750J0D01*
G01*
X101863750Y-116045000D01*
G75*
G02*
X101645000Y-115826250I0J218750D01*
G01*
G37*
G36*
G01*
X95600000Y-115826250D02*
X95600000Y-115313750D01*
G75*
G02*
X95818750Y-115095000I218750J0D01*
G01*
X96256250Y-115095000D01*
G75*
G02*
X96475000Y-115313750I0J-218750D01*
G01*
X96475000Y-115826250D01*
G75*
G02*
X96256250Y-116045000I-218750J0D01*
G01*
X95818750Y-116045000D01*
G75*
G02*
X95600000Y-115826250I0J218750D01*
G01*
G37*
G36*
G01*
X94025000Y-115826250D02*
X94025000Y-115313750D01*
G75*
G02*
X94243750Y-115095000I218750J0D01*
G01*
X94681250Y-115095000D01*
G75*
G02*
X94900000Y-115313750I0J-218750D01*
G01*
X94900000Y-115826250D01*
G75*
G02*
X94681250Y-116045000I-218750J0D01*
G01*
X94243750Y-116045000D01*
G75*
G02*
X94025000Y-115826250I0J218750D01*
G01*
G37*
G36*
G01*
X96870000Y-132336250D02*
X96870000Y-131823750D01*
G75*
G02*
X97088750Y-131605000I218750J0D01*
G01*
X97526250Y-131605000D01*
G75*
G02*
X97745000Y-131823750I0J-218750D01*
G01*
X97745000Y-132336250D01*
G75*
G02*
X97526250Y-132555000I-218750J0D01*
G01*
X97088750Y-132555000D01*
G75*
G02*
X96870000Y-132336250I0J218750D01*
G01*
G37*
G36*
G01*
X95295000Y-132336250D02*
X95295000Y-131823750D01*
G75*
G02*
X95513750Y-131605000I218750J0D01*
G01*
X95951250Y-131605000D01*
G75*
G02*
X96170000Y-131823750I0J-218750D01*
G01*
X96170000Y-132336250D01*
G75*
G02*
X95951250Y-132555000I-218750J0D01*
G01*
X95513750Y-132555000D01*
G75*
G02*
X95295000Y-132336250I0J218750D01*
G01*
G37*
G36*
G01*
X101950000Y-125986250D02*
X101950000Y-125473750D01*
G75*
G02*
X102168750Y-125255000I218750J0D01*
G01*
X102606250Y-125255000D01*
G75*
G02*
X102825000Y-125473750I0J-218750D01*
G01*
X102825000Y-125986250D01*
G75*
G02*
X102606250Y-126205000I-218750J0D01*
G01*
X102168750Y-126205000D01*
G75*
G02*
X101950000Y-125986250I0J218750D01*
G01*
G37*
G36*
G01*
X100375000Y-125986250D02*
X100375000Y-125473750D01*
G75*
G02*
X100593750Y-125255000I218750J0D01*
G01*
X101031250Y-125255000D01*
G75*
G02*
X101250000Y-125473750I0J-218750D01*
G01*
X101250000Y-125986250D01*
G75*
G02*
X101031250Y-126205000I-218750J0D01*
G01*
X100593750Y-126205000D01*
G75*
G02*
X100375000Y-125986250I0J218750D01*
G01*
G37*
G36*
G01*
X101950000Y-141226250D02*
X101950000Y-140713750D01*
G75*
G02*
X102168750Y-140495000I218750J0D01*
G01*
X102606250Y-140495000D01*
G75*
G02*
X102825000Y-140713750I0J-218750D01*
G01*
X102825000Y-141226250D01*
G75*
G02*
X102606250Y-141445000I-218750J0D01*
G01*
X102168750Y-141445000D01*
G75*
G02*
X101950000Y-141226250I0J218750D01*
G01*
G37*
G36*
G01*
X100375000Y-141226250D02*
X100375000Y-140713750D01*
G75*
G02*
X100593750Y-140495000I218750J0D01*
G01*
X101031250Y-140495000D01*
G75*
G02*
X101250000Y-140713750I0J-218750D01*
G01*
X101250000Y-141226250D01*
G75*
G02*
X101031250Y-141445000I-218750J0D01*
G01*
X100593750Y-141445000D01*
G75*
G02*
X100375000Y-141226250I0J218750D01*
G01*
G37*
G36*
G01*
X93060000Y-120906250D02*
X93060000Y-120393750D01*
G75*
G02*
X93278750Y-120175000I218750J0D01*
G01*
X93716250Y-120175000D01*
G75*
G02*
X93935000Y-120393750I0J-218750D01*
G01*
X93935000Y-120906250D01*
G75*
G02*
X93716250Y-121125000I-218750J0D01*
G01*
X93278750Y-121125000D01*
G75*
G02*
X93060000Y-120906250I0J218750D01*
G01*
G37*
G36*
G01*
X91485000Y-120906250D02*
X91485000Y-120393750D01*
G75*
G02*
X91703750Y-120175000I218750J0D01*
G01*
X92141250Y-120175000D01*
G75*
G02*
X92360000Y-120393750I0J-218750D01*
G01*
X92360000Y-120906250D01*
G75*
G02*
X92141250Y-121125000I-218750J0D01*
G01*
X91703750Y-121125000D01*
G75*
G02*
X91485000Y-120906250I0J218750D01*
G01*
G37*
G36*
G01*
X106330000Y-121028750D02*
X106330000Y-121541250D01*
G75*
G02*
X106111250Y-121760000I-218750J0D01*
G01*
X105673750Y-121760000D01*
G75*
G02*
X105455000Y-121541250I0J218750D01*
G01*
X105455000Y-121028750D01*
G75*
G02*
X105673750Y-120810000I218750J0D01*
G01*
X106111250Y-120810000D01*
G75*
G02*
X106330000Y-121028750I0J-218750D01*
G01*
G37*
G36*
G01*
X107905000Y-121028750D02*
X107905000Y-121541250D01*
G75*
G02*
X107686250Y-121760000I-218750J0D01*
G01*
X107248750Y-121760000D01*
G75*
G02*
X107030000Y-121541250I0J218750D01*
G01*
X107030000Y-121028750D01*
G75*
G02*
X107248750Y-120810000I218750J0D01*
G01*
X107686250Y-120810000D01*
G75*
G02*
X107905000Y-121028750I0J-218750D01*
G01*
G37*
G36*
G01*
X110357500Y-141226250D02*
X110357500Y-140713750D01*
G75*
G02*
X110576250Y-140495000I218750J0D01*
G01*
X111013750Y-140495000D01*
G75*
G02*
X111232500Y-140713750I0J-218750D01*
G01*
X111232500Y-141226250D01*
G75*
G02*
X111013750Y-141445000I-218750J0D01*
G01*
X110576250Y-141445000D01*
G75*
G02*
X110357500Y-141226250I0J218750D01*
G01*
G37*
G36*
G01*
X108782500Y-141226250D02*
X108782500Y-140713750D01*
G75*
G02*
X109001250Y-140495000I218750J0D01*
G01*
X109438750Y-140495000D01*
G75*
G02*
X109657500Y-140713750I0J-218750D01*
G01*
X109657500Y-141226250D01*
G75*
G02*
X109438750Y-141445000I-218750J0D01*
G01*
X109001250Y-141445000D01*
G75*
G02*
X108782500Y-141226250I0J218750D01*
G01*
G37*
G36*
G01*
X93060000Y-136146250D02*
X93060000Y-135633750D01*
G75*
G02*
X93278750Y-135415000I218750J0D01*
G01*
X93716250Y-135415000D01*
G75*
G02*
X93935000Y-135633750I0J-218750D01*
G01*
X93935000Y-136146250D01*
G75*
G02*
X93716250Y-136365000I-218750J0D01*
G01*
X93278750Y-136365000D01*
G75*
G02*
X93060000Y-136146250I0J218750D01*
G01*
G37*
G36*
G01*
X91485000Y-136146250D02*
X91485000Y-135633750D01*
G75*
G02*
X91703750Y-135415000I218750J0D01*
G01*
X92141250Y-135415000D01*
G75*
G02*
X92360000Y-135633750I0J-218750D01*
G01*
X92360000Y-136146250D01*
G75*
G02*
X92141250Y-136365000I-218750J0D01*
G01*
X91703750Y-136365000D01*
G75*
G02*
X91485000Y-136146250I0J218750D01*
G01*
G37*
M02*
