%FSLAX45Y45*%
G04 Gerber Fmt 4.5, Leading zero omitted, Abs format (unit mm)*
G04 Created by KiCad (PCBNEW (5.1.6-0-10_14)) date 2022-01-02 10:51:08*
%MOMM*%
%LPD*%
G01*
G04 APERTURE LIST*
%TA.AperFunction,Profile*%
%ADD10C,0.050000*%
%TD*%
%ADD11C,0.200000*%
%ADD12C,0.300000*%
G04 APERTURE END LIST*
D10*
X22301200Y-15773400D02*
X21704300Y-15773400D01*
X21704300Y-15773400D02*
G75*
G02*
X21704300Y-15443200I0J165100D01*
G01*
X21704300Y-15443200D02*
X22301200Y-15443200D01*
X22301200Y-15443200D02*
G75*
G02*
X22301200Y-15773400I0J-165100D01*
G01*
X7772400Y-15786100D02*
X7175500Y-15786100D01*
X7772400Y-15455900D02*
G75*
G02*
X7772400Y-15786100I0J-165100D01*
G01*
X7175500Y-15455900D02*
X7772400Y-15455900D01*
X7175500Y-15786100D02*
G75*
G02*
X7175500Y-15455900I0J165100D01*
G01*
X22301200Y-3517900D02*
X21704300Y-3517900D01*
X22301200Y-3187700D02*
G75*
G02*
X22301200Y-3517900I0J-165100D01*
G01*
X21704300Y-3187700D02*
X22301200Y-3187700D01*
X21704300Y-3517900D02*
G75*
G02*
X21704300Y-3187700I0J165100D01*
G01*
X7162800Y-3200400D02*
X7759700Y-3200400D01*
X7759700Y-3530600D02*
X7162800Y-3530600D01*
X7162800Y-3530600D02*
G75*
G02*
X7162800Y-3200400I0J165100D01*
G01*
X7759700Y-3200400D02*
G75*
G02*
X7759700Y-3530600I0J-165100D01*
G01*
X6604000Y-3060700D02*
X22860000Y-3060700D01*
X6604000Y-15913100D02*
X22860000Y-15913100D01*
X6604000Y-15913100D02*
X6604000Y-3060700D01*
X21437600Y-5473700D02*
X21437600Y-8763000D01*
X21056600Y-5092700D02*
G75*
G02*
X21437600Y-5473700I0J-381000D01*
G01*
X20675600Y-8763000D02*
X20675600Y-5473700D01*
X20675600Y-5473700D02*
G75*
G02*
X21056600Y-5092700I381000J0D01*
G01*
X21437600Y-8763000D02*
G75*
G02*
X21056600Y-9144000I-381000J0D01*
G01*
X21056600Y-9144000D02*
G75*
G02*
X20675600Y-8763000I0J381000D01*
G01*
X17233900Y-5473700D02*
X17233900Y-8763000D01*
X16852900Y-5092700D02*
G75*
G02*
X17233900Y-5473700I0J-381000D01*
G01*
X16471900Y-8763000D02*
X16471900Y-5473700D01*
X16471900Y-5473700D02*
G75*
G02*
X16852900Y-5092700I381000J0D01*
G01*
X17233900Y-8763000D02*
G75*
G02*
X16852900Y-9144000I-381000J0D01*
G01*
X16852900Y-9144000D02*
G75*
G02*
X16471900Y-8763000I0J381000D01*
G01*
X12992100Y-5473700D02*
X12992100Y-8763000D01*
X12611100Y-5092700D02*
G75*
G02*
X12992100Y-5473700I0J-381000D01*
G01*
X12230100Y-8763000D02*
X12230100Y-5473700D01*
X12230100Y-5473700D02*
G75*
G02*
X12611100Y-5092700I381000J0D01*
G01*
X12992100Y-8763000D02*
G75*
G02*
X12611100Y-9144000I-381000J0D01*
G01*
X12611100Y-9144000D02*
G75*
G02*
X12230100Y-8763000I0J381000D01*
G01*
X8890000Y-5473700D02*
X8890000Y-8763000D01*
X8128000Y-8763000D02*
X8128000Y-5473700D01*
X8128000Y-5473700D02*
G75*
G02*
X8509000Y-5092700I381000J0D01*
G01*
X8509000Y-5092700D02*
G75*
G02*
X8890000Y-5473700I0J-381000D01*
G01*
X8890000Y-8763000D02*
G75*
G02*
X8509000Y-9144000I-381000J0D01*
G01*
X8509000Y-9144000D02*
G75*
G02*
X8128000Y-8763000I0J381000D01*
G01*
X8759000Y-10795000D02*
G75*
G03*
X8759000Y-10795000I-250000J0D01*
G01*
X12950000Y-10795000D02*
G75*
G03*
X12950000Y-10795000I-250000J0D01*
G01*
X17145000Y-10795000D02*
G75*
G03*
X17145000Y-10795000I-250000J0D01*
G01*
X21332000Y-10795000D02*
G75*
G03*
X21332000Y-10795000I-250000J0D01*
G01*
X21382000Y-13843000D02*
G75*
G03*
X21382000Y-13843000I-300000J0D01*
G01*
X21382000Y-12827000D02*
G75*
G03*
X21382000Y-12827000I-300000J0D01*
G01*
X21382000Y-11811000D02*
G75*
G03*
X21382000Y-11811000I-300000J0D01*
G01*
X17191000Y-13843000D02*
G75*
G03*
X17191000Y-13843000I-300000J0D01*
G01*
X17191000Y-12827000D02*
G75*
G03*
X17191000Y-12827000I-300000J0D01*
G01*
X17191000Y-11811000D02*
G75*
G03*
X17191000Y-11811000I-300000J0D01*
G01*
X13000000Y-13843000D02*
G75*
G03*
X13000000Y-13843000I-300000J0D01*
G01*
X13000000Y-12827000D02*
G75*
G03*
X13000000Y-12827000I-300000J0D01*
G01*
X13000000Y-11815800D02*
G75*
G03*
X13000000Y-11815800I-300000J0D01*
G01*
X8809000Y-13843000D02*
G75*
G03*
X8809000Y-13843000I-300000J0D01*
G01*
X8809000Y-12827000D02*
G75*
G03*
X8809000Y-12827000I-300000J0D01*
G01*
X8809000Y-11811000D02*
G75*
G03*
X8809000Y-11811000I-300000J0D01*
G01*
X22452200Y-8132000D02*
G75*
G03*
X22452200Y-8132000I-350000J0D01*
G01*
X20344000Y-8132000D02*
G75*
G03*
X20344000Y-8132000I-350000J0D01*
G01*
X22452200Y-5719000D02*
G75*
G03*
X22452200Y-5719000I-350000J0D01*
G01*
X20331300Y-5706300D02*
G75*
G03*
X20331300Y-5706300I-350000J0D01*
G01*
X18248500Y-8132000D02*
G75*
G03*
X18248500Y-8132000I-350000J0D01*
G01*
X18261200Y-5719000D02*
G75*
G03*
X18261200Y-5719000I-350000J0D01*
G01*
X16089500Y-5719000D02*
G75*
G03*
X16089500Y-5719000I-350000J0D01*
G01*
X16090900Y-8128000D02*
G75*
G03*
X16090900Y-8128000I-350000J0D01*
G01*
X14070200Y-8132000D02*
G75*
G03*
X14070200Y-8132000I-350000J0D01*
G01*
X14070200Y-5706300D02*
G75*
G03*
X14070200Y-5706300I-350000J0D01*
G01*
X11911200Y-8132000D02*
G75*
G03*
X11911200Y-8132000I-350000J0D01*
G01*
X11911200Y-5719000D02*
G75*
G03*
X11911200Y-5719000I-350000J0D01*
G01*
X9786100Y-8128000D02*
G75*
G03*
X9786100Y-8128000I-350000J0D01*
G01*
X7834500Y-8132000D02*
G75*
G03*
X7834500Y-8132000I-350000J0D01*
G01*
X9902500Y-5717000D02*
G75*
G03*
X9902500Y-5717000I-350000J0D01*
G01*
X7843000Y-5715000D02*
G75*
G03*
X7843000Y-5715000I-350000J0D01*
G01*
X22860000Y-15913100D02*
X22860000Y-3060700D01*
D11*
D12*
X6887928Y-16381314D02*
X6887928Y-16081314D01*
X6959357Y-16081314D01*
X7002214Y-16095600D01*
X7030786Y-16124171D01*
X7045071Y-16152743D01*
X7059357Y-16209886D01*
X7059357Y-16252743D01*
X7045071Y-16309886D01*
X7030786Y-16338457D01*
X7002214Y-16367029D01*
X6959357Y-16381314D01*
X6887928Y-16381314D01*
X7187928Y-16381314D02*
X7187928Y-16181314D01*
X7187928Y-16238457D02*
X7202214Y-16209886D01*
X7216500Y-16195600D01*
X7245071Y-16181314D01*
X7273643Y-16181314D01*
X7373643Y-16381314D02*
X7373643Y-16181314D01*
X7373643Y-16081314D02*
X7359357Y-16095600D01*
X7373643Y-16109886D01*
X7387928Y-16095600D01*
X7373643Y-16081314D01*
X7373643Y-16109886D01*
X7559357Y-16381314D02*
X7530786Y-16367029D01*
X7516500Y-16338457D01*
X7516500Y-16081314D01*
X7716500Y-16381314D02*
X7687928Y-16367029D01*
X7673643Y-16338457D01*
X7673643Y-16081314D01*
X8059357Y-16381314D02*
X8059357Y-16081314D01*
X8159357Y-16295600D01*
X8259357Y-16081314D01*
X8259357Y-16381314D01*
X8530786Y-16381314D02*
X8530786Y-16224171D01*
X8516500Y-16195600D01*
X8487928Y-16181314D01*
X8430786Y-16181314D01*
X8402214Y-16195600D01*
X8530786Y-16367029D02*
X8502214Y-16381314D01*
X8430786Y-16381314D01*
X8402214Y-16367029D01*
X8387928Y-16338457D01*
X8387928Y-16309886D01*
X8402214Y-16281314D01*
X8430786Y-16267029D01*
X8502214Y-16267029D01*
X8530786Y-16252743D01*
X8673643Y-16181314D02*
X8673643Y-16481314D01*
X8673643Y-16195600D02*
X8702214Y-16181314D01*
X8759357Y-16181314D01*
X8787928Y-16195600D01*
X8802214Y-16209886D01*
X8816500Y-16238457D01*
X8816500Y-16324171D01*
X8802214Y-16352743D01*
X8787928Y-16367029D01*
X8759357Y-16381314D01*
X8702214Y-16381314D01*
X8673643Y-16367029D01*
X8945071Y-16352743D02*
X8959357Y-16367029D01*
X8945071Y-16381314D01*
X8930786Y-16367029D01*
X8945071Y-16352743D01*
X8945071Y-16381314D01*
X8945071Y-16195600D02*
X8959357Y-16209886D01*
X8945071Y-16224171D01*
X8930786Y-16209886D01*
X8945071Y-16195600D01*
X8945071Y-16224171D01*
M02*
