G04 #@! TF.GenerationSoftware,KiCad,Pcbnew,(5.1.6-0-10_14)*
G04 #@! TF.CreationDate,2022-03-15T09:33:00+00:00*
G04 #@! TF.ProjectId,Quad Tube VCA,51756164-2054-4756-9265-205643412e6b,rev?*
G04 #@! TF.SameCoordinates,Original*
G04 #@! TF.FileFunction,Soldermask,Bot*
G04 #@! TF.FilePolarity,Negative*
%FSLAX46Y46*%
G04 Gerber Fmt 4.6, Leading zero omitted, Abs format (unit mm)*
G04 Created by KiCad (PCBNEW (5.1.6-0-10_14)) date 2022-03-15 09:33:00*
%MOMM*%
%LPD*%
G01*
G04 APERTURE LIST*
%ADD10R,1.000000X1.300000*%
%ADD11C,2.875000*%
%ADD12R,2.875000X2.875000*%
%ADD13C,1.700000*%
%ADD14R,1.700000X1.700000*%
%ADD15C,1.900000*%
%ADD16R,1.900000X1.900000*%
%ADD17C,1.400000*%
%ADD18C,2.100000*%
%ADD19C,1.540000*%
%ADD20O,1.800000X1.800000*%
%ADD21R,1.800000X1.800000*%
G04 APERTURE END LIST*
G36*
G01*
X203173500Y-97955000D02*
X203173500Y-100165000D01*
G75*
G02*
X202903500Y-100435000I-270000J0D01*
G01*
X202093500Y-100435000D01*
G75*
G02*
X201823500Y-100165000I0J270000D01*
G01*
X201823500Y-97955000D01*
G75*
G02*
X202093500Y-97685000I270000J0D01*
G01*
X202903500Y-97685000D01*
G75*
G02*
X203173500Y-97955000I0J-270000D01*
G01*
G37*
G36*
G01*
X205973500Y-97955000D02*
X205973500Y-100165000D01*
G75*
G02*
X205703500Y-100435000I-270000J0D01*
G01*
X204893500Y-100435000D01*
G75*
G02*
X204623500Y-100165000I0J270000D01*
G01*
X204623500Y-97955000D01*
G75*
G02*
X204893500Y-97685000I270000J0D01*
G01*
X205703500Y-97685000D01*
G75*
G02*
X205973500Y-97955000I0J-270000D01*
G01*
G37*
G36*
G01*
X161136500Y-97955000D02*
X161136500Y-100165000D01*
G75*
G02*
X160866500Y-100435000I-270000J0D01*
G01*
X160056500Y-100435000D01*
G75*
G02*
X159786500Y-100165000I0J270000D01*
G01*
X159786500Y-97955000D01*
G75*
G02*
X160056500Y-97685000I270000J0D01*
G01*
X160866500Y-97685000D01*
G75*
G02*
X161136500Y-97955000I0J-270000D01*
G01*
G37*
G36*
G01*
X163936500Y-97955000D02*
X163936500Y-100165000D01*
G75*
G02*
X163666500Y-100435000I-270000J0D01*
G01*
X162856500Y-100435000D01*
G75*
G02*
X162586500Y-100165000I0J270000D01*
G01*
X162586500Y-97955000D01*
G75*
G02*
X162856500Y-97685000I270000J0D01*
G01*
X163666500Y-97685000D01*
G75*
G02*
X163936500Y-97955000I0J-270000D01*
G01*
G37*
G36*
G01*
X118782000Y-97955000D02*
X118782000Y-100165000D01*
G75*
G02*
X118512000Y-100435000I-270000J0D01*
G01*
X117702000Y-100435000D01*
G75*
G02*
X117432000Y-100165000I0J270000D01*
G01*
X117432000Y-97955000D01*
G75*
G02*
X117702000Y-97685000I270000J0D01*
G01*
X118512000Y-97685000D01*
G75*
G02*
X118782000Y-97955000I0J-270000D01*
G01*
G37*
G36*
G01*
X121582000Y-97955000D02*
X121582000Y-100165000D01*
G75*
G02*
X121312000Y-100435000I-270000J0D01*
G01*
X120502000Y-100435000D01*
G75*
G02*
X120232000Y-100165000I0J270000D01*
G01*
X120232000Y-97955000D01*
G75*
G02*
X120502000Y-97685000I270000J0D01*
G01*
X121312000Y-97685000D01*
G75*
G02*
X121582000Y-97955000I0J-270000D01*
G01*
G37*
G36*
G01*
X77761000Y-97955000D02*
X77761000Y-100165000D01*
G75*
G02*
X77491000Y-100435000I-270000J0D01*
G01*
X76681000Y-100435000D01*
G75*
G02*
X76411000Y-100165000I0J270000D01*
G01*
X76411000Y-97955000D01*
G75*
G02*
X76681000Y-97685000I270000J0D01*
G01*
X77491000Y-97685000D01*
G75*
G02*
X77761000Y-97955000I0J-270000D01*
G01*
G37*
G36*
G01*
X80561000Y-97955000D02*
X80561000Y-100165000D01*
G75*
G02*
X80291000Y-100435000I-270000J0D01*
G01*
X79481000Y-100435000D01*
G75*
G02*
X79211000Y-100165000I0J270000D01*
G01*
X79211000Y-97955000D01*
G75*
G02*
X79481000Y-97685000I270000J0D01*
G01*
X80291000Y-97685000D01*
G75*
G02*
X80561000Y-97955000I0J-270000D01*
G01*
G37*
G36*
G01*
X217180500Y-49355000D02*
X217180500Y-49705000D01*
G75*
G02*
X217005500Y-49880000I-175000J0D01*
G01*
X215305500Y-49880000D01*
G75*
G02*
X215130500Y-49705000I0J175000D01*
G01*
X215130500Y-49355000D01*
G75*
G02*
X215305500Y-49180000I175000J0D01*
G01*
X217005500Y-49180000D01*
G75*
G02*
X217180500Y-49355000I0J-175000D01*
G01*
G37*
G36*
G01*
X217180500Y-50625000D02*
X217180500Y-50975000D01*
G75*
G02*
X217005500Y-51150000I-175000J0D01*
G01*
X215305500Y-51150000D01*
G75*
G02*
X215130500Y-50975000I0J175000D01*
G01*
X215130500Y-50625000D01*
G75*
G02*
X215305500Y-50450000I175000J0D01*
G01*
X217005500Y-50450000D01*
G75*
G02*
X217180500Y-50625000I0J-175000D01*
G01*
G37*
G36*
G01*
X217180500Y-51895000D02*
X217180500Y-52245000D01*
G75*
G02*
X217005500Y-52420000I-175000J0D01*
G01*
X215305500Y-52420000D01*
G75*
G02*
X215130500Y-52245000I0J175000D01*
G01*
X215130500Y-51895000D01*
G75*
G02*
X215305500Y-51720000I175000J0D01*
G01*
X217005500Y-51720000D01*
G75*
G02*
X217180500Y-51895000I0J-175000D01*
G01*
G37*
G36*
G01*
X217180500Y-53165000D02*
X217180500Y-53515000D01*
G75*
G02*
X217005500Y-53690000I-175000J0D01*
G01*
X215305500Y-53690000D01*
G75*
G02*
X215130500Y-53515000I0J175000D01*
G01*
X215130500Y-53165000D01*
G75*
G02*
X215305500Y-52990000I175000J0D01*
G01*
X217005500Y-52990000D01*
G75*
G02*
X217180500Y-53165000I0J-175000D01*
G01*
G37*
G36*
G01*
X222130500Y-53165000D02*
X222130500Y-53515000D01*
G75*
G02*
X221955500Y-53690000I-175000J0D01*
G01*
X220255500Y-53690000D01*
G75*
G02*
X220080500Y-53515000I0J175000D01*
G01*
X220080500Y-53165000D01*
G75*
G02*
X220255500Y-52990000I175000J0D01*
G01*
X221955500Y-52990000D01*
G75*
G02*
X222130500Y-53165000I0J-175000D01*
G01*
G37*
G36*
G01*
X222130500Y-51895000D02*
X222130500Y-52245000D01*
G75*
G02*
X221955500Y-52420000I-175000J0D01*
G01*
X220255500Y-52420000D01*
G75*
G02*
X220080500Y-52245000I0J175000D01*
G01*
X220080500Y-51895000D01*
G75*
G02*
X220255500Y-51720000I175000J0D01*
G01*
X221955500Y-51720000D01*
G75*
G02*
X222130500Y-51895000I0J-175000D01*
G01*
G37*
G36*
G01*
X222130500Y-50625000D02*
X222130500Y-50975000D01*
G75*
G02*
X221955500Y-51150000I-175000J0D01*
G01*
X220255500Y-51150000D01*
G75*
G02*
X220080500Y-50975000I0J175000D01*
G01*
X220080500Y-50625000D01*
G75*
G02*
X220255500Y-50450000I175000J0D01*
G01*
X221955500Y-50450000D01*
G75*
G02*
X222130500Y-50625000I0J-175000D01*
G01*
G37*
G36*
G01*
X222130500Y-49355000D02*
X222130500Y-49705000D01*
G75*
G02*
X221955500Y-49880000I-175000J0D01*
G01*
X220255500Y-49880000D01*
G75*
G02*
X220080500Y-49705000I0J175000D01*
G01*
X220080500Y-49355000D01*
G75*
G02*
X220255500Y-49180000I175000J0D01*
G01*
X221955500Y-49180000D01*
G75*
G02*
X222130500Y-49355000I0J-175000D01*
G01*
G37*
G36*
G01*
X190934000Y-125016000D02*
X190934000Y-124666000D01*
G75*
G02*
X191109000Y-124491000I175000J0D01*
G01*
X192809000Y-124491000D01*
G75*
G02*
X192984000Y-124666000I0J-175000D01*
G01*
X192984000Y-125016000D01*
G75*
G02*
X192809000Y-125191000I-175000J0D01*
G01*
X191109000Y-125191000D01*
G75*
G02*
X190934000Y-125016000I0J175000D01*
G01*
G37*
G36*
G01*
X190934000Y-123746000D02*
X190934000Y-123396000D01*
G75*
G02*
X191109000Y-123221000I175000J0D01*
G01*
X192809000Y-123221000D01*
G75*
G02*
X192984000Y-123396000I0J-175000D01*
G01*
X192984000Y-123746000D01*
G75*
G02*
X192809000Y-123921000I-175000J0D01*
G01*
X191109000Y-123921000D01*
G75*
G02*
X190934000Y-123746000I0J175000D01*
G01*
G37*
G36*
G01*
X190934000Y-122476000D02*
X190934000Y-122126000D01*
G75*
G02*
X191109000Y-121951000I175000J0D01*
G01*
X192809000Y-121951000D01*
G75*
G02*
X192984000Y-122126000I0J-175000D01*
G01*
X192984000Y-122476000D01*
G75*
G02*
X192809000Y-122651000I-175000J0D01*
G01*
X191109000Y-122651000D01*
G75*
G02*
X190934000Y-122476000I0J175000D01*
G01*
G37*
G36*
G01*
X190934000Y-121206000D02*
X190934000Y-120856000D01*
G75*
G02*
X191109000Y-120681000I175000J0D01*
G01*
X192809000Y-120681000D01*
G75*
G02*
X192984000Y-120856000I0J-175000D01*
G01*
X192984000Y-121206000D01*
G75*
G02*
X192809000Y-121381000I-175000J0D01*
G01*
X191109000Y-121381000D01*
G75*
G02*
X190934000Y-121206000I0J175000D01*
G01*
G37*
G36*
G01*
X185984000Y-121206000D02*
X185984000Y-120856000D01*
G75*
G02*
X186159000Y-120681000I175000J0D01*
G01*
X187859000Y-120681000D01*
G75*
G02*
X188034000Y-120856000I0J-175000D01*
G01*
X188034000Y-121206000D01*
G75*
G02*
X187859000Y-121381000I-175000J0D01*
G01*
X186159000Y-121381000D01*
G75*
G02*
X185984000Y-121206000I0J175000D01*
G01*
G37*
G36*
G01*
X185984000Y-122476000D02*
X185984000Y-122126000D01*
G75*
G02*
X186159000Y-121951000I175000J0D01*
G01*
X187859000Y-121951000D01*
G75*
G02*
X188034000Y-122126000I0J-175000D01*
G01*
X188034000Y-122476000D01*
G75*
G02*
X187859000Y-122651000I-175000J0D01*
G01*
X186159000Y-122651000D01*
G75*
G02*
X185984000Y-122476000I0J175000D01*
G01*
G37*
G36*
G01*
X185984000Y-123746000D02*
X185984000Y-123396000D01*
G75*
G02*
X186159000Y-123221000I175000J0D01*
G01*
X187859000Y-123221000D01*
G75*
G02*
X188034000Y-123396000I0J-175000D01*
G01*
X188034000Y-123746000D01*
G75*
G02*
X187859000Y-123921000I-175000J0D01*
G01*
X186159000Y-123921000D01*
G75*
G02*
X185984000Y-123746000I0J175000D01*
G01*
G37*
G36*
G01*
X185984000Y-125016000D02*
X185984000Y-124666000D01*
G75*
G02*
X186159000Y-124491000I175000J0D01*
G01*
X187859000Y-124491000D01*
G75*
G02*
X188034000Y-124666000I0J-175000D01*
G01*
X188034000Y-125016000D01*
G75*
G02*
X187859000Y-125191000I-175000J0D01*
G01*
X186159000Y-125191000D01*
G75*
G02*
X185984000Y-125016000I0J175000D01*
G01*
G37*
G36*
G01*
X177493000Y-48974000D02*
X177493000Y-49324000D01*
G75*
G02*
X177318000Y-49499000I-175000J0D01*
G01*
X175618000Y-49499000D01*
G75*
G02*
X175443000Y-49324000I0J175000D01*
G01*
X175443000Y-48974000D01*
G75*
G02*
X175618000Y-48799000I175000J0D01*
G01*
X177318000Y-48799000D01*
G75*
G02*
X177493000Y-48974000I0J-175000D01*
G01*
G37*
G36*
G01*
X177493000Y-50244000D02*
X177493000Y-50594000D01*
G75*
G02*
X177318000Y-50769000I-175000J0D01*
G01*
X175618000Y-50769000D01*
G75*
G02*
X175443000Y-50594000I0J175000D01*
G01*
X175443000Y-50244000D01*
G75*
G02*
X175618000Y-50069000I175000J0D01*
G01*
X177318000Y-50069000D01*
G75*
G02*
X177493000Y-50244000I0J-175000D01*
G01*
G37*
G36*
G01*
X177493000Y-51514000D02*
X177493000Y-51864000D01*
G75*
G02*
X177318000Y-52039000I-175000J0D01*
G01*
X175618000Y-52039000D01*
G75*
G02*
X175443000Y-51864000I0J175000D01*
G01*
X175443000Y-51514000D01*
G75*
G02*
X175618000Y-51339000I175000J0D01*
G01*
X177318000Y-51339000D01*
G75*
G02*
X177493000Y-51514000I0J-175000D01*
G01*
G37*
G36*
G01*
X177493000Y-52784000D02*
X177493000Y-53134000D01*
G75*
G02*
X177318000Y-53309000I-175000J0D01*
G01*
X175618000Y-53309000D01*
G75*
G02*
X175443000Y-53134000I0J175000D01*
G01*
X175443000Y-52784000D01*
G75*
G02*
X175618000Y-52609000I175000J0D01*
G01*
X177318000Y-52609000D01*
G75*
G02*
X177493000Y-52784000I0J-175000D01*
G01*
G37*
G36*
G01*
X182443000Y-52784000D02*
X182443000Y-53134000D01*
G75*
G02*
X182268000Y-53309000I-175000J0D01*
G01*
X180568000Y-53309000D01*
G75*
G02*
X180393000Y-53134000I0J175000D01*
G01*
X180393000Y-52784000D01*
G75*
G02*
X180568000Y-52609000I175000J0D01*
G01*
X182268000Y-52609000D01*
G75*
G02*
X182443000Y-52784000I0J-175000D01*
G01*
G37*
G36*
G01*
X182443000Y-51514000D02*
X182443000Y-51864000D01*
G75*
G02*
X182268000Y-52039000I-175000J0D01*
G01*
X180568000Y-52039000D01*
G75*
G02*
X180393000Y-51864000I0J175000D01*
G01*
X180393000Y-51514000D01*
G75*
G02*
X180568000Y-51339000I175000J0D01*
G01*
X182268000Y-51339000D01*
G75*
G02*
X182443000Y-51514000I0J-175000D01*
G01*
G37*
G36*
G01*
X182443000Y-50244000D02*
X182443000Y-50594000D01*
G75*
G02*
X182268000Y-50769000I-175000J0D01*
G01*
X180568000Y-50769000D01*
G75*
G02*
X180393000Y-50594000I0J175000D01*
G01*
X180393000Y-50244000D01*
G75*
G02*
X180568000Y-50069000I175000J0D01*
G01*
X182268000Y-50069000D01*
G75*
G02*
X182443000Y-50244000I0J-175000D01*
G01*
G37*
G36*
G01*
X182443000Y-48974000D02*
X182443000Y-49324000D01*
G75*
G02*
X182268000Y-49499000I-175000J0D01*
G01*
X180568000Y-49499000D01*
G75*
G02*
X180393000Y-49324000I0J175000D01*
G01*
X180393000Y-48974000D01*
G75*
G02*
X180568000Y-48799000I175000J0D01*
G01*
X182268000Y-48799000D01*
G75*
G02*
X182443000Y-48974000I0J-175000D01*
G01*
G37*
G36*
G01*
X136218000Y-48974000D02*
X136218000Y-49324000D01*
G75*
G02*
X136043000Y-49499000I-175000J0D01*
G01*
X134343000Y-49499000D01*
G75*
G02*
X134168000Y-49324000I0J175000D01*
G01*
X134168000Y-48974000D01*
G75*
G02*
X134343000Y-48799000I175000J0D01*
G01*
X136043000Y-48799000D01*
G75*
G02*
X136218000Y-48974000I0J-175000D01*
G01*
G37*
G36*
G01*
X136218000Y-50244000D02*
X136218000Y-50594000D01*
G75*
G02*
X136043000Y-50769000I-175000J0D01*
G01*
X134343000Y-50769000D01*
G75*
G02*
X134168000Y-50594000I0J175000D01*
G01*
X134168000Y-50244000D01*
G75*
G02*
X134343000Y-50069000I175000J0D01*
G01*
X136043000Y-50069000D01*
G75*
G02*
X136218000Y-50244000I0J-175000D01*
G01*
G37*
G36*
G01*
X136218000Y-51514000D02*
X136218000Y-51864000D01*
G75*
G02*
X136043000Y-52039000I-175000J0D01*
G01*
X134343000Y-52039000D01*
G75*
G02*
X134168000Y-51864000I0J175000D01*
G01*
X134168000Y-51514000D01*
G75*
G02*
X134343000Y-51339000I175000J0D01*
G01*
X136043000Y-51339000D01*
G75*
G02*
X136218000Y-51514000I0J-175000D01*
G01*
G37*
G36*
G01*
X136218000Y-52784000D02*
X136218000Y-53134000D01*
G75*
G02*
X136043000Y-53309000I-175000J0D01*
G01*
X134343000Y-53309000D01*
G75*
G02*
X134168000Y-53134000I0J175000D01*
G01*
X134168000Y-52784000D01*
G75*
G02*
X134343000Y-52609000I175000J0D01*
G01*
X136043000Y-52609000D01*
G75*
G02*
X136218000Y-52784000I0J-175000D01*
G01*
G37*
G36*
G01*
X141168000Y-52784000D02*
X141168000Y-53134000D01*
G75*
G02*
X140993000Y-53309000I-175000J0D01*
G01*
X139293000Y-53309000D01*
G75*
G02*
X139118000Y-53134000I0J175000D01*
G01*
X139118000Y-52784000D01*
G75*
G02*
X139293000Y-52609000I175000J0D01*
G01*
X140993000Y-52609000D01*
G75*
G02*
X141168000Y-52784000I0J-175000D01*
G01*
G37*
G36*
G01*
X141168000Y-51514000D02*
X141168000Y-51864000D01*
G75*
G02*
X140993000Y-52039000I-175000J0D01*
G01*
X139293000Y-52039000D01*
G75*
G02*
X139118000Y-51864000I0J175000D01*
G01*
X139118000Y-51514000D01*
G75*
G02*
X139293000Y-51339000I175000J0D01*
G01*
X140993000Y-51339000D01*
G75*
G02*
X141168000Y-51514000I0J-175000D01*
G01*
G37*
G36*
G01*
X141168000Y-50244000D02*
X141168000Y-50594000D01*
G75*
G02*
X140993000Y-50769000I-175000J0D01*
G01*
X139293000Y-50769000D01*
G75*
G02*
X139118000Y-50594000I0J175000D01*
G01*
X139118000Y-50244000D01*
G75*
G02*
X139293000Y-50069000I175000J0D01*
G01*
X140993000Y-50069000D01*
G75*
G02*
X141168000Y-50244000I0J-175000D01*
G01*
G37*
G36*
G01*
X141168000Y-48974000D02*
X141168000Y-49324000D01*
G75*
G02*
X140993000Y-49499000I-175000J0D01*
G01*
X139293000Y-49499000D01*
G75*
G02*
X139118000Y-49324000I0J175000D01*
G01*
X139118000Y-48974000D01*
G75*
G02*
X139293000Y-48799000I175000J0D01*
G01*
X140993000Y-48799000D01*
G75*
G02*
X141168000Y-48974000I0J-175000D01*
G01*
G37*
G36*
G01*
X106733000Y-125270000D02*
X106733000Y-124920000D01*
G75*
G02*
X106908000Y-124745000I175000J0D01*
G01*
X108608000Y-124745000D01*
G75*
G02*
X108783000Y-124920000I0J-175000D01*
G01*
X108783000Y-125270000D01*
G75*
G02*
X108608000Y-125445000I-175000J0D01*
G01*
X106908000Y-125445000D01*
G75*
G02*
X106733000Y-125270000I0J175000D01*
G01*
G37*
G36*
G01*
X106733000Y-124000000D02*
X106733000Y-123650000D01*
G75*
G02*
X106908000Y-123475000I175000J0D01*
G01*
X108608000Y-123475000D01*
G75*
G02*
X108783000Y-123650000I0J-175000D01*
G01*
X108783000Y-124000000D01*
G75*
G02*
X108608000Y-124175000I-175000J0D01*
G01*
X106908000Y-124175000D01*
G75*
G02*
X106733000Y-124000000I0J175000D01*
G01*
G37*
G36*
G01*
X106733000Y-122730000D02*
X106733000Y-122380000D01*
G75*
G02*
X106908000Y-122205000I175000J0D01*
G01*
X108608000Y-122205000D01*
G75*
G02*
X108783000Y-122380000I0J-175000D01*
G01*
X108783000Y-122730000D01*
G75*
G02*
X108608000Y-122905000I-175000J0D01*
G01*
X106908000Y-122905000D01*
G75*
G02*
X106733000Y-122730000I0J175000D01*
G01*
G37*
G36*
G01*
X106733000Y-121460000D02*
X106733000Y-121110000D01*
G75*
G02*
X106908000Y-120935000I175000J0D01*
G01*
X108608000Y-120935000D01*
G75*
G02*
X108783000Y-121110000I0J-175000D01*
G01*
X108783000Y-121460000D01*
G75*
G02*
X108608000Y-121635000I-175000J0D01*
G01*
X106908000Y-121635000D01*
G75*
G02*
X106733000Y-121460000I0J175000D01*
G01*
G37*
G36*
G01*
X101783000Y-121460000D02*
X101783000Y-121110000D01*
G75*
G02*
X101958000Y-120935000I175000J0D01*
G01*
X103658000Y-120935000D01*
G75*
G02*
X103833000Y-121110000I0J-175000D01*
G01*
X103833000Y-121460000D01*
G75*
G02*
X103658000Y-121635000I-175000J0D01*
G01*
X101958000Y-121635000D01*
G75*
G02*
X101783000Y-121460000I0J175000D01*
G01*
G37*
G36*
G01*
X101783000Y-122730000D02*
X101783000Y-122380000D01*
G75*
G02*
X101958000Y-122205000I175000J0D01*
G01*
X103658000Y-122205000D01*
G75*
G02*
X103833000Y-122380000I0J-175000D01*
G01*
X103833000Y-122730000D01*
G75*
G02*
X103658000Y-122905000I-175000J0D01*
G01*
X101958000Y-122905000D01*
G75*
G02*
X101783000Y-122730000I0J175000D01*
G01*
G37*
G36*
G01*
X101783000Y-124000000D02*
X101783000Y-123650000D01*
G75*
G02*
X101958000Y-123475000I175000J0D01*
G01*
X103658000Y-123475000D01*
G75*
G02*
X103833000Y-123650000I0J-175000D01*
G01*
X103833000Y-124000000D01*
G75*
G02*
X103658000Y-124175000I-175000J0D01*
G01*
X101958000Y-124175000D01*
G75*
G02*
X101783000Y-124000000I0J175000D01*
G01*
G37*
G36*
G01*
X101783000Y-125270000D02*
X101783000Y-124920000D01*
G75*
G02*
X101958000Y-124745000I175000J0D01*
G01*
X103658000Y-124745000D01*
G75*
G02*
X103833000Y-124920000I0J-175000D01*
G01*
X103833000Y-125270000D01*
G75*
G02*
X103658000Y-125445000I-175000J0D01*
G01*
X101958000Y-125445000D01*
G75*
G02*
X101783000Y-125270000I0J175000D01*
G01*
G37*
G36*
G01*
X94562000Y-48974000D02*
X94562000Y-49324000D01*
G75*
G02*
X94387000Y-49499000I-175000J0D01*
G01*
X92687000Y-49499000D01*
G75*
G02*
X92512000Y-49324000I0J175000D01*
G01*
X92512000Y-48974000D01*
G75*
G02*
X92687000Y-48799000I175000J0D01*
G01*
X94387000Y-48799000D01*
G75*
G02*
X94562000Y-48974000I0J-175000D01*
G01*
G37*
G36*
G01*
X94562000Y-50244000D02*
X94562000Y-50594000D01*
G75*
G02*
X94387000Y-50769000I-175000J0D01*
G01*
X92687000Y-50769000D01*
G75*
G02*
X92512000Y-50594000I0J175000D01*
G01*
X92512000Y-50244000D01*
G75*
G02*
X92687000Y-50069000I175000J0D01*
G01*
X94387000Y-50069000D01*
G75*
G02*
X94562000Y-50244000I0J-175000D01*
G01*
G37*
G36*
G01*
X94562000Y-51514000D02*
X94562000Y-51864000D01*
G75*
G02*
X94387000Y-52039000I-175000J0D01*
G01*
X92687000Y-52039000D01*
G75*
G02*
X92512000Y-51864000I0J175000D01*
G01*
X92512000Y-51514000D01*
G75*
G02*
X92687000Y-51339000I175000J0D01*
G01*
X94387000Y-51339000D01*
G75*
G02*
X94562000Y-51514000I0J-175000D01*
G01*
G37*
G36*
G01*
X94562000Y-52784000D02*
X94562000Y-53134000D01*
G75*
G02*
X94387000Y-53309000I-175000J0D01*
G01*
X92687000Y-53309000D01*
G75*
G02*
X92512000Y-53134000I0J175000D01*
G01*
X92512000Y-52784000D01*
G75*
G02*
X92687000Y-52609000I175000J0D01*
G01*
X94387000Y-52609000D01*
G75*
G02*
X94562000Y-52784000I0J-175000D01*
G01*
G37*
G36*
G01*
X99512000Y-52784000D02*
X99512000Y-53134000D01*
G75*
G02*
X99337000Y-53309000I-175000J0D01*
G01*
X97637000Y-53309000D01*
G75*
G02*
X97462000Y-53134000I0J175000D01*
G01*
X97462000Y-52784000D01*
G75*
G02*
X97637000Y-52609000I175000J0D01*
G01*
X99337000Y-52609000D01*
G75*
G02*
X99512000Y-52784000I0J-175000D01*
G01*
G37*
G36*
G01*
X99512000Y-51514000D02*
X99512000Y-51864000D01*
G75*
G02*
X99337000Y-52039000I-175000J0D01*
G01*
X97637000Y-52039000D01*
G75*
G02*
X97462000Y-51864000I0J175000D01*
G01*
X97462000Y-51514000D01*
G75*
G02*
X97637000Y-51339000I175000J0D01*
G01*
X99337000Y-51339000D01*
G75*
G02*
X99512000Y-51514000I0J-175000D01*
G01*
G37*
G36*
G01*
X99512000Y-50244000D02*
X99512000Y-50594000D01*
G75*
G02*
X99337000Y-50769000I-175000J0D01*
G01*
X97637000Y-50769000D01*
G75*
G02*
X97462000Y-50594000I0J175000D01*
G01*
X97462000Y-50244000D01*
G75*
G02*
X97637000Y-50069000I175000J0D01*
G01*
X99337000Y-50069000D01*
G75*
G02*
X99512000Y-50244000I0J-175000D01*
G01*
G37*
G36*
G01*
X99512000Y-48974000D02*
X99512000Y-49324000D01*
G75*
G02*
X99337000Y-49499000I-175000J0D01*
G01*
X97637000Y-49499000D01*
G75*
G02*
X97462000Y-49324000I0J175000D01*
G01*
X97462000Y-48974000D01*
G75*
G02*
X97637000Y-48799000I175000J0D01*
G01*
X99337000Y-48799000D01*
G75*
G02*
X99512000Y-48974000I0J-175000D01*
G01*
G37*
G36*
G01*
X186281750Y-118664000D02*
X186844250Y-118664000D01*
G75*
G02*
X187088000Y-118907750I0J-243750D01*
G01*
X187088000Y-119395250D01*
G75*
G02*
X186844250Y-119639000I-243750J0D01*
G01*
X186281750Y-119639000D01*
G75*
G02*
X186038000Y-119395250I0J243750D01*
G01*
X186038000Y-118907750D01*
G75*
G02*
X186281750Y-118664000I243750J0D01*
G01*
G37*
G36*
G01*
X186281750Y-117089000D02*
X186844250Y-117089000D01*
G75*
G02*
X187088000Y-117332750I0J-243750D01*
G01*
X187088000Y-117820250D01*
G75*
G02*
X186844250Y-118064000I-243750J0D01*
G01*
X186281750Y-118064000D01*
G75*
G02*
X186038000Y-117820250I0J243750D01*
G01*
X186038000Y-117332750D01*
G75*
G02*
X186281750Y-117089000I243750J0D01*
G01*
G37*
G36*
G01*
X194473250Y-126157000D02*
X195035750Y-126157000D01*
G75*
G02*
X195279500Y-126400750I0J-243750D01*
G01*
X195279500Y-126888250D01*
G75*
G02*
X195035750Y-127132000I-243750J0D01*
G01*
X194473250Y-127132000D01*
G75*
G02*
X194229500Y-126888250I0J243750D01*
G01*
X194229500Y-126400750D01*
G75*
G02*
X194473250Y-126157000I243750J0D01*
G01*
G37*
G36*
G01*
X194473250Y-124582000D02*
X195035750Y-124582000D01*
G75*
G02*
X195279500Y-124825750I0J-243750D01*
G01*
X195279500Y-125313250D01*
G75*
G02*
X195035750Y-125557000I-243750J0D01*
G01*
X194473250Y-125557000D01*
G75*
G02*
X194229500Y-125313250I0J243750D01*
G01*
X194229500Y-124825750D01*
G75*
G02*
X194473250Y-124582000I243750J0D01*
G01*
G37*
G36*
G01*
X101953750Y-118537000D02*
X102516250Y-118537000D01*
G75*
G02*
X102760000Y-118780750I0J-243750D01*
G01*
X102760000Y-119268250D01*
G75*
G02*
X102516250Y-119512000I-243750J0D01*
G01*
X101953750Y-119512000D01*
G75*
G02*
X101710000Y-119268250I0J243750D01*
G01*
X101710000Y-118780750D01*
G75*
G02*
X101953750Y-118537000I243750J0D01*
G01*
G37*
G36*
G01*
X101953750Y-116962000D02*
X102516250Y-116962000D01*
G75*
G02*
X102760000Y-117205750I0J-243750D01*
G01*
X102760000Y-117693250D01*
G75*
G02*
X102516250Y-117937000I-243750J0D01*
G01*
X101953750Y-117937000D01*
G75*
G02*
X101710000Y-117693250I0J243750D01*
G01*
X101710000Y-117205750D01*
G75*
G02*
X101953750Y-116962000I243750J0D01*
G01*
G37*
G36*
G01*
X110589750Y-126411000D02*
X111152250Y-126411000D01*
G75*
G02*
X111396000Y-126654750I0J-243750D01*
G01*
X111396000Y-127142250D01*
G75*
G02*
X111152250Y-127386000I-243750J0D01*
G01*
X110589750Y-127386000D01*
G75*
G02*
X110346000Y-127142250I0J243750D01*
G01*
X110346000Y-126654750D01*
G75*
G02*
X110589750Y-126411000I243750J0D01*
G01*
G37*
G36*
G01*
X110589750Y-124836000D02*
X111152250Y-124836000D01*
G75*
G02*
X111396000Y-125079750I0J-243750D01*
G01*
X111396000Y-125567250D01*
G75*
G02*
X111152250Y-125811000I-243750J0D01*
G01*
X110589750Y-125811000D01*
G75*
G02*
X110346000Y-125567250I0J243750D01*
G01*
X110346000Y-125079750D01*
G75*
G02*
X110589750Y-124836000I243750J0D01*
G01*
G37*
G36*
G01*
X192250750Y-127935000D02*
X192813250Y-127935000D01*
G75*
G02*
X193057000Y-128178750I0J-243750D01*
G01*
X193057000Y-128666250D01*
G75*
G02*
X192813250Y-128910000I-243750J0D01*
G01*
X192250750Y-128910000D01*
G75*
G02*
X192007000Y-128666250I0J243750D01*
G01*
X192007000Y-128178750D01*
G75*
G02*
X192250750Y-127935000I243750J0D01*
G01*
G37*
G36*
G01*
X192250750Y-126360000D02*
X192813250Y-126360000D01*
G75*
G02*
X193057000Y-126603750I0J-243750D01*
G01*
X193057000Y-127091250D01*
G75*
G02*
X192813250Y-127335000I-243750J0D01*
G01*
X192250750Y-127335000D01*
G75*
G02*
X192007000Y-127091250I0J243750D01*
G01*
X192007000Y-126603750D01*
G75*
G02*
X192250750Y-126360000I243750J0D01*
G01*
G37*
G36*
G01*
X179859250Y-122610500D02*
X179296750Y-122610500D01*
G75*
G02*
X179053000Y-122366750I0J243750D01*
G01*
X179053000Y-121879250D01*
G75*
G02*
X179296750Y-121635500I243750J0D01*
G01*
X179859250Y-121635500D01*
G75*
G02*
X180103000Y-121879250I0J-243750D01*
G01*
X180103000Y-122366750D01*
G75*
G02*
X179859250Y-122610500I-243750J0D01*
G01*
G37*
G36*
G01*
X179859250Y-124185500D02*
X179296750Y-124185500D01*
G75*
G02*
X179053000Y-123941750I0J243750D01*
G01*
X179053000Y-123454250D01*
G75*
G02*
X179296750Y-123210500I243750J0D01*
G01*
X179859250Y-123210500D01*
G75*
G02*
X180103000Y-123454250I0J-243750D01*
G01*
X180103000Y-123941750D01*
G75*
G02*
X179859250Y-124185500I-243750J0D01*
G01*
G37*
G36*
G01*
X107922750Y-127935000D02*
X108485250Y-127935000D01*
G75*
G02*
X108729000Y-128178750I0J-243750D01*
G01*
X108729000Y-128666250D01*
G75*
G02*
X108485250Y-128910000I-243750J0D01*
G01*
X107922750Y-128910000D01*
G75*
G02*
X107679000Y-128666250I0J243750D01*
G01*
X107679000Y-128178750D01*
G75*
G02*
X107922750Y-127935000I243750J0D01*
G01*
G37*
G36*
G01*
X107922750Y-126360000D02*
X108485250Y-126360000D01*
G75*
G02*
X108729000Y-126603750I0J-243750D01*
G01*
X108729000Y-127091250D01*
G75*
G02*
X108485250Y-127335000I-243750J0D01*
G01*
X107922750Y-127335000D01*
G75*
G02*
X107679000Y-127091250I0J243750D01*
G01*
X107679000Y-126603750D01*
G75*
G02*
X107922750Y-126360000I243750J0D01*
G01*
G37*
G36*
G01*
X97944250Y-120985000D02*
X97381750Y-120985000D01*
G75*
G02*
X97138000Y-120741250I0J243750D01*
G01*
X97138000Y-120253750D01*
G75*
G02*
X97381750Y-120010000I243750J0D01*
G01*
X97944250Y-120010000D01*
G75*
G02*
X98188000Y-120253750I0J-243750D01*
G01*
X98188000Y-120741250D01*
G75*
G02*
X97944250Y-120985000I-243750J0D01*
G01*
G37*
G36*
G01*
X97944250Y-122560000D02*
X97381750Y-122560000D01*
G75*
G02*
X97138000Y-122316250I0J243750D01*
G01*
X97138000Y-121828750D01*
G75*
G02*
X97381750Y-121585000I243750J0D01*
G01*
X97944250Y-121585000D01*
G75*
G02*
X98188000Y-121828750I0J-243750D01*
G01*
X98188000Y-122316250D01*
G75*
G02*
X97944250Y-122560000I-243750J0D01*
G01*
G37*
D10*
X74804000Y-132207000D03*
X78104000Y-132207000D03*
X78104000Y-135255000D03*
X74804000Y-135255000D03*
D11*
X89790000Y-107702500D03*
X85090000Y-107702500D03*
D12*
X80390000Y-107702500D03*
D11*
X130938000Y-107702500D03*
X126238000Y-107702500D03*
D12*
X121538000Y-107702500D03*
D11*
X173229000Y-107702500D03*
X168529000Y-107702500D03*
D12*
X163829000Y-107702500D03*
D11*
X215139000Y-107702500D03*
X210439000Y-107702500D03*
D12*
X205739000Y-107702500D03*
D13*
X221909000Y-100584000D03*
D14*
X224409000Y-100584000D03*
D13*
X179999000Y-100457000D03*
D14*
X182499000Y-100457000D03*
D13*
X137835000Y-100584000D03*
D14*
X140335000Y-100584000D03*
D13*
X96560000Y-100838000D03*
D14*
X99060000Y-100838000D03*
D13*
X68493000Y-122682000D03*
D14*
X70993000Y-122682000D03*
D13*
X71795000Y-116078000D03*
D14*
X74295000Y-116078000D03*
G36*
G01*
X195035750Y-122318500D02*
X194473250Y-122318500D01*
G75*
G02*
X194229500Y-122074750I0J243750D01*
G01*
X194229500Y-121587250D01*
G75*
G02*
X194473250Y-121343500I243750J0D01*
G01*
X195035750Y-121343500D01*
G75*
G02*
X195279500Y-121587250I0J-243750D01*
G01*
X195279500Y-122074750D01*
G75*
G02*
X195035750Y-122318500I-243750J0D01*
G01*
G37*
G36*
G01*
X195035750Y-123893500D02*
X194473250Y-123893500D01*
G75*
G02*
X194229500Y-123649750I0J243750D01*
G01*
X194229500Y-123162250D01*
G75*
G02*
X194473250Y-122918500I243750J0D01*
G01*
X195035750Y-122918500D01*
G75*
G02*
X195279500Y-123162250I0J-243750D01*
G01*
X195279500Y-123649750D01*
G75*
G02*
X195035750Y-123893500I-243750J0D01*
G01*
G37*
G36*
G01*
X184050250Y-124731500D02*
X183487750Y-124731500D01*
G75*
G02*
X183244000Y-124487750I0J243750D01*
G01*
X183244000Y-124000250D01*
G75*
G02*
X183487750Y-123756500I243750J0D01*
G01*
X184050250Y-123756500D01*
G75*
G02*
X184294000Y-124000250I0J-243750D01*
G01*
X184294000Y-124487750D01*
G75*
G02*
X184050250Y-124731500I-243750J0D01*
G01*
G37*
G36*
G01*
X184050250Y-126306500D02*
X183487750Y-126306500D01*
G75*
G02*
X183244000Y-126062750I0J243750D01*
G01*
X183244000Y-125575250D01*
G75*
G02*
X183487750Y-125331500I243750J0D01*
G01*
X184050250Y-125331500D01*
G75*
G02*
X184294000Y-125575250I0J-243750D01*
G01*
X184294000Y-126062750D01*
G75*
G02*
X184050250Y-126306500I-243750J0D01*
G01*
G37*
G36*
G01*
X111152250Y-122382000D02*
X110589750Y-122382000D01*
G75*
G02*
X110346000Y-122138250I0J243750D01*
G01*
X110346000Y-121650750D01*
G75*
G02*
X110589750Y-121407000I243750J0D01*
G01*
X111152250Y-121407000D01*
G75*
G02*
X111396000Y-121650750I0J-243750D01*
G01*
X111396000Y-122138250D01*
G75*
G02*
X111152250Y-122382000I-243750J0D01*
G01*
G37*
G36*
G01*
X111152250Y-123957000D02*
X110589750Y-123957000D01*
G75*
G02*
X110346000Y-123713250I0J243750D01*
G01*
X110346000Y-123225750D01*
G75*
G02*
X110589750Y-122982000I243750J0D01*
G01*
X111152250Y-122982000D01*
G75*
G02*
X111396000Y-123225750I0J-243750D01*
G01*
X111396000Y-123713250D01*
G75*
G02*
X111152250Y-123957000I-243750J0D01*
G01*
G37*
G36*
G01*
X99976250Y-124541000D02*
X99413750Y-124541000D01*
G75*
G02*
X99170000Y-124297250I0J243750D01*
G01*
X99170000Y-123809750D01*
G75*
G02*
X99413750Y-123566000I243750J0D01*
G01*
X99976250Y-123566000D01*
G75*
G02*
X100220000Y-123809750I0J-243750D01*
G01*
X100220000Y-124297250D01*
G75*
G02*
X99976250Y-124541000I-243750J0D01*
G01*
G37*
G36*
G01*
X99976250Y-126116000D02*
X99413750Y-126116000D01*
G75*
G02*
X99170000Y-125872250I0J243750D01*
G01*
X99170000Y-125384750D01*
G75*
G02*
X99413750Y-125141000I243750J0D01*
G01*
X99976250Y-125141000D01*
G75*
G02*
X100220000Y-125384750I0J-243750D01*
G01*
X100220000Y-125872250D01*
G75*
G02*
X99976250Y-126116000I-243750J0D01*
G01*
G37*
G36*
G01*
X192250750Y-131491000D02*
X192813250Y-131491000D01*
G75*
G02*
X193057000Y-131734750I0J-243750D01*
G01*
X193057000Y-132222250D01*
G75*
G02*
X192813250Y-132466000I-243750J0D01*
G01*
X192250750Y-132466000D01*
G75*
G02*
X192007000Y-132222250I0J243750D01*
G01*
X192007000Y-131734750D01*
G75*
G02*
X192250750Y-131491000I243750J0D01*
G01*
G37*
G36*
G01*
X192250750Y-129916000D02*
X192813250Y-129916000D01*
G75*
G02*
X193057000Y-130159750I0J-243750D01*
G01*
X193057000Y-130647250D01*
G75*
G02*
X192813250Y-130891000I-243750J0D01*
G01*
X192250750Y-130891000D01*
G75*
G02*
X192007000Y-130647250I0J243750D01*
G01*
X192007000Y-130159750D01*
G75*
G02*
X192250750Y-129916000I243750J0D01*
G01*
G37*
G36*
G01*
X182081750Y-120921500D02*
X181519250Y-120921500D01*
G75*
G02*
X181275500Y-120677750I0J243750D01*
G01*
X181275500Y-120190250D01*
G75*
G02*
X181519250Y-119946500I243750J0D01*
G01*
X182081750Y-119946500D01*
G75*
G02*
X182325500Y-120190250I0J-243750D01*
G01*
X182325500Y-120677750D01*
G75*
G02*
X182081750Y-120921500I-243750J0D01*
G01*
G37*
G36*
G01*
X182081750Y-122496500D02*
X181519250Y-122496500D01*
G75*
G02*
X181275500Y-122252750I0J243750D01*
G01*
X181275500Y-121765250D01*
G75*
G02*
X181519250Y-121521500I243750J0D01*
G01*
X182081750Y-121521500D01*
G75*
G02*
X182325500Y-121765250I0J-243750D01*
G01*
X182325500Y-122252750D01*
G75*
G02*
X182081750Y-122496500I-243750J0D01*
G01*
G37*
G36*
G01*
X107986250Y-131427500D02*
X108548750Y-131427500D01*
G75*
G02*
X108792500Y-131671250I0J-243750D01*
G01*
X108792500Y-132158750D01*
G75*
G02*
X108548750Y-132402500I-243750J0D01*
G01*
X107986250Y-132402500D01*
G75*
G02*
X107742500Y-132158750I0J243750D01*
G01*
X107742500Y-131671250D01*
G75*
G02*
X107986250Y-131427500I243750J0D01*
G01*
G37*
G36*
G01*
X107986250Y-129852500D02*
X108548750Y-129852500D01*
G75*
G02*
X108792500Y-130096250I0J-243750D01*
G01*
X108792500Y-130583750D01*
G75*
G02*
X108548750Y-130827500I-243750J0D01*
G01*
X107986250Y-130827500D01*
G75*
G02*
X107742500Y-130583750I0J243750D01*
G01*
X107742500Y-130096250D01*
G75*
G02*
X107986250Y-129852500I243750J0D01*
G01*
G37*
G36*
G01*
X192749750Y-118064000D02*
X192187250Y-118064000D01*
G75*
G02*
X191943500Y-117820250I0J243750D01*
G01*
X191943500Y-117332750D01*
G75*
G02*
X192187250Y-117089000I243750J0D01*
G01*
X192749750Y-117089000D01*
G75*
G02*
X192993500Y-117332750I0J-243750D01*
G01*
X192993500Y-117820250D01*
G75*
G02*
X192749750Y-118064000I-243750J0D01*
G01*
G37*
G36*
G01*
X192749750Y-119639000D02*
X192187250Y-119639000D01*
G75*
G02*
X191943500Y-119395250I0J243750D01*
G01*
X191943500Y-118907750D01*
G75*
G02*
X192187250Y-118664000I243750J0D01*
G01*
X192749750Y-118664000D01*
G75*
G02*
X192993500Y-118907750I0J-243750D01*
G01*
X192993500Y-119395250D01*
G75*
G02*
X192749750Y-119639000I-243750J0D01*
G01*
G37*
G36*
G01*
X184050250Y-120921500D02*
X183487750Y-120921500D01*
G75*
G02*
X183244000Y-120677750I0J243750D01*
G01*
X183244000Y-120190250D01*
G75*
G02*
X183487750Y-119946500I243750J0D01*
G01*
X184050250Y-119946500D01*
G75*
G02*
X184294000Y-120190250I0J-243750D01*
G01*
X184294000Y-120677750D01*
G75*
G02*
X184050250Y-120921500I-243750J0D01*
G01*
G37*
G36*
G01*
X184050250Y-122496500D02*
X183487750Y-122496500D01*
G75*
G02*
X183244000Y-122252750I0J243750D01*
G01*
X183244000Y-121765250D01*
G75*
G02*
X183487750Y-121521500I243750J0D01*
G01*
X184050250Y-121521500D01*
G75*
G02*
X184294000Y-121765250I0J-243750D01*
G01*
X184294000Y-122252750D01*
G75*
G02*
X184050250Y-122496500I-243750J0D01*
G01*
G37*
G36*
G01*
X108993250Y-117937000D02*
X108430750Y-117937000D01*
G75*
G02*
X108187000Y-117693250I0J243750D01*
G01*
X108187000Y-117205750D01*
G75*
G02*
X108430750Y-116962000I243750J0D01*
G01*
X108993250Y-116962000D01*
G75*
G02*
X109237000Y-117205750I0J-243750D01*
G01*
X109237000Y-117693250D01*
G75*
G02*
X108993250Y-117937000I-243750J0D01*
G01*
G37*
G36*
G01*
X108993250Y-119512000D02*
X108430750Y-119512000D01*
G75*
G02*
X108187000Y-119268250I0J243750D01*
G01*
X108187000Y-118780750D01*
G75*
G02*
X108430750Y-118537000I243750J0D01*
G01*
X108993250Y-118537000D01*
G75*
G02*
X109237000Y-118780750I0J-243750D01*
G01*
X109237000Y-119268250D01*
G75*
G02*
X108993250Y-119512000I-243750J0D01*
G01*
G37*
G36*
G01*
X99976250Y-120985000D02*
X99413750Y-120985000D01*
G75*
G02*
X99170000Y-120741250I0J243750D01*
G01*
X99170000Y-120253750D01*
G75*
G02*
X99413750Y-120010000I243750J0D01*
G01*
X99976250Y-120010000D01*
G75*
G02*
X100220000Y-120253750I0J-243750D01*
G01*
X100220000Y-120741250D01*
G75*
G02*
X99976250Y-120985000I-243750J0D01*
G01*
G37*
G36*
G01*
X99976250Y-122560000D02*
X99413750Y-122560000D01*
G75*
G02*
X99170000Y-122316250I0J243750D01*
G01*
X99170000Y-121828750D01*
G75*
G02*
X99413750Y-121585000I243750J0D01*
G01*
X99976250Y-121585000D01*
G75*
G02*
X100220000Y-121828750I0J-243750D01*
G01*
X100220000Y-122316250D01*
G75*
G02*
X99976250Y-122560000I-243750J0D01*
G01*
G37*
D15*
X126153333Y-48260000D03*
X126153333Y-96520000D03*
X124883333Y-93980000D03*
X127423333Y-93980000D03*
X128693333Y-99060000D03*
X126153333Y-99060000D03*
D16*
X123613333Y-99060000D03*
D15*
X85090000Y-48260000D03*
X85090000Y-96520000D03*
X83820000Y-93980000D03*
X86360000Y-93980000D03*
X87630000Y-99060000D03*
X85090000Y-99060000D03*
D16*
X82550000Y-99060000D03*
D15*
X210550000Y-48260000D03*
X210550000Y-96520000D03*
X209280000Y-93980000D03*
X211820000Y-93980000D03*
X213090000Y-99060000D03*
X210550000Y-99060000D03*
D16*
X208010000Y-99060000D03*
D15*
X168486666Y-48260000D03*
X168486666Y-96520000D03*
X167216666Y-93980000D03*
X169756666Y-93980000D03*
X171026666Y-99060000D03*
X168486666Y-99060000D03*
D16*
X165946666Y-99060000D03*
D17*
X197380000Y-64650000D03*
X199880000Y-64650000D03*
X202380000Y-64650000D03*
D18*
X195080000Y-57150000D03*
X204680000Y-57150000D03*
D17*
X154980000Y-64650000D03*
X157480000Y-64650000D03*
X159980000Y-64650000D03*
D18*
X152680000Y-57150000D03*
X162280000Y-57150000D03*
D17*
X113070000Y-64650000D03*
X115570000Y-64650000D03*
X118070000Y-64650000D03*
D18*
X110770000Y-57150000D03*
X120370000Y-57150000D03*
D17*
X71922000Y-64650000D03*
X74422000Y-64650000D03*
X76922000Y-64650000D03*
D18*
X69622000Y-57150000D03*
X79222000Y-57150000D03*
D17*
X197380000Y-88780000D03*
X199880000Y-88780000D03*
X202380000Y-88780000D03*
D18*
X195080000Y-81280000D03*
X204680000Y-81280000D03*
D17*
X154980000Y-88780000D03*
X157480000Y-88780000D03*
X159980000Y-88780000D03*
D18*
X152680000Y-81280000D03*
X162280000Y-81280000D03*
D17*
X113070000Y-88780000D03*
X115570000Y-88780000D03*
X118070000Y-88780000D03*
D18*
X110770000Y-81280000D03*
X120370000Y-81280000D03*
D17*
X71922000Y-88780000D03*
X74422000Y-88780000D03*
X76922000Y-88780000D03*
D18*
X69622000Y-81280000D03*
X79222000Y-81280000D03*
D17*
X218226000Y-64840500D03*
X220726000Y-64840500D03*
X223226000Y-64840500D03*
D18*
X215926000Y-57340500D03*
X225526000Y-57340500D03*
D17*
X176570000Y-64650000D03*
X179070000Y-64650000D03*
X181570000Y-64650000D03*
D18*
X174270000Y-57150000D03*
X183870000Y-57150000D03*
D17*
X134660000Y-64650000D03*
X137160000Y-64650000D03*
X139660000Y-64650000D03*
D18*
X132360000Y-57150000D03*
X141960000Y-57150000D03*
D17*
X93131000Y-64650000D03*
X95631000Y-64650000D03*
X98131000Y-64650000D03*
D18*
X90831000Y-57150000D03*
X100431000Y-57150000D03*
D17*
X218480000Y-88780000D03*
X220980000Y-88780000D03*
X223480000Y-88780000D03*
D18*
X216180000Y-81280000D03*
X225780000Y-81280000D03*
D17*
X176570000Y-88780000D03*
X179070000Y-88780000D03*
X181570000Y-88780000D03*
D18*
X174270000Y-81280000D03*
X183870000Y-81280000D03*
D17*
X134660000Y-88780000D03*
X137160000Y-88780000D03*
X139660000Y-88780000D03*
D18*
X132360000Y-81280000D03*
X141960000Y-81280000D03*
D17*
X93131000Y-88780000D03*
X95631000Y-88780000D03*
X98131000Y-88780000D03*
D18*
X90831000Y-81280000D03*
X100431000Y-81280000D03*
D15*
X215389000Y-138430000D03*
X203989000Y-138430000D03*
X207089000Y-138430000D03*
X173449000Y-138430000D03*
X162049000Y-138430000D03*
X165149000Y-138430000D03*
X131158000Y-138430000D03*
X119758000Y-138430000D03*
X122858000Y-138430000D03*
X90010000Y-138430000D03*
X78610000Y-138430000D03*
X81710000Y-138430000D03*
X215389000Y-118110000D03*
X203989000Y-118110000D03*
X207089000Y-118110000D03*
X173449000Y-118110000D03*
X162049000Y-118110000D03*
X165149000Y-118110000D03*
X131158000Y-118110000D03*
X119758000Y-118110000D03*
X122858000Y-118110000D03*
X90010000Y-118110000D03*
X78610000Y-118110000D03*
X81710000Y-118110000D03*
X215389000Y-128270000D03*
X203989000Y-128270000D03*
X207089000Y-128270000D03*
X173449000Y-128270000D03*
X162049000Y-128270000D03*
X165149000Y-128270000D03*
X131158000Y-128270000D03*
X119758000Y-128270000D03*
X122858000Y-128270000D03*
X90010000Y-128270000D03*
X78610000Y-128270000D03*
X81710000Y-128270000D03*
G36*
G01*
X173382250Y-50881000D02*
X172819750Y-50881000D01*
G75*
G02*
X172576000Y-50637250I0J243750D01*
G01*
X172576000Y-50149750D01*
G75*
G02*
X172819750Y-49906000I243750J0D01*
G01*
X173382250Y-49906000D01*
G75*
G02*
X173626000Y-50149750I0J-243750D01*
G01*
X173626000Y-50637250D01*
G75*
G02*
X173382250Y-50881000I-243750J0D01*
G01*
G37*
G36*
G01*
X173382250Y-52456000D02*
X172819750Y-52456000D01*
G75*
G02*
X172576000Y-52212250I0J243750D01*
G01*
X172576000Y-51724750D01*
G75*
G02*
X172819750Y-51481000I243750J0D01*
G01*
X173382250Y-51481000D01*
G75*
G02*
X173626000Y-51724750I0J-243750D01*
G01*
X173626000Y-52212250D01*
G75*
G02*
X173382250Y-52456000I-243750J0D01*
G01*
G37*
G36*
G01*
X168755750Y-51544500D02*
X169318250Y-51544500D01*
G75*
G02*
X169562000Y-51788250I0J-243750D01*
G01*
X169562000Y-52275750D01*
G75*
G02*
X169318250Y-52519500I-243750J0D01*
G01*
X168755750Y-52519500D01*
G75*
G02*
X168512000Y-52275750I0J243750D01*
G01*
X168512000Y-51788250D01*
G75*
G02*
X168755750Y-51544500I243750J0D01*
G01*
G37*
G36*
G01*
X168755750Y-49969500D02*
X169318250Y-49969500D01*
G75*
G02*
X169562000Y-50213250I0J-243750D01*
G01*
X169562000Y-50700750D01*
G75*
G02*
X169318250Y-50944500I-243750J0D01*
G01*
X168755750Y-50944500D01*
G75*
G02*
X168512000Y-50700750I0J243750D01*
G01*
X168512000Y-50213250D01*
G75*
G02*
X168755750Y-49969500I243750J0D01*
G01*
G37*
D19*
X195199000Y-48260000D03*
X197739000Y-48260000D03*
X200279000Y-48260000D03*
X153289000Y-48260000D03*
X155829000Y-48260000D03*
X158369000Y-48260000D03*
X110998000Y-48260000D03*
X113538000Y-48260000D03*
X116078000Y-48260000D03*
X69850000Y-48260000D03*
X72390000Y-48260000D03*
X74930000Y-48260000D03*
X220599000Y-107950000D03*
X223139000Y-107950000D03*
X225679000Y-107950000D03*
X178689000Y-107950000D03*
X181229000Y-107950000D03*
X183769000Y-107950000D03*
X136398000Y-107950000D03*
X138938000Y-107950000D03*
X141478000Y-107950000D03*
X95250000Y-107950000D03*
X97790000Y-107950000D03*
X100330000Y-107950000D03*
X220599000Y-92710000D03*
X223139000Y-92710000D03*
X225679000Y-92710000D03*
X178689000Y-92710000D03*
X181229000Y-92710000D03*
X183769000Y-92710000D03*
X136398000Y-92710000D03*
X138938000Y-92710000D03*
X141478000Y-92710000D03*
X95250000Y-92710000D03*
X97790000Y-92710000D03*
X100330000Y-92710000D03*
X195199000Y-107950000D03*
X197739000Y-107950000D03*
X200279000Y-107950000D03*
X153289000Y-107950000D03*
X155829000Y-107950000D03*
X158369000Y-107950000D03*
X110998000Y-107950000D03*
X113538000Y-107950000D03*
X116078000Y-107950000D03*
X69850000Y-107950000D03*
X72390000Y-107950000D03*
X74930000Y-107950000D03*
G36*
G01*
X200877750Y-78948000D02*
X200315250Y-78948000D01*
G75*
G02*
X200071500Y-78704250I0J243750D01*
G01*
X200071500Y-78216750D01*
G75*
G02*
X200315250Y-77973000I243750J0D01*
G01*
X200877750Y-77973000D01*
G75*
G02*
X201121500Y-78216750I0J-243750D01*
G01*
X201121500Y-78704250D01*
G75*
G02*
X200877750Y-78948000I-243750J0D01*
G01*
G37*
G36*
G01*
X200877750Y-80523000D02*
X200315250Y-80523000D01*
G75*
G02*
X200071500Y-80279250I0J243750D01*
G01*
X200071500Y-79791750D01*
G75*
G02*
X200315250Y-79548000I243750J0D01*
G01*
X200877750Y-79548000D01*
G75*
G02*
X201121500Y-79791750I0J-243750D01*
G01*
X201121500Y-80279250D01*
G75*
G02*
X200877750Y-80523000I-243750J0D01*
G01*
G37*
G36*
G01*
X213323750Y-70947000D02*
X212761250Y-70947000D01*
G75*
G02*
X212517500Y-70703250I0J243750D01*
G01*
X212517500Y-70215750D01*
G75*
G02*
X212761250Y-69972000I243750J0D01*
G01*
X213323750Y-69972000D01*
G75*
G02*
X213567500Y-70215750I0J-243750D01*
G01*
X213567500Y-70703250D01*
G75*
G02*
X213323750Y-70947000I-243750J0D01*
G01*
G37*
G36*
G01*
X213323750Y-72522000D02*
X212761250Y-72522000D01*
G75*
G02*
X212517500Y-72278250I0J243750D01*
G01*
X212517500Y-71790750D01*
G75*
G02*
X212761250Y-71547000I243750J0D01*
G01*
X213323750Y-71547000D01*
G75*
G02*
X213567500Y-71790750I0J-243750D01*
G01*
X213567500Y-72278250D01*
G75*
G02*
X213323750Y-72522000I-243750J0D01*
G01*
G37*
G36*
G01*
X200315250Y-76055500D02*
X200877750Y-76055500D01*
G75*
G02*
X201121500Y-76299250I0J-243750D01*
G01*
X201121500Y-76786750D01*
G75*
G02*
X200877750Y-77030500I-243750J0D01*
G01*
X200315250Y-77030500D01*
G75*
G02*
X200071500Y-76786750I0J243750D01*
G01*
X200071500Y-76299250D01*
G75*
G02*
X200315250Y-76055500I243750J0D01*
G01*
G37*
G36*
G01*
X200315250Y-74480500D02*
X200877750Y-74480500D01*
G75*
G02*
X201121500Y-74724250I0J-243750D01*
G01*
X201121500Y-75211750D01*
G75*
G02*
X200877750Y-75455500I-243750J0D01*
G01*
X200315250Y-75455500D01*
G75*
G02*
X200071500Y-75211750I0J243750D01*
G01*
X200071500Y-74724250D01*
G75*
G02*
X200315250Y-74480500I243750J0D01*
G01*
G37*
G36*
G01*
X218149750Y-77424000D02*
X217587250Y-77424000D01*
G75*
G02*
X217343500Y-77180250I0J243750D01*
G01*
X217343500Y-76692750D01*
G75*
G02*
X217587250Y-76449000I243750J0D01*
G01*
X218149750Y-76449000D01*
G75*
G02*
X218393500Y-76692750I0J-243750D01*
G01*
X218393500Y-77180250D01*
G75*
G02*
X218149750Y-77424000I-243750J0D01*
G01*
G37*
G36*
G01*
X218149750Y-78999000D02*
X217587250Y-78999000D01*
G75*
G02*
X217343500Y-78755250I0J243750D01*
G01*
X217343500Y-78267750D01*
G75*
G02*
X217587250Y-78024000I243750J0D01*
G01*
X218149750Y-78024000D01*
G75*
G02*
X218393500Y-78267750I0J-243750D01*
G01*
X218393500Y-78755250D01*
G75*
G02*
X218149750Y-78999000I-243750J0D01*
G01*
G37*
G36*
G01*
X216244750Y-74058500D02*
X215682250Y-74058500D01*
G75*
G02*
X215438500Y-73814750I0J243750D01*
G01*
X215438500Y-73327250D01*
G75*
G02*
X215682250Y-73083500I243750J0D01*
G01*
X216244750Y-73083500D01*
G75*
G02*
X216488500Y-73327250I0J-243750D01*
G01*
X216488500Y-73814750D01*
G75*
G02*
X216244750Y-74058500I-243750J0D01*
G01*
G37*
G36*
G01*
X216244750Y-75633500D02*
X215682250Y-75633500D01*
G75*
G02*
X215438500Y-75389750I0J243750D01*
G01*
X215438500Y-74902250D01*
G75*
G02*
X215682250Y-74658500I243750J0D01*
G01*
X216244750Y-74658500D01*
G75*
G02*
X216488500Y-74902250I0J-243750D01*
G01*
X216488500Y-75389750D01*
G75*
G02*
X216244750Y-75633500I-243750J0D01*
G01*
G37*
G36*
G01*
X204941750Y-75455500D02*
X204379250Y-75455500D01*
G75*
G02*
X204135500Y-75211750I0J243750D01*
G01*
X204135500Y-74724250D01*
G75*
G02*
X204379250Y-74480500I243750J0D01*
G01*
X204941750Y-74480500D01*
G75*
G02*
X205185500Y-74724250I0J-243750D01*
G01*
X205185500Y-75211750D01*
G75*
G02*
X204941750Y-75455500I-243750J0D01*
G01*
G37*
G36*
G01*
X204941750Y-77030500D02*
X204379250Y-77030500D01*
G75*
G02*
X204135500Y-76786750I0J243750D01*
G01*
X204135500Y-76299250D01*
G75*
G02*
X204379250Y-76055500I243750J0D01*
G01*
X204941750Y-76055500D01*
G75*
G02*
X205185500Y-76299250I0J-243750D01*
G01*
X205185500Y-76786750D01*
G75*
G02*
X204941750Y-77030500I-243750J0D01*
G01*
G37*
G36*
G01*
X206855750Y-80564000D02*
X207418250Y-80564000D01*
G75*
G02*
X207662000Y-80807750I0J-243750D01*
G01*
X207662000Y-81295250D01*
G75*
G02*
X207418250Y-81539000I-243750J0D01*
G01*
X206855750Y-81539000D01*
G75*
G02*
X206612000Y-81295250I0J243750D01*
G01*
X206612000Y-80807750D01*
G75*
G02*
X206855750Y-80564000I243750J0D01*
G01*
G37*
G36*
G01*
X206855750Y-78989000D02*
X207418250Y-78989000D01*
G75*
G02*
X207662000Y-79232750I0J-243750D01*
G01*
X207662000Y-79720250D01*
G75*
G02*
X207418250Y-79964000I-243750J0D01*
G01*
X206855750Y-79964000D01*
G75*
G02*
X206612000Y-79720250I0J243750D01*
G01*
X206612000Y-79232750D01*
G75*
G02*
X206855750Y-78989000I243750J0D01*
G01*
G37*
G36*
G01*
X220626250Y-67899000D02*
X220063750Y-67899000D01*
G75*
G02*
X219820000Y-67655250I0J243750D01*
G01*
X219820000Y-67167750D01*
G75*
G02*
X220063750Y-66924000I243750J0D01*
G01*
X220626250Y-66924000D01*
G75*
G02*
X220870000Y-67167750I0J-243750D01*
G01*
X220870000Y-67655250D01*
G75*
G02*
X220626250Y-67899000I-243750J0D01*
G01*
G37*
G36*
G01*
X220626250Y-69474000D02*
X220063750Y-69474000D01*
G75*
G02*
X219820000Y-69230250I0J243750D01*
G01*
X219820000Y-68742750D01*
G75*
G02*
X220063750Y-68499000I243750J0D01*
G01*
X220626250Y-68499000D01*
G75*
G02*
X220870000Y-68742750I0J-243750D01*
G01*
X220870000Y-69230250D01*
G75*
G02*
X220626250Y-69474000I-243750J0D01*
G01*
G37*
G36*
G01*
X209840250Y-80564000D02*
X210402750Y-80564000D01*
G75*
G02*
X210646500Y-80807750I0J-243750D01*
G01*
X210646500Y-81295250D01*
G75*
G02*
X210402750Y-81539000I-243750J0D01*
G01*
X209840250Y-81539000D01*
G75*
G02*
X209596500Y-81295250I0J243750D01*
G01*
X209596500Y-80807750D01*
G75*
G02*
X209840250Y-80564000I243750J0D01*
G01*
G37*
G36*
G01*
X209840250Y-78989000D02*
X210402750Y-78989000D01*
G75*
G02*
X210646500Y-79232750I0J-243750D01*
G01*
X210646500Y-79720250D01*
G75*
G02*
X210402750Y-79964000I-243750J0D01*
G01*
X209840250Y-79964000D01*
G75*
G02*
X209596500Y-79720250I0J243750D01*
G01*
X209596500Y-79232750D01*
G75*
G02*
X209840250Y-78989000I243750J0D01*
G01*
G37*
G36*
G01*
X200696250Y-68499000D02*
X201258750Y-68499000D01*
G75*
G02*
X201502500Y-68742750I0J-243750D01*
G01*
X201502500Y-69230250D01*
G75*
G02*
X201258750Y-69474000I-243750J0D01*
G01*
X200696250Y-69474000D01*
G75*
G02*
X200452500Y-69230250I0J243750D01*
G01*
X200452500Y-68742750D01*
G75*
G02*
X200696250Y-68499000I243750J0D01*
G01*
G37*
G36*
G01*
X200696250Y-66924000D02*
X201258750Y-66924000D01*
G75*
G02*
X201502500Y-67167750I0J-243750D01*
G01*
X201502500Y-67655250D01*
G75*
G02*
X201258750Y-67899000I-243750J0D01*
G01*
X200696250Y-67899000D01*
G75*
G02*
X200452500Y-67655250I0J243750D01*
G01*
X200452500Y-67167750D01*
G75*
G02*
X200696250Y-66924000I243750J0D01*
G01*
G37*
G36*
G01*
X210919750Y-56624500D02*
X211482250Y-56624500D01*
G75*
G02*
X211726000Y-56868250I0J-243750D01*
G01*
X211726000Y-57355750D01*
G75*
G02*
X211482250Y-57599500I-243750J0D01*
G01*
X210919750Y-57599500D01*
G75*
G02*
X210676000Y-57355750I0J243750D01*
G01*
X210676000Y-56868250D01*
G75*
G02*
X210919750Y-56624500I243750J0D01*
G01*
G37*
G36*
G01*
X210919750Y-55049500D02*
X211482250Y-55049500D01*
G75*
G02*
X211726000Y-55293250I0J-243750D01*
G01*
X211726000Y-55780750D01*
G75*
G02*
X211482250Y-56024500I-243750J0D01*
G01*
X210919750Y-56024500D01*
G75*
G02*
X210676000Y-55780750I0J243750D01*
G01*
X210676000Y-55293250D01*
G75*
G02*
X210919750Y-55049500I243750J0D01*
G01*
G37*
G36*
G01*
X226921750Y-50465000D02*
X227484250Y-50465000D01*
G75*
G02*
X227728000Y-50708750I0J-243750D01*
G01*
X227728000Y-51196250D01*
G75*
G02*
X227484250Y-51440000I-243750J0D01*
G01*
X226921750Y-51440000D01*
G75*
G02*
X226678000Y-51196250I0J243750D01*
G01*
X226678000Y-50708750D01*
G75*
G02*
X226921750Y-50465000I243750J0D01*
G01*
G37*
G36*
G01*
X226921750Y-48890000D02*
X227484250Y-48890000D01*
G75*
G02*
X227728000Y-49133750I0J-243750D01*
G01*
X227728000Y-49621250D01*
G75*
G02*
X227484250Y-49865000I-243750J0D01*
G01*
X226921750Y-49865000D01*
G75*
G02*
X226678000Y-49621250I0J243750D01*
G01*
X226678000Y-49133750D01*
G75*
G02*
X226921750Y-48890000I243750J0D01*
G01*
G37*
G36*
G01*
X197004250Y-122318500D02*
X196441750Y-122318500D01*
G75*
G02*
X196198000Y-122074750I0J243750D01*
G01*
X196198000Y-121587250D01*
G75*
G02*
X196441750Y-121343500I243750J0D01*
G01*
X197004250Y-121343500D01*
G75*
G02*
X197248000Y-121587250I0J-243750D01*
G01*
X197248000Y-122074750D01*
G75*
G02*
X197004250Y-122318500I-243750J0D01*
G01*
G37*
G36*
G01*
X197004250Y-123893500D02*
X196441750Y-123893500D01*
G75*
G02*
X196198000Y-123649750I0J243750D01*
G01*
X196198000Y-123162250D01*
G75*
G02*
X196441750Y-122918500I243750J0D01*
G01*
X197004250Y-122918500D01*
G75*
G02*
X197248000Y-123162250I0J-243750D01*
G01*
X197248000Y-123649750D01*
G75*
G02*
X197004250Y-123893500I-243750J0D01*
G01*
G37*
G36*
G01*
X223737750Y-53230500D02*
X223175250Y-53230500D01*
G75*
G02*
X222931500Y-52986750I0J243750D01*
G01*
X222931500Y-52499250D01*
G75*
G02*
X223175250Y-52255500I243750J0D01*
G01*
X223737750Y-52255500D01*
G75*
G02*
X223981500Y-52499250I0J-243750D01*
G01*
X223981500Y-52986750D01*
G75*
G02*
X223737750Y-53230500I-243750J0D01*
G01*
G37*
G36*
G01*
X223737750Y-54805500D02*
X223175250Y-54805500D01*
G75*
G02*
X222931500Y-54561750I0J243750D01*
G01*
X222931500Y-54074250D01*
G75*
G02*
X223175250Y-53830500I243750J0D01*
G01*
X223737750Y-53830500D01*
G75*
G02*
X223981500Y-54074250I0J-243750D01*
G01*
X223981500Y-54561750D01*
G75*
G02*
X223737750Y-54805500I-243750J0D01*
G01*
G37*
G36*
G01*
X206402250Y-46753500D02*
X205839750Y-46753500D01*
G75*
G02*
X205596000Y-46509750I0J243750D01*
G01*
X205596000Y-46022250D01*
G75*
G02*
X205839750Y-45778500I243750J0D01*
G01*
X206402250Y-45778500D01*
G75*
G02*
X206646000Y-46022250I0J-243750D01*
G01*
X206646000Y-46509750D01*
G75*
G02*
X206402250Y-46753500I-243750J0D01*
G01*
G37*
G36*
G01*
X206402250Y-48328500D02*
X205839750Y-48328500D01*
G75*
G02*
X205596000Y-48084750I0J243750D01*
G01*
X205596000Y-47597250D01*
G75*
G02*
X205839750Y-47353500I243750J0D01*
G01*
X206402250Y-47353500D01*
G75*
G02*
X206646000Y-47597250I0J-243750D01*
G01*
X206646000Y-48084750D01*
G75*
G02*
X206402250Y-48328500I-243750J0D01*
G01*
G37*
G36*
G01*
X223801250Y-49865000D02*
X223238750Y-49865000D01*
G75*
G02*
X222995000Y-49621250I0J243750D01*
G01*
X222995000Y-49133750D01*
G75*
G02*
X223238750Y-48890000I243750J0D01*
G01*
X223801250Y-48890000D01*
G75*
G02*
X224045000Y-49133750I0J-243750D01*
G01*
X224045000Y-49621250D01*
G75*
G02*
X223801250Y-49865000I-243750J0D01*
G01*
G37*
G36*
G01*
X223801250Y-51440000D02*
X223238750Y-51440000D01*
G75*
G02*
X222995000Y-51196250I0J243750D01*
G01*
X222995000Y-50708750D01*
G75*
G02*
X223238750Y-50465000I243750J0D01*
G01*
X223801250Y-50465000D01*
G75*
G02*
X224045000Y-50708750I0J-243750D01*
G01*
X224045000Y-51196250D01*
G75*
G02*
X223801250Y-51440000I-243750J0D01*
G01*
G37*
G36*
G01*
X225642750Y-53230500D02*
X225080250Y-53230500D01*
G75*
G02*
X224836500Y-52986750I0J243750D01*
G01*
X224836500Y-52499250D01*
G75*
G02*
X225080250Y-52255500I243750J0D01*
G01*
X225642750Y-52255500D01*
G75*
G02*
X225886500Y-52499250I0J-243750D01*
G01*
X225886500Y-52986750D01*
G75*
G02*
X225642750Y-53230500I-243750J0D01*
G01*
G37*
G36*
G01*
X225642750Y-54805500D02*
X225080250Y-54805500D01*
G75*
G02*
X224836500Y-54561750I0J243750D01*
G01*
X224836500Y-54074250D01*
G75*
G02*
X225080250Y-53830500I243750J0D01*
G01*
X225642750Y-53830500D01*
G75*
G02*
X225886500Y-54074250I0J-243750D01*
G01*
X225886500Y-54561750D01*
G75*
G02*
X225642750Y-54805500I-243750J0D01*
G01*
G37*
G36*
G01*
X213958750Y-51262000D02*
X213396250Y-51262000D01*
G75*
G02*
X213152500Y-51018250I0J243750D01*
G01*
X213152500Y-50530750D01*
G75*
G02*
X213396250Y-50287000I243750J0D01*
G01*
X213958750Y-50287000D01*
G75*
G02*
X214202500Y-50530750I0J-243750D01*
G01*
X214202500Y-51018250D01*
G75*
G02*
X213958750Y-51262000I-243750J0D01*
G01*
G37*
G36*
G01*
X213958750Y-52837000D02*
X213396250Y-52837000D01*
G75*
G02*
X213152500Y-52593250I0J243750D01*
G01*
X213152500Y-52105750D01*
G75*
G02*
X213396250Y-51862000I243750J0D01*
G01*
X213958750Y-51862000D01*
G75*
G02*
X214202500Y-52105750I0J-243750D01*
G01*
X214202500Y-52593250D01*
G75*
G02*
X213958750Y-52837000I-243750J0D01*
G01*
G37*
G36*
G01*
X208570250Y-51925500D02*
X209132750Y-51925500D01*
G75*
G02*
X209376500Y-52169250I0J-243750D01*
G01*
X209376500Y-52656750D01*
G75*
G02*
X209132750Y-52900500I-243750J0D01*
G01*
X208570250Y-52900500D01*
G75*
G02*
X208326500Y-52656750I0J243750D01*
G01*
X208326500Y-52169250D01*
G75*
G02*
X208570250Y-51925500I243750J0D01*
G01*
G37*
G36*
G01*
X208570250Y-50350500D02*
X209132750Y-50350500D01*
G75*
G02*
X209376500Y-50594250I0J-243750D01*
G01*
X209376500Y-51081750D01*
G75*
G02*
X209132750Y-51325500I-243750J0D01*
G01*
X208570250Y-51325500D01*
G75*
G02*
X208326500Y-51081750I0J243750D01*
G01*
X208326500Y-50594250D01*
G75*
G02*
X208570250Y-50350500I243750J0D01*
G01*
G37*
G36*
G01*
X218222250Y-56307000D02*
X218784750Y-56307000D01*
G75*
G02*
X219028500Y-56550750I0J-243750D01*
G01*
X219028500Y-57038250D01*
G75*
G02*
X218784750Y-57282000I-243750J0D01*
G01*
X218222250Y-57282000D01*
G75*
G02*
X217978500Y-57038250I0J243750D01*
G01*
X217978500Y-56550750D01*
G75*
G02*
X218222250Y-56307000I243750J0D01*
G01*
G37*
G36*
G01*
X218222250Y-54732000D02*
X218784750Y-54732000D01*
G75*
G02*
X219028500Y-54975750I0J-243750D01*
G01*
X219028500Y-55463250D01*
G75*
G02*
X218784750Y-55707000I-243750J0D01*
G01*
X218222250Y-55707000D01*
G75*
G02*
X217978500Y-55463250I0J243750D01*
G01*
X217978500Y-54975750D01*
G75*
G02*
X218222250Y-54732000I243750J0D01*
G01*
G37*
G36*
G01*
X158840750Y-79900500D02*
X158278250Y-79900500D01*
G75*
G02*
X158034500Y-79656750I0J243750D01*
G01*
X158034500Y-79169250D01*
G75*
G02*
X158278250Y-78925500I243750J0D01*
G01*
X158840750Y-78925500D01*
G75*
G02*
X159084500Y-79169250I0J-243750D01*
G01*
X159084500Y-79656750D01*
G75*
G02*
X158840750Y-79900500I-243750J0D01*
G01*
G37*
G36*
G01*
X158840750Y-81475500D02*
X158278250Y-81475500D01*
G75*
G02*
X158034500Y-81231750I0J243750D01*
G01*
X158034500Y-80744250D01*
G75*
G02*
X158278250Y-80500500I243750J0D01*
G01*
X158840750Y-80500500D01*
G75*
G02*
X159084500Y-80744250I0J-243750D01*
G01*
X159084500Y-81231750D01*
G75*
G02*
X158840750Y-81475500I-243750J0D01*
G01*
G37*
G36*
G01*
X171667750Y-71264500D02*
X171105250Y-71264500D01*
G75*
G02*
X170861500Y-71020750I0J243750D01*
G01*
X170861500Y-70533250D01*
G75*
G02*
X171105250Y-70289500I243750J0D01*
G01*
X171667750Y-70289500D01*
G75*
G02*
X171911500Y-70533250I0J-243750D01*
G01*
X171911500Y-71020750D01*
G75*
G02*
X171667750Y-71264500I-243750J0D01*
G01*
G37*
G36*
G01*
X171667750Y-72839500D02*
X171105250Y-72839500D01*
G75*
G02*
X170861500Y-72595750I0J243750D01*
G01*
X170861500Y-72108250D01*
G75*
G02*
X171105250Y-71864500I243750J0D01*
G01*
X171667750Y-71864500D01*
G75*
G02*
X171911500Y-72108250I0J-243750D01*
G01*
X171911500Y-72595750D01*
G75*
G02*
X171667750Y-72839500I-243750J0D01*
G01*
G37*
G36*
G01*
X158278250Y-76817500D02*
X158840750Y-76817500D01*
G75*
G02*
X159084500Y-77061250I0J-243750D01*
G01*
X159084500Y-77548750D01*
G75*
G02*
X158840750Y-77792500I-243750J0D01*
G01*
X158278250Y-77792500D01*
G75*
G02*
X158034500Y-77548750I0J243750D01*
G01*
X158034500Y-77061250D01*
G75*
G02*
X158278250Y-76817500I243750J0D01*
G01*
G37*
G36*
G01*
X158278250Y-75242500D02*
X158840750Y-75242500D01*
G75*
G02*
X159084500Y-75486250I0J-243750D01*
G01*
X159084500Y-75973750D01*
G75*
G02*
X158840750Y-76217500I-243750J0D01*
G01*
X158278250Y-76217500D01*
G75*
G02*
X158034500Y-75973750I0J243750D01*
G01*
X158034500Y-75486250D01*
G75*
G02*
X158278250Y-75242500I243750J0D01*
G01*
G37*
G36*
G01*
X176366750Y-78376500D02*
X175804250Y-78376500D01*
G75*
G02*
X175560500Y-78132750I0J243750D01*
G01*
X175560500Y-77645250D01*
G75*
G02*
X175804250Y-77401500I243750J0D01*
G01*
X176366750Y-77401500D01*
G75*
G02*
X176610500Y-77645250I0J-243750D01*
G01*
X176610500Y-78132750D01*
G75*
G02*
X176366750Y-78376500I-243750J0D01*
G01*
G37*
G36*
G01*
X176366750Y-79951500D02*
X175804250Y-79951500D01*
G75*
G02*
X175560500Y-79707750I0J243750D01*
G01*
X175560500Y-79220250D01*
G75*
G02*
X175804250Y-78976500I243750J0D01*
G01*
X176366750Y-78976500D01*
G75*
G02*
X176610500Y-79220250I0J-243750D01*
G01*
X176610500Y-79707750D01*
G75*
G02*
X176366750Y-79951500I-243750J0D01*
G01*
G37*
G36*
G01*
X174334750Y-74884000D02*
X173772250Y-74884000D01*
G75*
G02*
X173528500Y-74640250I0J243750D01*
G01*
X173528500Y-74152750D01*
G75*
G02*
X173772250Y-73909000I243750J0D01*
G01*
X174334750Y-73909000D01*
G75*
G02*
X174578500Y-74152750I0J-243750D01*
G01*
X174578500Y-74640250D01*
G75*
G02*
X174334750Y-74884000I-243750J0D01*
G01*
G37*
G36*
G01*
X174334750Y-76459000D02*
X173772250Y-76459000D01*
G75*
G02*
X173528500Y-76215250I0J243750D01*
G01*
X173528500Y-75727750D01*
G75*
G02*
X173772250Y-75484000I243750J0D01*
G01*
X174334750Y-75484000D01*
G75*
G02*
X174578500Y-75727750I0J-243750D01*
G01*
X174578500Y-76215250D01*
G75*
G02*
X174334750Y-76459000I-243750J0D01*
G01*
G37*
G36*
G01*
X162904750Y-76217500D02*
X162342250Y-76217500D01*
G75*
G02*
X162098500Y-75973750I0J243750D01*
G01*
X162098500Y-75486250D01*
G75*
G02*
X162342250Y-75242500I243750J0D01*
G01*
X162904750Y-75242500D01*
G75*
G02*
X163148500Y-75486250I0J-243750D01*
G01*
X163148500Y-75973750D01*
G75*
G02*
X162904750Y-76217500I-243750J0D01*
G01*
G37*
G36*
G01*
X162904750Y-77792500D02*
X162342250Y-77792500D01*
G75*
G02*
X162098500Y-77548750I0J243750D01*
G01*
X162098500Y-77061250D01*
G75*
G02*
X162342250Y-76817500I243750J0D01*
G01*
X162904750Y-76817500D01*
G75*
G02*
X163148500Y-77061250I0J-243750D01*
G01*
X163148500Y-77548750D01*
G75*
G02*
X162904750Y-77792500I-243750J0D01*
G01*
G37*
G36*
G01*
X165199750Y-81770500D02*
X165762250Y-81770500D01*
G75*
G02*
X166006000Y-82014250I0J-243750D01*
G01*
X166006000Y-82501750D01*
G75*
G02*
X165762250Y-82745500I-243750J0D01*
G01*
X165199750Y-82745500D01*
G75*
G02*
X164956000Y-82501750I0J243750D01*
G01*
X164956000Y-82014250D01*
G75*
G02*
X165199750Y-81770500I243750J0D01*
G01*
G37*
G36*
G01*
X165199750Y-80195500D02*
X165762250Y-80195500D01*
G75*
G02*
X166006000Y-80439250I0J-243750D01*
G01*
X166006000Y-80926750D01*
G75*
G02*
X165762250Y-81170500I-243750J0D01*
G01*
X165199750Y-81170500D01*
G75*
G02*
X164956000Y-80926750I0J243750D01*
G01*
X164956000Y-80439250D01*
G75*
G02*
X165199750Y-80195500I243750J0D01*
G01*
G37*
G36*
G01*
X178525750Y-67899000D02*
X177963250Y-67899000D01*
G75*
G02*
X177719500Y-67655250I0J243750D01*
G01*
X177719500Y-67167750D01*
G75*
G02*
X177963250Y-66924000I243750J0D01*
G01*
X178525750Y-66924000D01*
G75*
G02*
X178769500Y-67167750I0J-243750D01*
G01*
X178769500Y-67655250D01*
G75*
G02*
X178525750Y-67899000I-243750J0D01*
G01*
G37*
G36*
G01*
X178525750Y-69474000D02*
X177963250Y-69474000D01*
G75*
G02*
X177719500Y-69230250I0J243750D01*
G01*
X177719500Y-68742750D01*
G75*
G02*
X177963250Y-68499000I243750J0D01*
G01*
X178525750Y-68499000D01*
G75*
G02*
X178769500Y-68742750I0J-243750D01*
G01*
X178769500Y-69230250D01*
G75*
G02*
X178525750Y-69474000I-243750J0D01*
G01*
G37*
G36*
G01*
X168184250Y-81770500D02*
X168746750Y-81770500D01*
G75*
G02*
X168990500Y-82014250I0J-243750D01*
G01*
X168990500Y-82501750D01*
G75*
G02*
X168746750Y-82745500I-243750J0D01*
G01*
X168184250Y-82745500D01*
G75*
G02*
X167940500Y-82501750I0J243750D01*
G01*
X167940500Y-82014250D01*
G75*
G02*
X168184250Y-81770500I243750J0D01*
G01*
G37*
G36*
G01*
X168184250Y-80195500D02*
X168746750Y-80195500D01*
G75*
G02*
X168990500Y-80439250I0J-243750D01*
G01*
X168990500Y-80926750D01*
G75*
G02*
X168746750Y-81170500I-243750J0D01*
G01*
X168184250Y-81170500D01*
G75*
G02*
X167940500Y-80926750I0J243750D01*
G01*
X167940500Y-80439250D01*
G75*
G02*
X168184250Y-80195500I243750J0D01*
G01*
G37*
G36*
G01*
X158468750Y-68562500D02*
X159031250Y-68562500D01*
G75*
G02*
X159275000Y-68806250I0J-243750D01*
G01*
X159275000Y-69293750D01*
G75*
G02*
X159031250Y-69537500I-243750J0D01*
G01*
X158468750Y-69537500D01*
G75*
G02*
X158225000Y-69293750I0J243750D01*
G01*
X158225000Y-68806250D01*
G75*
G02*
X158468750Y-68562500I243750J0D01*
G01*
G37*
G36*
G01*
X158468750Y-66987500D02*
X159031250Y-66987500D01*
G75*
G02*
X159275000Y-67231250I0J-243750D01*
G01*
X159275000Y-67718750D01*
G75*
G02*
X159031250Y-67962500I-243750J0D01*
G01*
X158468750Y-67962500D01*
G75*
G02*
X158225000Y-67718750I0J243750D01*
G01*
X158225000Y-67231250D01*
G75*
G02*
X158468750Y-66987500I243750J0D01*
G01*
G37*
G36*
G01*
X176375750Y-56434000D02*
X176938250Y-56434000D01*
G75*
G02*
X177182000Y-56677750I0J-243750D01*
G01*
X177182000Y-57165250D01*
G75*
G02*
X176938250Y-57409000I-243750J0D01*
G01*
X176375750Y-57409000D01*
G75*
G02*
X176132000Y-57165250I0J243750D01*
G01*
X176132000Y-56677750D01*
G75*
G02*
X176375750Y-56434000I243750J0D01*
G01*
G37*
G36*
G01*
X176375750Y-54859000D02*
X176938250Y-54859000D01*
G75*
G02*
X177182000Y-55102750I0J-243750D01*
G01*
X177182000Y-55590250D01*
G75*
G02*
X176938250Y-55834000I-243750J0D01*
G01*
X176375750Y-55834000D01*
G75*
G02*
X176132000Y-55590250I0J243750D01*
G01*
X176132000Y-55102750D01*
G75*
G02*
X176375750Y-54859000I243750J0D01*
G01*
G37*
G36*
G01*
X188567750Y-50084000D02*
X189130250Y-50084000D01*
G75*
G02*
X189374000Y-50327750I0J-243750D01*
G01*
X189374000Y-50815250D01*
G75*
G02*
X189130250Y-51059000I-243750J0D01*
G01*
X188567750Y-51059000D01*
G75*
G02*
X188324000Y-50815250I0J243750D01*
G01*
X188324000Y-50327750D01*
G75*
G02*
X188567750Y-50084000I243750J0D01*
G01*
G37*
G36*
G01*
X188567750Y-48509000D02*
X189130250Y-48509000D01*
G75*
G02*
X189374000Y-48752750I0J-243750D01*
G01*
X189374000Y-49240250D01*
G75*
G02*
X189130250Y-49484000I-243750J0D01*
G01*
X188567750Y-49484000D01*
G75*
G02*
X188324000Y-49240250I0J243750D01*
G01*
X188324000Y-48752750D01*
G75*
G02*
X188567750Y-48509000I243750J0D01*
G01*
G37*
G36*
G01*
X182081750Y-124731500D02*
X181519250Y-124731500D01*
G75*
G02*
X181275500Y-124487750I0J243750D01*
G01*
X181275500Y-124000250D01*
G75*
G02*
X181519250Y-123756500I243750J0D01*
G01*
X182081750Y-123756500D01*
G75*
G02*
X182325500Y-124000250I0J-243750D01*
G01*
X182325500Y-124487750D01*
G75*
G02*
X182081750Y-124731500I-243750J0D01*
G01*
G37*
G36*
G01*
X182081750Y-126306500D02*
X181519250Y-126306500D01*
G75*
G02*
X181275500Y-126062750I0J243750D01*
G01*
X181275500Y-125575250D01*
G75*
G02*
X181519250Y-125331500I243750J0D01*
G01*
X182081750Y-125331500D01*
G75*
G02*
X182325500Y-125575250I0J-243750D01*
G01*
X182325500Y-126062750D01*
G75*
G02*
X182081750Y-126306500I-243750J0D01*
G01*
G37*
G36*
G01*
X185066250Y-52913000D02*
X184503750Y-52913000D01*
G75*
G02*
X184260000Y-52669250I0J243750D01*
G01*
X184260000Y-52181750D01*
G75*
G02*
X184503750Y-51938000I243750J0D01*
G01*
X185066250Y-51938000D01*
G75*
G02*
X185310000Y-52181750I0J-243750D01*
G01*
X185310000Y-52669250D01*
G75*
G02*
X185066250Y-52913000I-243750J0D01*
G01*
G37*
G36*
G01*
X185066250Y-54488000D02*
X184503750Y-54488000D01*
G75*
G02*
X184260000Y-54244250I0J243750D01*
G01*
X184260000Y-53756750D01*
G75*
G02*
X184503750Y-53513000I243750J0D01*
G01*
X185066250Y-53513000D01*
G75*
G02*
X185310000Y-53756750I0J-243750D01*
G01*
X185310000Y-54244250D01*
G75*
G02*
X185066250Y-54488000I-243750J0D01*
G01*
G37*
G36*
G01*
X164873250Y-47452000D02*
X164310750Y-47452000D01*
G75*
G02*
X164067000Y-47208250I0J243750D01*
G01*
X164067000Y-46720750D01*
G75*
G02*
X164310750Y-46477000I243750J0D01*
G01*
X164873250Y-46477000D01*
G75*
G02*
X165117000Y-46720750I0J-243750D01*
G01*
X165117000Y-47208250D01*
G75*
G02*
X164873250Y-47452000I-243750J0D01*
G01*
G37*
G36*
G01*
X164873250Y-49027000D02*
X164310750Y-49027000D01*
G75*
G02*
X164067000Y-48783250I0J243750D01*
G01*
X164067000Y-48295750D01*
G75*
G02*
X164310750Y-48052000I243750J0D01*
G01*
X164873250Y-48052000D01*
G75*
G02*
X165117000Y-48295750I0J-243750D01*
G01*
X165117000Y-48783250D01*
G75*
G02*
X164873250Y-49027000I-243750J0D01*
G01*
G37*
G36*
G01*
X185066250Y-49484000D02*
X184503750Y-49484000D01*
G75*
G02*
X184260000Y-49240250I0J243750D01*
G01*
X184260000Y-48752750D01*
G75*
G02*
X184503750Y-48509000I243750J0D01*
G01*
X185066250Y-48509000D01*
G75*
G02*
X185310000Y-48752750I0J-243750D01*
G01*
X185310000Y-49240250D01*
G75*
G02*
X185066250Y-49484000I-243750J0D01*
G01*
G37*
G36*
G01*
X185066250Y-51059000D02*
X184503750Y-51059000D01*
G75*
G02*
X184260000Y-50815250I0J243750D01*
G01*
X184260000Y-50327750D01*
G75*
G02*
X184503750Y-50084000I243750J0D01*
G01*
X185066250Y-50084000D01*
G75*
G02*
X185310000Y-50327750I0J-243750D01*
G01*
X185310000Y-50815250D01*
G75*
G02*
X185066250Y-51059000I-243750J0D01*
G01*
G37*
G36*
G01*
X187098250Y-52913000D02*
X186535750Y-52913000D01*
G75*
G02*
X186292000Y-52669250I0J243750D01*
G01*
X186292000Y-52181750D01*
G75*
G02*
X186535750Y-51938000I243750J0D01*
G01*
X187098250Y-51938000D01*
G75*
G02*
X187342000Y-52181750I0J-243750D01*
G01*
X187342000Y-52669250D01*
G75*
G02*
X187098250Y-52913000I-243750J0D01*
G01*
G37*
G36*
G01*
X187098250Y-54488000D02*
X186535750Y-54488000D01*
G75*
G02*
X186292000Y-54244250I0J243750D01*
G01*
X186292000Y-53756750D01*
G75*
G02*
X186535750Y-53513000I243750J0D01*
G01*
X187098250Y-53513000D01*
G75*
G02*
X187342000Y-53756750I0J-243750D01*
G01*
X187342000Y-54244250D01*
G75*
G02*
X187098250Y-54488000I-243750J0D01*
G01*
G37*
G36*
G01*
X178788750Y-56434000D02*
X179351250Y-56434000D01*
G75*
G02*
X179595000Y-56677750I0J-243750D01*
G01*
X179595000Y-57165250D01*
G75*
G02*
X179351250Y-57409000I-243750J0D01*
G01*
X178788750Y-57409000D01*
G75*
G02*
X178545000Y-57165250I0J243750D01*
G01*
X178545000Y-56677750D01*
G75*
G02*
X178788750Y-56434000I243750J0D01*
G01*
G37*
G36*
G01*
X178788750Y-54859000D02*
X179351250Y-54859000D01*
G75*
G02*
X179595000Y-55102750I0J-243750D01*
G01*
X179595000Y-55590250D01*
G75*
G02*
X179351250Y-55834000I-243750J0D01*
G01*
X178788750Y-55834000D01*
G75*
G02*
X178545000Y-55590250I0J243750D01*
G01*
X178545000Y-55102750D01*
G75*
G02*
X178788750Y-54859000I243750J0D01*
G01*
G37*
G36*
G01*
X116867250Y-79075000D02*
X116304750Y-79075000D01*
G75*
G02*
X116061000Y-78831250I0J243750D01*
G01*
X116061000Y-78343750D01*
G75*
G02*
X116304750Y-78100000I243750J0D01*
G01*
X116867250Y-78100000D01*
G75*
G02*
X117111000Y-78343750I0J-243750D01*
G01*
X117111000Y-78831250D01*
G75*
G02*
X116867250Y-79075000I-243750J0D01*
G01*
G37*
G36*
G01*
X116867250Y-80650000D02*
X116304750Y-80650000D01*
G75*
G02*
X116061000Y-80406250I0J243750D01*
G01*
X116061000Y-79918750D01*
G75*
G02*
X116304750Y-79675000I243750J0D01*
G01*
X116867250Y-79675000D01*
G75*
G02*
X117111000Y-79918750I0J-243750D01*
G01*
X117111000Y-80406250D01*
G75*
G02*
X116867250Y-80650000I-243750J0D01*
G01*
G37*
G36*
G01*
X129567250Y-70693000D02*
X129004750Y-70693000D01*
G75*
G02*
X128761000Y-70449250I0J243750D01*
G01*
X128761000Y-69961750D01*
G75*
G02*
X129004750Y-69718000I243750J0D01*
G01*
X129567250Y-69718000D01*
G75*
G02*
X129811000Y-69961750I0J-243750D01*
G01*
X129811000Y-70449250D01*
G75*
G02*
X129567250Y-70693000I-243750J0D01*
G01*
G37*
G36*
G01*
X129567250Y-72268000D02*
X129004750Y-72268000D01*
G75*
G02*
X128761000Y-72024250I0J243750D01*
G01*
X128761000Y-71536750D01*
G75*
G02*
X129004750Y-71293000I243750J0D01*
G01*
X129567250Y-71293000D01*
G75*
G02*
X129811000Y-71536750I0J-243750D01*
G01*
X129811000Y-72024250D01*
G75*
G02*
X129567250Y-72268000I-243750J0D01*
G01*
G37*
G36*
G01*
X116304750Y-76119000D02*
X116867250Y-76119000D01*
G75*
G02*
X117111000Y-76362750I0J-243750D01*
G01*
X117111000Y-76850250D01*
G75*
G02*
X116867250Y-77094000I-243750J0D01*
G01*
X116304750Y-77094000D01*
G75*
G02*
X116061000Y-76850250I0J243750D01*
G01*
X116061000Y-76362750D01*
G75*
G02*
X116304750Y-76119000I243750J0D01*
G01*
G37*
G36*
G01*
X116304750Y-74544000D02*
X116867250Y-74544000D01*
G75*
G02*
X117111000Y-74787750I0J-243750D01*
G01*
X117111000Y-75275250D01*
G75*
G02*
X116867250Y-75519000I-243750J0D01*
G01*
X116304750Y-75519000D01*
G75*
G02*
X116061000Y-75275250I0J243750D01*
G01*
X116061000Y-74787750D01*
G75*
G02*
X116304750Y-74544000I243750J0D01*
G01*
G37*
G36*
G01*
X134520250Y-77678000D02*
X133957750Y-77678000D01*
G75*
G02*
X133714000Y-77434250I0J243750D01*
G01*
X133714000Y-76946750D01*
G75*
G02*
X133957750Y-76703000I243750J0D01*
G01*
X134520250Y-76703000D01*
G75*
G02*
X134764000Y-76946750I0J-243750D01*
G01*
X134764000Y-77434250D01*
G75*
G02*
X134520250Y-77678000I-243750J0D01*
G01*
G37*
G36*
G01*
X134520250Y-79253000D02*
X133957750Y-79253000D01*
G75*
G02*
X133714000Y-79009250I0J243750D01*
G01*
X133714000Y-78521750D01*
G75*
G02*
X133957750Y-78278000I243750J0D01*
G01*
X134520250Y-78278000D01*
G75*
G02*
X134764000Y-78521750I0J-243750D01*
G01*
X134764000Y-79009250D01*
G75*
G02*
X134520250Y-79253000I-243750J0D01*
G01*
G37*
G36*
G01*
X132488250Y-74122000D02*
X131925750Y-74122000D01*
G75*
G02*
X131682000Y-73878250I0J243750D01*
G01*
X131682000Y-73390750D01*
G75*
G02*
X131925750Y-73147000I243750J0D01*
G01*
X132488250Y-73147000D01*
G75*
G02*
X132732000Y-73390750I0J-243750D01*
G01*
X132732000Y-73878250D01*
G75*
G02*
X132488250Y-74122000I-243750J0D01*
G01*
G37*
G36*
G01*
X132488250Y-75697000D02*
X131925750Y-75697000D01*
G75*
G02*
X131682000Y-75453250I0J243750D01*
G01*
X131682000Y-74965750D01*
G75*
G02*
X131925750Y-74722000I243750J0D01*
G01*
X132488250Y-74722000D01*
G75*
G02*
X132732000Y-74965750I0J-243750D01*
G01*
X132732000Y-75453250D01*
G75*
G02*
X132488250Y-75697000I-243750J0D01*
G01*
G37*
G36*
G01*
X120931250Y-75519000D02*
X120368750Y-75519000D01*
G75*
G02*
X120125000Y-75275250I0J243750D01*
G01*
X120125000Y-74787750D01*
G75*
G02*
X120368750Y-74544000I243750J0D01*
G01*
X120931250Y-74544000D01*
G75*
G02*
X121175000Y-74787750I0J-243750D01*
G01*
X121175000Y-75275250D01*
G75*
G02*
X120931250Y-75519000I-243750J0D01*
G01*
G37*
G36*
G01*
X120931250Y-77094000D02*
X120368750Y-77094000D01*
G75*
G02*
X120125000Y-76850250I0J243750D01*
G01*
X120125000Y-76362750D01*
G75*
G02*
X120368750Y-76119000I243750J0D01*
G01*
X120931250Y-76119000D01*
G75*
G02*
X121175000Y-76362750I0J-243750D01*
G01*
X121175000Y-76850250D01*
G75*
G02*
X120931250Y-77094000I-243750J0D01*
G01*
G37*
G36*
G01*
X123162750Y-81072000D02*
X123725250Y-81072000D01*
G75*
G02*
X123969000Y-81315750I0J-243750D01*
G01*
X123969000Y-81803250D01*
G75*
G02*
X123725250Y-82047000I-243750J0D01*
G01*
X123162750Y-82047000D01*
G75*
G02*
X122919000Y-81803250I0J243750D01*
G01*
X122919000Y-81315750D01*
G75*
G02*
X123162750Y-81072000I243750J0D01*
G01*
G37*
G36*
G01*
X123162750Y-79497000D02*
X123725250Y-79497000D01*
G75*
G02*
X123969000Y-79740750I0J-243750D01*
G01*
X123969000Y-80228250D01*
G75*
G02*
X123725250Y-80472000I-243750J0D01*
G01*
X123162750Y-80472000D01*
G75*
G02*
X122919000Y-80228250I0J243750D01*
G01*
X122919000Y-79740750D01*
G75*
G02*
X123162750Y-79497000I243750J0D01*
G01*
G37*
G36*
G01*
X136171250Y-67899000D02*
X135608750Y-67899000D01*
G75*
G02*
X135365000Y-67655250I0J243750D01*
G01*
X135365000Y-67167750D01*
G75*
G02*
X135608750Y-66924000I243750J0D01*
G01*
X136171250Y-66924000D01*
G75*
G02*
X136415000Y-67167750I0J-243750D01*
G01*
X136415000Y-67655250D01*
G75*
G02*
X136171250Y-67899000I-243750J0D01*
G01*
G37*
G36*
G01*
X136171250Y-69474000D02*
X135608750Y-69474000D01*
G75*
G02*
X135365000Y-69230250I0J243750D01*
G01*
X135365000Y-68742750D01*
G75*
G02*
X135608750Y-68499000I243750J0D01*
G01*
X136171250Y-68499000D01*
G75*
G02*
X136415000Y-68742750I0J-243750D01*
G01*
X136415000Y-69230250D01*
G75*
G02*
X136171250Y-69474000I-243750J0D01*
G01*
G37*
G36*
G01*
X126083750Y-81072000D02*
X126646250Y-81072000D01*
G75*
G02*
X126890000Y-81315750I0J-243750D01*
G01*
X126890000Y-81803250D01*
G75*
G02*
X126646250Y-82047000I-243750J0D01*
G01*
X126083750Y-82047000D01*
G75*
G02*
X125840000Y-81803250I0J243750D01*
G01*
X125840000Y-81315750D01*
G75*
G02*
X126083750Y-81072000I243750J0D01*
G01*
G37*
G36*
G01*
X126083750Y-79497000D02*
X126646250Y-79497000D01*
G75*
G02*
X126890000Y-79740750I0J-243750D01*
G01*
X126890000Y-80228250D01*
G75*
G02*
X126646250Y-80472000I-243750J0D01*
G01*
X126083750Y-80472000D01*
G75*
G02*
X125840000Y-80228250I0J243750D01*
G01*
X125840000Y-79740750D01*
G75*
G02*
X126083750Y-79497000I243750J0D01*
G01*
G37*
G36*
G01*
X116304750Y-68499000D02*
X116867250Y-68499000D01*
G75*
G02*
X117111000Y-68742750I0J-243750D01*
G01*
X117111000Y-69230250D01*
G75*
G02*
X116867250Y-69474000I-243750J0D01*
G01*
X116304750Y-69474000D01*
G75*
G02*
X116061000Y-69230250I0J243750D01*
G01*
X116061000Y-68742750D01*
G75*
G02*
X116304750Y-68499000I243750J0D01*
G01*
G37*
G36*
G01*
X116304750Y-66924000D02*
X116867250Y-66924000D01*
G75*
G02*
X117111000Y-67167750I0J-243750D01*
G01*
X117111000Y-67655250D01*
G75*
G02*
X116867250Y-67899000I-243750J0D01*
G01*
X116304750Y-67899000D01*
G75*
G02*
X116061000Y-67655250I0J243750D01*
G01*
X116061000Y-67167750D01*
G75*
G02*
X116304750Y-66924000I243750J0D01*
G01*
G37*
G36*
G01*
X135227750Y-56561000D02*
X135790250Y-56561000D01*
G75*
G02*
X136034000Y-56804750I0J-243750D01*
G01*
X136034000Y-57292250D01*
G75*
G02*
X135790250Y-57536000I-243750J0D01*
G01*
X135227750Y-57536000D01*
G75*
G02*
X134984000Y-57292250I0J243750D01*
G01*
X134984000Y-56804750D01*
G75*
G02*
X135227750Y-56561000I243750J0D01*
G01*
G37*
G36*
G01*
X135227750Y-54986000D02*
X135790250Y-54986000D01*
G75*
G02*
X136034000Y-55229750I0J-243750D01*
G01*
X136034000Y-55717250D01*
G75*
G02*
X135790250Y-55961000I-243750J0D01*
G01*
X135227750Y-55961000D01*
G75*
G02*
X134984000Y-55717250I0J243750D01*
G01*
X134984000Y-55229750D01*
G75*
G02*
X135227750Y-54986000I243750J0D01*
G01*
G37*
G36*
G01*
X147165750Y-49703000D02*
X147728250Y-49703000D01*
G75*
G02*
X147972000Y-49946750I0J-243750D01*
G01*
X147972000Y-50434250D01*
G75*
G02*
X147728250Y-50678000I-243750J0D01*
G01*
X147165750Y-50678000D01*
G75*
G02*
X146922000Y-50434250I0J243750D01*
G01*
X146922000Y-49946750D01*
G75*
G02*
X147165750Y-49703000I243750J0D01*
G01*
G37*
G36*
G01*
X147165750Y-48128000D02*
X147728250Y-48128000D01*
G75*
G02*
X147972000Y-48371750I0J-243750D01*
G01*
X147972000Y-48859250D01*
G75*
G02*
X147728250Y-49103000I-243750J0D01*
G01*
X147165750Y-49103000D01*
G75*
G02*
X146922000Y-48859250I0J243750D01*
G01*
X146922000Y-48371750D01*
G75*
G02*
X147165750Y-48128000I243750J0D01*
G01*
G37*
G36*
G01*
X113311250Y-122382000D02*
X112748750Y-122382000D01*
G75*
G02*
X112505000Y-122138250I0J243750D01*
G01*
X112505000Y-121650750D01*
G75*
G02*
X112748750Y-121407000I243750J0D01*
G01*
X113311250Y-121407000D01*
G75*
G02*
X113555000Y-121650750I0J-243750D01*
G01*
X113555000Y-122138250D01*
G75*
G02*
X113311250Y-122382000I-243750J0D01*
G01*
G37*
G36*
G01*
X113311250Y-123957000D02*
X112748750Y-123957000D01*
G75*
G02*
X112505000Y-123713250I0J243750D01*
G01*
X112505000Y-123225750D01*
G75*
G02*
X112748750Y-122982000I243750J0D01*
G01*
X113311250Y-122982000D01*
G75*
G02*
X113555000Y-123225750I0J-243750D01*
G01*
X113555000Y-123713250D01*
G75*
G02*
X113311250Y-123957000I-243750J0D01*
G01*
G37*
G36*
G01*
X143664250Y-52659000D02*
X143101750Y-52659000D01*
G75*
G02*
X142858000Y-52415250I0J243750D01*
G01*
X142858000Y-51927750D01*
G75*
G02*
X143101750Y-51684000I243750J0D01*
G01*
X143664250Y-51684000D01*
G75*
G02*
X143908000Y-51927750I0J-243750D01*
G01*
X143908000Y-52415250D01*
G75*
G02*
X143664250Y-52659000I-243750J0D01*
G01*
G37*
G36*
G01*
X143664250Y-54234000D02*
X143101750Y-54234000D01*
G75*
G02*
X142858000Y-53990250I0J243750D01*
G01*
X142858000Y-53502750D01*
G75*
G02*
X143101750Y-53259000I243750J0D01*
G01*
X143664250Y-53259000D01*
G75*
G02*
X143908000Y-53502750I0J-243750D01*
G01*
X143908000Y-53990250D01*
G75*
G02*
X143664250Y-54234000I-243750J0D01*
G01*
G37*
G36*
G01*
X122201250Y-47325000D02*
X121638750Y-47325000D01*
G75*
G02*
X121395000Y-47081250I0J243750D01*
G01*
X121395000Y-46593750D01*
G75*
G02*
X121638750Y-46350000I243750J0D01*
G01*
X122201250Y-46350000D01*
G75*
G02*
X122445000Y-46593750I0J-243750D01*
G01*
X122445000Y-47081250D01*
G75*
G02*
X122201250Y-47325000I-243750J0D01*
G01*
G37*
G36*
G01*
X122201250Y-48900000D02*
X121638750Y-48900000D01*
G75*
G02*
X121395000Y-48656250I0J243750D01*
G01*
X121395000Y-48168750D01*
G75*
G02*
X121638750Y-47925000I243750J0D01*
G01*
X122201250Y-47925000D01*
G75*
G02*
X122445000Y-48168750I0J-243750D01*
G01*
X122445000Y-48656250D01*
G75*
G02*
X122201250Y-48900000I-243750J0D01*
G01*
G37*
G36*
G01*
X143664250Y-49103000D02*
X143101750Y-49103000D01*
G75*
G02*
X142858000Y-48859250I0J243750D01*
G01*
X142858000Y-48371750D01*
G75*
G02*
X143101750Y-48128000I243750J0D01*
G01*
X143664250Y-48128000D01*
G75*
G02*
X143908000Y-48371750I0J-243750D01*
G01*
X143908000Y-48859250D01*
G75*
G02*
X143664250Y-49103000I-243750J0D01*
G01*
G37*
G36*
G01*
X143664250Y-50678000D02*
X143101750Y-50678000D01*
G75*
G02*
X142858000Y-50434250I0J243750D01*
G01*
X142858000Y-49946750D01*
G75*
G02*
X143101750Y-49703000I243750J0D01*
G01*
X143664250Y-49703000D01*
G75*
G02*
X143908000Y-49946750I0J-243750D01*
G01*
X143908000Y-50434250D01*
G75*
G02*
X143664250Y-50678000I-243750J0D01*
G01*
G37*
G36*
G01*
X145696250Y-52659000D02*
X145133750Y-52659000D01*
G75*
G02*
X144890000Y-52415250I0J243750D01*
G01*
X144890000Y-51927750D01*
G75*
G02*
X145133750Y-51684000I243750J0D01*
G01*
X145696250Y-51684000D01*
G75*
G02*
X145940000Y-51927750I0J-243750D01*
G01*
X145940000Y-52415250D01*
G75*
G02*
X145696250Y-52659000I-243750J0D01*
G01*
G37*
G36*
G01*
X145696250Y-54234000D02*
X145133750Y-54234000D01*
G75*
G02*
X144890000Y-53990250I0J243750D01*
G01*
X144890000Y-53502750D01*
G75*
G02*
X145133750Y-53259000I243750J0D01*
G01*
X145696250Y-53259000D01*
G75*
G02*
X145940000Y-53502750I0J-243750D01*
G01*
X145940000Y-53990250D01*
G75*
G02*
X145696250Y-54234000I-243750J0D01*
G01*
G37*
G36*
G01*
X132361250Y-50754000D02*
X131798750Y-50754000D01*
G75*
G02*
X131555000Y-50510250I0J243750D01*
G01*
X131555000Y-50022750D01*
G75*
G02*
X131798750Y-49779000I243750J0D01*
G01*
X132361250Y-49779000D01*
G75*
G02*
X132605000Y-50022750I0J-243750D01*
G01*
X132605000Y-50510250D01*
G75*
G02*
X132361250Y-50754000I-243750J0D01*
G01*
G37*
G36*
G01*
X132361250Y-52329000D02*
X131798750Y-52329000D01*
G75*
G02*
X131555000Y-52085250I0J243750D01*
G01*
X131555000Y-51597750D01*
G75*
G02*
X131798750Y-51354000I243750J0D01*
G01*
X132361250Y-51354000D01*
G75*
G02*
X132605000Y-51597750I0J-243750D01*
G01*
X132605000Y-52085250D01*
G75*
G02*
X132361250Y-52329000I-243750J0D01*
G01*
G37*
G36*
G01*
X127988750Y-51354000D02*
X128551250Y-51354000D01*
G75*
G02*
X128795000Y-51597750I0J-243750D01*
G01*
X128795000Y-52085250D01*
G75*
G02*
X128551250Y-52329000I-243750J0D01*
G01*
X127988750Y-52329000D01*
G75*
G02*
X127745000Y-52085250I0J243750D01*
G01*
X127745000Y-51597750D01*
G75*
G02*
X127988750Y-51354000I243750J0D01*
G01*
G37*
G36*
G01*
X127988750Y-49779000D02*
X128551250Y-49779000D01*
G75*
G02*
X128795000Y-50022750I0J-243750D01*
G01*
X128795000Y-50510250D01*
G75*
G02*
X128551250Y-50754000I-243750J0D01*
G01*
X127988750Y-50754000D01*
G75*
G02*
X127745000Y-50510250I0J243750D01*
G01*
X127745000Y-50022750D01*
G75*
G02*
X127988750Y-49779000I243750J0D01*
G01*
G37*
G36*
G01*
X137259750Y-56561000D02*
X137822250Y-56561000D01*
G75*
G02*
X138066000Y-56804750I0J-243750D01*
G01*
X138066000Y-57292250D01*
G75*
G02*
X137822250Y-57536000I-243750J0D01*
G01*
X137259750Y-57536000D01*
G75*
G02*
X137016000Y-57292250I0J243750D01*
G01*
X137016000Y-56804750D01*
G75*
G02*
X137259750Y-56561000I243750J0D01*
G01*
G37*
G36*
G01*
X137259750Y-54986000D02*
X137822250Y-54986000D01*
G75*
G02*
X138066000Y-55229750I0J-243750D01*
G01*
X138066000Y-55717250D01*
G75*
G02*
X137822250Y-55961000I-243750J0D01*
G01*
X137259750Y-55961000D01*
G75*
G02*
X137016000Y-55717250I0J243750D01*
G01*
X137016000Y-55229750D01*
G75*
G02*
X137259750Y-54986000I243750J0D01*
G01*
G37*
G36*
G01*
X76100250Y-79075000D02*
X75537750Y-79075000D01*
G75*
G02*
X75294000Y-78831250I0J243750D01*
G01*
X75294000Y-78343750D01*
G75*
G02*
X75537750Y-78100000I243750J0D01*
G01*
X76100250Y-78100000D01*
G75*
G02*
X76344000Y-78343750I0J-243750D01*
G01*
X76344000Y-78831250D01*
G75*
G02*
X76100250Y-79075000I-243750J0D01*
G01*
G37*
G36*
G01*
X76100250Y-80650000D02*
X75537750Y-80650000D01*
G75*
G02*
X75294000Y-80406250I0J243750D01*
G01*
X75294000Y-79918750D01*
G75*
G02*
X75537750Y-79675000I243750J0D01*
G01*
X76100250Y-79675000D01*
G75*
G02*
X76344000Y-79918750I0J-243750D01*
G01*
X76344000Y-80406250D01*
G75*
G02*
X76100250Y-80650000I-243750J0D01*
G01*
G37*
G36*
G01*
X88292250Y-70693000D02*
X87729750Y-70693000D01*
G75*
G02*
X87486000Y-70449250I0J243750D01*
G01*
X87486000Y-69961750D01*
G75*
G02*
X87729750Y-69718000I243750J0D01*
G01*
X88292250Y-69718000D01*
G75*
G02*
X88536000Y-69961750I0J-243750D01*
G01*
X88536000Y-70449250D01*
G75*
G02*
X88292250Y-70693000I-243750J0D01*
G01*
G37*
G36*
G01*
X88292250Y-72268000D02*
X87729750Y-72268000D01*
G75*
G02*
X87486000Y-72024250I0J243750D01*
G01*
X87486000Y-71536750D01*
G75*
G02*
X87729750Y-71293000I243750J0D01*
G01*
X88292250Y-71293000D01*
G75*
G02*
X88536000Y-71536750I0J-243750D01*
G01*
X88536000Y-72024250D01*
G75*
G02*
X88292250Y-72268000I-243750J0D01*
G01*
G37*
G36*
G01*
X75537750Y-76246000D02*
X76100250Y-76246000D01*
G75*
G02*
X76344000Y-76489750I0J-243750D01*
G01*
X76344000Y-76977250D01*
G75*
G02*
X76100250Y-77221000I-243750J0D01*
G01*
X75537750Y-77221000D01*
G75*
G02*
X75294000Y-76977250I0J243750D01*
G01*
X75294000Y-76489750D01*
G75*
G02*
X75537750Y-76246000I243750J0D01*
G01*
G37*
G36*
G01*
X75537750Y-74671000D02*
X76100250Y-74671000D01*
G75*
G02*
X76344000Y-74914750I0J-243750D01*
G01*
X76344000Y-75402250D01*
G75*
G02*
X76100250Y-75646000I-243750J0D01*
G01*
X75537750Y-75646000D01*
G75*
G02*
X75294000Y-75402250I0J243750D01*
G01*
X75294000Y-74914750D01*
G75*
G02*
X75537750Y-74671000I243750J0D01*
G01*
G37*
G36*
G01*
X92864250Y-77805000D02*
X92301750Y-77805000D01*
G75*
G02*
X92058000Y-77561250I0J243750D01*
G01*
X92058000Y-77073750D01*
G75*
G02*
X92301750Y-76830000I243750J0D01*
G01*
X92864250Y-76830000D01*
G75*
G02*
X93108000Y-77073750I0J-243750D01*
G01*
X93108000Y-77561250D01*
G75*
G02*
X92864250Y-77805000I-243750J0D01*
G01*
G37*
G36*
G01*
X92864250Y-79380000D02*
X92301750Y-79380000D01*
G75*
G02*
X92058000Y-79136250I0J243750D01*
G01*
X92058000Y-78648750D01*
G75*
G02*
X92301750Y-78405000I243750J0D01*
G01*
X92864250Y-78405000D01*
G75*
G02*
X93108000Y-78648750I0J-243750D01*
G01*
X93108000Y-79136250D01*
G75*
G02*
X92864250Y-79380000I-243750J0D01*
G01*
G37*
G36*
G01*
X90959250Y-74249000D02*
X90396750Y-74249000D01*
G75*
G02*
X90153000Y-74005250I0J243750D01*
G01*
X90153000Y-73517750D01*
G75*
G02*
X90396750Y-73274000I243750J0D01*
G01*
X90959250Y-73274000D01*
G75*
G02*
X91203000Y-73517750I0J-243750D01*
G01*
X91203000Y-74005250D01*
G75*
G02*
X90959250Y-74249000I-243750J0D01*
G01*
G37*
G36*
G01*
X90959250Y-75824000D02*
X90396750Y-75824000D01*
G75*
G02*
X90153000Y-75580250I0J243750D01*
G01*
X90153000Y-75092750D01*
G75*
G02*
X90396750Y-74849000I243750J0D01*
G01*
X90959250Y-74849000D01*
G75*
G02*
X91203000Y-75092750I0J-243750D01*
G01*
X91203000Y-75580250D01*
G75*
G02*
X90959250Y-75824000I-243750J0D01*
G01*
G37*
G36*
G01*
X79910250Y-75646000D02*
X79347750Y-75646000D01*
G75*
G02*
X79104000Y-75402250I0J243750D01*
G01*
X79104000Y-74914750D01*
G75*
G02*
X79347750Y-74671000I243750J0D01*
G01*
X79910250Y-74671000D01*
G75*
G02*
X80154000Y-74914750I0J-243750D01*
G01*
X80154000Y-75402250D01*
G75*
G02*
X79910250Y-75646000I-243750J0D01*
G01*
G37*
G36*
G01*
X79910250Y-77221000D02*
X79347750Y-77221000D01*
G75*
G02*
X79104000Y-76977250I0J243750D01*
G01*
X79104000Y-76489750D01*
G75*
G02*
X79347750Y-76246000I243750J0D01*
G01*
X79910250Y-76246000D01*
G75*
G02*
X80154000Y-76489750I0J-243750D01*
G01*
X80154000Y-76977250D01*
G75*
G02*
X79910250Y-77221000I-243750J0D01*
G01*
G37*
G36*
G01*
X81887750Y-80945000D02*
X82450250Y-80945000D01*
G75*
G02*
X82694000Y-81188750I0J-243750D01*
G01*
X82694000Y-81676250D01*
G75*
G02*
X82450250Y-81920000I-243750J0D01*
G01*
X81887750Y-81920000D01*
G75*
G02*
X81644000Y-81676250I0J243750D01*
G01*
X81644000Y-81188750D01*
G75*
G02*
X81887750Y-80945000I243750J0D01*
G01*
G37*
G36*
G01*
X81887750Y-79370000D02*
X82450250Y-79370000D01*
G75*
G02*
X82694000Y-79613750I0J-243750D01*
G01*
X82694000Y-80101250D01*
G75*
G02*
X82450250Y-80345000I-243750J0D01*
G01*
X81887750Y-80345000D01*
G75*
G02*
X81644000Y-80101250I0J243750D01*
G01*
X81644000Y-79613750D01*
G75*
G02*
X81887750Y-79370000I243750J0D01*
G01*
G37*
G36*
G01*
X95531250Y-67772000D02*
X94968750Y-67772000D01*
G75*
G02*
X94725000Y-67528250I0J243750D01*
G01*
X94725000Y-67040750D01*
G75*
G02*
X94968750Y-66797000I243750J0D01*
G01*
X95531250Y-66797000D01*
G75*
G02*
X95775000Y-67040750I0J-243750D01*
G01*
X95775000Y-67528250D01*
G75*
G02*
X95531250Y-67772000I-243750J0D01*
G01*
G37*
G36*
G01*
X95531250Y-69347000D02*
X94968750Y-69347000D01*
G75*
G02*
X94725000Y-69103250I0J243750D01*
G01*
X94725000Y-68615750D01*
G75*
G02*
X94968750Y-68372000I243750J0D01*
G01*
X95531250Y-68372000D01*
G75*
G02*
X95775000Y-68615750I0J-243750D01*
G01*
X95775000Y-69103250D01*
G75*
G02*
X95531250Y-69347000I-243750J0D01*
G01*
G37*
G36*
G01*
X84808750Y-80945000D02*
X85371250Y-80945000D01*
G75*
G02*
X85615000Y-81188750I0J-243750D01*
G01*
X85615000Y-81676250D01*
G75*
G02*
X85371250Y-81920000I-243750J0D01*
G01*
X84808750Y-81920000D01*
G75*
G02*
X84565000Y-81676250I0J243750D01*
G01*
X84565000Y-81188750D01*
G75*
G02*
X84808750Y-80945000I243750J0D01*
G01*
G37*
G36*
G01*
X84808750Y-79370000D02*
X85371250Y-79370000D01*
G75*
G02*
X85615000Y-79613750I0J-243750D01*
G01*
X85615000Y-80101250D01*
G75*
G02*
X85371250Y-80345000I-243750J0D01*
G01*
X84808750Y-80345000D01*
G75*
G02*
X84565000Y-80101250I0J243750D01*
G01*
X84565000Y-79613750D01*
G75*
G02*
X84808750Y-79370000I243750J0D01*
G01*
G37*
G36*
G01*
X75029750Y-68372000D02*
X75592250Y-68372000D01*
G75*
G02*
X75836000Y-68615750I0J-243750D01*
G01*
X75836000Y-69103250D01*
G75*
G02*
X75592250Y-69347000I-243750J0D01*
G01*
X75029750Y-69347000D01*
G75*
G02*
X74786000Y-69103250I0J243750D01*
G01*
X74786000Y-68615750D01*
G75*
G02*
X75029750Y-68372000I243750J0D01*
G01*
G37*
G36*
G01*
X75029750Y-66797000D02*
X75592250Y-66797000D01*
G75*
G02*
X75836000Y-67040750I0J-243750D01*
G01*
X75836000Y-67528250D01*
G75*
G02*
X75592250Y-67772000I-243750J0D01*
G01*
X75029750Y-67772000D01*
G75*
G02*
X74786000Y-67528250I0J243750D01*
G01*
X74786000Y-67040750D01*
G75*
G02*
X75029750Y-66797000I243750J0D01*
G01*
G37*
G36*
G01*
X93952750Y-56434000D02*
X94515250Y-56434000D01*
G75*
G02*
X94759000Y-56677750I0J-243750D01*
G01*
X94759000Y-57165250D01*
G75*
G02*
X94515250Y-57409000I-243750J0D01*
G01*
X93952750Y-57409000D01*
G75*
G02*
X93709000Y-57165250I0J243750D01*
G01*
X93709000Y-56677750D01*
G75*
G02*
X93952750Y-56434000I243750J0D01*
G01*
G37*
G36*
G01*
X93952750Y-54859000D02*
X94515250Y-54859000D01*
G75*
G02*
X94759000Y-55102750I0J-243750D01*
G01*
X94759000Y-55590250D01*
G75*
G02*
X94515250Y-55834000I-243750J0D01*
G01*
X93952750Y-55834000D01*
G75*
G02*
X93709000Y-55590250I0J243750D01*
G01*
X93709000Y-55102750D01*
G75*
G02*
X93952750Y-54859000I243750J0D01*
G01*
G37*
G36*
G01*
X105255750Y-49957000D02*
X105818250Y-49957000D01*
G75*
G02*
X106062000Y-50200750I0J-243750D01*
G01*
X106062000Y-50688250D01*
G75*
G02*
X105818250Y-50932000I-243750J0D01*
G01*
X105255750Y-50932000D01*
G75*
G02*
X105012000Y-50688250I0J243750D01*
G01*
X105012000Y-50200750D01*
G75*
G02*
X105255750Y-49957000I243750J0D01*
G01*
G37*
G36*
G01*
X105255750Y-48382000D02*
X105818250Y-48382000D01*
G75*
G02*
X106062000Y-48625750I0J-243750D01*
G01*
X106062000Y-49113250D01*
G75*
G02*
X105818250Y-49357000I-243750J0D01*
G01*
X105255750Y-49357000D01*
G75*
G02*
X105012000Y-49113250I0J243750D01*
G01*
X105012000Y-48625750D01*
G75*
G02*
X105255750Y-48382000I243750J0D01*
G01*
G37*
G36*
G01*
X97944250Y-124541000D02*
X97381750Y-124541000D01*
G75*
G02*
X97138000Y-124297250I0J243750D01*
G01*
X97138000Y-123809750D01*
G75*
G02*
X97381750Y-123566000I243750J0D01*
G01*
X97944250Y-123566000D01*
G75*
G02*
X98188000Y-123809750I0J-243750D01*
G01*
X98188000Y-124297250D01*
G75*
G02*
X97944250Y-124541000I-243750J0D01*
G01*
G37*
G36*
G01*
X97944250Y-126116000D02*
X97381750Y-126116000D01*
G75*
G02*
X97138000Y-125872250I0J243750D01*
G01*
X97138000Y-125384750D01*
G75*
G02*
X97381750Y-125141000I243750J0D01*
G01*
X97944250Y-125141000D01*
G75*
G02*
X98188000Y-125384750I0J-243750D01*
G01*
X98188000Y-125872250D01*
G75*
G02*
X97944250Y-126116000I-243750J0D01*
G01*
G37*
G36*
G01*
X101881250Y-52786000D02*
X101318750Y-52786000D01*
G75*
G02*
X101075000Y-52542250I0J243750D01*
G01*
X101075000Y-52054750D01*
G75*
G02*
X101318750Y-51811000I243750J0D01*
G01*
X101881250Y-51811000D01*
G75*
G02*
X102125000Y-52054750I0J-243750D01*
G01*
X102125000Y-52542250D01*
G75*
G02*
X101881250Y-52786000I-243750J0D01*
G01*
G37*
G36*
G01*
X101881250Y-54361000D02*
X101318750Y-54361000D01*
G75*
G02*
X101075000Y-54117250I0J243750D01*
G01*
X101075000Y-53629750D01*
G75*
G02*
X101318750Y-53386000I243750J0D01*
G01*
X101881250Y-53386000D01*
G75*
G02*
X102125000Y-53629750I0J-243750D01*
G01*
X102125000Y-54117250D01*
G75*
G02*
X101881250Y-54361000I-243750J0D01*
G01*
G37*
G36*
G01*
X81180250Y-47452000D02*
X80617750Y-47452000D01*
G75*
G02*
X80374000Y-47208250I0J243750D01*
G01*
X80374000Y-46720750D01*
G75*
G02*
X80617750Y-46477000I243750J0D01*
G01*
X81180250Y-46477000D01*
G75*
G02*
X81424000Y-46720750I0J-243750D01*
G01*
X81424000Y-47208250D01*
G75*
G02*
X81180250Y-47452000I-243750J0D01*
G01*
G37*
G36*
G01*
X81180250Y-49027000D02*
X80617750Y-49027000D01*
G75*
G02*
X80374000Y-48783250I0J243750D01*
G01*
X80374000Y-48295750D01*
G75*
G02*
X80617750Y-48052000I243750J0D01*
G01*
X81180250Y-48052000D01*
G75*
G02*
X81424000Y-48295750I0J-243750D01*
G01*
X81424000Y-48783250D01*
G75*
G02*
X81180250Y-49027000I-243750J0D01*
G01*
G37*
G36*
G01*
X101881250Y-49357000D02*
X101318750Y-49357000D01*
G75*
G02*
X101075000Y-49113250I0J243750D01*
G01*
X101075000Y-48625750D01*
G75*
G02*
X101318750Y-48382000I243750J0D01*
G01*
X101881250Y-48382000D01*
G75*
G02*
X102125000Y-48625750I0J-243750D01*
G01*
X102125000Y-49113250D01*
G75*
G02*
X101881250Y-49357000I-243750J0D01*
G01*
G37*
G36*
G01*
X101881250Y-50932000D02*
X101318750Y-50932000D01*
G75*
G02*
X101075000Y-50688250I0J243750D01*
G01*
X101075000Y-50200750D01*
G75*
G02*
X101318750Y-49957000I243750J0D01*
G01*
X101881250Y-49957000D01*
G75*
G02*
X102125000Y-50200750I0J-243750D01*
G01*
X102125000Y-50688250D01*
G75*
G02*
X101881250Y-50932000I-243750J0D01*
G01*
G37*
G36*
G01*
X103786250Y-52786000D02*
X103223750Y-52786000D01*
G75*
G02*
X102980000Y-52542250I0J243750D01*
G01*
X102980000Y-52054750D01*
G75*
G02*
X103223750Y-51811000I243750J0D01*
G01*
X103786250Y-51811000D01*
G75*
G02*
X104030000Y-52054750I0J-243750D01*
G01*
X104030000Y-52542250D01*
G75*
G02*
X103786250Y-52786000I-243750J0D01*
G01*
G37*
G36*
G01*
X103786250Y-54361000D02*
X103223750Y-54361000D01*
G75*
G02*
X102980000Y-54117250I0J243750D01*
G01*
X102980000Y-53629750D01*
G75*
G02*
X103223750Y-53386000I243750J0D01*
G01*
X103786250Y-53386000D01*
G75*
G02*
X104030000Y-53629750I0J-243750D01*
G01*
X104030000Y-54117250D01*
G75*
G02*
X103786250Y-54361000I-243750J0D01*
G01*
G37*
G36*
G01*
X90959250Y-50881000D02*
X90396750Y-50881000D01*
G75*
G02*
X90153000Y-50637250I0J243750D01*
G01*
X90153000Y-50149750D01*
G75*
G02*
X90396750Y-49906000I243750J0D01*
G01*
X90959250Y-49906000D01*
G75*
G02*
X91203000Y-50149750I0J-243750D01*
G01*
X91203000Y-50637250D01*
G75*
G02*
X90959250Y-50881000I-243750J0D01*
G01*
G37*
G36*
G01*
X90959250Y-52456000D02*
X90396750Y-52456000D01*
G75*
G02*
X90153000Y-52212250I0J243750D01*
G01*
X90153000Y-51724750D01*
G75*
G02*
X90396750Y-51481000I243750J0D01*
G01*
X90959250Y-51481000D01*
G75*
G02*
X91203000Y-51724750I0J-243750D01*
G01*
X91203000Y-52212250D01*
G75*
G02*
X90959250Y-52456000I-243750J0D01*
G01*
G37*
G36*
G01*
X86586750Y-51481000D02*
X87149250Y-51481000D01*
G75*
G02*
X87393000Y-51724750I0J-243750D01*
G01*
X87393000Y-52212250D01*
G75*
G02*
X87149250Y-52456000I-243750J0D01*
G01*
X86586750Y-52456000D01*
G75*
G02*
X86343000Y-52212250I0J243750D01*
G01*
X86343000Y-51724750D01*
G75*
G02*
X86586750Y-51481000I243750J0D01*
G01*
G37*
G36*
G01*
X86586750Y-49906000D02*
X87149250Y-49906000D01*
G75*
G02*
X87393000Y-50149750I0J-243750D01*
G01*
X87393000Y-50637250D01*
G75*
G02*
X87149250Y-50881000I-243750J0D01*
G01*
X86586750Y-50881000D01*
G75*
G02*
X86343000Y-50637250I0J243750D01*
G01*
X86343000Y-50149750D01*
G75*
G02*
X86586750Y-49906000I243750J0D01*
G01*
G37*
G36*
G01*
X95857750Y-56434000D02*
X96420250Y-56434000D01*
G75*
G02*
X96664000Y-56677750I0J-243750D01*
G01*
X96664000Y-57165250D01*
G75*
G02*
X96420250Y-57409000I-243750J0D01*
G01*
X95857750Y-57409000D01*
G75*
G02*
X95614000Y-57165250I0J243750D01*
G01*
X95614000Y-56677750D01*
G75*
G02*
X95857750Y-56434000I243750J0D01*
G01*
G37*
G36*
G01*
X95857750Y-54859000D02*
X96420250Y-54859000D01*
G75*
G02*
X96664000Y-55102750I0J-243750D01*
G01*
X96664000Y-55590250D01*
G75*
G02*
X96420250Y-55834000I-243750J0D01*
G01*
X95857750Y-55834000D01*
G75*
G02*
X95614000Y-55590250I0J243750D01*
G01*
X95614000Y-55102750D01*
G75*
G02*
X95857750Y-54859000I243750J0D01*
G01*
G37*
D20*
X69088000Y-139700000D03*
X71628000Y-139700000D03*
X69088000Y-137160000D03*
X71628000Y-137160000D03*
X69088000Y-134620000D03*
X71628000Y-134620000D03*
X69088000Y-132080000D03*
X71628000Y-132080000D03*
X69088000Y-129540000D03*
D21*
X71628000Y-129540000D03*
G36*
G01*
X208608000Y-73612000D02*
X208608000Y-73962000D01*
G75*
G02*
X208433000Y-74137000I-175000J0D01*
G01*
X206733000Y-74137000D01*
G75*
G02*
X206558000Y-73962000I0J175000D01*
G01*
X206558000Y-73612000D01*
G75*
G02*
X206733000Y-73437000I175000J0D01*
G01*
X208433000Y-73437000D01*
G75*
G02*
X208608000Y-73612000I0J-175000D01*
G01*
G37*
G36*
G01*
X208608000Y-74882000D02*
X208608000Y-75232000D01*
G75*
G02*
X208433000Y-75407000I-175000J0D01*
G01*
X206733000Y-75407000D01*
G75*
G02*
X206558000Y-75232000I0J175000D01*
G01*
X206558000Y-74882000D01*
G75*
G02*
X206733000Y-74707000I175000J0D01*
G01*
X208433000Y-74707000D01*
G75*
G02*
X208608000Y-74882000I0J-175000D01*
G01*
G37*
G36*
G01*
X208608000Y-76152000D02*
X208608000Y-76502000D01*
G75*
G02*
X208433000Y-76677000I-175000J0D01*
G01*
X206733000Y-76677000D01*
G75*
G02*
X206558000Y-76502000I0J175000D01*
G01*
X206558000Y-76152000D01*
G75*
G02*
X206733000Y-75977000I175000J0D01*
G01*
X208433000Y-75977000D01*
G75*
G02*
X208608000Y-76152000I0J-175000D01*
G01*
G37*
G36*
G01*
X208608000Y-77422000D02*
X208608000Y-77772000D01*
G75*
G02*
X208433000Y-77947000I-175000J0D01*
G01*
X206733000Y-77947000D01*
G75*
G02*
X206558000Y-77772000I0J175000D01*
G01*
X206558000Y-77422000D01*
G75*
G02*
X206733000Y-77247000I175000J0D01*
G01*
X208433000Y-77247000D01*
G75*
G02*
X208608000Y-77422000I0J-175000D01*
G01*
G37*
G36*
G01*
X213558000Y-77422000D02*
X213558000Y-77772000D01*
G75*
G02*
X213383000Y-77947000I-175000J0D01*
G01*
X211683000Y-77947000D01*
G75*
G02*
X211508000Y-77772000I0J175000D01*
G01*
X211508000Y-77422000D01*
G75*
G02*
X211683000Y-77247000I175000J0D01*
G01*
X213383000Y-77247000D01*
G75*
G02*
X213558000Y-77422000I0J-175000D01*
G01*
G37*
G36*
G01*
X213558000Y-76152000D02*
X213558000Y-76502000D01*
G75*
G02*
X213383000Y-76677000I-175000J0D01*
G01*
X211683000Y-76677000D01*
G75*
G02*
X211508000Y-76502000I0J175000D01*
G01*
X211508000Y-76152000D01*
G75*
G02*
X211683000Y-75977000I175000J0D01*
G01*
X213383000Y-75977000D01*
G75*
G02*
X213558000Y-76152000I0J-175000D01*
G01*
G37*
G36*
G01*
X213558000Y-74882000D02*
X213558000Y-75232000D01*
G75*
G02*
X213383000Y-75407000I-175000J0D01*
G01*
X211683000Y-75407000D01*
G75*
G02*
X211508000Y-75232000I0J175000D01*
G01*
X211508000Y-74882000D01*
G75*
G02*
X211683000Y-74707000I175000J0D01*
G01*
X213383000Y-74707000D01*
G75*
G02*
X213558000Y-74882000I0J-175000D01*
G01*
G37*
G36*
G01*
X213558000Y-73612000D02*
X213558000Y-73962000D01*
G75*
G02*
X213383000Y-74137000I-175000J0D01*
G01*
X211683000Y-74137000D01*
G75*
G02*
X211508000Y-73962000I0J175000D01*
G01*
X211508000Y-73612000D01*
G75*
G02*
X211683000Y-73437000I175000J0D01*
G01*
X213383000Y-73437000D01*
G75*
G02*
X213558000Y-73612000I0J-175000D01*
G01*
G37*
G36*
G01*
X166952000Y-74374000D02*
X166952000Y-74724000D01*
G75*
G02*
X166777000Y-74899000I-175000J0D01*
G01*
X165077000Y-74899000D01*
G75*
G02*
X164902000Y-74724000I0J175000D01*
G01*
X164902000Y-74374000D01*
G75*
G02*
X165077000Y-74199000I175000J0D01*
G01*
X166777000Y-74199000D01*
G75*
G02*
X166952000Y-74374000I0J-175000D01*
G01*
G37*
G36*
G01*
X166952000Y-75644000D02*
X166952000Y-75994000D01*
G75*
G02*
X166777000Y-76169000I-175000J0D01*
G01*
X165077000Y-76169000D01*
G75*
G02*
X164902000Y-75994000I0J175000D01*
G01*
X164902000Y-75644000D01*
G75*
G02*
X165077000Y-75469000I175000J0D01*
G01*
X166777000Y-75469000D01*
G75*
G02*
X166952000Y-75644000I0J-175000D01*
G01*
G37*
G36*
G01*
X166952000Y-76914000D02*
X166952000Y-77264000D01*
G75*
G02*
X166777000Y-77439000I-175000J0D01*
G01*
X165077000Y-77439000D01*
G75*
G02*
X164902000Y-77264000I0J175000D01*
G01*
X164902000Y-76914000D01*
G75*
G02*
X165077000Y-76739000I175000J0D01*
G01*
X166777000Y-76739000D01*
G75*
G02*
X166952000Y-76914000I0J-175000D01*
G01*
G37*
G36*
G01*
X166952000Y-78184000D02*
X166952000Y-78534000D01*
G75*
G02*
X166777000Y-78709000I-175000J0D01*
G01*
X165077000Y-78709000D01*
G75*
G02*
X164902000Y-78534000I0J175000D01*
G01*
X164902000Y-78184000D01*
G75*
G02*
X165077000Y-78009000I175000J0D01*
G01*
X166777000Y-78009000D01*
G75*
G02*
X166952000Y-78184000I0J-175000D01*
G01*
G37*
G36*
G01*
X171902000Y-78184000D02*
X171902000Y-78534000D01*
G75*
G02*
X171727000Y-78709000I-175000J0D01*
G01*
X170027000Y-78709000D01*
G75*
G02*
X169852000Y-78534000I0J175000D01*
G01*
X169852000Y-78184000D01*
G75*
G02*
X170027000Y-78009000I175000J0D01*
G01*
X171727000Y-78009000D01*
G75*
G02*
X171902000Y-78184000I0J-175000D01*
G01*
G37*
G36*
G01*
X171902000Y-76914000D02*
X171902000Y-77264000D01*
G75*
G02*
X171727000Y-77439000I-175000J0D01*
G01*
X170027000Y-77439000D01*
G75*
G02*
X169852000Y-77264000I0J175000D01*
G01*
X169852000Y-76914000D01*
G75*
G02*
X170027000Y-76739000I175000J0D01*
G01*
X171727000Y-76739000D01*
G75*
G02*
X171902000Y-76914000I0J-175000D01*
G01*
G37*
G36*
G01*
X171902000Y-75644000D02*
X171902000Y-75994000D01*
G75*
G02*
X171727000Y-76169000I-175000J0D01*
G01*
X170027000Y-76169000D01*
G75*
G02*
X169852000Y-75994000I0J175000D01*
G01*
X169852000Y-75644000D01*
G75*
G02*
X170027000Y-75469000I175000J0D01*
G01*
X171727000Y-75469000D01*
G75*
G02*
X171902000Y-75644000I0J-175000D01*
G01*
G37*
G36*
G01*
X171902000Y-74374000D02*
X171902000Y-74724000D01*
G75*
G02*
X171727000Y-74899000I-175000J0D01*
G01*
X170027000Y-74899000D01*
G75*
G02*
X169852000Y-74724000I0J175000D01*
G01*
X169852000Y-74374000D01*
G75*
G02*
X170027000Y-74199000I175000J0D01*
G01*
X171727000Y-74199000D01*
G75*
G02*
X171902000Y-74374000I0J-175000D01*
G01*
G37*
G36*
G01*
X124915000Y-73739000D02*
X124915000Y-74089000D01*
G75*
G02*
X124740000Y-74264000I-175000J0D01*
G01*
X123040000Y-74264000D01*
G75*
G02*
X122865000Y-74089000I0J175000D01*
G01*
X122865000Y-73739000D01*
G75*
G02*
X123040000Y-73564000I175000J0D01*
G01*
X124740000Y-73564000D01*
G75*
G02*
X124915000Y-73739000I0J-175000D01*
G01*
G37*
G36*
G01*
X124915000Y-75009000D02*
X124915000Y-75359000D01*
G75*
G02*
X124740000Y-75534000I-175000J0D01*
G01*
X123040000Y-75534000D01*
G75*
G02*
X122865000Y-75359000I0J175000D01*
G01*
X122865000Y-75009000D01*
G75*
G02*
X123040000Y-74834000I175000J0D01*
G01*
X124740000Y-74834000D01*
G75*
G02*
X124915000Y-75009000I0J-175000D01*
G01*
G37*
G36*
G01*
X124915000Y-76279000D02*
X124915000Y-76629000D01*
G75*
G02*
X124740000Y-76804000I-175000J0D01*
G01*
X123040000Y-76804000D01*
G75*
G02*
X122865000Y-76629000I0J175000D01*
G01*
X122865000Y-76279000D01*
G75*
G02*
X123040000Y-76104000I175000J0D01*
G01*
X124740000Y-76104000D01*
G75*
G02*
X124915000Y-76279000I0J-175000D01*
G01*
G37*
G36*
G01*
X124915000Y-77549000D02*
X124915000Y-77899000D01*
G75*
G02*
X124740000Y-78074000I-175000J0D01*
G01*
X123040000Y-78074000D01*
G75*
G02*
X122865000Y-77899000I0J175000D01*
G01*
X122865000Y-77549000D01*
G75*
G02*
X123040000Y-77374000I175000J0D01*
G01*
X124740000Y-77374000D01*
G75*
G02*
X124915000Y-77549000I0J-175000D01*
G01*
G37*
G36*
G01*
X129865000Y-77549000D02*
X129865000Y-77899000D01*
G75*
G02*
X129690000Y-78074000I-175000J0D01*
G01*
X127990000Y-78074000D01*
G75*
G02*
X127815000Y-77899000I0J175000D01*
G01*
X127815000Y-77549000D01*
G75*
G02*
X127990000Y-77374000I175000J0D01*
G01*
X129690000Y-77374000D01*
G75*
G02*
X129865000Y-77549000I0J-175000D01*
G01*
G37*
G36*
G01*
X129865000Y-76279000D02*
X129865000Y-76629000D01*
G75*
G02*
X129690000Y-76804000I-175000J0D01*
G01*
X127990000Y-76804000D01*
G75*
G02*
X127815000Y-76629000I0J175000D01*
G01*
X127815000Y-76279000D01*
G75*
G02*
X127990000Y-76104000I175000J0D01*
G01*
X129690000Y-76104000D01*
G75*
G02*
X129865000Y-76279000I0J-175000D01*
G01*
G37*
G36*
G01*
X129865000Y-75009000D02*
X129865000Y-75359000D01*
G75*
G02*
X129690000Y-75534000I-175000J0D01*
G01*
X127990000Y-75534000D01*
G75*
G02*
X127815000Y-75359000I0J175000D01*
G01*
X127815000Y-75009000D01*
G75*
G02*
X127990000Y-74834000I175000J0D01*
G01*
X129690000Y-74834000D01*
G75*
G02*
X129865000Y-75009000I0J-175000D01*
G01*
G37*
G36*
G01*
X129865000Y-73739000D02*
X129865000Y-74089000D01*
G75*
G02*
X129690000Y-74264000I-175000J0D01*
G01*
X127990000Y-74264000D01*
G75*
G02*
X127815000Y-74089000I0J175000D01*
G01*
X127815000Y-73739000D01*
G75*
G02*
X127990000Y-73564000I175000J0D01*
G01*
X129690000Y-73564000D01*
G75*
G02*
X129865000Y-73739000I0J-175000D01*
G01*
G37*
G36*
G01*
X83640000Y-73739000D02*
X83640000Y-74089000D01*
G75*
G02*
X83465000Y-74264000I-175000J0D01*
G01*
X81765000Y-74264000D01*
G75*
G02*
X81590000Y-74089000I0J175000D01*
G01*
X81590000Y-73739000D01*
G75*
G02*
X81765000Y-73564000I175000J0D01*
G01*
X83465000Y-73564000D01*
G75*
G02*
X83640000Y-73739000I0J-175000D01*
G01*
G37*
G36*
G01*
X83640000Y-75009000D02*
X83640000Y-75359000D01*
G75*
G02*
X83465000Y-75534000I-175000J0D01*
G01*
X81765000Y-75534000D01*
G75*
G02*
X81590000Y-75359000I0J175000D01*
G01*
X81590000Y-75009000D01*
G75*
G02*
X81765000Y-74834000I175000J0D01*
G01*
X83465000Y-74834000D01*
G75*
G02*
X83640000Y-75009000I0J-175000D01*
G01*
G37*
G36*
G01*
X83640000Y-76279000D02*
X83640000Y-76629000D01*
G75*
G02*
X83465000Y-76804000I-175000J0D01*
G01*
X81765000Y-76804000D01*
G75*
G02*
X81590000Y-76629000I0J175000D01*
G01*
X81590000Y-76279000D01*
G75*
G02*
X81765000Y-76104000I175000J0D01*
G01*
X83465000Y-76104000D01*
G75*
G02*
X83640000Y-76279000I0J-175000D01*
G01*
G37*
G36*
G01*
X83640000Y-77549000D02*
X83640000Y-77899000D01*
G75*
G02*
X83465000Y-78074000I-175000J0D01*
G01*
X81765000Y-78074000D01*
G75*
G02*
X81590000Y-77899000I0J175000D01*
G01*
X81590000Y-77549000D01*
G75*
G02*
X81765000Y-77374000I175000J0D01*
G01*
X83465000Y-77374000D01*
G75*
G02*
X83640000Y-77549000I0J-175000D01*
G01*
G37*
G36*
G01*
X88590000Y-77549000D02*
X88590000Y-77899000D01*
G75*
G02*
X88415000Y-78074000I-175000J0D01*
G01*
X86715000Y-78074000D01*
G75*
G02*
X86540000Y-77899000I0J175000D01*
G01*
X86540000Y-77549000D01*
G75*
G02*
X86715000Y-77374000I175000J0D01*
G01*
X88415000Y-77374000D01*
G75*
G02*
X88590000Y-77549000I0J-175000D01*
G01*
G37*
G36*
G01*
X88590000Y-76279000D02*
X88590000Y-76629000D01*
G75*
G02*
X88415000Y-76804000I-175000J0D01*
G01*
X86715000Y-76804000D01*
G75*
G02*
X86540000Y-76629000I0J175000D01*
G01*
X86540000Y-76279000D01*
G75*
G02*
X86715000Y-76104000I175000J0D01*
G01*
X88415000Y-76104000D01*
G75*
G02*
X88590000Y-76279000I0J-175000D01*
G01*
G37*
G36*
G01*
X88590000Y-75009000D02*
X88590000Y-75359000D01*
G75*
G02*
X88415000Y-75534000I-175000J0D01*
G01*
X86715000Y-75534000D01*
G75*
G02*
X86540000Y-75359000I0J175000D01*
G01*
X86540000Y-75009000D01*
G75*
G02*
X86715000Y-74834000I175000J0D01*
G01*
X88415000Y-74834000D01*
G75*
G02*
X88590000Y-75009000I0J-175000D01*
G01*
G37*
G36*
G01*
X88590000Y-73739000D02*
X88590000Y-74089000D01*
G75*
G02*
X88415000Y-74264000I-175000J0D01*
G01*
X86715000Y-74264000D01*
G75*
G02*
X86540000Y-74089000I0J175000D01*
G01*
X86540000Y-73739000D01*
G75*
G02*
X86715000Y-73564000I175000J0D01*
G01*
X88415000Y-73564000D01*
G75*
G02*
X88590000Y-73739000I0J-175000D01*
G01*
G37*
G36*
G01*
X75646000Y-142085750D02*
X75646000Y-142648250D01*
G75*
G02*
X75402250Y-142892000I-243750J0D01*
G01*
X74914750Y-142892000D01*
G75*
G02*
X74671000Y-142648250I0J243750D01*
G01*
X74671000Y-142085750D01*
G75*
G02*
X74914750Y-141842000I243750J0D01*
G01*
X75402250Y-141842000D01*
G75*
G02*
X75646000Y-142085750I0J-243750D01*
G01*
G37*
G36*
G01*
X77221000Y-142085750D02*
X77221000Y-142648250D01*
G75*
G02*
X76977250Y-142892000I-243750J0D01*
G01*
X76489750Y-142892000D01*
G75*
G02*
X76246000Y-142648250I0J243750D01*
G01*
X76246000Y-142085750D01*
G75*
G02*
X76489750Y-141842000I243750J0D01*
G01*
X76977250Y-141842000D01*
G75*
G02*
X77221000Y-142085750I0J-243750D01*
G01*
G37*
G36*
G01*
X75992000Y-126392250D02*
X75992000Y-125829750D01*
G75*
G02*
X76235750Y-125586000I243750J0D01*
G01*
X76723250Y-125586000D01*
G75*
G02*
X76967000Y-125829750I0J-243750D01*
G01*
X76967000Y-126392250D01*
G75*
G02*
X76723250Y-126636000I-243750J0D01*
G01*
X76235750Y-126636000D01*
G75*
G02*
X75992000Y-126392250I0J243750D01*
G01*
G37*
G36*
G01*
X74417000Y-126392250D02*
X74417000Y-125829750D01*
G75*
G02*
X74660750Y-125586000I243750J0D01*
G01*
X75148250Y-125586000D01*
G75*
G02*
X75392000Y-125829750I0J-243750D01*
G01*
X75392000Y-126392250D01*
G75*
G02*
X75148250Y-126636000I-243750J0D01*
G01*
X74660750Y-126636000D01*
G75*
G02*
X74417000Y-126392250I0J243750D01*
G01*
G37*
D15*
X217805000Y-71120000D03*
D16*
X220345000Y-71120000D03*
D15*
X203536000Y-71120000D03*
D16*
X200996000Y-71120000D03*
D15*
X175768000Y-71120000D03*
D16*
X178308000Y-71120000D03*
D15*
X161290000Y-71120000D03*
D16*
X158750000Y-71120000D03*
D15*
X133350000Y-71120000D03*
D16*
X135890000Y-71120000D03*
D15*
X119126000Y-71120000D03*
D16*
X116586000Y-71120000D03*
D15*
X92710000Y-71120000D03*
D16*
X95250000Y-71120000D03*
D15*
X77851000Y-71120000D03*
D16*
X75311000Y-71120000D03*
G36*
G01*
X210339250Y-69296000D02*
X209776750Y-69296000D01*
G75*
G02*
X209533000Y-69052250I0J243750D01*
G01*
X209533000Y-68564750D01*
G75*
G02*
X209776750Y-68321000I243750J0D01*
G01*
X210339250Y-68321000D01*
G75*
G02*
X210583000Y-68564750I0J-243750D01*
G01*
X210583000Y-69052250D01*
G75*
G02*
X210339250Y-69296000I-243750J0D01*
G01*
G37*
G36*
G01*
X210339250Y-70871000D02*
X209776750Y-70871000D01*
G75*
G02*
X209533000Y-70627250I0J243750D01*
G01*
X209533000Y-70139750D01*
G75*
G02*
X209776750Y-69896000I243750J0D01*
G01*
X210339250Y-69896000D01*
G75*
G02*
X210583000Y-70139750I0J-243750D01*
G01*
X210583000Y-70627250D01*
G75*
G02*
X210339250Y-70871000I-243750J0D01*
G01*
G37*
G36*
G01*
X213323750Y-79964000D02*
X212761250Y-79964000D01*
G75*
G02*
X212517500Y-79720250I0J243750D01*
G01*
X212517500Y-79232750D01*
G75*
G02*
X212761250Y-78989000I243750J0D01*
G01*
X213323750Y-78989000D01*
G75*
G02*
X213567500Y-79232750I0J-243750D01*
G01*
X213567500Y-79720250D01*
G75*
G02*
X213323750Y-79964000I-243750J0D01*
G01*
G37*
G36*
G01*
X213323750Y-81539000D02*
X212761250Y-81539000D01*
G75*
G02*
X212517500Y-81295250I0J243750D01*
G01*
X212517500Y-80807750D01*
G75*
G02*
X212761250Y-80564000I243750J0D01*
G01*
X213323750Y-80564000D01*
G75*
G02*
X213567500Y-80807750I0J-243750D01*
G01*
X213567500Y-81295250D01*
G75*
G02*
X213323750Y-81539000I-243750J0D01*
G01*
G37*
G36*
G01*
X221896250Y-55707000D02*
X221333750Y-55707000D01*
G75*
G02*
X221090000Y-55463250I0J243750D01*
G01*
X221090000Y-54975750D01*
G75*
G02*
X221333750Y-54732000I243750J0D01*
G01*
X221896250Y-54732000D01*
G75*
G02*
X222140000Y-54975750I0J-243750D01*
G01*
X222140000Y-55463250D01*
G75*
G02*
X221896250Y-55707000I-243750J0D01*
G01*
G37*
G36*
G01*
X221896250Y-57282000D02*
X221333750Y-57282000D01*
G75*
G02*
X221090000Y-57038250I0J243750D01*
G01*
X221090000Y-56550750D01*
G75*
G02*
X221333750Y-56307000I243750J0D01*
G01*
X221896250Y-56307000D01*
G75*
G02*
X222140000Y-56550750I0J-243750D01*
G01*
X222140000Y-57038250D01*
G75*
G02*
X221896250Y-57282000I-243750J0D01*
G01*
G37*
G36*
G01*
X207354750Y-70947000D02*
X206792250Y-70947000D01*
G75*
G02*
X206548500Y-70703250I0J243750D01*
G01*
X206548500Y-70215750D01*
G75*
G02*
X206792250Y-69972000I243750J0D01*
G01*
X207354750Y-69972000D01*
G75*
G02*
X207598500Y-70215750I0J-243750D01*
G01*
X207598500Y-70703250D01*
G75*
G02*
X207354750Y-70947000I-243750J0D01*
G01*
G37*
G36*
G01*
X207354750Y-72522000D02*
X206792250Y-72522000D01*
G75*
G02*
X206548500Y-72278250I0J243750D01*
G01*
X206548500Y-71790750D01*
G75*
G02*
X206792250Y-71547000I243750J0D01*
G01*
X207354750Y-71547000D01*
G75*
G02*
X207598500Y-71790750I0J-243750D01*
G01*
X207598500Y-72278250D01*
G75*
G02*
X207354750Y-72522000I-243750J0D01*
G01*
G37*
G36*
G01*
X215927250Y-46753500D02*
X215364750Y-46753500D01*
G75*
G02*
X215121000Y-46509750I0J243750D01*
G01*
X215121000Y-46022250D01*
G75*
G02*
X215364750Y-45778500I243750J0D01*
G01*
X215927250Y-45778500D01*
G75*
G02*
X216171000Y-46022250I0J-243750D01*
G01*
X216171000Y-46509750D01*
G75*
G02*
X215927250Y-46753500I-243750J0D01*
G01*
G37*
G36*
G01*
X215927250Y-48328500D02*
X215364750Y-48328500D01*
G75*
G02*
X215121000Y-48084750I0J243750D01*
G01*
X215121000Y-47597250D01*
G75*
G02*
X215364750Y-47353500I243750J0D01*
G01*
X215927250Y-47353500D01*
G75*
G02*
X216171000Y-47597250I0J-243750D01*
G01*
X216171000Y-48084750D01*
G75*
G02*
X215927250Y-48328500I-243750J0D01*
G01*
G37*
G36*
G01*
X218149750Y-74058500D02*
X217587250Y-74058500D01*
G75*
G02*
X217343500Y-73814750I0J243750D01*
G01*
X217343500Y-73327250D01*
G75*
G02*
X217587250Y-73083500I243750J0D01*
G01*
X218149750Y-73083500D01*
G75*
G02*
X218393500Y-73327250I0J-243750D01*
G01*
X218393500Y-73814750D01*
G75*
G02*
X218149750Y-74058500I-243750J0D01*
G01*
G37*
G36*
G01*
X218149750Y-75633500D02*
X217587250Y-75633500D01*
G75*
G02*
X217343500Y-75389750I0J243750D01*
G01*
X217343500Y-74902250D01*
G75*
G02*
X217587250Y-74658500I243750J0D01*
G01*
X218149750Y-74658500D01*
G75*
G02*
X218393500Y-74902250I0J-243750D01*
G01*
X218393500Y-75389750D01*
G75*
G02*
X218149750Y-75633500I-243750J0D01*
G01*
G37*
G36*
G01*
X202909750Y-75455500D02*
X202347250Y-75455500D01*
G75*
G02*
X202103500Y-75211750I0J243750D01*
G01*
X202103500Y-74724250D01*
G75*
G02*
X202347250Y-74480500I243750J0D01*
G01*
X202909750Y-74480500D01*
G75*
G02*
X203153500Y-74724250I0J-243750D01*
G01*
X203153500Y-75211750D01*
G75*
G02*
X202909750Y-75455500I-243750J0D01*
G01*
G37*
G36*
G01*
X202909750Y-77030500D02*
X202347250Y-77030500D01*
G75*
G02*
X202103500Y-76786750I0J243750D01*
G01*
X202103500Y-76299250D01*
G75*
G02*
X202347250Y-76055500I243750J0D01*
G01*
X202909750Y-76055500D01*
G75*
G02*
X203153500Y-76299250I0J-243750D01*
G01*
X203153500Y-76786750D01*
G75*
G02*
X202909750Y-77030500I-243750J0D01*
G01*
G37*
D13*
X224790000Y-73580000D03*
X224790000Y-68580000D03*
X195580000Y-73580000D03*
X195580000Y-68580000D03*
G36*
G01*
X211482250Y-51262000D02*
X210919750Y-51262000D01*
G75*
G02*
X210676000Y-51018250I0J243750D01*
G01*
X210676000Y-50530750D01*
G75*
G02*
X210919750Y-50287000I243750J0D01*
G01*
X211482250Y-50287000D01*
G75*
G02*
X211726000Y-50530750I0J-243750D01*
G01*
X211726000Y-51018250D01*
G75*
G02*
X211482250Y-51262000I-243750J0D01*
G01*
G37*
G36*
G01*
X211482250Y-52837000D02*
X210919750Y-52837000D01*
G75*
G02*
X210676000Y-52593250I0J243750D01*
G01*
X210676000Y-52105750D01*
G75*
G02*
X210919750Y-51862000I243750J0D01*
G01*
X211482250Y-51862000D01*
G75*
G02*
X211726000Y-52105750I0J-243750D01*
G01*
X211726000Y-52593250D01*
G75*
G02*
X211482250Y-52837000I-243750J0D01*
G01*
G37*
G36*
G01*
X225080250Y-50465000D02*
X225642750Y-50465000D01*
G75*
G02*
X225886500Y-50708750I0J-243750D01*
G01*
X225886500Y-51196250D01*
G75*
G02*
X225642750Y-51440000I-243750J0D01*
G01*
X225080250Y-51440000D01*
G75*
G02*
X224836500Y-51196250I0J243750D01*
G01*
X224836500Y-50708750D01*
G75*
G02*
X225080250Y-50465000I243750J0D01*
G01*
G37*
G36*
G01*
X225080250Y-48890000D02*
X225642750Y-48890000D01*
G75*
G02*
X225886500Y-49133750I0J-243750D01*
G01*
X225886500Y-49621250D01*
G75*
G02*
X225642750Y-49865000I-243750J0D01*
G01*
X225080250Y-49865000D01*
G75*
G02*
X224836500Y-49621250I0J243750D01*
G01*
X224836500Y-49133750D01*
G75*
G02*
X225080250Y-48890000I243750J0D01*
G01*
G37*
G36*
G01*
X168937250Y-69613500D02*
X168374750Y-69613500D01*
G75*
G02*
X168131000Y-69369750I0J243750D01*
G01*
X168131000Y-68882250D01*
G75*
G02*
X168374750Y-68638500I243750J0D01*
G01*
X168937250Y-68638500D01*
G75*
G02*
X169181000Y-68882250I0J-243750D01*
G01*
X169181000Y-69369750D01*
G75*
G02*
X168937250Y-69613500I-243750J0D01*
G01*
G37*
G36*
G01*
X168937250Y-71188500D02*
X168374750Y-71188500D01*
G75*
G02*
X168131000Y-70944750I0J243750D01*
G01*
X168131000Y-70457250D01*
G75*
G02*
X168374750Y-70213500I243750J0D01*
G01*
X168937250Y-70213500D01*
G75*
G02*
X169181000Y-70457250I0J-243750D01*
G01*
X169181000Y-70944750D01*
G75*
G02*
X168937250Y-71188500I-243750J0D01*
G01*
G37*
G36*
G01*
X171794750Y-81107000D02*
X171232250Y-81107000D01*
G75*
G02*
X170988500Y-80863250I0J243750D01*
G01*
X170988500Y-80375750D01*
G75*
G02*
X171232250Y-80132000I243750J0D01*
G01*
X171794750Y-80132000D01*
G75*
G02*
X172038500Y-80375750I0J-243750D01*
G01*
X172038500Y-80863250D01*
G75*
G02*
X171794750Y-81107000I-243750J0D01*
G01*
G37*
G36*
G01*
X171794750Y-82682000D02*
X171232250Y-82682000D01*
G75*
G02*
X170988500Y-82438250I0J243750D01*
G01*
X170988500Y-81950750D01*
G75*
G02*
X171232250Y-81707000I243750J0D01*
G01*
X171794750Y-81707000D01*
G75*
G02*
X172038500Y-81950750I0J-243750D01*
G01*
X172038500Y-82438250D01*
G75*
G02*
X171794750Y-82682000I-243750J0D01*
G01*
G37*
G36*
G01*
X181700750Y-55834000D02*
X181138250Y-55834000D01*
G75*
G02*
X180894500Y-55590250I0J243750D01*
G01*
X180894500Y-55102750D01*
G75*
G02*
X181138250Y-54859000I243750J0D01*
G01*
X181700750Y-54859000D01*
G75*
G02*
X181944500Y-55102750I0J-243750D01*
G01*
X181944500Y-55590250D01*
G75*
G02*
X181700750Y-55834000I-243750J0D01*
G01*
G37*
G36*
G01*
X181700750Y-57409000D02*
X181138250Y-57409000D01*
G75*
G02*
X180894500Y-57165250I0J243750D01*
G01*
X180894500Y-56677750D01*
G75*
G02*
X181138250Y-56434000I243750J0D01*
G01*
X181700750Y-56434000D01*
G75*
G02*
X181944500Y-56677750I0J-243750D01*
G01*
X181944500Y-57165250D01*
G75*
G02*
X181700750Y-57409000I-243750J0D01*
G01*
G37*
G36*
G01*
X165825750Y-71264500D02*
X165263250Y-71264500D01*
G75*
G02*
X165019500Y-71020750I0J243750D01*
G01*
X165019500Y-70533250D01*
G75*
G02*
X165263250Y-70289500I243750J0D01*
G01*
X165825750Y-70289500D01*
G75*
G02*
X166069500Y-70533250I0J-243750D01*
G01*
X166069500Y-71020750D01*
G75*
G02*
X165825750Y-71264500I-243750J0D01*
G01*
G37*
G36*
G01*
X165825750Y-72839500D02*
X165263250Y-72839500D01*
G75*
G02*
X165019500Y-72595750I0J243750D01*
G01*
X165019500Y-72108250D01*
G75*
G02*
X165263250Y-71864500I243750J0D01*
G01*
X165825750Y-71864500D01*
G75*
G02*
X166069500Y-72108250I0J-243750D01*
G01*
X166069500Y-72595750D01*
G75*
G02*
X165825750Y-72839500I-243750J0D01*
G01*
G37*
G36*
G01*
X173382250Y-47261500D02*
X172819750Y-47261500D01*
G75*
G02*
X172576000Y-47017750I0J243750D01*
G01*
X172576000Y-46530250D01*
G75*
G02*
X172819750Y-46286500I243750J0D01*
G01*
X173382250Y-46286500D01*
G75*
G02*
X173626000Y-46530250I0J-243750D01*
G01*
X173626000Y-47017750D01*
G75*
G02*
X173382250Y-47261500I-243750J0D01*
G01*
G37*
G36*
G01*
X173382250Y-48836500D02*
X172819750Y-48836500D01*
G75*
G02*
X172576000Y-48592750I0J243750D01*
G01*
X172576000Y-48105250D01*
G75*
G02*
X172819750Y-47861500I243750J0D01*
G01*
X173382250Y-47861500D01*
G75*
G02*
X173626000Y-48105250I0J-243750D01*
G01*
X173626000Y-48592750D01*
G75*
G02*
X173382250Y-48836500I-243750J0D01*
G01*
G37*
G36*
G01*
X176366750Y-74884000D02*
X175804250Y-74884000D01*
G75*
G02*
X175560500Y-74640250I0J243750D01*
G01*
X175560500Y-74152750D01*
G75*
G02*
X175804250Y-73909000I243750J0D01*
G01*
X176366750Y-73909000D01*
G75*
G02*
X176610500Y-74152750I0J-243750D01*
G01*
X176610500Y-74640250D01*
G75*
G02*
X176366750Y-74884000I-243750J0D01*
G01*
G37*
G36*
G01*
X176366750Y-76459000D02*
X175804250Y-76459000D01*
G75*
G02*
X175560500Y-76215250I0J243750D01*
G01*
X175560500Y-75727750D01*
G75*
G02*
X175804250Y-75484000I243750J0D01*
G01*
X176366750Y-75484000D01*
G75*
G02*
X176610500Y-75727750I0J-243750D01*
G01*
X176610500Y-76215250D01*
G75*
G02*
X176366750Y-76459000I-243750J0D01*
G01*
G37*
G36*
G01*
X160872750Y-76217500D02*
X160310250Y-76217500D01*
G75*
G02*
X160066500Y-75973750I0J243750D01*
G01*
X160066500Y-75486250D01*
G75*
G02*
X160310250Y-75242500I243750J0D01*
G01*
X160872750Y-75242500D01*
G75*
G02*
X161116500Y-75486250I0J-243750D01*
G01*
X161116500Y-75973750D01*
G75*
G02*
X160872750Y-76217500I-243750J0D01*
G01*
G37*
G36*
G01*
X160872750Y-77792500D02*
X160310250Y-77792500D01*
G75*
G02*
X160066500Y-77548750I0J243750D01*
G01*
X160066500Y-77061250D01*
G75*
G02*
X160310250Y-76817500I243750J0D01*
G01*
X160872750Y-76817500D01*
G75*
G02*
X161116500Y-77061250I0J-243750D01*
G01*
X161116500Y-77548750D01*
G75*
G02*
X160872750Y-77792500I-243750J0D01*
G01*
G37*
X182880000Y-73580000D03*
X182880000Y-68580000D03*
X153670000Y-73580000D03*
X153670000Y-68580000D03*
G36*
G01*
X171350250Y-50881000D02*
X170787750Y-50881000D01*
G75*
G02*
X170544000Y-50637250I0J243750D01*
G01*
X170544000Y-50149750D01*
G75*
G02*
X170787750Y-49906000I243750J0D01*
G01*
X171350250Y-49906000D01*
G75*
G02*
X171594000Y-50149750I0J-243750D01*
G01*
X171594000Y-50637250D01*
G75*
G02*
X171350250Y-50881000I-243750J0D01*
G01*
G37*
G36*
G01*
X171350250Y-52456000D02*
X170787750Y-52456000D01*
G75*
G02*
X170544000Y-52212250I0J243750D01*
G01*
X170544000Y-51724750D01*
G75*
G02*
X170787750Y-51481000I243750J0D01*
G01*
X171350250Y-51481000D01*
G75*
G02*
X171594000Y-51724750I0J-243750D01*
G01*
X171594000Y-52212250D01*
G75*
G02*
X171350250Y-52456000I-243750J0D01*
G01*
G37*
G36*
G01*
X186535750Y-50084000D02*
X187098250Y-50084000D01*
G75*
G02*
X187342000Y-50327750I0J-243750D01*
G01*
X187342000Y-50815250D01*
G75*
G02*
X187098250Y-51059000I-243750J0D01*
G01*
X186535750Y-51059000D01*
G75*
G02*
X186292000Y-50815250I0J243750D01*
G01*
X186292000Y-50327750D01*
G75*
G02*
X186535750Y-50084000I243750J0D01*
G01*
G37*
G36*
G01*
X186535750Y-48509000D02*
X187098250Y-48509000D01*
G75*
G02*
X187342000Y-48752750I0J-243750D01*
G01*
X187342000Y-49240250D01*
G75*
G02*
X187098250Y-49484000I-243750J0D01*
G01*
X186535750Y-49484000D01*
G75*
G02*
X186292000Y-49240250I0J243750D01*
G01*
X186292000Y-48752750D01*
G75*
G02*
X186535750Y-48509000I243750J0D01*
G01*
G37*
G36*
G01*
X126392250Y-68915000D02*
X125829750Y-68915000D01*
G75*
G02*
X125586000Y-68671250I0J243750D01*
G01*
X125586000Y-68183750D01*
G75*
G02*
X125829750Y-67940000I243750J0D01*
G01*
X126392250Y-67940000D01*
G75*
G02*
X126636000Y-68183750I0J-243750D01*
G01*
X126636000Y-68671250D01*
G75*
G02*
X126392250Y-68915000I-243750J0D01*
G01*
G37*
G36*
G01*
X126392250Y-70490000D02*
X125829750Y-70490000D01*
G75*
G02*
X125586000Y-70246250I0J243750D01*
G01*
X125586000Y-69758750D01*
G75*
G02*
X125829750Y-69515000I243750J0D01*
G01*
X126392250Y-69515000D01*
G75*
G02*
X126636000Y-69758750I0J-243750D01*
G01*
X126636000Y-70246250D01*
G75*
G02*
X126392250Y-70490000I-243750J0D01*
G01*
G37*
G36*
G01*
X129567250Y-80472000D02*
X129004750Y-80472000D01*
G75*
G02*
X128761000Y-80228250I0J243750D01*
G01*
X128761000Y-79740750D01*
G75*
G02*
X129004750Y-79497000I243750J0D01*
G01*
X129567250Y-79497000D01*
G75*
G02*
X129811000Y-79740750I0J-243750D01*
G01*
X129811000Y-80228250D01*
G75*
G02*
X129567250Y-80472000I-243750J0D01*
G01*
G37*
G36*
G01*
X129567250Y-82047000D02*
X129004750Y-82047000D01*
G75*
G02*
X128761000Y-81803250I0J243750D01*
G01*
X128761000Y-81315750D01*
G75*
G02*
X129004750Y-81072000I243750J0D01*
G01*
X129567250Y-81072000D01*
G75*
G02*
X129811000Y-81315750I0J-243750D01*
G01*
X129811000Y-81803250D01*
G75*
G02*
X129567250Y-82047000I-243750J0D01*
G01*
G37*
G36*
G01*
X139854250Y-55961000D02*
X139291750Y-55961000D01*
G75*
G02*
X139048000Y-55717250I0J243750D01*
G01*
X139048000Y-55229750D01*
G75*
G02*
X139291750Y-54986000I243750J0D01*
G01*
X139854250Y-54986000D01*
G75*
G02*
X140098000Y-55229750I0J-243750D01*
G01*
X140098000Y-55717250D01*
G75*
G02*
X139854250Y-55961000I-243750J0D01*
G01*
G37*
G36*
G01*
X139854250Y-57536000D02*
X139291750Y-57536000D01*
G75*
G02*
X139048000Y-57292250I0J243750D01*
G01*
X139048000Y-56804750D01*
G75*
G02*
X139291750Y-56561000I243750J0D01*
G01*
X139854250Y-56561000D01*
G75*
G02*
X140098000Y-56804750I0J-243750D01*
G01*
X140098000Y-57292250D01*
G75*
G02*
X139854250Y-57536000I-243750J0D01*
G01*
G37*
G36*
G01*
X123725250Y-70693000D02*
X123162750Y-70693000D01*
G75*
G02*
X122919000Y-70449250I0J243750D01*
G01*
X122919000Y-69961750D01*
G75*
G02*
X123162750Y-69718000I243750J0D01*
G01*
X123725250Y-69718000D01*
G75*
G02*
X123969000Y-69961750I0J-243750D01*
G01*
X123969000Y-70449250D01*
G75*
G02*
X123725250Y-70693000I-243750J0D01*
G01*
G37*
G36*
G01*
X123725250Y-72268000D02*
X123162750Y-72268000D01*
G75*
G02*
X122919000Y-72024250I0J243750D01*
G01*
X122919000Y-71536750D01*
G75*
G02*
X123162750Y-71293000I243750J0D01*
G01*
X123725250Y-71293000D01*
G75*
G02*
X123969000Y-71536750I0J-243750D01*
G01*
X123969000Y-72024250D01*
G75*
G02*
X123725250Y-72268000I-243750J0D01*
G01*
G37*
G36*
G01*
X132361250Y-47325000D02*
X131798750Y-47325000D01*
G75*
G02*
X131555000Y-47081250I0J243750D01*
G01*
X131555000Y-46593750D01*
G75*
G02*
X131798750Y-46350000I243750J0D01*
G01*
X132361250Y-46350000D01*
G75*
G02*
X132605000Y-46593750I0J-243750D01*
G01*
X132605000Y-47081250D01*
G75*
G02*
X132361250Y-47325000I-243750J0D01*
G01*
G37*
G36*
G01*
X132361250Y-48900000D02*
X131798750Y-48900000D01*
G75*
G02*
X131555000Y-48656250I0J243750D01*
G01*
X131555000Y-48168750D01*
G75*
G02*
X131798750Y-47925000I243750J0D01*
G01*
X132361250Y-47925000D01*
G75*
G02*
X132605000Y-48168750I0J-243750D01*
G01*
X132605000Y-48656250D01*
G75*
G02*
X132361250Y-48900000I-243750J0D01*
G01*
G37*
G36*
G01*
X134520250Y-74122000D02*
X133957750Y-74122000D01*
G75*
G02*
X133714000Y-73878250I0J243750D01*
G01*
X133714000Y-73390750D01*
G75*
G02*
X133957750Y-73147000I243750J0D01*
G01*
X134520250Y-73147000D01*
G75*
G02*
X134764000Y-73390750I0J-243750D01*
G01*
X134764000Y-73878250D01*
G75*
G02*
X134520250Y-74122000I-243750J0D01*
G01*
G37*
G36*
G01*
X134520250Y-75697000D02*
X133957750Y-75697000D01*
G75*
G02*
X133714000Y-75453250I0J243750D01*
G01*
X133714000Y-74965750D01*
G75*
G02*
X133957750Y-74722000I243750J0D01*
G01*
X134520250Y-74722000D01*
G75*
G02*
X134764000Y-74965750I0J-243750D01*
G01*
X134764000Y-75453250D01*
G75*
G02*
X134520250Y-75697000I-243750J0D01*
G01*
G37*
G36*
G01*
X118899250Y-75519000D02*
X118336750Y-75519000D01*
G75*
G02*
X118093000Y-75275250I0J243750D01*
G01*
X118093000Y-74787750D01*
G75*
G02*
X118336750Y-74544000I243750J0D01*
G01*
X118899250Y-74544000D01*
G75*
G02*
X119143000Y-74787750I0J-243750D01*
G01*
X119143000Y-75275250D01*
G75*
G02*
X118899250Y-75519000I-243750J0D01*
G01*
G37*
G36*
G01*
X118899250Y-77094000D02*
X118336750Y-77094000D01*
G75*
G02*
X118093000Y-76850250I0J243750D01*
G01*
X118093000Y-76362750D01*
G75*
G02*
X118336750Y-76119000I243750J0D01*
G01*
X118899250Y-76119000D01*
G75*
G02*
X119143000Y-76362750I0J-243750D01*
G01*
X119143000Y-76850250D01*
G75*
G02*
X118899250Y-77094000I-243750J0D01*
G01*
G37*
X140970000Y-73580000D03*
X140970000Y-68580000D03*
X111760000Y-73580000D03*
X111760000Y-68580000D03*
G36*
G01*
X130456250Y-50754000D02*
X129893750Y-50754000D01*
G75*
G02*
X129650000Y-50510250I0J243750D01*
G01*
X129650000Y-50022750D01*
G75*
G02*
X129893750Y-49779000I243750J0D01*
G01*
X130456250Y-49779000D01*
G75*
G02*
X130700000Y-50022750I0J-243750D01*
G01*
X130700000Y-50510250D01*
G75*
G02*
X130456250Y-50754000I-243750J0D01*
G01*
G37*
G36*
G01*
X130456250Y-52329000D02*
X129893750Y-52329000D01*
G75*
G02*
X129650000Y-52085250I0J243750D01*
G01*
X129650000Y-51597750D01*
G75*
G02*
X129893750Y-51354000I243750J0D01*
G01*
X130456250Y-51354000D01*
G75*
G02*
X130700000Y-51597750I0J-243750D01*
G01*
X130700000Y-52085250D01*
G75*
G02*
X130456250Y-52329000I-243750J0D01*
G01*
G37*
G36*
G01*
X145133750Y-49703000D02*
X145696250Y-49703000D01*
G75*
G02*
X145940000Y-49946750I0J-243750D01*
G01*
X145940000Y-50434250D01*
G75*
G02*
X145696250Y-50678000I-243750J0D01*
G01*
X145133750Y-50678000D01*
G75*
G02*
X144890000Y-50434250I0J243750D01*
G01*
X144890000Y-49946750D01*
G75*
G02*
X145133750Y-49703000I243750J0D01*
G01*
G37*
G36*
G01*
X145133750Y-48128000D02*
X145696250Y-48128000D01*
G75*
G02*
X145940000Y-48371750I0J-243750D01*
G01*
X145940000Y-48859250D01*
G75*
G02*
X145696250Y-49103000I-243750J0D01*
G01*
X145133750Y-49103000D01*
G75*
G02*
X144890000Y-48859250I0J243750D01*
G01*
X144890000Y-48371750D01*
G75*
G02*
X145133750Y-48128000I243750J0D01*
G01*
G37*
G36*
G01*
X85371250Y-69042000D02*
X84808750Y-69042000D01*
G75*
G02*
X84565000Y-68798250I0J243750D01*
G01*
X84565000Y-68310750D01*
G75*
G02*
X84808750Y-68067000I243750J0D01*
G01*
X85371250Y-68067000D01*
G75*
G02*
X85615000Y-68310750I0J-243750D01*
G01*
X85615000Y-68798250D01*
G75*
G02*
X85371250Y-69042000I-243750J0D01*
G01*
G37*
G36*
G01*
X85371250Y-70617000D02*
X84808750Y-70617000D01*
G75*
G02*
X84565000Y-70373250I0J243750D01*
G01*
X84565000Y-69885750D01*
G75*
G02*
X84808750Y-69642000I243750J0D01*
G01*
X85371250Y-69642000D01*
G75*
G02*
X85615000Y-69885750I0J-243750D01*
G01*
X85615000Y-70373250D01*
G75*
G02*
X85371250Y-70617000I-243750J0D01*
G01*
G37*
G36*
G01*
X88292250Y-80345000D02*
X87729750Y-80345000D01*
G75*
G02*
X87486000Y-80101250I0J243750D01*
G01*
X87486000Y-79613750D01*
G75*
G02*
X87729750Y-79370000I243750J0D01*
G01*
X88292250Y-79370000D01*
G75*
G02*
X88536000Y-79613750I0J-243750D01*
G01*
X88536000Y-80101250D01*
G75*
G02*
X88292250Y-80345000I-243750J0D01*
G01*
G37*
G36*
G01*
X88292250Y-81920000D02*
X87729750Y-81920000D01*
G75*
G02*
X87486000Y-81676250I0J243750D01*
G01*
X87486000Y-81188750D01*
G75*
G02*
X87729750Y-80945000I243750J0D01*
G01*
X88292250Y-80945000D01*
G75*
G02*
X88536000Y-81188750I0J-243750D01*
G01*
X88536000Y-81676250D01*
G75*
G02*
X88292250Y-81920000I-243750J0D01*
G01*
G37*
G36*
G01*
X98325250Y-55834000D02*
X97762750Y-55834000D01*
G75*
G02*
X97519000Y-55590250I0J243750D01*
G01*
X97519000Y-55102750D01*
G75*
G02*
X97762750Y-54859000I243750J0D01*
G01*
X98325250Y-54859000D01*
G75*
G02*
X98569000Y-55102750I0J-243750D01*
G01*
X98569000Y-55590250D01*
G75*
G02*
X98325250Y-55834000I-243750J0D01*
G01*
G37*
G36*
G01*
X98325250Y-57409000D02*
X97762750Y-57409000D01*
G75*
G02*
X97519000Y-57165250I0J243750D01*
G01*
X97519000Y-56677750D01*
G75*
G02*
X97762750Y-56434000I243750J0D01*
G01*
X98325250Y-56434000D01*
G75*
G02*
X98569000Y-56677750I0J-243750D01*
G01*
X98569000Y-57165250D01*
G75*
G02*
X98325250Y-57409000I-243750J0D01*
G01*
G37*
G36*
G01*
X82450250Y-70693000D02*
X81887750Y-70693000D01*
G75*
G02*
X81644000Y-70449250I0J243750D01*
G01*
X81644000Y-69961750D01*
G75*
G02*
X81887750Y-69718000I243750J0D01*
G01*
X82450250Y-69718000D01*
G75*
G02*
X82694000Y-69961750I0J-243750D01*
G01*
X82694000Y-70449250D01*
G75*
G02*
X82450250Y-70693000I-243750J0D01*
G01*
G37*
G36*
G01*
X82450250Y-72268000D02*
X81887750Y-72268000D01*
G75*
G02*
X81644000Y-72024250I0J243750D01*
G01*
X81644000Y-71536750D01*
G75*
G02*
X81887750Y-71293000I243750J0D01*
G01*
X82450250Y-71293000D01*
G75*
G02*
X82694000Y-71536750I0J-243750D01*
G01*
X82694000Y-72024250D01*
G75*
G02*
X82450250Y-72268000I-243750J0D01*
G01*
G37*
G36*
G01*
X90959250Y-47452000D02*
X90396750Y-47452000D01*
G75*
G02*
X90153000Y-47208250I0J243750D01*
G01*
X90153000Y-46720750D01*
G75*
G02*
X90396750Y-46477000I243750J0D01*
G01*
X90959250Y-46477000D01*
G75*
G02*
X91203000Y-46720750I0J-243750D01*
G01*
X91203000Y-47208250D01*
G75*
G02*
X90959250Y-47452000I-243750J0D01*
G01*
G37*
G36*
G01*
X90959250Y-49027000D02*
X90396750Y-49027000D01*
G75*
G02*
X90153000Y-48783250I0J243750D01*
G01*
X90153000Y-48295750D01*
G75*
G02*
X90396750Y-48052000I243750J0D01*
G01*
X90959250Y-48052000D01*
G75*
G02*
X91203000Y-48295750I0J-243750D01*
G01*
X91203000Y-48783250D01*
G75*
G02*
X90959250Y-49027000I-243750J0D01*
G01*
G37*
G36*
G01*
X92864250Y-74249000D02*
X92301750Y-74249000D01*
G75*
G02*
X92058000Y-74005250I0J243750D01*
G01*
X92058000Y-73517750D01*
G75*
G02*
X92301750Y-73274000I243750J0D01*
G01*
X92864250Y-73274000D01*
G75*
G02*
X93108000Y-73517750I0J-243750D01*
G01*
X93108000Y-74005250D01*
G75*
G02*
X92864250Y-74249000I-243750J0D01*
G01*
G37*
G36*
G01*
X92864250Y-75824000D02*
X92301750Y-75824000D01*
G75*
G02*
X92058000Y-75580250I0J243750D01*
G01*
X92058000Y-75092750D01*
G75*
G02*
X92301750Y-74849000I243750J0D01*
G01*
X92864250Y-74849000D01*
G75*
G02*
X93108000Y-75092750I0J-243750D01*
G01*
X93108000Y-75580250D01*
G75*
G02*
X92864250Y-75824000I-243750J0D01*
G01*
G37*
G36*
G01*
X78005250Y-75646000D02*
X77442750Y-75646000D01*
G75*
G02*
X77199000Y-75402250I0J243750D01*
G01*
X77199000Y-74914750D01*
G75*
G02*
X77442750Y-74671000I243750J0D01*
G01*
X78005250Y-74671000D01*
G75*
G02*
X78249000Y-74914750I0J-243750D01*
G01*
X78249000Y-75402250D01*
G75*
G02*
X78005250Y-75646000I-243750J0D01*
G01*
G37*
G36*
G01*
X78005250Y-77221000D02*
X77442750Y-77221000D01*
G75*
G02*
X77199000Y-76977250I0J243750D01*
G01*
X77199000Y-76489750D01*
G75*
G02*
X77442750Y-76246000I243750J0D01*
G01*
X78005250Y-76246000D01*
G75*
G02*
X78249000Y-76489750I0J-243750D01*
G01*
X78249000Y-76977250D01*
G75*
G02*
X78005250Y-77221000I-243750J0D01*
G01*
G37*
X99949000Y-73453000D03*
X99949000Y-68453000D03*
X70358000Y-73580000D03*
X70358000Y-68580000D03*
G36*
G01*
X89054250Y-50881000D02*
X88491750Y-50881000D01*
G75*
G02*
X88248000Y-50637250I0J243750D01*
G01*
X88248000Y-50149750D01*
G75*
G02*
X88491750Y-49906000I243750J0D01*
G01*
X89054250Y-49906000D01*
G75*
G02*
X89298000Y-50149750I0J-243750D01*
G01*
X89298000Y-50637250D01*
G75*
G02*
X89054250Y-50881000I-243750J0D01*
G01*
G37*
G36*
G01*
X89054250Y-52456000D02*
X88491750Y-52456000D01*
G75*
G02*
X88248000Y-52212250I0J243750D01*
G01*
X88248000Y-51724750D01*
G75*
G02*
X88491750Y-51481000I243750J0D01*
G01*
X89054250Y-51481000D01*
G75*
G02*
X89298000Y-51724750I0J-243750D01*
G01*
X89298000Y-52212250D01*
G75*
G02*
X89054250Y-52456000I-243750J0D01*
G01*
G37*
G36*
G01*
X103223750Y-49957000D02*
X103786250Y-49957000D01*
G75*
G02*
X104030000Y-50200750I0J-243750D01*
G01*
X104030000Y-50688250D01*
G75*
G02*
X103786250Y-50932000I-243750J0D01*
G01*
X103223750Y-50932000D01*
G75*
G02*
X102980000Y-50688250I0J243750D01*
G01*
X102980000Y-50200750D01*
G75*
G02*
X103223750Y-49957000I243750J0D01*
G01*
G37*
G36*
G01*
X103223750Y-48382000D02*
X103786250Y-48382000D01*
G75*
G02*
X104030000Y-48625750I0J-243750D01*
G01*
X104030000Y-49113250D01*
G75*
G02*
X103786250Y-49357000I-243750J0D01*
G01*
X103223750Y-49357000D01*
G75*
G02*
X102980000Y-49113250I0J243750D01*
G01*
X102980000Y-48625750D01*
G75*
G02*
X103223750Y-48382000I243750J0D01*
G01*
G37*
M02*
