M48
; DRILL file {KiCad (5.1.6-0-10_14)} date Tuesday, March 15, 2022 at 09:33:32 AM
; FORMAT={-:-/ absolute / inch / decimal}
; #@! TF.CreationDate,2022-03-15T09:33:32+00:00
; #@! TF.GenerationSoftware,Kicad,Pcbnew,(5.1.6-0-10_14)
; #@! TF.FileFunction,Plated,1,2,PTH
FMAT,2
INCH
T1C0.0157
T2C0.0315
T3C0.0354
T4C0.0394
T5C0.0630
T6C0.0709
T7C0.0728
%
G90
G05
T1
X3.02Y-2.6525
X3.0725Y-3.445
X3.175Y-3.0591
X3.225Y-3.4975
X3.295Y-3.2525
X3.375Y-3.3075
X3.38Y-3.5125
X3.4925Y-3.5225
X3.505Y-3.335
X3.53Y-3.0625
X3.565Y-2.8325
X3.58Y-2.62
X3.7325Y-2.4625
X3.7525Y-4.105
X3.8775Y-2.3325
X3.9075Y-2.4875
X3.9275Y-4.6575
X3.94Y-2.17
X4.0275Y-2.2
X4.105Y-5.1
X4.125Y-4.6275
X4.19Y-4.68
X4.255Y-2.0475
X4.34Y-4.66
X4.3675Y-4.465
X4.445Y-2.795
X4.585Y-4.6525
X4.61Y-4.4525
X4.68Y-2.6575
X4.685Y-3.455
X4.7925Y-3.0561
X4.89Y-2.5775
X4.8925Y-2.71
X4.95Y-3.5625
X4.9525Y-3.3275
X5.0625Y-3.355
X5.0625Y-3.56
X5.1525Y-3.5475
X5.1625Y-3.0575
X5.1925Y-4.1075
X5.195Y-3.39
X5.3425Y-2.4575
X5.525Y-2.4375
X5.5825Y-2.17
X5.6725Y-2.205
X6.115Y-2.7725
X6.325Y-2.6625
X6.3475Y-3.4525
X6.4525Y-3.0811
X6.625Y-3.3525
X6.7254Y-3.3775
X6.805Y-3.085
X6.835Y-3.6025
X6.9325Y-4.2
X6.9375Y-1.8225
X7.12Y-1.8525
X7.2Y-2.475
X7.2225Y-2.1775
X7.24Y-4.665
X7.285Y-2.3425
X7.3025Y-2.19
X7.4425Y-4.4725
X7.445Y-4.635
X7.4975Y-2.3475
X7.51Y-4.6275
X7.51Y-5.135
X7.5775Y-2.0625
X7.635Y-4.695
X7.7725Y-2.7875
X7.9Y-4.4775
X7.9075Y-4.665
X7.98Y-2.6975
X8.0075Y-3.445
X8.1025Y-3.0511
X8.2525Y-3.4975
X8.2725Y-3.31
X8.3925Y-3.3625
X8.4Y-3.5025
X8.445Y-3.055
X8.4875Y-2.8175
X8.4975Y-2.6325
X8.5Y-3.3725
X8.5075Y-3.075
X8.5075Y-3.575
X8.5275Y-2.1515
X8.5375Y-2.3625
X8.555Y-4.1075
X8.6Y-2.4925
X8.615Y-1.9175
X8.69Y-2.295
X8.745Y-2.66
X8.81Y-2.2275
X8.845Y-2.185
T2
X8.685Y-4.25
X8.785Y-4.25
X8.885Y-4.25
X2.75Y-4.25
X2.85Y-4.25
X2.95Y-4.25
X8.85Y-2.7
X8.85Y-2.8969
X3.25Y-3.9
X3.3Y-3.7
X3.35Y-1.9
X3.35Y-3.8
X3.35Y-3.9
X3.4Y-3.7
X3.45Y-3.9
X5.55Y-2.7
X5.55Y-2.8969
X3.75Y-4.25
X3.85Y-4.25
X3.95Y-4.25
X6.05Y-2.7
X6.05Y-2.8969
X7.685Y-1.9
X7.785Y-1.9
X7.885Y-1.9
X7.035Y-3.65
X7.135Y-3.65
X7.235Y-3.65
X7.0866Y-3.955
X7.185Y-3.955
X5.37Y-4.25
X5.47Y-4.25
X5.57Y-4.25
X7.685Y-4.25
X7.785Y-4.25
X7.885Y-4.25
X7.2Y-2.7
X7.2Y-2.8969
X8.7366Y-3.96
X8.835Y-3.96
X8.1894Y-3.9
X8.2394Y-3.7
X8.2894Y-1.9
X8.2894Y-3.8
X8.2894Y-3.9
X8.3394Y-3.7
X8.3894Y-3.9
X2.75Y-1.9
X2.85Y-1.9
X2.95Y-1.9
X4.37Y-4.25
X4.47Y-4.25
X4.57Y-4.25
X2.77Y-2.7
X2.77Y-2.8969
X2.6966Y-4.83
X2.795Y-4.83
X3.75Y-3.65
X3.85Y-3.65
X3.95Y-3.65
X4.37Y-1.9
X4.47Y-1.9
X4.57Y-1.9
X8.685Y-3.65
X8.785Y-3.65
X8.885Y-3.65
X5.4266Y-3.96
X5.525Y-3.96
X3.935Y-2.695
X3.935Y-2.8919
X7.035Y-4.25
X7.135Y-4.25
X7.235Y-4.25
X7.7Y-2.7
X7.7Y-2.8969
X3.8016Y-3.97
X3.9Y-3.97
X5.37Y-3.65
X5.47Y-3.65
X5.57Y-3.65
X4.4Y-2.7
X4.4Y-2.8969
X4.8667Y-3.9
X4.9167Y-3.7
X4.9667Y-1.9
X4.9667Y-3.8
X4.9667Y-3.9
X5.0167Y-3.7
X5.0667Y-3.9
X6.5333Y-3.9
X6.5833Y-3.7
X6.6333Y-1.9
X6.6333Y-3.8
X6.6333Y-3.9
X6.6833Y-3.7
X6.7333Y-3.9
X6.035Y-1.9
X6.135Y-1.9
X6.235Y-1.9
X6.035Y-4.25
X6.135Y-4.25
X6.235Y-4.25
X2.8266Y-4.57
X2.925Y-4.57
T3
X6.25Y-2.8
X6.92Y-2.8
X7.02Y-2.8
X7.9132Y-2.8
X8.0132Y-2.8
X4.59Y-2.8
X4.69Y-2.8
X8.575Y-2.8
X8.675Y-2.8
X5.25Y-2.8
X5.35Y-2.8
X2.965Y-2.8
X3.065Y-2.8
X6.35Y-2.8
X3.65Y-2.8
X3.75Y-2.8
T4
X8.5916Y-2.5528
X8.69Y-2.5528
X8.7884Y-2.5528
X3.6666Y-2.5453
X3.765Y-2.5453
X3.8634Y-2.5453
X6.1016Y-3.4953
X6.2Y-3.4953
X6.2984Y-3.4953
X4.4516Y-2.5453
X4.55Y-2.5453
X4.6484Y-2.5453
X4.4516Y-3.4953
X4.55Y-3.4953
X4.6484Y-3.4953
X5.3016Y-3.4953
X5.4Y-3.4953
X5.4984Y-3.4953
X6.9516Y-2.5453
X7.05Y-2.5453
X7.1484Y-2.5453
X8.6016Y-3.4953
X8.7Y-3.4953
X8.7984Y-3.4953
X7.7709Y-2.5453
X7.8693Y-2.5453
X7.9677Y-2.5453
X2.72Y-5.1
X2.72Y-5.2
X2.72Y-5.3
X2.72Y-5.4
X2.72Y-5.5
X2.82Y-5.1
X2.82Y-5.2
X2.82Y-5.3
X2.82Y-5.4
X2.82Y-5.5
X2.8316Y-2.5453
X2.93Y-2.5453
X3.0284Y-2.5453
X2.8316Y-3.4953
X2.93Y-3.4953
X3.0284Y-3.4953
X3.6666Y-3.4953
X3.765Y-3.4953
X3.8634Y-3.4953
X7.7709Y-3.4953
X7.8693Y-3.4953
X7.9677Y-3.4953
X6.9516Y-3.4953
X7.05Y-3.4953
X7.1484Y-3.4953
X6.1016Y-2.5453
X6.2Y-2.5453
X6.2984Y-2.5453
X5.3016Y-2.5453
X5.4Y-2.5453
X5.4984Y-2.5453
T5
X8.0311Y-5.45
X8.1531Y-5.45
X8.4799Y-5.45
X8.0311Y-4.65
X8.1531Y-4.65
X8.4799Y-4.65
X6.3799Y-5.05
X6.5019Y-5.05
X6.8287Y-5.05
X6.3799Y-5.45
X6.5019Y-5.45
X6.8287Y-5.45
X4.7149Y-5.45
X4.8369Y-5.45
X5.1637Y-5.45
X3.0949Y-4.65
X3.2169Y-4.65
X3.5437Y-4.65
X6.3799Y-4.65
X6.5019Y-4.65
X6.8287Y-4.65
X4.7149Y-5.05
X4.8369Y-5.05
X5.1637Y-5.05
X3.0949Y-5.05
X3.2169Y-5.05
X3.5437Y-5.05
X3.0949Y-5.45
X3.2169Y-5.45
X3.5437Y-5.45
X8.0311Y-5.05
X8.1531Y-5.05
X8.4799Y-5.05
X4.7149Y-4.65
X4.8369Y-4.65
X5.1637Y-4.65
T6
X8.511Y-3.2
X8.889Y-3.2
X7.6803Y-2.25
X8.0583Y-2.25
X2.741Y-2.25
X3.119Y-2.25
X2.741Y-3.2
X3.119Y-3.2
X3.576Y-3.2
X3.954Y-3.2
X7.6803Y-3.2
X8.0583Y-3.2
X6.861Y-3.2
X7.239Y-3.2
X6.011Y-2.25
X6.389Y-2.25
X5.211Y-2.25
X5.589Y-2.25
X8.501Y-2.2575
X8.879Y-2.2575
X3.576Y-2.25
X3.954Y-2.25
X6.011Y-3.2
X6.389Y-3.2
X4.361Y-2.25
X4.739Y-2.25
X4.361Y-3.2
X4.739Y-3.2
X5.211Y-3.2
X5.589Y-3.2
X6.861Y-2.25
X7.239Y-2.25
T7
X6.45Y-4.2403
X6.635Y-4.2403
X6.82Y-4.2403
X3.165Y-4.2403
X3.35Y-4.2403
X3.535Y-4.2403
X8.1Y-4.2403
X8.285Y-4.2403
X8.47Y-4.2403
X4.785Y-4.2403
X4.97Y-4.2403
X5.155Y-4.2403
T0
M30
