G04 #@! TF.GenerationSoftware,KiCad,Pcbnew,(5.1.6-0-10_14)*
G04 #@! TF.CreationDate,2022-01-03T23:35:25+00:00*
G04 #@! TF.ProjectId,Quad Tube VCA,51756164-2054-4756-9265-205643412e6b,rev?*
G04 #@! TF.SameCoordinates,Original*
G04 #@! TF.FileFunction,Paste,Bot*
G04 #@! TF.FilePolarity,Positive*
%FSLAX46Y46*%
G04 Gerber Fmt 4.6, Leading zero omitted, Abs format (unit mm)*
G04 Created by KiCad (PCBNEW (5.1.6-0-10_14)) date 2022-01-03 23:35:25*
%MOMM*%
%LPD*%
G01*
G04 APERTURE LIST*
%ADD10R,1.000000X1.000000*%
G04 APERTURE END LIST*
G36*
G01*
X188880000Y-141983750D02*
X188880000Y-142496250D01*
G75*
G02*
X188661250Y-142715000I-218750J0D01*
G01*
X188223750Y-142715000D01*
G75*
G02*
X188005000Y-142496250I0J218750D01*
G01*
X188005000Y-141983750D01*
G75*
G02*
X188223750Y-141765000I218750J0D01*
G01*
X188661250Y-141765000D01*
G75*
G02*
X188880000Y-141983750I0J-218750D01*
G01*
G37*
G36*
G01*
X190455000Y-141983750D02*
X190455000Y-142496250D01*
G75*
G02*
X190236250Y-142715000I-218750J0D01*
G01*
X189798750Y-142715000D01*
G75*
G02*
X189580000Y-142496250I0J218750D01*
G01*
X189580000Y-141983750D01*
G75*
G02*
X189798750Y-141765000I218750J0D01*
G01*
X190236250Y-141765000D01*
G75*
G02*
X190455000Y-141983750I0J-218750D01*
G01*
G37*
G36*
G01*
X189580000Y-137416250D02*
X189580000Y-136903750D01*
G75*
G02*
X189798750Y-136685000I218750J0D01*
G01*
X190236250Y-136685000D01*
G75*
G02*
X190455000Y-136903750I0J-218750D01*
G01*
X190455000Y-137416250D01*
G75*
G02*
X190236250Y-137635000I-218750J0D01*
G01*
X189798750Y-137635000D01*
G75*
G02*
X189580000Y-137416250I0J218750D01*
G01*
G37*
G36*
G01*
X188005000Y-137416250D02*
X188005000Y-136903750D01*
G75*
G02*
X188223750Y-136685000I218750J0D01*
G01*
X188661250Y-136685000D01*
G75*
G02*
X188880000Y-136903750I0J-218750D01*
G01*
X188880000Y-137416250D01*
G75*
G02*
X188661250Y-137635000I-218750J0D01*
G01*
X188223750Y-137635000D01*
G75*
G02*
X188005000Y-137416250I0J218750D01*
G01*
G37*
G36*
G01*
X199740000Y-136146250D02*
X199740000Y-135633750D01*
G75*
G02*
X199958750Y-135415000I218750J0D01*
G01*
X200396250Y-135415000D01*
G75*
G02*
X200615000Y-135633750I0J-218750D01*
G01*
X200615000Y-136146250D01*
G75*
G02*
X200396250Y-136365000I-218750J0D01*
G01*
X199958750Y-136365000D01*
G75*
G02*
X199740000Y-136146250I0J218750D01*
G01*
G37*
G36*
G01*
X198165000Y-136146250D02*
X198165000Y-135633750D01*
G75*
G02*
X198383750Y-135415000I218750J0D01*
G01*
X198821250Y-135415000D01*
G75*
G02*
X199040000Y-135633750I0J-218750D01*
G01*
X199040000Y-136146250D01*
G75*
G02*
X198821250Y-136365000I-218750J0D01*
G01*
X198383750Y-136365000D01*
G75*
G02*
X198165000Y-136146250I0J218750D01*
G01*
G37*
G36*
G01*
X157830000Y-136146250D02*
X157830000Y-135633750D01*
G75*
G02*
X158048750Y-135415000I218750J0D01*
G01*
X158486250Y-135415000D01*
G75*
G02*
X158705000Y-135633750I0J-218750D01*
G01*
X158705000Y-136146250D01*
G75*
G02*
X158486250Y-136365000I-218750J0D01*
G01*
X158048750Y-136365000D01*
G75*
G02*
X157830000Y-136146250I0J218750D01*
G01*
G37*
G36*
G01*
X156255000Y-136146250D02*
X156255000Y-135633750D01*
G75*
G02*
X156473750Y-135415000I218750J0D01*
G01*
X156911250Y-135415000D01*
G75*
G02*
X157130000Y-135633750I0J-218750D01*
G01*
X157130000Y-136146250D01*
G75*
G02*
X156911250Y-136365000I-218750J0D01*
G01*
X156473750Y-136365000D01*
G75*
G02*
X156255000Y-136146250I0J218750D01*
G01*
G37*
G36*
G01*
X114650000Y-136146250D02*
X114650000Y-135633750D01*
G75*
G02*
X114868750Y-135415000I218750J0D01*
G01*
X115306250Y-135415000D01*
G75*
G02*
X115525000Y-135633750I0J-218750D01*
G01*
X115525000Y-136146250D01*
G75*
G02*
X115306250Y-136365000I-218750J0D01*
G01*
X114868750Y-136365000D01*
G75*
G02*
X114650000Y-136146250I0J218750D01*
G01*
G37*
G36*
G01*
X113075000Y-136146250D02*
X113075000Y-135633750D01*
G75*
G02*
X113293750Y-135415000I218750J0D01*
G01*
X113731250Y-135415000D01*
G75*
G02*
X113950000Y-135633750I0J-218750D01*
G01*
X113950000Y-136146250D01*
G75*
G02*
X113731250Y-136365000I-218750J0D01*
G01*
X113293750Y-136365000D01*
G75*
G02*
X113075000Y-136146250I0J218750D01*
G01*
G37*
G36*
G01*
X203550000Y-114556250D02*
X203550000Y-114043750D01*
G75*
G02*
X203768750Y-113825000I218750J0D01*
G01*
X204206250Y-113825000D01*
G75*
G02*
X204425000Y-114043750I0J-218750D01*
G01*
X204425000Y-114556250D01*
G75*
G02*
X204206250Y-114775000I-218750J0D01*
G01*
X203768750Y-114775000D01*
G75*
G02*
X203550000Y-114556250I0J218750D01*
G01*
G37*
G36*
G01*
X201975000Y-114556250D02*
X201975000Y-114043750D01*
G75*
G02*
X202193750Y-113825000I218750J0D01*
G01*
X202631250Y-113825000D01*
G75*
G02*
X202850000Y-114043750I0J-218750D01*
G01*
X202850000Y-114556250D01*
G75*
G02*
X202631250Y-114775000I-218750J0D01*
G01*
X202193750Y-114775000D01*
G75*
G02*
X201975000Y-114556250I0J218750D01*
G01*
G37*
G36*
G01*
X190850000Y-118366250D02*
X190850000Y-117853750D01*
G75*
G02*
X191068750Y-117635000I218750J0D01*
G01*
X191506250Y-117635000D01*
G75*
G02*
X191725000Y-117853750I0J-218750D01*
G01*
X191725000Y-118366250D01*
G75*
G02*
X191506250Y-118585000I-218750J0D01*
G01*
X191068750Y-118585000D01*
G75*
G02*
X190850000Y-118366250I0J218750D01*
G01*
G37*
G36*
G01*
X189275000Y-118366250D02*
X189275000Y-117853750D01*
G75*
G02*
X189493750Y-117635000I218750J0D01*
G01*
X189931250Y-117635000D01*
G75*
G02*
X190150000Y-117853750I0J-218750D01*
G01*
X190150000Y-118366250D01*
G75*
G02*
X189931250Y-118585000I-218750J0D01*
G01*
X189493750Y-118585000D01*
G75*
G02*
X189275000Y-118366250I0J218750D01*
G01*
G37*
G36*
G01*
X194660000Y-92966250D02*
X194660000Y-92453750D01*
G75*
G02*
X194878750Y-92235000I218750J0D01*
G01*
X195316250Y-92235000D01*
G75*
G02*
X195535000Y-92453750I0J-218750D01*
G01*
X195535000Y-92966250D01*
G75*
G02*
X195316250Y-93185000I-218750J0D01*
G01*
X194878750Y-93185000D01*
G75*
G02*
X194660000Y-92966250I0J218750D01*
G01*
G37*
G36*
G01*
X193085000Y-92966250D02*
X193085000Y-92453750D01*
G75*
G02*
X193303750Y-92235000I218750J0D01*
G01*
X193741250Y-92235000D01*
G75*
G02*
X193960000Y-92453750I0J-218750D01*
G01*
X193960000Y-92966250D01*
G75*
G02*
X193741250Y-93185000I-218750J0D01*
G01*
X193303750Y-93185000D01*
G75*
G02*
X193085000Y-92966250I0J218750D01*
G01*
G37*
G36*
G01*
X200310000Y-92453750D02*
X200310000Y-92966250D01*
G75*
G02*
X200091250Y-93185000I-218750J0D01*
G01*
X199653750Y-93185000D01*
G75*
G02*
X199435000Y-92966250I0J218750D01*
G01*
X199435000Y-92453750D01*
G75*
G02*
X199653750Y-92235000I218750J0D01*
G01*
X200091250Y-92235000D01*
G75*
G02*
X200310000Y-92453750I0J-218750D01*
G01*
G37*
G36*
G01*
X201885000Y-92453750D02*
X201885000Y-92966250D01*
G75*
G02*
X201666250Y-93185000I-218750J0D01*
G01*
X201228750Y-93185000D01*
G75*
G02*
X201010000Y-92966250I0J218750D01*
G01*
X201010000Y-92453750D01*
G75*
G02*
X201228750Y-92235000I218750J0D01*
G01*
X201666250Y-92235000D01*
G75*
G02*
X201885000Y-92453750I0J-218750D01*
G01*
G37*
G36*
G01*
X193960000Y-124203750D02*
X193960000Y-124716250D01*
G75*
G02*
X193741250Y-124935000I-218750J0D01*
G01*
X193303750Y-124935000D01*
G75*
G02*
X193085000Y-124716250I0J218750D01*
G01*
X193085000Y-124203750D01*
G75*
G02*
X193303750Y-123985000I218750J0D01*
G01*
X193741250Y-123985000D01*
G75*
G02*
X193960000Y-124203750I0J-218750D01*
G01*
G37*
G36*
G01*
X195535000Y-124203750D02*
X195535000Y-124716250D01*
G75*
G02*
X195316250Y-124935000I-218750J0D01*
G01*
X194878750Y-124935000D01*
G75*
G02*
X194660000Y-124716250I0J218750D01*
G01*
X194660000Y-124203750D01*
G75*
G02*
X194878750Y-123985000I218750J0D01*
G01*
X195316250Y-123985000D01*
G75*
G02*
X195535000Y-124203750I0J-218750D01*
G01*
G37*
G36*
G01*
X204120000Y-124203750D02*
X204120000Y-124716250D01*
G75*
G02*
X203901250Y-124935000I-218750J0D01*
G01*
X203463750Y-124935000D01*
G75*
G02*
X203245000Y-124716250I0J218750D01*
G01*
X203245000Y-124203750D01*
G75*
G02*
X203463750Y-123985000I218750J0D01*
G01*
X203901250Y-123985000D01*
G75*
G02*
X204120000Y-124203750I0J-218750D01*
G01*
G37*
G36*
G01*
X205695000Y-124203750D02*
X205695000Y-124716250D01*
G75*
G02*
X205476250Y-124935000I-218750J0D01*
G01*
X205038750Y-124935000D01*
G75*
G02*
X204820000Y-124716250I0J218750D01*
G01*
X204820000Y-124203750D01*
G75*
G02*
X205038750Y-123985000I218750J0D01*
G01*
X205476250Y-123985000D01*
G75*
G02*
X205695000Y-124203750I0J-218750D01*
G01*
G37*
G36*
G01*
X201010000Y-96776250D02*
X201010000Y-96263750D01*
G75*
G02*
X201228750Y-96045000I218750J0D01*
G01*
X201666250Y-96045000D01*
G75*
G02*
X201885000Y-96263750I0J-218750D01*
G01*
X201885000Y-96776250D01*
G75*
G02*
X201666250Y-96995000I-218750J0D01*
G01*
X201228750Y-96995000D01*
G75*
G02*
X201010000Y-96776250I0J218750D01*
G01*
G37*
G36*
G01*
X199435000Y-96776250D02*
X199435000Y-96263750D01*
G75*
G02*
X199653750Y-96045000I218750J0D01*
G01*
X200091250Y-96045000D01*
G75*
G02*
X200310000Y-96263750I0J-218750D01*
G01*
X200310000Y-96776250D01*
G75*
G02*
X200091250Y-96995000I-218750J0D01*
G01*
X199653750Y-96995000D01*
G75*
G02*
X199435000Y-96776250I0J218750D01*
G01*
G37*
G36*
G01*
X214192500Y-84076250D02*
X214192500Y-83563750D01*
G75*
G02*
X214411250Y-83345000I218750J0D01*
G01*
X214848750Y-83345000D01*
G75*
G02*
X215067500Y-83563750I0J-218750D01*
G01*
X215067500Y-84076250D01*
G75*
G02*
X214848750Y-84295000I-218750J0D01*
G01*
X214411250Y-84295000D01*
G75*
G02*
X214192500Y-84076250I0J218750D01*
G01*
G37*
G36*
G01*
X212617500Y-84076250D02*
X212617500Y-83563750D01*
G75*
G02*
X212836250Y-83345000I218750J0D01*
G01*
X213273750Y-83345000D01*
G75*
G02*
X213492500Y-83563750I0J-218750D01*
G01*
X213492500Y-84076250D01*
G75*
G02*
X213273750Y-84295000I-218750J0D01*
G01*
X212836250Y-84295000D01*
G75*
G02*
X212617500Y-84076250I0J218750D01*
G01*
G37*
G36*
G01*
X201010000Y-100586250D02*
X201010000Y-100073750D01*
G75*
G02*
X201228750Y-99855000I218750J0D01*
G01*
X201666250Y-99855000D01*
G75*
G02*
X201885000Y-100073750I0J-218750D01*
G01*
X201885000Y-100586250D01*
G75*
G02*
X201666250Y-100805000I-218750J0D01*
G01*
X201228750Y-100805000D01*
G75*
G02*
X201010000Y-100586250I0J218750D01*
G01*
G37*
G36*
G01*
X199435000Y-100586250D02*
X199435000Y-100073750D01*
G75*
G02*
X199653750Y-99855000I218750J0D01*
G01*
X200091250Y-99855000D01*
G75*
G02*
X200310000Y-100073750I0J-218750D01*
G01*
X200310000Y-100586250D01*
G75*
G02*
X200091250Y-100805000I-218750J0D01*
G01*
X199653750Y-100805000D01*
G75*
G02*
X199435000Y-100586250I0J218750D01*
G01*
G37*
G36*
G01*
X208630000Y-84076250D02*
X208630000Y-83563750D01*
G75*
G02*
X208848750Y-83345000I218750J0D01*
G01*
X209286250Y-83345000D01*
G75*
G02*
X209505000Y-83563750I0J-218750D01*
G01*
X209505000Y-84076250D01*
G75*
G02*
X209286250Y-84295000I-218750J0D01*
G01*
X208848750Y-84295000D01*
G75*
G02*
X208630000Y-84076250I0J218750D01*
G01*
G37*
G36*
G01*
X207055000Y-84076250D02*
X207055000Y-83563750D01*
G75*
G02*
X207273750Y-83345000I218750J0D01*
G01*
X207711250Y-83345000D01*
G75*
G02*
X207930000Y-83563750I0J-218750D01*
G01*
X207930000Y-84076250D01*
G75*
G02*
X207711250Y-84295000I-218750J0D01*
G01*
X207273750Y-84295000D01*
G75*
G02*
X207055000Y-84076250I0J218750D01*
G01*
G37*
G36*
G01*
X208147500Y-76456250D02*
X208147500Y-75943750D01*
G75*
G02*
X208366250Y-75725000I218750J0D01*
G01*
X208803750Y-75725000D01*
G75*
G02*
X209022500Y-75943750I0J-218750D01*
G01*
X209022500Y-76456250D01*
G75*
G02*
X208803750Y-76675000I-218750J0D01*
G01*
X208366250Y-76675000D01*
G75*
G02*
X208147500Y-76456250I0J218750D01*
G01*
G37*
G36*
G01*
X206572500Y-76456250D02*
X206572500Y-75943750D01*
G75*
G02*
X206791250Y-75725000I218750J0D01*
G01*
X207228750Y-75725000D01*
G75*
G02*
X207447500Y-75943750I0J-218750D01*
G01*
X207447500Y-76456250D01*
G75*
G02*
X207228750Y-76675000I-218750J0D01*
G01*
X206791250Y-76675000D01*
G75*
G02*
X206572500Y-76456250I0J218750D01*
G01*
G37*
G36*
G01*
X213710000Y-76456250D02*
X213710000Y-75943750D01*
G75*
G02*
X213928750Y-75725000I218750J0D01*
G01*
X214366250Y-75725000D01*
G75*
G02*
X214585000Y-75943750I0J-218750D01*
G01*
X214585000Y-76456250D01*
G75*
G02*
X214366250Y-76675000I-218750J0D01*
G01*
X213928750Y-76675000D01*
G75*
G02*
X213710000Y-76456250I0J218750D01*
G01*
G37*
G36*
G01*
X212135000Y-76456250D02*
X212135000Y-75943750D01*
G75*
G02*
X212353750Y-75725000I218750J0D01*
G01*
X212791250Y-75725000D01*
G75*
G02*
X213010000Y-75943750I0J-218750D01*
G01*
X213010000Y-76456250D01*
G75*
G02*
X212791250Y-76675000I-218750J0D01*
G01*
X212353750Y-76675000D01*
G75*
G02*
X212135000Y-76456250I0J218750D01*
G01*
G37*
G36*
G01*
X222600000Y-125986250D02*
X222600000Y-125473750D01*
G75*
G02*
X222818750Y-125255000I218750J0D01*
G01*
X223256250Y-125255000D01*
G75*
G02*
X223475000Y-125473750I0J-218750D01*
G01*
X223475000Y-125986250D01*
G75*
G02*
X223256250Y-126205000I-218750J0D01*
G01*
X222818750Y-126205000D01*
G75*
G02*
X222600000Y-125986250I0J218750D01*
G01*
G37*
G36*
G01*
X221025000Y-125986250D02*
X221025000Y-125473750D01*
G75*
G02*
X221243750Y-125255000I218750J0D01*
G01*
X221681250Y-125255000D01*
G75*
G02*
X221900000Y-125473750I0J-218750D01*
G01*
X221900000Y-125986250D01*
G75*
G02*
X221681250Y-126205000I-218750J0D01*
G01*
X221243750Y-126205000D01*
G75*
G02*
X221025000Y-125986250I0J218750D01*
G01*
G37*
G36*
G01*
X208630000Y-63756250D02*
X208630000Y-63243750D01*
G75*
G02*
X208848750Y-63025000I218750J0D01*
G01*
X209286250Y-63025000D01*
G75*
G02*
X209505000Y-63243750I0J-218750D01*
G01*
X209505000Y-63756250D01*
G75*
G02*
X209286250Y-63975000I-218750J0D01*
G01*
X208848750Y-63975000D01*
G75*
G02*
X208630000Y-63756250I0J218750D01*
G01*
G37*
G36*
G01*
X207055000Y-63756250D02*
X207055000Y-63243750D01*
G75*
G02*
X207273750Y-63025000I218750J0D01*
G01*
X207711250Y-63025000D01*
G75*
G02*
X207930000Y-63243750I0J-218750D01*
G01*
X207930000Y-63756250D01*
G75*
G02*
X207711250Y-63975000I-218750J0D01*
G01*
X207273750Y-63975000D01*
G75*
G02*
X207055000Y-63756250I0J218750D01*
G01*
G37*
G36*
G01*
X206090000Y-48516250D02*
X206090000Y-48003750D01*
G75*
G02*
X206308750Y-47785000I218750J0D01*
G01*
X206746250Y-47785000D01*
G75*
G02*
X206965000Y-48003750I0J-218750D01*
G01*
X206965000Y-48516250D01*
G75*
G02*
X206746250Y-48735000I-218750J0D01*
G01*
X206308750Y-48735000D01*
G75*
G02*
X206090000Y-48516250I0J218750D01*
G01*
G37*
G36*
G01*
X204515000Y-48516250D02*
X204515000Y-48003750D01*
G75*
G02*
X204733750Y-47785000I218750J0D01*
G01*
X205171250Y-47785000D01*
G75*
G02*
X205390000Y-48003750I0J-218750D01*
G01*
X205390000Y-48516250D01*
G75*
G02*
X205171250Y-48735000I-218750J0D01*
G01*
X204733750Y-48735000D01*
G75*
G02*
X204515000Y-48516250I0J218750D01*
G01*
G37*
G36*
G01*
X218790000Y-141226250D02*
X218790000Y-140713750D01*
G75*
G02*
X219008750Y-140495000I218750J0D01*
G01*
X219446250Y-140495000D01*
G75*
G02*
X219665000Y-140713750I0J-218750D01*
G01*
X219665000Y-141226250D01*
G75*
G02*
X219446250Y-141445000I-218750J0D01*
G01*
X219008750Y-141445000D01*
G75*
G02*
X218790000Y-141226250I0J218750D01*
G01*
G37*
G36*
G01*
X217215000Y-141226250D02*
X217215000Y-140713750D01*
G75*
G02*
X217433750Y-140495000I218750J0D01*
G01*
X217871250Y-140495000D01*
G75*
G02*
X218090000Y-140713750I0J-218750D01*
G01*
X218090000Y-141226250D01*
G75*
G02*
X217871250Y-141445000I-218750J0D01*
G01*
X217433750Y-141445000D01*
G75*
G02*
X217215000Y-141226250I0J218750D01*
G01*
G37*
G36*
G01*
X214280000Y-131823750D02*
X214280000Y-132336250D01*
G75*
G02*
X214061250Y-132555000I-218750J0D01*
G01*
X213623750Y-132555000D01*
G75*
G02*
X213405000Y-132336250I0J218750D01*
G01*
X213405000Y-131823750D01*
G75*
G02*
X213623750Y-131605000I218750J0D01*
G01*
X214061250Y-131605000D01*
G75*
G02*
X214280000Y-131823750I0J-218750D01*
G01*
G37*
G36*
G01*
X215855000Y-131823750D02*
X215855000Y-132336250D01*
G75*
G02*
X215636250Y-132555000I-218750J0D01*
G01*
X215198750Y-132555000D01*
G75*
G02*
X214980000Y-132336250I0J218750D01*
G01*
X214980000Y-131823750D01*
G75*
G02*
X215198750Y-131605000I218750J0D01*
G01*
X215636250Y-131605000D01*
G75*
G02*
X215855000Y-131823750I0J-218750D01*
G01*
G37*
G36*
G01*
X225710000Y-140713750D02*
X225710000Y-141226250D01*
G75*
G02*
X225491250Y-141445000I-218750J0D01*
G01*
X225053750Y-141445000D01*
G75*
G02*
X224835000Y-141226250I0J218750D01*
G01*
X224835000Y-140713750D01*
G75*
G02*
X225053750Y-140495000I218750J0D01*
G01*
X225491250Y-140495000D01*
G75*
G02*
X225710000Y-140713750I0J-218750D01*
G01*
G37*
G36*
G01*
X227285000Y-140713750D02*
X227285000Y-141226250D01*
G75*
G02*
X227066250Y-141445000I-218750J0D01*
G01*
X226628750Y-141445000D01*
G75*
G02*
X226410000Y-141226250I0J218750D01*
G01*
X226410000Y-140713750D01*
G75*
G02*
X226628750Y-140495000I218750J0D01*
G01*
X227066250Y-140495000D01*
G75*
G02*
X227285000Y-140713750I0J-218750D01*
G01*
G37*
G36*
G01*
X222600000Y-129796250D02*
X222600000Y-129283750D01*
G75*
G02*
X222818750Y-129065000I218750J0D01*
G01*
X223256250Y-129065000D01*
G75*
G02*
X223475000Y-129283750I0J-218750D01*
G01*
X223475000Y-129796250D01*
G75*
G02*
X223256250Y-130015000I-218750J0D01*
G01*
X222818750Y-130015000D01*
G75*
G02*
X222600000Y-129796250I0J218750D01*
G01*
G37*
G36*
G01*
X221025000Y-129796250D02*
X221025000Y-129283750D01*
G75*
G02*
X221243750Y-129065000I218750J0D01*
G01*
X221681250Y-129065000D01*
G75*
G02*
X221900000Y-129283750I0J-218750D01*
G01*
X221900000Y-129796250D01*
G75*
G02*
X221681250Y-130015000I-218750J0D01*
G01*
X221243750Y-130015000D01*
G75*
G02*
X221025000Y-129796250I0J218750D01*
G01*
G37*
G36*
G01*
X226410000Y-125986250D02*
X226410000Y-125473750D01*
G75*
G02*
X226628750Y-125255000I218750J0D01*
G01*
X227066250Y-125255000D01*
G75*
G02*
X227285000Y-125473750I0J-218750D01*
G01*
X227285000Y-125986250D01*
G75*
G02*
X227066250Y-126205000I-218750J0D01*
G01*
X226628750Y-126205000D01*
G75*
G02*
X226410000Y-125986250I0J218750D01*
G01*
G37*
G36*
G01*
X224835000Y-125986250D02*
X224835000Y-125473750D01*
G75*
G02*
X225053750Y-125255000I218750J0D01*
G01*
X225491250Y-125255000D01*
G75*
G02*
X225710000Y-125473750I0J-218750D01*
G01*
X225710000Y-125986250D01*
G75*
G02*
X225491250Y-126205000I-218750J0D01*
G01*
X225053750Y-126205000D01*
G75*
G02*
X224835000Y-125986250I0J218750D01*
G01*
G37*
G36*
G01*
X187040000Y-114556250D02*
X187040000Y-114043750D01*
G75*
G02*
X187258750Y-113825000I218750J0D01*
G01*
X187696250Y-113825000D01*
G75*
G02*
X187915000Y-114043750I0J-218750D01*
G01*
X187915000Y-114556250D01*
G75*
G02*
X187696250Y-114775000I-218750J0D01*
G01*
X187258750Y-114775000D01*
G75*
G02*
X187040000Y-114556250I0J218750D01*
G01*
G37*
G36*
G01*
X185465000Y-114556250D02*
X185465000Y-114043750D01*
G75*
G02*
X185683750Y-113825000I218750J0D01*
G01*
X186121250Y-113825000D01*
G75*
G02*
X186340000Y-114043750I0J-218750D01*
G01*
X186340000Y-114556250D01*
G75*
G02*
X186121250Y-114775000I-218750J0D01*
G01*
X185683750Y-114775000D01*
G75*
G02*
X185465000Y-114556250I0J218750D01*
G01*
G37*
G36*
G01*
X171800000Y-123446250D02*
X171800000Y-122933750D01*
G75*
G02*
X172018750Y-122715000I218750J0D01*
G01*
X172456250Y-122715000D01*
G75*
G02*
X172675000Y-122933750I0J-218750D01*
G01*
X172675000Y-123446250D01*
G75*
G02*
X172456250Y-123665000I-218750J0D01*
G01*
X172018750Y-123665000D01*
G75*
G02*
X171800000Y-123446250I0J218750D01*
G01*
G37*
G36*
G01*
X170225000Y-123446250D02*
X170225000Y-122933750D01*
G75*
G02*
X170443750Y-122715000I218750J0D01*
G01*
X170881250Y-122715000D01*
G75*
G02*
X171100000Y-122933750I0J-218750D01*
G01*
X171100000Y-123446250D01*
G75*
G02*
X170881250Y-123665000I-218750J0D01*
G01*
X170443750Y-123665000D01*
G75*
G02*
X170225000Y-123446250I0J218750D01*
G01*
G37*
G36*
G01*
X152750000Y-92966250D02*
X152750000Y-92453750D01*
G75*
G02*
X152968750Y-92235000I218750J0D01*
G01*
X153406250Y-92235000D01*
G75*
G02*
X153625000Y-92453750I0J-218750D01*
G01*
X153625000Y-92966250D01*
G75*
G02*
X153406250Y-93185000I-218750J0D01*
G01*
X152968750Y-93185000D01*
G75*
G02*
X152750000Y-92966250I0J218750D01*
G01*
G37*
G36*
G01*
X151175000Y-92966250D02*
X151175000Y-92453750D01*
G75*
G02*
X151393750Y-92235000I218750J0D01*
G01*
X151831250Y-92235000D01*
G75*
G02*
X152050000Y-92453750I0J-218750D01*
G01*
X152050000Y-92966250D01*
G75*
G02*
X151831250Y-93185000I-218750J0D01*
G01*
X151393750Y-93185000D01*
G75*
G02*
X151175000Y-92966250I0J218750D01*
G01*
G37*
G36*
G01*
X158400000Y-92453750D02*
X158400000Y-92966250D01*
G75*
G02*
X158181250Y-93185000I-218750J0D01*
G01*
X157743750Y-93185000D01*
G75*
G02*
X157525000Y-92966250I0J218750D01*
G01*
X157525000Y-92453750D01*
G75*
G02*
X157743750Y-92235000I218750J0D01*
G01*
X158181250Y-92235000D01*
G75*
G02*
X158400000Y-92453750I0J-218750D01*
G01*
G37*
G36*
G01*
X159975000Y-92453750D02*
X159975000Y-92966250D01*
G75*
G02*
X159756250Y-93185000I-218750J0D01*
G01*
X159318750Y-93185000D01*
G75*
G02*
X159100000Y-92966250I0J218750D01*
G01*
X159100000Y-92453750D01*
G75*
G02*
X159318750Y-92235000I218750J0D01*
G01*
X159756250Y-92235000D01*
G75*
G02*
X159975000Y-92453750I0J-218750D01*
G01*
G37*
G36*
G01*
X176880000Y-124716250D02*
X176880000Y-124203750D01*
G75*
G02*
X177098750Y-123985000I218750J0D01*
G01*
X177536250Y-123985000D01*
G75*
G02*
X177755000Y-124203750I0J-218750D01*
G01*
X177755000Y-124716250D01*
G75*
G02*
X177536250Y-124935000I-218750J0D01*
G01*
X177098750Y-124935000D01*
G75*
G02*
X176880000Y-124716250I0J218750D01*
G01*
G37*
G36*
G01*
X175305000Y-124716250D02*
X175305000Y-124203750D01*
G75*
G02*
X175523750Y-123985000I218750J0D01*
G01*
X175961250Y-123985000D01*
G75*
G02*
X176180000Y-124203750I0J-218750D01*
G01*
X176180000Y-124716250D01*
G75*
G02*
X175961250Y-124935000I-218750J0D01*
G01*
X175523750Y-124935000D01*
G75*
G02*
X175305000Y-124716250I0J218750D01*
G01*
G37*
G36*
G01*
X187610000Y-124203750D02*
X187610000Y-124716250D01*
G75*
G02*
X187391250Y-124935000I-218750J0D01*
G01*
X186953750Y-124935000D01*
G75*
G02*
X186735000Y-124716250I0J218750D01*
G01*
X186735000Y-124203750D01*
G75*
G02*
X186953750Y-123985000I218750J0D01*
G01*
X187391250Y-123985000D01*
G75*
G02*
X187610000Y-124203750I0J-218750D01*
G01*
G37*
G36*
G01*
X189185000Y-124203750D02*
X189185000Y-124716250D01*
G75*
G02*
X188966250Y-124935000I-218750J0D01*
G01*
X188528750Y-124935000D01*
G75*
G02*
X188310000Y-124716250I0J218750D01*
G01*
X188310000Y-124203750D01*
G75*
G02*
X188528750Y-123985000I218750J0D01*
G01*
X188966250Y-123985000D01*
G75*
G02*
X189185000Y-124203750I0J-218750D01*
G01*
G37*
G36*
G01*
X159100000Y-96776250D02*
X159100000Y-96263750D01*
G75*
G02*
X159318750Y-96045000I218750J0D01*
G01*
X159756250Y-96045000D01*
G75*
G02*
X159975000Y-96263750I0J-218750D01*
G01*
X159975000Y-96776250D01*
G75*
G02*
X159756250Y-96995000I-218750J0D01*
G01*
X159318750Y-96995000D01*
G75*
G02*
X159100000Y-96776250I0J218750D01*
G01*
G37*
G36*
G01*
X157525000Y-96776250D02*
X157525000Y-96263750D01*
G75*
G02*
X157743750Y-96045000I218750J0D01*
G01*
X158181250Y-96045000D01*
G75*
G02*
X158400000Y-96263750I0J-218750D01*
G01*
X158400000Y-96776250D01*
G75*
G02*
X158181250Y-96995000I-218750J0D01*
G01*
X157743750Y-96995000D01*
G75*
G02*
X157525000Y-96776250I0J218750D01*
G01*
G37*
G36*
G01*
X171350000Y-84076250D02*
X171350000Y-83563750D01*
G75*
G02*
X171568750Y-83345000I218750J0D01*
G01*
X172006250Y-83345000D01*
G75*
G02*
X172225000Y-83563750I0J-218750D01*
G01*
X172225000Y-84076250D01*
G75*
G02*
X172006250Y-84295000I-218750J0D01*
G01*
X171568750Y-84295000D01*
G75*
G02*
X171350000Y-84076250I0J218750D01*
G01*
G37*
G36*
G01*
X169775000Y-84076250D02*
X169775000Y-83563750D01*
G75*
G02*
X169993750Y-83345000I218750J0D01*
G01*
X170431250Y-83345000D01*
G75*
G02*
X170650000Y-83563750I0J-218750D01*
G01*
X170650000Y-84076250D01*
G75*
G02*
X170431250Y-84295000I-218750J0D01*
G01*
X169993750Y-84295000D01*
G75*
G02*
X169775000Y-84076250I0J218750D01*
G01*
G37*
G36*
G01*
X159100000Y-100586250D02*
X159100000Y-100073750D01*
G75*
G02*
X159318750Y-99855000I218750J0D01*
G01*
X159756250Y-99855000D01*
G75*
G02*
X159975000Y-100073750I0J-218750D01*
G01*
X159975000Y-100586250D01*
G75*
G02*
X159756250Y-100805000I-218750J0D01*
G01*
X159318750Y-100805000D01*
G75*
G02*
X159100000Y-100586250I0J218750D01*
G01*
G37*
G36*
G01*
X157525000Y-100586250D02*
X157525000Y-100073750D01*
G75*
G02*
X157743750Y-99855000I218750J0D01*
G01*
X158181250Y-99855000D01*
G75*
G02*
X158400000Y-100073750I0J-218750D01*
G01*
X158400000Y-100586250D01*
G75*
G02*
X158181250Y-100805000I-218750J0D01*
G01*
X157743750Y-100805000D01*
G75*
G02*
X157525000Y-100586250I0J218750D01*
G01*
G37*
G36*
G01*
X165450000Y-84076250D02*
X165450000Y-83563750D01*
G75*
G02*
X165668750Y-83345000I218750J0D01*
G01*
X166106250Y-83345000D01*
G75*
G02*
X166325000Y-83563750I0J-218750D01*
G01*
X166325000Y-84076250D01*
G75*
G02*
X166106250Y-84295000I-218750J0D01*
G01*
X165668750Y-84295000D01*
G75*
G02*
X165450000Y-84076250I0J218750D01*
G01*
G37*
G36*
G01*
X163875000Y-84076250D02*
X163875000Y-83563750D01*
G75*
G02*
X164093750Y-83345000I218750J0D01*
G01*
X164531250Y-83345000D01*
G75*
G02*
X164750000Y-83563750I0J-218750D01*
G01*
X164750000Y-84076250D01*
G75*
G02*
X164531250Y-84295000I-218750J0D01*
G01*
X164093750Y-84295000D01*
G75*
G02*
X163875000Y-84076250I0J218750D01*
G01*
G37*
G36*
G01*
X165450000Y-76456250D02*
X165450000Y-75943750D01*
G75*
G02*
X165668750Y-75725000I218750J0D01*
G01*
X166106250Y-75725000D01*
G75*
G02*
X166325000Y-75943750I0J-218750D01*
G01*
X166325000Y-76456250D01*
G75*
G02*
X166106250Y-76675000I-218750J0D01*
G01*
X165668750Y-76675000D01*
G75*
G02*
X165450000Y-76456250I0J218750D01*
G01*
G37*
G36*
G01*
X163875000Y-76456250D02*
X163875000Y-75943750D01*
G75*
G02*
X164093750Y-75725000I218750J0D01*
G01*
X164531250Y-75725000D01*
G75*
G02*
X164750000Y-75943750I0J-218750D01*
G01*
X164750000Y-76456250D01*
G75*
G02*
X164531250Y-76675000I-218750J0D01*
G01*
X164093750Y-76675000D01*
G75*
G02*
X163875000Y-76456250I0J218750D01*
G01*
G37*
G36*
G01*
X171800000Y-76456250D02*
X171800000Y-75943750D01*
G75*
G02*
X172018750Y-75725000I218750J0D01*
G01*
X172456250Y-75725000D01*
G75*
G02*
X172675000Y-75943750I0J-218750D01*
G01*
X172675000Y-76456250D01*
G75*
G02*
X172456250Y-76675000I-218750J0D01*
G01*
X172018750Y-76675000D01*
G75*
G02*
X171800000Y-76456250I0J218750D01*
G01*
G37*
G36*
G01*
X170225000Y-76456250D02*
X170225000Y-75943750D01*
G75*
G02*
X170443750Y-75725000I218750J0D01*
G01*
X170881250Y-75725000D01*
G75*
G02*
X171100000Y-75943750I0J-218750D01*
G01*
X171100000Y-76456250D01*
G75*
G02*
X170881250Y-76675000I-218750J0D01*
G01*
X170443750Y-76675000D01*
G75*
G02*
X170225000Y-76456250I0J218750D01*
G01*
G37*
G36*
G01*
X187040000Y-129796250D02*
X187040000Y-129283750D01*
G75*
G02*
X187258750Y-129065000I218750J0D01*
G01*
X187696250Y-129065000D01*
G75*
G02*
X187915000Y-129283750I0J-218750D01*
G01*
X187915000Y-129796250D01*
G75*
G02*
X187696250Y-130015000I-218750J0D01*
G01*
X187258750Y-130015000D01*
G75*
G02*
X187040000Y-129796250I0J218750D01*
G01*
G37*
G36*
G01*
X185465000Y-129796250D02*
X185465000Y-129283750D01*
G75*
G02*
X185683750Y-129065000I218750J0D01*
G01*
X186121250Y-129065000D01*
G75*
G02*
X186340000Y-129283750I0J-218750D01*
G01*
X186340000Y-129796250D01*
G75*
G02*
X186121250Y-130015000I-218750J0D01*
G01*
X185683750Y-130015000D01*
G75*
G02*
X185465000Y-129796250I0J218750D01*
G01*
G37*
G36*
G01*
X166720000Y-63756250D02*
X166720000Y-63243750D01*
G75*
G02*
X166938750Y-63025000I218750J0D01*
G01*
X167376250Y-63025000D01*
G75*
G02*
X167595000Y-63243750I0J-218750D01*
G01*
X167595000Y-63756250D01*
G75*
G02*
X167376250Y-63975000I-218750J0D01*
G01*
X166938750Y-63975000D01*
G75*
G02*
X166720000Y-63756250I0J218750D01*
G01*
G37*
G36*
G01*
X165145000Y-63756250D02*
X165145000Y-63243750D01*
G75*
G02*
X165363750Y-63025000I218750J0D01*
G01*
X165801250Y-63025000D01*
G75*
G02*
X166020000Y-63243750I0J-218750D01*
G01*
X166020000Y-63756250D01*
G75*
G02*
X165801250Y-63975000I-218750J0D01*
G01*
X165363750Y-63975000D01*
G75*
G02*
X165145000Y-63756250I0J218750D01*
G01*
G37*
G36*
G01*
X162910000Y-48516250D02*
X162910000Y-48003750D01*
G75*
G02*
X163128750Y-47785000I218750J0D01*
G01*
X163566250Y-47785000D01*
G75*
G02*
X163785000Y-48003750I0J-218750D01*
G01*
X163785000Y-48516250D01*
G75*
G02*
X163566250Y-48735000I-218750J0D01*
G01*
X163128750Y-48735000D01*
G75*
G02*
X162910000Y-48516250I0J218750D01*
G01*
G37*
G36*
G01*
X161335000Y-48516250D02*
X161335000Y-48003750D01*
G75*
G02*
X161553750Y-47785000I218750J0D01*
G01*
X161991250Y-47785000D01*
G75*
G02*
X162210000Y-48003750I0J-218750D01*
G01*
X162210000Y-48516250D01*
G75*
G02*
X161991250Y-48735000I-218750J0D01*
G01*
X161553750Y-48735000D01*
G75*
G02*
X161335000Y-48516250I0J218750D01*
G01*
G37*
G36*
G01*
X176880000Y-141226250D02*
X176880000Y-140713750D01*
G75*
G02*
X177098750Y-140495000I218750J0D01*
G01*
X177536250Y-140495000D01*
G75*
G02*
X177755000Y-140713750I0J-218750D01*
G01*
X177755000Y-141226250D01*
G75*
G02*
X177536250Y-141445000I-218750J0D01*
G01*
X177098750Y-141445000D01*
G75*
G02*
X176880000Y-141226250I0J218750D01*
G01*
G37*
G36*
G01*
X175305000Y-141226250D02*
X175305000Y-140713750D01*
G75*
G02*
X175523750Y-140495000I218750J0D01*
G01*
X175961250Y-140495000D01*
G75*
G02*
X176180000Y-140713750I0J-218750D01*
G01*
X176180000Y-141226250D01*
G75*
G02*
X175961250Y-141445000I-218750J0D01*
G01*
X175523750Y-141445000D01*
G75*
G02*
X175305000Y-141226250I0J218750D01*
G01*
G37*
G36*
G01*
X176180000Y-131823750D02*
X176180000Y-132336250D01*
G75*
G02*
X175961250Y-132555000I-218750J0D01*
G01*
X175523750Y-132555000D01*
G75*
G02*
X175305000Y-132336250I0J218750D01*
G01*
X175305000Y-131823750D01*
G75*
G02*
X175523750Y-131605000I218750J0D01*
G01*
X175961250Y-131605000D01*
G75*
G02*
X176180000Y-131823750I0J-218750D01*
G01*
G37*
G36*
G01*
X177755000Y-131823750D02*
X177755000Y-132336250D01*
G75*
G02*
X177536250Y-132555000I-218750J0D01*
G01*
X177098750Y-132555000D01*
G75*
G02*
X176880000Y-132336250I0J218750D01*
G01*
X176880000Y-131823750D01*
G75*
G02*
X177098750Y-131605000I218750J0D01*
G01*
X177536250Y-131605000D01*
G75*
G02*
X177755000Y-131823750I0J-218750D01*
G01*
G37*
G36*
G01*
X189580000Y-133606250D02*
X189580000Y-133093750D01*
G75*
G02*
X189798750Y-132875000I218750J0D01*
G01*
X190236250Y-132875000D01*
G75*
G02*
X190455000Y-133093750I0J-218750D01*
G01*
X190455000Y-133606250D01*
G75*
G02*
X190236250Y-133825000I-218750J0D01*
G01*
X189798750Y-133825000D01*
G75*
G02*
X189580000Y-133606250I0J218750D01*
G01*
G37*
G36*
G01*
X188005000Y-133606250D02*
X188005000Y-133093750D01*
G75*
G02*
X188223750Y-132875000I218750J0D01*
G01*
X188661250Y-132875000D01*
G75*
G02*
X188880000Y-133093750I0J-218750D01*
G01*
X188880000Y-133606250D01*
G75*
G02*
X188661250Y-133825000I-218750J0D01*
G01*
X188223750Y-133825000D01*
G75*
G02*
X188005000Y-133606250I0J218750D01*
G01*
G37*
G36*
G01*
X149422500Y-117096250D02*
X149422500Y-116583750D01*
G75*
G02*
X149641250Y-116365000I218750J0D01*
G01*
X150078750Y-116365000D01*
G75*
G02*
X150297500Y-116583750I0J-218750D01*
G01*
X150297500Y-117096250D01*
G75*
G02*
X150078750Y-117315000I-218750J0D01*
G01*
X149641250Y-117315000D01*
G75*
G02*
X149422500Y-117096250I0J218750D01*
G01*
G37*
G36*
G01*
X147847500Y-117096250D02*
X147847500Y-116583750D01*
G75*
G02*
X148066250Y-116365000I218750J0D01*
G01*
X148503750Y-116365000D01*
G75*
G02*
X148722500Y-116583750I0J-218750D01*
G01*
X148722500Y-117096250D01*
G75*
G02*
X148503750Y-117315000I-218750J0D01*
G01*
X148066250Y-117315000D01*
G75*
G02*
X147847500Y-117096250I0J218750D01*
G01*
G37*
G36*
G01*
X134970000Y-125986250D02*
X134970000Y-125473750D01*
G75*
G02*
X135188750Y-125255000I218750J0D01*
G01*
X135626250Y-125255000D01*
G75*
G02*
X135845000Y-125473750I0J-218750D01*
G01*
X135845000Y-125986250D01*
G75*
G02*
X135626250Y-126205000I-218750J0D01*
G01*
X135188750Y-126205000D01*
G75*
G02*
X134970000Y-125986250I0J218750D01*
G01*
G37*
G36*
G01*
X133395000Y-125986250D02*
X133395000Y-125473750D01*
G75*
G02*
X133613750Y-125255000I218750J0D01*
G01*
X134051250Y-125255000D01*
G75*
G02*
X134270000Y-125473750I0J-218750D01*
G01*
X134270000Y-125986250D01*
G75*
G02*
X134051250Y-126205000I-218750J0D01*
G01*
X133613750Y-126205000D01*
G75*
G02*
X133395000Y-125986250I0J218750D01*
G01*
G37*
G36*
G01*
X110840000Y-92966250D02*
X110840000Y-92453750D01*
G75*
G02*
X111058750Y-92235000I218750J0D01*
G01*
X111496250Y-92235000D01*
G75*
G02*
X111715000Y-92453750I0J-218750D01*
G01*
X111715000Y-92966250D01*
G75*
G02*
X111496250Y-93185000I-218750J0D01*
G01*
X111058750Y-93185000D01*
G75*
G02*
X110840000Y-92966250I0J218750D01*
G01*
G37*
G36*
G01*
X109265000Y-92966250D02*
X109265000Y-92453750D01*
G75*
G02*
X109483750Y-92235000I218750J0D01*
G01*
X109921250Y-92235000D01*
G75*
G02*
X110140000Y-92453750I0J-218750D01*
G01*
X110140000Y-92966250D01*
G75*
G02*
X109921250Y-93185000I-218750J0D01*
G01*
X109483750Y-93185000D01*
G75*
G02*
X109265000Y-92966250I0J218750D01*
G01*
G37*
G36*
G01*
X116490000Y-92453750D02*
X116490000Y-92966250D01*
G75*
G02*
X116271250Y-93185000I-218750J0D01*
G01*
X115833750Y-93185000D01*
G75*
G02*
X115615000Y-92966250I0J218750D01*
G01*
X115615000Y-92453750D01*
G75*
G02*
X115833750Y-92235000I218750J0D01*
G01*
X116271250Y-92235000D01*
G75*
G02*
X116490000Y-92453750I0J-218750D01*
G01*
G37*
G36*
G01*
X118065000Y-92453750D02*
X118065000Y-92966250D01*
G75*
G02*
X117846250Y-93185000I-218750J0D01*
G01*
X117408750Y-93185000D01*
G75*
G02*
X117190000Y-92966250I0J218750D01*
G01*
X117190000Y-92453750D01*
G75*
G02*
X117408750Y-92235000I218750J0D01*
G01*
X117846250Y-92235000D01*
G75*
G02*
X118065000Y-92453750I0J-218750D01*
G01*
G37*
G36*
G01*
X138780000Y-125986250D02*
X138780000Y-125473750D01*
G75*
G02*
X138998750Y-125255000I218750J0D01*
G01*
X139436250Y-125255000D01*
G75*
G02*
X139655000Y-125473750I0J-218750D01*
G01*
X139655000Y-125986250D01*
G75*
G02*
X139436250Y-126205000I-218750J0D01*
G01*
X138998750Y-126205000D01*
G75*
G02*
X138780000Y-125986250I0J218750D01*
G01*
G37*
G36*
G01*
X137205000Y-125986250D02*
X137205000Y-125473750D01*
G75*
G02*
X137423750Y-125255000I218750J0D01*
G01*
X137861250Y-125255000D01*
G75*
G02*
X138080000Y-125473750I0J-218750D01*
G01*
X138080000Y-125986250D01*
G75*
G02*
X137861250Y-126205000I-218750J0D01*
G01*
X137423750Y-126205000D01*
G75*
G02*
X137205000Y-125986250I0J218750D01*
G01*
G37*
G36*
G01*
X149422500Y-125986250D02*
X149422500Y-125473750D01*
G75*
G02*
X149641250Y-125255000I218750J0D01*
G01*
X150078750Y-125255000D01*
G75*
G02*
X150297500Y-125473750I0J-218750D01*
G01*
X150297500Y-125986250D01*
G75*
G02*
X150078750Y-126205000I-218750J0D01*
G01*
X149641250Y-126205000D01*
G75*
G02*
X149422500Y-125986250I0J218750D01*
G01*
G37*
G36*
G01*
X147847500Y-125986250D02*
X147847500Y-125473750D01*
G75*
G02*
X148066250Y-125255000I218750J0D01*
G01*
X148503750Y-125255000D01*
G75*
G02*
X148722500Y-125473750I0J-218750D01*
G01*
X148722500Y-125986250D01*
G75*
G02*
X148503750Y-126205000I-218750J0D01*
G01*
X148066250Y-126205000D01*
G75*
G02*
X147847500Y-125986250I0J218750D01*
G01*
G37*
G36*
G01*
X117190000Y-96776250D02*
X117190000Y-96263750D01*
G75*
G02*
X117408750Y-96045000I218750J0D01*
G01*
X117846250Y-96045000D01*
G75*
G02*
X118065000Y-96263750I0J-218750D01*
G01*
X118065000Y-96776250D01*
G75*
G02*
X117846250Y-96995000I-218750J0D01*
G01*
X117408750Y-96995000D01*
G75*
G02*
X117190000Y-96776250I0J218750D01*
G01*
G37*
G36*
G01*
X115615000Y-96776250D02*
X115615000Y-96263750D01*
G75*
G02*
X115833750Y-96045000I218750J0D01*
G01*
X116271250Y-96045000D01*
G75*
G02*
X116490000Y-96263750I0J-218750D01*
G01*
X116490000Y-96776250D01*
G75*
G02*
X116271250Y-96995000I-218750J0D01*
G01*
X115833750Y-96995000D01*
G75*
G02*
X115615000Y-96776250I0J218750D01*
G01*
G37*
G36*
G01*
X129890000Y-84076250D02*
X129890000Y-83563750D01*
G75*
G02*
X130108750Y-83345000I218750J0D01*
G01*
X130546250Y-83345000D01*
G75*
G02*
X130765000Y-83563750I0J-218750D01*
G01*
X130765000Y-84076250D01*
G75*
G02*
X130546250Y-84295000I-218750J0D01*
G01*
X130108750Y-84295000D01*
G75*
G02*
X129890000Y-84076250I0J218750D01*
G01*
G37*
G36*
G01*
X128315000Y-84076250D02*
X128315000Y-83563750D01*
G75*
G02*
X128533750Y-83345000I218750J0D01*
G01*
X128971250Y-83345000D01*
G75*
G02*
X129190000Y-83563750I0J-218750D01*
G01*
X129190000Y-84076250D01*
G75*
G02*
X128971250Y-84295000I-218750J0D01*
G01*
X128533750Y-84295000D01*
G75*
G02*
X128315000Y-84076250I0J218750D01*
G01*
G37*
G36*
G01*
X117190000Y-100586250D02*
X117190000Y-100073750D01*
G75*
G02*
X117408750Y-99855000I218750J0D01*
G01*
X117846250Y-99855000D01*
G75*
G02*
X118065000Y-100073750I0J-218750D01*
G01*
X118065000Y-100586250D01*
G75*
G02*
X117846250Y-100805000I-218750J0D01*
G01*
X117408750Y-100805000D01*
G75*
G02*
X117190000Y-100586250I0J218750D01*
G01*
G37*
G36*
G01*
X115615000Y-100586250D02*
X115615000Y-100073750D01*
G75*
G02*
X115833750Y-99855000I218750J0D01*
G01*
X116271250Y-99855000D01*
G75*
G02*
X116490000Y-100073750I0J-218750D01*
G01*
X116490000Y-100586250D01*
G75*
G02*
X116271250Y-100805000I-218750J0D01*
G01*
X115833750Y-100805000D01*
G75*
G02*
X115615000Y-100586250I0J218750D01*
G01*
G37*
G36*
G01*
X124022500Y-84076250D02*
X124022500Y-83563750D01*
G75*
G02*
X124241250Y-83345000I218750J0D01*
G01*
X124678750Y-83345000D01*
G75*
G02*
X124897500Y-83563750I0J-218750D01*
G01*
X124897500Y-84076250D01*
G75*
G02*
X124678750Y-84295000I-218750J0D01*
G01*
X124241250Y-84295000D01*
G75*
G02*
X124022500Y-84076250I0J218750D01*
G01*
G37*
G36*
G01*
X122447500Y-84076250D02*
X122447500Y-83563750D01*
G75*
G02*
X122666250Y-83345000I218750J0D01*
G01*
X123103750Y-83345000D01*
G75*
G02*
X123322500Y-83563750I0J-218750D01*
G01*
X123322500Y-84076250D01*
G75*
G02*
X123103750Y-84295000I-218750J0D01*
G01*
X122666250Y-84295000D01*
G75*
G02*
X122447500Y-84076250I0J218750D01*
G01*
G37*
G36*
G01*
X123540000Y-76456250D02*
X123540000Y-75943750D01*
G75*
G02*
X123758750Y-75725000I218750J0D01*
G01*
X124196250Y-75725000D01*
G75*
G02*
X124415000Y-75943750I0J-218750D01*
G01*
X124415000Y-76456250D01*
G75*
G02*
X124196250Y-76675000I-218750J0D01*
G01*
X123758750Y-76675000D01*
G75*
G02*
X123540000Y-76456250I0J218750D01*
G01*
G37*
G36*
G01*
X121965000Y-76456250D02*
X121965000Y-75943750D01*
G75*
G02*
X122183750Y-75725000I218750J0D01*
G01*
X122621250Y-75725000D01*
G75*
G02*
X122840000Y-75943750I0J-218750D01*
G01*
X122840000Y-76456250D01*
G75*
G02*
X122621250Y-76675000I-218750J0D01*
G01*
X122183750Y-76675000D01*
G75*
G02*
X121965000Y-76456250I0J218750D01*
G01*
G37*
G36*
G01*
X129890000Y-76456250D02*
X129890000Y-75943750D01*
G75*
G02*
X130108750Y-75725000I218750J0D01*
G01*
X130546250Y-75725000D01*
G75*
G02*
X130765000Y-75943750I0J-218750D01*
G01*
X130765000Y-76456250D01*
G75*
G02*
X130546250Y-76675000I-218750J0D01*
G01*
X130108750Y-76675000D01*
G75*
G02*
X129890000Y-76456250I0J218750D01*
G01*
G37*
G36*
G01*
X128315000Y-76456250D02*
X128315000Y-75943750D01*
G75*
G02*
X128533750Y-75725000I218750J0D01*
G01*
X128971250Y-75725000D01*
G75*
G02*
X129190000Y-75943750I0J-218750D01*
G01*
X129190000Y-76456250D01*
G75*
G02*
X128971250Y-76675000I-218750J0D01*
G01*
X128533750Y-76675000D01*
G75*
G02*
X128315000Y-76456250I0J218750D01*
G01*
G37*
G36*
G01*
X143860000Y-129796250D02*
X143860000Y-129283750D01*
G75*
G02*
X144078750Y-129065000I218750J0D01*
G01*
X144516250Y-129065000D01*
G75*
G02*
X144735000Y-129283750I0J-218750D01*
G01*
X144735000Y-129796250D01*
G75*
G02*
X144516250Y-130015000I-218750J0D01*
G01*
X144078750Y-130015000D01*
G75*
G02*
X143860000Y-129796250I0J218750D01*
G01*
G37*
G36*
G01*
X142285000Y-129796250D02*
X142285000Y-129283750D01*
G75*
G02*
X142503750Y-129065000I218750J0D01*
G01*
X142941250Y-129065000D01*
G75*
G02*
X143160000Y-129283750I0J-218750D01*
G01*
X143160000Y-129796250D01*
G75*
G02*
X142941250Y-130015000I-218750J0D01*
G01*
X142503750Y-130015000D01*
G75*
G02*
X142285000Y-129796250I0J218750D01*
G01*
G37*
G36*
G01*
X123540000Y-63756250D02*
X123540000Y-63243750D01*
G75*
G02*
X123758750Y-63025000I218750J0D01*
G01*
X124196250Y-63025000D01*
G75*
G02*
X124415000Y-63243750I0J-218750D01*
G01*
X124415000Y-63756250D01*
G75*
G02*
X124196250Y-63975000I-218750J0D01*
G01*
X123758750Y-63975000D01*
G75*
G02*
X123540000Y-63756250I0J218750D01*
G01*
G37*
G36*
G01*
X121965000Y-63756250D02*
X121965000Y-63243750D01*
G75*
G02*
X122183750Y-63025000I218750J0D01*
G01*
X122621250Y-63025000D01*
G75*
G02*
X122840000Y-63243750I0J-218750D01*
G01*
X122840000Y-63756250D01*
G75*
G02*
X122621250Y-63975000I-218750J0D01*
G01*
X122183750Y-63975000D01*
G75*
G02*
X121965000Y-63756250I0J218750D01*
G01*
G37*
G36*
G01*
X121000000Y-48516250D02*
X121000000Y-48003750D01*
G75*
G02*
X121218750Y-47785000I218750J0D01*
G01*
X121656250Y-47785000D01*
G75*
G02*
X121875000Y-48003750I0J-218750D01*
G01*
X121875000Y-48516250D01*
G75*
G02*
X121656250Y-48735000I-218750J0D01*
G01*
X121218750Y-48735000D01*
G75*
G02*
X121000000Y-48516250I0J218750D01*
G01*
G37*
G36*
G01*
X119425000Y-48516250D02*
X119425000Y-48003750D01*
G75*
G02*
X119643750Y-47785000I218750J0D01*
G01*
X120081250Y-47785000D01*
G75*
G02*
X120300000Y-48003750I0J-218750D01*
G01*
X120300000Y-48516250D01*
G75*
G02*
X120081250Y-48735000I-218750J0D01*
G01*
X119643750Y-48735000D01*
G75*
G02*
X119425000Y-48516250I0J218750D01*
G01*
G37*
G36*
G01*
X134270000Y-140713750D02*
X134270000Y-141226250D01*
G75*
G02*
X134051250Y-141445000I-218750J0D01*
G01*
X133613750Y-141445000D01*
G75*
G02*
X133395000Y-141226250I0J218750D01*
G01*
X133395000Y-140713750D01*
G75*
G02*
X133613750Y-140495000I218750J0D01*
G01*
X134051250Y-140495000D01*
G75*
G02*
X134270000Y-140713750I0J-218750D01*
G01*
G37*
G36*
G01*
X135845000Y-140713750D02*
X135845000Y-141226250D01*
G75*
G02*
X135626250Y-141445000I-218750J0D01*
G01*
X135188750Y-141445000D01*
G75*
G02*
X134970000Y-141226250I0J218750D01*
G01*
X134970000Y-140713750D01*
G75*
G02*
X135188750Y-140495000I218750J0D01*
G01*
X135626250Y-140495000D01*
G75*
G02*
X135845000Y-140713750I0J-218750D01*
G01*
G37*
G36*
G01*
X134970000Y-132336250D02*
X134970000Y-131823750D01*
G75*
G02*
X135188750Y-131605000I218750J0D01*
G01*
X135626250Y-131605000D01*
G75*
G02*
X135845000Y-131823750I0J-218750D01*
G01*
X135845000Y-132336250D01*
G75*
G02*
X135626250Y-132555000I-218750J0D01*
G01*
X135188750Y-132555000D01*
G75*
G02*
X134970000Y-132336250I0J218750D01*
G01*
G37*
G36*
G01*
X133395000Y-132336250D02*
X133395000Y-131823750D01*
G75*
G02*
X133613750Y-131605000I218750J0D01*
G01*
X134051250Y-131605000D01*
G75*
G02*
X134270000Y-131823750I0J-218750D01*
G01*
X134270000Y-132336250D01*
G75*
G02*
X134051250Y-132555000I-218750J0D01*
G01*
X133613750Y-132555000D01*
G75*
G02*
X133395000Y-132336250I0J218750D01*
G01*
G37*
G36*
G01*
X148240000Y-141983750D02*
X148240000Y-142496250D01*
G75*
G02*
X148021250Y-142715000I-218750J0D01*
G01*
X147583750Y-142715000D01*
G75*
G02*
X147365000Y-142496250I0J218750D01*
G01*
X147365000Y-141983750D01*
G75*
G02*
X147583750Y-141765000I218750J0D01*
G01*
X148021250Y-141765000D01*
G75*
G02*
X148240000Y-141983750I0J-218750D01*
G01*
G37*
G36*
G01*
X149815000Y-141983750D02*
X149815000Y-142496250D01*
G75*
G02*
X149596250Y-142715000I-218750J0D01*
G01*
X149158750Y-142715000D01*
G75*
G02*
X148940000Y-142496250I0J218750D01*
G01*
X148940000Y-141983750D01*
G75*
G02*
X149158750Y-141765000I218750J0D01*
G01*
X149596250Y-141765000D01*
G75*
G02*
X149815000Y-141983750I0J-218750D01*
G01*
G37*
G36*
G01*
X148940000Y-137416250D02*
X148940000Y-136903750D01*
G75*
G02*
X149158750Y-136685000I218750J0D01*
G01*
X149596250Y-136685000D01*
G75*
G02*
X149815000Y-136903750I0J-218750D01*
G01*
X149815000Y-137416250D01*
G75*
G02*
X149596250Y-137635000I-218750J0D01*
G01*
X149158750Y-137635000D01*
G75*
G02*
X148940000Y-137416250I0J218750D01*
G01*
G37*
G36*
G01*
X147365000Y-137416250D02*
X147365000Y-136903750D01*
G75*
G02*
X147583750Y-136685000I218750J0D01*
G01*
X148021250Y-136685000D01*
G75*
G02*
X148240000Y-136903750I0J-218750D01*
G01*
X148240000Y-137416250D01*
G75*
G02*
X148021250Y-137635000I-218750J0D01*
G01*
X147583750Y-137635000D01*
G75*
G02*
X147365000Y-137416250I0J218750D01*
G01*
G37*
G36*
G01*
X148940000Y-133606250D02*
X148940000Y-133093750D01*
G75*
G02*
X149158750Y-132875000I218750J0D01*
G01*
X149596250Y-132875000D01*
G75*
G02*
X149815000Y-133093750I0J-218750D01*
G01*
X149815000Y-133606250D01*
G75*
G02*
X149596250Y-133825000I-218750J0D01*
G01*
X149158750Y-133825000D01*
G75*
G02*
X148940000Y-133606250I0J218750D01*
G01*
G37*
G36*
G01*
X147365000Y-133606250D02*
X147365000Y-133093750D01*
G75*
G02*
X147583750Y-132875000I218750J0D01*
G01*
X148021250Y-132875000D01*
G75*
G02*
X148240000Y-133093750I0J-218750D01*
G01*
X148240000Y-133606250D01*
G75*
G02*
X148021250Y-133825000I-218750J0D01*
G01*
X147583750Y-133825000D01*
G75*
G02*
X147365000Y-133606250I0J218750D01*
G01*
G37*
G36*
G01*
X107030000Y-117096250D02*
X107030000Y-116583750D01*
G75*
G02*
X107248750Y-116365000I218750J0D01*
G01*
X107686250Y-116365000D01*
G75*
G02*
X107905000Y-116583750I0J-218750D01*
G01*
X107905000Y-117096250D01*
G75*
G02*
X107686250Y-117315000I-218750J0D01*
G01*
X107248750Y-117315000D01*
G75*
G02*
X107030000Y-117096250I0J218750D01*
G01*
G37*
G36*
G01*
X105455000Y-117096250D02*
X105455000Y-116583750D01*
G75*
G02*
X105673750Y-116365000I218750J0D01*
G01*
X106111250Y-116365000D01*
G75*
G02*
X106330000Y-116583750I0J-218750D01*
G01*
X106330000Y-117096250D01*
G75*
G02*
X106111250Y-117315000I-218750J0D01*
G01*
X105673750Y-117315000D01*
G75*
G02*
X105455000Y-117096250I0J218750D01*
G01*
G37*
G36*
G01*
X93060000Y-125986250D02*
X93060000Y-125473750D01*
G75*
G02*
X93278750Y-125255000I218750J0D01*
G01*
X93716250Y-125255000D01*
G75*
G02*
X93935000Y-125473750I0J-218750D01*
G01*
X93935000Y-125986250D01*
G75*
G02*
X93716250Y-126205000I-218750J0D01*
G01*
X93278750Y-126205000D01*
G75*
G02*
X93060000Y-125986250I0J218750D01*
G01*
G37*
G36*
G01*
X91485000Y-125986250D02*
X91485000Y-125473750D01*
G75*
G02*
X91703750Y-125255000I218750J0D01*
G01*
X92141250Y-125255000D01*
G75*
G02*
X92360000Y-125473750I0J-218750D01*
G01*
X92360000Y-125986250D01*
G75*
G02*
X92141250Y-126205000I-218750J0D01*
G01*
X91703750Y-126205000D01*
G75*
G02*
X91485000Y-125986250I0J218750D01*
G01*
G37*
G36*
G01*
X70200000Y-92966250D02*
X70200000Y-92453750D01*
G75*
G02*
X70418750Y-92235000I218750J0D01*
G01*
X70856250Y-92235000D01*
G75*
G02*
X71075000Y-92453750I0J-218750D01*
G01*
X71075000Y-92966250D01*
G75*
G02*
X70856250Y-93185000I-218750J0D01*
G01*
X70418750Y-93185000D01*
G75*
G02*
X70200000Y-92966250I0J218750D01*
G01*
G37*
G36*
G01*
X68625000Y-92966250D02*
X68625000Y-92453750D01*
G75*
G02*
X68843750Y-92235000I218750J0D01*
G01*
X69281250Y-92235000D01*
G75*
G02*
X69500000Y-92453750I0J-218750D01*
G01*
X69500000Y-92966250D01*
G75*
G02*
X69281250Y-93185000I-218750J0D01*
G01*
X68843750Y-93185000D01*
G75*
G02*
X68625000Y-92966250I0J218750D01*
G01*
G37*
G36*
G01*
X75850000Y-92453750D02*
X75850000Y-92966250D01*
G75*
G02*
X75631250Y-93185000I-218750J0D01*
G01*
X75193750Y-93185000D01*
G75*
G02*
X74975000Y-92966250I0J218750D01*
G01*
X74975000Y-92453750D01*
G75*
G02*
X75193750Y-92235000I218750J0D01*
G01*
X75631250Y-92235000D01*
G75*
G02*
X75850000Y-92453750I0J-218750D01*
G01*
G37*
G36*
G01*
X77425000Y-92453750D02*
X77425000Y-92966250D01*
G75*
G02*
X77206250Y-93185000I-218750J0D01*
G01*
X76768750Y-93185000D01*
G75*
G02*
X76550000Y-92966250I0J218750D01*
G01*
X76550000Y-92453750D01*
G75*
G02*
X76768750Y-92235000I218750J0D01*
G01*
X77206250Y-92235000D01*
G75*
G02*
X77425000Y-92453750I0J-218750D01*
G01*
G37*
G36*
G01*
X96870000Y-125986250D02*
X96870000Y-125473750D01*
G75*
G02*
X97088750Y-125255000I218750J0D01*
G01*
X97526250Y-125255000D01*
G75*
G02*
X97745000Y-125473750I0J-218750D01*
G01*
X97745000Y-125986250D01*
G75*
G02*
X97526250Y-126205000I-218750J0D01*
G01*
X97088750Y-126205000D01*
G75*
G02*
X96870000Y-125986250I0J218750D01*
G01*
G37*
G36*
G01*
X95295000Y-125986250D02*
X95295000Y-125473750D01*
G75*
G02*
X95513750Y-125255000I218750J0D01*
G01*
X95951250Y-125255000D01*
G75*
G02*
X96170000Y-125473750I0J-218750D01*
G01*
X96170000Y-125986250D01*
G75*
G02*
X95951250Y-126205000I-218750J0D01*
G01*
X95513750Y-126205000D01*
G75*
G02*
X95295000Y-125986250I0J218750D01*
G01*
G37*
G36*
G01*
X106330000Y-125473750D02*
X106330000Y-125986250D01*
G75*
G02*
X106111250Y-126205000I-218750J0D01*
G01*
X105673750Y-126205000D01*
G75*
G02*
X105455000Y-125986250I0J218750D01*
G01*
X105455000Y-125473750D01*
G75*
G02*
X105673750Y-125255000I218750J0D01*
G01*
X106111250Y-125255000D01*
G75*
G02*
X106330000Y-125473750I0J-218750D01*
G01*
G37*
G36*
G01*
X107905000Y-125473750D02*
X107905000Y-125986250D01*
G75*
G02*
X107686250Y-126205000I-218750J0D01*
G01*
X107248750Y-126205000D01*
G75*
G02*
X107030000Y-125986250I0J218750D01*
G01*
X107030000Y-125473750D01*
G75*
G02*
X107248750Y-125255000I218750J0D01*
G01*
X107686250Y-125255000D01*
G75*
G02*
X107905000Y-125473750I0J-218750D01*
G01*
G37*
G36*
G01*
X76550000Y-98046250D02*
X76550000Y-97533750D01*
G75*
G02*
X76768750Y-97315000I218750J0D01*
G01*
X77206250Y-97315000D01*
G75*
G02*
X77425000Y-97533750I0J-218750D01*
G01*
X77425000Y-98046250D01*
G75*
G02*
X77206250Y-98265000I-218750J0D01*
G01*
X76768750Y-98265000D01*
G75*
G02*
X76550000Y-98046250I0J218750D01*
G01*
G37*
G36*
G01*
X74975000Y-98046250D02*
X74975000Y-97533750D01*
G75*
G02*
X75193750Y-97315000I218750J0D01*
G01*
X75631250Y-97315000D01*
G75*
G02*
X75850000Y-97533750I0J-218750D01*
G01*
X75850000Y-98046250D01*
G75*
G02*
X75631250Y-98265000I-218750J0D01*
G01*
X75193750Y-98265000D01*
G75*
G02*
X74975000Y-98046250I0J218750D01*
G01*
G37*
G36*
G01*
X87980000Y-84076250D02*
X87980000Y-83563750D01*
G75*
G02*
X88198750Y-83345000I218750J0D01*
G01*
X88636250Y-83345000D01*
G75*
G02*
X88855000Y-83563750I0J-218750D01*
G01*
X88855000Y-84076250D01*
G75*
G02*
X88636250Y-84295000I-218750J0D01*
G01*
X88198750Y-84295000D01*
G75*
G02*
X87980000Y-84076250I0J218750D01*
G01*
G37*
G36*
G01*
X86405000Y-84076250D02*
X86405000Y-83563750D01*
G75*
G02*
X86623750Y-83345000I218750J0D01*
G01*
X87061250Y-83345000D01*
G75*
G02*
X87280000Y-83563750I0J-218750D01*
G01*
X87280000Y-84076250D01*
G75*
G02*
X87061250Y-84295000I-218750J0D01*
G01*
X86623750Y-84295000D01*
G75*
G02*
X86405000Y-84076250I0J218750D01*
G01*
G37*
G36*
G01*
X76550000Y-101856250D02*
X76550000Y-101343750D01*
G75*
G02*
X76768750Y-101125000I218750J0D01*
G01*
X77206250Y-101125000D01*
G75*
G02*
X77425000Y-101343750I0J-218750D01*
G01*
X77425000Y-101856250D01*
G75*
G02*
X77206250Y-102075000I-218750J0D01*
G01*
X76768750Y-102075000D01*
G75*
G02*
X76550000Y-101856250I0J218750D01*
G01*
G37*
G36*
G01*
X74975000Y-101856250D02*
X74975000Y-101343750D01*
G75*
G02*
X75193750Y-101125000I218750J0D01*
G01*
X75631250Y-101125000D01*
G75*
G02*
X75850000Y-101343750I0J-218750D01*
G01*
X75850000Y-101856250D01*
G75*
G02*
X75631250Y-102075000I-218750J0D01*
G01*
X75193750Y-102075000D01*
G75*
G02*
X74975000Y-101856250I0J218750D01*
G01*
G37*
G36*
G01*
X82900000Y-84076250D02*
X82900000Y-83563750D01*
G75*
G02*
X83118750Y-83345000I218750J0D01*
G01*
X83556250Y-83345000D01*
G75*
G02*
X83775000Y-83563750I0J-218750D01*
G01*
X83775000Y-84076250D01*
G75*
G02*
X83556250Y-84295000I-218750J0D01*
G01*
X83118750Y-84295000D01*
G75*
G02*
X82900000Y-84076250I0J218750D01*
G01*
G37*
G36*
G01*
X81325000Y-84076250D02*
X81325000Y-83563750D01*
G75*
G02*
X81543750Y-83345000I218750J0D01*
G01*
X81981250Y-83345000D01*
G75*
G02*
X82200000Y-83563750I0J-218750D01*
G01*
X82200000Y-84076250D01*
G75*
G02*
X81981250Y-84295000I-218750J0D01*
G01*
X81543750Y-84295000D01*
G75*
G02*
X81325000Y-84076250I0J218750D01*
G01*
G37*
G36*
G01*
X82417500Y-76456250D02*
X82417500Y-75943750D01*
G75*
G02*
X82636250Y-75725000I218750J0D01*
G01*
X83073750Y-75725000D01*
G75*
G02*
X83292500Y-75943750I0J-218750D01*
G01*
X83292500Y-76456250D01*
G75*
G02*
X83073750Y-76675000I-218750J0D01*
G01*
X82636250Y-76675000D01*
G75*
G02*
X82417500Y-76456250I0J218750D01*
G01*
G37*
G36*
G01*
X80842500Y-76456250D02*
X80842500Y-75943750D01*
G75*
G02*
X81061250Y-75725000I218750J0D01*
G01*
X81498750Y-75725000D01*
G75*
G02*
X81717500Y-75943750I0J-218750D01*
G01*
X81717500Y-76456250D01*
G75*
G02*
X81498750Y-76675000I-218750J0D01*
G01*
X81061250Y-76675000D01*
G75*
G02*
X80842500Y-76456250I0J218750D01*
G01*
G37*
G36*
G01*
X87980000Y-76456250D02*
X87980000Y-75943750D01*
G75*
G02*
X88198750Y-75725000I218750J0D01*
G01*
X88636250Y-75725000D01*
G75*
G02*
X88855000Y-75943750I0J-218750D01*
G01*
X88855000Y-76456250D01*
G75*
G02*
X88636250Y-76675000I-218750J0D01*
G01*
X88198750Y-76675000D01*
G75*
G02*
X87980000Y-76456250I0J218750D01*
G01*
G37*
G36*
G01*
X86405000Y-76456250D02*
X86405000Y-75943750D01*
G75*
G02*
X86623750Y-75725000I218750J0D01*
G01*
X87061250Y-75725000D01*
G75*
G02*
X87280000Y-75943750I0J-218750D01*
G01*
X87280000Y-76456250D01*
G75*
G02*
X87061250Y-76675000I-218750J0D01*
G01*
X86623750Y-76675000D01*
G75*
G02*
X86405000Y-76456250I0J218750D01*
G01*
G37*
G36*
G01*
X101950000Y-129796250D02*
X101950000Y-129283750D01*
G75*
G02*
X102168750Y-129065000I218750J0D01*
G01*
X102606250Y-129065000D01*
G75*
G02*
X102825000Y-129283750I0J-218750D01*
G01*
X102825000Y-129796250D01*
G75*
G02*
X102606250Y-130015000I-218750J0D01*
G01*
X102168750Y-130015000D01*
G75*
G02*
X101950000Y-129796250I0J218750D01*
G01*
G37*
G36*
G01*
X100375000Y-129796250D02*
X100375000Y-129283750D01*
G75*
G02*
X100593750Y-129065000I218750J0D01*
G01*
X101031250Y-129065000D01*
G75*
G02*
X101250000Y-129283750I0J-218750D01*
G01*
X101250000Y-129796250D01*
G75*
G02*
X101031250Y-130015000I-218750J0D01*
G01*
X100593750Y-130015000D01*
G75*
G02*
X100375000Y-129796250I0J218750D01*
G01*
G37*
G36*
G01*
X82900000Y-63756250D02*
X82900000Y-63243750D01*
G75*
G02*
X83118750Y-63025000I218750J0D01*
G01*
X83556250Y-63025000D01*
G75*
G02*
X83775000Y-63243750I0J-218750D01*
G01*
X83775000Y-63756250D01*
G75*
G02*
X83556250Y-63975000I-218750J0D01*
G01*
X83118750Y-63975000D01*
G75*
G02*
X82900000Y-63756250I0J218750D01*
G01*
G37*
G36*
G01*
X81325000Y-63756250D02*
X81325000Y-63243750D01*
G75*
G02*
X81543750Y-63025000I218750J0D01*
G01*
X81981250Y-63025000D01*
G75*
G02*
X82200000Y-63243750I0J-218750D01*
G01*
X82200000Y-63756250D01*
G75*
G02*
X81981250Y-63975000I-218750J0D01*
G01*
X81543750Y-63975000D01*
G75*
G02*
X81325000Y-63756250I0J218750D01*
G01*
G37*
G36*
G01*
X80360000Y-48516250D02*
X80360000Y-48003750D01*
G75*
G02*
X80578750Y-47785000I218750J0D01*
G01*
X81016250Y-47785000D01*
G75*
G02*
X81235000Y-48003750I0J-218750D01*
G01*
X81235000Y-48516250D01*
G75*
G02*
X81016250Y-48735000I-218750J0D01*
G01*
X80578750Y-48735000D01*
G75*
G02*
X80360000Y-48516250I0J218750D01*
G01*
G37*
G36*
G01*
X78785000Y-48516250D02*
X78785000Y-48003750D01*
G75*
G02*
X79003750Y-47785000I218750J0D01*
G01*
X79441250Y-47785000D01*
G75*
G02*
X79660000Y-48003750I0J-218750D01*
G01*
X79660000Y-48516250D01*
G75*
G02*
X79441250Y-48735000I-218750J0D01*
G01*
X79003750Y-48735000D01*
G75*
G02*
X78785000Y-48516250I0J218750D01*
G01*
G37*
G36*
G01*
X92360000Y-140713750D02*
X92360000Y-141226250D01*
G75*
G02*
X92141250Y-141445000I-218750J0D01*
G01*
X91703750Y-141445000D01*
G75*
G02*
X91485000Y-141226250I0J218750D01*
G01*
X91485000Y-140713750D01*
G75*
G02*
X91703750Y-140495000I218750J0D01*
G01*
X92141250Y-140495000D01*
G75*
G02*
X92360000Y-140713750I0J-218750D01*
G01*
G37*
G36*
G01*
X93935000Y-140713750D02*
X93935000Y-141226250D01*
G75*
G02*
X93716250Y-141445000I-218750J0D01*
G01*
X93278750Y-141445000D01*
G75*
G02*
X93060000Y-141226250I0J218750D01*
G01*
X93060000Y-140713750D01*
G75*
G02*
X93278750Y-140495000I218750J0D01*
G01*
X93716250Y-140495000D01*
G75*
G02*
X93935000Y-140713750I0J-218750D01*
G01*
G37*
G36*
G01*
X93060000Y-132336250D02*
X93060000Y-131823750D01*
G75*
G02*
X93278750Y-131605000I218750J0D01*
G01*
X93716250Y-131605000D01*
G75*
G02*
X93935000Y-131823750I0J-218750D01*
G01*
X93935000Y-132336250D01*
G75*
G02*
X93716250Y-132555000I-218750J0D01*
G01*
X93278750Y-132555000D01*
G75*
G02*
X93060000Y-132336250I0J218750D01*
G01*
G37*
G36*
G01*
X91485000Y-132336250D02*
X91485000Y-131823750D01*
G75*
G02*
X91703750Y-131605000I218750J0D01*
G01*
X92141250Y-131605000D01*
G75*
G02*
X92360000Y-131823750I0J-218750D01*
G01*
X92360000Y-132336250D01*
G75*
G02*
X92141250Y-132555000I-218750J0D01*
G01*
X91703750Y-132555000D01*
G75*
G02*
X91485000Y-132336250I0J218750D01*
G01*
G37*
G36*
G01*
X105060000Y-140713750D02*
X105060000Y-141226250D01*
G75*
G02*
X104841250Y-141445000I-218750J0D01*
G01*
X104403750Y-141445000D01*
G75*
G02*
X104185000Y-141226250I0J218750D01*
G01*
X104185000Y-140713750D01*
G75*
G02*
X104403750Y-140495000I218750J0D01*
G01*
X104841250Y-140495000D01*
G75*
G02*
X105060000Y-140713750I0J-218750D01*
G01*
G37*
G36*
G01*
X106635000Y-140713750D02*
X106635000Y-141226250D01*
G75*
G02*
X106416250Y-141445000I-218750J0D01*
G01*
X105978750Y-141445000D01*
G75*
G02*
X105760000Y-141226250I0J218750D01*
G01*
X105760000Y-140713750D01*
G75*
G02*
X105978750Y-140495000I218750J0D01*
G01*
X106416250Y-140495000D01*
G75*
G02*
X106635000Y-140713750I0J-218750D01*
G01*
G37*
G36*
G01*
X105760000Y-137416250D02*
X105760000Y-136903750D01*
G75*
G02*
X105978750Y-136685000I218750J0D01*
G01*
X106416250Y-136685000D01*
G75*
G02*
X106635000Y-136903750I0J-218750D01*
G01*
X106635000Y-137416250D01*
G75*
G02*
X106416250Y-137635000I-218750J0D01*
G01*
X105978750Y-137635000D01*
G75*
G02*
X105760000Y-137416250I0J218750D01*
G01*
G37*
G36*
G01*
X104185000Y-137416250D02*
X104185000Y-136903750D01*
G75*
G02*
X104403750Y-136685000I218750J0D01*
G01*
X104841250Y-136685000D01*
G75*
G02*
X105060000Y-136903750I0J-218750D01*
G01*
X105060000Y-137416250D01*
G75*
G02*
X104841250Y-137635000I-218750J0D01*
G01*
X104403750Y-137635000D01*
G75*
G02*
X104185000Y-137416250I0J218750D01*
G01*
G37*
G36*
G01*
X105760000Y-133606250D02*
X105760000Y-133093750D01*
G75*
G02*
X105978750Y-132875000I218750J0D01*
G01*
X106416250Y-132875000D01*
G75*
G02*
X106635000Y-133093750I0J-218750D01*
G01*
X106635000Y-133606250D01*
G75*
G02*
X106416250Y-133825000I-218750J0D01*
G01*
X105978750Y-133825000D01*
G75*
G02*
X105760000Y-133606250I0J218750D01*
G01*
G37*
G36*
G01*
X104185000Y-133606250D02*
X104185000Y-133093750D01*
G75*
G02*
X104403750Y-132875000I218750J0D01*
G01*
X104841250Y-132875000D01*
G75*
G02*
X105060000Y-133093750I0J-218750D01*
G01*
X105060000Y-133606250D01*
G75*
G02*
X104841250Y-133825000I-218750J0D01*
G01*
X104403750Y-133825000D01*
G75*
G02*
X104185000Y-133606250I0J218750D01*
G01*
G37*
G36*
G01*
X198350000Y-121435000D02*
X198350000Y-121135000D01*
G75*
G02*
X198500000Y-120985000I150000J0D01*
G01*
X200150000Y-120985000D01*
G75*
G02*
X200300000Y-121135000I0J-150000D01*
G01*
X200300000Y-121435000D01*
G75*
G02*
X200150000Y-121585000I-150000J0D01*
G01*
X198500000Y-121585000D01*
G75*
G02*
X198350000Y-121435000I0J150000D01*
G01*
G37*
G36*
G01*
X198350000Y-120165000D02*
X198350000Y-119865000D01*
G75*
G02*
X198500000Y-119715000I150000J0D01*
G01*
X200150000Y-119715000D01*
G75*
G02*
X200300000Y-119865000I0J-150000D01*
G01*
X200300000Y-120165000D01*
G75*
G02*
X200150000Y-120315000I-150000J0D01*
G01*
X198500000Y-120315000D01*
G75*
G02*
X198350000Y-120165000I0J150000D01*
G01*
G37*
G36*
G01*
X198350000Y-118895000D02*
X198350000Y-118595000D01*
G75*
G02*
X198500000Y-118445000I150000J0D01*
G01*
X200150000Y-118445000D01*
G75*
G02*
X200300000Y-118595000I0J-150000D01*
G01*
X200300000Y-118895000D01*
G75*
G02*
X200150000Y-119045000I-150000J0D01*
G01*
X198500000Y-119045000D01*
G75*
G02*
X198350000Y-118895000I0J150000D01*
G01*
G37*
G36*
G01*
X198350000Y-117625000D02*
X198350000Y-117325000D01*
G75*
G02*
X198500000Y-117175000I150000J0D01*
G01*
X200150000Y-117175000D01*
G75*
G02*
X200300000Y-117325000I0J-150000D01*
G01*
X200300000Y-117625000D01*
G75*
G02*
X200150000Y-117775000I-150000J0D01*
G01*
X198500000Y-117775000D01*
G75*
G02*
X198350000Y-117625000I0J150000D01*
G01*
G37*
G36*
G01*
X193400000Y-117625000D02*
X193400000Y-117325000D01*
G75*
G02*
X193550000Y-117175000I150000J0D01*
G01*
X195200000Y-117175000D01*
G75*
G02*
X195350000Y-117325000I0J-150000D01*
G01*
X195350000Y-117625000D01*
G75*
G02*
X195200000Y-117775000I-150000J0D01*
G01*
X193550000Y-117775000D01*
G75*
G02*
X193400000Y-117625000I0J150000D01*
G01*
G37*
G36*
G01*
X193400000Y-118895000D02*
X193400000Y-118595000D01*
G75*
G02*
X193550000Y-118445000I150000J0D01*
G01*
X195200000Y-118445000D01*
G75*
G02*
X195350000Y-118595000I0J-150000D01*
G01*
X195350000Y-118895000D01*
G75*
G02*
X195200000Y-119045000I-150000J0D01*
G01*
X193550000Y-119045000D01*
G75*
G02*
X193400000Y-118895000I0J150000D01*
G01*
G37*
G36*
G01*
X193400000Y-120165000D02*
X193400000Y-119865000D01*
G75*
G02*
X193550000Y-119715000I150000J0D01*
G01*
X195200000Y-119715000D01*
G75*
G02*
X195350000Y-119865000I0J-150000D01*
G01*
X195350000Y-120165000D01*
G75*
G02*
X195200000Y-120315000I-150000J0D01*
G01*
X193550000Y-120315000D01*
G75*
G02*
X193400000Y-120165000I0J150000D01*
G01*
G37*
G36*
G01*
X193400000Y-121435000D02*
X193400000Y-121135000D01*
G75*
G02*
X193550000Y-120985000I150000J0D01*
G01*
X195200000Y-120985000D01*
G75*
G02*
X195350000Y-121135000I0J-150000D01*
G01*
X195350000Y-121435000D01*
G75*
G02*
X195200000Y-121585000I-150000J0D01*
G01*
X193550000Y-121585000D01*
G75*
G02*
X193400000Y-121435000I0J150000D01*
G01*
G37*
G36*
G01*
X223750000Y-136675000D02*
X223750000Y-136375000D01*
G75*
G02*
X223900000Y-136225000I150000J0D01*
G01*
X225550000Y-136225000D01*
G75*
G02*
X225700000Y-136375000I0J-150000D01*
G01*
X225700000Y-136675000D01*
G75*
G02*
X225550000Y-136825000I-150000J0D01*
G01*
X223900000Y-136825000D01*
G75*
G02*
X223750000Y-136675000I0J150000D01*
G01*
G37*
G36*
G01*
X223750000Y-135405000D02*
X223750000Y-135105000D01*
G75*
G02*
X223900000Y-134955000I150000J0D01*
G01*
X225550000Y-134955000D01*
G75*
G02*
X225700000Y-135105000I0J-150000D01*
G01*
X225700000Y-135405000D01*
G75*
G02*
X225550000Y-135555000I-150000J0D01*
G01*
X223900000Y-135555000D01*
G75*
G02*
X223750000Y-135405000I0J150000D01*
G01*
G37*
G36*
G01*
X223750000Y-134135000D02*
X223750000Y-133835000D01*
G75*
G02*
X223900000Y-133685000I150000J0D01*
G01*
X225550000Y-133685000D01*
G75*
G02*
X225700000Y-133835000I0J-150000D01*
G01*
X225700000Y-134135000D01*
G75*
G02*
X225550000Y-134285000I-150000J0D01*
G01*
X223900000Y-134285000D01*
G75*
G02*
X223750000Y-134135000I0J150000D01*
G01*
G37*
G36*
G01*
X223750000Y-132865000D02*
X223750000Y-132565000D01*
G75*
G02*
X223900000Y-132415000I150000J0D01*
G01*
X225550000Y-132415000D01*
G75*
G02*
X225700000Y-132565000I0J-150000D01*
G01*
X225700000Y-132865000D01*
G75*
G02*
X225550000Y-133015000I-150000J0D01*
G01*
X223900000Y-133015000D01*
G75*
G02*
X223750000Y-132865000I0J150000D01*
G01*
G37*
G36*
G01*
X218800000Y-132865000D02*
X218800000Y-132565000D01*
G75*
G02*
X218950000Y-132415000I150000J0D01*
G01*
X220600000Y-132415000D01*
G75*
G02*
X220750000Y-132565000I0J-150000D01*
G01*
X220750000Y-132865000D01*
G75*
G02*
X220600000Y-133015000I-150000J0D01*
G01*
X218950000Y-133015000D01*
G75*
G02*
X218800000Y-132865000I0J150000D01*
G01*
G37*
G36*
G01*
X218800000Y-134135000D02*
X218800000Y-133835000D01*
G75*
G02*
X218950000Y-133685000I150000J0D01*
G01*
X220600000Y-133685000D01*
G75*
G02*
X220750000Y-133835000I0J-150000D01*
G01*
X220750000Y-134135000D01*
G75*
G02*
X220600000Y-134285000I-150000J0D01*
G01*
X218950000Y-134285000D01*
G75*
G02*
X218800000Y-134135000I0J150000D01*
G01*
G37*
G36*
G01*
X218800000Y-135405000D02*
X218800000Y-135105000D01*
G75*
G02*
X218950000Y-134955000I150000J0D01*
G01*
X220600000Y-134955000D01*
G75*
G02*
X220750000Y-135105000I0J-150000D01*
G01*
X220750000Y-135405000D01*
G75*
G02*
X220600000Y-135555000I-150000J0D01*
G01*
X218950000Y-135555000D01*
G75*
G02*
X218800000Y-135405000I0J150000D01*
G01*
G37*
G36*
G01*
X218800000Y-136675000D02*
X218800000Y-136375000D01*
G75*
G02*
X218950000Y-136225000I150000J0D01*
G01*
X220600000Y-136225000D01*
G75*
G02*
X220750000Y-136375000I0J-150000D01*
G01*
X220750000Y-136675000D01*
G75*
G02*
X220600000Y-136825000I-150000J0D01*
G01*
X218950000Y-136825000D01*
G75*
G02*
X218800000Y-136675000I0J150000D01*
G01*
G37*
G36*
G01*
X184380000Y-121435000D02*
X184380000Y-121135000D01*
G75*
G02*
X184530000Y-120985000I150000J0D01*
G01*
X186180000Y-120985000D01*
G75*
G02*
X186330000Y-121135000I0J-150000D01*
G01*
X186330000Y-121435000D01*
G75*
G02*
X186180000Y-121585000I-150000J0D01*
G01*
X184530000Y-121585000D01*
G75*
G02*
X184380000Y-121435000I0J150000D01*
G01*
G37*
G36*
G01*
X184380000Y-120165000D02*
X184380000Y-119865000D01*
G75*
G02*
X184530000Y-119715000I150000J0D01*
G01*
X186180000Y-119715000D01*
G75*
G02*
X186330000Y-119865000I0J-150000D01*
G01*
X186330000Y-120165000D01*
G75*
G02*
X186180000Y-120315000I-150000J0D01*
G01*
X184530000Y-120315000D01*
G75*
G02*
X184380000Y-120165000I0J150000D01*
G01*
G37*
G36*
G01*
X184380000Y-118895000D02*
X184380000Y-118595000D01*
G75*
G02*
X184530000Y-118445000I150000J0D01*
G01*
X186180000Y-118445000D01*
G75*
G02*
X186330000Y-118595000I0J-150000D01*
G01*
X186330000Y-118895000D01*
G75*
G02*
X186180000Y-119045000I-150000J0D01*
G01*
X184530000Y-119045000D01*
G75*
G02*
X184380000Y-118895000I0J150000D01*
G01*
G37*
G36*
G01*
X184380000Y-117625000D02*
X184380000Y-117325000D01*
G75*
G02*
X184530000Y-117175000I150000J0D01*
G01*
X186180000Y-117175000D01*
G75*
G02*
X186330000Y-117325000I0J-150000D01*
G01*
X186330000Y-117625000D01*
G75*
G02*
X186180000Y-117775000I-150000J0D01*
G01*
X184530000Y-117775000D01*
G75*
G02*
X184380000Y-117625000I0J150000D01*
G01*
G37*
G36*
G01*
X179430000Y-117625000D02*
X179430000Y-117325000D01*
G75*
G02*
X179580000Y-117175000I150000J0D01*
G01*
X181230000Y-117175000D01*
G75*
G02*
X181380000Y-117325000I0J-150000D01*
G01*
X181380000Y-117625000D01*
G75*
G02*
X181230000Y-117775000I-150000J0D01*
G01*
X179580000Y-117775000D01*
G75*
G02*
X179430000Y-117625000I0J150000D01*
G01*
G37*
G36*
G01*
X179430000Y-118895000D02*
X179430000Y-118595000D01*
G75*
G02*
X179580000Y-118445000I150000J0D01*
G01*
X181230000Y-118445000D01*
G75*
G02*
X181380000Y-118595000I0J-150000D01*
G01*
X181380000Y-118895000D01*
G75*
G02*
X181230000Y-119045000I-150000J0D01*
G01*
X179580000Y-119045000D01*
G75*
G02*
X179430000Y-118895000I0J150000D01*
G01*
G37*
G36*
G01*
X179430000Y-120165000D02*
X179430000Y-119865000D01*
G75*
G02*
X179580000Y-119715000I150000J0D01*
G01*
X181230000Y-119715000D01*
G75*
G02*
X181380000Y-119865000I0J-150000D01*
G01*
X181380000Y-120165000D01*
G75*
G02*
X181230000Y-120315000I-150000J0D01*
G01*
X179580000Y-120315000D01*
G75*
G02*
X179430000Y-120165000I0J150000D01*
G01*
G37*
G36*
G01*
X179430000Y-121435000D02*
X179430000Y-121135000D01*
G75*
G02*
X179580000Y-120985000I150000J0D01*
G01*
X181230000Y-120985000D01*
G75*
G02*
X181380000Y-121135000I0J-150000D01*
G01*
X181380000Y-121435000D01*
G75*
G02*
X181230000Y-121585000I-150000J0D01*
G01*
X179580000Y-121585000D01*
G75*
G02*
X179430000Y-121435000I0J150000D01*
G01*
G37*
G36*
G01*
X184380000Y-139215000D02*
X184380000Y-138915000D01*
G75*
G02*
X184530000Y-138765000I150000J0D01*
G01*
X186180000Y-138765000D01*
G75*
G02*
X186330000Y-138915000I0J-150000D01*
G01*
X186330000Y-139215000D01*
G75*
G02*
X186180000Y-139365000I-150000J0D01*
G01*
X184530000Y-139365000D01*
G75*
G02*
X184380000Y-139215000I0J150000D01*
G01*
G37*
G36*
G01*
X184380000Y-137945000D02*
X184380000Y-137645000D01*
G75*
G02*
X184530000Y-137495000I150000J0D01*
G01*
X186180000Y-137495000D01*
G75*
G02*
X186330000Y-137645000I0J-150000D01*
G01*
X186330000Y-137945000D01*
G75*
G02*
X186180000Y-138095000I-150000J0D01*
G01*
X184530000Y-138095000D01*
G75*
G02*
X184380000Y-137945000I0J150000D01*
G01*
G37*
G36*
G01*
X184380000Y-136675000D02*
X184380000Y-136375000D01*
G75*
G02*
X184530000Y-136225000I150000J0D01*
G01*
X186180000Y-136225000D01*
G75*
G02*
X186330000Y-136375000I0J-150000D01*
G01*
X186330000Y-136675000D01*
G75*
G02*
X186180000Y-136825000I-150000J0D01*
G01*
X184530000Y-136825000D01*
G75*
G02*
X184380000Y-136675000I0J150000D01*
G01*
G37*
G36*
G01*
X184380000Y-135405000D02*
X184380000Y-135105000D01*
G75*
G02*
X184530000Y-134955000I150000J0D01*
G01*
X186180000Y-134955000D01*
G75*
G02*
X186330000Y-135105000I0J-150000D01*
G01*
X186330000Y-135405000D01*
G75*
G02*
X186180000Y-135555000I-150000J0D01*
G01*
X184530000Y-135555000D01*
G75*
G02*
X184380000Y-135405000I0J150000D01*
G01*
G37*
G36*
G01*
X179430000Y-135405000D02*
X179430000Y-135105000D01*
G75*
G02*
X179580000Y-134955000I150000J0D01*
G01*
X181230000Y-134955000D01*
G75*
G02*
X181380000Y-135105000I0J-150000D01*
G01*
X181380000Y-135405000D01*
G75*
G02*
X181230000Y-135555000I-150000J0D01*
G01*
X179580000Y-135555000D01*
G75*
G02*
X179430000Y-135405000I0J150000D01*
G01*
G37*
G36*
G01*
X179430000Y-136675000D02*
X179430000Y-136375000D01*
G75*
G02*
X179580000Y-136225000I150000J0D01*
G01*
X181230000Y-136225000D01*
G75*
G02*
X181380000Y-136375000I0J-150000D01*
G01*
X181380000Y-136675000D01*
G75*
G02*
X181230000Y-136825000I-150000J0D01*
G01*
X179580000Y-136825000D01*
G75*
G02*
X179430000Y-136675000I0J150000D01*
G01*
G37*
G36*
G01*
X179430000Y-137945000D02*
X179430000Y-137645000D01*
G75*
G02*
X179580000Y-137495000I150000J0D01*
G01*
X181230000Y-137495000D01*
G75*
G02*
X181380000Y-137645000I0J-150000D01*
G01*
X181380000Y-137945000D01*
G75*
G02*
X181230000Y-138095000I-150000J0D01*
G01*
X179580000Y-138095000D01*
G75*
G02*
X179430000Y-137945000I0J150000D01*
G01*
G37*
G36*
G01*
X179430000Y-139215000D02*
X179430000Y-138915000D01*
G75*
G02*
X179580000Y-138765000I150000J0D01*
G01*
X181230000Y-138765000D01*
G75*
G02*
X181380000Y-138915000I0J-150000D01*
G01*
X181380000Y-139215000D01*
G75*
G02*
X181230000Y-139365000I-150000J0D01*
G01*
X179580000Y-139365000D01*
G75*
G02*
X179430000Y-139215000I0J150000D01*
G01*
G37*
G36*
G01*
X142470000Y-122705000D02*
X142470000Y-122405000D01*
G75*
G02*
X142620000Y-122255000I150000J0D01*
G01*
X144270000Y-122255000D01*
G75*
G02*
X144420000Y-122405000I0J-150000D01*
G01*
X144420000Y-122705000D01*
G75*
G02*
X144270000Y-122855000I-150000J0D01*
G01*
X142620000Y-122855000D01*
G75*
G02*
X142470000Y-122705000I0J150000D01*
G01*
G37*
G36*
G01*
X142470000Y-121435000D02*
X142470000Y-121135000D01*
G75*
G02*
X142620000Y-120985000I150000J0D01*
G01*
X144270000Y-120985000D01*
G75*
G02*
X144420000Y-121135000I0J-150000D01*
G01*
X144420000Y-121435000D01*
G75*
G02*
X144270000Y-121585000I-150000J0D01*
G01*
X142620000Y-121585000D01*
G75*
G02*
X142470000Y-121435000I0J150000D01*
G01*
G37*
G36*
G01*
X142470000Y-120165000D02*
X142470000Y-119865000D01*
G75*
G02*
X142620000Y-119715000I150000J0D01*
G01*
X144270000Y-119715000D01*
G75*
G02*
X144420000Y-119865000I0J-150000D01*
G01*
X144420000Y-120165000D01*
G75*
G02*
X144270000Y-120315000I-150000J0D01*
G01*
X142620000Y-120315000D01*
G75*
G02*
X142470000Y-120165000I0J150000D01*
G01*
G37*
G36*
G01*
X142470000Y-118895000D02*
X142470000Y-118595000D01*
G75*
G02*
X142620000Y-118445000I150000J0D01*
G01*
X144270000Y-118445000D01*
G75*
G02*
X144420000Y-118595000I0J-150000D01*
G01*
X144420000Y-118895000D01*
G75*
G02*
X144270000Y-119045000I-150000J0D01*
G01*
X142620000Y-119045000D01*
G75*
G02*
X142470000Y-118895000I0J150000D01*
G01*
G37*
G36*
G01*
X137520000Y-118895000D02*
X137520000Y-118595000D01*
G75*
G02*
X137670000Y-118445000I150000J0D01*
G01*
X139320000Y-118445000D01*
G75*
G02*
X139470000Y-118595000I0J-150000D01*
G01*
X139470000Y-118895000D01*
G75*
G02*
X139320000Y-119045000I-150000J0D01*
G01*
X137670000Y-119045000D01*
G75*
G02*
X137520000Y-118895000I0J150000D01*
G01*
G37*
G36*
G01*
X137520000Y-120165000D02*
X137520000Y-119865000D01*
G75*
G02*
X137670000Y-119715000I150000J0D01*
G01*
X139320000Y-119715000D01*
G75*
G02*
X139470000Y-119865000I0J-150000D01*
G01*
X139470000Y-120165000D01*
G75*
G02*
X139320000Y-120315000I-150000J0D01*
G01*
X137670000Y-120315000D01*
G75*
G02*
X137520000Y-120165000I0J150000D01*
G01*
G37*
G36*
G01*
X137520000Y-121435000D02*
X137520000Y-121135000D01*
G75*
G02*
X137670000Y-120985000I150000J0D01*
G01*
X139320000Y-120985000D01*
G75*
G02*
X139470000Y-121135000I0J-150000D01*
G01*
X139470000Y-121435000D01*
G75*
G02*
X139320000Y-121585000I-150000J0D01*
G01*
X137670000Y-121585000D01*
G75*
G02*
X137520000Y-121435000I0J150000D01*
G01*
G37*
G36*
G01*
X137520000Y-122705000D02*
X137520000Y-122405000D01*
G75*
G02*
X137670000Y-122255000I150000J0D01*
G01*
X139320000Y-122255000D01*
G75*
G02*
X139470000Y-122405000I0J-150000D01*
G01*
X139470000Y-122705000D01*
G75*
G02*
X139320000Y-122855000I-150000J0D01*
G01*
X137670000Y-122855000D01*
G75*
G02*
X137520000Y-122705000I0J150000D01*
G01*
G37*
G36*
G01*
X142470000Y-139215000D02*
X142470000Y-138915000D01*
G75*
G02*
X142620000Y-138765000I150000J0D01*
G01*
X144270000Y-138765000D01*
G75*
G02*
X144420000Y-138915000I0J-150000D01*
G01*
X144420000Y-139215000D01*
G75*
G02*
X144270000Y-139365000I-150000J0D01*
G01*
X142620000Y-139365000D01*
G75*
G02*
X142470000Y-139215000I0J150000D01*
G01*
G37*
G36*
G01*
X142470000Y-137945000D02*
X142470000Y-137645000D01*
G75*
G02*
X142620000Y-137495000I150000J0D01*
G01*
X144270000Y-137495000D01*
G75*
G02*
X144420000Y-137645000I0J-150000D01*
G01*
X144420000Y-137945000D01*
G75*
G02*
X144270000Y-138095000I-150000J0D01*
G01*
X142620000Y-138095000D01*
G75*
G02*
X142470000Y-137945000I0J150000D01*
G01*
G37*
G36*
G01*
X142470000Y-136675000D02*
X142470000Y-136375000D01*
G75*
G02*
X142620000Y-136225000I150000J0D01*
G01*
X144270000Y-136225000D01*
G75*
G02*
X144420000Y-136375000I0J-150000D01*
G01*
X144420000Y-136675000D01*
G75*
G02*
X144270000Y-136825000I-150000J0D01*
G01*
X142620000Y-136825000D01*
G75*
G02*
X142470000Y-136675000I0J150000D01*
G01*
G37*
G36*
G01*
X142470000Y-135405000D02*
X142470000Y-135105000D01*
G75*
G02*
X142620000Y-134955000I150000J0D01*
G01*
X144270000Y-134955000D01*
G75*
G02*
X144420000Y-135105000I0J-150000D01*
G01*
X144420000Y-135405000D01*
G75*
G02*
X144270000Y-135555000I-150000J0D01*
G01*
X142620000Y-135555000D01*
G75*
G02*
X142470000Y-135405000I0J150000D01*
G01*
G37*
G36*
G01*
X137520000Y-135405000D02*
X137520000Y-135105000D01*
G75*
G02*
X137670000Y-134955000I150000J0D01*
G01*
X139320000Y-134955000D01*
G75*
G02*
X139470000Y-135105000I0J-150000D01*
G01*
X139470000Y-135405000D01*
G75*
G02*
X139320000Y-135555000I-150000J0D01*
G01*
X137670000Y-135555000D01*
G75*
G02*
X137520000Y-135405000I0J150000D01*
G01*
G37*
G36*
G01*
X137520000Y-136675000D02*
X137520000Y-136375000D01*
G75*
G02*
X137670000Y-136225000I150000J0D01*
G01*
X139320000Y-136225000D01*
G75*
G02*
X139470000Y-136375000I0J-150000D01*
G01*
X139470000Y-136675000D01*
G75*
G02*
X139320000Y-136825000I-150000J0D01*
G01*
X137670000Y-136825000D01*
G75*
G02*
X137520000Y-136675000I0J150000D01*
G01*
G37*
G36*
G01*
X137520000Y-137945000D02*
X137520000Y-137645000D01*
G75*
G02*
X137670000Y-137495000I150000J0D01*
G01*
X139320000Y-137495000D01*
G75*
G02*
X139470000Y-137645000I0J-150000D01*
G01*
X139470000Y-137945000D01*
G75*
G02*
X139320000Y-138095000I-150000J0D01*
G01*
X137670000Y-138095000D01*
G75*
G02*
X137520000Y-137945000I0J150000D01*
G01*
G37*
G36*
G01*
X137520000Y-139215000D02*
X137520000Y-138915000D01*
G75*
G02*
X137670000Y-138765000I150000J0D01*
G01*
X139320000Y-138765000D01*
G75*
G02*
X139470000Y-138915000I0J-150000D01*
G01*
X139470000Y-139215000D01*
G75*
G02*
X139320000Y-139365000I-150000J0D01*
G01*
X137670000Y-139365000D01*
G75*
G02*
X137520000Y-139215000I0J150000D01*
G01*
G37*
G36*
G01*
X100560000Y-122705000D02*
X100560000Y-122405000D01*
G75*
G02*
X100710000Y-122255000I150000J0D01*
G01*
X102360000Y-122255000D01*
G75*
G02*
X102510000Y-122405000I0J-150000D01*
G01*
X102510000Y-122705000D01*
G75*
G02*
X102360000Y-122855000I-150000J0D01*
G01*
X100710000Y-122855000D01*
G75*
G02*
X100560000Y-122705000I0J150000D01*
G01*
G37*
G36*
G01*
X100560000Y-121435000D02*
X100560000Y-121135000D01*
G75*
G02*
X100710000Y-120985000I150000J0D01*
G01*
X102360000Y-120985000D01*
G75*
G02*
X102510000Y-121135000I0J-150000D01*
G01*
X102510000Y-121435000D01*
G75*
G02*
X102360000Y-121585000I-150000J0D01*
G01*
X100710000Y-121585000D01*
G75*
G02*
X100560000Y-121435000I0J150000D01*
G01*
G37*
G36*
G01*
X100560000Y-120165000D02*
X100560000Y-119865000D01*
G75*
G02*
X100710000Y-119715000I150000J0D01*
G01*
X102360000Y-119715000D01*
G75*
G02*
X102510000Y-119865000I0J-150000D01*
G01*
X102510000Y-120165000D01*
G75*
G02*
X102360000Y-120315000I-150000J0D01*
G01*
X100710000Y-120315000D01*
G75*
G02*
X100560000Y-120165000I0J150000D01*
G01*
G37*
G36*
G01*
X100560000Y-118895000D02*
X100560000Y-118595000D01*
G75*
G02*
X100710000Y-118445000I150000J0D01*
G01*
X102360000Y-118445000D01*
G75*
G02*
X102510000Y-118595000I0J-150000D01*
G01*
X102510000Y-118895000D01*
G75*
G02*
X102360000Y-119045000I-150000J0D01*
G01*
X100710000Y-119045000D01*
G75*
G02*
X100560000Y-118895000I0J150000D01*
G01*
G37*
G36*
G01*
X95610000Y-118895000D02*
X95610000Y-118595000D01*
G75*
G02*
X95760000Y-118445000I150000J0D01*
G01*
X97410000Y-118445000D01*
G75*
G02*
X97560000Y-118595000I0J-150000D01*
G01*
X97560000Y-118895000D01*
G75*
G02*
X97410000Y-119045000I-150000J0D01*
G01*
X95760000Y-119045000D01*
G75*
G02*
X95610000Y-118895000I0J150000D01*
G01*
G37*
G36*
G01*
X95610000Y-120165000D02*
X95610000Y-119865000D01*
G75*
G02*
X95760000Y-119715000I150000J0D01*
G01*
X97410000Y-119715000D01*
G75*
G02*
X97560000Y-119865000I0J-150000D01*
G01*
X97560000Y-120165000D01*
G75*
G02*
X97410000Y-120315000I-150000J0D01*
G01*
X95760000Y-120315000D01*
G75*
G02*
X95610000Y-120165000I0J150000D01*
G01*
G37*
G36*
G01*
X95610000Y-121435000D02*
X95610000Y-121135000D01*
G75*
G02*
X95760000Y-120985000I150000J0D01*
G01*
X97410000Y-120985000D01*
G75*
G02*
X97560000Y-121135000I0J-150000D01*
G01*
X97560000Y-121435000D01*
G75*
G02*
X97410000Y-121585000I-150000J0D01*
G01*
X95760000Y-121585000D01*
G75*
G02*
X95610000Y-121435000I0J150000D01*
G01*
G37*
G36*
G01*
X95610000Y-122705000D02*
X95610000Y-122405000D01*
G75*
G02*
X95760000Y-122255000I150000J0D01*
G01*
X97410000Y-122255000D01*
G75*
G02*
X97560000Y-122405000I0J-150000D01*
G01*
X97560000Y-122705000D01*
G75*
G02*
X97410000Y-122855000I-150000J0D01*
G01*
X95760000Y-122855000D01*
G75*
G02*
X95610000Y-122705000I0J150000D01*
G01*
G37*
G36*
G01*
X100560000Y-139215000D02*
X100560000Y-138915000D01*
G75*
G02*
X100710000Y-138765000I150000J0D01*
G01*
X102360000Y-138765000D01*
G75*
G02*
X102510000Y-138915000I0J-150000D01*
G01*
X102510000Y-139215000D01*
G75*
G02*
X102360000Y-139365000I-150000J0D01*
G01*
X100710000Y-139365000D01*
G75*
G02*
X100560000Y-139215000I0J150000D01*
G01*
G37*
G36*
G01*
X100560000Y-137945000D02*
X100560000Y-137645000D01*
G75*
G02*
X100710000Y-137495000I150000J0D01*
G01*
X102360000Y-137495000D01*
G75*
G02*
X102510000Y-137645000I0J-150000D01*
G01*
X102510000Y-137945000D01*
G75*
G02*
X102360000Y-138095000I-150000J0D01*
G01*
X100710000Y-138095000D01*
G75*
G02*
X100560000Y-137945000I0J150000D01*
G01*
G37*
G36*
G01*
X100560000Y-136675000D02*
X100560000Y-136375000D01*
G75*
G02*
X100710000Y-136225000I150000J0D01*
G01*
X102360000Y-136225000D01*
G75*
G02*
X102510000Y-136375000I0J-150000D01*
G01*
X102510000Y-136675000D01*
G75*
G02*
X102360000Y-136825000I-150000J0D01*
G01*
X100710000Y-136825000D01*
G75*
G02*
X100560000Y-136675000I0J150000D01*
G01*
G37*
G36*
G01*
X100560000Y-135405000D02*
X100560000Y-135105000D01*
G75*
G02*
X100710000Y-134955000I150000J0D01*
G01*
X102360000Y-134955000D01*
G75*
G02*
X102510000Y-135105000I0J-150000D01*
G01*
X102510000Y-135405000D01*
G75*
G02*
X102360000Y-135555000I-150000J0D01*
G01*
X100710000Y-135555000D01*
G75*
G02*
X100560000Y-135405000I0J150000D01*
G01*
G37*
G36*
G01*
X95610000Y-135405000D02*
X95610000Y-135105000D01*
G75*
G02*
X95760000Y-134955000I150000J0D01*
G01*
X97410000Y-134955000D01*
G75*
G02*
X97560000Y-135105000I0J-150000D01*
G01*
X97560000Y-135405000D01*
G75*
G02*
X97410000Y-135555000I-150000J0D01*
G01*
X95760000Y-135555000D01*
G75*
G02*
X95610000Y-135405000I0J150000D01*
G01*
G37*
G36*
G01*
X95610000Y-136675000D02*
X95610000Y-136375000D01*
G75*
G02*
X95760000Y-136225000I150000J0D01*
G01*
X97410000Y-136225000D01*
G75*
G02*
X97560000Y-136375000I0J-150000D01*
G01*
X97560000Y-136675000D01*
G75*
G02*
X97410000Y-136825000I-150000J0D01*
G01*
X95760000Y-136825000D01*
G75*
G02*
X95610000Y-136675000I0J150000D01*
G01*
G37*
G36*
G01*
X95610000Y-137945000D02*
X95610000Y-137645000D01*
G75*
G02*
X95760000Y-137495000I150000J0D01*
G01*
X97410000Y-137495000D01*
G75*
G02*
X97560000Y-137645000I0J-150000D01*
G01*
X97560000Y-137945000D01*
G75*
G02*
X97410000Y-138095000I-150000J0D01*
G01*
X95760000Y-138095000D01*
G75*
G02*
X95610000Y-137945000I0J150000D01*
G01*
G37*
G36*
G01*
X95610000Y-139215000D02*
X95610000Y-138915000D01*
G75*
G02*
X95760000Y-138765000I150000J0D01*
G01*
X97410000Y-138765000D01*
G75*
G02*
X97560000Y-138915000I0J-150000D01*
G01*
X97560000Y-139215000D01*
G75*
G02*
X97410000Y-139365000I-150000J0D01*
G01*
X95760000Y-139365000D01*
G75*
G02*
X95610000Y-139215000I0J150000D01*
G01*
G37*
G36*
G01*
X76550000Y-124716250D02*
X76550000Y-124203750D01*
G75*
G02*
X76768750Y-123985000I218750J0D01*
G01*
X77206250Y-123985000D01*
G75*
G02*
X77425000Y-124203750I0J-218750D01*
G01*
X77425000Y-124716250D01*
G75*
G02*
X77206250Y-124935000I-218750J0D01*
G01*
X76768750Y-124935000D01*
G75*
G02*
X76550000Y-124716250I0J218750D01*
G01*
G37*
G36*
G01*
X74975000Y-124716250D02*
X74975000Y-124203750D01*
G75*
G02*
X75193750Y-123985000I218750J0D01*
G01*
X75631250Y-123985000D01*
G75*
G02*
X75850000Y-124203750I0J-218750D01*
G01*
X75850000Y-124716250D01*
G75*
G02*
X75631250Y-124935000I-218750J0D01*
G01*
X75193750Y-124935000D01*
G75*
G02*
X74975000Y-124716250I0J218750D01*
G01*
G37*
G36*
G01*
X75850000Y-141983750D02*
X75850000Y-142496250D01*
G75*
G02*
X75631250Y-142715000I-218750J0D01*
G01*
X75193750Y-142715000D01*
G75*
G02*
X74975000Y-142496250I0J218750D01*
G01*
X74975000Y-141983750D01*
G75*
G02*
X75193750Y-141765000I218750J0D01*
G01*
X75631250Y-141765000D01*
G75*
G02*
X75850000Y-141983750I0J-218750D01*
G01*
G37*
G36*
G01*
X77425000Y-141983750D02*
X77425000Y-142496250D01*
G75*
G02*
X77206250Y-142715000I-218750J0D01*
G01*
X76768750Y-142715000D01*
G75*
G02*
X76550000Y-142496250I0J218750D01*
G01*
X76550000Y-141983750D01*
G75*
G02*
X76768750Y-141765000I218750J0D01*
G01*
X77206250Y-141765000D01*
G75*
G02*
X77425000Y-141983750I0J-218750D01*
G01*
G37*
D10*
X195560000Y-100330000D03*
X193060000Y-100330000D03*
X195560000Y-96520000D03*
X193060000Y-96520000D03*
X153650000Y-100330000D03*
X151150000Y-100330000D03*
X153650000Y-96520000D03*
X151150000Y-96520000D03*
X111740000Y-100330000D03*
X109240000Y-100330000D03*
X111740000Y-96520000D03*
X109240000Y-96520000D03*
X71100000Y-101600000D03*
X68600000Y-101600000D03*
X71100000Y-97790000D03*
X68600000Y-97790000D03*
G36*
G01*
X197770000Y-114043750D02*
X197770000Y-114556250D01*
G75*
G02*
X197551250Y-114775000I-218750J0D01*
G01*
X197113750Y-114775000D01*
G75*
G02*
X196895000Y-114556250I0J218750D01*
G01*
X196895000Y-114043750D01*
G75*
G02*
X197113750Y-113825000I218750J0D01*
G01*
X197551250Y-113825000D01*
G75*
G02*
X197770000Y-114043750I0J-218750D01*
G01*
G37*
G36*
G01*
X199345000Y-114043750D02*
X199345000Y-114556250D01*
G75*
G02*
X199126250Y-114775000I-218750J0D01*
G01*
X198688750Y-114775000D01*
G75*
G02*
X198470000Y-114556250I0J218750D01*
G01*
X198470000Y-114043750D01*
G75*
G02*
X198688750Y-113825000I218750J0D01*
G01*
X199126250Y-113825000D01*
G75*
G02*
X199345000Y-114043750I0J-218750D01*
G01*
G37*
G36*
G01*
X193390000Y-114556250D02*
X193390000Y-114043750D01*
G75*
G02*
X193608750Y-113825000I218750J0D01*
G01*
X194046250Y-113825000D01*
G75*
G02*
X194265000Y-114043750I0J-218750D01*
G01*
X194265000Y-114556250D01*
G75*
G02*
X194046250Y-114775000I-218750J0D01*
G01*
X193608750Y-114775000D01*
G75*
G02*
X193390000Y-114556250I0J218750D01*
G01*
G37*
G36*
G01*
X191815000Y-114556250D02*
X191815000Y-114043750D01*
G75*
G02*
X192033750Y-113825000I218750J0D01*
G01*
X192471250Y-113825000D01*
G75*
G02*
X192690000Y-114043750I0J-218750D01*
G01*
X192690000Y-114556250D01*
G75*
G02*
X192471250Y-114775000I-218750J0D01*
G01*
X192033750Y-114775000D01*
G75*
G02*
X191815000Y-114556250I0J218750D01*
G01*
G37*
G36*
G01*
X218790000Y-125986250D02*
X218790000Y-125473750D01*
G75*
G02*
X219008750Y-125255000I218750J0D01*
G01*
X219446250Y-125255000D01*
G75*
G02*
X219665000Y-125473750I0J-218750D01*
G01*
X219665000Y-125986250D01*
G75*
G02*
X219446250Y-126205000I-218750J0D01*
G01*
X219008750Y-126205000D01*
G75*
G02*
X218790000Y-125986250I0J218750D01*
G01*
G37*
G36*
G01*
X217215000Y-125986250D02*
X217215000Y-125473750D01*
G75*
G02*
X217433750Y-125255000I218750J0D01*
G01*
X217871250Y-125255000D01*
G75*
G02*
X218090000Y-125473750I0J-218750D01*
G01*
X218090000Y-125986250D01*
G75*
G02*
X217871250Y-126205000I-218750J0D01*
G01*
X217433750Y-126205000D01*
G75*
G02*
X217215000Y-125986250I0J218750D01*
G01*
G37*
G36*
G01*
X199740000Y-124716250D02*
X199740000Y-124203750D01*
G75*
G02*
X199958750Y-123985000I218750J0D01*
G01*
X200396250Y-123985000D01*
G75*
G02*
X200615000Y-124203750I0J-218750D01*
G01*
X200615000Y-124716250D01*
G75*
G02*
X200396250Y-124935000I-218750J0D01*
G01*
X199958750Y-124935000D01*
G75*
G02*
X199740000Y-124716250I0J218750D01*
G01*
G37*
G36*
G01*
X198165000Y-124716250D02*
X198165000Y-124203750D01*
G75*
G02*
X198383750Y-123985000I218750J0D01*
G01*
X198821250Y-123985000D01*
G75*
G02*
X199040000Y-124203750I0J-218750D01*
G01*
X199040000Y-124716250D01*
G75*
G02*
X198821250Y-124935000I-218750J0D01*
G01*
X198383750Y-124935000D01*
G75*
G02*
X198165000Y-124716250I0J218750D01*
G01*
G37*
G36*
G01*
X222600000Y-141226250D02*
X222600000Y-140713750D01*
G75*
G02*
X222818750Y-140495000I218750J0D01*
G01*
X223256250Y-140495000D01*
G75*
G02*
X223475000Y-140713750I0J-218750D01*
G01*
X223475000Y-141226250D01*
G75*
G02*
X223256250Y-141445000I-218750J0D01*
G01*
X222818750Y-141445000D01*
G75*
G02*
X222600000Y-141226250I0J218750D01*
G01*
G37*
G36*
G01*
X221025000Y-141226250D02*
X221025000Y-140713750D01*
G75*
G02*
X221243750Y-140495000I218750J0D01*
G01*
X221681250Y-140495000D01*
G75*
G02*
X221900000Y-140713750I0J-218750D01*
G01*
X221900000Y-141226250D01*
G75*
G02*
X221681250Y-141445000I-218750J0D01*
G01*
X221243750Y-141445000D01*
G75*
G02*
X221025000Y-141226250I0J218750D01*
G01*
G37*
G36*
G01*
X190150000Y-120393750D02*
X190150000Y-120906250D01*
G75*
G02*
X189931250Y-121125000I-218750J0D01*
G01*
X189493750Y-121125000D01*
G75*
G02*
X189275000Y-120906250I0J218750D01*
G01*
X189275000Y-120393750D01*
G75*
G02*
X189493750Y-120175000I218750J0D01*
G01*
X189931250Y-120175000D01*
G75*
G02*
X190150000Y-120393750I0J-218750D01*
G01*
G37*
G36*
G01*
X191725000Y-120393750D02*
X191725000Y-120906250D01*
G75*
G02*
X191506250Y-121125000I-218750J0D01*
G01*
X191068750Y-121125000D01*
G75*
G02*
X190850000Y-120906250I0J218750D01*
G01*
X190850000Y-120393750D01*
G75*
G02*
X191068750Y-120175000I218750J0D01*
G01*
X191506250Y-120175000D01*
G75*
G02*
X191725000Y-120393750I0J-218750D01*
G01*
G37*
G36*
G01*
X204120000Y-120393750D02*
X204120000Y-120906250D01*
G75*
G02*
X203901250Y-121125000I-218750J0D01*
G01*
X203463750Y-121125000D01*
G75*
G02*
X203245000Y-120906250I0J218750D01*
G01*
X203245000Y-120393750D01*
G75*
G02*
X203463750Y-120175000I218750J0D01*
G01*
X203901250Y-120175000D01*
G75*
G02*
X204120000Y-120393750I0J-218750D01*
G01*
G37*
G36*
G01*
X205695000Y-120393750D02*
X205695000Y-120906250D01*
G75*
G02*
X205476250Y-121125000I-218750J0D01*
G01*
X205038750Y-121125000D01*
G75*
G02*
X204820000Y-120906250I0J218750D01*
G01*
X204820000Y-120393750D01*
G75*
G02*
X205038750Y-120175000I218750J0D01*
G01*
X205476250Y-120175000D01*
G75*
G02*
X205695000Y-120393750I0J-218750D01*
G01*
G37*
G36*
G01*
X225710000Y-129283750D02*
X225710000Y-129796250D01*
G75*
G02*
X225491250Y-130015000I-218750J0D01*
G01*
X225053750Y-130015000D01*
G75*
G02*
X224835000Y-129796250I0J218750D01*
G01*
X224835000Y-129283750D01*
G75*
G02*
X225053750Y-129065000I218750J0D01*
G01*
X225491250Y-129065000D01*
G75*
G02*
X225710000Y-129283750I0J-218750D01*
G01*
G37*
G36*
G01*
X227285000Y-129283750D02*
X227285000Y-129796250D01*
G75*
G02*
X227066250Y-130015000I-218750J0D01*
G01*
X226628750Y-130015000D01*
G75*
G02*
X226410000Y-129796250I0J218750D01*
G01*
X226410000Y-129283750D01*
G75*
G02*
X226628750Y-129065000I218750J0D01*
G01*
X227066250Y-129065000D01*
G75*
G02*
X227285000Y-129283750I0J-218750D01*
G01*
G37*
G36*
G01*
X214980000Y-134876250D02*
X214980000Y-134363750D01*
G75*
G02*
X215198750Y-134145000I218750J0D01*
G01*
X215636250Y-134145000D01*
G75*
G02*
X215855000Y-134363750I0J-218750D01*
G01*
X215855000Y-134876250D01*
G75*
G02*
X215636250Y-135095000I-218750J0D01*
G01*
X215198750Y-135095000D01*
G75*
G02*
X214980000Y-134876250I0J218750D01*
G01*
G37*
G36*
G01*
X213405000Y-134876250D02*
X213405000Y-134363750D01*
G75*
G02*
X213623750Y-134145000I218750J0D01*
G01*
X214061250Y-134145000D01*
G75*
G02*
X214280000Y-134363750I0J-218750D01*
G01*
X214280000Y-134876250D01*
G75*
G02*
X214061250Y-135095000I-218750J0D01*
G01*
X213623750Y-135095000D01*
G75*
G02*
X213405000Y-134876250I0J218750D01*
G01*
G37*
G36*
G01*
X181260000Y-114043750D02*
X181260000Y-114556250D01*
G75*
G02*
X181041250Y-114775000I-218750J0D01*
G01*
X180603750Y-114775000D01*
G75*
G02*
X180385000Y-114556250I0J218750D01*
G01*
X180385000Y-114043750D01*
G75*
G02*
X180603750Y-113825000I218750J0D01*
G01*
X181041250Y-113825000D01*
G75*
G02*
X181260000Y-114043750I0J-218750D01*
G01*
G37*
G36*
G01*
X182835000Y-114043750D02*
X182835000Y-114556250D01*
G75*
G02*
X182616250Y-114775000I-218750J0D01*
G01*
X182178750Y-114775000D01*
G75*
G02*
X181960000Y-114556250I0J218750D01*
G01*
X181960000Y-114043750D01*
G75*
G02*
X182178750Y-113825000I218750J0D01*
G01*
X182616250Y-113825000D01*
G75*
G02*
X182835000Y-114043750I0J-218750D01*
G01*
G37*
G36*
G01*
X176880000Y-114556250D02*
X176880000Y-114043750D01*
G75*
G02*
X177098750Y-113825000I218750J0D01*
G01*
X177536250Y-113825000D01*
G75*
G02*
X177755000Y-114043750I0J-218750D01*
G01*
X177755000Y-114556250D01*
G75*
G02*
X177536250Y-114775000I-218750J0D01*
G01*
X177098750Y-114775000D01*
G75*
G02*
X176880000Y-114556250I0J218750D01*
G01*
G37*
G36*
G01*
X175305000Y-114556250D02*
X175305000Y-114043750D01*
G75*
G02*
X175523750Y-113825000I218750J0D01*
G01*
X175961250Y-113825000D01*
G75*
G02*
X176180000Y-114043750I0J-218750D01*
G01*
X176180000Y-114556250D01*
G75*
G02*
X175961250Y-114775000I-218750J0D01*
G01*
X175523750Y-114775000D01*
G75*
G02*
X175305000Y-114556250I0J218750D01*
G01*
G37*
G36*
G01*
X180690000Y-132336250D02*
X180690000Y-131823750D01*
G75*
G02*
X180908750Y-131605000I218750J0D01*
G01*
X181346250Y-131605000D01*
G75*
G02*
X181565000Y-131823750I0J-218750D01*
G01*
X181565000Y-132336250D01*
G75*
G02*
X181346250Y-132555000I-218750J0D01*
G01*
X180908750Y-132555000D01*
G75*
G02*
X180690000Y-132336250I0J218750D01*
G01*
G37*
G36*
G01*
X179115000Y-132336250D02*
X179115000Y-131823750D01*
G75*
G02*
X179333750Y-131605000I218750J0D01*
G01*
X179771250Y-131605000D01*
G75*
G02*
X179990000Y-131823750I0J-218750D01*
G01*
X179990000Y-132336250D01*
G75*
G02*
X179771250Y-132555000I-218750J0D01*
G01*
X179333750Y-132555000D01*
G75*
G02*
X179115000Y-132336250I0J218750D01*
G01*
G37*
G36*
G01*
X183800000Y-124203750D02*
X183800000Y-124716250D01*
G75*
G02*
X183581250Y-124935000I-218750J0D01*
G01*
X183143750Y-124935000D01*
G75*
G02*
X182925000Y-124716250I0J218750D01*
G01*
X182925000Y-124203750D01*
G75*
G02*
X183143750Y-123985000I218750J0D01*
G01*
X183581250Y-123985000D01*
G75*
G02*
X183800000Y-124203750I0J-218750D01*
G01*
G37*
G36*
G01*
X185375000Y-124203750D02*
X185375000Y-124716250D01*
G75*
G02*
X185156250Y-124935000I-218750J0D01*
G01*
X184718750Y-124935000D01*
G75*
G02*
X184500000Y-124716250I0J218750D01*
G01*
X184500000Y-124203750D01*
G75*
G02*
X184718750Y-123985000I218750J0D01*
G01*
X185156250Y-123985000D01*
G75*
G02*
X185375000Y-124203750I0J-218750D01*
G01*
G37*
G36*
G01*
X185770000Y-142496250D02*
X185770000Y-141983750D01*
G75*
G02*
X185988750Y-141765000I218750J0D01*
G01*
X186426250Y-141765000D01*
G75*
G02*
X186645000Y-141983750I0J-218750D01*
G01*
X186645000Y-142496250D01*
G75*
G02*
X186426250Y-142715000I-218750J0D01*
G01*
X185988750Y-142715000D01*
G75*
G02*
X185770000Y-142496250I0J218750D01*
G01*
G37*
G36*
G01*
X184195000Y-142496250D02*
X184195000Y-141983750D01*
G75*
G02*
X184413750Y-141765000I218750J0D01*
G01*
X184851250Y-141765000D01*
G75*
G02*
X185070000Y-141983750I0J-218750D01*
G01*
X185070000Y-142496250D01*
G75*
G02*
X184851250Y-142715000I-218750J0D01*
G01*
X184413750Y-142715000D01*
G75*
G02*
X184195000Y-142496250I0J218750D01*
G01*
G37*
G36*
G01*
X176880000Y-120906250D02*
X176880000Y-120393750D01*
G75*
G02*
X177098750Y-120175000I218750J0D01*
G01*
X177536250Y-120175000D01*
G75*
G02*
X177755000Y-120393750I0J-218750D01*
G01*
X177755000Y-120906250D01*
G75*
G02*
X177536250Y-121125000I-218750J0D01*
G01*
X177098750Y-121125000D01*
G75*
G02*
X176880000Y-120906250I0J218750D01*
G01*
G37*
G36*
G01*
X175305000Y-120906250D02*
X175305000Y-120393750D01*
G75*
G02*
X175523750Y-120175000I218750J0D01*
G01*
X175961250Y-120175000D01*
G75*
G02*
X176180000Y-120393750I0J-218750D01*
G01*
X176180000Y-120906250D01*
G75*
G02*
X175961250Y-121125000I-218750J0D01*
G01*
X175523750Y-121125000D01*
G75*
G02*
X175305000Y-120906250I0J218750D01*
G01*
G37*
G36*
G01*
X190150000Y-128013750D02*
X190150000Y-128526250D01*
G75*
G02*
X189931250Y-128745000I-218750J0D01*
G01*
X189493750Y-128745000D01*
G75*
G02*
X189275000Y-128526250I0J218750D01*
G01*
X189275000Y-128013750D01*
G75*
G02*
X189493750Y-127795000I218750J0D01*
G01*
X189931250Y-127795000D01*
G75*
G02*
X190150000Y-128013750I0J-218750D01*
G01*
G37*
G36*
G01*
X191725000Y-128013750D02*
X191725000Y-128526250D01*
G75*
G02*
X191506250Y-128745000I-218750J0D01*
G01*
X191068750Y-128745000D01*
G75*
G02*
X190850000Y-128526250I0J218750D01*
G01*
X190850000Y-128013750D01*
G75*
G02*
X191068750Y-127795000I218750J0D01*
G01*
X191506250Y-127795000D01*
G75*
G02*
X191725000Y-128013750I0J-218750D01*
G01*
G37*
G36*
G01*
X194660000Y-139956250D02*
X194660000Y-139443750D01*
G75*
G02*
X194878750Y-139225000I218750J0D01*
G01*
X195316250Y-139225000D01*
G75*
G02*
X195535000Y-139443750I0J-218750D01*
G01*
X195535000Y-139956250D01*
G75*
G02*
X195316250Y-140175000I-218750J0D01*
G01*
X194878750Y-140175000D01*
G75*
G02*
X194660000Y-139956250I0J218750D01*
G01*
G37*
G36*
G01*
X193085000Y-139956250D02*
X193085000Y-139443750D01*
G75*
G02*
X193303750Y-139225000I218750J0D01*
G01*
X193741250Y-139225000D01*
G75*
G02*
X193960000Y-139443750I0J-218750D01*
G01*
X193960000Y-139956250D01*
G75*
G02*
X193741250Y-140175000I-218750J0D01*
G01*
X193303750Y-140175000D01*
G75*
G02*
X193085000Y-139956250I0J218750D01*
G01*
G37*
G36*
G01*
X176880000Y-136146250D02*
X176880000Y-135633750D01*
G75*
G02*
X177098750Y-135415000I218750J0D01*
G01*
X177536250Y-135415000D01*
G75*
G02*
X177755000Y-135633750I0J-218750D01*
G01*
X177755000Y-136146250D01*
G75*
G02*
X177536250Y-136365000I-218750J0D01*
G01*
X177098750Y-136365000D01*
G75*
G02*
X176880000Y-136146250I0J218750D01*
G01*
G37*
G36*
G01*
X175305000Y-136146250D02*
X175305000Y-135633750D01*
G75*
G02*
X175523750Y-135415000I218750J0D01*
G01*
X175961250Y-135415000D01*
G75*
G02*
X176180000Y-135633750I0J-218750D01*
G01*
X176180000Y-136146250D01*
G75*
G02*
X175961250Y-136365000I-218750J0D01*
G01*
X175523750Y-136365000D01*
G75*
G02*
X175305000Y-136146250I0J218750D01*
G01*
G37*
G36*
G01*
X145130000Y-115826250D02*
X145130000Y-115313750D01*
G75*
G02*
X145348750Y-115095000I218750J0D01*
G01*
X145786250Y-115095000D01*
G75*
G02*
X146005000Y-115313750I0J-218750D01*
G01*
X146005000Y-115826250D01*
G75*
G02*
X145786250Y-116045000I-218750J0D01*
G01*
X145348750Y-116045000D01*
G75*
G02*
X145130000Y-115826250I0J218750D01*
G01*
G37*
G36*
G01*
X143555000Y-115826250D02*
X143555000Y-115313750D01*
G75*
G02*
X143773750Y-115095000I218750J0D01*
G01*
X144211250Y-115095000D01*
G75*
G02*
X144430000Y-115313750I0J-218750D01*
G01*
X144430000Y-115826250D01*
G75*
G02*
X144211250Y-116045000I-218750J0D01*
G01*
X143773750Y-116045000D01*
G75*
G02*
X143555000Y-115826250I0J218750D01*
G01*
G37*
G36*
G01*
X137510000Y-115826250D02*
X137510000Y-115313750D01*
G75*
G02*
X137728750Y-115095000I218750J0D01*
G01*
X138166250Y-115095000D01*
G75*
G02*
X138385000Y-115313750I0J-218750D01*
G01*
X138385000Y-115826250D01*
G75*
G02*
X138166250Y-116045000I-218750J0D01*
G01*
X137728750Y-116045000D01*
G75*
G02*
X137510000Y-115826250I0J218750D01*
G01*
G37*
G36*
G01*
X135935000Y-115826250D02*
X135935000Y-115313750D01*
G75*
G02*
X136153750Y-115095000I218750J0D01*
G01*
X136591250Y-115095000D01*
G75*
G02*
X136810000Y-115313750I0J-218750D01*
G01*
X136810000Y-115826250D01*
G75*
G02*
X136591250Y-116045000I-218750J0D01*
G01*
X136153750Y-116045000D01*
G75*
G02*
X135935000Y-115826250I0J218750D01*
G01*
G37*
G36*
G01*
X138780000Y-132336250D02*
X138780000Y-131823750D01*
G75*
G02*
X138998750Y-131605000I218750J0D01*
G01*
X139436250Y-131605000D01*
G75*
G02*
X139655000Y-131823750I0J-218750D01*
G01*
X139655000Y-132336250D01*
G75*
G02*
X139436250Y-132555000I-218750J0D01*
G01*
X138998750Y-132555000D01*
G75*
G02*
X138780000Y-132336250I0J218750D01*
G01*
G37*
G36*
G01*
X137205000Y-132336250D02*
X137205000Y-131823750D01*
G75*
G02*
X137423750Y-131605000I218750J0D01*
G01*
X137861250Y-131605000D01*
G75*
G02*
X138080000Y-131823750I0J-218750D01*
G01*
X138080000Y-132336250D01*
G75*
G02*
X137861250Y-132555000I-218750J0D01*
G01*
X137423750Y-132555000D01*
G75*
G02*
X137205000Y-132336250I0J218750D01*
G01*
G37*
G36*
G01*
X143860000Y-125986250D02*
X143860000Y-125473750D01*
G75*
G02*
X144078750Y-125255000I218750J0D01*
G01*
X144516250Y-125255000D01*
G75*
G02*
X144735000Y-125473750I0J-218750D01*
G01*
X144735000Y-125986250D01*
G75*
G02*
X144516250Y-126205000I-218750J0D01*
G01*
X144078750Y-126205000D01*
G75*
G02*
X143860000Y-125986250I0J218750D01*
G01*
G37*
G36*
G01*
X142285000Y-125986250D02*
X142285000Y-125473750D01*
G75*
G02*
X142503750Y-125255000I218750J0D01*
G01*
X142941250Y-125255000D01*
G75*
G02*
X143160000Y-125473750I0J-218750D01*
G01*
X143160000Y-125986250D01*
G75*
G02*
X142941250Y-126205000I-218750J0D01*
G01*
X142503750Y-126205000D01*
G75*
G02*
X142285000Y-125986250I0J218750D01*
G01*
G37*
G36*
G01*
X143860000Y-142496250D02*
X143860000Y-141983750D01*
G75*
G02*
X144078750Y-141765000I218750J0D01*
G01*
X144516250Y-141765000D01*
G75*
G02*
X144735000Y-141983750I0J-218750D01*
G01*
X144735000Y-142496250D01*
G75*
G02*
X144516250Y-142715000I-218750J0D01*
G01*
X144078750Y-142715000D01*
G75*
G02*
X143860000Y-142496250I0J218750D01*
G01*
G37*
G36*
G01*
X142285000Y-142496250D02*
X142285000Y-141983750D01*
G75*
G02*
X142503750Y-141765000I218750J0D01*
G01*
X142941250Y-141765000D01*
G75*
G02*
X143160000Y-141983750I0J-218750D01*
G01*
X143160000Y-142496250D01*
G75*
G02*
X142941250Y-142715000I-218750J0D01*
G01*
X142503750Y-142715000D01*
G75*
G02*
X142285000Y-142496250I0J218750D01*
G01*
G37*
G36*
G01*
X134970000Y-120906250D02*
X134970000Y-120393750D01*
G75*
G02*
X135188750Y-120175000I218750J0D01*
G01*
X135626250Y-120175000D01*
G75*
G02*
X135845000Y-120393750I0J-218750D01*
G01*
X135845000Y-120906250D01*
G75*
G02*
X135626250Y-121125000I-218750J0D01*
G01*
X135188750Y-121125000D01*
G75*
G02*
X134970000Y-120906250I0J218750D01*
G01*
G37*
G36*
G01*
X133395000Y-120906250D02*
X133395000Y-120393750D01*
G75*
G02*
X133613750Y-120175000I218750J0D01*
G01*
X134051250Y-120175000D01*
G75*
G02*
X134270000Y-120393750I0J-218750D01*
G01*
X134270000Y-120906250D01*
G75*
G02*
X134051250Y-121125000I-218750J0D01*
G01*
X133613750Y-121125000D01*
G75*
G02*
X133395000Y-120906250I0J218750D01*
G01*
G37*
G36*
G01*
X149422500Y-120906250D02*
X149422500Y-120393750D01*
G75*
G02*
X149641250Y-120175000I218750J0D01*
G01*
X150078750Y-120175000D01*
G75*
G02*
X150297500Y-120393750I0J-218750D01*
G01*
X150297500Y-120906250D01*
G75*
G02*
X150078750Y-121125000I-218750J0D01*
G01*
X149641250Y-121125000D01*
G75*
G02*
X149422500Y-120906250I0J218750D01*
G01*
G37*
G36*
G01*
X147847500Y-120906250D02*
X147847500Y-120393750D01*
G75*
G02*
X148066250Y-120175000I218750J0D01*
G01*
X148503750Y-120175000D01*
G75*
G02*
X148722500Y-120393750I0J-218750D01*
G01*
X148722500Y-120906250D01*
G75*
G02*
X148503750Y-121125000I-218750J0D01*
G01*
X148066250Y-121125000D01*
G75*
G02*
X147847500Y-120906250I0J218750D01*
G01*
G37*
G36*
G01*
X154020000Y-139956250D02*
X154020000Y-139443750D01*
G75*
G02*
X154238750Y-139225000I218750J0D01*
G01*
X154676250Y-139225000D01*
G75*
G02*
X154895000Y-139443750I0J-218750D01*
G01*
X154895000Y-139956250D01*
G75*
G02*
X154676250Y-140175000I-218750J0D01*
G01*
X154238750Y-140175000D01*
G75*
G02*
X154020000Y-139956250I0J218750D01*
G01*
G37*
G36*
G01*
X152445000Y-139956250D02*
X152445000Y-139443750D01*
G75*
G02*
X152663750Y-139225000I218750J0D01*
G01*
X153101250Y-139225000D01*
G75*
G02*
X153320000Y-139443750I0J-218750D01*
G01*
X153320000Y-139956250D01*
G75*
G02*
X153101250Y-140175000I-218750J0D01*
G01*
X152663750Y-140175000D01*
G75*
G02*
X152445000Y-139956250I0J218750D01*
G01*
G37*
G36*
G01*
X134970000Y-136146250D02*
X134970000Y-135633750D01*
G75*
G02*
X135188750Y-135415000I218750J0D01*
G01*
X135626250Y-135415000D01*
G75*
G02*
X135845000Y-135633750I0J-218750D01*
G01*
X135845000Y-136146250D01*
G75*
G02*
X135626250Y-136365000I-218750J0D01*
G01*
X135188750Y-136365000D01*
G75*
G02*
X134970000Y-136146250I0J218750D01*
G01*
G37*
G36*
G01*
X133395000Y-136146250D02*
X133395000Y-135633750D01*
G75*
G02*
X133613750Y-135415000I218750J0D01*
G01*
X134051250Y-135415000D01*
G75*
G02*
X134270000Y-135633750I0J-218750D01*
G01*
X134270000Y-136146250D01*
G75*
G02*
X134051250Y-136365000I-218750J0D01*
G01*
X133613750Y-136365000D01*
G75*
G02*
X133395000Y-136146250I0J218750D01*
G01*
G37*
G36*
G01*
X103220000Y-115826250D02*
X103220000Y-115313750D01*
G75*
G02*
X103438750Y-115095000I218750J0D01*
G01*
X103876250Y-115095000D01*
G75*
G02*
X104095000Y-115313750I0J-218750D01*
G01*
X104095000Y-115826250D01*
G75*
G02*
X103876250Y-116045000I-218750J0D01*
G01*
X103438750Y-116045000D01*
G75*
G02*
X103220000Y-115826250I0J218750D01*
G01*
G37*
G36*
G01*
X101645000Y-115826250D02*
X101645000Y-115313750D01*
G75*
G02*
X101863750Y-115095000I218750J0D01*
G01*
X102301250Y-115095000D01*
G75*
G02*
X102520000Y-115313750I0J-218750D01*
G01*
X102520000Y-115826250D01*
G75*
G02*
X102301250Y-116045000I-218750J0D01*
G01*
X101863750Y-116045000D01*
G75*
G02*
X101645000Y-115826250I0J218750D01*
G01*
G37*
G36*
G01*
X95600000Y-115826250D02*
X95600000Y-115313750D01*
G75*
G02*
X95818750Y-115095000I218750J0D01*
G01*
X96256250Y-115095000D01*
G75*
G02*
X96475000Y-115313750I0J-218750D01*
G01*
X96475000Y-115826250D01*
G75*
G02*
X96256250Y-116045000I-218750J0D01*
G01*
X95818750Y-116045000D01*
G75*
G02*
X95600000Y-115826250I0J218750D01*
G01*
G37*
G36*
G01*
X94025000Y-115826250D02*
X94025000Y-115313750D01*
G75*
G02*
X94243750Y-115095000I218750J0D01*
G01*
X94681250Y-115095000D01*
G75*
G02*
X94900000Y-115313750I0J-218750D01*
G01*
X94900000Y-115826250D01*
G75*
G02*
X94681250Y-116045000I-218750J0D01*
G01*
X94243750Y-116045000D01*
G75*
G02*
X94025000Y-115826250I0J218750D01*
G01*
G37*
G36*
G01*
X96870000Y-132336250D02*
X96870000Y-131823750D01*
G75*
G02*
X97088750Y-131605000I218750J0D01*
G01*
X97526250Y-131605000D01*
G75*
G02*
X97745000Y-131823750I0J-218750D01*
G01*
X97745000Y-132336250D01*
G75*
G02*
X97526250Y-132555000I-218750J0D01*
G01*
X97088750Y-132555000D01*
G75*
G02*
X96870000Y-132336250I0J218750D01*
G01*
G37*
G36*
G01*
X95295000Y-132336250D02*
X95295000Y-131823750D01*
G75*
G02*
X95513750Y-131605000I218750J0D01*
G01*
X95951250Y-131605000D01*
G75*
G02*
X96170000Y-131823750I0J-218750D01*
G01*
X96170000Y-132336250D01*
G75*
G02*
X95951250Y-132555000I-218750J0D01*
G01*
X95513750Y-132555000D01*
G75*
G02*
X95295000Y-132336250I0J218750D01*
G01*
G37*
G36*
G01*
X101950000Y-125986250D02*
X101950000Y-125473750D01*
G75*
G02*
X102168750Y-125255000I218750J0D01*
G01*
X102606250Y-125255000D01*
G75*
G02*
X102825000Y-125473750I0J-218750D01*
G01*
X102825000Y-125986250D01*
G75*
G02*
X102606250Y-126205000I-218750J0D01*
G01*
X102168750Y-126205000D01*
G75*
G02*
X101950000Y-125986250I0J218750D01*
G01*
G37*
G36*
G01*
X100375000Y-125986250D02*
X100375000Y-125473750D01*
G75*
G02*
X100593750Y-125255000I218750J0D01*
G01*
X101031250Y-125255000D01*
G75*
G02*
X101250000Y-125473750I0J-218750D01*
G01*
X101250000Y-125986250D01*
G75*
G02*
X101031250Y-126205000I-218750J0D01*
G01*
X100593750Y-126205000D01*
G75*
G02*
X100375000Y-125986250I0J218750D01*
G01*
G37*
G36*
G01*
X101950000Y-142496250D02*
X101950000Y-141983750D01*
G75*
G02*
X102168750Y-141765000I218750J0D01*
G01*
X102606250Y-141765000D01*
G75*
G02*
X102825000Y-141983750I0J-218750D01*
G01*
X102825000Y-142496250D01*
G75*
G02*
X102606250Y-142715000I-218750J0D01*
G01*
X102168750Y-142715000D01*
G75*
G02*
X101950000Y-142496250I0J218750D01*
G01*
G37*
G36*
G01*
X100375000Y-142496250D02*
X100375000Y-141983750D01*
G75*
G02*
X100593750Y-141765000I218750J0D01*
G01*
X101031250Y-141765000D01*
G75*
G02*
X101250000Y-141983750I0J-218750D01*
G01*
X101250000Y-142496250D01*
G75*
G02*
X101031250Y-142715000I-218750J0D01*
G01*
X100593750Y-142715000D01*
G75*
G02*
X100375000Y-142496250I0J218750D01*
G01*
G37*
G36*
G01*
X93060000Y-120906250D02*
X93060000Y-120393750D01*
G75*
G02*
X93278750Y-120175000I218750J0D01*
G01*
X93716250Y-120175000D01*
G75*
G02*
X93935000Y-120393750I0J-218750D01*
G01*
X93935000Y-120906250D01*
G75*
G02*
X93716250Y-121125000I-218750J0D01*
G01*
X93278750Y-121125000D01*
G75*
G02*
X93060000Y-120906250I0J218750D01*
G01*
G37*
G36*
G01*
X91485000Y-120906250D02*
X91485000Y-120393750D01*
G75*
G02*
X91703750Y-120175000I218750J0D01*
G01*
X92141250Y-120175000D01*
G75*
G02*
X92360000Y-120393750I0J-218750D01*
G01*
X92360000Y-120906250D01*
G75*
G02*
X92141250Y-121125000I-218750J0D01*
G01*
X91703750Y-121125000D01*
G75*
G02*
X91485000Y-120906250I0J218750D01*
G01*
G37*
G36*
G01*
X106330000Y-120393750D02*
X106330000Y-120906250D01*
G75*
G02*
X106111250Y-121125000I-218750J0D01*
G01*
X105673750Y-121125000D01*
G75*
G02*
X105455000Y-120906250I0J218750D01*
G01*
X105455000Y-120393750D01*
G75*
G02*
X105673750Y-120175000I218750J0D01*
G01*
X106111250Y-120175000D01*
G75*
G02*
X106330000Y-120393750I0J-218750D01*
G01*
G37*
G36*
G01*
X107905000Y-120393750D02*
X107905000Y-120906250D01*
G75*
G02*
X107686250Y-121125000I-218750J0D01*
G01*
X107248750Y-121125000D01*
G75*
G02*
X107030000Y-120906250I0J218750D01*
G01*
X107030000Y-120393750D01*
G75*
G02*
X107248750Y-120175000I218750J0D01*
G01*
X107686250Y-120175000D01*
G75*
G02*
X107905000Y-120393750I0J-218750D01*
G01*
G37*
G36*
G01*
X110357500Y-139956250D02*
X110357500Y-139443750D01*
G75*
G02*
X110576250Y-139225000I218750J0D01*
G01*
X111013750Y-139225000D01*
G75*
G02*
X111232500Y-139443750I0J-218750D01*
G01*
X111232500Y-139956250D01*
G75*
G02*
X111013750Y-140175000I-218750J0D01*
G01*
X110576250Y-140175000D01*
G75*
G02*
X110357500Y-139956250I0J218750D01*
G01*
G37*
G36*
G01*
X108782500Y-139956250D02*
X108782500Y-139443750D01*
G75*
G02*
X109001250Y-139225000I218750J0D01*
G01*
X109438750Y-139225000D01*
G75*
G02*
X109657500Y-139443750I0J-218750D01*
G01*
X109657500Y-139956250D01*
G75*
G02*
X109438750Y-140175000I-218750J0D01*
G01*
X109001250Y-140175000D01*
G75*
G02*
X108782500Y-139956250I0J218750D01*
G01*
G37*
G36*
G01*
X93060000Y-136146250D02*
X93060000Y-135633750D01*
G75*
G02*
X93278750Y-135415000I218750J0D01*
G01*
X93716250Y-135415000D01*
G75*
G02*
X93935000Y-135633750I0J-218750D01*
G01*
X93935000Y-136146250D01*
G75*
G02*
X93716250Y-136365000I-218750J0D01*
G01*
X93278750Y-136365000D01*
G75*
G02*
X93060000Y-136146250I0J218750D01*
G01*
G37*
G36*
G01*
X91485000Y-136146250D02*
X91485000Y-135633750D01*
G75*
G02*
X91703750Y-135415000I218750J0D01*
G01*
X92141250Y-135415000D01*
G75*
G02*
X92360000Y-135633750I0J-218750D01*
G01*
X92360000Y-136146250D01*
G75*
G02*
X92141250Y-136365000I-218750J0D01*
G01*
X91703750Y-136365000D01*
G75*
G02*
X91485000Y-136146250I0J218750D01*
G01*
G37*
M02*
