G04 #@! TF.GenerationSoftware,KiCad,Pcbnew,(5.1.6-0-10_14)*
G04 #@! TF.CreationDate,2022-01-03T23:35:25+00:00*
G04 #@! TF.ProjectId,Quad Tube VCA,51756164-2054-4756-9265-205643412e6b,rev?*
G04 #@! TF.SameCoordinates,Original*
G04 #@! TF.FileFunction,Soldermask,Bot*
G04 #@! TF.FilePolarity,Negative*
%FSLAX46Y46*%
G04 Gerber Fmt 4.6, Leading zero omitted, Abs format (unit mm)*
G04 Created by KiCad (PCBNEW (5.1.6-0-10_14)) date 2022-01-03 23:35:25*
%MOMM*%
%LPD*%
G01*
G04 APERTURE LIST*
%ADD10C,1.700000*%
%ADD11R,1.700000X1.700000*%
%ADD12C,1.900000*%
%ADD13R,1.900000X1.900000*%
%ADD14C,2.875000*%
%ADD15R,2.875000X2.875000*%
%ADD16C,2.100000*%
%ADD17C,1.400000*%
%ADD18C,1.540000*%
%ADD19O,1.800000X1.800000*%
%ADD20R,1.800000X1.800000*%
%ADD21R,1.100000X1.100000*%
G04 APERTURE END LIST*
D10*
X220940000Y-99060000D03*
D11*
X218440000Y-99060000D03*
D10*
X179030000Y-99060000D03*
D11*
X176530000Y-99060000D03*
D10*
X137120000Y-99060000D03*
D11*
X134620000Y-99060000D03*
D10*
X95210000Y-99060000D03*
D11*
X92710000Y-99060000D03*
D10*
X72350000Y-116840000D03*
D11*
X69850000Y-116840000D03*
D10*
X71080000Y-123190000D03*
D11*
X68580000Y-123190000D03*
D12*
X126153333Y-48260000D03*
X126153333Y-96520000D03*
X124883333Y-93980000D03*
X127423333Y-93980000D03*
X128693333Y-99060000D03*
X126153333Y-99060000D03*
D13*
X123613333Y-99060000D03*
D12*
X85090000Y-48260000D03*
X85090000Y-96520000D03*
X83820000Y-93980000D03*
X86360000Y-93980000D03*
X87630000Y-99060000D03*
X85090000Y-99060000D03*
D13*
X82550000Y-99060000D03*
D12*
X210550000Y-48260000D03*
X210550000Y-96520000D03*
X209280000Y-93980000D03*
X211820000Y-93980000D03*
X213090000Y-99060000D03*
X210550000Y-99060000D03*
D13*
X208010000Y-99060000D03*
D12*
X168486666Y-48260000D03*
X168486666Y-96520000D03*
X167216666Y-93980000D03*
X169756666Y-93980000D03*
X171026666Y-99060000D03*
X168486666Y-99060000D03*
D13*
X165946666Y-99060000D03*
D14*
X215520000Y-107950000D03*
X210820000Y-107950000D03*
D15*
X206120000Y-107950000D03*
D14*
X173610000Y-107950000D03*
X168910000Y-107950000D03*
D15*
X164210000Y-107950000D03*
D14*
X131700000Y-107950000D03*
X127000000Y-107950000D03*
D15*
X122300000Y-107950000D03*
D14*
X89790000Y-107950000D03*
X85090000Y-107950000D03*
D15*
X80390000Y-107950000D03*
D16*
X204680000Y-57070000D03*
X195080000Y-57070000D03*
D17*
X202380000Y-64570000D03*
X199880000Y-64570000D03*
X197380000Y-64570000D03*
D16*
X162280000Y-57150000D03*
X152680000Y-57150000D03*
D17*
X159980000Y-64650000D03*
X157480000Y-64650000D03*
X154980000Y-64650000D03*
D16*
X120370000Y-57150000D03*
X110770000Y-57150000D03*
D17*
X118070000Y-64650000D03*
X115570000Y-64650000D03*
X113070000Y-64650000D03*
D16*
X79730000Y-57150000D03*
X70130000Y-57150000D03*
D17*
X77430000Y-64650000D03*
X74930000Y-64650000D03*
X72430000Y-64650000D03*
D16*
X204680000Y-81320000D03*
X195080000Y-81320000D03*
D17*
X202380000Y-88820000D03*
X199880000Y-88820000D03*
X197380000Y-88820000D03*
D16*
X162280000Y-81280000D03*
X152680000Y-81280000D03*
D17*
X159980000Y-88780000D03*
X157480000Y-88780000D03*
X154980000Y-88780000D03*
D16*
X120370000Y-81280000D03*
X110770000Y-81280000D03*
D17*
X118070000Y-88780000D03*
X115570000Y-88780000D03*
X113070000Y-88780000D03*
D16*
X79730000Y-81280000D03*
X70130000Y-81280000D03*
D17*
X77430000Y-88780000D03*
X74930000Y-88780000D03*
X72430000Y-88780000D03*
D16*
X225780000Y-57150000D03*
X216180000Y-57150000D03*
D17*
X223480000Y-64650000D03*
X220980000Y-64650000D03*
X218480000Y-64650000D03*
D16*
X183870000Y-57150000D03*
X174270000Y-57150000D03*
D17*
X181570000Y-64650000D03*
X179070000Y-64650000D03*
X176570000Y-64650000D03*
D16*
X141960000Y-57030000D03*
X132360000Y-57030000D03*
D17*
X139660000Y-64530000D03*
X137160000Y-64530000D03*
X134660000Y-64530000D03*
D16*
X100410000Y-57130000D03*
X90810000Y-57130000D03*
D17*
X98110000Y-64630000D03*
X95610000Y-64630000D03*
X93110000Y-64630000D03*
D16*
X225780000Y-81280000D03*
X216180000Y-81280000D03*
D17*
X223480000Y-88780000D03*
X220980000Y-88780000D03*
X218480000Y-88780000D03*
D16*
X183870000Y-81280000D03*
X174270000Y-81280000D03*
D17*
X181570000Y-88780000D03*
X179070000Y-88780000D03*
X176570000Y-88780000D03*
D16*
X141960000Y-81280000D03*
X132360000Y-81280000D03*
D17*
X139660000Y-88780000D03*
X137160000Y-88780000D03*
X134660000Y-88780000D03*
D16*
X100431000Y-81153000D03*
X90831000Y-81153000D03*
D17*
X98131000Y-88653000D03*
X95631000Y-88653000D03*
X93131000Y-88653000D03*
D12*
X215770000Y-138430000D03*
X204370000Y-138430000D03*
X207470000Y-138430000D03*
X173830000Y-138430000D03*
X162430000Y-138430000D03*
X165530000Y-138430000D03*
X131920000Y-138430000D03*
X120520000Y-138430000D03*
X123620000Y-138430000D03*
X90010000Y-138430000D03*
X78610000Y-138430000D03*
X81710000Y-138430000D03*
X215740000Y-118110000D03*
X204340000Y-118110000D03*
X207440000Y-118110000D03*
X173830000Y-118110000D03*
X162430000Y-118110000D03*
X165530000Y-118110000D03*
X131920000Y-118110000D03*
X120520000Y-118110000D03*
X123620000Y-118110000D03*
X90010000Y-118110000D03*
X78610000Y-118110000D03*
X81710000Y-118110000D03*
X215770000Y-128270000D03*
X204370000Y-128270000D03*
X207470000Y-128270000D03*
X173830000Y-128270000D03*
X162430000Y-128270000D03*
X165530000Y-128270000D03*
X131920000Y-128270000D03*
X120520000Y-128270000D03*
X123620000Y-128270000D03*
X90010000Y-128270000D03*
X78610000Y-128270000D03*
X81710000Y-128270000D03*
G36*
G01*
X188930000Y-141958750D02*
X188930000Y-142521250D01*
G75*
G02*
X188686250Y-142765000I-243750J0D01*
G01*
X188198750Y-142765000D01*
G75*
G02*
X187955000Y-142521250I0J243750D01*
G01*
X187955000Y-141958750D01*
G75*
G02*
X188198750Y-141715000I243750J0D01*
G01*
X188686250Y-141715000D01*
G75*
G02*
X188930000Y-141958750I0J-243750D01*
G01*
G37*
G36*
G01*
X190505000Y-141958750D02*
X190505000Y-142521250D01*
G75*
G02*
X190261250Y-142765000I-243750J0D01*
G01*
X189773750Y-142765000D01*
G75*
G02*
X189530000Y-142521250I0J243750D01*
G01*
X189530000Y-141958750D01*
G75*
G02*
X189773750Y-141715000I243750J0D01*
G01*
X190261250Y-141715000D01*
G75*
G02*
X190505000Y-141958750I0J-243750D01*
G01*
G37*
G36*
G01*
X189530000Y-137441250D02*
X189530000Y-136878750D01*
G75*
G02*
X189773750Y-136635000I243750J0D01*
G01*
X190261250Y-136635000D01*
G75*
G02*
X190505000Y-136878750I0J-243750D01*
G01*
X190505000Y-137441250D01*
G75*
G02*
X190261250Y-137685000I-243750J0D01*
G01*
X189773750Y-137685000D01*
G75*
G02*
X189530000Y-137441250I0J243750D01*
G01*
G37*
G36*
G01*
X187955000Y-137441250D02*
X187955000Y-136878750D01*
G75*
G02*
X188198750Y-136635000I243750J0D01*
G01*
X188686250Y-136635000D01*
G75*
G02*
X188930000Y-136878750I0J-243750D01*
G01*
X188930000Y-137441250D01*
G75*
G02*
X188686250Y-137685000I-243750J0D01*
G01*
X188198750Y-137685000D01*
G75*
G02*
X187955000Y-137441250I0J243750D01*
G01*
G37*
D18*
X195580000Y-48260000D03*
X198120000Y-48260000D03*
X200660000Y-48260000D03*
X152400000Y-48260000D03*
X154940000Y-48260000D03*
X157480000Y-48260000D03*
X110490000Y-48260000D03*
X113030000Y-48260000D03*
X115570000Y-48260000D03*
X68580000Y-48260000D03*
X71120000Y-48260000D03*
X73660000Y-48260000D03*
X220980000Y-107950000D03*
X223520000Y-107950000D03*
X226060000Y-107950000D03*
X179070000Y-107950000D03*
X181610000Y-107950000D03*
X184150000Y-107950000D03*
X137160000Y-107950000D03*
X139700000Y-107950000D03*
X142240000Y-107950000D03*
X95250000Y-107950000D03*
X97790000Y-107950000D03*
X100330000Y-107950000D03*
X218440000Y-92710000D03*
X220980000Y-92710000D03*
X223520000Y-92710000D03*
X176530000Y-92710000D03*
X179070000Y-92710000D03*
X181610000Y-92710000D03*
X134620000Y-92710000D03*
X137160000Y-92710000D03*
X139700000Y-92710000D03*
X92710000Y-92710000D03*
X95250000Y-92710000D03*
X97790000Y-92710000D03*
X195580000Y-107950000D03*
X198120000Y-107950000D03*
X200660000Y-107950000D03*
X153670000Y-107950000D03*
X156210000Y-107950000D03*
X158750000Y-107950000D03*
X111760000Y-107950000D03*
X114300000Y-107950000D03*
X116840000Y-107950000D03*
X69850000Y-107950000D03*
X72390000Y-107950000D03*
X74930000Y-107950000D03*
G36*
G01*
X199690000Y-136171250D02*
X199690000Y-135608750D01*
G75*
G02*
X199933750Y-135365000I243750J0D01*
G01*
X200421250Y-135365000D01*
G75*
G02*
X200665000Y-135608750I0J-243750D01*
G01*
X200665000Y-136171250D01*
G75*
G02*
X200421250Y-136415000I-243750J0D01*
G01*
X199933750Y-136415000D01*
G75*
G02*
X199690000Y-136171250I0J243750D01*
G01*
G37*
G36*
G01*
X198115000Y-136171250D02*
X198115000Y-135608750D01*
G75*
G02*
X198358750Y-135365000I243750J0D01*
G01*
X198846250Y-135365000D01*
G75*
G02*
X199090000Y-135608750I0J-243750D01*
G01*
X199090000Y-136171250D01*
G75*
G02*
X198846250Y-136415000I-243750J0D01*
G01*
X198358750Y-136415000D01*
G75*
G02*
X198115000Y-136171250I0J243750D01*
G01*
G37*
G36*
G01*
X157780000Y-136171250D02*
X157780000Y-135608750D01*
G75*
G02*
X158023750Y-135365000I243750J0D01*
G01*
X158511250Y-135365000D01*
G75*
G02*
X158755000Y-135608750I0J-243750D01*
G01*
X158755000Y-136171250D01*
G75*
G02*
X158511250Y-136415000I-243750J0D01*
G01*
X158023750Y-136415000D01*
G75*
G02*
X157780000Y-136171250I0J243750D01*
G01*
G37*
G36*
G01*
X156205000Y-136171250D02*
X156205000Y-135608750D01*
G75*
G02*
X156448750Y-135365000I243750J0D01*
G01*
X156936250Y-135365000D01*
G75*
G02*
X157180000Y-135608750I0J-243750D01*
G01*
X157180000Y-136171250D01*
G75*
G02*
X156936250Y-136415000I-243750J0D01*
G01*
X156448750Y-136415000D01*
G75*
G02*
X156205000Y-136171250I0J243750D01*
G01*
G37*
G36*
G01*
X114600000Y-136171250D02*
X114600000Y-135608750D01*
G75*
G02*
X114843750Y-135365000I243750J0D01*
G01*
X115331250Y-135365000D01*
G75*
G02*
X115575000Y-135608750I0J-243750D01*
G01*
X115575000Y-136171250D01*
G75*
G02*
X115331250Y-136415000I-243750J0D01*
G01*
X114843750Y-136415000D01*
G75*
G02*
X114600000Y-136171250I0J243750D01*
G01*
G37*
G36*
G01*
X113025000Y-136171250D02*
X113025000Y-135608750D01*
G75*
G02*
X113268750Y-135365000I243750J0D01*
G01*
X113756250Y-135365000D01*
G75*
G02*
X114000000Y-135608750I0J-243750D01*
G01*
X114000000Y-136171250D01*
G75*
G02*
X113756250Y-136415000I-243750J0D01*
G01*
X113268750Y-136415000D01*
G75*
G02*
X113025000Y-136171250I0J243750D01*
G01*
G37*
G36*
G01*
X203500000Y-114581250D02*
X203500000Y-114018750D01*
G75*
G02*
X203743750Y-113775000I243750J0D01*
G01*
X204231250Y-113775000D01*
G75*
G02*
X204475000Y-114018750I0J-243750D01*
G01*
X204475000Y-114581250D01*
G75*
G02*
X204231250Y-114825000I-243750J0D01*
G01*
X203743750Y-114825000D01*
G75*
G02*
X203500000Y-114581250I0J243750D01*
G01*
G37*
G36*
G01*
X201925000Y-114581250D02*
X201925000Y-114018750D01*
G75*
G02*
X202168750Y-113775000I243750J0D01*
G01*
X202656250Y-113775000D01*
G75*
G02*
X202900000Y-114018750I0J-243750D01*
G01*
X202900000Y-114581250D01*
G75*
G02*
X202656250Y-114825000I-243750J0D01*
G01*
X202168750Y-114825000D01*
G75*
G02*
X201925000Y-114581250I0J243750D01*
G01*
G37*
G36*
G01*
X190800000Y-118391250D02*
X190800000Y-117828750D01*
G75*
G02*
X191043750Y-117585000I243750J0D01*
G01*
X191531250Y-117585000D01*
G75*
G02*
X191775000Y-117828750I0J-243750D01*
G01*
X191775000Y-118391250D01*
G75*
G02*
X191531250Y-118635000I-243750J0D01*
G01*
X191043750Y-118635000D01*
G75*
G02*
X190800000Y-118391250I0J243750D01*
G01*
G37*
G36*
G01*
X189225000Y-118391250D02*
X189225000Y-117828750D01*
G75*
G02*
X189468750Y-117585000I243750J0D01*
G01*
X189956250Y-117585000D01*
G75*
G02*
X190200000Y-117828750I0J-243750D01*
G01*
X190200000Y-118391250D01*
G75*
G02*
X189956250Y-118635000I-243750J0D01*
G01*
X189468750Y-118635000D01*
G75*
G02*
X189225000Y-118391250I0J243750D01*
G01*
G37*
G36*
G01*
X194610000Y-92991250D02*
X194610000Y-92428750D01*
G75*
G02*
X194853750Y-92185000I243750J0D01*
G01*
X195341250Y-92185000D01*
G75*
G02*
X195585000Y-92428750I0J-243750D01*
G01*
X195585000Y-92991250D01*
G75*
G02*
X195341250Y-93235000I-243750J0D01*
G01*
X194853750Y-93235000D01*
G75*
G02*
X194610000Y-92991250I0J243750D01*
G01*
G37*
G36*
G01*
X193035000Y-92991250D02*
X193035000Y-92428750D01*
G75*
G02*
X193278750Y-92185000I243750J0D01*
G01*
X193766250Y-92185000D01*
G75*
G02*
X194010000Y-92428750I0J-243750D01*
G01*
X194010000Y-92991250D01*
G75*
G02*
X193766250Y-93235000I-243750J0D01*
G01*
X193278750Y-93235000D01*
G75*
G02*
X193035000Y-92991250I0J243750D01*
G01*
G37*
G36*
G01*
X200360000Y-92428750D02*
X200360000Y-92991250D01*
G75*
G02*
X200116250Y-93235000I-243750J0D01*
G01*
X199628750Y-93235000D01*
G75*
G02*
X199385000Y-92991250I0J243750D01*
G01*
X199385000Y-92428750D01*
G75*
G02*
X199628750Y-92185000I243750J0D01*
G01*
X200116250Y-92185000D01*
G75*
G02*
X200360000Y-92428750I0J-243750D01*
G01*
G37*
G36*
G01*
X201935000Y-92428750D02*
X201935000Y-92991250D01*
G75*
G02*
X201691250Y-93235000I-243750J0D01*
G01*
X201203750Y-93235000D01*
G75*
G02*
X200960000Y-92991250I0J243750D01*
G01*
X200960000Y-92428750D01*
G75*
G02*
X201203750Y-92185000I243750J0D01*
G01*
X201691250Y-92185000D01*
G75*
G02*
X201935000Y-92428750I0J-243750D01*
G01*
G37*
G36*
G01*
X194010000Y-124178750D02*
X194010000Y-124741250D01*
G75*
G02*
X193766250Y-124985000I-243750J0D01*
G01*
X193278750Y-124985000D01*
G75*
G02*
X193035000Y-124741250I0J243750D01*
G01*
X193035000Y-124178750D01*
G75*
G02*
X193278750Y-123935000I243750J0D01*
G01*
X193766250Y-123935000D01*
G75*
G02*
X194010000Y-124178750I0J-243750D01*
G01*
G37*
G36*
G01*
X195585000Y-124178750D02*
X195585000Y-124741250D01*
G75*
G02*
X195341250Y-124985000I-243750J0D01*
G01*
X194853750Y-124985000D01*
G75*
G02*
X194610000Y-124741250I0J243750D01*
G01*
X194610000Y-124178750D01*
G75*
G02*
X194853750Y-123935000I243750J0D01*
G01*
X195341250Y-123935000D01*
G75*
G02*
X195585000Y-124178750I0J-243750D01*
G01*
G37*
G36*
G01*
X204170000Y-124178750D02*
X204170000Y-124741250D01*
G75*
G02*
X203926250Y-124985000I-243750J0D01*
G01*
X203438750Y-124985000D01*
G75*
G02*
X203195000Y-124741250I0J243750D01*
G01*
X203195000Y-124178750D01*
G75*
G02*
X203438750Y-123935000I243750J0D01*
G01*
X203926250Y-123935000D01*
G75*
G02*
X204170000Y-124178750I0J-243750D01*
G01*
G37*
G36*
G01*
X205745000Y-124178750D02*
X205745000Y-124741250D01*
G75*
G02*
X205501250Y-124985000I-243750J0D01*
G01*
X205013750Y-124985000D01*
G75*
G02*
X204770000Y-124741250I0J243750D01*
G01*
X204770000Y-124178750D01*
G75*
G02*
X205013750Y-123935000I243750J0D01*
G01*
X205501250Y-123935000D01*
G75*
G02*
X205745000Y-124178750I0J-243750D01*
G01*
G37*
G36*
G01*
X200960000Y-96801250D02*
X200960000Y-96238750D01*
G75*
G02*
X201203750Y-95995000I243750J0D01*
G01*
X201691250Y-95995000D01*
G75*
G02*
X201935000Y-96238750I0J-243750D01*
G01*
X201935000Y-96801250D01*
G75*
G02*
X201691250Y-97045000I-243750J0D01*
G01*
X201203750Y-97045000D01*
G75*
G02*
X200960000Y-96801250I0J243750D01*
G01*
G37*
G36*
G01*
X199385000Y-96801250D02*
X199385000Y-96238750D01*
G75*
G02*
X199628750Y-95995000I243750J0D01*
G01*
X200116250Y-95995000D01*
G75*
G02*
X200360000Y-96238750I0J-243750D01*
G01*
X200360000Y-96801250D01*
G75*
G02*
X200116250Y-97045000I-243750J0D01*
G01*
X199628750Y-97045000D01*
G75*
G02*
X199385000Y-96801250I0J243750D01*
G01*
G37*
G36*
G01*
X214142500Y-84101250D02*
X214142500Y-83538750D01*
G75*
G02*
X214386250Y-83295000I243750J0D01*
G01*
X214873750Y-83295000D01*
G75*
G02*
X215117500Y-83538750I0J-243750D01*
G01*
X215117500Y-84101250D01*
G75*
G02*
X214873750Y-84345000I-243750J0D01*
G01*
X214386250Y-84345000D01*
G75*
G02*
X214142500Y-84101250I0J243750D01*
G01*
G37*
G36*
G01*
X212567500Y-84101250D02*
X212567500Y-83538750D01*
G75*
G02*
X212811250Y-83295000I243750J0D01*
G01*
X213298750Y-83295000D01*
G75*
G02*
X213542500Y-83538750I0J-243750D01*
G01*
X213542500Y-84101250D01*
G75*
G02*
X213298750Y-84345000I-243750J0D01*
G01*
X212811250Y-84345000D01*
G75*
G02*
X212567500Y-84101250I0J243750D01*
G01*
G37*
G36*
G01*
X200960000Y-100611250D02*
X200960000Y-100048750D01*
G75*
G02*
X201203750Y-99805000I243750J0D01*
G01*
X201691250Y-99805000D01*
G75*
G02*
X201935000Y-100048750I0J-243750D01*
G01*
X201935000Y-100611250D01*
G75*
G02*
X201691250Y-100855000I-243750J0D01*
G01*
X201203750Y-100855000D01*
G75*
G02*
X200960000Y-100611250I0J243750D01*
G01*
G37*
G36*
G01*
X199385000Y-100611250D02*
X199385000Y-100048750D01*
G75*
G02*
X199628750Y-99805000I243750J0D01*
G01*
X200116250Y-99805000D01*
G75*
G02*
X200360000Y-100048750I0J-243750D01*
G01*
X200360000Y-100611250D01*
G75*
G02*
X200116250Y-100855000I-243750J0D01*
G01*
X199628750Y-100855000D01*
G75*
G02*
X199385000Y-100611250I0J243750D01*
G01*
G37*
G36*
G01*
X208580000Y-84101250D02*
X208580000Y-83538750D01*
G75*
G02*
X208823750Y-83295000I243750J0D01*
G01*
X209311250Y-83295000D01*
G75*
G02*
X209555000Y-83538750I0J-243750D01*
G01*
X209555000Y-84101250D01*
G75*
G02*
X209311250Y-84345000I-243750J0D01*
G01*
X208823750Y-84345000D01*
G75*
G02*
X208580000Y-84101250I0J243750D01*
G01*
G37*
G36*
G01*
X207005000Y-84101250D02*
X207005000Y-83538750D01*
G75*
G02*
X207248750Y-83295000I243750J0D01*
G01*
X207736250Y-83295000D01*
G75*
G02*
X207980000Y-83538750I0J-243750D01*
G01*
X207980000Y-84101250D01*
G75*
G02*
X207736250Y-84345000I-243750J0D01*
G01*
X207248750Y-84345000D01*
G75*
G02*
X207005000Y-84101250I0J243750D01*
G01*
G37*
G36*
G01*
X208097500Y-76481250D02*
X208097500Y-75918750D01*
G75*
G02*
X208341250Y-75675000I243750J0D01*
G01*
X208828750Y-75675000D01*
G75*
G02*
X209072500Y-75918750I0J-243750D01*
G01*
X209072500Y-76481250D01*
G75*
G02*
X208828750Y-76725000I-243750J0D01*
G01*
X208341250Y-76725000D01*
G75*
G02*
X208097500Y-76481250I0J243750D01*
G01*
G37*
G36*
G01*
X206522500Y-76481250D02*
X206522500Y-75918750D01*
G75*
G02*
X206766250Y-75675000I243750J0D01*
G01*
X207253750Y-75675000D01*
G75*
G02*
X207497500Y-75918750I0J-243750D01*
G01*
X207497500Y-76481250D01*
G75*
G02*
X207253750Y-76725000I-243750J0D01*
G01*
X206766250Y-76725000D01*
G75*
G02*
X206522500Y-76481250I0J243750D01*
G01*
G37*
G36*
G01*
X213660000Y-76481250D02*
X213660000Y-75918750D01*
G75*
G02*
X213903750Y-75675000I243750J0D01*
G01*
X214391250Y-75675000D01*
G75*
G02*
X214635000Y-75918750I0J-243750D01*
G01*
X214635000Y-76481250D01*
G75*
G02*
X214391250Y-76725000I-243750J0D01*
G01*
X213903750Y-76725000D01*
G75*
G02*
X213660000Y-76481250I0J243750D01*
G01*
G37*
G36*
G01*
X212085000Y-76481250D02*
X212085000Y-75918750D01*
G75*
G02*
X212328750Y-75675000I243750J0D01*
G01*
X212816250Y-75675000D01*
G75*
G02*
X213060000Y-75918750I0J-243750D01*
G01*
X213060000Y-76481250D01*
G75*
G02*
X212816250Y-76725000I-243750J0D01*
G01*
X212328750Y-76725000D01*
G75*
G02*
X212085000Y-76481250I0J243750D01*
G01*
G37*
G36*
G01*
X222550000Y-126011250D02*
X222550000Y-125448750D01*
G75*
G02*
X222793750Y-125205000I243750J0D01*
G01*
X223281250Y-125205000D01*
G75*
G02*
X223525000Y-125448750I0J-243750D01*
G01*
X223525000Y-126011250D01*
G75*
G02*
X223281250Y-126255000I-243750J0D01*
G01*
X222793750Y-126255000D01*
G75*
G02*
X222550000Y-126011250I0J243750D01*
G01*
G37*
G36*
G01*
X220975000Y-126011250D02*
X220975000Y-125448750D01*
G75*
G02*
X221218750Y-125205000I243750J0D01*
G01*
X221706250Y-125205000D01*
G75*
G02*
X221950000Y-125448750I0J-243750D01*
G01*
X221950000Y-126011250D01*
G75*
G02*
X221706250Y-126255000I-243750J0D01*
G01*
X221218750Y-126255000D01*
G75*
G02*
X220975000Y-126011250I0J243750D01*
G01*
G37*
G36*
G01*
X208580000Y-63781250D02*
X208580000Y-63218750D01*
G75*
G02*
X208823750Y-62975000I243750J0D01*
G01*
X209311250Y-62975000D01*
G75*
G02*
X209555000Y-63218750I0J-243750D01*
G01*
X209555000Y-63781250D01*
G75*
G02*
X209311250Y-64025000I-243750J0D01*
G01*
X208823750Y-64025000D01*
G75*
G02*
X208580000Y-63781250I0J243750D01*
G01*
G37*
G36*
G01*
X207005000Y-63781250D02*
X207005000Y-63218750D01*
G75*
G02*
X207248750Y-62975000I243750J0D01*
G01*
X207736250Y-62975000D01*
G75*
G02*
X207980000Y-63218750I0J-243750D01*
G01*
X207980000Y-63781250D01*
G75*
G02*
X207736250Y-64025000I-243750J0D01*
G01*
X207248750Y-64025000D01*
G75*
G02*
X207005000Y-63781250I0J243750D01*
G01*
G37*
G36*
G01*
X206040000Y-48541250D02*
X206040000Y-47978750D01*
G75*
G02*
X206283750Y-47735000I243750J0D01*
G01*
X206771250Y-47735000D01*
G75*
G02*
X207015000Y-47978750I0J-243750D01*
G01*
X207015000Y-48541250D01*
G75*
G02*
X206771250Y-48785000I-243750J0D01*
G01*
X206283750Y-48785000D01*
G75*
G02*
X206040000Y-48541250I0J243750D01*
G01*
G37*
G36*
G01*
X204465000Y-48541250D02*
X204465000Y-47978750D01*
G75*
G02*
X204708750Y-47735000I243750J0D01*
G01*
X205196250Y-47735000D01*
G75*
G02*
X205440000Y-47978750I0J-243750D01*
G01*
X205440000Y-48541250D01*
G75*
G02*
X205196250Y-48785000I-243750J0D01*
G01*
X204708750Y-48785000D01*
G75*
G02*
X204465000Y-48541250I0J243750D01*
G01*
G37*
G36*
G01*
X218740000Y-141251250D02*
X218740000Y-140688750D01*
G75*
G02*
X218983750Y-140445000I243750J0D01*
G01*
X219471250Y-140445000D01*
G75*
G02*
X219715000Y-140688750I0J-243750D01*
G01*
X219715000Y-141251250D01*
G75*
G02*
X219471250Y-141495000I-243750J0D01*
G01*
X218983750Y-141495000D01*
G75*
G02*
X218740000Y-141251250I0J243750D01*
G01*
G37*
G36*
G01*
X217165000Y-141251250D02*
X217165000Y-140688750D01*
G75*
G02*
X217408750Y-140445000I243750J0D01*
G01*
X217896250Y-140445000D01*
G75*
G02*
X218140000Y-140688750I0J-243750D01*
G01*
X218140000Y-141251250D01*
G75*
G02*
X217896250Y-141495000I-243750J0D01*
G01*
X217408750Y-141495000D01*
G75*
G02*
X217165000Y-141251250I0J243750D01*
G01*
G37*
G36*
G01*
X214330000Y-131798750D02*
X214330000Y-132361250D01*
G75*
G02*
X214086250Y-132605000I-243750J0D01*
G01*
X213598750Y-132605000D01*
G75*
G02*
X213355000Y-132361250I0J243750D01*
G01*
X213355000Y-131798750D01*
G75*
G02*
X213598750Y-131555000I243750J0D01*
G01*
X214086250Y-131555000D01*
G75*
G02*
X214330000Y-131798750I0J-243750D01*
G01*
G37*
G36*
G01*
X215905000Y-131798750D02*
X215905000Y-132361250D01*
G75*
G02*
X215661250Y-132605000I-243750J0D01*
G01*
X215173750Y-132605000D01*
G75*
G02*
X214930000Y-132361250I0J243750D01*
G01*
X214930000Y-131798750D01*
G75*
G02*
X215173750Y-131555000I243750J0D01*
G01*
X215661250Y-131555000D01*
G75*
G02*
X215905000Y-131798750I0J-243750D01*
G01*
G37*
G36*
G01*
X225760000Y-140688750D02*
X225760000Y-141251250D01*
G75*
G02*
X225516250Y-141495000I-243750J0D01*
G01*
X225028750Y-141495000D01*
G75*
G02*
X224785000Y-141251250I0J243750D01*
G01*
X224785000Y-140688750D01*
G75*
G02*
X225028750Y-140445000I243750J0D01*
G01*
X225516250Y-140445000D01*
G75*
G02*
X225760000Y-140688750I0J-243750D01*
G01*
G37*
G36*
G01*
X227335000Y-140688750D02*
X227335000Y-141251250D01*
G75*
G02*
X227091250Y-141495000I-243750J0D01*
G01*
X226603750Y-141495000D01*
G75*
G02*
X226360000Y-141251250I0J243750D01*
G01*
X226360000Y-140688750D01*
G75*
G02*
X226603750Y-140445000I243750J0D01*
G01*
X227091250Y-140445000D01*
G75*
G02*
X227335000Y-140688750I0J-243750D01*
G01*
G37*
G36*
G01*
X222550000Y-129821250D02*
X222550000Y-129258750D01*
G75*
G02*
X222793750Y-129015000I243750J0D01*
G01*
X223281250Y-129015000D01*
G75*
G02*
X223525000Y-129258750I0J-243750D01*
G01*
X223525000Y-129821250D01*
G75*
G02*
X223281250Y-130065000I-243750J0D01*
G01*
X222793750Y-130065000D01*
G75*
G02*
X222550000Y-129821250I0J243750D01*
G01*
G37*
G36*
G01*
X220975000Y-129821250D02*
X220975000Y-129258750D01*
G75*
G02*
X221218750Y-129015000I243750J0D01*
G01*
X221706250Y-129015000D01*
G75*
G02*
X221950000Y-129258750I0J-243750D01*
G01*
X221950000Y-129821250D01*
G75*
G02*
X221706250Y-130065000I-243750J0D01*
G01*
X221218750Y-130065000D01*
G75*
G02*
X220975000Y-129821250I0J243750D01*
G01*
G37*
G36*
G01*
X226360000Y-126011250D02*
X226360000Y-125448750D01*
G75*
G02*
X226603750Y-125205000I243750J0D01*
G01*
X227091250Y-125205000D01*
G75*
G02*
X227335000Y-125448750I0J-243750D01*
G01*
X227335000Y-126011250D01*
G75*
G02*
X227091250Y-126255000I-243750J0D01*
G01*
X226603750Y-126255000D01*
G75*
G02*
X226360000Y-126011250I0J243750D01*
G01*
G37*
G36*
G01*
X224785000Y-126011250D02*
X224785000Y-125448750D01*
G75*
G02*
X225028750Y-125205000I243750J0D01*
G01*
X225516250Y-125205000D01*
G75*
G02*
X225760000Y-125448750I0J-243750D01*
G01*
X225760000Y-126011250D01*
G75*
G02*
X225516250Y-126255000I-243750J0D01*
G01*
X225028750Y-126255000D01*
G75*
G02*
X224785000Y-126011250I0J243750D01*
G01*
G37*
G36*
G01*
X186990000Y-114581250D02*
X186990000Y-114018750D01*
G75*
G02*
X187233750Y-113775000I243750J0D01*
G01*
X187721250Y-113775000D01*
G75*
G02*
X187965000Y-114018750I0J-243750D01*
G01*
X187965000Y-114581250D01*
G75*
G02*
X187721250Y-114825000I-243750J0D01*
G01*
X187233750Y-114825000D01*
G75*
G02*
X186990000Y-114581250I0J243750D01*
G01*
G37*
G36*
G01*
X185415000Y-114581250D02*
X185415000Y-114018750D01*
G75*
G02*
X185658750Y-113775000I243750J0D01*
G01*
X186146250Y-113775000D01*
G75*
G02*
X186390000Y-114018750I0J-243750D01*
G01*
X186390000Y-114581250D01*
G75*
G02*
X186146250Y-114825000I-243750J0D01*
G01*
X185658750Y-114825000D01*
G75*
G02*
X185415000Y-114581250I0J243750D01*
G01*
G37*
G36*
G01*
X171750000Y-123471250D02*
X171750000Y-122908750D01*
G75*
G02*
X171993750Y-122665000I243750J0D01*
G01*
X172481250Y-122665000D01*
G75*
G02*
X172725000Y-122908750I0J-243750D01*
G01*
X172725000Y-123471250D01*
G75*
G02*
X172481250Y-123715000I-243750J0D01*
G01*
X171993750Y-123715000D01*
G75*
G02*
X171750000Y-123471250I0J243750D01*
G01*
G37*
G36*
G01*
X170175000Y-123471250D02*
X170175000Y-122908750D01*
G75*
G02*
X170418750Y-122665000I243750J0D01*
G01*
X170906250Y-122665000D01*
G75*
G02*
X171150000Y-122908750I0J-243750D01*
G01*
X171150000Y-123471250D01*
G75*
G02*
X170906250Y-123715000I-243750J0D01*
G01*
X170418750Y-123715000D01*
G75*
G02*
X170175000Y-123471250I0J243750D01*
G01*
G37*
G36*
G01*
X152700000Y-92991250D02*
X152700000Y-92428750D01*
G75*
G02*
X152943750Y-92185000I243750J0D01*
G01*
X153431250Y-92185000D01*
G75*
G02*
X153675000Y-92428750I0J-243750D01*
G01*
X153675000Y-92991250D01*
G75*
G02*
X153431250Y-93235000I-243750J0D01*
G01*
X152943750Y-93235000D01*
G75*
G02*
X152700000Y-92991250I0J243750D01*
G01*
G37*
G36*
G01*
X151125000Y-92991250D02*
X151125000Y-92428750D01*
G75*
G02*
X151368750Y-92185000I243750J0D01*
G01*
X151856250Y-92185000D01*
G75*
G02*
X152100000Y-92428750I0J-243750D01*
G01*
X152100000Y-92991250D01*
G75*
G02*
X151856250Y-93235000I-243750J0D01*
G01*
X151368750Y-93235000D01*
G75*
G02*
X151125000Y-92991250I0J243750D01*
G01*
G37*
G36*
G01*
X158450000Y-92428750D02*
X158450000Y-92991250D01*
G75*
G02*
X158206250Y-93235000I-243750J0D01*
G01*
X157718750Y-93235000D01*
G75*
G02*
X157475000Y-92991250I0J243750D01*
G01*
X157475000Y-92428750D01*
G75*
G02*
X157718750Y-92185000I243750J0D01*
G01*
X158206250Y-92185000D01*
G75*
G02*
X158450000Y-92428750I0J-243750D01*
G01*
G37*
G36*
G01*
X160025000Y-92428750D02*
X160025000Y-92991250D01*
G75*
G02*
X159781250Y-93235000I-243750J0D01*
G01*
X159293750Y-93235000D01*
G75*
G02*
X159050000Y-92991250I0J243750D01*
G01*
X159050000Y-92428750D01*
G75*
G02*
X159293750Y-92185000I243750J0D01*
G01*
X159781250Y-92185000D01*
G75*
G02*
X160025000Y-92428750I0J-243750D01*
G01*
G37*
G36*
G01*
X176830000Y-124741250D02*
X176830000Y-124178750D01*
G75*
G02*
X177073750Y-123935000I243750J0D01*
G01*
X177561250Y-123935000D01*
G75*
G02*
X177805000Y-124178750I0J-243750D01*
G01*
X177805000Y-124741250D01*
G75*
G02*
X177561250Y-124985000I-243750J0D01*
G01*
X177073750Y-124985000D01*
G75*
G02*
X176830000Y-124741250I0J243750D01*
G01*
G37*
G36*
G01*
X175255000Y-124741250D02*
X175255000Y-124178750D01*
G75*
G02*
X175498750Y-123935000I243750J0D01*
G01*
X175986250Y-123935000D01*
G75*
G02*
X176230000Y-124178750I0J-243750D01*
G01*
X176230000Y-124741250D01*
G75*
G02*
X175986250Y-124985000I-243750J0D01*
G01*
X175498750Y-124985000D01*
G75*
G02*
X175255000Y-124741250I0J243750D01*
G01*
G37*
G36*
G01*
X187660000Y-124178750D02*
X187660000Y-124741250D01*
G75*
G02*
X187416250Y-124985000I-243750J0D01*
G01*
X186928750Y-124985000D01*
G75*
G02*
X186685000Y-124741250I0J243750D01*
G01*
X186685000Y-124178750D01*
G75*
G02*
X186928750Y-123935000I243750J0D01*
G01*
X187416250Y-123935000D01*
G75*
G02*
X187660000Y-124178750I0J-243750D01*
G01*
G37*
G36*
G01*
X189235000Y-124178750D02*
X189235000Y-124741250D01*
G75*
G02*
X188991250Y-124985000I-243750J0D01*
G01*
X188503750Y-124985000D01*
G75*
G02*
X188260000Y-124741250I0J243750D01*
G01*
X188260000Y-124178750D01*
G75*
G02*
X188503750Y-123935000I243750J0D01*
G01*
X188991250Y-123935000D01*
G75*
G02*
X189235000Y-124178750I0J-243750D01*
G01*
G37*
G36*
G01*
X159050000Y-96801250D02*
X159050000Y-96238750D01*
G75*
G02*
X159293750Y-95995000I243750J0D01*
G01*
X159781250Y-95995000D01*
G75*
G02*
X160025000Y-96238750I0J-243750D01*
G01*
X160025000Y-96801250D01*
G75*
G02*
X159781250Y-97045000I-243750J0D01*
G01*
X159293750Y-97045000D01*
G75*
G02*
X159050000Y-96801250I0J243750D01*
G01*
G37*
G36*
G01*
X157475000Y-96801250D02*
X157475000Y-96238750D01*
G75*
G02*
X157718750Y-95995000I243750J0D01*
G01*
X158206250Y-95995000D01*
G75*
G02*
X158450000Y-96238750I0J-243750D01*
G01*
X158450000Y-96801250D01*
G75*
G02*
X158206250Y-97045000I-243750J0D01*
G01*
X157718750Y-97045000D01*
G75*
G02*
X157475000Y-96801250I0J243750D01*
G01*
G37*
G36*
G01*
X171300000Y-84101250D02*
X171300000Y-83538750D01*
G75*
G02*
X171543750Y-83295000I243750J0D01*
G01*
X172031250Y-83295000D01*
G75*
G02*
X172275000Y-83538750I0J-243750D01*
G01*
X172275000Y-84101250D01*
G75*
G02*
X172031250Y-84345000I-243750J0D01*
G01*
X171543750Y-84345000D01*
G75*
G02*
X171300000Y-84101250I0J243750D01*
G01*
G37*
G36*
G01*
X169725000Y-84101250D02*
X169725000Y-83538750D01*
G75*
G02*
X169968750Y-83295000I243750J0D01*
G01*
X170456250Y-83295000D01*
G75*
G02*
X170700000Y-83538750I0J-243750D01*
G01*
X170700000Y-84101250D01*
G75*
G02*
X170456250Y-84345000I-243750J0D01*
G01*
X169968750Y-84345000D01*
G75*
G02*
X169725000Y-84101250I0J243750D01*
G01*
G37*
G36*
G01*
X159050000Y-100611250D02*
X159050000Y-100048750D01*
G75*
G02*
X159293750Y-99805000I243750J0D01*
G01*
X159781250Y-99805000D01*
G75*
G02*
X160025000Y-100048750I0J-243750D01*
G01*
X160025000Y-100611250D01*
G75*
G02*
X159781250Y-100855000I-243750J0D01*
G01*
X159293750Y-100855000D01*
G75*
G02*
X159050000Y-100611250I0J243750D01*
G01*
G37*
G36*
G01*
X157475000Y-100611250D02*
X157475000Y-100048750D01*
G75*
G02*
X157718750Y-99805000I243750J0D01*
G01*
X158206250Y-99805000D01*
G75*
G02*
X158450000Y-100048750I0J-243750D01*
G01*
X158450000Y-100611250D01*
G75*
G02*
X158206250Y-100855000I-243750J0D01*
G01*
X157718750Y-100855000D01*
G75*
G02*
X157475000Y-100611250I0J243750D01*
G01*
G37*
G36*
G01*
X165400000Y-84101250D02*
X165400000Y-83538750D01*
G75*
G02*
X165643750Y-83295000I243750J0D01*
G01*
X166131250Y-83295000D01*
G75*
G02*
X166375000Y-83538750I0J-243750D01*
G01*
X166375000Y-84101250D01*
G75*
G02*
X166131250Y-84345000I-243750J0D01*
G01*
X165643750Y-84345000D01*
G75*
G02*
X165400000Y-84101250I0J243750D01*
G01*
G37*
G36*
G01*
X163825000Y-84101250D02*
X163825000Y-83538750D01*
G75*
G02*
X164068750Y-83295000I243750J0D01*
G01*
X164556250Y-83295000D01*
G75*
G02*
X164800000Y-83538750I0J-243750D01*
G01*
X164800000Y-84101250D01*
G75*
G02*
X164556250Y-84345000I-243750J0D01*
G01*
X164068750Y-84345000D01*
G75*
G02*
X163825000Y-84101250I0J243750D01*
G01*
G37*
G36*
G01*
X165400000Y-76481250D02*
X165400000Y-75918750D01*
G75*
G02*
X165643750Y-75675000I243750J0D01*
G01*
X166131250Y-75675000D01*
G75*
G02*
X166375000Y-75918750I0J-243750D01*
G01*
X166375000Y-76481250D01*
G75*
G02*
X166131250Y-76725000I-243750J0D01*
G01*
X165643750Y-76725000D01*
G75*
G02*
X165400000Y-76481250I0J243750D01*
G01*
G37*
G36*
G01*
X163825000Y-76481250D02*
X163825000Y-75918750D01*
G75*
G02*
X164068750Y-75675000I243750J0D01*
G01*
X164556250Y-75675000D01*
G75*
G02*
X164800000Y-75918750I0J-243750D01*
G01*
X164800000Y-76481250D01*
G75*
G02*
X164556250Y-76725000I-243750J0D01*
G01*
X164068750Y-76725000D01*
G75*
G02*
X163825000Y-76481250I0J243750D01*
G01*
G37*
G36*
G01*
X171750000Y-76481250D02*
X171750000Y-75918750D01*
G75*
G02*
X171993750Y-75675000I243750J0D01*
G01*
X172481250Y-75675000D01*
G75*
G02*
X172725000Y-75918750I0J-243750D01*
G01*
X172725000Y-76481250D01*
G75*
G02*
X172481250Y-76725000I-243750J0D01*
G01*
X171993750Y-76725000D01*
G75*
G02*
X171750000Y-76481250I0J243750D01*
G01*
G37*
G36*
G01*
X170175000Y-76481250D02*
X170175000Y-75918750D01*
G75*
G02*
X170418750Y-75675000I243750J0D01*
G01*
X170906250Y-75675000D01*
G75*
G02*
X171150000Y-75918750I0J-243750D01*
G01*
X171150000Y-76481250D01*
G75*
G02*
X170906250Y-76725000I-243750J0D01*
G01*
X170418750Y-76725000D01*
G75*
G02*
X170175000Y-76481250I0J243750D01*
G01*
G37*
G36*
G01*
X186990000Y-129821250D02*
X186990000Y-129258750D01*
G75*
G02*
X187233750Y-129015000I243750J0D01*
G01*
X187721250Y-129015000D01*
G75*
G02*
X187965000Y-129258750I0J-243750D01*
G01*
X187965000Y-129821250D01*
G75*
G02*
X187721250Y-130065000I-243750J0D01*
G01*
X187233750Y-130065000D01*
G75*
G02*
X186990000Y-129821250I0J243750D01*
G01*
G37*
G36*
G01*
X185415000Y-129821250D02*
X185415000Y-129258750D01*
G75*
G02*
X185658750Y-129015000I243750J0D01*
G01*
X186146250Y-129015000D01*
G75*
G02*
X186390000Y-129258750I0J-243750D01*
G01*
X186390000Y-129821250D01*
G75*
G02*
X186146250Y-130065000I-243750J0D01*
G01*
X185658750Y-130065000D01*
G75*
G02*
X185415000Y-129821250I0J243750D01*
G01*
G37*
G36*
G01*
X166670000Y-63781250D02*
X166670000Y-63218750D01*
G75*
G02*
X166913750Y-62975000I243750J0D01*
G01*
X167401250Y-62975000D01*
G75*
G02*
X167645000Y-63218750I0J-243750D01*
G01*
X167645000Y-63781250D01*
G75*
G02*
X167401250Y-64025000I-243750J0D01*
G01*
X166913750Y-64025000D01*
G75*
G02*
X166670000Y-63781250I0J243750D01*
G01*
G37*
G36*
G01*
X165095000Y-63781250D02*
X165095000Y-63218750D01*
G75*
G02*
X165338750Y-62975000I243750J0D01*
G01*
X165826250Y-62975000D01*
G75*
G02*
X166070000Y-63218750I0J-243750D01*
G01*
X166070000Y-63781250D01*
G75*
G02*
X165826250Y-64025000I-243750J0D01*
G01*
X165338750Y-64025000D01*
G75*
G02*
X165095000Y-63781250I0J243750D01*
G01*
G37*
G36*
G01*
X162860000Y-48541250D02*
X162860000Y-47978750D01*
G75*
G02*
X163103750Y-47735000I243750J0D01*
G01*
X163591250Y-47735000D01*
G75*
G02*
X163835000Y-47978750I0J-243750D01*
G01*
X163835000Y-48541250D01*
G75*
G02*
X163591250Y-48785000I-243750J0D01*
G01*
X163103750Y-48785000D01*
G75*
G02*
X162860000Y-48541250I0J243750D01*
G01*
G37*
G36*
G01*
X161285000Y-48541250D02*
X161285000Y-47978750D01*
G75*
G02*
X161528750Y-47735000I243750J0D01*
G01*
X162016250Y-47735000D01*
G75*
G02*
X162260000Y-47978750I0J-243750D01*
G01*
X162260000Y-48541250D01*
G75*
G02*
X162016250Y-48785000I-243750J0D01*
G01*
X161528750Y-48785000D01*
G75*
G02*
X161285000Y-48541250I0J243750D01*
G01*
G37*
G36*
G01*
X176830000Y-141251250D02*
X176830000Y-140688750D01*
G75*
G02*
X177073750Y-140445000I243750J0D01*
G01*
X177561250Y-140445000D01*
G75*
G02*
X177805000Y-140688750I0J-243750D01*
G01*
X177805000Y-141251250D01*
G75*
G02*
X177561250Y-141495000I-243750J0D01*
G01*
X177073750Y-141495000D01*
G75*
G02*
X176830000Y-141251250I0J243750D01*
G01*
G37*
G36*
G01*
X175255000Y-141251250D02*
X175255000Y-140688750D01*
G75*
G02*
X175498750Y-140445000I243750J0D01*
G01*
X175986250Y-140445000D01*
G75*
G02*
X176230000Y-140688750I0J-243750D01*
G01*
X176230000Y-141251250D01*
G75*
G02*
X175986250Y-141495000I-243750J0D01*
G01*
X175498750Y-141495000D01*
G75*
G02*
X175255000Y-141251250I0J243750D01*
G01*
G37*
G36*
G01*
X176230000Y-131798750D02*
X176230000Y-132361250D01*
G75*
G02*
X175986250Y-132605000I-243750J0D01*
G01*
X175498750Y-132605000D01*
G75*
G02*
X175255000Y-132361250I0J243750D01*
G01*
X175255000Y-131798750D01*
G75*
G02*
X175498750Y-131555000I243750J0D01*
G01*
X175986250Y-131555000D01*
G75*
G02*
X176230000Y-131798750I0J-243750D01*
G01*
G37*
G36*
G01*
X177805000Y-131798750D02*
X177805000Y-132361250D01*
G75*
G02*
X177561250Y-132605000I-243750J0D01*
G01*
X177073750Y-132605000D01*
G75*
G02*
X176830000Y-132361250I0J243750D01*
G01*
X176830000Y-131798750D01*
G75*
G02*
X177073750Y-131555000I243750J0D01*
G01*
X177561250Y-131555000D01*
G75*
G02*
X177805000Y-131798750I0J-243750D01*
G01*
G37*
G36*
G01*
X189530000Y-133631250D02*
X189530000Y-133068750D01*
G75*
G02*
X189773750Y-132825000I243750J0D01*
G01*
X190261250Y-132825000D01*
G75*
G02*
X190505000Y-133068750I0J-243750D01*
G01*
X190505000Y-133631250D01*
G75*
G02*
X190261250Y-133875000I-243750J0D01*
G01*
X189773750Y-133875000D01*
G75*
G02*
X189530000Y-133631250I0J243750D01*
G01*
G37*
G36*
G01*
X187955000Y-133631250D02*
X187955000Y-133068750D01*
G75*
G02*
X188198750Y-132825000I243750J0D01*
G01*
X188686250Y-132825000D01*
G75*
G02*
X188930000Y-133068750I0J-243750D01*
G01*
X188930000Y-133631250D01*
G75*
G02*
X188686250Y-133875000I-243750J0D01*
G01*
X188198750Y-133875000D01*
G75*
G02*
X187955000Y-133631250I0J243750D01*
G01*
G37*
G36*
G01*
X149372500Y-117121250D02*
X149372500Y-116558750D01*
G75*
G02*
X149616250Y-116315000I243750J0D01*
G01*
X150103750Y-116315000D01*
G75*
G02*
X150347500Y-116558750I0J-243750D01*
G01*
X150347500Y-117121250D01*
G75*
G02*
X150103750Y-117365000I-243750J0D01*
G01*
X149616250Y-117365000D01*
G75*
G02*
X149372500Y-117121250I0J243750D01*
G01*
G37*
G36*
G01*
X147797500Y-117121250D02*
X147797500Y-116558750D01*
G75*
G02*
X148041250Y-116315000I243750J0D01*
G01*
X148528750Y-116315000D01*
G75*
G02*
X148772500Y-116558750I0J-243750D01*
G01*
X148772500Y-117121250D01*
G75*
G02*
X148528750Y-117365000I-243750J0D01*
G01*
X148041250Y-117365000D01*
G75*
G02*
X147797500Y-117121250I0J243750D01*
G01*
G37*
G36*
G01*
X134920000Y-126011250D02*
X134920000Y-125448750D01*
G75*
G02*
X135163750Y-125205000I243750J0D01*
G01*
X135651250Y-125205000D01*
G75*
G02*
X135895000Y-125448750I0J-243750D01*
G01*
X135895000Y-126011250D01*
G75*
G02*
X135651250Y-126255000I-243750J0D01*
G01*
X135163750Y-126255000D01*
G75*
G02*
X134920000Y-126011250I0J243750D01*
G01*
G37*
G36*
G01*
X133345000Y-126011250D02*
X133345000Y-125448750D01*
G75*
G02*
X133588750Y-125205000I243750J0D01*
G01*
X134076250Y-125205000D01*
G75*
G02*
X134320000Y-125448750I0J-243750D01*
G01*
X134320000Y-126011250D01*
G75*
G02*
X134076250Y-126255000I-243750J0D01*
G01*
X133588750Y-126255000D01*
G75*
G02*
X133345000Y-126011250I0J243750D01*
G01*
G37*
G36*
G01*
X110790000Y-92991250D02*
X110790000Y-92428750D01*
G75*
G02*
X111033750Y-92185000I243750J0D01*
G01*
X111521250Y-92185000D01*
G75*
G02*
X111765000Y-92428750I0J-243750D01*
G01*
X111765000Y-92991250D01*
G75*
G02*
X111521250Y-93235000I-243750J0D01*
G01*
X111033750Y-93235000D01*
G75*
G02*
X110790000Y-92991250I0J243750D01*
G01*
G37*
G36*
G01*
X109215000Y-92991250D02*
X109215000Y-92428750D01*
G75*
G02*
X109458750Y-92185000I243750J0D01*
G01*
X109946250Y-92185000D01*
G75*
G02*
X110190000Y-92428750I0J-243750D01*
G01*
X110190000Y-92991250D01*
G75*
G02*
X109946250Y-93235000I-243750J0D01*
G01*
X109458750Y-93235000D01*
G75*
G02*
X109215000Y-92991250I0J243750D01*
G01*
G37*
G36*
G01*
X116540000Y-92428750D02*
X116540000Y-92991250D01*
G75*
G02*
X116296250Y-93235000I-243750J0D01*
G01*
X115808750Y-93235000D01*
G75*
G02*
X115565000Y-92991250I0J243750D01*
G01*
X115565000Y-92428750D01*
G75*
G02*
X115808750Y-92185000I243750J0D01*
G01*
X116296250Y-92185000D01*
G75*
G02*
X116540000Y-92428750I0J-243750D01*
G01*
G37*
G36*
G01*
X118115000Y-92428750D02*
X118115000Y-92991250D01*
G75*
G02*
X117871250Y-93235000I-243750J0D01*
G01*
X117383750Y-93235000D01*
G75*
G02*
X117140000Y-92991250I0J243750D01*
G01*
X117140000Y-92428750D01*
G75*
G02*
X117383750Y-92185000I243750J0D01*
G01*
X117871250Y-92185000D01*
G75*
G02*
X118115000Y-92428750I0J-243750D01*
G01*
G37*
G36*
G01*
X138730000Y-126011250D02*
X138730000Y-125448750D01*
G75*
G02*
X138973750Y-125205000I243750J0D01*
G01*
X139461250Y-125205000D01*
G75*
G02*
X139705000Y-125448750I0J-243750D01*
G01*
X139705000Y-126011250D01*
G75*
G02*
X139461250Y-126255000I-243750J0D01*
G01*
X138973750Y-126255000D01*
G75*
G02*
X138730000Y-126011250I0J243750D01*
G01*
G37*
G36*
G01*
X137155000Y-126011250D02*
X137155000Y-125448750D01*
G75*
G02*
X137398750Y-125205000I243750J0D01*
G01*
X137886250Y-125205000D01*
G75*
G02*
X138130000Y-125448750I0J-243750D01*
G01*
X138130000Y-126011250D01*
G75*
G02*
X137886250Y-126255000I-243750J0D01*
G01*
X137398750Y-126255000D01*
G75*
G02*
X137155000Y-126011250I0J243750D01*
G01*
G37*
G36*
G01*
X149372500Y-126011250D02*
X149372500Y-125448750D01*
G75*
G02*
X149616250Y-125205000I243750J0D01*
G01*
X150103750Y-125205000D01*
G75*
G02*
X150347500Y-125448750I0J-243750D01*
G01*
X150347500Y-126011250D01*
G75*
G02*
X150103750Y-126255000I-243750J0D01*
G01*
X149616250Y-126255000D01*
G75*
G02*
X149372500Y-126011250I0J243750D01*
G01*
G37*
G36*
G01*
X147797500Y-126011250D02*
X147797500Y-125448750D01*
G75*
G02*
X148041250Y-125205000I243750J0D01*
G01*
X148528750Y-125205000D01*
G75*
G02*
X148772500Y-125448750I0J-243750D01*
G01*
X148772500Y-126011250D01*
G75*
G02*
X148528750Y-126255000I-243750J0D01*
G01*
X148041250Y-126255000D01*
G75*
G02*
X147797500Y-126011250I0J243750D01*
G01*
G37*
G36*
G01*
X117140000Y-96801250D02*
X117140000Y-96238750D01*
G75*
G02*
X117383750Y-95995000I243750J0D01*
G01*
X117871250Y-95995000D01*
G75*
G02*
X118115000Y-96238750I0J-243750D01*
G01*
X118115000Y-96801250D01*
G75*
G02*
X117871250Y-97045000I-243750J0D01*
G01*
X117383750Y-97045000D01*
G75*
G02*
X117140000Y-96801250I0J243750D01*
G01*
G37*
G36*
G01*
X115565000Y-96801250D02*
X115565000Y-96238750D01*
G75*
G02*
X115808750Y-95995000I243750J0D01*
G01*
X116296250Y-95995000D01*
G75*
G02*
X116540000Y-96238750I0J-243750D01*
G01*
X116540000Y-96801250D01*
G75*
G02*
X116296250Y-97045000I-243750J0D01*
G01*
X115808750Y-97045000D01*
G75*
G02*
X115565000Y-96801250I0J243750D01*
G01*
G37*
G36*
G01*
X129840000Y-84101250D02*
X129840000Y-83538750D01*
G75*
G02*
X130083750Y-83295000I243750J0D01*
G01*
X130571250Y-83295000D01*
G75*
G02*
X130815000Y-83538750I0J-243750D01*
G01*
X130815000Y-84101250D01*
G75*
G02*
X130571250Y-84345000I-243750J0D01*
G01*
X130083750Y-84345000D01*
G75*
G02*
X129840000Y-84101250I0J243750D01*
G01*
G37*
G36*
G01*
X128265000Y-84101250D02*
X128265000Y-83538750D01*
G75*
G02*
X128508750Y-83295000I243750J0D01*
G01*
X128996250Y-83295000D01*
G75*
G02*
X129240000Y-83538750I0J-243750D01*
G01*
X129240000Y-84101250D01*
G75*
G02*
X128996250Y-84345000I-243750J0D01*
G01*
X128508750Y-84345000D01*
G75*
G02*
X128265000Y-84101250I0J243750D01*
G01*
G37*
G36*
G01*
X117140000Y-100611250D02*
X117140000Y-100048750D01*
G75*
G02*
X117383750Y-99805000I243750J0D01*
G01*
X117871250Y-99805000D01*
G75*
G02*
X118115000Y-100048750I0J-243750D01*
G01*
X118115000Y-100611250D01*
G75*
G02*
X117871250Y-100855000I-243750J0D01*
G01*
X117383750Y-100855000D01*
G75*
G02*
X117140000Y-100611250I0J243750D01*
G01*
G37*
G36*
G01*
X115565000Y-100611250D02*
X115565000Y-100048750D01*
G75*
G02*
X115808750Y-99805000I243750J0D01*
G01*
X116296250Y-99805000D01*
G75*
G02*
X116540000Y-100048750I0J-243750D01*
G01*
X116540000Y-100611250D01*
G75*
G02*
X116296250Y-100855000I-243750J0D01*
G01*
X115808750Y-100855000D01*
G75*
G02*
X115565000Y-100611250I0J243750D01*
G01*
G37*
G36*
G01*
X123972500Y-84101250D02*
X123972500Y-83538750D01*
G75*
G02*
X124216250Y-83295000I243750J0D01*
G01*
X124703750Y-83295000D01*
G75*
G02*
X124947500Y-83538750I0J-243750D01*
G01*
X124947500Y-84101250D01*
G75*
G02*
X124703750Y-84345000I-243750J0D01*
G01*
X124216250Y-84345000D01*
G75*
G02*
X123972500Y-84101250I0J243750D01*
G01*
G37*
G36*
G01*
X122397500Y-84101250D02*
X122397500Y-83538750D01*
G75*
G02*
X122641250Y-83295000I243750J0D01*
G01*
X123128750Y-83295000D01*
G75*
G02*
X123372500Y-83538750I0J-243750D01*
G01*
X123372500Y-84101250D01*
G75*
G02*
X123128750Y-84345000I-243750J0D01*
G01*
X122641250Y-84345000D01*
G75*
G02*
X122397500Y-84101250I0J243750D01*
G01*
G37*
G36*
G01*
X123490000Y-76481250D02*
X123490000Y-75918750D01*
G75*
G02*
X123733750Y-75675000I243750J0D01*
G01*
X124221250Y-75675000D01*
G75*
G02*
X124465000Y-75918750I0J-243750D01*
G01*
X124465000Y-76481250D01*
G75*
G02*
X124221250Y-76725000I-243750J0D01*
G01*
X123733750Y-76725000D01*
G75*
G02*
X123490000Y-76481250I0J243750D01*
G01*
G37*
G36*
G01*
X121915000Y-76481250D02*
X121915000Y-75918750D01*
G75*
G02*
X122158750Y-75675000I243750J0D01*
G01*
X122646250Y-75675000D01*
G75*
G02*
X122890000Y-75918750I0J-243750D01*
G01*
X122890000Y-76481250D01*
G75*
G02*
X122646250Y-76725000I-243750J0D01*
G01*
X122158750Y-76725000D01*
G75*
G02*
X121915000Y-76481250I0J243750D01*
G01*
G37*
G36*
G01*
X129840000Y-76481250D02*
X129840000Y-75918750D01*
G75*
G02*
X130083750Y-75675000I243750J0D01*
G01*
X130571250Y-75675000D01*
G75*
G02*
X130815000Y-75918750I0J-243750D01*
G01*
X130815000Y-76481250D01*
G75*
G02*
X130571250Y-76725000I-243750J0D01*
G01*
X130083750Y-76725000D01*
G75*
G02*
X129840000Y-76481250I0J243750D01*
G01*
G37*
G36*
G01*
X128265000Y-76481250D02*
X128265000Y-75918750D01*
G75*
G02*
X128508750Y-75675000I243750J0D01*
G01*
X128996250Y-75675000D01*
G75*
G02*
X129240000Y-75918750I0J-243750D01*
G01*
X129240000Y-76481250D01*
G75*
G02*
X128996250Y-76725000I-243750J0D01*
G01*
X128508750Y-76725000D01*
G75*
G02*
X128265000Y-76481250I0J243750D01*
G01*
G37*
G36*
G01*
X143810000Y-129821250D02*
X143810000Y-129258750D01*
G75*
G02*
X144053750Y-129015000I243750J0D01*
G01*
X144541250Y-129015000D01*
G75*
G02*
X144785000Y-129258750I0J-243750D01*
G01*
X144785000Y-129821250D01*
G75*
G02*
X144541250Y-130065000I-243750J0D01*
G01*
X144053750Y-130065000D01*
G75*
G02*
X143810000Y-129821250I0J243750D01*
G01*
G37*
G36*
G01*
X142235000Y-129821250D02*
X142235000Y-129258750D01*
G75*
G02*
X142478750Y-129015000I243750J0D01*
G01*
X142966250Y-129015000D01*
G75*
G02*
X143210000Y-129258750I0J-243750D01*
G01*
X143210000Y-129821250D01*
G75*
G02*
X142966250Y-130065000I-243750J0D01*
G01*
X142478750Y-130065000D01*
G75*
G02*
X142235000Y-129821250I0J243750D01*
G01*
G37*
G36*
G01*
X123490000Y-63781250D02*
X123490000Y-63218750D01*
G75*
G02*
X123733750Y-62975000I243750J0D01*
G01*
X124221250Y-62975000D01*
G75*
G02*
X124465000Y-63218750I0J-243750D01*
G01*
X124465000Y-63781250D01*
G75*
G02*
X124221250Y-64025000I-243750J0D01*
G01*
X123733750Y-64025000D01*
G75*
G02*
X123490000Y-63781250I0J243750D01*
G01*
G37*
G36*
G01*
X121915000Y-63781250D02*
X121915000Y-63218750D01*
G75*
G02*
X122158750Y-62975000I243750J0D01*
G01*
X122646250Y-62975000D01*
G75*
G02*
X122890000Y-63218750I0J-243750D01*
G01*
X122890000Y-63781250D01*
G75*
G02*
X122646250Y-64025000I-243750J0D01*
G01*
X122158750Y-64025000D01*
G75*
G02*
X121915000Y-63781250I0J243750D01*
G01*
G37*
G36*
G01*
X120950000Y-48541250D02*
X120950000Y-47978750D01*
G75*
G02*
X121193750Y-47735000I243750J0D01*
G01*
X121681250Y-47735000D01*
G75*
G02*
X121925000Y-47978750I0J-243750D01*
G01*
X121925000Y-48541250D01*
G75*
G02*
X121681250Y-48785000I-243750J0D01*
G01*
X121193750Y-48785000D01*
G75*
G02*
X120950000Y-48541250I0J243750D01*
G01*
G37*
G36*
G01*
X119375000Y-48541250D02*
X119375000Y-47978750D01*
G75*
G02*
X119618750Y-47735000I243750J0D01*
G01*
X120106250Y-47735000D01*
G75*
G02*
X120350000Y-47978750I0J-243750D01*
G01*
X120350000Y-48541250D01*
G75*
G02*
X120106250Y-48785000I-243750J0D01*
G01*
X119618750Y-48785000D01*
G75*
G02*
X119375000Y-48541250I0J243750D01*
G01*
G37*
G36*
G01*
X134320000Y-140688750D02*
X134320000Y-141251250D01*
G75*
G02*
X134076250Y-141495000I-243750J0D01*
G01*
X133588750Y-141495000D01*
G75*
G02*
X133345000Y-141251250I0J243750D01*
G01*
X133345000Y-140688750D01*
G75*
G02*
X133588750Y-140445000I243750J0D01*
G01*
X134076250Y-140445000D01*
G75*
G02*
X134320000Y-140688750I0J-243750D01*
G01*
G37*
G36*
G01*
X135895000Y-140688750D02*
X135895000Y-141251250D01*
G75*
G02*
X135651250Y-141495000I-243750J0D01*
G01*
X135163750Y-141495000D01*
G75*
G02*
X134920000Y-141251250I0J243750D01*
G01*
X134920000Y-140688750D01*
G75*
G02*
X135163750Y-140445000I243750J0D01*
G01*
X135651250Y-140445000D01*
G75*
G02*
X135895000Y-140688750I0J-243750D01*
G01*
G37*
G36*
G01*
X134920000Y-132361250D02*
X134920000Y-131798750D01*
G75*
G02*
X135163750Y-131555000I243750J0D01*
G01*
X135651250Y-131555000D01*
G75*
G02*
X135895000Y-131798750I0J-243750D01*
G01*
X135895000Y-132361250D01*
G75*
G02*
X135651250Y-132605000I-243750J0D01*
G01*
X135163750Y-132605000D01*
G75*
G02*
X134920000Y-132361250I0J243750D01*
G01*
G37*
G36*
G01*
X133345000Y-132361250D02*
X133345000Y-131798750D01*
G75*
G02*
X133588750Y-131555000I243750J0D01*
G01*
X134076250Y-131555000D01*
G75*
G02*
X134320000Y-131798750I0J-243750D01*
G01*
X134320000Y-132361250D01*
G75*
G02*
X134076250Y-132605000I-243750J0D01*
G01*
X133588750Y-132605000D01*
G75*
G02*
X133345000Y-132361250I0J243750D01*
G01*
G37*
G36*
G01*
X148290000Y-141958750D02*
X148290000Y-142521250D01*
G75*
G02*
X148046250Y-142765000I-243750J0D01*
G01*
X147558750Y-142765000D01*
G75*
G02*
X147315000Y-142521250I0J243750D01*
G01*
X147315000Y-141958750D01*
G75*
G02*
X147558750Y-141715000I243750J0D01*
G01*
X148046250Y-141715000D01*
G75*
G02*
X148290000Y-141958750I0J-243750D01*
G01*
G37*
G36*
G01*
X149865000Y-141958750D02*
X149865000Y-142521250D01*
G75*
G02*
X149621250Y-142765000I-243750J0D01*
G01*
X149133750Y-142765000D01*
G75*
G02*
X148890000Y-142521250I0J243750D01*
G01*
X148890000Y-141958750D01*
G75*
G02*
X149133750Y-141715000I243750J0D01*
G01*
X149621250Y-141715000D01*
G75*
G02*
X149865000Y-141958750I0J-243750D01*
G01*
G37*
G36*
G01*
X148890000Y-137441250D02*
X148890000Y-136878750D01*
G75*
G02*
X149133750Y-136635000I243750J0D01*
G01*
X149621250Y-136635000D01*
G75*
G02*
X149865000Y-136878750I0J-243750D01*
G01*
X149865000Y-137441250D01*
G75*
G02*
X149621250Y-137685000I-243750J0D01*
G01*
X149133750Y-137685000D01*
G75*
G02*
X148890000Y-137441250I0J243750D01*
G01*
G37*
G36*
G01*
X147315000Y-137441250D02*
X147315000Y-136878750D01*
G75*
G02*
X147558750Y-136635000I243750J0D01*
G01*
X148046250Y-136635000D01*
G75*
G02*
X148290000Y-136878750I0J-243750D01*
G01*
X148290000Y-137441250D01*
G75*
G02*
X148046250Y-137685000I-243750J0D01*
G01*
X147558750Y-137685000D01*
G75*
G02*
X147315000Y-137441250I0J243750D01*
G01*
G37*
G36*
G01*
X148890000Y-133631250D02*
X148890000Y-133068750D01*
G75*
G02*
X149133750Y-132825000I243750J0D01*
G01*
X149621250Y-132825000D01*
G75*
G02*
X149865000Y-133068750I0J-243750D01*
G01*
X149865000Y-133631250D01*
G75*
G02*
X149621250Y-133875000I-243750J0D01*
G01*
X149133750Y-133875000D01*
G75*
G02*
X148890000Y-133631250I0J243750D01*
G01*
G37*
G36*
G01*
X147315000Y-133631250D02*
X147315000Y-133068750D01*
G75*
G02*
X147558750Y-132825000I243750J0D01*
G01*
X148046250Y-132825000D01*
G75*
G02*
X148290000Y-133068750I0J-243750D01*
G01*
X148290000Y-133631250D01*
G75*
G02*
X148046250Y-133875000I-243750J0D01*
G01*
X147558750Y-133875000D01*
G75*
G02*
X147315000Y-133631250I0J243750D01*
G01*
G37*
G36*
G01*
X106980000Y-117121250D02*
X106980000Y-116558750D01*
G75*
G02*
X107223750Y-116315000I243750J0D01*
G01*
X107711250Y-116315000D01*
G75*
G02*
X107955000Y-116558750I0J-243750D01*
G01*
X107955000Y-117121250D01*
G75*
G02*
X107711250Y-117365000I-243750J0D01*
G01*
X107223750Y-117365000D01*
G75*
G02*
X106980000Y-117121250I0J243750D01*
G01*
G37*
G36*
G01*
X105405000Y-117121250D02*
X105405000Y-116558750D01*
G75*
G02*
X105648750Y-116315000I243750J0D01*
G01*
X106136250Y-116315000D01*
G75*
G02*
X106380000Y-116558750I0J-243750D01*
G01*
X106380000Y-117121250D01*
G75*
G02*
X106136250Y-117365000I-243750J0D01*
G01*
X105648750Y-117365000D01*
G75*
G02*
X105405000Y-117121250I0J243750D01*
G01*
G37*
G36*
G01*
X93010000Y-126011250D02*
X93010000Y-125448750D01*
G75*
G02*
X93253750Y-125205000I243750J0D01*
G01*
X93741250Y-125205000D01*
G75*
G02*
X93985000Y-125448750I0J-243750D01*
G01*
X93985000Y-126011250D01*
G75*
G02*
X93741250Y-126255000I-243750J0D01*
G01*
X93253750Y-126255000D01*
G75*
G02*
X93010000Y-126011250I0J243750D01*
G01*
G37*
G36*
G01*
X91435000Y-126011250D02*
X91435000Y-125448750D01*
G75*
G02*
X91678750Y-125205000I243750J0D01*
G01*
X92166250Y-125205000D01*
G75*
G02*
X92410000Y-125448750I0J-243750D01*
G01*
X92410000Y-126011250D01*
G75*
G02*
X92166250Y-126255000I-243750J0D01*
G01*
X91678750Y-126255000D01*
G75*
G02*
X91435000Y-126011250I0J243750D01*
G01*
G37*
G36*
G01*
X70150000Y-92991250D02*
X70150000Y-92428750D01*
G75*
G02*
X70393750Y-92185000I243750J0D01*
G01*
X70881250Y-92185000D01*
G75*
G02*
X71125000Y-92428750I0J-243750D01*
G01*
X71125000Y-92991250D01*
G75*
G02*
X70881250Y-93235000I-243750J0D01*
G01*
X70393750Y-93235000D01*
G75*
G02*
X70150000Y-92991250I0J243750D01*
G01*
G37*
G36*
G01*
X68575000Y-92991250D02*
X68575000Y-92428750D01*
G75*
G02*
X68818750Y-92185000I243750J0D01*
G01*
X69306250Y-92185000D01*
G75*
G02*
X69550000Y-92428750I0J-243750D01*
G01*
X69550000Y-92991250D01*
G75*
G02*
X69306250Y-93235000I-243750J0D01*
G01*
X68818750Y-93235000D01*
G75*
G02*
X68575000Y-92991250I0J243750D01*
G01*
G37*
G36*
G01*
X75900000Y-92428750D02*
X75900000Y-92991250D01*
G75*
G02*
X75656250Y-93235000I-243750J0D01*
G01*
X75168750Y-93235000D01*
G75*
G02*
X74925000Y-92991250I0J243750D01*
G01*
X74925000Y-92428750D01*
G75*
G02*
X75168750Y-92185000I243750J0D01*
G01*
X75656250Y-92185000D01*
G75*
G02*
X75900000Y-92428750I0J-243750D01*
G01*
G37*
G36*
G01*
X77475000Y-92428750D02*
X77475000Y-92991250D01*
G75*
G02*
X77231250Y-93235000I-243750J0D01*
G01*
X76743750Y-93235000D01*
G75*
G02*
X76500000Y-92991250I0J243750D01*
G01*
X76500000Y-92428750D01*
G75*
G02*
X76743750Y-92185000I243750J0D01*
G01*
X77231250Y-92185000D01*
G75*
G02*
X77475000Y-92428750I0J-243750D01*
G01*
G37*
G36*
G01*
X96820000Y-126011250D02*
X96820000Y-125448750D01*
G75*
G02*
X97063750Y-125205000I243750J0D01*
G01*
X97551250Y-125205000D01*
G75*
G02*
X97795000Y-125448750I0J-243750D01*
G01*
X97795000Y-126011250D01*
G75*
G02*
X97551250Y-126255000I-243750J0D01*
G01*
X97063750Y-126255000D01*
G75*
G02*
X96820000Y-126011250I0J243750D01*
G01*
G37*
G36*
G01*
X95245000Y-126011250D02*
X95245000Y-125448750D01*
G75*
G02*
X95488750Y-125205000I243750J0D01*
G01*
X95976250Y-125205000D01*
G75*
G02*
X96220000Y-125448750I0J-243750D01*
G01*
X96220000Y-126011250D01*
G75*
G02*
X95976250Y-126255000I-243750J0D01*
G01*
X95488750Y-126255000D01*
G75*
G02*
X95245000Y-126011250I0J243750D01*
G01*
G37*
G36*
G01*
X106380000Y-125448750D02*
X106380000Y-126011250D01*
G75*
G02*
X106136250Y-126255000I-243750J0D01*
G01*
X105648750Y-126255000D01*
G75*
G02*
X105405000Y-126011250I0J243750D01*
G01*
X105405000Y-125448750D01*
G75*
G02*
X105648750Y-125205000I243750J0D01*
G01*
X106136250Y-125205000D01*
G75*
G02*
X106380000Y-125448750I0J-243750D01*
G01*
G37*
G36*
G01*
X107955000Y-125448750D02*
X107955000Y-126011250D01*
G75*
G02*
X107711250Y-126255000I-243750J0D01*
G01*
X107223750Y-126255000D01*
G75*
G02*
X106980000Y-126011250I0J243750D01*
G01*
X106980000Y-125448750D01*
G75*
G02*
X107223750Y-125205000I243750J0D01*
G01*
X107711250Y-125205000D01*
G75*
G02*
X107955000Y-125448750I0J-243750D01*
G01*
G37*
G36*
G01*
X76500000Y-98071250D02*
X76500000Y-97508750D01*
G75*
G02*
X76743750Y-97265000I243750J0D01*
G01*
X77231250Y-97265000D01*
G75*
G02*
X77475000Y-97508750I0J-243750D01*
G01*
X77475000Y-98071250D01*
G75*
G02*
X77231250Y-98315000I-243750J0D01*
G01*
X76743750Y-98315000D01*
G75*
G02*
X76500000Y-98071250I0J243750D01*
G01*
G37*
G36*
G01*
X74925000Y-98071250D02*
X74925000Y-97508750D01*
G75*
G02*
X75168750Y-97265000I243750J0D01*
G01*
X75656250Y-97265000D01*
G75*
G02*
X75900000Y-97508750I0J-243750D01*
G01*
X75900000Y-98071250D01*
G75*
G02*
X75656250Y-98315000I-243750J0D01*
G01*
X75168750Y-98315000D01*
G75*
G02*
X74925000Y-98071250I0J243750D01*
G01*
G37*
G36*
G01*
X87930000Y-84101250D02*
X87930000Y-83538750D01*
G75*
G02*
X88173750Y-83295000I243750J0D01*
G01*
X88661250Y-83295000D01*
G75*
G02*
X88905000Y-83538750I0J-243750D01*
G01*
X88905000Y-84101250D01*
G75*
G02*
X88661250Y-84345000I-243750J0D01*
G01*
X88173750Y-84345000D01*
G75*
G02*
X87930000Y-84101250I0J243750D01*
G01*
G37*
G36*
G01*
X86355000Y-84101250D02*
X86355000Y-83538750D01*
G75*
G02*
X86598750Y-83295000I243750J0D01*
G01*
X87086250Y-83295000D01*
G75*
G02*
X87330000Y-83538750I0J-243750D01*
G01*
X87330000Y-84101250D01*
G75*
G02*
X87086250Y-84345000I-243750J0D01*
G01*
X86598750Y-84345000D01*
G75*
G02*
X86355000Y-84101250I0J243750D01*
G01*
G37*
G36*
G01*
X76500000Y-101881250D02*
X76500000Y-101318750D01*
G75*
G02*
X76743750Y-101075000I243750J0D01*
G01*
X77231250Y-101075000D01*
G75*
G02*
X77475000Y-101318750I0J-243750D01*
G01*
X77475000Y-101881250D01*
G75*
G02*
X77231250Y-102125000I-243750J0D01*
G01*
X76743750Y-102125000D01*
G75*
G02*
X76500000Y-101881250I0J243750D01*
G01*
G37*
G36*
G01*
X74925000Y-101881250D02*
X74925000Y-101318750D01*
G75*
G02*
X75168750Y-101075000I243750J0D01*
G01*
X75656250Y-101075000D01*
G75*
G02*
X75900000Y-101318750I0J-243750D01*
G01*
X75900000Y-101881250D01*
G75*
G02*
X75656250Y-102125000I-243750J0D01*
G01*
X75168750Y-102125000D01*
G75*
G02*
X74925000Y-101881250I0J243750D01*
G01*
G37*
G36*
G01*
X82850000Y-84101250D02*
X82850000Y-83538750D01*
G75*
G02*
X83093750Y-83295000I243750J0D01*
G01*
X83581250Y-83295000D01*
G75*
G02*
X83825000Y-83538750I0J-243750D01*
G01*
X83825000Y-84101250D01*
G75*
G02*
X83581250Y-84345000I-243750J0D01*
G01*
X83093750Y-84345000D01*
G75*
G02*
X82850000Y-84101250I0J243750D01*
G01*
G37*
G36*
G01*
X81275000Y-84101250D02*
X81275000Y-83538750D01*
G75*
G02*
X81518750Y-83295000I243750J0D01*
G01*
X82006250Y-83295000D01*
G75*
G02*
X82250000Y-83538750I0J-243750D01*
G01*
X82250000Y-84101250D01*
G75*
G02*
X82006250Y-84345000I-243750J0D01*
G01*
X81518750Y-84345000D01*
G75*
G02*
X81275000Y-84101250I0J243750D01*
G01*
G37*
G36*
G01*
X82367500Y-76481250D02*
X82367500Y-75918750D01*
G75*
G02*
X82611250Y-75675000I243750J0D01*
G01*
X83098750Y-75675000D01*
G75*
G02*
X83342500Y-75918750I0J-243750D01*
G01*
X83342500Y-76481250D01*
G75*
G02*
X83098750Y-76725000I-243750J0D01*
G01*
X82611250Y-76725000D01*
G75*
G02*
X82367500Y-76481250I0J243750D01*
G01*
G37*
G36*
G01*
X80792500Y-76481250D02*
X80792500Y-75918750D01*
G75*
G02*
X81036250Y-75675000I243750J0D01*
G01*
X81523750Y-75675000D01*
G75*
G02*
X81767500Y-75918750I0J-243750D01*
G01*
X81767500Y-76481250D01*
G75*
G02*
X81523750Y-76725000I-243750J0D01*
G01*
X81036250Y-76725000D01*
G75*
G02*
X80792500Y-76481250I0J243750D01*
G01*
G37*
G36*
G01*
X87930000Y-76481250D02*
X87930000Y-75918750D01*
G75*
G02*
X88173750Y-75675000I243750J0D01*
G01*
X88661250Y-75675000D01*
G75*
G02*
X88905000Y-75918750I0J-243750D01*
G01*
X88905000Y-76481250D01*
G75*
G02*
X88661250Y-76725000I-243750J0D01*
G01*
X88173750Y-76725000D01*
G75*
G02*
X87930000Y-76481250I0J243750D01*
G01*
G37*
G36*
G01*
X86355000Y-76481250D02*
X86355000Y-75918750D01*
G75*
G02*
X86598750Y-75675000I243750J0D01*
G01*
X87086250Y-75675000D01*
G75*
G02*
X87330000Y-75918750I0J-243750D01*
G01*
X87330000Y-76481250D01*
G75*
G02*
X87086250Y-76725000I-243750J0D01*
G01*
X86598750Y-76725000D01*
G75*
G02*
X86355000Y-76481250I0J243750D01*
G01*
G37*
G36*
G01*
X101900000Y-129821250D02*
X101900000Y-129258750D01*
G75*
G02*
X102143750Y-129015000I243750J0D01*
G01*
X102631250Y-129015000D01*
G75*
G02*
X102875000Y-129258750I0J-243750D01*
G01*
X102875000Y-129821250D01*
G75*
G02*
X102631250Y-130065000I-243750J0D01*
G01*
X102143750Y-130065000D01*
G75*
G02*
X101900000Y-129821250I0J243750D01*
G01*
G37*
G36*
G01*
X100325000Y-129821250D02*
X100325000Y-129258750D01*
G75*
G02*
X100568750Y-129015000I243750J0D01*
G01*
X101056250Y-129015000D01*
G75*
G02*
X101300000Y-129258750I0J-243750D01*
G01*
X101300000Y-129821250D01*
G75*
G02*
X101056250Y-130065000I-243750J0D01*
G01*
X100568750Y-130065000D01*
G75*
G02*
X100325000Y-129821250I0J243750D01*
G01*
G37*
G36*
G01*
X82850000Y-63781250D02*
X82850000Y-63218750D01*
G75*
G02*
X83093750Y-62975000I243750J0D01*
G01*
X83581250Y-62975000D01*
G75*
G02*
X83825000Y-63218750I0J-243750D01*
G01*
X83825000Y-63781250D01*
G75*
G02*
X83581250Y-64025000I-243750J0D01*
G01*
X83093750Y-64025000D01*
G75*
G02*
X82850000Y-63781250I0J243750D01*
G01*
G37*
G36*
G01*
X81275000Y-63781250D02*
X81275000Y-63218750D01*
G75*
G02*
X81518750Y-62975000I243750J0D01*
G01*
X82006250Y-62975000D01*
G75*
G02*
X82250000Y-63218750I0J-243750D01*
G01*
X82250000Y-63781250D01*
G75*
G02*
X82006250Y-64025000I-243750J0D01*
G01*
X81518750Y-64025000D01*
G75*
G02*
X81275000Y-63781250I0J243750D01*
G01*
G37*
G36*
G01*
X80310000Y-48541250D02*
X80310000Y-47978750D01*
G75*
G02*
X80553750Y-47735000I243750J0D01*
G01*
X81041250Y-47735000D01*
G75*
G02*
X81285000Y-47978750I0J-243750D01*
G01*
X81285000Y-48541250D01*
G75*
G02*
X81041250Y-48785000I-243750J0D01*
G01*
X80553750Y-48785000D01*
G75*
G02*
X80310000Y-48541250I0J243750D01*
G01*
G37*
G36*
G01*
X78735000Y-48541250D02*
X78735000Y-47978750D01*
G75*
G02*
X78978750Y-47735000I243750J0D01*
G01*
X79466250Y-47735000D01*
G75*
G02*
X79710000Y-47978750I0J-243750D01*
G01*
X79710000Y-48541250D01*
G75*
G02*
X79466250Y-48785000I-243750J0D01*
G01*
X78978750Y-48785000D01*
G75*
G02*
X78735000Y-48541250I0J243750D01*
G01*
G37*
G36*
G01*
X92410000Y-140688750D02*
X92410000Y-141251250D01*
G75*
G02*
X92166250Y-141495000I-243750J0D01*
G01*
X91678750Y-141495000D01*
G75*
G02*
X91435000Y-141251250I0J243750D01*
G01*
X91435000Y-140688750D01*
G75*
G02*
X91678750Y-140445000I243750J0D01*
G01*
X92166250Y-140445000D01*
G75*
G02*
X92410000Y-140688750I0J-243750D01*
G01*
G37*
G36*
G01*
X93985000Y-140688750D02*
X93985000Y-141251250D01*
G75*
G02*
X93741250Y-141495000I-243750J0D01*
G01*
X93253750Y-141495000D01*
G75*
G02*
X93010000Y-141251250I0J243750D01*
G01*
X93010000Y-140688750D01*
G75*
G02*
X93253750Y-140445000I243750J0D01*
G01*
X93741250Y-140445000D01*
G75*
G02*
X93985000Y-140688750I0J-243750D01*
G01*
G37*
G36*
G01*
X93010000Y-132361250D02*
X93010000Y-131798750D01*
G75*
G02*
X93253750Y-131555000I243750J0D01*
G01*
X93741250Y-131555000D01*
G75*
G02*
X93985000Y-131798750I0J-243750D01*
G01*
X93985000Y-132361250D01*
G75*
G02*
X93741250Y-132605000I-243750J0D01*
G01*
X93253750Y-132605000D01*
G75*
G02*
X93010000Y-132361250I0J243750D01*
G01*
G37*
G36*
G01*
X91435000Y-132361250D02*
X91435000Y-131798750D01*
G75*
G02*
X91678750Y-131555000I243750J0D01*
G01*
X92166250Y-131555000D01*
G75*
G02*
X92410000Y-131798750I0J-243750D01*
G01*
X92410000Y-132361250D01*
G75*
G02*
X92166250Y-132605000I-243750J0D01*
G01*
X91678750Y-132605000D01*
G75*
G02*
X91435000Y-132361250I0J243750D01*
G01*
G37*
G36*
G01*
X105110000Y-140688750D02*
X105110000Y-141251250D01*
G75*
G02*
X104866250Y-141495000I-243750J0D01*
G01*
X104378750Y-141495000D01*
G75*
G02*
X104135000Y-141251250I0J243750D01*
G01*
X104135000Y-140688750D01*
G75*
G02*
X104378750Y-140445000I243750J0D01*
G01*
X104866250Y-140445000D01*
G75*
G02*
X105110000Y-140688750I0J-243750D01*
G01*
G37*
G36*
G01*
X106685000Y-140688750D02*
X106685000Y-141251250D01*
G75*
G02*
X106441250Y-141495000I-243750J0D01*
G01*
X105953750Y-141495000D01*
G75*
G02*
X105710000Y-141251250I0J243750D01*
G01*
X105710000Y-140688750D01*
G75*
G02*
X105953750Y-140445000I243750J0D01*
G01*
X106441250Y-140445000D01*
G75*
G02*
X106685000Y-140688750I0J-243750D01*
G01*
G37*
G36*
G01*
X105710000Y-137441250D02*
X105710000Y-136878750D01*
G75*
G02*
X105953750Y-136635000I243750J0D01*
G01*
X106441250Y-136635000D01*
G75*
G02*
X106685000Y-136878750I0J-243750D01*
G01*
X106685000Y-137441250D01*
G75*
G02*
X106441250Y-137685000I-243750J0D01*
G01*
X105953750Y-137685000D01*
G75*
G02*
X105710000Y-137441250I0J243750D01*
G01*
G37*
G36*
G01*
X104135000Y-137441250D02*
X104135000Y-136878750D01*
G75*
G02*
X104378750Y-136635000I243750J0D01*
G01*
X104866250Y-136635000D01*
G75*
G02*
X105110000Y-136878750I0J-243750D01*
G01*
X105110000Y-137441250D01*
G75*
G02*
X104866250Y-137685000I-243750J0D01*
G01*
X104378750Y-137685000D01*
G75*
G02*
X104135000Y-137441250I0J243750D01*
G01*
G37*
G36*
G01*
X105710000Y-133631250D02*
X105710000Y-133068750D01*
G75*
G02*
X105953750Y-132825000I243750J0D01*
G01*
X106441250Y-132825000D01*
G75*
G02*
X106685000Y-133068750I0J-243750D01*
G01*
X106685000Y-133631250D01*
G75*
G02*
X106441250Y-133875000I-243750J0D01*
G01*
X105953750Y-133875000D01*
G75*
G02*
X105710000Y-133631250I0J243750D01*
G01*
G37*
G36*
G01*
X104135000Y-133631250D02*
X104135000Y-133068750D01*
G75*
G02*
X104378750Y-132825000I243750J0D01*
G01*
X104866250Y-132825000D01*
G75*
G02*
X105110000Y-133068750I0J-243750D01*
G01*
X105110000Y-133631250D01*
G75*
G02*
X104866250Y-133875000I-243750J0D01*
G01*
X104378750Y-133875000D01*
G75*
G02*
X104135000Y-133631250I0J243750D01*
G01*
G37*
D19*
X72390000Y-129540000D03*
X69850000Y-129540000D03*
X72390000Y-132080000D03*
X69850000Y-132080000D03*
X72390000Y-134620000D03*
X69850000Y-134620000D03*
X72390000Y-137160000D03*
X69850000Y-137160000D03*
X72390000Y-139700000D03*
D20*
X69850000Y-139700000D03*
G36*
G01*
X198300000Y-121460000D02*
X198300000Y-121110000D01*
G75*
G02*
X198475000Y-120935000I175000J0D01*
G01*
X200175000Y-120935000D01*
G75*
G02*
X200350000Y-121110000I0J-175000D01*
G01*
X200350000Y-121460000D01*
G75*
G02*
X200175000Y-121635000I-175000J0D01*
G01*
X198475000Y-121635000D01*
G75*
G02*
X198300000Y-121460000I0J175000D01*
G01*
G37*
G36*
G01*
X198300000Y-120190000D02*
X198300000Y-119840000D01*
G75*
G02*
X198475000Y-119665000I175000J0D01*
G01*
X200175000Y-119665000D01*
G75*
G02*
X200350000Y-119840000I0J-175000D01*
G01*
X200350000Y-120190000D01*
G75*
G02*
X200175000Y-120365000I-175000J0D01*
G01*
X198475000Y-120365000D01*
G75*
G02*
X198300000Y-120190000I0J175000D01*
G01*
G37*
G36*
G01*
X198300000Y-118920000D02*
X198300000Y-118570000D01*
G75*
G02*
X198475000Y-118395000I175000J0D01*
G01*
X200175000Y-118395000D01*
G75*
G02*
X200350000Y-118570000I0J-175000D01*
G01*
X200350000Y-118920000D01*
G75*
G02*
X200175000Y-119095000I-175000J0D01*
G01*
X198475000Y-119095000D01*
G75*
G02*
X198300000Y-118920000I0J175000D01*
G01*
G37*
G36*
G01*
X198300000Y-117650000D02*
X198300000Y-117300000D01*
G75*
G02*
X198475000Y-117125000I175000J0D01*
G01*
X200175000Y-117125000D01*
G75*
G02*
X200350000Y-117300000I0J-175000D01*
G01*
X200350000Y-117650000D01*
G75*
G02*
X200175000Y-117825000I-175000J0D01*
G01*
X198475000Y-117825000D01*
G75*
G02*
X198300000Y-117650000I0J175000D01*
G01*
G37*
G36*
G01*
X193350000Y-117650000D02*
X193350000Y-117300000D01*
G75*
G02*
X193525000Y-117125000I175000J0D01*
G01*
X195225000Y-117125000D01*
G75*
G02*
X195400000Y-117300000I0J-175000D01*
G01*
X195400000Y-117650000D01*
G75*
G02*
X195225000Y-117825000I-175000J0D01*
G01*
X193525000Y-117825000D01*
G75*
G02*
X193350000Y-117650000I0J175000D01*
G01*
G37*
G36*
G01*
X193350000Y-118920000D02*
X193350000Y-118570000D01*
G75*
G02*
X193525000Y-118395000I175000J0D01*
G01*
X195225000Y-118395000D01*
G75*
G02*
X195400000Y-118570000I0J-175000D01*
G01*
X195400000Y-118920000D01*
G75*
G02*
X195225000Y-119095000I-175000J0D01*
G01*
X193525000Y-119095000D01*
G75*
G02*
X193350000Y-118920000I0J175000D01*
G01*
G37*
G36*
G01*
X193350000Y-120190000D02*
X193350000Y-119840000D01*
G75*
G02*
X193525000Y-119665000I175000J0D01*
G01*
X195225000Y-119665000D01*
G75*
G02*
X195400000Y-119840000I0J-175000D01*
G01*
X195400000Y-120190000D01*
G75*
G02*
X195225000Y-120365000I-175000J0D01*
G01*
X193525000Y-120365000D01*
G75*
G02*
X193350000Y-120190000I0J175000D01*
G01*
G37*
G36*
G01*
X193350000Y-121460000D02*
X193350000Y-121110000D01*
G75*
G02*
X193525000Y-120935000I175000J0D01*
G01*
X195225000Y-120935000D01*
G75*
G02*
X195400000Y-121110000I0J-175000D01*
G01*
X195400000Y-121460000D01*
G75*
G02*
X195225000Y-121635000I-175000J0D01*
G01*
X193525000Y-121635000D01*
G75*
G02*
X193350000Y-121460000I0J175000D01*
G01*
G37*
G36*
G01*
X223700000Y-136700000D02*
X223700000Y-136350000D01*
G75*
G02*
X223875000Y-136175000I175000J0D01*
G01*
X225575000Y-136175000D01*
G75*
G02*
X225750000Y-136350000I0J-175000D01*
G01*
X225750000Y-136700000D01*
G75*
G02*
X225575000Y-136875000I-175000J0D01*
G01*
X223875000Y-136875000D01*
G75*
G02*
X223700000Y-136700000I0J175000D01*
G01*
G37*
G36*
G01*
X223700000Y-135430000D02*
X223700000Y-135080000D01*
G75*
G02*
X223875000Y-134905000I175000J0D01*
G01*
X225575000Y-134905000D01*
G75*
G02*
X225750000Y-135080000I0J-175000D01*
G01*
X225750000Y-135430000D01*
G75*
G02*
X225575000Y-135605000I-175000J0D01*
G01*
X223875000Y-135605000D01*
G75*
G02*
X223700000Y-135430000I0J175000D01*
G01*
G37*
G36*
G01*
X223700000Y-134160000D02*
X223700000Y-133810000D01*
G75*
G02*
X223875000Y-133635000I175000J0D01*
G01*
X225575000Y-133635000D01*
G75*
G02*
X225750000Y-133810000I0J-175000D01*
G01*
X225750000Y-134160000D01*
G75*
G02*
X225575000Y-134335000I-175000J0D01*
G01*
X223875000Y-134335000D01*
G75*
G02*
X223700000Y-134160000I0J175000D01*
G01*
G37*
G36*
G01*
X223700000Y-132890000D02*
X223700000Y-132540000D01*
G75*
G02*
X223875000Y-132365000I175000J0D01*
G01*
X225575000Y-132365000D01*
G75*
G02*
X225750000Y-132540000I0J-175000D01*
G01*
X225750000Y-132890000D01*
G75*
G02*
X225575000Y-133065000I-175000J0D01*
G01*
X223875000Y-133065000D01*
G75*
G02*
X223700000Y-132890000I0J175000D01*
G01*
G37*
G36*
G01*
X218750000Y-132890000D02*
X218750000Y-132540000D01*
G75*
G02*
X218925000Y-132365000I175000J0D01*
G01*
X220625000Y-132365000D01*
G75*
G02*
X220800000Y-132540000I0J-175000D01*
G01*
X220800000Y-132890000D01*
G75*
G02*
X220625000Y-133065000I-175000J0D01*
G01*
X218925000Y-133065000D01*
G75*
G02*
X218750000Y-132890000I0J175000D01*
G01*
G37*
G36*
G01*
X218750000Y-134160000D02*
X218750000Y-133810000D01*
G75*
G02*
X218925000Y-133635000I175000J0D01*
G01*
X220625000Y-133635000D01*
G75*
G02*
X220800000Y-133810000I0J-175000D01*
G01*
X220800000Y-134160000D01*
G75*
G02*
X220625000Y-134335000I-175000J0D01*
G01*
X218925000Y-134335000D01*
G75*
G02*
X218750000Y-134160000I0J175000D01*
G01*
G37*
G36*
G01*
X218750000Y-135430000D02*
X218750000Y-135080000D01*
G75*
G02*
X218925000Y-134905000I175000J0D01*
G01*
X220625000Y-134905000D01*
G75*
G02*
X220800000Y-135080000I0J-175000D01*
G01*
X220800000Y-135430000D01*
G75*
G02*
X220625000Y-135605000I-175000J0D01*
G01*
X218925000Y-135605000D01*
G75*
G02*
X218750000Y-135430000I0J175000D01*
G01*
G37*
G36*
G01*
X218750000Y-136700000D02*
X218750000Y-136350000D01*
G75*
G02*
X218925000Y-136175000I175000J0D01*
G01*
X220625000Y-136175000D01*
G75*
G02*
X220800000Y-136350000I0J-175000D01*
G01*
X220800000Y-136700000D01*
G75*
G02*
X220625000Y-136875000I-175000J0D01*
G01*
X218925000Y-136875000D01*
G75*
G02*
X218750000Y-136700000I0J175000D01*
G01*
G37*
G36*
G01*
X184330000Y-121460000D02*
X184330000Y-121110000D01*
G75*
G02*
X184505000Y-120935000I175000J0D01*
G01*
X186205000Y-120935000D01*
G75*
G02*
X186380000Y-121110000I0J-175000D01*
G01*
X186380000Y-121460000D01*
G75*
G02*
X186205000Y-121635000I-175000J0D01*
G01*
X184505000Y-121635000D01*
G75*
G02*
X184330000Y-121460000I0J175000D01*
G01*
G37*
G36*
G01*
X184330000Y-120190000D02*
X184330000Y-119840000D01*
G75*
G02*
X184505000Y-119665000I175000J0D01*
G01*
X186205000Y-119665000D01*
G75*
G02*
X186380000Y-119840000I0J-175000D01*
G01*
X186380000Y-120190000D01*
G75*
G02*
X186205000Y-120365000I-175000J0D01*
G01*
X184505000Y-120365000D01*
G75*
G02*
X184330000Y-120190000I0J175000D01*
G01*
G37*
G36*
G01*
X184330000Y-118920000D02*
X184330000Y-118570000D01*
G75*
G02*
X184505000Y-118395000I175000J0D01*
G01*
X186205000Y-118395000D01*
G75*
G02*
X186380000Y-118570000I0J-175000D01*
G01*
X186380000Y-118920000D01*
G75*
G02*
X186205000Y-119095000I-175000J0D01*
G01*
X184505000Y-119095000D01*
G75*
G02*
X184330000Y-118920000I0J175000D01*
G01*
G37*
G36*
G01*
X184330000Y-117650000D02*
X184330000Y-117300000D01*
G75*
G02*
X184505000Y-117125000I175000J0D01*
G01*
X186205000Y-117125000D01*
G75*
G02*
X186380000Y-117300000I0J-175000D01*
G01*
X186380000Y-117650000D01*
G75*
G02*
X186205000Y-117825000I-175000J0D01*
G01*
X184505000Y-117825000D01*
G75*
G02*
X184330000Y-117650000I0J175000D01*
G01*
G37*
G36*
G01*
X179380000Y-117650000D02*
X179380000Y-117300000D01*
G75*
G02*
X179555000Y-117125000I175000J0D01*
G01*
X181255000Y-117125000D01*
G75*
G02*
X181430000Y-117300000I0J-175000D01*
G01*
X181430000Y-117650000D01*
G75*
G02*
X181255000Y-117825000I-175000J0D01*
G01*
X179555000Y-117825000D01*
G75*
G02*
X179380000Y-117650000I0J175000D01*
G01*
G37*
G36*
G01*
X179380000Y-118920000D02*
X179380000Y-118570000D01*
G75*
G02*
X179555000Y-118395000I175000J0D01*
G01*
X181255000Y-118395000D01*
G75*
G02*
X181430000Y-118570000I0J-175000D01*
G01*
X181430000Y-118920000D01*
G75*
G02*
X181255000Y-119095000I-175000J0D01*
G01*
X179555000Y-119095000D01*
G75*
G02*
X179380000Y-118920000I0J175000D01*
G01*
G37*
G36*
G01*
X179380000Y-120190000D02*
X179380000Y-119840000D01*
G75*
G02*
X179555000Y-119665000I175000J0D01*
G01*
X181255000Y-119665000D01*
G75*
G02*
X181430000Y-119840000I0J-175000D01*
G01*
X181430000Y-120190000D01*
G75*
G02*
X181255000Y-120365000I-175000J0D01*
G01*
X179555000Y-120365000D01*
G75*
G02*
X179380000Y-120190000I0J175000D01*
G01*
G37*
G36*
G01*
X179380000Y-121460000D02*
X179380000Y-121110000D01*
G75*
G02*
X179555000Y-120935000I175000J0D01*
G01*
X181255000Y-120935000D01*
G75*
G02*
X181430000Y-121110000I0J-175000D01*
G01*
X181430000Y-121460000D01*
G75*
G02*
X181255000Y-121635000I-175000J0D01*
G01*
X179555000Y-121635000D01*
G75*
G02*
X179380000Y-121460000I0J175000D01*
G01*
G37*
G36*
G01*
X184330000Y-139240000D02*
X184330000Y-138890000D01*
G75*
G02*
X184505000Y-138715000I175000J0D01*
G01*
X186205000Y-138715000D01*
G75*
G02*
X186380000Y-138890000I0J-175000D01*
G01*
X186380000Y-139240000D01*
G75*
G02*
X186205000Y-139415000I-175000J0D01*
G01*
X184505000Y-139415000D01*
G75*
G02*
X184330000Y-139240000I0J175000D01*
G01*
G37*
G36*
G01*
X184330000Y-137970000D02*
X184330000Y-137620000D01*
G75*
G02*
X184505000Y-137445000I175000J0D01*
G01*
X186205000Y-137445000D01*
G75*
G02*
X186380000Y-137620000I0J-175000D01*
G01*
X186380000Y-137970000D01*
G75*
G02*
X186205000Y-138145000I-175000J0D01*
G01*
X184505000Y-138145000D01*
G75*
G02*
X184330000Y-137970000I0J175000D01*
G01*
G37*
G36*
G01*
X184330000Y-136700000D02*
X184330000Y-136350000D01*
G75*
G02*
X184505000Y-136175000I175000J0D01*
G01*
X186205000Y-136175000D01*
G75*
G02*
X186380000Y-136350000I0J-175000D01*
G01*
X186380000Y-136700000D01*
G75*
G02*
X186205000Y-136875000I-175000J0D01*
G01*
X184505000Y-136875000D01*
G75*
G02*
X184330000Y-136700000I0J175000D01*
G01*
G37*
G36*
G01*
X184330000Y-135430000D02*
X184330000Y-135080000D01*
G75*
G02*
X184505000Y-134905000I175000J0D01*
G01*
X186205000Y-134905000D01*
G75*
G02*
X186380000Y-135080000I0J-175000D01*
G01*
X186380000Y-135430000D01*
G75*
G02*
X186205000Y-135605000I-175000J0D01*
G01*
X184505000Y-135605000D01*
G75*
G02*
X184330000Y-135430000I0J175000D01*
G01*
G37*
G36*
G01*
X179380000Y-135430000D02*
X179380000Y-135080000D01*
G75*
G02*
X179555000Y-134905000I175000J0D01*
G01*
X181255000Y-134905000D01*
G75*
G02*
X181430000Y-135080000I0J-175000D01*
G01*
X181430000Y-135430000D01*
G75*
G02*
X181255000Y-135605000I-175000J0D01*
G01*
X179555000Y-135605000D01*
G75*
G02*
X179380000Y-135430000I0J175000D01*
G01*
G37*
G36*
G01*
X179380000Y-136700000D02*
X179380000Y-136350000D01*
G75*
G02*
X179555000Y-136175000I175000J0D01*
G01*
X181255000Y-136175000D01*
G75*
G02*
X181430000Y-136350000I0J-175000D01*
G01*
X181430000Y-136700000D01*
G75*
G02*
X181255000Y-136875000I-175000J0D01*
G01*
X179555000Y-136875000D01*
G75*
G02*
X179380000Y-136700000I0J175000D01*
G01*
G37*
G36*
G01*
X179380000Y-137970000D02*
X179380000Y-137620000D01*
G75*
G02*
X179555000Y-137445000I175000J0D01*
G01*
X181255000Y-137445000D01*
G75*
G02*
X181430000Y-137620000I0J-175000D01*
G01*
X181430000Y-137970000D01*
G75*
G02*
X181255000Y-138145000I-175000J0D01*
G01*
X179555000Y-138145000D01*
G75*
G02*
X179380000Y-137970000I0J175000D01*
G01*
G37*
G36*
G01*
X179380000Y-139240000D02*
X179380000Y-138890000D01*
G75*
G02*
X179555000Y-138715000I175000J0D01*
G01*
X181255000Y-138715000D01*
G75*
G02*
X181430000Y-138890000I0J-175000D01*
G01*
X181430000Y-139240000D01*
G75*
G02*
X181255000Y-139415000I-175000J0D01*
G01*
X179555000Y-139415000D01*
G75*
G02*
X179380000Y-139240000I0J175000D01*
G01*
G37*
G36*
G01*
X142420000Y-122730000D02*
X142420000Y-122380000D01*
G75*
G02*
X142595000Y-122205000I175000J0D01*
G01*
X144295000Y-122205000D01*
G75*
G02*
X144470000Y-122380000I0J-175000D01*
G01*
X144470000Y-122730000D01*
G75*
G02*
X144295000Y-122905000I-175000J0D01*
G01*
X142595000Y-122905000D01*
G75*
G02*
X142420000Y-122730000I0J175000D01*
G01*
G37*
G36*
G01*
X142420000Y-121460000D02*
X142420000Y-121110000D01*
G75*
G02*
X142595000Y-120935000I175000J0D01*
G01*
X144295000Y-120935000D01*
G75*
G02*
X144470000Y-121110000I0J-175000D01*
G01*
X144470000Y-121460000D01*
G75*
G02*
X144295000Y-121635000I-175000J0D01*
G01*
X142595000Y-121635000D01*
G75*
G02*
X142420000Y-121460000I0J175000D01*
G01*
G37*
G36*
G01*
X142420000Y-120190000D02*
X142420000Y-119840000D01*
G75*
G02*
X142595000Y-119665000I175000J0D01*
G01*
X144295000Y-119665000D01*
G75*
G02*
X144470000Y-119840000I0J-175000D01*
G01*
X144470000Y-120190000D01*
G75*
G02*
X144295000Y-120365000I-175000J0D01*
G01*
X142595000Y-120365000D01*
G75*
G02*
X142420000Y-120190000I0J175000D01*
G01*
G37*
G36*
G01*
X142420000Y-118920000D02*
X142420000Y-118570000D01*
G75*
G02*
X142595000Y-118395000I175000J0D01*
G01*
X144295000Y-118395000D01*
G75*
G02*
X144470000Y-118570000I0J-175000D01*
G01*
X144470000Y-118920000D01*
G75*
G02*
X144295000Y-119095000I-175000J0D01*
G01*
X142595000Y-119095000D01*
G75*
G02*
X142420000Y-118920000I0J175000D01*
G01*
G37*
G36*
G01*
X137470000Y-118920000D02*
X137470000Y-118570000D01*
G75*
G02*
X137645000Y-118395000I175000J0D01*
G01*
X139345000Y-118395000D01*
G75*
G02*
X139520000Y-118570000I0J-175000D01*
G01*
X139520000Y-118920000D01*
G75*
G02*
X139345000Y-119095000I-175000J0D01*
G01*
X137645000Y-119095000D01*
G75*
G02*
X137470000Y-118920000I0J175000D01*
G01*
G37*
G36*
G01*
X137470000Y-120190000D02*
X137470000Y-119840000D01*
G75*
G02*
X137645000Y-119665000I175000J0D01*
G01*
X139345000Y-119665000D01*
G75*
G02*
X139520000Y-119840000I0J-175000D01*
G01*
X139520000Y-120190000D01*
G75*
G02*
X139345000Y-120365000I-175000J0D01*
G01*
X137645000Y-120365000D01*
G75*
G02*
X137470000Y-120190000I0J175000D01*
G01*
G37*
G36*
G01*
X137470000Y-121460000D02*
X137470000Y-121110000D01*
G75*
G02*
X137645000Y-120935000I175000J0D01*
G01*
X139345000Y-120935000D01*
G75*
G02*
X139520000Y-121110000I0J-175000D01*
G01*
X139520000Y-121460000D01*
G75*
G02*
X139345000Y-121635000I-175000J0D01*
G01*
X137645000Y-121635000D01*
G75*
G02*
X137470000Y-121460000I0J175000D01*
G01*
G37*
G36*
G01*
X137470000Y-122730000D02*
X137470000Y-122380000D01*
G75*
G02*
X137645000Y-122205000I175000J0D01*
G01*
X139345000Y-122205000D01*
G75*
G02*
X139520000Y-122380000I0J-175000D01*
G01*
X139520000Y-122730000D01*
G75*
G02*
X139345000Y-122905000I-175000J0D01*
G01*
X137645000Y-122905000D01*
G75*
G02*
X137470000Y-122730000I0J175000D01*
G01*
G37*
G36*
G01*
X142420000Y-139240000D02*
X142420000Y-138890000D01*
G75*
G02*
X142595000Y-138715000I175000J0D01*
G01*
X144295000Y-138715000D01*
G75*
G02*
X144470000Y-138890000I0J-175000D01*
G01*
X144470000Y-139240000D01*
G75*
G02*
X144295000Y-139415000I-175000J0D01*
G01*
X142595000Y-139415000D01*
G75*
G02*
X142420000Y-139240000I0J175000D01*
G01*
G37*
G36*
G01*
X142420000Y-137970000D02*
X142420000Y-137620000D01*
G75*
G02*
X142595000Y-137445000I175000J0D01*
G01*
X144295000Y-137445000D01*
G75*
G02*
X144470000Y-137620000I0J-175000D01*
G01*
X144470000Y-137970000D01*
G75*
G02*
X144295000Y-138145000I-175000J0D01*
G01*
X142595000Y-138145000D01*
G75*
G02*
X142420000Y-137970000I0J175000D01*
G01*
G37*
G36*
G01*
X142420000Y-136700000D02*
X142420000Y-136350000D01*
G75*
G02*
X142595000Y-136175000I175000J0D01*
G01*
X144295000Y-136175000D01*
G75*
G02*
X144470000Y-136350000I0J-175000D01*
G01*
X144470000Y-136700000D01*
G75*
G02*
X144295000Y-136875000I-175000J0D01*
G01*
X142595000Y-136875000D01*
G75*
G02*
X142420000Y-136700000I0J175000D01*
G01*
G37*
G36*
G01*
X142420000Y-135430000D02*
X142420000Y-135080000D01*
G75*
G02*
X142595000Y-134905000I175000J0D01*
G01*
X144295000Y-134905000D01*
G75*
G02*
X144470000Y-135080000I0J-175000D01*
G01*
X144470000Y-135430000D01*
G75*
G02*
X144295000Y-135605000I-175000J0D01*
G01*
X142595000Y-135605000D01*
G75*
G02*
X142420000Y-135430000I0J175000D01*
G01*
G37*
G36*
G01*
X137470000Y-135430000D02*
X137470000Y-135080000D01*
G75*
G02*
X137645000Y-134905000I175000J0D01*
G01*
X139345000Y-134905000D01*
G75*
G02*
X139520000Y-135080000I0J-175000D01*
G01*
X139520000Y-135430000D01*
G75*
G02*
X139345000Y-135605000I-175000J0D01*
G01*
X137645000Y-135605000D01*
G75*
G02*
X137470000Y-135430000I0J175000D01*
G01*
G37*
G36*
G01*
X137470000Y-136700000D02*
X137470000Y-136350000D01*
G75*
G02*
X137645000Y-136175000I175000J0D01*
G01*
X139345000Y-136175000D01*
G75*
G02*
X139520000Y-136350000I0J-175000D01*
G01*
X139520000Y-136700000D01*
G75*
G02*
X139345000Y-136875000I-175000J0D01*
G01*
X137645000Y-136875000D01*
G75*
G02*
X137470000Y-136700000I0J175000D01*
G01*
G37*
G36*
G01*
X137470000Y-137970000D02*
X137470000Y-137620000D01*
G75*
G02*
X137645000Y-137445000I175000J0D01*
G01*
X139345000Y-137445000D01*
G75*
G02*
X139520000Y-137620000I0J-175000D01*
G01*
X139520000Y-137970000D01*
G75*
G02*
X139345000Y-138145000I-175000J0D01*
G01*
X137645000Y-138145000D01*
G75*
G02*
X137470000Y-137970000I0J175000D01*
G01*
G37*
G36*
G01*
X137470000Y-139240000D02*
X137470000Y-138890000D01*
G75*
G02*
X137645000Y-138715000I175000J0D01*
G01*
X139345000Y-138715000D01*
G75*
G02*
X139520000Y-138890000I0J-175000D01*
G01*
X139520000Y-139240000D01*
G75*
G02*
X139345000Y-139415000I-175000J0D01*
G01*
X137645000Y-139415000D01*
G75*
G02*
X137470000Y-139240000I0J175000D01*
G01*
G37*
G36*
G01*
X100510000Y-122730000D02*
X100510000Y-122380000D01*
G75*
G02*
X100685000Y-122205000I175000J0D01*
G01*
X102385000Y-122205000D01*
G75*
G02*
X102560000Y-122380000I0J-175000D01*
G01*
X102560000Y-122730000D01*
G75*
G02*
X102385000Y-122905000I-175000J0D01*
G01*
X100685000Y-122905000D01*
G75*
G02*
X100510000Y-122730000I0J175000D01*
G01*
G37*
G36*
G01*
X100510000Y-121460000D02*
X100510000Y-121110000D01*
G75*
G02*
X100685000Y-120935000I175000J0D01*
G01*
X102385000Y-120935000D01*
G75*
G02*
X102560000Y-121110000I0J-175000D01*
G01*
X102560000Y-121460000D01*
G75*
G02*
X102385000Y-121635000I-175000J0D01*
G01*
X100685000Y-121635000D01*
G75*
G02*
X100510000Y-121460000I0J175000D01*
G01*
G37*
G36*
G01*
X100510000Y-120190000D02*
X100510000Y-119840000D01*
G75*
G02*
X100685000Y-119665000I175000J0D01*
G01*
X102385000Y-119665000D01*
G75*
G02*
X102560000Y-119840000I0J-175000D01*
G01*
X102560000Y-120190000D01*
G75*
G02*
X102385000Y-120365000I-175000J0D01*
G01*
X100685000Y-120365000D01*
G75*
G02*
X100510000Y-120190000I0J175000D01*
G01*
G37*
G36*
G01*
X100510000Y-118920000D02*
X100510000Y-118570000D01*
G75*
G02*
X100685000Y-118395000I175000J0D01*
G01*
X102385000Y-118395000D01*
G75*
G02*
X102560000Y-118570000I0J-175000D01*
G01*
X102560000Y-118920000D01*
G75*
G02*
X102385000Y-119095000I-175000J0D01*
G01*
X100685000Y-119095000D01*
G75*
G02*
X100510000Y-118920000I0J175000D01*
G01*
G37*
G36*
G01*
X95560000Y-118920000D02*
X95560000Y-118570000D01*
G75*
G02*
X95735000Y-118395000I175000J0D01*
G01*
X97435000Y-118395000D01*
G75*
G02*
X97610000Y-118570000I0J-175000D01*
G01*
X97610000Y-118920000D01*
G75*
G02*
X97435000Y-119095000I-175000J0D01*
G01*
X95735000Y-119095000D01*
G75*
G02*
X95560000Y-118920000I0J175000D01*
G01*
G37*
G36*
G01*
X95560000Y-120190000D02*
X95560000Y-119840000D01*
G75*
G02*
X95735000Y-119665000I175000J0D01*
G01*
X97435000Y-119665000D01*
G75*
G02*
X97610000Y-119840000I0J-175000D01*
G01*
X97610000Y-120190000D01*
G75*
G02*
X97435000Y-120365000I-175000J0D01*
G01*
X95735000Y-120365000D01*
G75*
G02*
X95560000Y-120190000I0J175000D01*
G01*
G37*
G36*
G01*
X95560000Y-121460000D02*
X95560000Y-121110000D01*
G75*
G02*
X95735000Y-120935000I175000J0D01*
G01*
X97435000Y-120935000D01*
G75*
G02*
X97610000Y-121110000I0J-175000D01*
G01*
X97610000Y-121460000D01*
G75*
G02*
X97435000Y-121635000I-175000J0D01*
G01*
X95735000Y-121635000D01*
G75*
G02*
X95560000Y-121460000I0J175000D01*
G01*
G37*
G36*
G01*
X95560000Y-122730000D02*
X95560000Y-122380000D01*
G75*
G02*
X95735000Y-122205000I175000J0D01*
G01*
X97435000Y-122205000D01*
G75*
G02*
X97610000Y-122380000I0J-175000D01*
G01*
X97610000Y-122730000D01*
G75*
G02*
X97435000Y-122905000I-175000J0D01*
G01*
X95735000Y-122905000D01*
G75*
G02*
X95560000Y-122730000I0J175000D01*
G01*
G37*
G36*
G01*
X100510000Y-139240000D02*
X100510000Y-138890000D01*
G75*
G02*
X100685000Y-138715000I175000J0D01*
G01*
X102385000Y-138715000D01*
G75*
G02*
X102560000Y-138890000I0J-175000D01*
G01*
X102560000Y-139240000D01*
G75*
G02*
X102385000Y-139415000I-175000J0D01*
G01*
X100685000Y-139415000D01*
G75*
G02*
X100510000Y-139240000I0J175000D01*
G01*
G37*
G36*
G01*
X100510000Y-137970000D02*
X100510000Y-137620000D01*
G75*
G02*
X100685000Y-137445000I175000J0D01*
G01*
X102385000Y-137445000D01*
G75*
G02*
X102560000Y-137620000I0J-175000D01*
G01*
X102560000Y-137970000D01*
G75*
G02*
X102385000Y-138145000I-175000J0D01*
G01*
X100685000Y-138145000D01*
G75*
G02*
X100510000Y-137970000I0J175000D01*
G01*
G37*
G36*
G01*
X100510000Y-136700000D02*
X100510000Y-136350000D01*
G75*
G02*
X100685000Y-136175000I175000J0D01*
G01*
X102385000Y-136175000D01*
G75*
G02*
X102560000Y-136350000I0J-175000D01*
G01*
X102560000Y-136700000D01*
G75*
G02*
X102385000Y-136875000I-175000J0D01*
G01*
X100685000Y-136875000D01*
G75*
G02*
X100510000Y-136700000I0J175000D01*
G01*
G37*
G36*
G01*
X100510000Y-135430000D02*
X100510000Y-135080000D01*
G75*
G02*
X100685000Y-134905000I175000J0D01*
G01*
X102385000Y-134905000D01*
G75*
G02*
X102560000Y-135080000I0J-175000D01*
G01*
X102560000Y-135430000D01*
G75*
G02*
X102385000Y-135605000I-175000J0D01*
G01*
X100685000Y-135605000D01*
G75*
G02*
X100510000Y-135430000I0J175000D01*
G01*
G37*
G36*
G01*
X95560000Y-135430000D02*
X95560000Y-135080000D01*
G75*
G02*
X95735000Y-134905000I175000J0D01*
G01*
X97435000Y-134905000D01*
G75*
G02*
X97610000Y-135080000I0J-175000D01*
G01*
X97610000Y-135430000D01*
G75*
G02*
X97435000Y-135605000I-175000J0D01*
G01*
X95735000Y-135605000D01*
G75*
G02*
X95560000Y-135430000I0J175000D01*
G01*
G37*
G36*
G01*
X95560000Y-136700000D02*
X95560000Y-136350000D01*
G75*
G02*
X95735000Y-136175000I175000J0D01*
G01*
X97435000Y-136175000D01*
G75*
G02*
X97610000Y-136350000I0J-175000D01*
G01*
X97610000Y-136700000D01*
G75*
G02*
X97435000Y-136875000I-175000J0D01*
G01*
X95735000Y-136875000D01*
G75*
G02*
X95560000Y-136700000I0J175000D01*
G01*
G37*
G36*
G01*
X95560000Y-137970000D02*
X95560000Y-137620000D01*
G75*
G02*
X95735000Y-137445000I175000J0D01*
G01*
X97435000Y-137445000D01*
G75*
G02*
X97610000Y-137620000I0J-175000D01*
G01*
X97610000Y-137970000D01*
G75*
G02*
X97435000Y-138145000I-175000J0D01*
G01*
X95735000Y-138145000D01*
G75*
G02*
X95560000Y-137970000I0J175000D01*
G01*
G37*
G36*
G01*
X95560000Y-139240000D02*
X95560000Y-138890000D01*
G75*
G02*
X95735000Y-138715000I175000J0D01*
G01*
X97435000Y-138715000D01*
G75*
G02*
X97610000Y-138890000I0J-175000D01*
G01*
X97610000Y-139240000D01*
G75*
G02*
X97435000Y-139415000I-175000J0D01*
G01*
X95735000Y-139415000D01*
G75*
G02*
X95560000Y-139240000I0J175000D01*
G01*
G37*
G36*
G01*
X76500000Y-124741250D02*
X76500000Y-124178750D01*
G75*
G02*
X76743750Y-123935000I243750J0D01*
G01*
X77231250Y-123935000D01*
G75*
G02*
X77475000Y-124178750I0J-243750D01*
G01*
X77475000Y-124741250D01*
G75*
G02*
X77231250Y-124985000I-243750J0D01*
G01*
X76743750Y-124985000D01*
G75*
G02*
X76500000Y-124741250I0J243750D01*
G01*
G37*
G36*
G01*
X74925000Y-124741250D02*
X74925000Y-124178750D01*
G75*
G02*
X75168750Y-123935000I243750J0D01*
G01*
X75656250Y-123935000D01*
G75*
G02*
X75900000Y-124178750I0J-243750D01*
G01*
X75900000Y-124741250D01*
G75*
G02*
X75656250Y-124985000I-243750J0D01*
G01*
X75168750Y-124985000D01*
G75*
G02*
X74925000Y-124741250I0J243750D01*
G01*
G37*
G36*
G01*
X75900000Y-141958750D02*
X75900000Y-142521250D01*
G75*
G02*
X75656250Y-142765000I-243750J0D01*
G01*
X75168750Y-142765000D01*
G75*
G02*
X74925000Y-142521250I0J243750D01*
G01*
X74925000Y-141958750D01*
G75*
G02*
X75168750Y-141715000I243750J0D01*
G01*
X75656250Y-141715000D01*
G75*
G02*
X75900000Y-141958750I0J-243750D01*
G01*
G37*
G36*
G01*
X77475000Y-141958750D02*
X77475000Y-142521250D01*
G75*
G02*
X77231250Y-142765000I-243750J0D01*
G01*
X76743750Y-142765000D01*
G75*
G02*
X76500000Y-142521250I0J243750D01*
G01*
X76500000Y-141958750D01*
G75*
G02*
X76743750Y-141715000I243750J0D01*
G01*
X77231250Y-141715000D01*
G75*
G02*
X77475000Y-141958750I0J-243750D01*
G01*
G37*
D21*
X195560000Y-100330000D03*
X193060000Y-100330000D03*
X195560000Y-96520000D03*
X193060000Y-96520000D03*
D12*
X219710000Y-68580000D03*
D13*
X217170000Y-68580000D03*
D12*
X203790000Y-68460000D03*
D13*
X201250000Y-68460000D03*
D21*
X153650000Y-100330000D03*
X151150000Y-100330000D03*
X153650000Y-96520000D03*
X151150000Y-96520000D03*
D12*
X177800000Y-68580000D03*
D13*
X175260000Y-68580000D03*
D12*
X161290000Y-68580000D03*
D13*
X158750000Y-68580000D03*
D21*
X111740000Y-100330000D03*
X109240000Y-100330000D03*
X111740000Y-96520000D03*
X109240000Y-96520000D03*
D12*
X135890000Y-68580000D03*
D13*
X133350000Y-68580000D03*
D12*
X119380000Y-68580000D03*
D13*
X116840000Y-68580000D03*
D21*
X71100000Y-101600000D03*
X68600000Y-101600000D03*
X71100000Y-97790000D03*
X68600000Y-97790000D03*
D12*
X95250000Y-68580000D03*
D13*
X92710000Y-68580000D03*
D12*
X77470000Y-68580000D03*
D13*
X74930000Y-68580000D03*
G36*
G01*
X197820000Y-114018750D02*
X197820000Y-114581250D01*
G75*
G02*
X197576250Y-114825000I-243750J0D01*
G01*
X197088750Y-114825000D01*
G75*
G02*
X196845000Y-114581250I0J243750D01*
G01*
X196845000Y-114018750D01*
G75*
G02*
X197088750Y-113775000I243750J0D01*
G01*
X197576250Y-113775000D01*
G75*
G02*
X197820000Y-114018750I0J-243750D01*
G01*
G37*
G36*
G01*
X199395000Y-114018750D02*
X199395000Y-114581250D01*
G75*
G02*
X199151250Y-114825000I-243750J0D01*
G01*
X198663750Y-114825000D01*
G75*
G02*
X198420000Y-114581250I0J243750D01*
G01*
X198420000Y-114018750D01*
G75*
G02*
X198663750Y-113775000I243750J0D01*
G01*
X199151250Y-113775000D01*
G75*
G02*
X199395000Y-114018750I0J-243750D01*
G01*
G37*
G36*
G01*
X193340000Y-114581250D02*
X193340000Y-114018750D01*
G75*
G02*
X193583750Y-113775000I243750J0D01*
G01*
X194071250Y-113775000D01*
G75*
G02*
X194315000Y-114018750I0J-243750D01*
G01*
X194315000Y-114581250D01*
G75*
G02*
X194071250Y-114825000I-243750J0D01*
G01*
X193583750Y-114825000D01*
G75*
G02*
X193340000Y-114581250I0J243750D01*
G01*
G37*
G36*
G01*
X191765000Y-114581250D02*
X191765000Y-114018750D01*
G75*
G02*
X192008750Y-113775000I243750J0D01*
G01*
X192496250Y-113775000D01*
G75*
G02*
X192740000Y-114018750I0J-243750D01*
G01*
X192740000Y-114581250D01*
G75*
G02*
X192496250Y-114825000I-243750J0D01*
G01*
X192008750Y-114825000D01*
G75*
G02*
X191765000Y-114581250I0J243750D01*
G01*
G37*
G36*
G01*
X218740000Y-126011250D02*
X218740000Y-125448750D01*
G75*
G02*
X218983750Y-125205000I243750J0D01*
G01*
X219471250Y-125205000D01*
G75*
G02*
X219715000Y-125448750I0J-243750D01*
G01*
X219715000Y-126011250D01*
G75*
G02*
X219471250Y-126255000I-243750J0D01*
G01*
X218983750Y-126255000D01*
G75*
G02*
X218740000Y-126011250I0J243750D01*
G01*
G37*
G36*
G01*
X217165000Y-126011250D02*
X217165000Y-125448750D01*
G75*
G02*
X217408750Y-125205000I243750J0D01*
G01*
X217896250Y-125205000D01*
G75*
G02*
X218140000Y-125448750I0J-243750D01*
G01*
X218140000Y-126011250D01*
G75*
G02*
X217896250Y-126255000I-243750J0D01*
G01*
X217408750Y-126255000D01*
G75*
G02*
X217165000Y-126011250I0J243750D01*
G01*
G37*
G36*
G01*
X199690000Y-124741250D02*
X199690000Y-124178750D01*
G75*
G02*
X199933750Y-123935000I243750J0D01*
G01*
X200421250Y-123935000D01*
G75*
G02*
X200665000Y-124178750I0J-243750D01*
G01*
X200665000Y-124741250D01*
G75*
G02*
X200421250Y-124985000I-243750J0D01*
G01*
X199933750Y-124985000D01*
G75*
G02*
X199690000Y-124741250I0J243750D01*
G01*
G37*
G36*
G01*
X198115000Y-124741250D02*
X198115000Y-124178750D01*
G75*
G02*
X198358750Y-123935000I243750J0D01*
G01*
X198846250Y-123935000D01*
G75*
G02*
X199090000Y-124178750I0J-243750D01*
G01*
X199090000Y-124741250D01*
G75*
G02*
X198846250Y-124985000I-243750J0D01*
G01*
X198358750Y-124985000D01*
G75*
G02*
X198115000Y-124741250I0J243750D01*
G01*
G37*
G36*
G01*
X222550000Y-141251250D02*
X222550000Y-140688750D01*
G75*
G02*
X222793750Y-140445000I243750J0D01*
G01*
X223281250Y-140445000D01*
G75*
G02*
X223525000Y-140688750I0J-243750D01*
G01*
X223525000Y-141251250D01*
G75*
G02*
X223281250Y-141495000I-243750J0D01*
G01*
X222793750Y-141495000D01*
G75*
G02*
X222550000Y-141251250I0J243750D01*
G01*
G37*
G36*
G01*
X220975000Y-141251250D02*
X220975000Y-140688750D01*
G75*
G02*
X221218750Y-140445000I243750J0D01*
G01*
X221706250Y-140445000D01*
G75*
G02*
X221950000Y-140688750I0J-243750D01*
G01*
X221950000Y-141251250D01*
G75*
G02*
X221706250Y-141495000I-243750J0D01*
G01*
X221218750Y-141495000D01*
G75*
G02*
X220975000Y-141251250I0J243750D01*
G01*
G37*
G36*
G01*
X190200000Y-120368750D02*
X190200000Y-120931250D01*
G75*
G02*
X189956250Y-121175000I-243750J0D01*
G01*
X189468750Y-121175000D01*
G75*
G02*
X189225000Y-120931250I0J243750D01*
G01*
X189225000Y-120368750D01*
G75*
G02*
X189468750Y-120125000I243750J0D01*
G01*
X189956250Y-120125000D01*
G75*
G02*
X190200000Y-120368750I0J-243750D01*
G01*
G37*
G36*
G01*
X191775000Y-120368750D02*
X191775000Y-120931250D01*
G75*
G02*
X191531250Y-121175000I-243750J0D01*
G01*
X191043750Y-121175000D01*
G75*
G02*
X190800000Y-120931250I0J243750D01*
G01*
X190800000Y-120368750D01*
G75*
G02*
X191043750Y-120125000I243750J0D01*
G01*
X191531250Y-120125000D01*
G75*
G02*
X191775000Y-120368750I0J-243750D01*
G01*
G37*
G36*
G01*
X204170000Y-120368750D02*
X204170000Y-120931250D01*
G75*
G02*
X203926250Y-121175000I-243750J0D01*
G01*
X203438750Y-121175000D01*
G75*
G02*
X203195000Y-120931250I0J243750D01*
G01*
X203195000Y-120368750D01*
G75*
G02*
X203438750Y-120125000I243750J0D01*
G01*
X203926250Y-120125000D01*
G75*
G02*
X204170000Y-120368750I0J-243750D01*
G01*
G37*
G36*
G01*
X205745000Y-120368750D02*
X205745000Y-120931250D01*
G75*
G02*
X205501250Y-121175000I-243750J0D01*
G01*
X205013750Y-121175000D01*
G75*
G02*
X204770000Y-120931250I0J243750D01*
G01*
X204770000Y-120368750D01*
G75*
G02*
X205013750Y-120125000I243750J0D01*
G01*
X205501250Y-120125000D01*
G75*
G02*
X205745000Y-120368750I0J-243750D01*
G01*
G37*
D10*
X224790000Y-73580000D03*
X224790000Y-68580000D03*
X195580000Y-73580000D03*
X195580000Y-68580000D03*
G36*
G01*
X225760000Y-129258750D02*
X225760000Y-129821250D01*
G75*
G02*
X225516250Y-130065000I-243750J0D01*
G01*
X225028750Y-130065000D01*
G75*
G02*
X224785000Y-129821250I0J243750D01*
G01*
X224785000Y-129258750D01*
G75*
G02*
X225028750Y-129015000I243750J0D01*
G01*
X225516250Y-129015000D01*
G75*
G02*
X225760000Y-129258750I0J-243750D01*
G01*
G37*
G36*
G01*
X227335000Y-129258750D02*
X227335000Y-129821250D01*
G75*
G02*
X227091250Y-130065000I-243750J0D01*
G01*
X226603750Y-130065000D01*
G75*
G02*
X226360000Y-129821250I0J243750D01*
G01*
X226360000Y-129258750D01*
G75*
G02*
X226603750Y-129015000I243750J0D01*
G01*
X227091250Y-129015000D01*
G75*
G02*
X227335000Y-129258750I0J-243750D01*
G01*
G37*
G36*
G01*
X214930000Y-134901250D02*
X214930000Y-134338750D01*
G75*
G02*
X215173750Y-134095000I243750J0D01*
G01*
X215661250Y-134095000D01*
G75*
G02*
X215905000Y-134338750I0J-243750D01*
G01*
X215905000Y-134901250D01*
G75*
G02*
X215661250Y-135145000I-243750J0D01*
G01*
X215173750Y-135145000D01*
G75*
G02*
X214930000Y-134901250I0J243750D01*
G01*
G37*
G36*
G01*
X213355000Y-134901250D02*
X213355000Y-134338750D01*
G75*
G02*
X213598750Y-134095000I243750J0D01*
G01*
X214086250Y-134095000D01*
G75*
G02*
X214330000Y-134338750I0J-243750D01*
G01*
X214330000Y-134901250D01*
G75*
G02*
X214086250Y-135145000I-243750J0D01*
G01*
X213598750Y-135145000D01*
G75*
G02*
X213355000Y-134901250I0J243750D01*
G01*
G37*
G36*
G01*
X181310000Y-114018750D02*
X181310000Y-114581250D01*
G75*
G02*
X181066250Y-114825000I-243750J0D01*
G01*
X180578750Y-114825000D01*
G75*
G02*
X180335000Y-114581250I0J243750D01*
G01*
X180335000Y-114018750D01*
G75*
G02*
X180578750Y-113775000I243750J0D01*
G01*
X181066250Y-113775000D01*
G75*
G02*
X181310000Y-114018750I0J-243750D01*
G01*
G37*
G36*
G01*
X182885000Y-114018750D02*
X182885000Y-114581250D01*
G75*
G02*
X182641250Y-114825000I-243750J0D01*
G01*
X182153750Y-114825000D01*
G75*
G02*
X181910000Y-114581250I0J243750D01*
G01*
X181910000Y-114018750D01*
G75*
G02*
X182153750Y-113775000I243750J0D01*
G01*
X182641250Y-113775000D01*
G75*
G02*
X182885000Y-114018750I0J-243750D01*
G01*
G37*
G36*
G01*
X176830000Y-114581250D02*
X176830000Y-114018750D01*
G75*
G02*
X177073750Y-113775000I243750J0D01*
G01*
X177561250Y-113775000D01*
G75*
G02*
X177805000Y-114018750I0J-243750D01*
G01*
X177805000Y-114581250D01*
G75*
G02*
X177561250Y-114825000I-243750J0D01*
G01*
X177073750Y-114825000D01*
G75*
G02*
X176830000Y-114581250I0J243750D01*
G01*
G37*
G36*
G01*
X175255000Y-114581250D02*
X175255000Y-114018750D01*
G75*
G02*
X175498750Y-113775000I243750J0D01*
G01*
X175986250Y-113775000D01*
G75*
G02*
X176230000Y-114018750I0J-243750D01*
G01*
X176230000Y-114581250D01*
G75*
G02*
X175986250Y-114825000I-243750J0D01*
G01*
X175498750Y-114825000D01*
G75*
G02*
X175255000Y-114581250I0J243750D01*
G01*
G37*
G36*
G01*
X180640000Y-132361250D02*
X180640000Y-131798750D01*
G75*
G02*
X180883750Y-131555000I243750J0D01*
G01*
X181371250Y-131555000D01*
G75*
G02*
X181615000Y-131798750I0J-243750D01*
G01*
X181615000Y-132361250D01*
G75*
G02*
X181371250Y-132605000I-243750J0D01*
G01*
X180883750Y-132605000D01*
G75*
G02*
X180640000Y-132361250I0J243750D01*
G01*
G37*
G36*
G01*
X179065000Y-132361250D02*
X179065000Y-131798750D01*
G75*
G02*
X179308750Y-131555000I243750J0D01*
G01*
X179796250Y-131555000D01*
G75*
G02*
X180040000Y-131798750I0J-243750D01*
G01*
X180040000Y-132361250D01*
G75*
G02*
X179796250Y-132605000I-243750J0D01*
G01*
X179308750Y-132605000D01*
G75*
G02*
X179065000Y-132361250I0J243750D01*
G01*
G37*
G36*
G01*
X183850000Y-124178750D02*
X183850000Y-124741250D01*
G75*
G02*
X183606250Y-124985000I-243750J0D01*
G01*
X183118750Y-124985000D01*
G75*
G02*
X182875000Y-124741250I0J243750D01*
G01*
X182875000Y-124178750D01*
G75*
G02*
X183118750Y-123935000I243750J0D01*
G01*
X183606250Y-123935000D01*
G75*
G02*
X183850000Y-124178750I0J-243750D01*
G01*
G37*
G36*
G01*
X185425000Y-124178750D02*
X185425000Y-124741250D01*
G75*
G02*
X185181250Y-124985000I-243750J0D01*
G01*
X184693750Y-124985000D01*
G75*
G02*
X184450000Y-124741250I0J243750D01*
G01*
X184450000Y-124178750D01*
G75*
G02*
X184693750Y-123935000I243750J0D01*
G01*
X185181250Y-123935000D01*
G75*
G02*
X185425000Y-124178750I0J-243750D01*
G01*
G37*
G36*
G01*
X185720000Y-142521250D02*
X185720000Y-141958750D01*
G75*
G02*
X185963750Y-141715000I243750J0D01*
G01*
X186451250Y-141715000D01*
G75*
G02*
X186695000Y-141958750I0J-243750D01*
G01*
X186695000Y-142521250D01*
G75*
G02*
X186451250Y-142765000I-243750J0D01*
G01*
X185963750Y-142765000D01*
G75*
G02*
X185720000Y-142521250I0J243750D01*
G01*
G37*
G36*
G01*
X184145000Y-142521250D02*
X184145000Y-141958750D01*
G75*
G02*
X184388750Y-141715000I243750J0D01*
G01*
X184876250Y-141715000D01*
G75*
G02*
X185120000Y-141958750I0J-243750D01*
G01*
X185120000Y-142521250D01*
G75*
G02*
X184876250Y-142765000I-243750J0D01*
G01*
X184388750Y-142765000D01*
G75*
G02*
X184145000Y-142521250I0J243750D01*
G01*
G37*
G36*
G01*
X176830000Y-120931250D02*
X176830000Y-120368750D01*
G75*
G02*
X177073750Y-120125000I243750J0D01*
G01*
X177561250Y-120125000D01*
G75*
G02*
X177805000Y-120368750I0J-243750D01*
G01*
X177805000Y-120931250D01*
G75*
G02*
X177561250Y-121175000I-243750J0D01*
G01*
X177073750Y-121175000D01*
G75*
G02*
X176830000Y-120931250I0J243750D01*
G01*
G37*
G36*
G01*
X175255000Y-120931250D02*
X175255000Y-120368750D01*
G75*
G02*
X175498750Y-120125000I243750J0D01*
G01*
X175986250Y-120125000D01*
G75*
G02*
X176230000Y-120368750I0J-243750D01*
G01*
X176230000Y-120931250D01*
G75*
G02*
X175986250Y-121175000I-243750J0D01*
G01*
X175498750Y-121175000D01*
G75*
G02*
X175255000Y-120931250I0J243750D01*
G01*
G37*
G36*
G01*
X190200000Y-127988750D02*
X190200000Y-128551250D01*
G75*
G02*
X189956250Y-128795000I-243750J0D01*
G01*
X189468750Y-128795000D01*
G75*
G02*
X189225000Y-128551250I0J243750D01*
G01*
X189225000Y-127988750D01*
G75*
G02*
X189468750Y-127745000I243750J0D01*
G01*
X189956250Y-127745000D01*
G75*
G02*
X190200000Y-127988750I0J-243750D01*
G01*
G37*
G36*
G01*
X191775000Y-127988750D02*
X191775000Y-128551250D01*
G75*
G02*
X191531250Y-128795000I-243750J0D01*
G01*
X191043750Y-128795000D01*
G75*
G02*
X190800000Y-128551250I0J243750D01*
G01*
X190800000Y-127988750D01*
G75*
G02*
X191043750Y-127745000I243750J0D01*
G01*
X191531250Y-127745000D01*
G75*
G02*
X191775000Y-127988750I0J-243750D01*
G01*
G37*
X182880000Y-73580000D03*
X182880000Y-68580000D03*
X153670000Y-73580000D03*
X153670000Y-68580000D03*
G36*
G01*
X194610000Y-139981250D02*
X194610000Y-139418750D01*
G75*
G02*
X194853750Y-139175000I243750J0D01*
G01*
X195341250Y-139175000D01*
G75*
G02*
X195585000Y-139418750I0J-243750D01*
G01*
X195585000Y-139981250D01*
G75*
G02*
X195341250Y-140225000I-243750J0D01*
G01*
X194853750Y-140225000D01*
G75*
G02*
X194610000Y-139981250I0J243750D01*
G01*
G37*
G36*
G01*
X193035000Y-139981250D02*
X193035000Y-139418750D01*
G75*
G02*
X193278750Y-139175000I243750J0D01*
G01*
X193766250Y-139175000D01*
G75*
G02*
X194010000Y-139418750I0J-243750D01*
G01*
X194010000Y-139981250D01*
G75*
G02*
X193766250Y-140225000I-243750J0D01*
G01*
X193278750Y-140225000D01*
G75*
G02*
X193035000Y-139981250I0J243750D01*
G01*
G37*
G36*
G01*
X176830000Y-136171250D02*
X176830000Y-135608750D01*
G75*
G02*
X177073750Y-135365000I243750J0D01*
G01*
X177561250Y-135365000D01*
G75*
G02*
X177805000Y-135608750I0J-243750D01*
G01*
X177805000Y-136171250D01*
G75*
G02*
X177561250Y-136415000I-243750J0D01*
G01*
X177073750Y-136415000D01*
G75*
G02*
X176830000Y-136171250I0J243750D01*
G01*
G37*
G36*
G01*
X175255000Y-136171250D02*
X175255000Y-135608750D01*
G75*
G02*
X175498750Y-135365000I243750J0D01*
G01*
X175986250Y-135365000D01*
G75*
G02*
X176230000Y-135608750I0J-243750D01*
G01*
X176230000Y-136171250D01*
G75*
G02*
X175986250Y-136415000I-243750J0D01*
G01*
X175498750Y-136415000D01*
G75*
G02*
X175255000Y-136171250I0J243750D01*
G01*
G37*
G36*
G01*
X145080000Y-115851250D02*
X145080000Y-115288750D01*
G75*
G02*
X145323750Y-115045000I243750J0D01*
G01*
X145811250Y-115045000D01*
G75*
G02*
X146055000Y-115288750I0J-243750D01*
G01*
X146055000Y-115851250D01*
G75*
G02*
X145811250Y-116095000I-243750J0D01*
G01*
X145323750Y-116095000D01*
G75*
G02*
X145080000Y-115851250I0J243750D01*
G01*
G37*
G36*
G01*
X143505000Y-115851250D02*
X143505000Y-115288750D01*
G75*
G02*
X143748750Y-115045000I243750J0D01*
G01*
X144236250Y-115045000D01*
G75*
G02*
X144480000Y-115288750I0J-243750D01*
G01*
X144480000Y-115851250D01*
G75*
G02*
X144236250Y-116095000I-243750J0D01*
G01*
X143748750Y-116095000D01*
G75*
G02*
X143505000Y-115851250I0J243750D01*
G01*
G37*
G36*
G01*
X137460000Y-115851250D02*
X137460000Y-115288750D01*
G75*
G02*
X137703750Y-115045000I243750J0D01*
G01*
X138191250Y-115045000D01*
G75*
G02*
X138435000Y-115288750I0J-243750D01*
G01*
X138435000Y-115851250D01*
G75*
G02*
X138191250Y-116095000I-243750J0D01*
G01*
X137703750Y-116095000D01*
G75*
G02*
X137460000Y-115851250I0J243750D01*
G01*
G37*
G36*
G01*
X135885000Y-115851250D02*
X135885000Y-115288750D01*
G75*
G02*
X136128750Y-115045000I243750J0D01*
G01*
X136616250Y-115045000D01*
G75*
G02*
X136860000Y-115288750I0J-243750D01*
G01*
X136860000Y-115851250D01*
G75*
G02*
X136616250Y-116095000I-243750J0D01*
G01*
X136128750Y-116095000D01*
G75*
G02*
X135885000Y-115851250I0J243750D01*
G01*
G37*
G36*
G01*
X138730000Y-132361250D02*
X138730000Y-131798750D01*
G75*
G02*
X138973750Y-131555000I243750J0D01*
G01*
X139461250Y-131555000D01*
G75*
G02*
X139705000Y-131798750I0J-243750D01*
G01*
X139705000Y-132361250D01*
G75*
G02*
X139461250Y-132605000I-243750J0D01*
G01*
X138973750Y-132605000D01*
G75*
G02*
X138730000Y-132361250I0J243750D01*
G01*
G37*
G36*
G01*
X137155000Y-132361250D02*
X137155000Y-131798750D01*
G75*
G02*
X137398750Y-131555000I243750J0D01*
G01*
X137886250Y-131555000D01*
G75*
G02*
X138130000Y-131798750I0J-243750D01*
G01*
X138130000Y-132361250D01*
G75*
G02*
X137886250Y-132605000I-243750J0D01*
G01*
X137398750Y-132605000D01*
G75*
G02*
X137155000Y-132361250I0J243750D01*
G01*
G37*
G36*
G01*
X143810000Y-126011250D02*
X143810000Y-125448750D01*
G75*
G02*
X144053750Y-125205000I243750J0D01*
G01*
X144541250Y-125205000D01*
G75*
G02*
X144785000Y-125448750I0J-243750D01*
G01*
X144785000Y-126011250D01*
G75*
G02*
X144541250Y-126255000I-243750J0D01*
G01*
X144053750Y-126255000D01*
G75*
G02*
X143810000Y-126011250I0J243750D01*
G01*
G37*
G36*
G01*
X142235000Y-126011250D02*
X142235000Y-125448750D01*
G75*
G02*
X142478750Y-125205000I243750J0D01*
G01*
X142966250Y-125205000D01*
G75*
G02*
X143210000Y-125448750I0J-243750D01*
G01*
X143210000Y-126011250D01*
G75*
G02*
X142966250Y-126255000I-243750J0D01*
G01*
X142478750Y-126255000D01*
G75*
G02*
X142235000Y-126011250I0J243750D01*
G01*
G37*
G36*
G01*
X143810000Y-142521250D02*
X143810000Y-141958750D01*
G75*
G02*
X144053750Y-141715000I243750J0D01*
G01*
X144541250Y-141715000D01*
G75*
G02*
X144785000Y-141958750I0J-243750D01*
G01*
X144785000Y-142521250D01*
G75*
G02*
X144541250Y-142765000I-243750J0D01*
G01*
X144053750Y-142765000D01*
G75*
G02*
X143810000Y-142521250I0J243750D01*
G01*
G37*
G36*
G01*
X142235000Y-142521250D02*
X142235000Y-141958750D01*
G75*
G02*
X142478750Y-141715000I243750J0D01*
G01*
X142966250Y-141715000D01*
G75*
G02*
X143210000Y-141958750I0J-243750D01*
G01*
X143210000Y-142521250D01*
G75*
G02*
X142966250Y-142765000I-243750J0D01*
G01*
X142478750Y-142765000D01*
G75*
G02*
X142235000Y-142521250I0J243750D01*
G01*
G37*
G36*
G01*
X134920000Y-120931250D02*
X134920000Y-120368750D01*
G75*
G02*
X135163750Y-120125000I243750J0D01*
G01*
X135651250Y-120125000D01*
G75*
G02*
X135895000Y-120368750I0J-243750D01*
G01*
X135895000Y-120931250D01*
G75*
G02*
X135651250Y-121175000I-243750J0D01*
G01*
X135163750Y-121175000D01*
G75*
G02*
X134920000Y-120931250I0J243750D01*
G01*
G37*
G36*
G01*
X133345000Y-120931250D02*
X133345000Y-120368750D01*
G75*
G02*
X133588750Y-120125000I243750J0D01*
G01*
X134076250Y-120125000D01*
G75*
G02*
X134320000Y-120368750I0J-243750D01*
G01*
X134320000Y-120931250D01*
G75*
G02*
X134076250Y-121175000I-243750J0D01*
G01*
X133588750Y-121175000D01*
G75*
G02*
X133345000Y-120931250I0J243750D01*
G01*
G37*
G36*
G01*
X149372500Y-120931250D02*
X149372500Y-120368750D01*
G75*
G02*
X149616250Y-120125000I243750J0D01*
G01*
X150103750Y-120125000D01*
G75*
G02*
X150347500Y-120368750I0J-243750D01*
G01*
X150347500Y-120931250D01*
G75*
G02*
X150103750Y-121175000I-243750J0D01*
G01*
X149616250Y-121175000D01*
G75*
G02*
X149372500Y-120931250I0J243750D01*
G01*
G37*
G36*
G01*
X147797500Y-120931250D02*
X147797500Y-120368750D01*
G75*
G02*
X148041250Y-120125000I243750J0D01*
G01*
X148528750Y-120125000D01*
G75*
G02*
X148772500Y-120368750I0J-243750D01*
G01*
X148772500Y-120931250D01*
G75*
G02*
X148528750Y-121175000I-243750J0D01*
G01*
X148041250Y-121175000D01*
G75*
G02*
X147797500Y-120931250I0J243750D01*
G01*
G37*
X140970000Y-73580000D03*
X140970000Y-68580000D03*
X111760000Y-73580000D03*
X111760000Y-68580000D03*
G36*
G01*
X153970000Y-139981250D02*
X153970000Y-139418750D01*
G75*
G02*
X154213750Y-139175000I243750J0D01*
G01*
X154701250Y-139175000D01*
G75*
G02*
X154945000Y-139418750I0J-243750D01*
G01*
X154945000Y-139981250D01*
G75*
G02*
X154701250Y-140225000I-243750J0D01*
G01*
X154213750Y-140225000D01*
G75*
G02*
X153970000Y-139981250I0J243750D01*
G01*
G37*
G36*
G01*
X152395000Y-139981250D02*
X152395000Y-139418750D01*
G75*
G02*
X152638750Y-139175000I243750J0D01*
G01*
X153126250Y-139175000D01*
G75*
G02*
X153370000Y-139418750I0J-243750D01*
G01*
X153370000Y-139981250D01*
G75*
G02*
X153126250Y-140225000I-243750J0D01*
G01*
X152638750Y-140225000D01*
G75*
G02*
X152395000Y-139981250I0J243750D01*
G01*
G37*
G36*
G01*
X134920000Y-136171250D02*
X134920000Y-135608750D01*
G75*
G02*
X135163750Y-135365000I243750J0D01*
G01*
X135651250Y-135365000D01*
G75*
G02*
X135895000Y-135608750I0J-243750D01*
G01*
X135895000Y-136171250D01*
G75*
G02*
X135651250Y-136415000I-243750J0D01*
G01*
X135163750Y-136415000D01*
G75*
G02*
X134920000Y-136171250I0J243750D01*
G01*
G37*
G36*
G01*
X133345000Y-136171250D02*
X133345000Y-135608750D01*
G75*
G02*
X133588750Y-135365000I243750J0D01*
G01*
X134076250Y-135365000D01*
G75*
G02*
X134320000Y-135608750I0J-243750D01*
G01*
X134320000Y-136171250D01*
G75*
G02*
X134076250Y-136415000I-243750J0D01*
G01*
X133588750Y-136415000D01*
G75*
G02*
X133345000Y-136171250I0J243750D01*
G01*
G37*
G36*
G01*
X103170000Y-115851250D02*
X103170000Y-115288750D01*
G75*
G02*
X103413750Y-115045000I243750J0D01*
G01*
X103901250Y-115045000D01*
G75*
G02*
X104145000Y-115288750I0J-243750D01*
G01*
X104145000Y-115851250D01*
G75*
G02*
X103901250Y-116095000I-243750J0D01*
G01*
X103413750Y-116095000D01*
G75*
G02*
X103170000Y-115851250I0J243750D01*
G01*
G37*
G36*
G01*
X101595000Y-115851250D02*
X101595000Y-115288750D01*
G75*
G02*
X101838750Y-115045000I243750J0D01*
G01*
X102326250Y-115045000D01*
G75*
G02*
X102570000Y-115288750I0J-243750D01*
G01*
X102570000Y-115851250D01*
G75*
G02*
X102326250Y-116095000I-243750J0D01*
G01*
X101838750Y-116095000D01*
G75*
G02*
X101595000Y-115851250I0J243750D01*
G01*
G37*
G36*
G01*
X95550000Y-115851250D02*
X95550000Y-115288750D01*
G75*
G02*
X95793750Y-115045000I243750J0D01*
G01*
X96281250Y-115045000D01*
G75*
G02*
X96525000Y-115288750I0J-243750D01*
G01*
X96525000Y-115851250D01*
G75*
G02*
X96281250Y-116095000I-243750J0D01*
G01*
X95793750Y-116095000D01*
G75*
G02*
X95550000Y-115851250I0J243750D01*
G01*
G37*
G36*
G01*
X93975000Y-115851250D02*
X93975000Y-115288750D01*
G75*
G02*
X94218750Y-115045000I243750J0D01*
G01*
X94706250Y-115045000D01*
G75*
G02*
X94950000Y-115288750I0J-243750D01*
G01*
X94950000Y-115851250D01*
G75*
G02*
X94706250Y-116095000I-243750J0D01*
G01*
X94218750Y-116095000D01*
G75*
G02*
X93975000Y-115851250I0J243750D01*
G01*
G37*
G36*
G01*
X96820000Y-132361250D02*
X96820000Y-131798750D01*
G75*
G02*
X97063750Y-131555000I243750J0D01*
G01*
X97551250Y-131555000D01*
G75*
G02*
X97795000Y-131798750I0J-243750D01*
G01*
X97795000Y-132361250D01*
G75*
G02*
X97551250Y-132605000I-243750J0D01*
G01*
X97063750Y-132605000D01*
G75*
G02*
X96820000Y-132361250I0J243750D01*
G01*
G37*
G36*
G01*
X95245000Y-132361250D02*
X95245000Y-131798750D01*
G75*
G02*
X95488750Y-131555000I243750J0D01*
G01*
X95976250Y-131555000D01*
G75*
G02*
X96220000Y-131798750I0J-243750D01*
G01*
X96220000Y-132361250D01*
G75*
G02*
X95976250Y-132605000I-243750J0D01*
G01*
X95488750Y-132605000D01*
G75*
G02*
X95245000Y-132361250I0J243750D01*
G01*
G37*
G36*
G01*
X101900000Y-126011250D02*
X101900000Y-125448750D01*
G75*
G02*
X102143750Y-125205000I243750J0D01*
G01*
X102631250Y-125205000D01*
G75*
G02*
X102875000Y-125448750I0J-243750D01*
G01*
X102875000Y-126011250D01*
G75*
G02*
X102631250Y-126255000I-243750J0D01*
G01*
X102143750Y-126255000D01*
G75*
G02*
X101900000Y-126011250I0J243750D01*
G01*
G37*
G36*
G01*
X100325000Y-126011250D02*
X100325000Y-125448750D01*
G75*
G02*
X100568750Y-125205000I243750J0D01*
G01*
X101056250Y-125205000D01*
G75*
G02*
X101300000Y-125448750I0J-243750D01*
G01*
X101300000Y-126011250D01*
G75*
G02*
X101056250Y-126255000I-243750J0D01*
G01*
X100568750Y-126255000D01*
G75*
G02*
X100325000Y-126011250I0J243750D01*
G01*
G37*
G36*
G01*
X101900000Y-142521250D02*
X101900000Y-141958750D01*
G75*
G02*
X102143750Y-141715000I243750J0D01*
G01*
X102631250Y-141715000D01*
G75*
G02*
X102875000Y-141958750I0J-243750D01*
G01*
X102875000Y-142521250D01*
G75*
G02*
X102631250Y-142765000I-243750J0D01*
G01*
X102143750Y-142765000D01*
G75*
G02*
X101900000Y-142521250I0J243750D01*
G01*
G37*
G36*
G01*
X100325000Y-142521250D02*
X100325000Y-141958750D01*
G75*
G02*
X100568750Y-141715000I243750J0D01*
G01*
X101056250Y-141715000D01*
G75*
G02*
X101300000Y-141958750I0J-243750D01*
G01*
X101300000Y-142521250D01*
G75*
G02*
X101056250Y-142765000I-243750J0D01*
G01*
X100568750Y-142765000D01*
G75*
G02*
X100325000Y-142521250I0J243750D01*
G01*
G37*
G36*
G01*
X93010000Y-120931250D02*
X93010000Y-120368750D01*
G75*
G02*
X93253750Y-120125000I243750J0D01*
G01*
X93741250Y-120125000D01*
G75*
G02*
X93985000Y-120368750I0J-243750D01*
G01*
X93985000Y-120931250D01*
G75*
G02*
X93741250Y-121175000I-243750J0D01*
G01*
X93253750Y-121175000D01*
G75*
G02*
X93010000Y-120931250I0J243750D01*
G01*
G37*
G36*
G01*
X91435000Y-120931250D02*
X91435000Y-120368750D01*
G75*
G02*
X91678750Y-120125000I243750J0D01*
G01*
X92166250Y-120125000D01*
G75*
G02*
X92410000Y-120368750I0J-243750D01*
G01*
X92410000Y-120931250D01*
G75*
G02*
X92166250Y-121175000I-243750J0D01*
G01*
X91678750Y-121175000D01*
G75*
G02*
X91435000Y-120931250I0J243750D01*
G01*
G37*
G36*
G01*
X106380000Y-120368750D02*
X106380000Y-120931250D01*
G75*
G02*
X106136250Y-121175000I-243750J0D01*
G01*
X105648750Y-121175000D01*
G75*
G02*
X105405000Y-120931250I0J243750D01*
G01*
X105405000Y-120368750D01*
G75*
G02*
X105648750Y-120125000I243750J0D01*
G01*
X106136250Y-120125000D01*
G75*
G02*
X106380000Y-120368750I0J-243750D01*
G01*
G37*
G36*
G01*
X107955000Y-120368750D02*
X107955000Y-120931250D01*
G75*
G02*
X107711250Y-121175000I-243750J0D01*
G01*
X107223750Y-121175000D01*
G75*
G02*
X106980000Y-120931250I0J243750D01*
G01*
X106980000Y-120368750D01*
G75*
G02*
X107223750Y-120125000I243750J0D01*
G01*
X107711250Y-120125000D01*
G75*
G02*
X107955000Y-120368750I0J-243750D01*
G01*
G37*
X100330000Y-68660000D03*
X100330000Y-73660000D03*
X69850000Y-73580000D03*
X69850000Y-68580000D03*
G36*
G01*
X110307500Y-139981250D02*
X110307500Y-139418750D01*
G75*
G02*
X110551250Y-139175000I243750J0D01*
G01*
X111038750Y-139175000D01*
G75*
G02*
X111282500Y-139418750I0J-243750D01*
G01*
X111282500Y-139981250D01*
G75*
G02*
X111038750Y-140225000I-243750J0D01*
G01*
X110551250Y-140225000D01*
G75*
G02*
X110307500Y-139981250I0J243750D01*
G01*
G37*
G36*
G01*
X108732500Y-139981250D02*
X108732500Y-139418750D01*
G75*
G02*
X108976250Y-139175000I243750J0D01*
G01*
X109463750Y-139175000D01*
G75*
G02*
X109707500Y-139418750I0J-243750D01*
G01*
X109707500Y-139981250D01*
G75*
G02*
X109463750Y-140225000I-243750J0D01*
G01*
X108976250Y-140225000D01*
G75*
G02*
X108732500Y-139981250I0J243750D01*
G01*
G37*
G36*
G01*
X93010000Y-136171250D02*
X93010000Y-135608750D01*
G75*
G02*
X93253750Y-135365000I243750J0D01*
G01*
X93741250Y-135365000D01*
G75*
G02*
X93985000Y-135608750I0J-243750D01*
G01*
X93985000Y-136171250D01*
G75*
G02*
X93741250Y-136415000I-243750J0D01*
G01*
X93253750Y-136415000D01*
G75*
G02*
X93010000Y-136171250I0J243750D01*
G01*
G37*
G36*
G01*
X91435000Y-136171250D02*
X91435000Y-135608750D01*
G75*
G02*
X91678750Y-135365000I243750J0D01*
G01*
X92166250Y-135365000D01*
G75*
G02*
X92410000Y-135608750I0J-243750D01*
G01*
X92410000Y-136171250D01*
G75*
G02*
X92166250Y-136415000I-243750J0D01*
G01*
X91678750Y-136415000D01*
G75*
G02*
X91435000Y-136171250I0J243750D01*
G01*
G37*
M02*
