G04 #@! TF.GenerationSoftware,KiCad,Pcbnew,(5.1.6-0-10_14)*
G04 #@! TF.CreationDate,2022-01-03T23:35:25+00:00*
G04 #@! TF.ProjectId,Quad Tube VCA,51756164-2054-4756-9265-205643412e6b,rev?*
G04 #@! TF.SameCoordinates,Original*
G04 #@! TF.FileFunction,Copper,L1,Top*
G04 #@! TF.FilePolarity,Positive*
%FSLAX46Y46*%
G04 Gerber Fmt 4.6, Leading zero omitted, Abs format (unit mm)*
G04 Created by KiCad (PCBNEW (5.1.6-0-10_14)) date 2022-01-03 23:35:25*
%MOMM*%
%LPD*%
G01*
G04 APERTURE LIST*
G04 #@! TA.AperFunction,ComponentPad*
%ADD10C,1.600000*%
G04 #@! TD*
G04 #@! TA.AperFunction,ComponentPad*
%ADD11R,1.600000X1.600000*%
G04 #@! TD*
G04 #@! TA.AperFunction,ComponentPad*
%ADD12C,1.800000*%
G04 #@! TD*
G04 #@! TA.AperFunction,ComponentPad*
%ADD13R,1.800000X1.800000*%
G04 #@! TD*
G04 #@! TA.AperFunction,ComponentPad*
%ADD14C,2.775000*%
G04 #@! TD*
G04 #@! TA.AperFunction,ComponentPad*
%ADD15R,2.775000X2.775000*%
G04 #@! TD*
G04 #@! TA.AperFunction,ComponentPad*
%ADD16C,2.000000*%
G04 #@! TD*
G04 #@! TA.AperFunction,ComponentPad*
%ADD17C,1.300000*%
G04 #@! TD*
G04 #@! TA.AperFunction,ComponentPad*
%ADD18C,1.440000*%
G04 #@! TD*
G04 #@! TA.AperFunction,ComponentPad*
%ADD19O,1.700000X1.700000*%
G04 #@! TD*
G04 #@! TA.AperFunction,ComponentPad*
%ADD20R,1.700000X1.700000*%
G04 #@! TD*
G04 #@! TA.AperFunction,ViaPad*
%ADD21C,0.800000*%
G04 #@! TD*
G04 #@! TA.AperFunction,Conductor*
%ADD22C,0.250000*%
G04 #@! TD*
G04 #@! TA.AperFunction,Conductor*
%ADD23C,0.500000*%
G04 #@! TD*
G04 APERTURE END LIST*
D10*
X220940000Y-99060000D03*
D11*
X218440000Y-99060000D03*
D10*
X179030000Y-99060000D03*
D11*
X176530000Y-99060000D03*
D10*
X137120000Y-99060000D03*
D11*
X134620000Y-99060000D03*
D10*
X95210000Y-99060000D03*
D11*
X92710000Y-99060000D03*
D10*
X72350000Y-116840000D03*
D11*
X69850000Y-116840000D03*
D10*
X71080000Y-123190000D03*
D11*
X68580000Y-123190000D03*
D12*
X126153333Y-48260000D03*
X126153333Y-96520000D03*
X124883333Y-93980000D03*
X127423333Y-93980000D03*
X128693333Y-99060000D03*
X126153333Y-99060000D03*
D13*
X123613333Y-99060000D03*
D12*
X85090000Y-48260000D03*
X85090000Y-96520000D03*
X83820000Y-93980000D03*
X86360000Y-93980000D03*
X87630000Y-99060000D03*
X85090000Y-99060000D03*
D13*
X82550000Y-99060000D03*
D12*
X210550000Y-48260000D03*
X210550000Y-96520000D03*
X209280000Y-93980000D03*
X211820000Y-93980000D03*
X213090000Y-99060000D03*
X210550000Y-99060000D03*
D13*
X208010000Y-99060000D03*
D12*
X168486666Y-48260000D03*
X168486666Y-96520000D03*
X167216666Y-93980000D03*
X169756666Y-93980000D03*
X171026666Y-99060000D03*
X168486666Y-99060000D03*
D13*
X165946666Y-99060000D03*
D14*
X215520000Y-107950000D03*
X210820000Y-107950000D03*
D15*
X206120000Y-107950000D03*
D14*
X173610000Y-107950000D03*
X168910000Y-107950000D03*
D15*
X164210000Y-107950000D03*
D14*
X131700000Y-107950000D03*
X127000000Y-107950000D03*
D15*
X122300000Y-107950000D03*
D14*
X89790000Y-107950000D03*
X85090000Y-107950000D03*
D15*
X80390000Y-107950000D03*
D16*
X204680000Y-57070000D03*
X195080000Y-57070000D03*
D17*
X202380000Y-64570000D03*
X199880000Y-64570000D03*
X197380000Y-64570000D03*
D16*
X162280000Y-57150000D03*
X152680000Y-57150000D03*
D17*
X159980000Y-64650000D03*
X157480000Y-64650000D03*
X154980000Y-64650000D03*
D16*
X120370000Y-57150000D03*
X110770000Y-57150000D03*
D17*
X118070000Y-64650000D03*
X115570000Y-64650000D03*
X113070000Y-64650000D03*
D16*
X79730000Y-57150000D03*
X70130000Y-57150000D03*
D17*
X77430000Y-64650000D03*
X74930000Y-64650000D03*
X72430000Y-64650000D03*
D16*
X204680000Y-81320000D03*
X195080000Y-81320000D03*
D17*
X202380000Y-88820000D03*
X199880000Y-88820000D03*
X197380000Y-88820000D03*
D16*
X162280000Y-81280000D03*
X152680000Y-81280000D03*
D17*
X159980000Y-88780000D03*
X157480000Y-88780000D03*
X154980000Y-88780000D03*
D16*
X120370000Y-81280000D03*
X110770000Y-81280000D03*
D17*
X118070000Y-88780000D03*
X115570000Y-88780000D03*
X113070000Y-88780000D03*
D16*
X79730000Y-81280000D03*
X70130000Y-81280000D03*
D17*
X77430000Y-88780000D03*
X74930000Y-88780000D03*
X72430000Y-88780000D03*
D16*
X225780000Y-57150000D03*
X216180000Y-57150000D03*
D17*
X223480000Y-64650000D03*
X220980000Y-64650000D03*
X218480000Y-64650000D03*
D16*
X183870000Y-57150000D03*
X174270000Y-57150000D03*
D17*
X181570000Y-64650000D03*
X179070000Y-64650000D03*
X176570000Y-64650000D03*
D16*
X141960000Y-57030000D03*
X132360000Y-57030000D03*
D17*
X139660000Y-64530000D03*
X137160000Y-64530000D03*
X134660000Y-64530000D03*
D16*
X100410000Y-57130000D03*
X90810000Y-57130000D03*
D17*
X98110000Y-64630000D03*
X95610000Y-64630000D03*
X93110000Y-64630000D03*
D16*
X225780000Y-81280000D03*
X216180000Y-81280000D03*
D17*
X223480000Y-88780000D03*
X220980000Y-88780000D03*
X218480000Y-88780000D03*
D16*
X183870000Y-81280000D03*
X174270000Y-81280000D03*
D17*
X181570000Y-88780000D03*
X179070000Y-88780000D03*
X176570000Y-88780000D03*
D16*
X141960000Y-81280000D03*
X132360000Y-81280000D03*
D17*
X139660000Y-88780000D03*
X137160000Y-88780000D03*
X134660000Y-88780000D03*
D16*
X100431000Y-81153000D03*
X90831000Y-81153000D03*
D17*
X98131000Y-88653000D03*
X95631000Y-88653000D03*
X93131000Y-88653000D03*
D12*
X215770000Y-138430000D03*
X204370000Y-138430000D03*
X207470000Y-138430000D03*
X173830000Y-138430000D03*
X162430000Y-138430000D03*
X165530000Y-138430000D03*
X131920000Y-138430000D03*
X120520000Y-138430000D03*
X123620000Y-138430000D03*
X90010000Y-138430000D03*
X78610000Y-138430000D03*
X81710000Y-138430000D03*
X215740000Y-118110000D03*
X204340000Y-118110000D03*
X207440000Y-118110000D03*
X173830000Y-118110000D03*
X162430000Y-118110000D03*
X165530000Y-118110000D03*
X131920000Y-118110000D03*
X120520000Y-118110000D03*
X123620000Y-118110000D03*
X90010000Y-118110000D03*
X78610000Y-118110000D03*
X81710000Y-118110000D03*
X215770000Y-128270000D03*
X204370000Y-128270000D03*
X207470000Y-128270000D03*
X173830000Y-128270000D03*
X162430000Y-128270000D03*
X165530000Y-128270000D03*
X131920000Y-128270000D03*
X120520000Y-128270000D03*
X123620000Y-128270000D03*
X90010000Y-128270000D03*
X78610000Y-128270000D03*
X81710000Y-128270000D03*
D18*
X195580000Y-48260000D03*
X198120000Y-48260000D03*
X200660000Y-48260000D03*
X152400000Y-48260000D03*
X154940000Y-48260000D03*
X157480000Y-48260000D03*
X110490000Y-48260000D03*
X113030000Y-48260000D03*
X115570000Y-48260000D03*
X68580000Y-48260000D03*
X71120000Y-48260000D03*
X73660000Y-48260000D03*
X220980000Y-107950000D03*
X223520000Y-107950000D03*
X226060000Y-107950000D03*
X179070000Y-107950000D03*
X181610000Y-107950000D03*
X184150000Y-107950000D03*
X137160000Y-107950000D03*
X139700000Y-107950000D03*
X142240000Y-107950000D03*
X95250000Y-107950000D03*
X97790000Y-107950000D03*
X100330000Y-107950000D03*
X218440000Y-92710000D03*
X220980000Y-92710000D03*
X223520000Y-92710000D03*
X176530000Y-92710000D03*
X179070000Y-92710000D03*
X181610000Y-92710000D03*
X134620000Y-92710000D03*
X137160000Y-92710000D03*
X139700000Y-92710000D03*
X92710000Y-92710000D03*
X95250000Y-92710000D03*
X97790000Y-92710000D03*
X195580000Y-107950000D03*
X198120000Y-107950000D03*
X200660000Y-107950000D03*
X153670000Y-107950000D03*
X156210000Y-107950000D03*
X158750000Y-107950000D03*
X111760000Y-107950000D03*
X114300000Y-107950000D03*
X116840000Y-107950000D03*
X69850000Y-107950000D03*
X72390000Y-107950000D03*
X74930000Y-107950000D03*
D19*
X72390000Y-129540000D03*
X69850000Y-129540000D03*
X72390000Y-132080000D03*
X69850000Y-132080000D03*
X72390000Y-134620000D03*
X69850000Y-134620000D03*
X72390000Y-137160000D03*
X69850000Y-137160000D03*
X72390000Y-139700000D03*
D20*
X69850000Y-139700000D03*
D12*
X219710000Y-68580000D03*
D13*
X217170000Y-68580000D03*
D12*
X203790000Y-68460000D03*
D13*
X201250000Y-68460000D03*
D12*
X177800000Y-68580000D03*
D13*
X175260000Y-68580000D03*
D12*
X161290000Y-68580000D03*
D13*
X158750000Y-68580000D03*
D12*
X135890000Y-68580000D03*
D13*
X133350000Y-68580000D03*
D12*
X119380000Y-68580000D03*
D13*
X116840000Y-68580000D03*
D12*
X95250000Y-68580000D03*
D13*
X92710000Y-68580000D03*
D12*
X77470000Y-68580000D03*
D13*
X74930000Y-68580000D03*
D10*
X224790000Y-73580000D03*
X224790000Y-68580000D03*
X195580000Y-73580000D03*
X195580000Y-68580000D03*
X182880000Y-73580000D03*
X182880000Y-68580000D03*
X153670000Y-73580000D03*
X153670000Y-68580000D03*
X140970000Y-73580000D03*
X140970000Y-68580000D03*
X111760000Y-73580000D03*
X111760000Y-68580000D03*
X100330000Y-68660000D03*
X100330000Y-73660000D03*
X69850000Y-73580000D03*
X69850000Y-68580000D03*
D21*
X93980000Y-133350000D03*
X93980000Y-138430000D03*
X105410000Y-92710000D03*
X95250000Y-128270000D03*
X81280000Y-135890000D03*
X69850000Y-88900000D03*
X76200000Y-78740000D03*
X91440000Y-73660000D03*
X177800000Y-118110000D03*
X181610000Y-111760000D03*
X99060000Y-140970000D03*
X102870000Y-140970000D03*
X105410000Y-138430000D03*
X140970000Y-140970000D03*
X144780000Y-140970000D03*
X147320000Y-138430000D03*
X151130000Y-134620000D03*
X182880000Y-140970000D03*
X186690000Y-140970000D03*
X189230000Y-138430000D03*
X191770000Y-137160000D03*
X223520000Y-142240000D03*
X218440000Y-142240000D03*
X222250000Y-133350000D03*
X227344703Y-133365603D03*
X184150000Y-115570000D03*
X80010000Y-133350000D03*
X82550000Y-130810000D03*
X92710000Y-121920000D03*
X92710000Y-118110000D03*
X104140000Y-118110000D03*
X104140000Y-121920000D03*
X90170000Y-123190000D03*
X86360000Y-123190000D03*
X95250000Y-133350000D03*
X97790000Y-133350000D03*
X136740009Y-117259991D03*
X139700000Y-116840000D03*
X146050000Y-118110000D03*
X146050000Y-123190000D03*
X175260000Y-116840000D03*
X171450000Y-115570000D03*
X177800000Y-127000000D03*
X175260000Y-129540000D03*
X191770000Y-119380000D03*
X196850000Y-118110000D03*
X191770000Y-113030000D03*
X203200000Y-130810000D03*
X200660000Y-123190000D03*
X205740000Y-132080000D03*
X205740000Y-134620000D03*
X218440000Y-120650000D03*
X220980000Y-119380000D03*
X186690000Y-83820000D03*
X193040000Y-83820000D03*
X186690000Y-74930000D03*
X184150000Y-76200000D03*
X208280000Y-78740000D03*
X207010000Y-68580000D03*
X213360000Y-110490000D03*
X220980000Y-110490000D03*
X132080000Y-72390000D03*
X129540000Y-69850000D03*
X227330000Y-143510000D03*
X76682500Y-143510000D03*
X77470000Y-50800000D03*
X107950000Y-142240000D03*
X103897500Y-139700000D03*
X101600000Y-130810000D03*
X81280000Y-101600000D03*
X99060000Y-119380000D03*
X99060000Y-133350000D03*
X100774990Y-133350000D03*
X82550000Y-104140000D03*
X72390000Y-95250000D03*
X105410000Y-128270000D03*
X73660000Y-100330000D03*
X88900000Y-121920000D03*
X95250000Y-124460000D03*
X100330000Y-115570000D03*
X147320000Y-95250000D03*
X134620000Y-129540000D03*
X129540000Y-137160000D03*
X146050000Y-92710000D03*
X149860000Y-139700000D03*
X157480000Y-139700000D03*
X120650000Y-100330000D03*
X136679761Y-126454933D03*
X138430000Y-130810000D03*
X143510000Y-130810000D03*
X134620000Y-82550000D03*
X135890000Y-76200000D03*
X114300000Y-93980000D03*
X149860000Y-128270000D03*
X137160000Y-124460000D03*
X135890000Y-118110000D03*
X114300000Y-99060000D03*
X124460000Y-125730000D03*
X142240000Y-115570000D03*
X135890000Y-128270000D03*
X189230000Y-93980000D03*
X179070000Y-127000000D03*
X177800000Y-138430000D03*
X173990000Y-135890000D03*
X166370000Y-123190000D03*
X161290000Y-106680000D03*
X168910000Y-101600000D03*
X173990000Y-101600000D03*
X175260000Y-85090000D03*
X176530000Y-78740000D03*
X187960000Y-134620000D03*
X187960000Y-139700000D03*
X196850000Y-139700000D03*
X162560000Y-100330000D03*
X168910000Y-114300000D03*
X173990000Y-133350000D03*
X185420000Y-133350000D03*
X170180000Y-102870000D03*
X156210000Y-93980000D03*
X189230000Y-130629999D03*
X189348903Y-125611097D03*
X191770000Y-125730000D03*
X156210000Y-99060000D03*
X165100000Y-123190000D03*
X180340000Y-115570000D03*
X172720000Y-121920000D03*
X203200000Y-135890000D03*
X200660000Y-138430000D03*
X190500000Y-97790000D03*
X200660000Y-133350000D03*
X220980000Y-139700000D03*
X213360000Y-137160000D03*
X208280000Y-133350000D03*
X213360000Y-78740000D03*
X226060000Y-130810000D03*
X227330000Y-120650000D03*
X212090000Y-104140000D03*
X220980000Y-77470000D03*
X214630000Y-78740000D03*
X198120000Y-93980000D03*
X201930000Y-127000000D03*
X198120000Y-99060000D03*
X195580000Y-114300000D03*
X191770000Y-116840000D03*
X193040000Y-115570000D03*
X198120000Y-115570000D03*
X73660000Y-97790000D03*
X114300000Y-96520000D03*
X156210000Y-96520000D03*
X204470000Y-77470000D03*
X210820000Y-77470000D03*
X198120000Y-96520000D03*
X74930000Y-91440000D03*
X100330000Y-91440000D03*
X92710000Y-105410000D03*
X90170000Y-114300000D03*
X115570000Y-91440000D03*
X142240000Y-91440000D03*
X125730000Y-123190000D03*
X157480000Y-91440000D03*
X184150000Y-91440000D03*
X168910000Y-120469999D03*
X199390000Y-91440000D03*
X214630000Y-104140000D03*
X218440000Y-107950000D03*
X87630000Y-114300000D03*
X87630000Y-102870000D03*
X93980000Y-81280000D03*
X102870000Y-101600000D03*
X102870000Y-92710000D03*
X123190000Y-113030000D03*
X130810000Y-102870000D03*
X137160000Y-81280000D03*
X144780000Y-101600000D03*
X146050000Y-91440000D03*
X143510000Y-71120000D03*
X179070000Y-123190000D03*
X185420000Y-92710000D03*
X186690000Y-100330000D03*
X187960000Y-91440000D03*
X186690000Y-71120000D03*
X220980000Y-81280000D03*
X78740000Y-86360000D03*
X78740000Y-99060000D03*
X81347403Y-104072597D03*
X120650000Y-87630000D03*
X119380000Y-99060000D03*
X119380000Y-102870000D03*
X124460000Y-105410000D03*
X162560000Y-87630000D03*
X161290000Y-97790000D03*
X165100000Y-105410000D03*
X204470000Y-88900000D03*
X203200000Y-99060000D03*
X104140000Y-138430000D03*
X104140000Y-134620000D03*
X80010000Y-100330000D03*
X72390000Y-92710000D03*
X146050000Y-134620000D03*
X146050000Y-140970000D03*
X120650000Y-99060000D03*
X113030000Y-92710000D03*
X189230000Y-140970000D03*
X186690000Y-132080000D03*
X162560000Y-99060000D03*
X154940000Y-92710000D03*
X220980000Y-123190000D03*
X226060000Y-138430000D03*
X204470000Y-99060000D03*
X196850000Y-92710000D03*
X113030000Y-133350000D03*
X156210000Y-134620000D03*
X198120000Y-138430000D03*
X92710000Y-113030000D03*
X175260000Y-104140000D03*
X199390000Y-105410000D03*
D22*
X93980000Y-133350000D02*
X93980000Y-138430000D01*
X95975001Y-128995001D02*
X95250000Y-128270000D01*
X105758001Y-128995001D02*
X95975001Y-128995001D01*
X106135001Y-128618001D02*
X105758001Y-128995001D01*
X106135001Y-93435001D02*
X106135001Y-128618001D01*
X105410000Y-92710000D02*
X106135001Y-93435001D01*
X67454999Y-91295001D02*
X69850000Y-88900000D01*
X67454999Y-124250001D02*
X67454999Y-91295001D01*
X67519999Y-124315001D02*
X67454999Y-124250001D01*
X69705001Y-124315001D02*
X67519999Y-124315001D01*
X81280000Y-135890000D02*
X69705001Y-124315001D01*
X86360000Y-78740000D02*
X91440000Y-73660000D01*
X76200000Y-78740000D02*
X86360000Y-78740000D01*
X181610000Y-115373002D02*
X181610000Y-111760000D01*
X178873002Y-118110000D02*
X181610000Y-115373002D01*
X177800000Y-118110000D02*
X178873002Y-118110000D01*
X71120000Y-118110000D02*
X78610000Y-118110000D01*
X69850000Y-116840000D02*
X71120000Y-118110000D01*
X99060000Y-140970000D02*
X102870000Y-140970000D01*
X120520000Y-138430000D02*
X105410000Y-138430000D01*
X140970000Y-140970000D02*
X144780000Y-140970000D01*
X147320000Y-138430000D02*
X151130000Y-134620000D01*
X186690000Y-140970000D02*
X182880000Y-140970000D01*
X190500000Y-137160000D02*
X189230000Y-138430000D01*
X191770000Y-137160000D02*
X190500000Y-137160000D01*
X223520000Y-142240000D02*
X218440000Y-142240000D01*
X227329100Y-133350000D02*
X227344703Y-133365603D01*
X222250000Y-133350000D02*
X227329100Y-133350000D01*
X184150000Y-114300000D02*
X181610000Y-111760000D01*
X184150000Y-115570000D02*
X184150000Y-114300000D01*
X98110000Y-65720000D02*
X95250000Y-68580000D01*
X98110000Y-64630000D02*
X98110000Y-65720000D01*
X82550000Y-130810000D02*
X80010000Y-133350000D01*
X92710000Y-118110000D02*
X92710000Y-121920000D01*
X104140000Y-121920000D02*
X104140000Y-118110000D01*
X86360000Y-123190000D02*
X90170000Y-123190000D01*
X97790000Y-133350000D02*
X95250000Y-133350000D01*
X139280009Y-117259991D02*
X139700000Y-116840000D01*
X136740009Y-117259991D02*
X139280009Y-117259991D01*
X146050000Y-118110000D02*
X146050000Y-123190000D01*
X173990000Y-115570000D02*
X175260000Y-116840000D01*
X171450000Y-115570000D02*
X173990000Y-115570000D01*
X177800000Y-118110000D02*
X177800000Y-127000000D01*
X193040000Y-118110000D02*
X191770000Y-119380000D01*
X196850000Y-118110000D02*
X193040000Y-118110000D01*
X191770000Y-115373002D02*
X191770000Y-113030000D01*
X192495001Y-116098003D02*
X191770000Y-115373002D01*
X192495001Y-118654999D02*
X192495001Y-116098003D01*
X191770000Y-119380000D02*
X192495001Y-118654999D01*
X200660000Y-128270000D02*
X203200000Y-130810000D01*
X200660000Y-123190000D02*
X200660000Y-128270000D01*
X205740000Y-134620000D02*
X205740000Y-132080000D01*
X219710000Y-119380000D02*
X218440000Y-120650000D01*
X220980000Y-119380000D02*
X219710000Y-119380000D01*
X87630000Y-99060000D02*
X92710000Y-99060000D01*
X186690000Y-83820000D02*
X193040000Y-83820000D01*
X176552008Y-63224990D02*
X175594999Y-64181999D01*
X180144990Y-63224990D02*
X176552008Y-63224990D01*
X175594999Y-66374999D02*
X177800000Y-68580000D01*
X175594999Y-64181999D02*
X175594999Y-66374999D01*
X181570000Y-64650000D02*
X180144990Y-63224990D01*
X187415001Y-74204999D02*
X186690000Y-74930000D01*
X187415001Y-70495001D02*
X187415001Y-74204999D01*
X181570000Y-64650000D02*
X187415001Y-70495001D01*
X185420000Y-76200000D02*
X186690000Y-74930000D01*
X184150000Y-76200000D02*
X185420000Y-76200000D01*
X176530000Y-99060000D02*
X171026666Y-99060000D01*
X207010000Y-77470000D02*
X208280000Y-78740000D01*
X207010000Y-68580000D02*
X207010000Y-77470000D01*
X213090000Y-99060000D02*
X218440000Y-99060000D01*
X220980000Y-110490000D02*
X213360000Y-110490000D01*
X129540000Y-69850000D02*
X132080000Y-72390000D01*
X165530000Y-129970000D02*
X165530000Y-128270000D01*
X166370000Y-130810000D02*
X165530000Y-129970000D01*
X170180000Y-130810000D02*
X166370000Y-130810000D01*
X171450000Y-129540000D02*
X170180000Y-130810000D01*
X175260000Y-129540000D02*
X171450000Y-129540000D01*
D23*
X227330000Y-143510000D02*
X76682500Y-143510000D01*
X68580000Y-92630000D02*
X72430000Y-88780000D01*
X68580000Y-123190000D02*
X68580000Y-92630000D01*
X111969999Y-89880001D02*
X113070000Y-88780000D01*
X73530001Y-89880001D02*
X111969999Y-89880001D01*
X72430000Y-88780000D02*
X73530001Y-89880001D01*
X153879999Y-89880001D02*
X154980000Y-88780000D01*
X114170001Y-89880001D02*
X153879999Y-89880001D01*
X113070000Y-88780000D02*
X114170001Y-89880001D01*
X196319999Y-89880001D02*
X197380000Y-88820000D01*
X156080001Y-89880001D02*
X196319999Y-89880001D01*
X154980000Y-88780000D02*
X156080001Y-89880001D01*
D22*
X72430000Y-88780000D02*
X67310000Y-83660000D01*
X67310000Y-83660000D02*
X67310000Y-53340000D01*
X67310000Y-53340000D02*
X69850000Y-50800000D01*
X69850000Y-50800000D02*
X77470000Y-50800000D01*
D23*
X87259999Y-94879999D02*
X86360000Y-93980000D01*
X87259999Y-96890001D02*
X87259999Y-94879999D01*
X85090000Y-99060000D02*
X87259999Y-96890001D01*
X128323332Y-94879999D02*
X127423333Y-93980000D01*
X128323332Y-96890001D02*
X128323332Y-94879999D01*
X126153333Y-99060000D02*
X128323332Y-96890001D01*
X170656665Y-94879999D02*
X169756666Y-93980000D01*
X170656665Y-96890001D02*
X170656665Y-94879999D01*
X168486666Y-99060000D02*
X170656665Y-96890001D01*
X212719999Y-94879999D02*
X211820000Y-93980000D01*
X212719999Y-96890001D02*
X212719999Y-94879999D01*
X210550000Y-99060000D02*
X212719999Y-96890001D01*
X217170000Y-93980000D02*
X218440000Y-92710000D01*
X211820000Y-93980000D02*
X217170000Y-93980000D01*
X218440000Y-96560000D02*
X220940000Y-99060000D01*
X218440000Y-92710000D02*
X218440000Y-96560000D01*
X175260000Y-93980000D02*
X176530000Y-92710000D01*
X169756666Y-93980000D02*
X175260000Y-93980000D01*
X176530000Y-96560000D02*
X179030000Y-99060000D01*
X176530000Y-92710000D02*
X176530000Y-96560000D01*
X133350000Y-93980000D02*
X134620000Y-92710000D01*
X127423333Y-93980000D02*
X133350000Y-93980000D01*
X134620000Y-96560000D02*
X137120000Y-99060000D01*
X134620000Y-92710000D02*
X134620000Y-96560000D01*
X91440000Y-93980000D02*
X92710000Y-92710000D01*
X86360000Y-93980000D02*
X91440000Y-93980000D01*
X92710000Y-96560000D02*
X95210000Y-99060000D01*
X92710000Y-92710000D02*
X92710000Y-96560000D01*
D22*
X105410000Y-139700000D02*
X103897500Y-139700000D01*
X107950000Y-142240000D02*
X105410000Y-139700000D01*
X101600000Y-137402500D02*
X101600000Y-130810000D01*
X103897500Y-139700000D02*
X101600000Y-137402500D01*
X94705001Y-115025001D02*
X99060000Y-119380000D01*
X87281999Y-115025001D02*
X94705001Y-115025001D01*
X86904999Y-114648001D02*
X87281999Y-115025001D01*
X86904999Y-107224999D02*
X86904999Y-114648001D01*
X81280000Y-101600000D02*
X86904999Y-107224999D01*
X99060000Y-133350000D02*
X100774990Y-133350000D01*
X68580000Y-48260000D02*
X71120000Y-48260000D01*
X84044999Y-49305001D02*
X85090000Y-48260000D01*
X72165001Y-49305001D02*
X84044999Y-49305001D01*
X71120000Y-48260000D02*
X72165001Y-49305001D01*
X82550000Y-105410000D02*
X82550000Y-104140000D01*
X85090000Y-107950000D02*
X82550000Y-105410000D01*
X97986998Y-128270000D02*
X105410000Y-128270000D01*
X72390000Y-97593002D02*
X73311999Y-98515001D01*
X83377499Y-107127999D02*
X83377499Y-113660501D01*
X83377499Y-113660501D02*
X97986998Y-128270000D01*
X74764501Y-98515001D02*
X83377499Y-107127999D01*
X73311999Y-98515001D02*
X74764501Y-98515001D01*
X72390000Y-95250000D02*
X72390000Y-97593002D01*
X88900000Y-119819412D02*
X88900000Y-121920000D01*
X73660000Y-104579412D02*
X88900000Y-119819412D01*
X73660000Y-100330000D02*
X73660000Y-104579412D01*
X100330000Y-119380000D02*
X100330000Y-115570000D01*
X95250000Y-124460000D02*
X100330000Y-119380000D01*
X149663002Y-129540000D02*
X134620000Y-129540000D01*
X150585001Y-128618001D02*
X149663002Y-129540000D01*
X150585001Y-98515001D02*
X150585001Y-128618001D01*
X147320000Y-95250000D02*
X150585001Y-98515001D01*
X151035011Y-97695011D02*
X146050000Y-92710000D01*
X129540000Y-137160000D02*
X136709990Y-129990010D01*
X151035011Y-128804401D02*
X151035011Y-97695011D01*
X149849403Y-129990009D02*
X151035011Y-128804401D01*
X136709990Y-129990010D02*
X149849403Y-129990009D01*
X149860000Y-139700000D02*
X157480000Y-139700000D01*
X138430000Y-130810000D02*
X143510000Y-130810000D01*
X129540000Y-120685552D02*
X135309381Y-126454933D01*
X129540000Y-115570000D02*
X129540000Y-120685552D01*
X120137489Y-100842511D02*
X120137489Y-111283041D01*
X128287776Y-114317776D02*
X129540000Y-115570000D01*
X135309381Y-126454933D02*
X136679761Y-126454933D01*
X123172224Y-114317776D02*
X128287776Y-114317776D01*
X120137489Y-111283041D02*
X123172224Y-114317776D01*
X120650000Y-100330000D02*
X120137489Y-100842511D01*
X110490000Y-48260000D02*
X113030000Y-48260000D01*
X125108332Y-49305001D02*
X126153333Y-48260000D01*
X114075001Y-49305001D02*
X125108332Y-49305001D01*
X113030000Y-48260000D02*
X114075001Y-49305001D01*
X109444999Y-66264999D02*
X111760000Y-68580000D01*
X109444999Y-49305001D02*
X109444999Y-66264999D01*
X110490000Y-48260000D02*
X109444999Y-49305001D01*
X135890000Y-81280000D02*
X135890000Y-76200000D01*
X134620000Y-82550000D02*
X135890000Y-81280000D01*
X135541999Y-128995001D02*
X149134999Y-128995001D01*
X149134999Y-128995001D02*
X149860000Y-128270000D01*
X118560010Y-101853012D02*
X118560010Y-111317010D01*
X123076998Y-119380000D02*
X126623000Y-119380000D01*
X135164999Y-127921999D02*
X135164999Y-128618001D01*
X126623000Y-119380000D02*
X135164999Y-127921999D01*
X122394999Y-118698001D02*
X123076998Y-119380000D01*
X122394999Y-115151999D02*
X122394999Y-118698001D01*
X135164999Y-128618001D02*
X135541999Y-128995001D01*
X114300000Y-93980000D02*
X113574999Y-94705001D01*
X118560010Y-111317010D02*
X122394999Y-115151999D01*
X113574999Y-96868001D02*
X118560010Y-101853012D01*
X113574999Y-94705001D02*
X113574999Y-96868001D01*
X137160000Y-119380000D02*
X135890000Y-118110000D01*
X137160000Y-124460000D02*
X137160000Y-119380000D01*
X118110000Y-119380000D02*
X124460000Y-125730000D01*
X118110000Y-102870000D02*
X118110000Y-119380000D01*
X114300000Y-99060000D02*
X118110000Y-102870000D01*
X142240000Y-121920000D02*
X135890000Y-128270000D01*
X142240000Y-115570000D02*
X142240000Y-121920000D01*
X189230000Y-116840000D02*
X179070000Y-127000000D01*
X189230000Y-93980000D02*
X189230000Y-116840000D01*
X177800000Y-138430000D02*
X175260000Y-135890000D01*
X175260000Y-135890000D02*
X173990000Y-135890000D01*
X161204999Y-120368001D02*
X161204999Y-106765001D01*
X164751999Y-123915001D02*
X161204999Y-120368001D01*
X166370000Y-123190000D02*
X165644999Y-123915001D01*
X165644999Y-123915001D02*
X164751999Y-123915001D01*
X161204999Y-106765001D02*
X161290000Y-106680000D01*
X168910000Y-101600000D02*
X173990000Y-101600000D01*
X176530000Y-83820000D02*
X176530000Y-78740000D01*
X175260000Y-85090000D02*
X176530000Y-83820000D01*
X187960000Y-134620000D02*
X187960000Y-139700000D01*
X187960000Y-139700000D02*
X196850000Y-139700000D01*
X173990000Y-133350000D02*
X185420000Y-133350000D01*
X167197499Y-112587499D02*
X168910000Y-114300000D01*
X167197499Y-104967499D02*
X167197499Y-112587499D01*
X162560000Y-100330000D02*
X167197499Y-104967499D01*
X152400000Y-48260000D02*
X154940000Y-48260000D01*
X167441665Y-49305001D02*
X168486666Y-48260000D01*
X155985001Y-49305001D02*
X167441665Y-49305001D01*
X154940000Y-48260000D02*
X155985001Y-49305001D01*
X152400000Y-48260000D02*
X149860000Y-50800000D01*
X149860000Y-50800000D02*
X149860000Y-64770000D01*
X149860000Y-64770000D02*
X153670000Y-68580000D01*
X168910000Y-104140000D02*
X168910000Y-107950000D01*
X170180000Y-102870000D02*
X168910000Y-104140000D01*
X170278499Y-119281501D02*
X170278499Y-120551501D01*
X180356997Y-130629999D02*
X189230000Y-130629999D01*
X171450000Y-118110000D02*
X170278499Y-119281501D01*
X171450000Y-116840000D02*
X171450000Y-118110000D01*
X167640000Y-115570000D02*
X170180000Y-115570000D01*
X165922501Y-113852501D02*
X167640000Y-115570000D01*
X165922501Y-106302499D02*
X165922501Y-113852501D01*
X155484999Y-96884998D02*
X164837500Y-106237499D01*
X164837500Y-106237499D02*
X165857501Y-106237499D01*
X170278499Y-120551501D02*
X180356997Y-130629999D01*
X156210000Y-93980000D02*
X155484999Y-94705001D01*
X170180000Y-115570000D02*
X171450000Y-116840000D01*
X155484999Y-94705001D02*
X155484999Y-96884998D01*
X165857501Y-106237499D02*
X165922501Y-106302499D01*
X191651097Y-125611097D02*
X191770000Y-125730000D01*
X189348903Y-125611097D02*
X191651097Y-125611097D01*
X164304999Y-117521999D02*
X164304999Y-122394999D01*
X162497499Y-115714499D02*
X164304999Y-117521999D01*
X164304999Y-122394999D02*
X165100000Y-123190000D01*
X162497499Y-105347499D02*
X162497499Y-115714499D01*
X156210000Y-99060000D02*
X162497499Y-105347499D01*
X179070000Y-115570000D02*
X172720000Y-121920000D01*
X180340000Y-115570000D02*
X179070000Y-115570000D01*
X203200000Y-135890000D02*
X200660000Y-138430000D01*
X190500000Y-97790000D02*
X190500000Y-123190000D01*
X190500000Y-123190000D02*
X200660000Y-133350000D01*
X213360000Y-137833002D02*
X213360000Y-137160000D01*
X215226998Y-139700000D02*
X213360000Y-137833002D01*
X220980000Y-139700000D02*
X215226998Y-139700000D01*
X214574999Y-79954999D02*
X213360000Y-78740000D01*
X216816001Y-79954999D02*
X214574999Y-79954999D01*
X224565001Y-87703999D02*
X216816001Y-79954999D01*
X224565001Y-117064999D02*
X224565001Y-87703999D01*
X208280000Y-133350000D02*
X224565001Y-117064999D01*
X227330000Y-129540000D02*
X227330000Y-120650000D01*
X226060000Y-130810000D02*
X227330000Y-129540000D01*
X195580000Y-48260000D02*
X198120000Y-48260000D01*
X199165001Y-49305001D02*
X209504999Y-49305001D01*
X209504999Y-49305001D02*
X210550000Y-48260000D01*
X198120000Y-48260000D02*
X199165001Y-49305001D01*
X195580000Y-48260000D02*
X194310000Y-48260000D01*
X193754999Y-66754999D02*
X195580000Y-68580000D01*
X193754999Y-48815001D02*
X193754999Y-66754999D01*
X194310000Y-48260000D02*
X193754999Y-48815001D01*
X210820000Y-105410000D02*
X210820000Y-107950000D01*
X212090000Y-104140000D02*
X210820000Y-105410000D01*
X224790000Y-73660000D02*
X224790000Y-73580000D01*
X220980000Y-77470000D02*
X224790000Y-73660000D01*
X214630000Y-78740000D02*
X224790000Y-68580000D01*
X201930000Y-101403002D02*
X201930000Y-127000000D01*
X197394999Y-96868001D02*
X201930000Y-101403002D01*
X197394999Y-94705001D02*
X197394999Y-96868001D01*
X198120000Y-93980000D02*
X197394999Y-94705001D01*
X192314999Y-104865001D02*
X192314999Y-111034999D01*
X192314999Y-111034999D02*
X195580000Y-114300000D01*
X198120000Y-99060000D02*
X192314999Y-104865001D01*
X193040000Y-115570000D02*
X198120000Y-115570000D01*
X81280000Y-97790000D02*
X82550000Y-99060000D01*
X73660000Y-97790000D02*
X81280000Y-97790000D01*
X121073333Y-96520000D02*
X123613333Y-99060000D01*
X114300000Y-96520000D02*
X121073333Y-96520000D01*
X163406666Y-96520000D02*
X165946666Y-99060000D01*
X163406666Y-96520000D02*
X156210000Y-96520000D01*
X201250000Y-74250000D02*
X201250000Y-68460000D01*
X204470000Y-77470000D02*
X201250000Y-74250000D01*
X217170000Y-71120000D02*
X217170000Y-68580000D01*
X210820000Y-77470000D02*
X217170000Y-71120000D01*
X205470000Y-96520000D02*
X208010000Y-99060000D01*
X205470000Y-96520000D02*
X198120000Y-96520000D01*
X74930000Y-91440000D02*
X100330000Y-91440000D01*
X90170000Y-110104502D02*
X90170000Y-114300000D01*
X92710000Y-107564502D02*
X90170000Y-110104502D01*
X92710000Y-105410000D02*
X92710000Y-107564502D01*
X115570000Y-91440000D02*
X142240000Y-91440000D01*
X126840000Y-123190000D02*
X131920000Y-128270000D01*
X125730000Y-123190000D02*
X126840000Y-123190000D01*
X157480000Y-91440000D02*
X184150000Y-91440000D01*
X168910000Y-123350000D02*
X173830000Y-128270000D01*
X168910000Y-120469999D02*
X168910000Y-123350000D01*
X219923002Y-88780000D02*
X220980000Y-88780000D01*
X217263002Y-91440000D02*
X219923002Y-88780000D01*
X199390000Y-91440000D02*
X217263002Y-91440000D01*
X214630000Y-104140000D02*
X218440000Y-107950000D01*
X87630000Y-114300000D02*
X87630000Y-102870000D01*
X93980000Y-66260000D02*
X95610000Y-64630000D01*
X93980000Y-81280000D02*
X93980000Y-66260000D01*
X102870000Y-101600000D02*
X102870000Y-92710000D01*
X120587499Y-106302499D02*
X124019998Y-102870000D01*
X120587499Y-110427499D02*
X120587499Y-106302499D01*
X124019998Y-102870000D02*
X130810000Y-102870000D01*
X123190000Y-113030000D02*
X120587499Y-110427499D01*
X137160000Y-81280000D02*
X137160000Y-64530000D01*
X144780000Y-92710000D02*
X146050000Y-91440000D01*
X144780000Y-101600000D02*
X144780000Y-92710000D01*
X137628001Y-63554999D02*
X135635001Y-63554999D01*
X138135001Y-64061999D02*
X137628001Y-63554999D01*
X138135001Y-64475001D02*
X138135001Y-64061999D01*
X135635001Y-63554999D02*
X134660000Y-64530000D01*
X141114999Y-67454999D02*
X138135001Y-64475001D01*
X141510001Y-67454999D02*
X141114999Y-67454999D01*
X143510000Y-69454998D02*
X141510001Y-67454999D01*
X143510000Y-71120000D02*
X143510000Y-69454998D01*
X185420000Y-116840000D02*
X185420000Y-92710000D01*
X179070000Y-123190000D02*
X185420000Y-116840000D01*
X187960000Y-99060000D02*
X187960000Y-91440000D01*
X186690000Y-100330000D02*
X187960000Y-99060000D01*
X177545001Y-63674999D02*
X176570000Y-64650000D01*
X179538001Y-63674999D02*
X177545001Y-63674999D01*
X180045001Y-64181999D02*
X179538001Y-63674999D01*
X180045001Y-64568003D02*
X180045001Y-64181999D01*
X181101999Y-65625001D02*
X180045001Y-64568003D01*
X186690000Y-70554315D02*
X181760686Y-65625001D01*
X181760686Y-65625001D02*
X181101999Y-65625001D01*
X186690000Y-71120000D02*
X186690000Y-70554315D01*
X222130000Y-63500000D02*
X220980000Y-64650000D01*
X225915001Y-65641999D02*
X223773002Y-63500000D01*
X225915001Y-76344999D02*
X225915001Y-65641999D01*
X223773002Y-63500000D02*
X222130000Y-63500000D01*
X220980000Y-81280000D02*
X225915001Y-76344999D01*
X72430000Y-80050000D02*
X78740000Y-86360000D01*
X72430000Y-64650000D02*
X72430000Y-80050000D01*
X78740000Y-101465194D02*
X81347403Y-104072597D01*
X78740000Y-99060000D02*
X78740000Y-101465194D01*
X113070000Y-80050000D02*
X120650000Y-87630000D01*
X113070000Y-64650000D02*
X113070000Y-80050000D01*
X119380000Y-99060000D02*
X119380000Y-102870000D01*
X138205001Y-111824999D02*
X131920000Y-118110000D01*
X138205001Y-107448399D02*
X138205001Y-111824999D01*
X136166602Y-105410000D02*
X138205001Y-107448399D01*
X124460000Y-105410000D02*
X136166602Y-105410000D01*
X154980000Y-80050000D02*
X162560000Y-87630000D01*
X154980000Y-64650000D02*
X154980000Y-80050000D01*
X161290000Y-101600000D02*
X165100000Y-105410000D01*
X161290000Y-97790000D02*
X161290000Y-101600000D01*
X197380000Y-81810000D02*
X204470000Y-88900000D01*
X197380000Y-64570000D02*
X197380000Y-81810000D01*
X203200000Y-108390002D02*
X212919998Y-118110000D01*
X212919998Y-118110000D02*
X215740000Y-118110000D01*
X203200000Y-99060000D02*
X203200000Y-108390002D01*
X104140000Y-138430000D02*
X104140000Y-134620000D01*
X101948001Y-130084999D02*
X104140000Y-132276998D01*
X96171999Y-130084999D02*
X101948001Y-130084999D01*
X104140000Y-132276998D02*
X104140000Y-134620000D01*
X90010000Y-136246998D02*
X96171999Y-130084999D01*
X90010000Y-138430000D02*
X90010000Y-136246998D01*
X96335001Y-93795001D02*
X95250000Y-92710000D01*
X95605002Y-100330000D02*
X96335001Y-99600001D01*
X96335001Y-99600001D02*
X96335001Y-93795001D01*
X80010000Y-100330000D02*
X95605002Y-100330000D01*
X82550000Y-92710000D02*
X83820000Y-93980000D01*
X72390000Y-92710000D02*
X82550000Y-92710000D01*
X146050000Y-134620000D02*
X146050000Y-140970000D01*
X143510000Y-138430000D02*
X146050000Y-140970000D01*
X131920000Y-138430000D02*
X143510000Y-138430000D01*
X137560001Y-100285001D02*
X138245001Y-99600001D01*
X138245001Y-93795001D02*
X137160000Y-92710000D01*
X121875001Y-100285001D02*
X137560001Y-100285001D01*
X138245001Y-99600001D02*
X138245001Y-93795001D01*
X120650000Y-99060000D02*
X121875001Y-100285001D01*
X123613333Y-92710000D02*
X124883333Y-93980000D01*
X113030000Y-92710000D02*
X123613333Y-92710000D01*
X186690000Y-139503002D02*
X186690000Y-132080000D01*
X188156998Y-140970000D02*
X186690000Y-139503002D01*
X189230000Y-140970000D02*
X188156998Y-140970000D01*
X174903002Y-139503002D02*
X186690000Y-139503002D01*
X173830000Y-138430000D02*
X174903002Y-139503002D01*
X179470001Y-100285001D02*
X180155001Y-99600001D01*
X180155001Y-99600001D02*
X180155001Y-93795001D01*
X163785001Y-100285001D02*
X179470001Y-100285001D01*
X180155001Y-93795001D02*
X179070000Y-92710000D01*
X162560000Y-99060000D02*
X163785001Y-100285001D01*
X165946666Y-92710000D02*
X167216666Y-93980000D01*
X154940000Y-92710000D02*
X165946666Y-92710000D01*
X220980000Y-133220000D02*
X215770000Y-138430000D01*
X220980000Y-123190000D02*
X220980000Y-133220000D01*
X215770000Y-138430000D02*
X226060000Y-138430000D01*
X222065001Y-99600001D02*
X222065001Y-93795001D01*
X222065001Y-93795001D02*
X220980000Y-92710000D01*
X221380001Y-100285001D02*
X222065001Y-99600001D01*
X205695001Y-100285001D02*
X221380001Y-100285001D01*
X204470000Y-99060000D02*
X205695001Y-100285001D01*
X208010000Y-92710000D02*
X209280000Y-93980000D01*
X196850000Y-92710000D02*
X208010000Y-92710000D01*
X109314989Y-129634989D02*
X113030000Y-133350000D01*
X90505011Y-129634989D02*
X109314989Y-129634989D01*
X81710000Y-138430000D02*
X90505011Y-129634989D01*
X153473002Y-134620000D02*
X156210000Y-134620000D01*
X146398001Y-141695001D02*
X153473002Y-134620000D01*
X126885001Y-141695001D02*
X146398001Y-141695001D01*
X123620000Y-138430000D02*
X126885001Y-141695001D01*
X172605001Y-131354999D02*
X191044999Y-131354999D01*
X191044999Y-131354999D02*
X198120000Y-138430000D01*
X165530000Y-138430000D02*
X172605001Y-131354999D01*
X92710000Y-110490000D02*
X95250000Y-107950000D01*
X92710000Y-113030000D02*
X92710000Y-110490000D01*
X135447499Y-109662501D02*
X137160000Y-107950000D01*
X124012501Y-109662501D02*
X135447499Y-109662501D01*
X122300000Y-107950000D02*
X124012501Y-109662501D01*
X175260000Y-104140000D02*
X179070000Y-107950000D01*
X198120000Y-105410000D02*
X199390000Y-105410000D01*
X195580000Y-107950000D02*
X198120000Y-105410000D01*
X219267499Y-109662501D02*
X220980000Y-107950000D01*
X207832501Y-109662501D02*
X219267499Y-109662501D01*
X206120000Y-107950000D02*
X207832501Y-109662501D01*
M02*
