M48
; DRILL file {KiCad (5.1.6-0-10_14)} date Saturday, January 01, 2022 at 10:05:11 PM
; FORMAT={-:-/ absolute / metric / decimal}
; #@! TF.CreationDate,2022-01-01T22:05:11+00:00
; #@! TF.GenerationSoftware,Kicad,Pcbnew,(5.1.6-0-10_14)
; #@! TF.FileFunction,Plated,1,2,PTH
FMAT,2
METRIC
T1C0.400
T2C0.800
T3C0.900
T4C1.000
T5C1.600
T6C1.800
T7C1.850
%
G90
G05
T1
X69.85Y-88.9
X72.39Y-92.71
X72.39Y-95.25
X73.66Y-97.79
X73.66Y-100.33
X74.93Y-91.44
X76.2Y-78.74
X76.682Y-143.51
X77.47Y-50.8
X78.74Y-86.36
X78.74Y-99.06
X80.01Y-100.33
X80.01Y-133.35
X81.28Y-101.6
X81.28Y-135.89
X81.347Y-104.073
X82.55Y-104.14
X82.55Y-130.81
X86.36Y-123.19
X87.63Y-102.87
X87.63Y-114.3
X88.9Y-121.92
X90.17Y-114.3
X90.17Y-123.19
X91.44Y-73.66
X92.71Y-105.41
X92.71Y-113.03
X92.71Y-118.11
X92.71Y-121.92
X93.98Y-81.28
X93.98Y-133.35
X93.98Y-138.43
X95.25Y-124.46
X95.25Y-128.27
X95.25Y-133.35
X97.79Y-133.35
X99.06Y-119.38
X99.06Y-133.35
X99.06Y-140.97
X100.33Y-91.44
X100.33Y-115.57
X100.775Y-133.35
X101.6Y-130.81
X102.87Y-92.71
X102.87Y-101.6
X102.87Y-140.97
X103.897Y-139.7
X104.14Y-118.11
X104.14Y-121.92
X104.14Y-134.62
X104.14Y-138.43
X105.41Y-92.71
X105.41Y-128.27
X105.41Y-138.43
X107.95Y-142.24
X113.03Y-92.71
X113.03Y-133.35
X114.3Y-93.98
X114.3Y-96.52
X114.3Y-99.06
X115.57Y-91.44
X119.38Y-99.06
X119.38Y-102.87
X120.65Y-87.63
X120.65Y-99.06
X120.65Y-100.33
X123.19Y-113.03
X124.46Y-105.41
X124.46Y-125.73
X125.73Y-123.19
X129.54Y-69.85
X129.54Y-137.16
X130.81Y-102.87
X132.08Y-72.39
X134.62Y-82.55
X134.62Y-129.54
X135.89Y-76.2
X135.89Y-118.11
X135.89Y-128.27
X136.68Y-126.455
X136.74Y-117.26
X137.16Y-81.28
X137.16Y-124.46
X138.43Y-130.81
X139.7Y-116.84
X140.97Y-140.97
X142.24Y-91.44
X142.24Y-115.57
X143.51Y-71.12
X143.51Y-130.81
X144.78Y-101.6
X144.78Y-140.97
X146.05Y-91.44
X146.05Y-92.71
X146.05Y-118.11
X146.05Y-123.19
X146.05Y-134.62
X146.05Y-140.97
X147.32Y-95.25
X147.32Y-138.43
X149.86Y-128.27
X149.86Y-139.7
X151.13Y-134.62
X154.94Y-92.71
X156.21Y-93.98
X156.21Y-96.52
X156.21Y-99.06
X156.21Y-134.62
X157.48Y-91.44
X157.48Y-139.7
X161.29Y-97.79
X161.29Y-106.68
X162.56Y-87.63
X162.56Y-99.06
X162.56Y-100.33
X165.1Y-105.41
X165.1Y-123.19
X166.37Y-123.19
X168.91Y-101.6
X168.91Y-114.3
X168.91Y-120.47
X170.18Y-102.87
X171.45Y-115.57
X172.72Y-121.92
X173.99Y-101.6
X173.99Y-133.35
X173.99Y-135.89
X175.26Y-85.09
X175.26Y-104.14
X175.26Y-116.84
X175.26Y-129.54
X176.53Y-78.74
X177.8Y-118.11
X177.8Y-127.0
X177.8Y-138.43
X179.07Y-123.19
X179.07Y-127.0
X180.34Y-115.57
X181.61Y-111.76
X182.88Y-140.97
X184.15Y-76.2
X184.15Y-91.44
X184.15Y-115.57
X185.42Y-92.71
X185.42Y-133.35
X186.69Y-71.12
X186.69Y-74.93
X186.69Y-83.82
X186.69Y-100.33
X186.69Y-132.08
X186.69Y-140.97
X187.96Y-91.44
X187.96Y-134.62
X187.96Y-139.7
X189.23Y-93.98
X189.23Y-130.63
X189.23Y-138.43
X189.23Y-140.97
X189.349Y-125.611
X190.5Y-97.79
X191.77Y-113.03
X191.77Y-116.84
X191.77Y-119.38
X191.77Y-125.73
X191.77Y-137.16
X193.04Y-83.82
X193.04Y-115.57
X195.58Y-114.3
X196.85Y-92.71
X196.85Y-118.11
X196.85Y-139.7
X198.12Y-93.98
X198.12Y-96.52
X198.12Y-99.06
X198.12Y-115.57
X198.12Y-138.43
X199.39Y-91.44
X199.39Y-105.41
X200.66Y-123.19
X200.66Y-133.35
X200.66Y-138.43
X201.93Y-127.0
X203.2Y-99.06
X203.2Y-130.81
X203.2Y-135.89
X204.47Y-77.47
X204.47Y-88.9
X204.47Y-99.06
X205.74Y-132.08
X205.74Y-134.62
X207.01Y-68.58
X208.28Y-78.74
X208.28Y-133.35
X210.82Y-77.47
X212.09Y-104.14
X213.36Y-78.74
X213.36Y-110.49
X213.36Y-137.16
X214.63Y-78.74
X214.63Y-104.14
X218.44Y-107.95
X218.44Y-120.65
X218.44Y-142.24
X220.98Y-77.47
X220.98Y-81.28
X220.98Y-110.49
X220.98Y-119.38
X220.98Y-123.19
X220.98Y-139.7
X222.25Y-133.35
X223.52Y-142.24
X226.06Y-130.81
X226.06Y-138.43
X227.33Y-120.65
X227.33Y-143.51
X227.345Y-133.366
T2
X195.58Y-68.58
X195.58Y-73.58
X218.44Y-99.06
X220.94Y-99.06
X137.16Y-107.95
X139.7Y-107.95
X142.24Y-107.95
X176.53Y-92.71
X179.07Y-92.71
X181.61Y-92.71
X69.85Y-107.95
X72.39Y-107.95
X74.93Y-107.95
X69.85Y-116.84
X72.35Y-116.84
X195.58Y-107.95
X198.12Y-107.95
X200.66Y-107.95
X176.53Y-99.06
X179.03Y-99.06
X110.49Y-48.26
X113.03Y-48.26
X115.57Y-48.26
X68.58Y-123.19
X71.08Y-123.19
X134.62Y-99.06
X137.12Y-99.06
X152.4Y-48.26
X154.94Y-48.26
X157.48Y-48.26
X224.79Y-68.58
X224.79Y-73.58
X123.613Y-99.06
X124.883Y-93.98
X126.153Y-48.26
X126.153Y-96.52
X126.153Y-99.06
X127.423Y-93.98
X128.693Y-99.06
X179.07Y-107.95
X181.61Y-107.95
X184.15Y-107.95
X92.71Y-99.06
X95.21Y-99.06
X208.01Y-99.06
X209.28Y-93.98
X210.55Y-48.26
X210.55Y-96.52
X210.55Y-99.06
X211.82Y-93.98
X213.09Y-99.06
X218.44Y-92.71
X220.98Y-92.71
X223.52Y-92.71
X92.71Y-92.71
X95.25Y-92.71
X97.79Y-92.71
X111.76Y-68.58
X111.76Y-73.58
X69.85Y-68.58
X69.85Y-73.58
X220.98Y-107.95
X223.52Y-107.95
X226.06Y-107.95
X111.76Y-107.95
X114.3Y-107.95
X116.84Y-107.95
X195.58Y-48.26
X198.12Y-48.26
X200.66Y-48.26
X153.67Y-68.58
X153.67Y-73.58
X165.947Y-99.06
X167.217Y-93.98
X168.487Y-48.26
X168.487Y-96.52
X168.487Y-99.06
X169.757Y-93.98
X171.027Y-99.06
X140.97Y-68.58
X140.97Y-73.58
X100.33Y-68.66
X100.33Y-73.66
X95.25Y-107.95
X97.79Y-107.95
X100.33Y-107.95
X134.62Y-92.71
X137.16Y-92.71
X139.7Y-92.71
X182.88Y-68.58
X182.88Y-73.58
X153.67Y-107.95
X156.21Y-107.95
X158.75Y-107.95
X68.58Y-48.26
X71.12Y-48.26
X73.66Y-48.26
X82.55Y-99.06
X83.82Y-93.98
X85.09Y-48.26
X85.09Y-96.52
X85.09Y-99.06
X86.36Y-93.98
X87.63Y-99.06
T3
X74.93Y-68.58
X77.47Y-68.58
X201.25Y-68.46
X203.79Y-68.46
X116.84Y-68.58
X119.38Y-68.58
X158.75Y-68.58
X161.29Y-68.58
X133.35Y-68.58
X135.89Y-68.58
X92.71Y-68.58
X95.25Y-68.58
X217.17Y-68.58
X219.71Y-68.58
X175.26Y-68.58
X177.8Y-68.58
T4
X113.07Y-88.78
X115.57Y-88.78
X118.07Y-88.78
X197.38Y-88.82
X199.88Y-88.82
X202.38Y-88.82
X91.84Y-88.76
X94.34Y-88.76
X96.84Y-88.76
X218.48Y-88.78
X220.98Y-88.78
X223.48Y-88.78
X154.98Y-64.65
X157.48Y-64.65
X159.98Y-64.65
X93.11Y-64.63
X95.61Y-64.63
X98.11Y-64.63
X134.66Y-64.53
X137.16Y-64.53
X139.66Y-64.53
X72.43Y-88.78
X74.93Y-88.78
X77.43Y-88.78
X154.98Y-88.78
X157.48Y-88.78
X159.98Y-88.78
X113.07Y-64.65
X115.57Y-64.65
X118.07Y-64.65
X72.43Y-64.65
X74.93Y-64.65
X77.43Y-64.65
X176.57Y-88.78
X179.07Y-88.78
X181.57Y-88.78
X134.66Y-88.78
X137.16Y-88.78
X139.66Y-88.78
X69.85Y-129.54
X69.85Y-132.08
X69.85Y-134.62
X69.85Y-137.16
X69.85Y-139.7
X72.39Y-129.54
X72.39Y-132.08
X72.39Y-134.62
X72.39Y-137.16
X72.39Y-139.7
X197.38Y-64.57
X199.88Y-64.57
X202.38Y-64.57
X218.48Y-64.65
X220.98Y-64.65
X223.48Y-64.65
X176.57Y-64.65
X179.07Y-64.65
X181.57Y-64.65
T5
X204.37Y-128.27
X207.47Y-128.27
X215.77Y-128.27
X78.61Y-138.43
X81.71Y-138.43
X90.01Y-138.43
X78.61Y-128.27
X81.71Y-128.27
X90.01Y-128.27
X120.52Y-118.11
X123.62Y-118.11
X131.92Y-118.11
X204.37Y-138.43
X207.47Y-138.43
X215.77Y-138.43
X162.43Y-128.27
X165.53Y-128.27
X173.83Y-128.27
X78.61Y-118.11
X81.71Y-118.11
X90.01Y-118.11
X204.34Y-118.11
X207.44Y-118.11
X215.74Y-118.11
X120.52Y-128.27
X123.62Y-128.27
X131.92Y-128.27
X162.43Y-138.43
X165.53Y-138.43
X173.83Y-138.43
X162.43Y-118.11
X165.53Y-118.11
X173.83Y-118.11
X120.52Y-138.43
X123.62Y-138.43
X131.92Y-138.43
T6
X152.68Y-57.15
X162.28Y-57.15
X90.81Y-57.13
X100.41Y-57.13
X132.36Y-57.03
X141.96Y-57.03
X70.13Y-81.28
X79.73Y-81.28
X152.68Y-81.28
X162.28Y-81.28
X110.77Y-57.15
X120.37Y-57.15
X70.13Y-57.15
X79.73Y-57.15
X174.27Y-81.28
X183.87Y-81.28
X132.36Y-81.28
X141.96Y-81.28
X195.08Y-57.07
X204.68Y-57.07
X216.18Y-57.15
X225.78Y-57.15
X174.27Y-57.15
X183.87Y-57.15
X110.77Y-81.28
X120.37Y-81.28
X195.08Y-81.32
X204.68Y-81.32
X89.54Y-81.26
X99.14Y-81.26
X216.18Y-81.28
X225.78Y-81.28
T7
X122.3Y-107.95
X127.0Y-107.95
X131.7Y-107.95
X206.12Y-107.95
X210.82Y-107.95
X215.52Y-107.95
X80.39Y-107.95
X85.09Y-107.95
X89.79Y-107.95
X164.21Y-107.95
X168.91Y-107.95
X173.61Y-107.95
T0
M30
