%FSLAX45Y45*%
G04 Gerber Fmt 4.5, Leading zero omitted, Abs format (unit mm)*
G04 Created by KiCad (PCBNEW (5.1.6-0-10_14)) date 2022-01-17 10:45:19*
%MOMM*%
%LPD*%
G01*
G04 APERTURE LIST*
%TA.AperFunction,Profile*%
%ADD10C,0.050000*%
%TD*%
%ADD11C,0.200000*%
%ADD12C,0.300000*%
G04 APERTURE END LIST*
D10*
X6604000Y-14478000D02*
X22860000Y-14478000D01*
X6604000Y-4445000D02*
X6604000Y-14478000D01*
X22860000Y-4445000D02*
X6604000Y-4445000D01*
X22860000Y-14478000D02*
X22860000Y-4445000D01*
D11*
D12*
X6887928Y-14946214D02*
X6887928Y-14646214D01*
X6959357Y-14646214D01*
X7002214Y-14660500D01*
X7030786Y-14689071D01*
X7045071Y-14717643D01*
X7059357Y-14774786D01*
X7059357Y-14817643D01*
X7045071Y-14874786D01*
X7030786Y-14903357D01*
X7002214Y-14931929D01*
X6959357Y-14946214D01*
X6887928Y-14946214D01*
X7187928Y-14946214D02*
X7187928Y-14746214D01*
X7187928Y-14803357D02*
X7202214Y-14774786D01*
X7216500Y-14760500D01*
X7245071Y-14746214D01*
X7273643Y-14746214D01*
X7373643Y-14946214D02*
X7373643Y-14746214D01*
X7373643Y-14646214D02*
X7359357Y-14660500D01*
X7373643Y-14674786D01*
X7387928Y-14660500D01*
X7373643Y-14646214D01*
X7373643Y-14674786D01*
X7559357Y-14946214D02*
X7530786Y-14931929D01*
X7516500Y-14903357D01*
X7516500Y-14646214D01*
X7716500Y-14946214D02*
X7687928Y-14931929D01*
X7673643Y-14903357D01*
X7673643Y-14646214D01*
X8059357Y-14946214D02*
X8059357Y-14646214D01*
X8159357Y-14860500D01*
X8259357Y-14646214D01*
X8259357Y-14946214D01*
X8530786Y-14946214D02*
X8530786Y-14789071D01*
X8516500Y-14760500D01*
X8487928Y-14746214D01*
X8430786Y-14746214D01*
X8402214Y-14760500D01*
X8530786Y-14931929D02*
X8502214Y-14946214D01*
X8430786Y-14946214D01*
X8402214Y-14931929D01*
X8387928Y-14903357D01*
X8387928Y-14874786D01*
X8402214Y-14846214D01*
X8430786Y-14831929D01*
X8502214Y-14831929D01*
X8530786Y-14817643D01*
X8673643Y-14746214D02*
X8673643Y-15046214D01*
X8673643Y-14760500D02*
X8702214Y-14746214D01*
X8759357Y-14746214D01*
X8787928Y-14760500D01*
X8802214Y-14774786D01*
X8816500Y-14803357D01*
X8816500Y-14889071D01*
X8802214Y-14917643D01*
X8787928Y-14931929D01*
X8759357Y-14946214D01*
X8702214Y-14946214D01*
X8673643Y-14931929D01*
X8945071Y-14917643D02*
X8959357Y-14931929D01*
X8945071Y-14946214D01*
X8930786Y-14931929D01*
X8945071Y-14917643D01*
X8945071Y-14946214D01*
X8945071Y-14760500D02*
X8959357Y-14774786D01*
X8945071Y-14789071D01*
X8930786Y-14774786D01*
X8945071Y-14760500D01*
X8945071Y-14789071D01*
M02*
