%FSLAX45Y45*%
G04 Gerber Fmt 4.5, Leading zero omitted, Abs format (unit mm)*
G04 Created by KiCad (PCBNEW (5.1.6-0-10_14)) date 2022-01-18 21:48:43*
%MOMM*%
%LPD*%
G01*
G04 APERTURE LIST*
%TA.AperFunction,Profile*%
%ADD10C,0.050000*%
%TD*%
%ADD11C,0.200000*%
%ADD12C,0.300000*%
G04 APERTURE END LIST*
D10*
X6604000Y-14478000D02*
X22860000Y-14478000D01*
X6604000Y-4445000D02*
X6604000Y-14478000D01*
X22860000Y-4445000D02*
X6604000Y-4445000D01*
X22860000Y-14478000D02*
X22860000Y-4445000D01*
D11*
X7142800Y-7676200D02*
X7182800Y-7716200D01*
X7182800Y-7676200D02*
X7142800Y-7716200D01*
X7219000Y-6876100D02*
X7259000Y-6916100D01*
X7259000Y-6876100D02*
X7219000Y-6916100D01*
X7371891Y-10012509D02*
X7411891Y-10052509D01*
X7411891Y-10012509D02*
X7371891Y-10052509D01*
X7422200Y-8616000D02*
X7462200Y-8656000D01*
X7462200Y-8616000D02*
X7422200Y-8656000D01*
X7447600Y-6876100D02*
X7487600Y-6916100D01*
X7487600Y-6876100D02*
X7447600Y-6916100D01*
X7498400Y-7676200D02*
X7538400Y-7716200D01*
X7538400Y-7676200D02*
X7498400Y-7716200D01*
X7600000Y-7434900D02*
X7640000Y-7474900D01*
X7640000Y-7434900D02*
X7600000Y-7474900D01*
X7841300Y-7739700D02*
X7881300Y-7779700D01*
X7881300Y-7739700D02*
X7841300Y-7779700D01*
X7904800Y-9060500D02*
X7944800Y-9100500D01*
X7944800Y-9060500D02*
X7904800Y-9100500D01*
X8057200Y-9263700D02*
X8097200Y-9303700D01*
X8097200Y-9263700D02*
X8057200Y-9303700D01*
X8158800Y-9365300D02*
X8198800Y-9405300D01*
X8198800Y-9365300D02*
X8158800Y-9405300D01*
X8247700Y-10343200D02*
X8287700Y-10383200D01*
X8287700Y-10343200D02*
X8247700Y-10383200D01*
X8362000Y-8768400D02*
X8402000Y-8808400D01*
X8402000Y-8768400D02*
X8362000Y-8808400D01*
X8362000Y-8868400D02*
X8402000Y-8908400D01*
X8402000Y-8868400D02*
X8362000Y-8908400D01*
X8425500Y-7638100D02*
X8465500Y-7678100D01*
X8465500Y-7638100D02*
X8425500Y-7678100D01*
X8425500Y-13353100D02*
X8465500Y-13393100D01*
X8465500Y-13353100D02*
X8425500Y-13393100D01*
X8514400Y-13264200D02*
X8554400Y-13304200D01*
X8554400Y-13264200D02*
X8514400Y-13304200D01*
X8616000Y-13162600D02*
X8656000Y-13202600D01*
X8656000Y-13162600D02*
X8616000Y-13202600D01*
X8641400Y-8768400D02*
X8681400Y-8808400D01*
X8681400Y-8768400D02*
X8641400Y-8808400D01*
X8641400Y-8870000D02*
X8681400Y-8910000D01*
X8681400Y-8870000D02*
X8641400Y-8910000D01*
X8704900Y-6799900D02*
X8744900Y-6839900D01*
X8744900Y-6799900D02*
X8704900Y-6839900D01*
X8755700Y-12108500D02*
X8795700Y-12148500D01*
X8795700Y-12108500D02*
X8755700Y-12148500D01*
X8781100Y-7930200D02*
X8821100Y-7970200D01*
X8821100Y-7930200D02*
X8781100Y-7970200D01*
X8908100Y-13467400D02*
X8948100Y-13507400D01*
X8948100Y-13467400D02*
X8908100Y-13507400D01*
X8946200Y-12095800D02*
X8986200Y-12135800D01*
X8986200Y-12095800D02*
X8946200Y-12135800D01*
X8958900Y-10254300D02*
X8998900Y-10294300D01*
X8998900Y-10254300D02*
X8958900Y-10294300D01*
X9047800Y-7663500D02*
X9087800Y-7703500D01*
X9087800Y-7663500D02*
X9047800Y-7703500D01*
X9073200Y-14254800D02*
X9113200Y-14294800D01*
X9113200Y-14254800D02*
X9073200Y-14294800D01*
X9212900Y-11029000D02*
X9252900Y-11069000D01*
X9252900Y-11029000D02*
X9212900Y-11069000D01*
X9263700Y-10241600D02*
X9303700Y-10281600D01*
X9303700Y-10241600D02*
X9263700Y-10281600D01*
X9327200Y-12197400D02*
X9367200Y-12237400D01*
X9367200Y-12197400D02*
X9327200Y-12237400D01*
X9454200Y-11130600D02*
X9494200Y-11170600D01*
X9494200Y-11130600D02*
X9454200Y-11170600D01*
X9517700Y-13403900D02*
X9557700Y-13443900D01*
X9557700Y-13403900D02*
X9517700Y-13443900D01*
X9619300Y-12375200D02*
X9659300Y-12415200D01*
X9659300Y-12375200D02*
X9619300Y-12415200D01*
X9695500Y-14229400D02*
X9735500Y-14269400D01*
X9735500Y-14229400D02*
X9695500Y-14269400D01*
X9822500Y-11841800D02*
X9862500Y-11881800D01*
X9862500Y-11841800D02*
X9822500Y-11881800D01*
X9847900Y-12108500D02*
X9887900Y-12148500D01*
X9887900Y-12108500D02*
X9847900Y-12148500D01*
X9886000Y-10609900D02*
X9926000Y-10649900D01*
X9926000Y-10609900D02*
X9886000Y-10649900D01*
X9886000Y-13403900D02*
X9926000Y-13443900D01*
X9926000Y-13403900D02*
X9886000Y-13443900D01*
X9924100Y-12197400D02*
X9964100Y-12237400D01*
X9964100Y-12197400D02*
X9924100Y-12237400D01*
X9962200Y-11968800D02*
X10002200Y-12008800D01*
X10002200Y-11968800D02*
X9962200Y-12008800D01*
X9974900Y-11130600D02*
X10014900Y-11170600D01*
X10014900Y-11130600D02*
X9974900Y-11170600D01*
X10140000Y-13327700D02*
X10180000Y-13367700D01*
X10180000Y-13327700D02*
X10140000Y-13367700D01*
X10190800Y-11359200D02*
X10230800Y-11399200D01*
X10230800Y-11359200D02*
X10190800Y-11399200D01*
X10280334Y-10801034D02*
X10320334Y-10841034D01*
X10320334Y-10801034D02*
X10280334Y-10841034D01*
X10292400Y-14229400D02*
X10332400Y-14269400D01*
X10332400Y-14229400D02*
X10292400Y-14269400D01*
X10330500Y-11130600D02*
X10370500Y-11170600D01*
X10370500Y-11130600D02*
X10330500Y-11170600D01*
X10364700Y-9670100D02*
X10404700Y-9710100D01*
X10404700Y-9670100D02*
X10364700Y-9710100D01*
X10381300Y-12146600D02*
X10421300Y-12186600D01*
X10421300Y-12146600D02*
X10381300Y-12186600D01*
X10432100Y-12032300D02*
X10472100Y-12072300D01*
X10472100Y-12032300D02*
X10432100Y-12072300D01*
X10470200Y-9581200D02*
X10510200Y-9621200D01*
X10510200Y-9581200D02*
X10470200Y-9621200D01*
X10571800Y-9746300D02*
X10611800Y-9786300D01*
X10611800Y-9746300D02*
X10571800Y-9786300D01*
X10686100Y-11029000D02*
X10726100Y-11069000D01*
X10726100Y-11029000D02*
X10686100Y-11069000D01*
X10902000Y-11105200D02*
X10942000Y-11145200D01*
X10942000Y-11105200D02*
X10902000Y-11145200D01*
X10914700Y-10838500D02*
X10954700Y-10878500D01*
X10954700Y-10838500D02*
X10914700Y-10878500D01*
X10914700Y-12921300D02*
X10954700Y-12961300D01*
X10954700Y-12921300D02*
X10914700Y-12961300D01*
X10914700Y-13924600D02*
X10954700Y-13964600D01*
X10954700Y-13924600D02*
X10914700Y-13964600D01*
X11168700Y-13937300D02*
X11208700Y-13977300D01*
X11208700Y-13937300D02*
X11168700Y-13977300D01*
X11384600Y-11117900D02*
X11424600Y-11157900D01*
X11424600Y-11117900D02*
X11384600Y-11157900D01*
X11384600Y-12934000D02*
X11424600Y-12974000D01*
X11424600Y-12934000D02*
X11384600Y-12974000D01*
X11498900Y-13924600D02*
X11538900Y-13964600D01*
X11538900Y-13924600D02*
X11498900Y-13964600D01*
X11511600Y-12464100D02*
X11551600Y-12504100D01*
X11551600Y-12464100D02*
X11511600Y-12504100D01*
X11511600Y-12768900D02*
X11551600Y-12808900D01*
X11551600Y-12768900D02*
X11511600Y-12808900D01*
X11765600Y-7422200D02*
X11805600Y-7462200D01*
X11805600Y-7422200D02*
X11765600Y-7462200D01*
X11943400Y-8958900D02*
X11983400Y-8998900D01*
X11983400Y-8958900D02*
X11943400Y-8998900D01*
X11943400Y-13010200D02*
X11983400Y-13050200D01*
X11983400Y-13010200D02*
X11943400Y-13050200D01*
X11981500Y-12299000D02*
X12021500Y-12339000D01*
X12021500Y-12299000D02*
X11981500Y-12339000D01*
X12057700Y-9022400D02*
X12097700Y-9062400D01*
X12097700Y-9022400D02*
X12057700Y-9062400D01*
X12172000Y-9238300D02*
X12212000Y-9278300D01*
X12212000Y-9238300D02*
X12172000Y-9278300D01*
X12184700Y-8743000D02*
X12224700Y-8783000D01*
X12224700Y-8743000D02*
X12184700Y-8783000D01*
X12268833Y-9009700D02*
X12308833Y-9049700D01*
X12308833Y-9009700D02*
X12268833Y-9049700D01*
X12426000Y-9568500D02*
X12466000Y-9608500D01*
X12466000Y-9568500D02*
X12426000Y-9608500D01*
X12451400Y-8781100D02*
X12491400Y-8821100D01*
X12491400Y-8781100D02*
X12451400Y-8821100D01*
X12451400Y-8882700D02*
X12491400Y-8922700D01*
X12491400Y-8882700D02*
X12451400Y-8922700D01*
X12489500Y-13530900D02*
X12529500Y-13570900D01*
X12529500Y-13530900D02*
X12489500Y-13570900D01*
X12565700Y-7612700D02*
X12605700Y-7652700D01*
X12605700Y-7612700D02*
X12565700Y-7652700D01*
X12692700Y-8781100D02*
X12732700Y-8821100D01*
X12732700Y-8781100D02*
X12692700Y-8821100D01*
X12692700Y-8882700D02*
X12732700Y-8922700D01*
X12732700Y-8882700D02*
X12692700Y-8922700D01*
X12781600Y-6850700D02*
X12821600Y-6890700D01*
X12821600Y-6850700D02*
X12781600Y-6890700D01*
X12895900Y-12413300D02*
X12935900Y-12453300D01*
X12935900Y-12413300D02*
X12895900Y-12453300D01*
X12959400Y-10457500D02*
X12999400Y-10497500D01*
X12999400Y-10457500D02*
X12959400Y-10497500D01*
X13086400Y-11029000D02*
X13126400Y-11069000D01*
X13126400Y-11029000D02*
X13086400Y-11069000D01*
X13099100Y-6952300D02*
X13139100Y-6992300D01*
X13139100Y-6952300D02*
X13099100Y-6992300D01*
X13124500Y-11206800D02*
X13164500Y-11246800D01*
X13164500Y-11206800D02*
X13124500Y-11246800D01*
X13137200Y-8577900D02*
X13177200Y-8617900D01*
X13177200Y-8577900D02*
X13137200Y-8617900D01*
X13168300Y-12413300D02*
X13208300Y-12453300D01*
X13208300Y-12413300D02*
X13168300Y-12453300D01*
X13315000Y-6622100D02*
X13355000Y-6662100D01*
X13355000Y-6622100D02*
X13315000Y-6662100D01*
X13327700Y-11054400D02*
X13367700Y-11094400D01*
X13367700Y-11054400D02*
X13327700Y-11094400D01*
X13327700Y-11994200D02*
X13367700Y-12034200D01*
X13367700Y-11994200D02*
X13327700Y-12034200D01*
X13340400Y-13518200D02*
X13380400Y-13558200D01*
X13380400Y-13518200D02*
X13340400Y-13558200D01*
X13353100Y-12959400D02*
X13393100Y-12999400D01*
X13393100Y-12959400D02*
X13353100Y-12999400D01*
X13378500Y-13137200D02*
X13418500Y-13177200D01*
X13418500Y-13137200D02*
X13378500Y-13177200D01*
X13416600Y-11181400D02*
X13456600Y-11221400D01*
X13456600Y-11181400D02*
X13416600Y-11221400D01*
X13429300Y-8577900D02*
X13469300Y-8617900D01*
X13469300Y-8577900D02*
X13429300Y-8617900D01*
X13581700Y-11041700D02*
X13621700Y-11081700D01*
X13621700Y-11041700D02*
X13581700Y-11081700D01*
X13683300Y-12362500D02*
X13723300Y-12402500D01*
X13723300Y-12362500D02*
X13683300Y-12402500D01*
X13797600Y-12184700D02*
X13837600Y-12224700D01*
X13837600Y-12184700D02*
X13797600Y-12224700D01*
X13810300Y-12667300D02*
X13850300Y-12707300D01*
X13850300Y-12667300D02*
X13810300Y-12707300D01*
X13823000Y-12083100D02*
X13863000Y-12123100D01*
X13863000Y-12083100D02*
X13823000Y-12123100D01*
X13873800Y-11702100D02*
X13913800Y-11742100D01*
X13913800Y-11702100D02*
X13873800Y-11742100D01*
X14178600Y-11702100D02*
X14218600Y-11742100D01*
X14218600Y-11702100D02*
X14178600Y-11742100D01*
X14242100Y-11460800D02*
X14282100Y-11500800D01*
X14282100Y-11460800D02*
X14242100Y-11500800D01*
X14242100Y-11575100D02*
X14282100Y-11615100D01*
X14282100Y-11575100D02*
X14242100Y-11615100D01*
X14280200Y-11930700D02*
X14320200Y-11970700D01*
X14320200Y-11930700D02*
X14280200Y-11970700D01*
X14305600Y-10457500D02*
X14345600Y-10497500D01*
X14345600Y-10457500D02*
X14305600Y-10497500D01*
X14305600Y-12172000D02*
X14345600Y-12212000D01*
X14345600Y-12172000D02*
X14305600Y-12212000D01*
X14305600Y-13035600D02*
X14345600Y-13075600D01*
X14345600Y-13035600D02*
X14305600Y-13075600D01*
X14369100Y-11879900D02*
X14409100Y-11919900D01*
X14409100Y-11879900D02*
X14369100Y-11919900D01*
X14369100Y-12019600D02*
X14409100Y-12059600D01*
X14409100Y-12019600D02*
X14369100Y-12059600D01*
X14407200Y-10749600D02*
X14447200Y-10789600D01*
X14447200Y-10749600D02*
X14407200Y-10789600D01*
X14546900Y-13289600D02*
X14586900Y-13329600D01*
X14586900Y-13289600D02*
X14546900Y-13329600D01*
X14591250Y-12324400D02*
X14631250Y-12364400D01*
X14631250Y-12324400D02*
X14591250Y-12364400D01*
X14635800Y-11359200D02*
X14675800Y-11399200D01*
X14675800Y-11359200D02*
X14635800Y-11399200D01*
X14648500Y-10849000D02*
X14688500Y-10889000D01*
X14688500Y-10849000D02*
X14648500Y-10889000D01*
X14648990Y-9721391D02*
X14688990Y-9761391D01*
X14688990Y-9721391D02*
X14648990Y-9761391D01*
X14737400Y-13950000D02*
X14777400Y-13990000D01*
X14777400Y-13950000D02*
X14737400Y-13990000D01*
X14775500Y-13683300D02*
X14815500Y-13723300D01*
X14815500Y-13683300D02*
X14775500Y-13723300D01*
X14788200Y-10787700D02*
X14828200Y-10827700D01*
X14828200Y-10787700D02*
X14788200Y-10827700D01*
X14800900Y-10190800D02*
X14840900Y-10230800D01*
X14840900Y-10190800D02*
X14800900Y-10230800D01*
X14800900Y-13276900D02*
X14840900Y-13316900D01*
X14840900Y-13276900D02*
X14800900Y-13316900D01*
X14873400Y-10381300D02*
X14913400Y-10421300D01*
X14913400Y-10381300D02*
X14873400Y-10421300D01*
X14915200Y-11994200D02*
X14955200Y-12034200D01*
X14955200Y-11994200D02*
X14915200Y-12034200D01*
X14940600Y-11778300D02*
X14980600Y-11818300D01*
X14980600Y-11778300D02*
X14940600Y-11818300D01*
X14953300Y-11092500D02*
X14993300Y-11132500D01*
X14993300Y-11092500D02*
X14953300Y-11132500D01*
X14991400Y-10838500D02*
X15031400Y-10878500D01*
X15031400Y-10838500D02*
X14991400Y-10878500D01*
X15016800Y-11206800D02*
X15056800Y-11246800D01*
X15056800Y-11206800D02*
X15016800Y-11246800D01*
X15016800Y-13861100D02*
X15056800Y-13901100D01*
X15056800Y-13861100D02*
X15016800Y-13901100D01*
X15105700Y-11473500D02*
X15145700Y-11513500D01*
X15145700Y-11473500D02*
X15105700Y-11513500D01*
X15116805Y-10840095D02*
X15156805Y-10880095D01*
X15156805Y-10840095D02*
X15116805Y-10880095D01*
X15131100Y-11295700D02*
X15171100Y-11335700D01*
X15171100Y-11295700D02*
X15131100Y-11335700D01*
X15135000Y-11854500D02*
X15175000Y-11894500D01*
X15175000Y-11854500D02*
X15135000Y-11894500D01*
X15181900Y-13073700D02*
X15221900Y-13113700D01*
X15221900Y-13073700D02*
X15181900Y-13113700D01*
X15486700Y-12654600D02*
X15526700Y-12694600D01*
X15526700Y-12654600D02*
X15486700Y-12694600D01*
X16032800Y-9035100D02*
X16072800Y-9075100D01*
X16072800Y-9035100D02*
X16032800Y-9075100D01*
X16210600Y-9022400D02*
X16250600Y-9062400D01*
X16250600Y-9022400D02*
X16210600Y-9062400D01*
X16261400Y-7473000D02*
X16301400Y-7513000D01*
X16301400Y-7473000D02*
X16261400Y-7513000D01*
X16413800Y-9263700D02*
X16453800Y-9303700D01*
X16453800Y-9263700D02*
X16413800Y-9303700D01*
X16451900Y-8171500D02*
X16491900Y-8211500D01*
X16491900Y-8171500D02*
X16451900Y-8211500D01*
X16490000Y-9073200D02*
X16530000Y-9113200D01*
X16530000Y-9073200D02*
X16490000Y-9113200D01*
X16667800Y-8539800D02*
X16707800Y-8579800D01*
X16707800Y-8539800D02*
X16667800Y-8579800D01*
X16693200Y-8806500D02*
X16733200Y-8846500D01*
X16733200Y-8806500D02*
X16693200Y-8846500D01*
X16693200Y-8920800D02*
X16733200Y-8960800D01*
X16733200Y-8920800D02*
X16693200Y-8960800D01*
X16769400Y-8133400D02*
X16809400Y-8173400D01*
X16809400Y-8133400D02*
X16769400Y-8173400D01*
X16769400Y-8412800D02*
X16809400Y-8452800D01*
X16809400Y-8412800D02*
X16769400Y-8452800D01*
X16820200Y-7854051D02*
X16860200Y-7894051D01*
X16860200Y-7854051D02*
X16820200Y-7894051D01*
X16998000Y-8806500D02*
X17038000Y-8846500D01*
X17038000Y-8806500D02*
X16998000Y-8846500D01*
X16998000Y-8920800D02*
X17038000Y-8960800D01*
X17038000Y-8920800D02*
X16998000Y-8960800D01*
X17048800Y-6863400D02*
X17088800Y-6903400D01*
X17088800Y-6863400D02*
X17048800Y-6903400D01*
X17137700Y-13289600D02*
X17177700Y-13329600D01*
X17177700Y-13289600D02*
X17137700Y-13329600D01*
X17156199Y-11892600D02*
X17196199Y-11932600D01*
X17196199Y-11892600D02*
X17156199Y-11932600D01*
X17201200Y-12057700D02*
X17241200Y-12097700D01*
X17241200Y-12057700D02*
X17201200Y-12097700D01*
X17201200Y-12159300D02*
X17241200Y-12199300D01*
X17241200Y-12159300D02*
X17201200Y-12199300D01*
X17327735Y-11168235D02*
X17367735Y-11208235D01*
X17367735Y-11168235D02*
X17327735Y-11208235D01*
X17340900Y-12629200D02*
X17380900Y-12669200D01*
X17380900Y-12629200D02*
X17340900Y-12669200D01*
X17366300Y-6520500D02*
X17406300Y-6560500D01*
X17406300Y-6520500D02*
X17366300Y-6560500D01*
X17366300Y-6926900D02*
X17406300Y-6966900D01*
X17406300Y-6926900D02*
X17366300Y-6966900D01*
X17366300Y-9085900D02*
X17406300Y-9125900D01*
X17406300Y-9085900D02*
X17366300Y-9125900D01*
X17366300Y-9809800D02*
X17406300Y-9849800D01*
X17406300Y-9809800D02*
X17366300Y-9849800D01*
X17391700Y-11054400D02*
X17431700Y-11094400D01*
X17431700Y-11054400D02*
X17391700Y-11094400D01*
X17455200Y-11600500D02*
X17495200Y-11640500D01*
X17495200Y-11600500D02*
X17455200Y-11640500D01*
X17493300Y-12692700D02*
X17533300Y-12732700D01*
X17533300Y-12692700D02*
X17493300Y-12732700D01*
X17556800Y-11041700D02*
X17596800Y-11081700D01*
X17596800Y-11041700D02*
X17556800Y-11081700D01*
X17556800Y-11918000D02*
X17596800Y-11958000D01*
X17596800Y-11918000D02*
X17556800Y-11958000D01*
X17569500Y-9809800D02*
X17609500Y-9849800D01*
X17609500Y-9809800D02*
X17569500Y-9849800D01*
X17569500Y-12972100D02*
X17609500Y-13012100D01*
X17609500Y-12972100D02*
X17569500Y-13012100D01*
X17582200Y-9073200D02*
X17622200Y-9113200D01*
X17622200Y-9073200D02*
X17582200Y-9113200D01*
X17721900Y-11448100D02*
X17761900Y-11488100D01*
X17761900Y-11448100D02*
X17721900Y-11488100D01*
X17747300Y-11105200D02*
X17787300Y-11145200D01*
X17787300Y-11105200D02*
X17747300Y-11145200D01*
X18001300Y-11181400D02*
X18041300Y-11221400D01*
X18041300Y-11181400D02*
X18001300Y-11221400D01*
X18026700Y-11638600D02*
X18066700Y-11678600D01*
X18066700Y-11638600D02*
X18026700Y-11678600D01*
X18026700Y-12146600D02*
X18066700Y-12186600D01*
X18066700Y-12146600D02*
X18026700Y-12186600D01*
X18039400Y-12019600D02*
X18079400Y-12059600D01*
X18079400Y-12019600D02*
X18039400Y-12059600D01*
X18052100Y-14153200D02*
X18092100Y-14193200D01*
X18092100Y-14153200D02*
X18052100Y-14193200D01*
X18090200Y-12718100D02*
X18130200Y-12758100D01*
X18130200Y-12718100D02*
X18090200Y-12758100D01*
X18153700Y-11566100D02*
X18193700Y-11606100D01*
X18193700Y-11566100D02*
X18153700Y-11606100D01*
X18153700Y-12019600D02*
X18193700Y-12059600D01*
X18193700Y-12019600D02*
X18153700Y-12059600D01*
X18166400Y-11892600D02*
X18206400Y-11932600D01*
X18206400Y-11892600D02*
X18166400Y-11932600D01*
X18166400Y-12311700D02*
X18206400Y-12351700D01*
X18206400Y-12311700D02*
X18166400Y-12351700D01*
X18217200Y-8336600D02*
X18257200Y-8376600D01*
X18257200Y-8336600D02*
X18217200Y-8376600D01*
X18242600Y-10635300D02*
X18282600Y-10675300D01*
X18282600Y-10635300D02*
X18242600Y-10675300D01*
X18318800Y-12730800D02*
X18358800Y-12770800D01*
X18358800Y-12730800D02*
X18318800Y-12770800D01*
X18331500Y-13378500D02*
X18371500Y-13418500D01*
X18371500Y-13378500D02*
X18331500Y-13418500D01*
X18344200Y-10343200D02*
X18384200Y-10383200D01*
X18384200Y-10343200D02*
X18344200Y-10383200D01*
X18369600Y-11194100D02*
X18409600Y-11234100D01*
X18409600Y-11194100D02*
X18369600Y-11234100D01*
X18407700Y-11613200D02*
X18447700Y-11653200D01*
X18447700Y-11613200D02*
X18407700Y-11653200D01*
X18433100Y-10178100D02*
X18473100Y-10218100D01*
X18473100Y-10178100D02*
X18433100Y-10218100D01*
X18483900Y-12438700D02*
X18523900Y-12478700D01*
X18523900Y-12438700D02*
X18483900Y-12478700D01*
X18509300Y-13416600D02*
X18549300Y-13456600D01*
X18549300Y-13416600D02*
X18509300Y-13456600D01*
X18530773Y-13552373D02*
X18570773Y-13592373D01*
X18570773Y-13552373D02*
X18530773Y-13592373D01*
X18534700Y-14284100D02*
X18574700Y-14324100D01*
X18574700Y-14284100D02*
X18534700Y-14324100D01*
X18560100Y-12222800D02*
X18600100Y-12262800D01*
X18600100Y-12222800D02*
X18560100Y-12262800D01*
X18636300Y-11257600D02*
X18676300Y-11297600D01*
X18676300Y-11257600D02*
X18636300Y-11297600D01*
X18649000Y-9924100D02*
X18689000Y-9964100D01*
X18689000Y-9924100D02*
X18649000Y-9964100D01*
X18649000Y-13899200D02*
X18689000Y-13939200D01*
X18689000Y-13899200D02*
X18649000Y-13939200D01*
X18706250Y-13454700D02*
X18746250Y-13494700D01*
X18746250Y-13454700D02*
X18706250Y-13494700D01*
X18712500Y-10178100D02*
X18752500Y-10218100D01*
X18752500Y-10178100D02*
X18712500Y-10218100D01*
X18725200Y-10813100D02*
X18765200Y-10853100D01*
X18765200Y-10813100D02*
X18725200Y-10853100D01*
X18788700Y-11587800D02*
X18828700Y-11627800D01*
X18828700Y-11587800D02*
X18788700Y-11627800D01*
X18864900Y-11054400D02*
X18904900Y-11094400D01*
X18904900Y-11054400D02*
X18864900Y-11094400D01*
X18953800Y-10813100D02*
X18993800Y-10853100D01*
X18993800Y-10813100D02*
X18953800Y-10853100D01*
X18953800Y-11156000D02*
X18993800Y-11196000D01*
X18993800Y-11156000D02*
X18953800Y-11196000D01*
X19042700Y-12527600D02*
X19082700Y-12567600D01*
X19082700Y-12527600D02*
X19042700Y-12567600D01*
X19080800Y-10813100D02*
X19120800Y-10853100D01*
X19120800Y-10813100D02*
X19080800Y-10853100D01*
X19220500Y-13873800D02*
X19260500Y-13913800D01*
X19260500Y-13873800D02*
X19220500Y-13913800D01*
X19423700Y-13556300D02*
X19463700Y-13596300D01*
X19463700Y-13556300D02*
X19423700Y-13596300D01*
X19576100Y-12984800D02*
X19616100Y-13024800D01*
X19616100Y-12984800D02*
X19576100Y-13024800D01*
X19817400Y-9797100D02*
X19857400Y-9837100D01*
X19857400Y-9797100D02*
X19817400Y-9837100D01*
X19817400Y-13048300D02*
X19857400Y-13088300D01*
X19857400Y-13048300D02*
X19817400Y-13088300D01*
X19868200Y-12629200D02*
X19908200Y-12669200D01*
X19908200Y-12629200D02*
X19868200Y-12669200D01*
X19919000Y-13264200D02*
X19959000Y-13304200D01*
X19959000Y-13264200D02*
X19919000Y-13304200D01*
X20122200Y-12540300D02*
X20162200Y-12580300D01*
X20162200Y-12540300D02*
X20122200Y-12580300D01*
X20134900Y-7828600D02*
X20174900Y-7868600D01*
X20174900Y-7828600D02*
X20134900Y-7868600D01*
X20236500Y-7511100D02*
X20276500Y-7551100D01*
X20276500Y-7511100D02*
X20236500Y-7551100D01*
X20312700Y-13137200D02*
X20352700Y-13177200D01*
X20352700Y-13137200D02*
X20312700Y-13177200D01*
X20312700Y-13518200D02*
X20352700Y-13558200D01*
X20352700Y-13518200D02*
X20312700Y-13558200D01*
X20401600Y-9047800D02*
X20441600Y-9087800D01*
X20441600Y-9047800D02*
X20401600Y-9087800D01*
X20579400Y-9187500D02*
X20619400Y-9227500D01*
X20619400Y-9187500D02*
X20579400Y-9227500D01*
X20604800Y-7828600D02*
X20644800Y-7868600D01*
X20644800Y-7828600D02*
X20604800Y-7868600D01*
X20642900Y-8971600D02*
X20682900Y-9011600D01*
X20682900Y-8971600D02*
X20642900Y-9011600D01*
X20642900Y-12527600D02*
X20682900Y-12567600D01*
X20682900Y-12527600D02*
X20642900Y-12567600D01*
X20668300Y-6495100D02*
X20708300Y-6535100D01*
X20708300Y-6495100D02*
X20668300Y-6535100D01*
X20744500Y-8196900D02*
X20784500Y-8236900D01*
X20784500Y-8196900D02*
X20744500Y-8236900D01*
X20833400Y-8577900D02*
X20873400Y-8617900D01*
X20873400Y-8577900D02*
X20833400Y-8617900D01*
X20858800Y-13518200D02*
X20898800Y-13558200D01*
X20898800Y-13518200D02*
X20858800Y-13558200D01*
X20871500Y-8768400D02*
X20911500Y-8808400D01*
X20911500Y-8768400D02*
X20871500Y-8808400D01*
X20871500Y-8870000D02*
X20911500Y-8910000D01*
X20911500Y-8870000D02*
X20871500Y-8910000D01*
X21023900Y-7663500D02*
X21063900Y-7703500D01*
X21063900Y-7663500D02*
X21023900Y-7703500D01*
X21214400Y-8768400D02*
X21254400Y-8808400D01*
X21254400Y-8768400D02*
X21214400Y-8808400D01*
X21214400Y-8870000D02*
X21254400Y-8910000D01*
X21254400Y-8870000D02*
X21214400Y-8910000D01*
X21239800Y-6812600D02*
X21279800Y-6852600D01*
X21279800Y-6812600D02*
X21239800Y-6852600D01*
X21252500Y-11956100D02*
X21292500Y-11996100D01*
X21292500Y-11956100D02*
X21252500Y-11996100D01*
X21430300Y-10343200D02*
X21470300Y-10383200D01*
X21470300Y-10343200D02*
X21430300Y-10383200D01*
X21468900Y-12019600D02*
X21508900Y-12059600D01*
X21508900Y-12019600D02*
X21468900Y-12059600D01*
X21493800Y-6495100D02*
X21533800Y-6535100D01*
X21533800Y-6495100D02*
X21493800Y-6535100D01*
X21506500Y-6863400D02*
X21546500Y-6903400D01*
X21546500Y-6863400D02*
X21506500Y-6903400D01*
X21506500Y-12540300D02*
X21546500Y-12580300D01*
X21546500Y-12540300D02*
X21506500Y-12580300D01*
X21646200Y-13213400D02*
X21686200Y-13253400D01*
X21686200Y-13213400D02*
X21646200Y-13253400D01*
X21760035Y-12146135D02*
X21800035Y-12186135D01*
X21800035Y-12146135D02*
X21760035Y-12186135D01*
X21762240Y-14193040D02*
X21802240Y-14233040D01*
X21802240Y-14193040D02*
X21762240Y-14233040D01*
X21836700Y-10343200D02*
X21876700Y-10383200D01*
X21876700Y-10343200D02*
X21836700Y-10383200D01*
X21874800Y-11410000D02*
X21914800Y-11450000D01*
X21914800Y-11410000D02*
X21874800Y-11450000D01*
X21874800Y-11410000D02*
X21914800Y-11450000D01*
X21914800Y-11410000D02*
X21874800Y-11450000D01*
X21887500Y-12121200D02*
X21927500Y-12161200D01*
X21927500Y-12121200D02*
X21887500Y-12161200D01*
X21900200Y-13797600D02*
X21940200Y-13837600D01*
X21940200Y-13797600D02*
X21900200Y-13837600D01*
X22078000Y-13238800D02*
X22118000Y-13278800D01*
X22118000Y-13238800D02*
X22078000Y-13278800D01*
X22090700Y-13492800D02*
X22130700Y-13532800D01*
X22130700Y-13492800D02*
X22090700Y-13532800D01*
X22128800Y-12565700D02*
X22168800Y-12605700D01*
X22168800Y-12565700D02*
X22128800Y-12605700D01*
X22141500Y-11981500D02*
X22181500Y-12021500D01*
X22181500Y-11981500D02*
X22141500Y-12021500D01*
X22166900Y-11727500D02*
X22206900Y-11767500D01*
X22206900Y-11727500D02*
X22166900Y-11767500D01*
X22166900Y-13365800D02*
X22206900Y-13405800D01*
X22206900Y-13365800D02*
X22166900Y-13405800D01*
X22180746Y-14313714D02*
X22220746Y-14353714D01*
X22220746Y-14313714D02*
X22180746Y-14353714D01*
X22191650Y-11630611D02*
X22231650Y-11670611D01*
X22231650Y-11630611D02*
X22191650Y-11670611D01*
X22205000Y-14216700D02*
X22245000Y-14256700D01*
X22245000Y-14216700D02*
X22205000Y-14256700D01*
X22230400Y-13073700D02*
X22270400Y-13113700D01*
X22270400Y-13073700D02*
X22230400Y-13113700D01*
X22319300Y-13835700D02*
X22359300Y-13875700D01*
X22359300Y-13835700D02*
X22319300Y-13875700D01*
X22420900Y-13810300D02*
X22460900Y-13850300D01*
X22460900Y-13810300D02*
X22420900Y-13850300D01*
X22433600Y-12476800D02*
X22473600Y-12516800D01*
X22473600Y-12476800D02*
X22433600Y-12516800D01*
X22522500Y-13073700D02*
X22562500Y-13113700D01*
X22562500Y-13073700D02*
X22522500Y-13113700D01*
X22535200Y-9441500D02*
X22575200Y-9481500D01*
X22575200Y-9441500D02*
X22535200Y-9481500D01*
X22586985Y-11755086D02*
X22626985Y-11795086D01*
X22626985Y-11755086D02*
X22586985Y-11795086D01*
X22636800Y-13061000D02*
X22676800Y-13101000D01*
X22676800Y-13061000D02*
X22636800Y-13101000D01*
X22649500Y-8730300D02*
X22689500Y-8770300D01*
X22689500Y-8730300D02*
X22649500Y-8770300D01*
X22687600Y-12464100D02*
X22727600Y-12504100D01*
X22727600Y-12464100D02*
X22687600Y-12504100D01*
X17693000Y-9271000D02*
G75*
G03*
X17693000Y-9271000I-40000J0D01*
G01*
X17947000Y-9271000D02*
G75*
G03*
X17947000Y-9271000I-40000J0D01*
G01*
X18201000Y-9271000D02*
G75*
G03*
X18201000Y-9271000I-40000J0D01*
G01*
X13502000Y-9271000D02*
G75*
G03*
X13502000Y-9271000I-40000J0D01*
G01*
X13756000Y-9271000D02*
G75*
G03*
X13756000Y-9271000I-40000J0D01*
G01*
X14010000Y-9271000D02*
G75*
G03*
X14010000Y-9271000I-40000J0D01*
G01*
X19598000Y-6858000D02*
G75*
G03*
X19598000Y-6858000I-40000J0D01*
G01*
X19598000Y-7358000D02*
G75*
G03*
X19598000Y-7358000I-40000J0D01*
G01*
X19598000Y-4826000D02*
G75*
G03*
X19598000Y-4826000I-40000J0D01*
G01*
X19852000Y-4826000D02*
G75*
G03*
X19852000Y-4826000I-40000J0D01*
G01*
X20106000Y-4826000D02*
G75*
G03*
X20106000Y-4826000I-40000J0D01*
G01*
X9323700Y-10020300D02*
G75*
G03*
X9323700Y-10020300I-40000J0D01*
G01*
X9573700Y-10020300D02*
G75*
G03*
X9573700Y-10020300I-40000J0D01*
G01*
X18328000Y-6858000D02*
G75*
G03*
X18328000Y-6858000I-40000J0D01*
G01*
X18328000Y-7358000D02*
G75*
G03*
X18328000Y-7358000I-40000J0D01*
G01*
X20841000Y-9906000D02*
G75*
G03*
X20841000Y-9906000I-40000J0D01*
G01*
X20968000Y-9398000D02*
G75*
G03*
X20968000Y-9398000I-40000J0D01*
G01*
X21095000Y-4826000D02*
G75*
G03*
X21095000Y-4826000I-40000J0D01*
G01*
X21095000Y-9652000D02*
G75*
G03*
X21095000Y-9652000I-40000J0D01*
G01*
X21095000Y-9906000D02*
G75*
G03*
X21095000Y-9906000I-40000J0D01*
G01*
X21222000Y-9398000D02*
G75*
G03*
X21222000Y-9398000I-40000J0D01*
G01*
X21349000Y-9906000D02*
G75*
G03*
X21349000Y-9906000I-40000J0D01*
G01*
X7240900Y-11671300D02*
G75*
G03*
X7240900Y-11671300I-40000J0D01*
G01*
X7490900Y-11671300D02*
G75*
G03*
X7490900Y-11671300I-40000J0D01*
G01*
X22519000Y-6858000D02*
G75*
G03*
X22519000Y-6858000I-40000J0D01*
G01*
X22519000Y-7358000D02*
G75*
G03*
X22519000Y-7358000I-40000J0D01*
G01*
X6898000Y-12319000D02*
G75*
G03*
X6898000Y-12319000I-40000J0D01*
G01*
X7148000Y-12319000D02*
G75*
G03*
X7148000Y-12319000I-40000J0D01*
G01*
X7025000Y-10795000D02*
G75*
G03*
X7025000Y-10795000I-40000J0D01*
G01*
X7279000Y-10795000D02*
G75*
G03*
X7279000Y-10795000I-40000J0D01*
G01*
X7533000Y-10795000D02*
G75*
G03*
X7533000Y-10795000I-40000J0D01*
G01*
X21896700Y-10020300D02*
G75*
G03*
X21896700Y-10020300I-40000J0D01*
G01*
X22146700Y-10020300D02*
G75*
G03*
X22146700Y-10020300I-40000J0D01*
G01*
X17908900Y-10795000D02*
G75*
G03*
X17908900Y-10795000I-40000J0D01*
G01*
X18162900Y-10795000D02*
G75*
G03*
X18162900Y-10795000I-40000J0D01*
G01*
X18416900Y-10795000D02*
G75*
G03*
X18416900Y-10795000I-40000J0D01*
G01*
X9311000Y-9271000D02*
G75*
G03*
X9311000Y-9271000I-40000J0D01*
G01*
X9565000Y-9271000D02*
G75*
G03*
X9565000Y-9271000I-40000J0D01*
G01*
X9819000Y-9271000D02*
G75*
G03*
X9819000Y-9271000I-40000J0D01*
G01*
X19559900Y-10795000D02*
G75*
G03*
X19559900Y-10795000I-40000J0D01*
G01*
X19813900Y-10795000D02*
G75*
G03*
X19813900Y-10795000I-40000J0D01*
G01*
X20067900Y-10795000D02*
G75*
G03*
X20067900Y-10795000I-40000J0D01*
G01*
X11089000Y-4826000D02*
G75*
G03*
X11089000Y-4826000I-40000J0D01*
G01*
X11343000Y-4826000D02*
G75*
G03*
X11343000Y-4826000I-40000J0D01*
G01*
X11597000Y-4826000D02*
G75*
G03*
X11597000Y-4826000I-40000J0D01*
G01*
X21884000Y-9271000D02*
G75*
G03*
X21884000Y-9271000I-40000J0D01*
G01*
X22138000Y-9271000D02*
G75*
G03*
X22138000Y-9271000I-40000J0D01*
G01*
X22392000Y-9271000D02*
G75*
G03*
X22392000Y-9271000I-40000J0D01*
G01*
X11216000Y-6858000D02*
G75*
G03*
X11216000Y-6858000I-40000J0D01*
G01*
X11216000Y-7358000D02*
G75*
G03*
X11216000Y-7358000I-40000J0D01*
G01*
X12401333Y-9906000D02*
G75*
G03*
X12401333Y-9906000I-40000J0D01*
G01*
X12528333Y-9398000D02*
G75*
G03*
X12528333Y-9398000I-40000J0D01*
G01*
X12655333Y-4826000D02*
G75*
G03*
X12655333Y-4826000I-40000J0D01*
G01*
X12655333Y-9652000D02*
G75*
G03*
X12655333Y-9652000I-40000J0D01*
G01*
X12655333Y-9906000D02*
G75*
G03*
X12655333Y-9906000I-40000J0D01*
G01*
X12782333Y-9398000D02*
G75*
G03*
X12782333Y-9398000I-40000J0D01*
G01*
X12909333Y-9906000D02*
G75*
G03*
X12909333Y-9906000I-40000J0D01*
G01*
X16634667Y-9906000D02*
G75*
G03*
X16634667Y-9906000I-40000J0D01*
G01*
X16761667Y-9398000D02*
G75*
G03*
X16761667Y-9398000I-40000J0D01*
G01*
X16888667Y-4826000D02*
G75*
G03*
X16888667Y-4826000I-40000J0D01*
G01*
X16888667Y-9652000D02*
G75*
G03*
X16888667Y-9652000I-40000J0D01*
G01*
X16888667Y-9906000D02*
G75*
G03*
X16888667Y-9906000I-40000J0D01*
G01*
X17015667Y-9398000D02*
G75*
G03*
X17015667Y-9398000I-40000J0D01*
G01*
X17142667Y-9906000D02*
G75*
G03*
X17142667Y-9906000I-40000J0D01*
G01*
X22099900Y-10795000D02*
G75*
G03*
X22099900Y-10795000I-40000J0D01*
G01*
X22353900Y-10795000D02*
G75*
G03*
X22353900Y-10795000I-40000J0D01*
G01*
X22607900Y-10795000D02*
G75*
G03*
X22607900Y-10795000I-40000J0D01*
G01*
X7075800Y-6858000D02*
G75*
G03*
X7075800Y-6858000I-40000J0D01*
G01*
X7075800Y-7358000D02*
G75*
G03*
X7075800Y-7358000I-40000J0D01*
G01*
X9565000Y-10795000D02*
G75*
G03*
X9565000Y-10795000I-40000J0D01*
G01*
X9819000Y-10795000D02*
G75*
G03*
X9819000Y-10795000I-40000J0D01*
G01*
X10073000Y-10795000D02*
G75*
G03*
X10073000Y-10795000I-40000J0D01*
G01*
X8295000Y-9906000D02*
G75*
G03*
X8295000Y-9906000I-40000J0D01*
G01*
X8422000Y-9398000D02*
G75*
G03*
X8422000Y-9398000I-40000J0D01*
G01*
X8549000Y-4826000D02*
G75*
G03*
X8549000Y-4826000I-40000J0D01*
G01*
X8549000Y-9652000D02*
G75*
G03*
X8549000Y-9652000I-40000J0D01*
G01*
X8549000Y-9906000D02*
G75*
G03*
X8549000Y-9906000I-40000J0D01*
G01*
X8676000Y-9398000D02*
G75*
G03*
X8676000Y-9398000I-40000J0D01*
G01*
X8803000Y-9906000D02*
G75*
G03*
X8803000Y-9906000I-40000J0D01*
G01*
X11139800Y-10795000D02*
G75*
G03*
X11139800Y-10795000I-40000J0D01*
G01*
X11393800Y-10795000D02*
G75*
G03*
X11393800Y-10795000I-40000J0D01*
G01*
X11647800Y-10795000D02*
G75*
G03*
X11647800Y-10795000I-40000J0D01*
G01*
X14137000Y-6858000D02*
G75*
G03*
X14137000Y-6858000I-40000J0D01*
G01*
X14137000Y-7358000D02*
G75*
G03*
X14137000Y-7358000I-40000J0D01*
G01*
X17705700Y-10020300D02*
G75*
G03*
X17705700Y-10020300I-40000J0D01*
G01*
X17955700Y-10020300D02*
G75*
G03*
X17955700Y-10020300I-40000J0D01*
G01*
X13514700Y-10020300D02*
G75*
G03*
X13514700Y-10020300I-40000J0D01*
G01*
X13764700Y-10020300D02*
G75*
G03*
X13764700Y-10020300I-40000J0D01*
G01*
X10073000Y-6858000D02*
G75*
G03*
X10073000Y-6858000I-40000J0D01*
G01*
X10073000Y-7358000D02*
G75*
G03*
X10073000Y-7358000I-40000J0D01*
G01*
X15280000Y-4826000D02*
G75*
G03*
X15280000Y-4826000I-40000J0D01*
G01*
X15534000Y-4826000D02*
G75*
G03*
X15534000Y-4826000I-40000J0D01*
G01*
X15788000Y-4826000D02*
G75*
G03*
X15788000Y-4826000I-40000J0D01*
G01*
X13679800Y-10795000D02*
G75*
G03*
X13679800Y-10795000I-40000J0D01*
G01*
X13933800Y-10795000D02*
G75*
G03*
X13933800Y-10795000I-40000J0D01*
G01*
X14187800Y-10795000D02*
G75*
G03*
X14187800Y-10795000I-40000J0D01*
G01*
X15368900Y-10795000D02*
G75*
G03*
X15368900Y-10795000I-40000J0D01*
G01*
X15622900Y-10795000D02*
G75*
G03*
X15622900Y-10795000I-40000J0D01*
G01*
X15876900Y-10795000D02*
G75*
G03*
X15876900Y-10795000I-40000J0D01*
G01*
X6898000Y-4826000D02*
G75*
G03*
X6898000Y-4826000I-40000J0D01*
G01*
X7152000Y-4826000D02*
G75*
G03*
X7152000Y-4826000I-40000J0D01*
G01*
X7406000Y-4826000D02*
G75*
G03*
X7406000Y-4826000I-40000J0D01*
G01*
X15407000Y-6858000D02*
G75*
G03*
X15407000Y-6858000I-40000J0D01*
G01*
X15407000Y-7358000D02*
G75*
G03*
X15407000Y-7358000I-40000J0D01*
G01*
X20099600Y-7067000D02*
X20099600Y-7157000D01*
X20054600Y-7112000D02*
X20144600Y-7112000D01*
X20353600Y-7067000D02*
X20353600Y-7157000D01*
X20308600Y-7112000D02*
X20398600Y-7112000D01*
X21780500Y-7067000D02*
X21780500Y-7157000D01*
X21735500Y-7112000D02*
X21825500Y-7112000D01*
X22034500Y-7067000D02*
X22034500Y-7157000D01*
X21989500Y-7112000D02*
X22079500Y-7112000D01*
X15875000Y-7067000D02*
X15875000Y-7157000D01*
X15830000Y-7112000D02*
X15920000Y-7112000D01*
X16129000Y-7067000D02*
X16129000Y-7157000D01*
X16084000Y-7112000D02*
X16174000Y-7112000D01*
X11658600Y-7067000D02*
X11658600Y-7157000D01*
X11613600Y-7112000D02*
X11703600Y-7112000D01*
X11912600Y-7067000D02*
X11912600Y-7157000D01*
X11867600Y-7112000D02*
X11957600Y-7112000D01*
X7531100Y-7067000D02*
X7531100Y-7157000D01*
X7486100Y-7112000D02*
X7576100Y-7112000D01*
X7785100Y-7067000D02*
X7785100Y-7157000D01*
X7740100Y-7112000D02*
X7830100Y-7112000D01*
X9271000Y-7067000D02*
X9271000Y-7157000D01*
X9226000Y-7112000D02*
X9316000Y-7112000D01*
X9525000Y-7067000D02*
X9525000Y-7157000D01*
X9480000Y-7112000D02*
X9570000Y-7112000D01*
X17576800Y-7067000D02*
X17576800Y-7157000D01*
X17531800Y-7112000D02*
X17621800Y-7112000D01*
X17830800Y-7067000D02*
X17830800Y-7157000D01*
X17785800Y-7112000D02*
X17875800Y-7112000D01*
X13335000Y-7067000D02*
X13335000Y-7157000D01*
X13290000Y-7112000D02*
X13380000Y-7112000D01*
X13589000Y-7067000D02*
X13589000Y-7157000D01*
X13544000Y-7112000D02*
X13634000Y-7112000D01*
X9348456Y-8913356D02*
X9348456Y-8842644D01*
X9277744Y-8842644D01*
X9277744Y-8913356D01*
X9348456Y-8913356D01*
X9598456Y-8913356D02*
X9598456Y-8842644D01*
X9527744Y-8842644D01*
X9527744Y-8913356D01*
X9598456Y-8913356D01*
X9848456Y-8913356D02*
X9848456Y-8842644D01*
X9777744Y-8842644D01*
X9777744Y-8913356D01*
X9848456Y-8913356D01*
X9348456Y-6500356D02*
X9348456Y-6429644D01*
X9277744Y-6429644D01*
X9277744Y-6500356D01*
X9348456Y-6500356D01*
X9598456Y-6500356D02*
X9598456Y-6429644D01*
X9527744Y-6429644D01*
X9527744Y-6500356D01*
X9598456Y-6500356D01*
X9848456Y-6500356D02*
X9848456Y-6429644D01*
X9777744Y-6429644D01*
X9777744Y-6500356D01*
X9848456Y-6500356D01*
X15533356Y-6500356D02*
X15533356Y-6429644D01*
X15462644Y-6429644D01*
X15462644Y-6500356D01*
X15533356Y-6500356D01*
X15783356Y-6500356D02*
X15783356Y-6429644D01*
X15712644Y-6429644D01*
X15712644Y-6500356D01*
X15783356Y-6500356D01*
X16033356Y-6500356D02*
X16033356Y-6429644D01*
X15962644Y-6429644D01*
X15962644Y-6500356D01*
X16033356Y-6500356D01*
X19773356Y-8913356D02*
X19773356Y-8842644D01*
X19702644Y-8842644D01*
X19702644Y-8913356D01*
X19773356Y-8913356D01*
X20023356Y-8913356D02*
X20023356Y-8842644D01*
X19952644Y-8842644D01*
X19952644Y-8913356D01*
X20023356Y-8913356D01*
X20273356Y-8913356D02*
X20273356Y-8842644D01*
X20202644Y-8842644D01*
X20202644Y-8913356D01*
X20273356Y-8913356D01*
X7227556Y-8913356D02*
X7227556Y-8842644D01*
X7156844Y-8842644D01*
X7156844Y-8913356D01*
X7227556Y-8913356D01*
X7477556Y-8913356D02*
X7477556Y-8842644D01*
X7406844Y-8842644D01*
X7406844Y-8913356D01*
X7477556Y-8913356D01*
X7727556Y-8913356D02*
X7727556Y-8842644D01*
X7656844Y-8842644D01*
X7656844Y-8913356D01*
X7727556Y-8913356D01*
X21883356Y-6500356D02*
X21883356Y-6429644D01*
X21812644Y-6429644D01*
X21812644Y-6500356D01*
X21883356Y-6500356D01*
X22133356Y-6500356D02*
X22133356Y-6429644D01*
X22062644Y-6429644D01*
X22062644Y-6500356D01*
X22133356Y-6500356D01*
X22383356Y-6500356D02*
X22383356Y-6429644D01*
X22312644Y-6429644D01*
X22312644Y-6500356D01*
X22383356Y-6500356D01*
X13501356Y-8913356D02*
X13501356Y-8842644D01*
X13430644Y-8842644D01*
X13430644Y-8913356D01*
X13501356Y-8913356D01*
X13751356Y-8913356D02*
X13751356Y-8842644D01*
X13680644Y-8842644D01*
X13680644Y-8913356D01*
X13751356Y-8913356D01*
X14001356Y-8913356D02*
X14001356Y-8842644D01*
X13930644Y-8842644D01*
X13930644Y-8913356D01*
X14001356Y-8913356D01*
X11342356Y-6500356D02*
X11342356Y-6429644D01*
X11271644Y-6429644D01*
X11271644Y-6500356D01*
X11342356Y-6500356D01*
X11592356Y-6500356D02*
X11592356Y-6429644D01*
X11521644Y-6429644D01*
X11521644Y-6500356D01*
X11592356Y-6500356D01*
X11842356Y-6500356D02*
X11842356Y-6429644D01*
X11771644Y-6429644D01*
X11771644Y-6500356D01*
X11842356Y-6500356D01*
X21883356Y-8913356D02*
X21883356Y-8842644D01*
X21812644Y-8842644D01*
X21812644Y-8913356D01*
X21883356Y-8913356D01*
X22133356Y-8913356D02*
X22133356Y-8842644D01*
X22062644Y-8842644D01*
X22062644Y-8913356D01*
X22133356Y-8913356D01*
X22383356Y-8913356D02*
X22383356Y-8842644D01*
X22312644Y-8842644D01*
X22312644Y-8913356D01*
X22383356Y-8913356D01*
X15533356Y-8913356D02*
X15533356Y-8842644D01*
X15462644Y-8842644D01*
X15462644Y-8913356D01*
X15533356Y-8913356D01*
X15783356Y-8913356D02*
X15783356Y-8842644D01*
X15712644Y-8842644D01*
X15712644Y-8913356D01*
X15783356Y-8913356D01*
X16033356Y-8913356D02*
X16033356Y-8842644D01*
X15962644Y-8842644D01*
X15962644Y-8913356D01*
X16033356Y-8913356D01*
X7020356Y-12989356D02*
X7020356Y-12918644D01*
X6949644Y-12918644D01*
X6949644Y-12989356D01*
X7020356Y-12989356D01*
X7020356Y-13243356D02*
X7020356Y-13172644D01*
X6949644Y-13172644D01*
X6949644Y-13243356D01*
X7020356Y-13243356D01*
X7020356Y-13497356D02*
X7020356Y-13426644D01*
X6949644Y-13426644D01*
X6949644Y-13497356D01*
X7020356Y-13497356D01*
X7020356Y-13751356D02*
X7020356Y-13680644D01*
X6949644Y-13680644D01*
X6949644Y-13751356D01*
X7020356Y-13751356D01*
X7020356Y-14005356D02*
X7020356Y-13934644D01*
X6949644Y-13934644D01*
X6949644Y-14005356D01*
X7020356Y-14005356D01*
X7274356Y-12989356D02*
X7274356Y-12918644D01*
X7203644Y-12918644D01*
X7203644Y-12989356D01*
X7274356Y-12989356D01*
X7274356Y-13243356D02*
X7274356Y-13172644D01*
X7203644Y-13172644D01*
X7203644Y-13243356D01*
X7274356Y-13243356D01*
X7274356Y-13497356D02*
X7274356Y-13426644D01*
X7203644Y-13426644D01*
X7203644Y-13497356D01*
X7274356Y-13497356D01*
X7274356Y-13751356D02*
X7274356Y-13680644D01*
X7203644Y-13680644D01*
X7203644Y-13751356D01*
X7274356Y-13751356D01*
X7274356Y-14005356D02*
X7274356Y-13934644D01*
X7203644Y-13934644D01*
X7203644Y-14005356D01*
X7274356Y-14005356D01*
X17692356Y-6500356D02*
X17692356Y-6429644D01*
X17621644Y-6429644D01*
X17621644Y-6500356D01*
X17692356Y-6500356D01*
X17942356Y-6500356D02*
X17942356Y-6429644D01*
X17871644Y-6429644D01*
X17871644Y-6500356D01*
X17942356Y-6500356D01*
X18192356Y-6500356D02*
X18192356Y-6429644D01*
X18121644Y-6429644D01*
X18121644Y-6500356D01*
X18192356Y-6500356D01*
X13501356Y-6500356D02*
X13501356Y-6429644D01*
X13430644Y-6429644D01*
X13430644Y-6500356D01*
X13501356Y-6500356D01*
X13751356Y-6500356D02*
X13751356Y-6429644D01*
X13680644Y-6429644D01*
X13680644Y-6500356D01*
X13751356Y-6500356D01*
X14001356Y-6500356D02*
X14001356Y-6429644D01*
X13930644Y-6429644D01*
X13930644Y-6500356D01*
X14001356Y-6500356D01*
X7227556Y-6500356D02*
X7227556Y-6429644D01*
X7156844Y-6429644D01*
X7156844Y-6500356D01*
X7227556Y-6500356D01*
X7477556Y-6500356D02*
X7477556Y-6429644D01*
X7406844Y-6429644D01*
X7406844Y-6500356D01*
X7477556Y-6500356D01*
X7727556Y-6500356D02*
X7727556Y-6429644D01*
X7656844Y-6429644D01*
X7656844Y-6500356D01*
X7727556Y-6500356D01*
X17692356Y-8913356D02*
X17692356Y-8842644D01*
X17621644Y-8842644D01*
X17621644Y-8913356D01*
X17692356Y-8913356D01*
X17942356Y-8913356D02*
X17942356Y-8842644D01*
X17871644Y-8842644D01*
X17871644Y-8913356D01*
X17942356Y-8913356D01*
X18192356Y-8913356D02*
X18192356Y-8842644D01*
X18121644Y-8842644D01*
X18121644Y-8913356D01*
X18192356Y-8913356D01*
X11342356Y-8913356D02*
X11342356Y-8842644D01*
X11271644Y-8842644D01*
X11271644Y-8913356D01*
X11342356Y-8913356D01*
X11592356Y-8913356D02*
X11592356Y-8842644D01*
X11521644Y-8842644D01*
X11521644Y-8913356D01*
X11592356Y-8913356D01*
X11842356Y-8913356D02*
X11842356Y-8842644D01*
X11771644Y-8842644D01*
X11771644Y-8913356D01*
X11842356Y-8913356D01*
X19773356Y-6500356D02*
X19773356Y-6429644D01*
X19702644Y-6429644D01*
X19702644Y-6500356D01*
X19773356Y-6500356D01*
X20023356Y-6500356D02*
X20023356Y-6429644D01*
X19952644Y-6429644D01*
X19952644Y-6500356D01*
X20023356Y-6500356D01*
X20273356Y-6500356D02*
X20273356Y-6429644D01*
X20202644Y-6429644D01*
X20202644Y-6500356D01*
X20273356Y-6500356D01*
X7861000Y-11891000D02*
X7941000Y-11811000D01*
X7861000Y-11731000D01*
X7781000Y-11811000D01*
X7861000Y-11891000D01*
X8171000Y-11891000D02*
X8251000Y-11811000D01*
X8171000Y-11731000D01*
X8091000Y-11811000D01*
X8171000Y-11891000D01*
X9001000Y-11891000D02*
X9081000Y-11811000D01*
X9001000Y-11731000D01*
X8921000Y-11811000D01*
X9001000Y-11891000D01*
X7861000Y-13923000D02*
X7941000Y-13843000D01*
X7861000Y-13763000D01*
X7781000Y-13843000D01*
X7861000Y-13923000D01*
X8171000Y-13923000D02*
X8251000Y-13843000D01*
X8171000Y-13763000D01*
X8091000Y-13843000D01*
X8171000Y-13923000D01*
X9001000Y-13923000D02*
X9081000Y-13843000D01*
X9001000Y-13763000D01*
X8921000Y-13843000D01*
X9001000Y-13923000D01*
X16204900Y-11891000D02*
X16284900Y-11811000D01*
X16204900Y-11731000D01*
X16124900Y-11811000D01*
X16204900Y-11891000D01*
X16514900Y-11891000D02*
X16594900Y-11811000D01*
X16514900Y-11731000D01*
X16434900Y-11811000D01*
X16514900Y-11891000D01*
X17344900Y-11891000D02*
X17424900Y-11811000D01*
X17344900Y-11731000D01*
X17264900Y-11811000D01*
X17344900Y-11891000D01*
X7861000Y-12907000D02*
X7941000Y-12827000D01*
X7861000Y-12747000D01*
X7781000Y-12827000D01*
X7861000Y-12907000D01*
X8171000Y-12907000D02*
X8251000Y-12827000D01*
X8171000Y-12747000D01*
X8091000Y-12827000D01*
X8171000Y-12907000D01*
X9001000Y-12907000D02*
X9081000Y-12827000D01*
X9001000Y-12747000D01*
X8921000Y-12827000D01*
X9001000Y-12907000D01*
X11975800Y-13923000D02*
X12055800Y-13843000D01*
X11975800Y-13763000D01*
X11895800Y-13843000D01*
X11975800Y-13923000D01*
X12285800Y-13923000D02*
X12365800Y-13843000D01*
X12285800Y-13763000D01*
X12205800Y-13843000D01*
X12285800Y-13923000D01*
X13115800Y-13923000D02*
X13195800Y-13843000D01*
X13115800Y-13763000D01*
X13035800Y-13843000D01*
X13115800Y-13923000D01*
X11975800Y-11891000D02*
X12055800Y-11811000D01*
X11975800Y-11731000D01*
X11895800Y-11811000D01*
X11975800Y-11891000D01*
X12285800Y-11891000D02*
X12365800Y-11811000D01*
X12285800Y-11731000D01*
X12205800Y-11811000D01*
X12285800Y-11891000D01*
X13115800Y-11891000D02*
X13195800Y-11811000D01*
X13115800Y-11731000D01*
X13035800Y-11811000D01*
X13115800Y-11891000D01*
X20398900Y-12907000D02*
X20478900Y-12827000D01*
X20398900Y-12747000D01*
X20318900Y-12827000D01*
X20398900Y-12907000D01*
X20708900Y-12907000D02*
X20788900Y-12827000D01*
X20708900Y-12747000D01*
X20628900Y-12827000D01*
X20708900Y-12907000D01*
X21538900Y-12907000D02*
X21618900Y-12827000D01*
X21538900Y-12747000D01*
X21458900Y-12827000D01*
X21538900Y-12907000D01*
X20398900Y-13923000D02*
X20478900Y-13843000D01*
X20398900Y-13763000D01*
X20318900Y-13843000D01*
X20398900Y-13923000D01*
X20708900Y-13923000D02*
X20788900Y-13843000D01*
X20708900Y-13763000D01*
X20628900Y-13843000D01*
X20708900Y-13923000D01*
X21538900Y-13923000D02*
X21618900Y-13843000D01*
X21538900Y-13763000D01*
X21458900Y-13843000D01*
X21538900Y-13923000D01*
X20398900Y-11891000D02*
X20478900Y-11811000D01*
X20398900Y-11731000D01*
X20318900Y-11811000D01*
X20398900Y-11891000D01*
X20708900Y-11891000D02*
X20788900Y-11811000D01*
X20708900Y-11731000D01*
X20628900Y-11811000D01*
X20708900Y-11891000D01*
X21538900Y-11891000D02*
X21618900Y-11811000D01*
X21538900Y-11731000D01*
X21458900Y-11811000D01*
X21538900Y-11891000D01*
X16204900Y-12907000D02*
X16284900Y-12827000D01*
X16204900Y-12747000D01*
X16124900Y-12827000D01*
X16204900Y-12907000D01*
X16514900Y-12907000D02*
X16594900Y-12827000D01*
X16514900Y-12747000D01*
X16434900Y-12827000D01*
X16514900Y-12907000D01*
X17344900Y-12907000D02*
X17424900Y-12827000D01*
X17344900Y-12747000D01*
X17264900Y-12827000D01*
X17344900Y-12907000D01*
X11975800Y-12907000D02*
X12055800Y-12827000D01*
X11975800Y-12747000D01*
X11895800Y-12827000D01*
X11975800Y-12907000D01*
X12285800Y-12907000D02*
X12365800Y-12827000D01*
X12285800Y-12747000D01*
X12205800Y-12827000D01*
X12285800Y-12907000D01*
X13115800Y-12907000D02*
X13195800Y-12827000D01*
X13115800Y-12747000D01*
X13035800Y-12827000D01*
X13115800Y-12907000D01*
X16204900Y-13923000D02*
X16284900Y-13843000D01*
X16204900Y-13763000D01*
X16124900Y-13843000D01*
X16204900Y-13923000D01*
X16514900Y-13923000D02*
X16594900Y-13843000D01*
X16514900Y-13763000D01*
X16434900Y-13843000D01*
X16514900Y-13923000D01*
X17344900Y-13923000D02*
X17424900Y-13843000D01*
X17344900Y-13763000D01*
X17264900Y-13843000D01*
X17344900Y-13923000D01*
X15178000Y-5625000D02*
X15358000Y-5805000D01*
X15358000Y-5625000D02*
X15178000Y-5805000D01*
X15358000Y-5715000D02*
G75*
G03*
X15358000Y-5715000I-90000J0D01*
G01*
X16138000Y-5625000D02*
X16318000Y-5805000D01*
X16318000Y-5625000D02*
X16138000Y-5805000D01*
X16318000Y-5715000D02*
G75*
G03*
X16318000Y-5715000I-90000J0D01*
G01*
X19418000Y-8038000D02*
X19598000Y-8218000D01*
X19598000Y-8038000D02*
X19418000Y-8218000D01*
X19598000Y-8128000D02*
G75*
G03*
X19598000Y-8128000I-90000J0D01*
G01*
X20378000Y-8038000D02*
X20558000Y-8218000D01*
X20558000Y-8038000D02*
X20378000Y-8218000D01*
X20558000Y-8128000D02*
G75*
G03*
X20558000Y-8128000I-90000J0D01*
G01*
X6872200Y-8038000D02*
X7052200Y-8218000D01*
X7052200Y-8038000D02*
X6872200Y-8218000D01*
X7052200Y-8128000D02*
G75*
G03*
X7052200Y-8128000I-90000J0D01*
G01*
X7832200Y-8038000D02*
X8012200Y-8218000D01*
X8012200Y-8038000D02*
X7832200Y-8218000D01*
X8012200Y-8128000D02*
G75*
G03*
X8012200Y-8128000I-90000J0D01*
G01*
X21528000Y-5625000D02*
X21708000Y-5805000D01*
X21708000Y-5625000D02*
X21528000Y-5805000D01*
X21708000Y-5715000D02*
G75*
G03*
X21708000Y-5715000I-90000J0D01*
G01*
X22488000Y-5625000D02*
X22668000Y-5805000D01*
X22668000Y-5625000D02*
X22488000Y-5805000D01*
X22668000Y-5715000D02*
G75*
G03*
X22668000Y-5715000I-90000J0D01*
G01*
X13146000Y-8038000D02*
X13326000Y-8218000D01*
X13326000Y-8038000D02*
X13146000Y-8218000D01*
X13326000Y-8128000D02*
G75*
G03*
X13326000Y-8128000I-90000J0D01*
G01*
X14106000Y-8038000D02*
X14286000Y-8218000D01*
X14286000Y-8038000D02*
X14106000Y-8218000D01*
X14286000Y-8128000D02*
G75*
G03*
X14286000Y-8128000I-90000J0D01*
G01*
X10987000Y-5625000D02*
X11167000Y-5805000D01*
X11167000Y-5625000D02*
X10987000Y-5805000D01*
X11167000Y-5715000D02*
G75*
G03*
X11167000Y-5715000I-90000J0D01*
G01*
X11947000Y-5625000D02*
X12127000Y-5805000D01*
X12127000Y-5625000D02*
X11947000Y-5805000D01*
X12127000Y-5715000D02*
G75*
G03*
X12127000Y-5715000I-90000J0D01*
G01*
X21528000Y-8038000D02*
X21708000Y-8218000D01*
X21708000Y-8038000D02*
X21528000Y-8218000D01*
X21708000Y-8128000D02*
G75*
G03*
X21708000Y-8128000I-90000J0D01*
G01*
X22488000Y-8038000D02*
X22668000Y-8218000D01*
X22668000Y-8038000D02*
X22488000Y-8218000D01*
X22668000Y-8128000D02*
G75*
G03*
X22668000Y-8128000I-90000J0D01*
G01*
X15178000Y-8038000D02*
X15358000Y-8218000D01*
X15358000Y-8038000D02*
X15178000Y-8218000D01*
X15358000Y-8128000D02*
G75*
G03*
X15358000Y-8128000I-90000J0D01*
G01*
X16138000Y-8038000D02*
X16318000Y-8218000D01*
X16318000Y-8038000D02*
X16138000Y-8218000D01*
X16318000Y-8128000D02*
G75*
G03*
X16318000Y-8128000I-90000J0D01*
G01*
X17337000Y-5625000D02*
X17517000Y-5805000D01*
X17517000Y-5625000D02*
X17337000Y-5805000D01*
X17517000Y-5715000D02*
G75*
G03*
X17517000Y-5715000I-90000J0D01*
G01*
X18297000Y-5625000D02*
X18477000Y-5805000D01*
X18477000Y-5625000D02*
X18297000Y-5805000D01*
X18477000Y-5715000D02*
G75*
G03*
X18477000Y-5715000I-90000J0D01*
G01*
X13146000Y-5625000D02*
X13326000Y-5805000D01*
X13326000Y-5625000D02*
X13146000Y-5805000D01*
X13326000Y-5715000D02*
G75*
G03*
X13326000Y-5715000I-90000J0D01*
G01*
X14106000Y-5625000D02*
X14286000Y-5805000D01*
X14286000Y-5625000D02*
X14106000Y-5805000D01*
X14286000Y-5715000D02*
G75*
G03*
X14286000Y-5715000I-90000J0D01*
G01*
X6872200Y-5625000D02*
X7052200Y-5805000D01*
X7052200Y-5625000D02*
X6872200Y-5805000D01*
X7052200Y-5715000D02*
G75*
G03*
X7052200Y-5715000I-90000J0D01*
G01*
X7832200Y-5625000D02*
X8012200Y-5805000D01*
X8012200Y-5625000D02*
X7832200Y-5805000D01*
X8012200Y-5715000D02*
G75*
G03*
X8012200Y-5715000I-90000J0D01*
G01*
X17337000Y-8038000D02*
X17517000Y-8218000D01*
X17517000Y-8038000D02*
X17337000Y-8218000D01*
X17517000Y-8128000D02*
G75*
G03*
X17517000Y-8128000I-90000J0D01*
G01*
X18297000Y-8038000D02*
X18477000Y-8218000D01*
X18477000Y-8038000D02*
X18297000Y-8218000D01*
X18477000Y-8128000D02*
G75*
G03*
X18477000Y-8128000I-90000J0D01*
G01*
X10987000Y-8038000D02*
X11167000Y-8218000D01*
X11167000Y-8038000D02*
X10987000Y-8218000D01*
X11167000Y-8128000D02*
G75*
G03*
X11167000Y-8128000I-90000J0D01*
G01*
X11947000Y-8038000D02*
X12127000Y-8218000D01*
X12127000Y-8038000D02*
X11947000Y-8218000D01*
X12127000Y-8128000D02*
G75*
G03*
X12127000Y-8128000I-90000J0D01*
G01*
X19418000Y-5625000D02*
X19598000Y-5805000D01*
X19598000Y-5625000D02*
X19418000Y-5805000D01*
X19598000Y-5715000D02*
G75*
G03*
X19598000Y-5715000I-90000J0D01*
G01*
X20378000Y-5625000D02*
X20558000Y-5805000D01*
X20558000Y-5625000D02*
X20378000Y-5805000D01*
X20558000Y-5715000D02*
G75*
G03*
X20558000Y-5715000I-90000J0D01*
G01*
X8993100Y-8038000D02*
X9173100Y-8218000D01*
X9173100Y-8038000D02*
X8993100Y-8218000D01*
X9173100Y-8128000D02*
G75*
G03*
X9173100Y-8128000I-90000J0D01*
G01*
X9953100Y-8038000D02*
X10133100Y-8218000D01*
X10133100Y-8038000D02*
X9953100Y-8218000D01*
X10133100Y-8128000D02*
G75*
G03*
X10133100Y-8128000I-90000J0D01*
G01*
X8993100Y-5625000D02*
X9173100Y-5805000D01*
X9173100Y-5625000D02*
X8993100Y-5805000D01*
X9173100Y-5715000D02*
G75*
G03*
X9173100Y-5715000I-90000J0D01*
G01*
X9953100Y-5625000D02*
X10133100Y-5805000D01*
X10133100Y-5625000D02*
X9953100Y-5805000D01*
X10133100Y-5715000D02*
G75*
G03*
X10133100Y-5715000I-90000J0D01*
G01*
X7946500Y-10677750D02*
X8131500Y-10862750D01*
X8131500Y-10677750D02*
X7946500Y-10862750D01*
X8039000Y-10677750D02*
X8039000Y-10862750D01*
X7946500Y-10770250D02*
X8131500Y-10770250D01*
X16290400Y-10677750D02*
X16475400Y-10862750D01*
X16475400Y-10677750D02*
X16290400Y-10862750D01*
X16382900Y-10677750D02*
X16382900Y-10862750D01*
X16290400Y-10770250D02*
X16475400Y-10770250D01*
X16760400Y-10677750D02*
X16945400Y-10862750D01*
X16945400Y-10677750D02*
X16760400Y-10862750D01*
X16852900Y-10677750D02*
X16852900Y-10862750D01*
X16760400Y-10770250D02*
X16945400Y-10770250D01*
X17230400Y-10677750D02*
X17415400Y-10862750D01*
X17415400Y-10677750D02*
X17230400Y-10862750D01*
X17322900Y-10677750D02*
X17322900Y-10862750D01*
X17230400Y-10770250D02*
X17415400Y-10770250D01*
X12061300Y-10677750D02*
X12246300Y-10862750D01*
X12246300Y-10677750D02*
X12061300Y-10862750D01*
X12153800Y-10677750D02*
X12153800Y-10862750D01*
X12061300Y-10770250D02*
X12246300Y-10770250D01*
X12531300Y-10677750D02*
X12716300Y-10862750D01*
X12716300Y-10677750D02*
X12531300Y-10862750D01*
X12623800Y-10677750D02*
X12623800Y-10862750D01*
X12531300Y-10770250D02*
X12716300Y-10770250D01*
X13001300Y-10677750D02*
X13186300Y-10862750D01*
X13186300Y-10677750D02*
X13001300Y-10862750D01*
X13093800Y-10677750D02*
X13093800Y-10862750D01*
X13001300Y-10770250D02*
X13186300Y-10770250D01*
X20481400Y-10677750D02*
X20666400Y-10862750D01*
X20666400Y-10677750D02*
X20481400Y-10862750D01*
X20573900Y-10677750D02*
X20573900Y-10862750D01*
X20481400Y-10770250D02*
X20666400Y-10770250D01*
X20951400Y-10677750D02*
X21136400Y-10862750D01*
X21136400Y-10677750D02*
X20951400Y-10862750D01*
X21043900Y-10677750D02*
X21043900Y-10862750D01*
X20951400Y-10770250D02*
X21136400Y-10770250D01*
X21421400Y-10677750D02*
X21606400Y-10862750D01*
X21606400Y-10677750D02*
X21421400Y-10862750D01*
X21513900Y-10677750D02*
X21513900Y-10862750D01*
X21421400Y-10770250D02*
X21606400Y-10770250D01*
X8416500Y-10677750D02*
X8601500Y-10862750D01*
X8601500Y-10677750D02*
X8416500Y-10862750D01*
X8509000Y-10677750D02*
X8509000Y-10862750D01*
X8416500Y-10770250D02*
X8601500Y-10770250D01*
X8886500Y-10677750D02*
X9071500Y-10862750D01*
X9071500Y-10677750D02*
X8886500Y-10862750D01*
X8979000Y-10677750D02*
X8979000Y-10862750D01*
X8886500Y-10770250D02*
X9071500Y-10770250D01*
D12*
X6887928Y-14946214D02*
X6887928Y-14646214D01*
X6959357Y-14646214D01*
X7002214Y-14660500D01*
X7030786Y-14689071D01*
X7045071Y-14717643D01*
X7059357Y-14774786D01*
X7059357Y-14817643D01*
X7045071Y-14874786D01*
X7030786Y-14903357D01*
X7002214Y-14931929D01*
X6959357Y-14946214D01*
X6887928Y-14946214D01*
X7187928Y-14946214D02*
X7187928Y-14746214D01*
X7187928Y-14803357D02*
X7202214Y-14774786D01*
X7216500Y-14760500D01*
X7245071Y-14746214D01*
X7273643Y-14746214D01*
X7373643Y-14946214D02*
X7373643Y-14746214D01*
X7373643Y-14646214D02*
X7359357Y-14660500D01*
X7373643Y-14674786D01*
X7387928Y-14660500D01*
X7373643Y-14646214D01*
X7373643Y-14674786D01*
X7559357Y-14946214D02*
X7530786Y-14931929D01*
X7516500Y-14903357D01*
X7516500Y-14646214D01*
X7716500Y-14946214D02*
X7687928Y-14931929D01*
X7673643Y-14903357D01*
X7673643Y-14646214D01*
X8059357Y-14946214D02*
X8059357Y-14646214D01*
X8159357Y-14860500D01*
X8259357Y-14646214D01*
X8259357Y-14946214D01*
X8530786Y-14946214D02*
X8530786Y-14789071D01*
X8516500Y-14760500D01*
X8487928Y-14746214D01*
X8430786Y-14746214D01*
X8402214Y-14760500D01*
X8530786Y-14931929D02*
X8502214Y-14946214D01*
X8430786Y-14946214D01*
X8402214Y-14931929D01*
X8387928Y-14903357D01*
X8387928Y-14874786D01*
X8402214Y-14846214D01*
X8430786Y-14831929D01*
X8502214Y-14831929D01*
X8530786Y-14817643D01*
X8673643Y-14746214D02*
X8673643Y-15046214D01*
X8673643Y-14760500D02*
X8702214Y-14746214D01*
X8759357Y-14746214D01*
X8787928Y-14760500D01*
X8802214Y-14774786D01*
X8816500Y-14803357D01*
X8816500Y-14889071D01*
X8802214Y-14917643D01*
X8787928Y-14931929D01*
X8759357Y-14946214D01*
X8702214Y-14946214D01*
X8673643Y-14931929D01*
X8945071Y-14917643D02*
X8959357Y-14931929D01*
X8945071Y-14946214D01*
X8930786Y-14931929D01*
X8945071Y-14917643D01*
X8945071Y-14946214D01*
X8945071Y-14760500D02*
X8959357Y-14774786D01*
X8945071Y-14789071D01*
X8930786Y-14774786D01*
X8945071Y-14760500D01*
X8945071Y-14789071D01*
X6561500Y-15420500D02*
X6601500Y-15460500D01*
X6601500Y-15420500D02*
X6561500Y-15460500D01*
X6945071Y-15276214D02*
X6973643Y-15276214D01*
X7002214Y-15290500D01*
X7016500Y-15304786D01*
X7030786Y-15333357D01*
X7045071Y-15390500D01*
X7045071Y-15461929D01*
X7030786Y-15519071D01*
X7016500Y-15547643D01*
X7002214Y-15561929D01*
X6973643Y-15576214D01*
X6945071Y-15576214D01*
X6916500Y-15561929D01*
X6902214Y-15547643D01*
X6887928Y-15519071D01*
X6873643Y-15461929D01*
X6873643Y-15390500D01*
X6887928Y-15333357D01*
X6902214Y-15304786D01*
X6916500Y-15290500D01*
X6945071Y-15276214D01*
X7173643Y-15547643D02*
X7187928Y-15561929D01*
X7173643Y-15576214D01*
X7159357Y-15561929D01*
X7173643Y-15547643D01*
X7173643Y-15576214D01*
X7445071Y-15376214D02*
X7445071Y-15576214D01*
X7373643Y-15261929D02*
X7302214Y-15476214D01*
X7487928Y-15476214D01*
X7659357Y-15276214D02*
X7687928Y-15276214D01*
X7716500Y-15290500D01*
X7730786Y-15304786D01*
X7745071Y-15333357D01*
X7759357Y-15390500D01*
X7759357Y-15461929D01*
X7745071Y-15519071D01*
X7730786Y-15547643D01*
X7716500Y-15561929D01*
X7687928Y-15576214D01*
X7659357Y-15576214D01*
X7630786Y-15561929D01*
X7616500Y-15547643D01*
X7602214Y-15519071D01*
X7587928Y-15461929D01*
X7587928Y-15390500D01*
X7602214Y-15333357D01*
X7616500Y-15304786D01*
X7630786Y-15290500D01*
X7659357Y-15276214D01*
X7887928Y-15576214D02*
X7887928Y-15376214D01*
X7887928Y-15404786D02*
X7902214Y-15390500D01*
X7930786Y-15376214D01*
X7973643Y-15376214D01*
X8002214Y-15390500D01*
X8016500Y-15419071D01*
X8016500Y-15576214D01*
X8016500Y-15419071D02*
X8030786Y-15390500D01*
X8059357Y-15376214D01*
X8102214Y-15376214D01*
X8130786Y-15390500D01*
X8145071Y-15419071D01*
X8145071Y-15576214D01*
X8287928Y-15576214D02*
X8287928Y-15376214D01*
X8287928Y-15404786D02*
X8302214Y-15390500D01*
X8330786Y-15376214D01*
X8373643Y-15376214D01*
X8402214Y-15390500D01*
X8416500Y-15419071D01*
X8416500Y-15576214D01*
X8416500Y-15419071D02*
X8430786Y-15390500D01*
X8459357Y-15376214D01*
X8502214Y-15376214D01*
X8530786Y-15390500D01*
X8545071Y-15419071D01*
X8545071Y-15576214D01*
X9130786Y-15261929D02*
X8873643Y-15647643D01*
X9516500Y-15276214D02*
X9545071Y-15276214D01*
X9573643Y-15290500D01*
X9587928Y-15304786D01*
X9602214Y-15333357D01*
X9616500Y-15390500D01*
X9616500Y-15461929D01*
X9602214Y-15519071D01*
X9587928Y-15547643D01*
X9573643Y-15561929D01*
X9545071Y-15576214D01*
X9516500Y-15576214D01*
X9487928Y-15561929D01*
X9473643Y-15547643D01*
X9459357Y-15519071D01*
X9445071Y-15461929D01*
X9445071Y-15390500D01*
X9459357Y-15333357D01*
X9473643Y-15304786D01*
X9487928Y-15290500D01*
X9516500Y-15276214D01*
X9745071Y-15547643D02*
X9759357Y-15561929D01*
X9745071Y-15576214D01*
X9730786Y-15561929D01*
X9745071Y-15547643D01*
X9745071Y-15576214D01*
X9945071Y-15276214D02*
X9973643Y-15276214D01*
X10002214Y-15290500D01*
X10016500Y-15304786D01*
X10030786Y-15333357D01*
X10045071Y-15390500D01*
X10045071Y-15461929D01*
X10030786Y-15519071D01*
X10016500Y-15547643D01*
X10002214Y-15561929D01*
X9973643Y-15576214D01*
X9945071Y-15576214D01*
X9916500Y-15561929D01*
X9902214Y-15547643D01*
X9887928Y-15519071D01*
X9873643Y-15461929D01*
X9873643Y-15390500D01*
X9887928Y-15333357D01*
X9902214Y-15304786D01*
X9916500Y-15290500D01*
X9945071Y-15276214D01*
X10330786Y-15576214D02*
X10159357Y-15576214D01*
X10245071Y-15576214D02*
X10245071Y-15276214D01*
X10216500Y-15319071D01*
X10187928Y-15347643D01*
X10159357Y-15361929D01*
X10587928Y-15276214D02*
X10530786Y-15276214D01*
X10502214Y-15290500D01*
X10487928Y-15304786D01*
X10459357Y-15347643D01*
X10445071Y-15404786D01*
X10445071Y-15519071D01*
X10459357Y-15547643D01*
X10473643Y-15561929D01*
X10502214Y-15576214D01*
X10559357Y-15576214D01*
X10587928Y-15561929D01*
X10602214Y-15547643D01*
X10616500Y-15519071D01*
X10616500Y-15447643D01*
X10602214Y-15419071D01*
X10587928Y-15404786D01*
X10559357Y-15390500D01*
X10502214Y-15390500D01*
X10473643Y-15404786D01*
X10459357Y-15419071D01*
X10445071Y-15447643D01*
X10730786Y-15276214D02*
X10730786Y-15333357D01*
X10845071Y-15276214D02*
X10845071Y-15333357D01*
X11287928Y-15690500D02*
X11273643Y-15676214D01*
X11245071Y-15633357D01*
X11230786Y-15604786D01*
X11216500Y-15561929D01*
X11202214Y-15490500D01*
X11202214Y-15433357D01*
X11216500Y-15361929D01*
X11230786Y-15319071D01*
X11245071Y-15290500D01*
X11273643Y-15247643D01*
X11287928Y-15233357D01*
X11387928Y-15304786D02*
X11402214Y-15290500D01*
X11430786Y-15276214D01*
X11502214Y-15276214D01*
X11530786Y-15290500D01*
X11545071Y-15304786D01*
X11559357Y-15333357D01*
X11559357Y-15361929D01*
X11545071Y-15404786D01*
X11373643Y-15576214D01*
X11559357Y-15576214D01*
X11816500Y-15276214D02*
X11759357Y-15276214D01*
X11730786Y-15290500D01*
X11716500Y-15304786D01*
X11687928Y-15347643D01*
X11673643Y-15404786D01*
X11673643Y-15519071D01*
X11687928Y-15547643D01*
X11702214Y-15561929D01*
X11730786Y-15576214D01*
X11787928Y-15576214D01*
X11816500Y-15561929D01*
X11830786Y-15547643D01*
X11845071Y-15519071D01*
X11845071Y-15447643D01*
X11830786Y-15419071D01*
X11816500Y-15404786D01*
X11787928Y-15390500D01*
X11730786Y-15390500D01*
X11702214Y-15404786D01*
X11687928Y-15419071D01*
X11673643Y-15447643D01*
X11945071Y-15276214D02*
X12130786Y-15276214D01*
X12030786Y-15390500D01*
X12073643Y-15390500D01*
X12102214Y-15404786D01*
X12116500Y-15419071D01*
X12130786Y-15447643D01*
X12130786Y-15519071D01*
X12116500Y-15547643D01*
X12102214Y-15561929D01*
X12073643Y-15576214D01*
X11987928Y-15576214D01*
X11959357Y-15561929D01*
X11945071Y-15547643D01*
X12487928Y-15576214D02*
X12487928Y-15276214D01*
X12616500Y-15576214D02*
X12616500Y-15419071D01*
X12602214Y-15390500D01*
X12573643Y-15376214D01*
X12530786Y-15376214D01*
X12502214Y-15390500D01*
X12487928Y-15404786D01*
X12802214Y-15576214D02*
X12773643Y-15561929D01*
X12759357Y-15547643D01*
X12745071Y-15519071D01*
X12745071Y-15433357D01*
X12759357Y-15404786D01*
X12773643Y-15390500D01*
X12802214Y-15376214D01*
X12845071Y-15376214D01*
X12873643Y-15390500D01*
X12887928Y-15404786D01*
X12902214Y-15433357D01*
X12902214Y-15519071D01*
X12887928Y-15547643D01*
X12873643Y-15561929D01*
X12845071Y-15576214D01*
X12802214Y-15576214D01*
X13073643Y-15576214D02*
X13045071Y-15561929D01*
X13030786Y-15533357D01*
X13030786Y-15276214D01*
X13302214Y-15561929D02*
X13273643Y-15576214D01*
X13216500Y-15576214D01*
X13187928Y-15561929D01*
X13173643Y-15533357D01*
X13173643Y-15419071D01*
X13187928Y-15390500D01*
X13216500Y-15376214D01*
X13273643Y-15376214D01*
X13302214Y-15390500D01*
X13316500Y-15419071D01*
X13316500Y-15447643D01*
X13173643Y-15476214D01*
X13430786Y-15561929D02*
X13459357Y-15576214D01*
X13516500Y-15576214D01*
X13545071Y-15561929D01*
X13559357Y-15533357D01*
X13559357Y-15519071D01*
X13545071Y-15490500D01*
X13516500Y-15476214D01*
X13473643Y-15476214D01*
X13445071Y-15461929D01*
X13430786Y-15433357D01*
X13430786Y-15419071D01*
X13445071Y-15390500D01*
X13473643Y-15376214D01*
X13516500Y-15376214D01*
X13545071Y-15390500D01*
X13659357Y-15690500D02*
X13673643Y-15676214D01*
X13702214Y-15633357D01*
X13716500Y-15604786D01*
X13730786Y-15561929D01*
X13745071Y-15490500D01*
X13745071Y-15433357D01*
X13730786Y-15361929D01*
X13716500Y-15319071D01*
X13702214Y-15290500D01*
X13673643Y-15247643D01*
X13659357Y-15233357D01*
X6601500Y-15836500D02*
G75*
G03*
X6601500Y-15836500I-40000J0D01*
G01*
X6945071Y-15672214D02*
X6973643Y-15672214D01*
X7002214Y-15686500D01*
X7016500Y-15700786D01*
X7030786Y-15729357D01*
X7045071Y-15786500D01*
X7045071Y-15857929D01*
X7030786Y-15915071D01*
X7016500Y-15943643D01*
X7002214Y-15957929D01*
X6973643Y-15972214D01*
X6945071Y-15972214D01*
X6916500Y-15957929D01*
X6902214Y-15943643D01*
X6887928Y-15915071D01*
X6873643Y-15857929D01*
X6873643Y-15786500D01*
X6887928Y-15729357D01*
X6902214Y-15700786D01*
X6916500Y-15686500D01*
X6945071Y-15672214D01*
X7173643Y-15943643D02*
X7187928Y-15957929D01*
X7173643Y-15972214D01*
X7159357Y-15957929D01*
X7173643Y-15943643D01*
X7173643Y-15972214D01*
X7359357Y-15800786D02*
X7330786Y-15786500D01*
X7316500Y-15772214D01*
X7302214Y-15743643D01*
X7302214Y-15729357D01*
X7316500Y-15700786D01*
X7330786Y-15686500D01*
X7359357Y-15672214D01*
X7416500Y-15672214D01*
X7445071Y-15686500D01*
X7459357Y-15700786D01*
X7473643Y-15729357D01*
X7473643Y-15743643D01*
X7459357Y-15772214D01*
X7445071Y-15786500D01*
X7416500Y-15800786D01*
X7359357Y-15800786D01*
X7330786Y-15815071D01*
X7316500Y-15829357D01*
X7302214Y-15857929D01*
X7302214Y-15915071D01*
X7316500Y-15943643D01*
X7330786Y-15957929D01*
X7359357Y-15972214D01*
X7416500Y-15972214D01*
X7445071Y-15957929D01*
X7459357Y-15943643D01*
X7473643Y-15915071D01*
X7473643Y-15857929D01*
X7459357Y-15829357D01*
X7445071Y-15815071D01*
X7416500Y-15800786D01*
X7659357Y-15672214D02*
X7687928Y-15672214D01*
X7716500Y-15686500D01*
X7730786Y-15700786D01*
X7745071Y-15729357D01*
X7759357Y-15786500D01*
X7759357Y-15857929D01*
X7745071Y-15915071D01*
X7730786Y-15943643D01*
X7716500Y-15957929D01*
X7687928Y-15972214D01*
X7659357Y-15972214D01*
X7630786Y-15957929D01*
X7616500Y-15943643D01*
X7602214Y-15915071D01*
X7587928Y-15857929D01*
X7587928Y-15786500D01*
X7602214Y-15729357D01*
X7616500Y-15700786D01*
X7630786Y-15686500D01*
X7659357Y-15672214D01*
X7887928Y-15972214D02*
X7887928Y-15772214D01*
X7887928Y-15800786D02*
X7902214Y-15786500D01*
X7930786Y-15772214D01*
X7973643Y-15772214D01*
X8002214Y-15786500D01*
X8016500Y-15815071D01*
X8016500Y-15972214D01*
X8016500Y-15815071D02*
X8030786Y-15786500D01*
X8059357Y-15772214D01*
X8102214Y-15772214D01*
X8130786Y-15786500D01*
X8145071Y-15815071D01*
X8145071Y-15972214D01*
X8287928Y-15972214D02*
X8287928Y-15772214D01*
X8287928Y-15800786D02*
X8302214Y-15786500D01*
X8330786Y-15772214D01*
X8373643Y-15772214D01*
X8402214Y-15786500D01*
X8416500Y-15815071D01*
X8416500Y-15972214D01*
X8416500Y-15815071D02*
X8430786Y-15786500D01*
X8459357Y-15772214D01*
X8502214Y-15772214D01*
X8530786Y-15786500D01*
X8545071Y-15815071D01*
X8545071Y-15972214D01*
X9130786Y-15657929D02*
X8873643Y-16043643D01*
X9516500Y-15672214D02*
X9545071Y-15672214D01*
X9573643Y-15686500D01*
X9587928Y-15700786D01*
X9602214Y-15729357D01*
X9616500Y-15786500D01*
X9616500Y-15857929D01*
X9602214Y-15915071D01*
X9587928Y-15943643D01*
X9573643Y-15957929D01*
X9545071Y-15972214D01*
X9516500Y-15972214D01*
X9487928Y-15957929D01*
X9473643Y-15943643D01*
X9459357Y-15915071D01*
X9445071Y-15857929D01*
X9445071Y-15786500D01*
X9459357Y-15729357D01*
X9473643Y-15700786D01*
X9487928Y-15686500D01*
X9516500Y-15672214D01*
X9745071Y-15943643D02*
X9759357Y-15957929D01*
X9745071Y-15972214D01*
X9730786Y-15957929D01*
X9745071Y-15943643D01*
X9745071Y-15972214D01*
X9945071Y-15672214D02*
X9973643Y-15672214D01*
X10002214Y-15686500D01*
X10016500Y-15700786D01*
X10030786Y-15729357D01*
X10045071Y-15786500D01*
X10045071Y-15857929D01*
X10030786Y-15915071D01*
X10016500Y-15943643D01*
X10002214Y-15957929D01*
X9973643Y-15972214D01*
X9945071Y-15972214D01*
X9916500Y-15957929D01*
X9902214Y-15943643D01*
X9887928Y-15915071D01*
X9873643Y-15857929D01*
X9873643Y-15786500D01*
X9887928Y-15729357D01*
X9902214Y-15700786D01*
X9916500Y-15686500D01*
X9945071Y-15672214D01*
X10145071Y-15672214D02*
X10330786Y-15672214D01*
X10230786Y-15786500D01*
X10273643Y-15786500D01*
X10302214Y-15800786D01*
X10316500Y-15815071D01*
X10330786Y-15843643D01*
X10330786Y-15915071D01*
X10316500Y-15943643D01*
X10302214Y-15957929D01*
X10273643Y-15972214D01*
X10187928Y-15972214D01*
X10159357Y-15957929D01*
X10145071Y-15943643D01*
X10616500Y-15972214D02*
X10445071Y-15972214D01*
X10530786Y-15972214D02*
X10530786Y-15672214D01*
X10502214Y-15715071D01*
X10473643Y-15743643D01*
X10445071Y-15757929D01*
X10730786Y-15672214D02*
X10730786Y-15729357D01*
X10845071Y-15672214D02*
X10845071Y-15729357D01*
X11287928Y-16086500D02*
X11273643Y-16072214D01*
X11245071Y-16029357D01*
X11230786Y-16000786D01*
X11216500Y-15957929D01*
X11202214Y-15886500D01*
X11202214Y-15829357D01*
X11216500Y-15757929D01*
X11230786Y-15715071D01*
X11245071Y-15686500D01*
X11273643Y-15643643D01*
X11287928Y-15629357D01*
X11559357Y-15972214D02*
X11387928Y-15972214D01*
X11473643Y-15972214D02*
X11473643Y-15672214D01*
X11445071Y-15715071D01*
X11416500Y-15743643D01*
X11387928Y-15757929D01*
X11745071Y-15672214D02*
X11773643Y-15672214D01*
X11802214Y-15686500D01*
X11816500Y-15700786D01*
X11830786Y-15729357D01*
X11845071Y-15786500D01*
X11845071Y-15857929D01*
X11830786Y-15915071D01*
X11816500Y-15943643D01*
X11802214Y-15957929D01*
X11773643Y-15972214D01*
X11745071Y-15972214D01*
X11716500Y-15957929D01*
X11702214Y-15943643D01*
X11687928Y-15915071D01*
X11673643Y-15857929D01*
X11673643Y-15786500D01*
X11687928Y-15729357D01*
X11702214Y-15700786D01*
X11716500Y-15686500D01*
X11745071Y-15672214D01*
X12102214Y-15772214D02*
X12102214Y-15972214D01*
X12030786Y-15657929D02*
X11959357Y-15872214D01*
X12145071Y-15872214D01*
X12487928Y-15972214D02*
X12487928Y-15672214D01*
X12616500Y-15972214D02*
X12616500Y-15815071D01*
X12602214Y-15786500D01*
X12573643Y-15772214D01*
X12530786Y-15772214D01*
X12502214Y-15786500D01*
X12487928Y-15800786D01*
X12802214Y-15972214D02*
X12773643Y-15957929D01*
X12759357Y-15943643D01*
X12745071Y-15915071D01*
X12745071Y-15829357D01*
X12759357Y-15800786D01*
X12773643Y-15786500D01*
X12802214Y-15772214D01*
X12845071Y-15772214D01*
X12873643Y-15786500D01*
X12887928Y-15800786D01*
X12902214Y-15829357D01*
X12902214Y-15915071D01*
X12887928Y-15943643D01*
X12873643Y-15957929D01*
X12845071Y-15972214D01*
X12802214Y-15972214D01*
X13073643Y-15972214D02*
X13045071Y-15957929D01*
X13030786Y-15929357D01*
X13030786Y-15672214D01*
X13302214Y-15957929D02*
X13273643Y-15972214D01*
X13216500Y-15972214D01*
X13187928Y-15957929D01*
X13173643Y-15929357D01*
X13173643Y-15815071D01*
X13187928Y-15786500D01*
X13216500Y-15772214D01*
X13273643Y-15772214D01*
X13302214Y-15786500D01*
X13316500Y-15815071D01*
X13316500Y-15843643D01*
X13173643Y-15872214D01*
X13430786Y-15957929D02*
X13459357Y-15972214D01*
X13516500Y-15972214D01*
X13545071Y-15957929D01*
X13559357Y-15929357D01*
X13559357Y-15915071D01*
X13545071Y-15886500D01*
X13516500Y-15872214D01*
X13473643Y-15872214D01*
X13445071Y-15857929D01*
X13430786Y-15829357D01*
X13430786Y-15815071D01*
X13445071Y-15786500D01*
X13473643Y-15772214D01*
X13516500Y-15772214D01*
X13545071Y-15786500D01*
X13659357Y-16086500D02*
X13673643Y-16072214D01*
X13702214Y-16029357D01*
X13716500Y-16000786D01*
X13730786Y-15957929D01*
X13745071Y-15886500D01*
X13745071Y-15829357D01*
X13730786Y-15757929D01*
X13716500Y-15715071D01*
X13702214Y-15686500D01*
X13673643Y-15643643D01*
X13659357Y-15629357D01*
X6556500Y-16187500D02*
X6556500Y-16277500D01*
X6511500Y-16232500D02*
X6601500Y-16232500D01*
X6945071Y-16068214D02*
X6973643Y-16068214D01*
X7002214Y-16082500D01*
X7016500Y-16096786D01*
X7030786Y-16125357D01*
X7045071Y-16182500D01*
X7045071Y-16253929D01*
X7030786Y-16311071D01*
X7016500Y-16339643D01*
X7002214Y-16353929D01*
X6973643Y-16368214D01*
X6945071Y-16368214D01*
X6916500Y-16353929D01*
X6902214Y-16339643D01*
X6887928Y-16311071D01*
X6873643Y-16253929D01*
X6873643Y-16182500D01*
X6887928Y-16125357D01*
X6902214Y-16096786D01*
X6916500Y-16082500D01*
X6945071Y-16068214D01*
X7173643Y-16339643D02*
X7187928Y-16353929D01*
X7173643Y-16368214D01*
X7159357Y-16353929D01*
X7173643Y-16339643D01*
X7173643Y-16368214D01*
X7330786Y-16368214D02*
X7387928Y-16368214D01*
X7416500Y-16353929D01*
X7430786Y-16339643D01*
X7459357Y-16296786D01*
X7473643Y-16239643D01*
X7473643Y-16125357D01*
X7459357Y-16096786D01*
X7445071Y-16082500D01*
X7416500Y-16068214D01*
X7359357Y-16068214D01*
X7330786Y-16082500D01*
X7316500Y-16096786D01*
X7302214Y-16125357D01*
X7302214Y-16196786D01*
X7316500Y-16225357D01*
X7330786Y-16239643D01*
X7359357Y-16253929D01*
X7416500Y-16253929D01*
X7445071Y-16239643D01*
X7459357Y-16225357D01*
X7473643Y-16196786D01*
X7659357Y-16068214D02*
X7687928Y-16068214D01*
X7716500Y-16082500D01*
X7730786Y-16096786D01*
X7745071Y-16125357D01*
X7759357Y-16182500D01*
X7759357Y-16253929D01*
X7745071Y-16311071D01*
X7730786Y-16339643D01*
X7716500Y-16353929D01*
X7687928Y-16368214D01*
X7659357Y-16368214D01*
X7630786Y-16353929D01*
X7616500Y-16339643D01*
X7602214Y-16311071D01*
X7587928Y-16253929D01*
X7587928Y-16182500D01*
X7602214Y-16125357D01*
X7616500Y-16096786D01*
X7630786Y-16082500D01*
X7659357Y-16068214D01*
X7887928Y-16368214D02*
X7887928Y-16168214D01*
X7887928Y-16196786D02*
X7902214Y-16182500D01*
X7930786Y-16168214D01*
X7973643Y-16168214D01*
X8002214Y-16182500D01*
X8016500Y-16211071D01*
X8016500Y-16368214D01*
X8016500Y-16211071D02*
X8030786Y-16182500D01*
X8059357Y-16168214D01*
X8102214Y-16168214D01*
X8130786Y-16182500D01*
X8145071Y-16211071D01*
X8145071Y-16368214D01*
X8287928Y-16368214D02*
X8287928Y-16168214D01*
X8287928Y-16196786D02*
X8302214Y-16182500D01*
X8330786Y-16168214D01*
X8373643Y-16168214D01*
X8402214Y-16182500D01*
X8416500Y-16211071D01*
X8416500Y-16368214D01*
X8416500Y-16211071D02*
X8430786Y-16182500D01*
X8459357Y-16168214D01*
X8502214Y-16168214D01*
X8530786Y-16182500D01*
X8545071Y-16211071D01*
X8545071Y-16368214D01*
X9130786Y-16053929D02*
X8873643Y-16439643D01*
X9516500Y-16068214D02*
X9545071Y-16068214D01*
X9573643Y-16082500D01*
X9587928Y-16096786D01*
X9602214Y-16125357D01*
X9616500Y-16182500D01*
X9616500Y-16253929D01*
X9602214Y-16311071D01*
X9587928Y-16339643D01*
X9573643Y-16353929D01*
X9545071Y-16368214D01*
X9516500Y-16368214D01*
X9487928Y-16353929D01*
X9473643Y-16339643D01*
X9459357Y-16311071D01*
X9445071Y-16253929D01*
X9445071Y-16182500D01*
X9459357Y-16125357D01*
X9473643Y-16096786D01*
X9487928Y-16082500D01*
X9516500Y-16068214D01*
X9745071Y-16339643D02*
X9759357Y-16353929D01*
X9745071Y-16368214D01*
X9730786Y-16353929D01*
X9745071Y-16339643D01*
X9745071Y-16368214D01*
X9945071Y-16068214D02*
X9973643Y-16068214D01*
X10002214Y-16082500D01*
X10016500Y-16096786D01*
X10030786Y-16125357D01*
X10045071Y-16182500D01*
X10045071Y-16253929D01*
X10030786Y-16311071D01*
X10016500Y-16339643D01*
X10002214Y-16353929D01*
X9973643Y-16368214D01*
X9945071Y-16368214D01*
X9916500Y-16353929D01*
X9902214Y-16339643D01*
X9887928Y-16311071D01*
X9873643Y-16253929D01*
X9873643Y-16182500D01*
X9887928Y-16125357D01*
X9902214Y-16096786D01*
X9916500Y-16082500D01*
X9945071Y-16068214D01*
X10145071Y-16068214D02*
X10330786Y-16068214D01*
X10230786Y-16182500D01*
X10273643Y-16182500D01*
X10302214Y-16196786D01*
X10316500Y-16211071D01*
X10330786Y-16239643D01*
X10330786Y-16311071D01*
X10316500Y-16339643D01*
X10302214Y-16353929D01*
X10273643Y-16368214D01*
X10187928Y-16368214D01*
X10159357Y-16353929D01*
X10145071Y-16339643D01*
X10602214Y-16068214D02*
X10459357Y-16068214D01*
X10445071Y-16211071D01*
X10459357Y-16196786D01*
X10487928Y-16182500D01*
X10559357Y-16182500D01*
X10587928Y-16196786D01*
X10602214Y-16211071D01*
X10616500Y-16239643D01*
X10616500Y-16311071D01*
X10602214Y-16339643D01*
X10587928Y-16353929D01*
X10559357Y-16368214D01*
X10487928Y-16368214D01*
X10459357Y-16353929D01*
X10445071Y-16339643D01*
X10730786Y-16068214D02*
X10730786Y-16125357D01*
X10845071Y-16068214D02*
X10845071Y-16125357D01*
X11287928Y-16482500D02*
X11273643Y-16468214D01*
X11245071Y-16425357D01*
X11230786Y-16396786D01*
X11216500Y-16353929D01*
X11202214Y-16282500D01*
X11202214Y-16225357D01*
X11216500Y-16153929D01*
X11230786Y-16111071D01*
X11245071Y-16082500D01*
X11273643Y-16039643D01*
X11287928Y-16025357D01*
X11559357Y-16368214D02*
X11387928Y-16368214D01*
X11473643Y-16368214D02*
X11473643Y-16068214D01*
X11445071Y-16111071D01*
X11416500Y-16139643D01*
X11387928Y-16153929D01*
X11816500Y-16068214D02*
X11759357Y-16068214D01*
X11730786Y-16082500D01*
X11716500Y-16096786D01*
X11687928Y-16139643D01*
X11673643Y-16196786D01*
X11673643Y-16311071D01*
X11687928Y-16339643D01*
X11702214Y-16353929D01*
X11730786Y-16368214D01*
X11787928Y-16368214D01*
X11816500Y-16353929D01*
X11830786Y-16339643D01*
X11845071Y-16311071D01*
X11845071Y-16239643D01*
X11830786Y-16211071D01*
X11816500Y-16196786D01*
X11787928Y-16182500D01*
X11730786Y-16182500D01*
X11702214Y-16196786D01*
X11687928Y-16211071D01*
X11673643Y-16239643D01*
X12202214Y-16368214D02*
X12202214Y-16068214D01*
X12330786Y-16368214D02*
X12330786Y-16211071D01*
X12316500Y-16182500D01*
X12287928Y-16168214D01*
X12245071Y-16168214D01*
X12216500Y-16182500D01*
X12202214Y-16196786D01*
X12516500Y-16368214D02*
X12487928Y-16353929D01*
X12473643Y-16339643D01*
X12459357Y-16311071D01*
X12459357Y-16225357D01*
X12473643Y-16196786D01*
X12487928Y-16182500D01*
X12516500Y-16168214D01*
X12559357Y-16168214D01*
X12587928Y-16182500D01*
X12602214Y-16196786D01*
X12616500Y-16225357D01*
X12616500Y-16311071D01*
X12602214Y-16339643D01*
X12587928Y-16353929D01*
X12559357Y-16368214D01*
X12516500Y-16368214D01*
X12787928Y-16368214D02*
X12759357Y-16353929D01*
X12745071Y-16325357D01*
X12745071Y-16068214D01*
X13016500Y-16353929D02*
X12987928Y-16368214D01*
X12930786Y-16368214D01*
X12902214Y-16353929D01*
X12887928Y-16325357D01*
X12887928Y-16211071D01*
X12902214Y-16182500D01*
X12930786Y-16168214D01*
X12987928Y-16168214D01*
X13016500Y-16182500D01*
X13030786Y-16211071D01*
X13030786Y-16239643D01*
X12887928Y-16268214D01*
X13145071Y-16353929D02*
X13173643Y-16368214D01*
X13230786Y-16368214D01*
X13259357Y-16353929D01*
X13273643Y-16325357D01*
X13273643Y-16311071D01*
X13259357Y-16282500D01*
X13230786Y-16268214D01*
X13187928Y-16268214D01*
X13159357Y-16253929D01*
X13145071Y-16225357D01*
X13145071Y-16211071D01*
X13159357Y-16182500D01*
X13187928Y-16168214D01*
X13230786Y-16168214D01*
X13259357Y-16182500D01*
X13373643Y-16482500D02*
X13387928Y-16468214D01*
X13416500Y-16425357D01*
X13430786Y-16396786D01*
X13445071Y-16353929D01*
X13459357Y-16282500D01*
X13459357Y-16225357D01*
X13445071Y-16153929D01*
X13430786Y-16111071D01*
X13416500Y-16082500D01*
X13387928Y-16039643D01*
X13373643Y-16025357D01*
X6586856Y-16663856D02*
X6586856Y-16593144D01*
X6516144Y-16593144D01*
X6516144Y-16663856D01*
X6586856Y-16663856D01*
X7045071Y-16764214D02*
X6873643Y-16764214D01*
X6959357Y-16764214D02*
X6959357Y-16464214D01*
X6930786Y-16507071D01*
X6902214Y-16535643D01*
X6873643Y-16549929D01*
X7173643Y-16735643D02*
X7187928Y-16749929D01*
X7173643Y-16764214D01*
X7159357Y-16749929D01*
X7173643Y-16735643D01*
X7173643Y-16764214D01*
X7373643Y-16464214D02*
X7402214Y-16464214D01*
X7430786Y-16478500D01*
X7445071Y-16492786D01*
X7459357Y-16521357D01*
X7473643Y-16578500D01*
X7473643Y-16649929D01*
X7459357Y-16707071D01*
X7445071Y-16735643D01*
X7430786Y-16749929D01*
X7402214Y-16764214D01*
X7373643Y-16764214D01*
X7345071Y-16749929D01*
X7330786Y-16735643D01*
X7316500Y-16707071D01*
X7302214Y-16649929D01*
X7302214Y-16578500D01*
X7316500Y-16521357D01*
X7330786Y-16492786D01*
X7345071Y-16478500D01*
X7373643Y-16464214D01*
X7659357Y-16464214D02*
X7687928Y-16464214D01*
X7716500Y-16478500D01*
X7730786Y-16492786D01*
X7745071Y-16521357D01*
X7759357Y-16578500D01*
X7759357Y-16649929D01*
X7745071Y-16707071D01*
X7730786Y-16735643D01*
X7716500Y-16749929D01*
X7687928Y-16764214D01*
X7659357Y-16764214D01*
X7630786Y-16749929D01*
X7616500Y-16735643D01*
X7602214Y-16707071D01*
X7587928Y-16649929D01*
X7587928Y-16578500D01*
X7602214Y-16521357D01*
X7616500Y-16492786D01*
X7630786Y-16478500D01*
X7659357Y-16464214D01*
X7887928Y-16764214D02*
X7887928Y-16564214D01*
X7887928Y-16592786D02*
X7902214Y-16578500D01*
X7930786Y-16564214D01*
X7973643Y-16564214D01*
X8002214Y-16578500D01*
X8016500Y-16607071D01*
X8016500Y-16764214D01*
X8016500Y-16607071D02*
X8030786Y-16578500D01*
X8059357Y-16564214D01*
X8102214Y-16564214D01*
X8130786Y-16578500D01*
X8145071Y-16607071D01*
X8145071Y-16764214D01*
X8287928Y-16764214D02*
X8287928Y-16564214D01*
X8287928Y-16592786D02*
X8302214Y-16578500D01*
X8330786Y-16564214D01*
X8373643Y-16564214D01*
X8402214Y-16578500D01*
X8416500Y-16607071D01*
X8416500Y-16764214D01*
X8416500Y-16607071D02*
X8430786Y-16578500D01*
X8459357Y-16564214D01*
X8502214Y-16564214D01*
X8530786Y-16578500D01*
X8545071Y-16607071D01*
X8545071Y-16764214D01*
X9130786Y-16449929D02*
X8873643Y-16835643D01*
X9516500Y-16464214D02*
X9545071Y-16464214D01*
X9573643Y-16478500D01*
X9587928Y-16492786D01*
X9602214Y-16521357D01*
X9616500Y-16578500D01*
X9616500Y-16649929D01*
X9602214Y-16707071D01*
X9587928Y-16735643D01*
X9573643Y-16749929D01*
X9545071Y-16764214D01*
X9516500Y-16764214D01*
X9487928Y-16749929D01*
X9473643Y-16735643D01*
X9459357Y-16707071D01*
X9445071Y-16649929D01*
X9445071Y-16578500D01*
X9459357Y-16521357D01*
X9473643Y-16492786D01*
X9487928Y-16478500D01*
X9516500Y-16464214D01*
X9745071Y-16735643D02*
X9759357Y-16749929D01*
X9745071Y-16764214D01*
X9730786Y-16749929D01*
X9745071Y-16735643D01*
X9745071Y-16764214D01*
X9945071Y-16464214D02*
X9973643Y-16464214D01*
X10002214Y-16478500D01*
X10016500Y-16492786D01*
X10030786Y-16521357D01*
X10045071Y-16578500D01*
X10045071Y-16649929D01*
X10030786Y-16707071D01*
X10016500Y-16735643D01*
X10002214Y-16749929D01*
X9973643Y-16764214D01*
X9945071Y-16764214D01*
X9916500Y-16749929D01*
X9902214Y-16735643D01*
X9887928Y-16707071D01*
X9873643Y-16649929D01*
X9873643Y-16578500D01*
X9887928Y-16521357D01*
X9902214Y-16492786D01*
X9916500Y-16478500D01*
X9945071Y-16464214D01*
X10145071Y-16464214D02*
X10330786Y-16464214D01*
X10230786Y-16578500D01*
X10273643Y-16578500D01*
X10302214Y-16592786D01*
X10316500Y-16607071D01*
X10330786Y-16635643D01*
X10330786Y-16707071D01*
X10316500Y-16735643D01*
X10302214Y-16749929D01*
X10273643Y-16764214D01*
X10187928Y-16764214D01*
X10159357Y-16749929D01*
X10145071Y-16735643D01*
X10473643Y-16764214D02*
X10530786Y-16764214D01*
X10559357Y-16749929D01*
X10573643Y-16735643D01*
X10602214Y-16692786D01*
X10616500Y-16635643D01*
X10616500Y-16521357D01*
X10602214Y-16492786D01*
X10587928Y-16478500D01*
X10559357Y-16464214D01*
X10502214Y-16464214D01*
X10473643Y-16478500D01*
X10459357Y-16492786D01*
X10445071Y-16521357D01*
X10445071Y-16592786D01*
X10459357Y-16621357D01*
X10473643Y-16635643D01*
X10502214Y-16649929D01*
X10559357Y-16649929D01*
X10587928Y-16635643D01*
X10602214Y-16621357D01*
X10616500Y-16592786D01*
X10730786Y-16464214D02*
X10730786Y-16521357D01*
X10845071Y-16464214D02*
X10845071Y-16521357D01*
X11287928Y-16878500D02*
X11273643Y-16864214D01*
X11245071Y-16821357D01*
X11230786Y-16792786D01*
X11216500Y-16749929D01*
X11202214Y-16678500D01*
X11202214Y-16621357D01*
X11216500Y-16549929D01*
X11230786Y-16507071D01*
X11245071Y-16478500D01*
X11273643Y-16435643D01*
X11287928Y-16421357D01*
X11545071Y-16464214D02*
X11402214Y-16464214D01*
X11387928Y-16607071D01*
X11402214Y-16592786D01*
X11430786Y-16578500D01*
X11502214Y-16578500D01*
X11530786Y-16592786D01*
X11545071Y-16607071D01*
X11559357Y-16635643D01*
X11559357Y-16707071D01*
X11545071Y-16735643D01*
X11530786Y-16749929D01*
X11502214Y-16764214D01*
X11430786Y-16764214D01*
X11402214Y-16749929D01*
X11387928Y-16735643D01*
X11730786Y-16592786D02*
X11702214Y-16578500D01*
X11687928Y-16564214D01*
X11673643Y-16535643D01*
X11673643Y-16521357D01*
X11687928Y-16492786D01*
X11702214Y-16478500D01*
X11730786Y-16464214D01*
X11787928Y-16464214D01*
X11816500Y-16478500D01*
X11830786Y-16492786D01*
X11845071Y-16521357D01*
X11845071Y-16535643D01*
X11830786Y-16564214D01*
X11816500Y-16578500D01*
X11787928Y-16592786D01*
X11730786Y-16592786D01*
X11702214Y-16607071D01*
X11687928Y-16621357D01*
X11673643Y-16649929D01*
X11673643Y-16707071D01*
X11687928Y-16735643D01*
X11702214Y-16749929D01*
X11730786Y-16764214D01*
X11787928Y-16764214D01*
X11816500Y-16749929D01*
X11830786Y-16735643D01*
X11845071Y-16707071D01*
X11845071Y-16649929D01*
X11830786Y-16621357D01*
X11816500Y-16607071D01*
X11787928Y-16592786D01*
X12202214Y-16764214D02*
X12202214Y-16464214D01*
X12330786Y-16764214D02*
X12330786Y-16607071D01*
X12316500Y-16578500D01*
X12287928Y-16564214D01*
X12245071Y-16564214D01*
X12216500Y-16578500D01*
X12202214Y-16592786D01*
X12516500Y-16764214D02*
X12487928Y-16749929D01*
X12473643Y-16735643D01*
X12459357Y-16707071D01*
X12459357Y-16621357D01*
X12473643Y-16592786D01*
X12487928Y-16578500D01*
X12516500Y-16564214D01*
X12559357Y-16564214D01*
X12587928Y-16578500D01*
X12602214Y-16592786D01*
X12616500Y-16621357D01*
X12616500Y-16707071D01*
X12602214Y-16735643D01*
X12587928Y-16749929D01*
X12559357Y-16764214D01*
X12516500Y-16764214D01*
X12787928Y-16764214D02*
X12759357Y-16749929D01*
X12745071Y-16721357D01*
X12745071Y-16464214D01*
X13016500Y-16749929D02*
X12987928Y-16764214D01*
X12930786Y-16764214D01*
X12902214Y-16749929D01*
X12887928Y-16721357D01*
X12887928Y-16607071D01*
X12902214Y-16578500D01*
X12930786Y-16564214D01*
X12987928Y-16564214D01*
X13016500Y-16578500D01*
X13030786Y-16607071D01*
X13030786Y-16635643D01*
X12887928Y-16664214D01*
X13145071Y-16749929D02*
X13173643Y-16764214D01*
X13230786Y-16764214D01*
X13259357Y-16749929D01*
X13273643Y-16721357D01*
X13273643Y-16707071D01*
X13259357Y-16678500D01*
X13230786Y-16664214D01*
X13187928Y-16664214D01*
X13159357Y-16649929D01*
X13145071Y-16621357D01*
X13145071Y-16607071D01*
X13159357Y-16578500D01*
X13187928Y-16564214D01*
X13230786Y-16564214D01*
X13259357Y-16578500D01*
X13373643Y-16878500D02*
X13387928Y-16864214D01*
X13416500Y-16821357D01*
X13430786Y-16792786D01*
X13445071Y-16749929D01*
X13459357Y-16678500D01*
X13459357Y-16621357D01*
X13445071Y-16549929D01*
X13430786Y-16507071D01*
X13416500Y-16478500D01*
X13387928Y-16435643D01*
X13373643Y-16421357D01*
X6521500Y-17104500D02*
X6601500Y-17024500D01*
X6521500Y-16944500D01*
X6441500Y-17024500D01*
X6521500Y-17104500D01*
X7045071Y-17160214D02*
X6873643Y-17160214D01*
X6959357Y-17160214D02*
X6959357Y-16860214D01*
X6930786Y-16903072D01*
X6902214Y-16931643D01*
X6873643Y-16945929D01*
X7173643Y-17131643D02*
X7187928Y-17145929D01*
X7173643Y-17160214D01*
X7159357Y-17145929D01*
X7173643Y-17131643D01*
X7173643Y-17160214D01*
X7445071Y-16860214D02*
X7387928Y-16860214D01*
X7359357Y-16874500D01*
X7345071Y-16888786D01*
X7316500Y-16931643D01*
X7302214Y-16988786D01*
X7302214Y-17103072D01*
X7316500Y-17131643D01*
X7330786Y-17145929D01*
X7359357Y-17160214D01*
X7416500Y-17160214D01*
X7445071Y-17145929D01*
X7459357Y-17131643D01*
X7473643Y-17103072D01*
X7473643Y-17031643D01*
X7459357Y-17003072D01*
X7445071Y-16988786D01*
X7416500Y-16974500D01*
X7359357Y-16974500D01*
X7330786Y-16988786D01*
X7316500Y-17003072D01*
X7302214Y-17031643D01*
X7659357Y-16860214D02*
X7687928Y-16860214D01*
X7716500Y-16874500D01*
X7730786Y-16888786D01*
X7745071Y-16917357D01*
X7759357Y-16974500D01*
X7759357Y-17045929D01*
X7745071Y-17103072D01*
X7730786Y-17131643D01*
X7716500Y-17145929D01*
X7687928Y-17160214D01*
X7659357Y-17160214D01*
X7630786Y-17145929D01*
X7616500Y-17131643D01*
X7602214Y-17103072D01*
X7587928Y-17045929D01*
X7587928Y-16974500D01*
X7602214Y-16917357D01*
X7616500Y-16888786D01*
X7630786Y-16874500D01*
X7659357Y-16860214D01*
X7887928Y-17160214D02*
X7887928Y-16960214D01*
X7887928Y-16988786D02*
X7902214Y-16974500D01*
X7930786Y-16960214D01*
X7973643Y-16960214D01*
X8002214Y-16974500D01*
X8016500Y-17003072D01*
X8016500Y-17160214D01*
X8016500Y-17003072D02*
X8030786Y-16974500D01*
X8059357Y-16960214D01*
X8102214Y-16960214D01*
X8130786Y-16974500D01*
X8145071Y-17003072D01*
X8145071Y-17160214D01*
X8287928Y-17160214D02*
X8287928Y-16960214D01*
X8287928Y-16988786D02*
X8302214Y-16974500D01*
X8330786Y-16960214D01*
X8373643Y-16960214D01*
X8402214Y-16974500D01*
X8416500Y-17003072D01*
X8416500Y-17160214D01*
X8416500Y-17003072D02*
X8430786Y-16974500D01*
X8459357Y-16960214D01*
X8502214Y-16960214D01*
X8530786Y-16974500D01*
X8545071Y-17003072D01*
X8545071Y-17160214D01*
X9130786Y-16845929D02*
X8873643Y-17231643D01*
X9516500Y-16860214D02*
X9545071Y-16860214D01*
X9573643Y-16874500D01*
X9587928Y-16888786D01*
X9602214Y-16917357D01*
X9616500Y-16974500D01*
X9616500Y-17045929D01*
X9602214Y-17103072D01*
X9587928Y-17131643D01*
X9573643Y-17145929D01*
X9545071Y-17160214D01*
X9516500Y-17160214D01*
X9487928Y-17145929D01*
X9473643Y-17131643D01*
X9459357Y-17103072D01*
X9445071Y-17045929D01*
X9445071Y-16974500D01*
X9459357Y-16917357D01*
X9473643Y-16888786D01*
X9487928Y-16874500D01*
X9516500Y-16860214D01*
X9745071Y-17131643D02*
X9759357Y-17145929D01*
X9745071Y-17160214D01*
X9730786Y-17145929D01*
X9745071Y-17131643D01*
X9745071Y-17160214D01*
X9945071Y-16860214D02*
X9973643Y-16860214D01*
X10002214Y-16874500D01*
X10016500Y-16888786D01*
X10030786Y-16917357D01*
X10045071Y-16974500D01*
X10045071Y-17045929D01*
X10030786Y-17103072D01*
X10016500Y-17131643D01*
X10002214Y-17145929D01*
X9973643Y-17160214D01*
X9945071Y-17160214D01*
X9916500Y-17145929D01*
X9902214Y-17131643D01*
X9887928Y-17103072D01*
X9873643Y-17045929D01*
X9873643Y-16974500D01*
X9887928Y-16917357D01*
X9902214Y-16888786D01*
X9916500Y-16874500D01*
X9945071Y-16860214D01*
X10302214Y-16860214D02*
X10245071Y-16860214D01*
X10216500Y-16874500D01*
X10202214Y-16888786D01*
X10173643Y-16931643D01*
X10159357Y-16988786D01*
X10159357Y-17103072D01*
X10173643Y-17131643D01*
X10187928Y-17145929D01*
X10216500Y-17160214D01*
X10273643Y-17160214D01*
X10302214Y-17145929D01*
X10316500Y-17131643D01*
X10330786Y-17103072D01*
X10330786Y-17031643D01*
X10316500Y-17003072D01*
X10302214Y-16988786D01*
X10273643Y-16974500D01*
X10216500Y-16974500D01*
X10187928Y-16988786D01*
X10173643Y-17003072D01*
X10159357Y-17031643D01*
X10430786Y-16860214D02*
X10616500Y-16860214D01*
X10516500Y-16974500D01*
X10559357Y-16974500D01*
X10587928Y-16988786D01*
X10602214Y-17003072D01*
X10616500Y-17031643D01*
X10616500Y-17103072D01*
X10602214Y-17131643D01*
X10587928Y-17145929D01*
X10559357Y-17160214D01*
X10473643Y-17160214D01*
X10445071Y-17145929D01*
X10430786Y-17131643D01*
X10730786Y-16860214D02*
X10730786Y-16917357D01*
X10845071Y-16860214D02*
X10845071Y-16917357D01*
X11287928Y-17274500D02*
X11273643Y-17260214D01*
X11245071Y-17217357D01*
X11230786Y-17188786D01*
X11216500Y-17145929D01*
X11202214Y-17074500D01*
X11202214Y-17017357D01*
X11216500Y-16945929D01*
X11230786Y-16903072D01*
X11245071Y-16874500D01*
X11273643Y-16831643D01*
X11287928Y-16817357D01*
X11373643Y-16860214D02*
X11559357Y-16860214D01*
X11459357Y-16974500D01*
X11502214Y-16974500D01*
X11530786Y-16988786D01*
X11545071Y-17003072D01*
X11559357Y-17031643D01*
X11559357Y-17103072D01*
X11545071Y-17131643D01*
X11530786Y-17145929D01*
X11502214Y-17160214D01*
X11416500Y-17160214D01*
X11387928Y-17145929D01*
X11373643Y-17131643D01*
X11816500Y-16860214D02*
X11759357Y-16860214D01*
X11730786Y-16874500D01*
X11716500Y-16888786D01*
X11687928Y-16931643D01*
X11673643Y-16988786D01*
X11673643Y-17103072D01*
X11687928Y-17131643D01*
X11702214Y-17145929D01*
X11730786Y-17160214D01*
X11787928Y-17160214D01*
X11816500Y-17145929D01*
X11830786Y-17131643D01*
X11845071Y-17103072D01*
X11845071Y-17031643D01*
X11830786Y-17003072D01*
X11816500Y-16988786D01*
X11787928Y-16974500D01*
X11730786Y-16974500D01*
X11702214Y-16988786D01*
X11687928Y-17003072D01*
X11673643Y-17031643D01*
X12202214Y-17160214D02*
X12202214Y-16860214D01*
X12330786Y-17160214D02*
X12330786Y-17003072D01*
X12316500Y-16974500D01*
X12287928Y-16960214D01*
X12245071Y-16960214D01*
X12216500Y-16974500D01*
X12202214Y-16988786D01*
X12516500Y-17160214D02*
X12487928Y-17145929D01*
X12473643Y-17131643D01*
X12459357Y-17103072D01*
X12459357Y-17017357D01*
X12473643Y-16988786D01*
X12487928Y-16974500D01*
X12516500Y-16960214D01*
X12559357Y-16960214D01*
X12587928Y-16974500D01*
X12602214Y-16988786D01*
X12616500Y-17017357D01*
X12616500Y-17103072D01*
X12602214Y-17131643D01*
X12587928Y-17145929D01*
X12559357Y-17160214D01*
X12516500Y-17160214D01*
X12787928Y-17160214D02*
X12759357Y-17145929D01*
X12745071Y-17117357D01*
X12745071Y-16860214D01*
X13016500Y-17145929D02*
X12987928Y-17160214D01*
X12930786Y-17160214D01*
X12902214Y-17145929D01*
X12887928Y-17117357D01*
X12887928Y-17003072D01*
X12902214Y-16974500D01*
X12930786Y-16960214D01*
X12987928Y-16960214D01*
X13016500Y-16974500D01*
X13030786Y-17003072D01*
X13030786Y-17031643D01*
X12887928Y-17060214D01*
X13145071Y-17145929D02*
X13173643Y-17160214D01*
X13230786Y-17160214D01*
X13259357Y-17145929D01*
X13273643Y-17117357D01*
X13273643Y-17103072D01*
X13259357Y-17074500D01*
X13230786Y-17060214D01*
X13187928Y-17060214D01*
X13159357Y-17045929D01*
X13145071Y-17017357D01*
X13145071Y-17003072D01*
X13159357Y-16974500D01*
X13187928Y-16960214D01*
X13230786Y-16960214D01*
X13259357Y-16974500D01*
X13373643Y-17274500D02*
X13387928Y-17260214D01*
X13416500Y-17217357D01*
X13430786Y-17188786D01*
X13445071Y-17145929D01*
X13459357Y-17074500D01*
X13459357Y-17017357D01*
X13445071Y-16945929D01*
X13430786Y-16903072D01*
X13416500Y-16874500D01*
X13387928Y-16831643D01*
X13373643Y-16817357D01*
X6421500Y-17330500D02*
X6601500Y-17510500D01*
X6601500Y-17330500D02*
X6421500Y-17510500D01*
X6601500Y-17420500D02*
G75*
G03*
X6601500Y-17420500I-90000J0D01*
G01*
X7045071Y-17556214D02*
X6873643Y-17556214D01*
X6959357Y-17556214D02*
X6959357Y-17256214D01*
X6930786Y-17299072D01*
X6902214Y-17327643D01*
X6873643Y-17341929D01*
X7173643Y-17527643D02*
X7187928Y-17541929D01*
X7173643Y-17556214D01*
X7159357Y-17541929D01*
X7173643Y-17527643D01*
X7173643Y-17556214D01*
X7359357Y-17384786D02*
X7330786Y-17370500D01*
X7316500Y-17356214D01*
X7302214Y-17327643D01*
X7302214Y-17313357D01*
X7316500Y-17284786D01*
X7330786Y-17270500D01*
X7359357Y-17256214D01*
X7416500Y-17256214D01*
X7445071Y-17270500D01*
X7459357Y-17284786D01*
X7473643Y-17313357D01*
X7473643Y-17327643D01*
X7459357Y-17356214D01*
X7445071Y-17370500D01*
X7416500Y-17384786D01*
X7359357Y-17384786D01*
X7330786Y-17399072D01*
X7316500Y-17413357D01*
X7302214Y-17441929D01*
X7302214Y-17499072D01*
X7316500Y-17527643D01*
X7330786Y-17541929D01*
X7359357Y-17556214D01*
X7416500Y-17556214D01*
X7445071Y-17541929D01*
X7459357Y-17527643D01*
X7473643Y-17499072D01*
X7473643Y-17441929D01*
X7459357Y-17413357D01*
X7445071Y-17399072D01*
X7416500Y-17384786D01*
X7659357Y-17256214D02*
X7687928Y-17256214D01*
X7716500Y-17270500D01*
X7730786Y-17284786D01*
X7745071Y-17313357D01*
X7759357Y-17370500D01*
X7759357Y-17441929D01*
X7745071Y-17499072D01*
X7730786Y-17527643D01*
X7716500Y-17541929D01*
X7687928Y-17556214D01*
X7659357Y-17556214D01*
X7630786Y-17541929D01*
X7616500Y-17527643D01*
X7602214Y-17499072D01*
X7587928Y-17441929D01*
X7587928Y-17370500D01*
X7602214Y-17313357D01*
X7616500Y-17284786D01*
X7630786Y-17270500D01*
X7659357Y-17256214D01*
X7887928Y-17556214D02*
X7887928Y-17356214D01*
X7887928Y-17384786D02*
X7902214Y-17370500D01*
X7930786Y-17356214D01*
X7973643Y-17356214D01*
X8002214Y-17370500D01*
X8016500Y-17399072D01*
X8016500Y-17556214D01*
X8016500Y-17399072D02*
X8030786Y-17370500D01*
X8059357Y-17356214D01*
X8102214Y-17356214D01*
X8130786Y-17370500D01*
X8145071Y-17399072D01*
X8145071Y-17556214D01*
X8287928Y-17556214D02*
X8287928Y-17356214D01*
X8287928Y-17384786D02*
X8302214Y-17370500D01*
X8330786Y-17356214D01*
X8373643Y-17356214D01*
X8402214Y-17370500D01*
X8416500Y-17399072D01*
X8416500Y-17556214D01*
X8416500Y-17399072D02*
X8430786Y-17370500D01*
X8459357Y-17356214D01*
X8502214Y-17356214D01*
X8530786Y-17370500D01*
X8545071Y-17399072D01*
X8545071Y-17556214D01*
X9130786Y-17241929D02*
X8873643Y-17627643D01*
X9516500Y-17256214D02*
X9545071Y-17256214D01*
X9573643Y-17270500D01*
X9587928Y-17284786D01*
X9602214Y-17313357D01*
X9616500Y-17370500D01*
X9616500Y-17441929D01*
X9602214Y-17499072D01*
X9587928Y-17527643D01*
X9573643Y-17541929D01*
X9545071Y-17556214D01*
X9516500Y-17556214D01*
X9487928Y-17541929D01*
X9473643Y-17527643D01*
X9459357Y-17499072D01*
X9445071Y-17441929D01*
X9445071Y-17370500D01*
X9459357Y-17313357D01*
X9473643Y-17284786D01*
X9487928Y-17270500D01*
X9516500Y-17256214D01*
X9745071Y-17527643D02*
X9759357Y-17541929D01*
X9745071Y-17556214D01*
X9730786Y-17541929D01*
X9745071Y-17527643D01*
X9745071Y-17556214D01*
X9945071Y-17256214D02*
X9973643Y-17256214D01*
X10002214Y-17270500D01*
X10016500Y-17284786D01*
X10030786Y-17313357D01*
X10045071Y-17370500D01*
X10045071Y-17441929D01*
X10030786Y-17499072D01*
X10016500Y-17527643D01*
X10002214Y-17541929D01*
X9973643Y-17556214D01*
X9945071Y-17556214D01*
X9916500Y-17541929D01*
X9902214Y-17527643D01*
X9887928Y-17499072D01*
X9873643Y-17441929D01*
X9873643Y-17370500D01*
X9887928Y-17313357D01*
X9902214Y-17284786D01*
X9916500Y-17270500D01*
X9945071Y-17256214D01*
X10145071Y-17256214D02*
X10345071Y-17256214D01*
X10216500Y-17556214D01*
X10616500Y-17556214D02*
X10445071Y-17556214D01*
X10530786Y-17556214D02*
X10530786Y-17256214D01*
X10502214Y-17299072D01*
X10473643Y-17327643D01*
X10445071Y-17341929D01*
X10730786Y-17256214D02*
X10730786Y-17313357D01*
X10845071Y-17256214D02*
X10845071Y-17313357D01*
X11287928Y-17670500D02*
X11273643Y-17656214D01*
X11245071Y-17613357D01*
X11230786Y-17584786D01*
X11216500Y-17541929D01*
X11202214Y-17470500D01*
X11202214Y-17413357D01*
X11216500Y-17341929D01*
X11230786Y-17299072D01*
X11245071Y-17270500D01*
X11273643Y-17227643D01*
X11287928Y-17213357D01*
X11373643Y-17256214D02*
X11559357Y-17256214D01*
X11459357Y-17370500D01*
X11502214Y-17370500D01*
X11530786Y-17384786D01*
X11545071Y-17399072D01*
X11559357Y-17427643D01*
X11559357Y-17499072D01*
X11545071Y-17527643D01*
X11530786Y-17541929D01*
X11502214Y-17556214D01*
X11416500Y-17556214D01*
X11387928Y-17541929D01*
X11373643Y-17527643D01*
X11673643Y-17284786D02*
X11687928Y-17270500D01*
X11716500Y-17256214D01*
X11787928Y-17256214D01*
X11816500Y-17270500D01*
X11830786Y-17284786D01*
X11845071Y-17313357D01*
X11845071Y-17341929D01*
X11830786Y-17384786D01*
X11659357Y-17556214D01*
X11845071Y-17556214D01*
X12202214Y-17556214D02*
X12202214Y-17256214D01*
X12330786Y-17556214D02*
X12330786Y-17399072D01*
X12316500Y-17370500D01*
X12287928Y-17356214D01*
X12245071Y-17356214D01*
X12216500Y-17370500D01*
X12202214Y-17384786D01*
X12516500Y-17556214D02*
X12487928Y-17541929D01*
X12473643Y-17527643D01*
X12459357Y-17499072D01*
X12459357Y-17413357D01*
X12473643Y-17384786D01*
X12487928Y-17370500D01*
X12516500Y-17356214D01*
X12559357Y-17356214D01*
X12587928Y-17370500D01*
X12602214Y-17384786D01*
X12616500Y-17413357D01*
X12616500Y-17499072D01*
X12602214Y-17527643D01*
X12587928Y-17541929D01*
X12559357Y-17556214D01*
X12516500Y-17556214D01*
X12787928Y-17556214D02*
X12759357Y-17541929D01*
X12745071Y-17513357D01*
X12745071Y-17256214D01*
X13016500Y-17541929D02*
X12987928Y-17556214D01*
X12930786Y-17556214D01*
X12902214Y-17541929D01*
X12887928Y-17513357D01*
X12887928Y-17399072D01*
X12902214Y-17370500D01*
X12930786Y-17356214D01*
X12987928Y-17356214D01*
X13016500Y-17370500D01*
X13030786Y-17399072D01*
X13030786Y-17427643D01*
X12887928Y-17456214D01*
X13145071Y-17541929D02*
X13173643Y-17556214D01*
X13230786Y-17556214D01*
X13259357Y-17541929D01*
X13273643Y-17513357D01*
X13273643Y-17499072D01*
X13259357Y-17470500D01*
X13230786Y-17456214D01*
X13187928Y-17456214D01*
X13159357Y-17441929D01*
X13145071Y-17413357D01*
X13145071Y-17399072D01*
X13159357Y-17370500D01*
X13187928Y-17356214D01*
X13230786Y-17356214D01*
X13259357Y-17370500D01*
X13373643Y-17670500D02*
X13387928Y-17656214D01*
X13416500Y-17613357D01*
X13430786Y-17584786D01*
X13445071Y-17541929D01*
X13459357Y-17470500D01*
X13459357Y-17413357D01*
X13445071Y-17341929D01*
X13430786Y-17299072D01*
X13416500Y-17270500D01*
X13387928Y-17227643D01*
X13373643Y-17213357D01*
X6416500Y-17724000D02*
X6601500Y-17909000D01*
X6601500Y-17724000D02*
X6416500Y-17909000D01*
X6509000Y-17724000D02*
X6509000Y-17909000D01*
X6416500Y-17816500D02*
X6601500Y-17816500D01*
X7045071Y-17952214D02*
X6873643Y-17952214D01*
X6959357Y-17952214D02*
X6959357Y-17652214D01*
X6930786Y-17695072D01*
X6902214Y-17723643D01*
X6873643Y-17737929D01*
X7173643Y-17923643D02*
X7187928Y-17937929D01*
X7173643Y-17952214D01*
X7159357Y-17937929D01*
X7173643Y-17923643D01*
X7173643Y-17952214D01*
X7359357Y-17780786D02*
X7330786Y-17766500D01*
X7316500Y-17752214D01*
X7302214Y-17723643D01*
X7302214Y-17709357D01*
X7316500Y-17680786D01*
X7330786Y-17666500D01*
X7359357Y-17652214D01*
X7416500Y-17652214D01*
X7445071Y-17666500D01*
X7459357Y-17680786D01*
X7473643Y-17709357D01*
X7473643Y-17723643D01*
X7459357Y-17752214D01*
X7445071Y-17766500D01*
X7416500Y-17780786D01*
X7359357Y-17780786D01*
X7330786Y-17795072D01*
X7316500Y-17809357D01*
X7302214Y-17837929D01*
X7302214Y-17895072D01*
X7316500Y-17923643D01*
X7330786Y-17937929D01*
X7359357Y-17952214D01*
X7416500Y-17952214D01*
X7445071Y-17937929D01*
X7459357Y-17923643D01*
X7473643Y-17895072D01*
X7473643Y-17837929D01*
X7459357Y-17809357D01*
X7445071Y-17795072D01*
X7416500Y-17780786D01*
X7745071Y-17652214D02*
X7602214Y-17652214D01*
X7587928Y-17795072D01*
X7602214Y-17780786D01*
X7630786Y-17766500D01*
X7702214Y-17766500D01*
X7730786Y-17780786D01*
X7745071Y-17795072D01*
X7759357Y-17823643D01*
X7759357Y-17895072D01*
X7745071Y-17923643D01*
X7730786Y-17937929D01*
X7702214Y-17952214D01*
X7630786Y-17952214D01*
X7602214Y-17937929D01*
X7587928Y-17923643D01*
X7887928Y-17952214D02*
X7887928Y-17752214D01*
X7887928Y-17780786D02*
X7902214Y-17766500D01*
X7930786Y-17752214D01*
X7973643Y-17752214D01*
X8002214Y-17766500D01*
X8016500Y-17795072D01*
X8016500Y-17952214D01*
X8016500Y-17795072D02*
X8030786Y-17766500D01*
X8059357Y-17752214D01*
X8102214Y-17752214D01*
X8130786Y-17766500D01*
X8145071Y-17795072D01*
X8145071Y-17952214D01*
X8287928Y-17952214D02*
X8287928Y-17752214D01*
X8287928Y-17780786D02*
X8302214Y-17766500D01*
X8330786Y-17752214D01*
X8373643Y-17752214D01*
X8402214Y-17766500D01*
X8416500Y-17795072D01*
X8416500Y-17952214D01*
X8416500Y-17795072D02*
X8430786Y-17766500D01*
X8459357Y-17752214D01*
X8502214Y-17752214D01*
X8530786Y-17766500D01*
X8545071Y-17795072D01*
X8545071Y-17952214D01*
X9130786Y-17637929D02*
X8873643Y-18023643D01*
X9516500Y-17652214D02*
X9545071Y-17652214D01*
X9573643Y-17666500D01*
X9587928Y-17680786D01*
X9602214Y-17709357D01*
X9616500Y-17766500D01*
X9616500Y-17837929D01*
X9602214Y-17895072D01*
X9587928Y-17923643D01*
X9573643Y-17937929D01*
X9545071Y-17952214D01*
X9516500Y-17952214D01*
X9487928Y-17937929D01*
X9473643Y-17923643D01*
X9459357Y-17895072D01*
X9445071Y-17837929D01*
X9445071Y-17766500D01*
X9459357Y-17709357D01*
X9473643Y-17680786D01*
X9487928Y-17666500D01*
X9516500Y-17652214D01*
X9745071Y-17923643D02*
X9759357Y-17937929D01*
X9745071Y-17952214D01*
X9730786Y-17937929D01*
X9745071Y-17923643D01*
X9745071Y-17952214D01*
X9945071Y-17652214D02*
X9973643Y-17652214D01*
X10002214Y-17666500D01*
X10016500Y-17680786D01*
X10030786Y-17709357D01*
X10045071Y-17766500D01*
X10045071Y-17837929D01*
X10030786Y-17895072D01*
X10016500Y-17923643D01*
X10002214Y-17937929D01*
X9973643Y-17952214D01*
X9945071Y-17952214D01*
X9916500Y-17937929D01*
X9902214Y-17923643D01*
X9887928Y-17895072D01*
X9873643Y-17837929D01*
X9873643Y-17766500D01*
X9887928Y-17709357D01*
X9902214Y-17680786D01*
X9916500Y-17666500D01*
X9945071Y-17652214D01*
X10145071Y-17652214D02*
X10345071Y-17652214D01*
X10216500Y-17952214D01*
X10430786Y-17652214D02*
X10616500Y-17652214D01*
X10516500Y-17766500D01*
X10559357Y-17766500D01*
X10587928Y-17780786D01*
X10602214Y-17795072D01*
X10616500Y-17823643D01*
X10616500Y-17895072D01*
X10602214Y-17923643D01*
X10587928Y-17937929D01*
X10559357Y-17952214D01*
X10473643Y-17952214D01*
X10445071Y-17937929D01*
X10430786Y-17923643D01*
X10730786Y-17652214D02*
X10730786Y-17709357D01*
X10845071Y-17652214D02*
X10845071Y-17709357D01*
X11287928Y-18066500D02*
X11273643Y-18052214D01*
X11245071Y-18009357D01*
X11230786Y-17980786D01*
X11216500Y-17937929D01*
X11202214Y-17866500D01*
X11202214Y-17809357D01*
X11216500Y-17737929D01*
X11230786Y-17695072D01*
X11245071Y-17666500D01*
X11273643Y-17623643D01*
X11287928Y-17609357D01*
X11559357Y-17952214D02*
X11387928Y-17952214D01*
X11473643Y-17952214D02*
X11473643Y-17652214D01*
X11445071Y-17695072D01*
X11416500Y-17723643D01*
X11387928Y-17737929D01*
X11673643Y-17680786D02*
X11687928Y-17666500D01*
X11716500Y-17652214D01*
X11787928Y-17652214D01*
X11816500Y-17666500D01*
X11830786Y-17680786D01*
X11845071Y-17709357D01*
X11845071Y-17737929D01*
X11830786Y-17780786D01*
X11659357Y-17952214D01*
X11845071Y-17952214D01*
X12202214Y-17952214D02*
X12202214Y-17652214D01*
X12330786Y-17952214D02*
X12330786Y-17795072D01*
X12316500Y-17766500D01*
X12287928Y-17752214D01*
X12245071Y-17752214D01*
X12216500Y-17766500D01*
X12202214Y-17780786D01*
X12516500Y-17952214D02*
X12487928Y-17937929D01*
X12473643Y-17923643D01*
X12459357Y-17895072D01*
X12459357Y-17809357D01*
X12473643Y-17780786D01*
X12487928Y-17766500D01*
X12516500Y-17752214D01*
X12559357Y-17752214D01*
X12587928Y-17766500D01*
X12602214Y-17780786D01*
X12616500Y-17809357D01*
X12616500Y-17895072D01*
X12602214Y-17923643D01*
X12587928Y-17937929D01*
X12559357Y-17952214D01*
X12516500Y-17952214D01*
X12787928Y-17952214D02*
X12759357Y-17937929D01*
X12745071Y-17909357D01*
X12745071Y-17652214D01*
X13016500Y-17937929D02*
X12987928Y-17952214D01*
X12930786Y-17952214D01*
X12902214Y-17937929D01*
X12887928Y-17909357D01*
X12887928Y-17795072D01*
X12902214Y-17766500D01*
X12930786Y-17752214D01*
X12987928Y-17752214D01*
X13016500Y-17766500D01*
X13030786Y-17795072D01*
X13030786Y-17823643D01*
X12887928Y-17852214D01*
X13145071Y-17937929D02*
X13173643Y-17952214D01*
X13230786Y-17952214D01*
X13259357Y-17937929D01*
X13273643Y-17909357D01*
X13273643Y-17895072D01*
X13259357Y-17866500D01*
X13230786Y-17852214D01*
X13187928Y-17852214D01*
X13159357Y-17837929D01*
X13145071Y-17809357D01*
X13145071Y-17795072D01*
X13159357Y-17766500D01*
X13187928Y-17752214D01*
X13230786Y-17752214D01*
X13259357Y-17766500D01*
X13373643Y-18066500D02*
X13387928Y-18052214D01*
X13416500Y-18009357D01*
X13430786Y-17980786D01*
X13445071Y-17937929D01*
X13459357Y-17866500D01*
X13459357Y-17809357D01*
X13445071Y-17737929D01*
X13430786Y-17695072D01*
X13416500Y-17666500D01*
X13387928Y-17623643D01*
X13373643Y-17609357D01*
M02*
