M48
; DRILL file {KiCad (5.1.6-0-10_14)} date Saturday, January 22, 2022 at 04:52:26 PM
; FORMAT={-:-/ absolute / metric / decimal}
; #@! TF.CreationDate,2022-01-22T16:52:26+00:00
; #@! TF.GenerationSoftware,Kicad,Pcbnew,(5.1.6-0-10_14)
; #@! TF.FileFunction,Plated,1,2,PTH
FMAT,2
METRIC
T1C0.400
T2C0.800
T3C0.900
T4C1.000
T5C1.600
T6C1.800
T7C1.850
%
G90
G05
T1
X71.628Y-76.962
X72.39Y-68.961
X73.322Y-83.015
X73.919Y-100.325
X74.422Y-86.36
X74.676Y-68.961
X75.184Y-76.962
X76.2Y-74.549
X78.613Y-77.597
X79.248Y-90.805
X80.772Y-92.837
X81.788Y-93.853
X82.677Y-103.632
X83.82Y-87.884
X83.82Y-88.884
X84.455Y-76.581
X84.455Y-133.731
X85.344Y-132.842
X86.36Y-131.826
X86.614Y-87.884
X86.614Y-88.9
X87.249Y-68.199
X87.757Y-121.285
X88.011Y-79.502
X89.281Y-134.874
X89.662Y-121.158
X89.789Y-102.743
X90.678Y-76.835
X90.932Y-142.748
X92.329Y-110.49
X92.837Y-102.616
X93.472Y-122.174
X94.742Y-111.506
X95.377Y-134.239
X96.393Y-123.952
X97.155Y-142.494
X98.425Y-118.618
X98.679Y-121.285
X99.06Y-106.299
X99.06Y-134.239
X99.441Y-122.174
X99.822Y-119.888
X99.949Y-111.506
X101.6Y-133.477
X102.108Y-113.792
X103.003Y-108.21
X103.124Y-142.494
X103.505Y-111.506
X103.847Y-96.901
X104.013Y-121.666
X104.521Y-120.523
X104.902Y-96.012
X105.918Y-97.663
X107.061Y-110.49
X109.22Y-111.252
X109.347Y-108.585
X109.347Y-129.413
X109.347Y-139.446
X111.887Y-139.573
X114.046Y-111.379
X114.046Y-129.54
X114.47Y-84.031
X115.189Y-139.446
X115.316Y-124.841
X115.316Y-127.889
X117.856Y-74.422
X119.634Y-89.789
X119.634Y-130.302
X120.015Y-123.19
X120.777Y-90.424
X121.92Y-92.583
X122.047Y-87.63
X122.888Y-90.297
X124.46Y-95.885
X124.714Y-88.011
X124.714Y-89.027
X125.095Y-135.509
X125.857Y-76.327
X127.127Y-88.011
X127.127Y-89.027
X128.016Y-68.707
X129.159Y-124.333
X129.794Y-104.775
X131.064Y-110.49
X131.191Y-69.723
X131.445Y-112.268
X131.572Y-85.979
X131.883Y-124.333
X133.35Y-66.421
X133.477Y-110.744
X133.477Y-120.142
X133.604Y-135.382
X133.731Y-129.794
X133.985Y-131.572
X134.239Y-101.727
X134.366Y-112.014
X134.493Y-85.979
X134.62Y-84.328
X135.763Y-102.997
X136.017Y-110.617
X137.033Y-123.825
X138.176Y-122.047
X138.303Y-126.873
X138.43Y-121.031
X138.938Y-117.221
X141.986Y-117.221
X142.621Y-114.808
X142.621Y-115.951
X143.002Y-119.507
X143.256Y-104.775
X143.256Y-121.92
X143.256Y-130.556
X143.891Y-118.999
X143.891Y-120.396
X144.272Y-107.696
X145.669Y-133.096
X146.112Y-123.444
X146.558Y-113.792
X146.685Y-108.69
X146.69Y-97.414
X147.574Y-139.7
X147.955Y-137.033
X148.082Y-108.077
X148.209Y-102.108
X148.209Y-132.969
X148.934Y-104.013
X149.352Y-120.142
X149.606Y-117.983
X149.733Y-111.125
X150.114Y-108.585
X150.368Y-112.268
X150.368Y-138.811
X151.257Y-114.935
X151.368Y-108.601
X151.511Y-113.157
X151.55Y-118.745
X152.019Y-130.937
X155.067Y-126.746
X156.38Y-83.101
X160.528Y-90.551
X162.306Y-90.424
X162.814Y-74.93
X164.338Y-92.837
X164.719Y-81.915
X165.1Y-90.932
X166.878Y-85.598
X167.132Y-88.265
X167.132Y-89.408
X167.894Y-81.534
X167.894Y-84.328
X168.402Y-78.741
X170.18Y-88.265
X170.18Y-89.408
X170.688Y-68.834
X171.577Y-133.096
X171.762Y-119.126
X172.212Y-120.777
X172.212Y-121.793
X173.477Y-111.882
X173.609Y-126.492
X173.863Y-65.405
X173.863Y-69.469
X173.863Y-91.059
X173.863Y-98.298
X174.117Y-110.744
X174.752Y-116.205
X175.133Y-127.127
X175.768Y-110.617
X175.768Y-119.38
X175.895Y-98.298
X175.895Y-129.921
X176.022Y-90.932
X177.419Y-114.681
X177.673Y-111.252
X180.213Y-112.014
X180.467Y-116.586
X180.467Y-121.666
X180.594Y-120.396
X180.721Y-141.732
X181.015Y-68.834
X181.102Y-127.381
X181.737Y-115.861
X181.737Y-120.396
X181.864Y-119.126
X181.864Y-123.317
X182.372Y-83.566
X182.626Y-106.553
X183.388Y-127.508
X183.515Y-133.985
X183.642Y-103.632
X183.896Y-112.141
X184.277Y-88.9
X184.277Y-116.332
X184.531Y-101.981
X185.039Y-124.587
X185.293Y-134.366
X185.508Y-135.724
X185.547Y-143.041
X185.801Y-122.428
X186.563Y-112.776
X186.69Y-99.441
X186.69Y-139.192
X187.262Y-134.747
X187.325Y-101.981
X187.415Y-84.963
X187.452Y-108.331
X188.087Y-116.078
X188.849Y-110.744
X189.738Y-108.331
X189.738Y-111.76
X190.627Y-125.476
X191.008Y-108.331
X192.405Y-138.938
X194.437Y-135.763
X195.961Y-130.048
X198.374Y-98.171
X198.374Y-130.683
X198.78Y-75.032
X198.882Y-126.492
X199.39Y-132.842
X201.422Y-125.603
X201.549Y-78.486
X202.565Y-75.311
X203.327Y-131.572
X203.327Y-135.382
X204.216Y-90.678
X205.994Y-92.075
X206.248Y-78.486
X206.629Y-89.916
X206.629Y-125.476
X206.883Y-65.151
X207.645Y-82.169
X208.534Y-85.979
X208.788Y-135.382
X208.915Y-87.884
X208.915Y-88.9
X210.439Y-76.835
X212.344Y-87.884
X212.344Y-88.9
X212.598Y-68.326
X212.725Y-119.761
X214.503Y-103.632
X214.889Y-120.396
X215.138Y-65.151
X215.265Y-68.834
X215.265Y-125.603
X216.662Y-132.334
X217.8Y-121.661
X217.822Y-142.13
X218.567Y-103.632
X218.948Y-114.3
X218.948Y-114.3
X219.075Y-121.412
X219.202Y-138.176
X220.98Y-132.588
X221.107Y-135.128
X221.488Y-125.857
X221.615Y-120.015
X221.869Y-117.475
X221.869Y-133.858
X222.007Y-143.337
X222.117Y-116.506
X222.25Y-142.367
X222.504Y-130.937
X223.393Y-138.557
X224.409Y-138.303
X224.536Y-124.968
X225.425Y-130.937
X225.552Y-94.615
X226.07Y-117.751
X226.568Y-130.81
X226.695Y-87.503
X227.076Y-124.841
T2
X195.58Y-48.26
X198.12Y-48.26
X200.66Y-48.26
X68.58Y-123.19
X71.08Y-123.19
X195.199Y-107.95
X197.739Y-107.95
X200.279Y-107.95
X92.71Y-92.71
X95.25Y-92.71
X97.79Y-92.71
X82.55Y-99.06
X83.82Y-93.98
X85.09Y-48.26
X85.09Y-96.52
X85.09Y-99.06
X86.36Y-93.98
X87.63Y-99.06
X140.97Y-68.58
X140.97Y-73.58
X110.49Y-48.26
X113.03Y-48.26
X115.57Y-48.26
X176.657Y-100.203
X179.157Y-100.203
X220.599Y-107.95
X223.139Y-107.95
X225.679Y-107.95
X218.567Y-100.203
X221.067Y-100.203
X153.67Y-68.58
X153.67Y-73.58
X136.398Y-107.95
X138.938Y-107.95
X141.478Y-107.95
X153.289Y-107.95
X155.829Y-107.95
X158.369Y-107.95
X195.58Y-68.58
X195.58Y-73.58
X134.747Y-100.203
X137.247Y-100.203
X182.88Y-68.58
X182.88Y-73.58
X70.358Y-68.58
X70.358Y-73.58
X69.85Y-107.95
X72.39Y-107.95
X74.93Y-107.95
X92.837Y-100.203
X95.337Y-100.203
X224.79Y-68.58
X224.79Y-73.58
X152.4Y-48.26
X154.94Y-48.26
X157.48Y-48.26
X100.33Y-68.58
X100.33Y-73.58
X72.009Y-116.713
X74.509Y-116.713
X208.01Y-99.06
X209.28Y-93.98
X210.55Y-48.26
X210.55Y-96.52
X210.55Y-99.06
X211.82Y-93.98
X213.09Y-99.06
X134.62Y-92.71
X137.16Y-92.71
X139.7Y-92.71
X68.58Y-48.26
X71.12Y-48.26
X73.66Y-48.26
X218.44Y-92.71
X220.98Y-92.71
X223.52Y-92.71
X178.689Y-107.95
X181.229Y-107.95
X183.769Y-107.95
X111.76Y-68.58
X111.76Y-73.58
X176.53Y-92.71
X179.07Y-92.71
X181.61Y-92.71
X123.613Y-99.06
X124.883Y-93.98
X126.153Y-48.26
X126.153Y-96.52
X126.153Y-99.06
X127.423Y-93.98
X128.693Y-99.06
X165.947Y-99.06
X167.217Y-93.98
X168.487Y-48.26
X168.487Y-96.52
X168.487Y-99.06
X169.757Y-93.98
X171.027Y-99.06
X95.25Y-107.95
X97.79Y-107.95
X100.33Y-107.95
X110.998Y-107.95
X113.538Y-107.95
X116.078Y-107.95
T3
X158.75Y-71.12
X161.29Y-71.12
X75.311Y-71.12
X77.851Y-71.12
X175.768Y-71.12
X178.308Y-71.12
X116.586Y-71.12
X119.126Y-71.12
X200.996Y-71.12
X203.536Y-71.12
X133.35Y-71.12
X135.89Y-71.12
X92.71Y-71.12
X95.25Y-71.12
X217.805Y-71.12
X220.345Y-71.12
T4
X134.66Y-64.65
X137.16Y-64.65
X139.66Y-64.65
X71.922Y-64.65
X74.422Y-64.65
X76.922Y-64.65
X69.85Y-129.54
X69.85Y-132.08
X69.85Y-134.62
X69.85Y-137.16
X69.85Y-139.7
X72.39Y-129.54
X72.39Y-132.08
X72.39Y-134.62
X72.39Y-137.16
X72.39Y-139.7
X176.57Y-88.78
X179.07Y-88.78
X181.57Y-88.78
X113.07Y-88.78
X115.57Y-88.78
X118.07Y-88.78
X197.38Y-64.65
X199.88Y-64.65
X202.38Y-64.65
X93.131Y-88.78
X95.631Y-88.78
X98.131Y-88.78
X93.131Y-64.65
X95.631Y-64.65
X98.131Y-64.65
X154.98Y-64.65
X157.48Y-64.65
X159.98Y-64.65
X197.38Y-88.78
X199.88Y-88.78
X202.38Y-88.78
X71.922Y-88.78
X74.422Y-88.78
X76.922Y-88.78
X218.48Y-64.65
X220.98Y-64.65
X223.48Y-64.65
X134.66Y-88.78
X137.16Y-88.78
X139.66Y-88.78
X113.07Y-64.65
X115.57Y-64.65
X118.07Y-64.65
X218.48Y-88.78
X220.98Y-88.78
X223.48Y-88.78
X154.98Y-88.78
X157.48Y-88.78
X159.98Y-88.78
X176.57Y-64.65
X179.07Y-64.65
X181.57Y-64.65
T5
X203.989Y-138.43
X207.089Y-138.43
X215.389Y-138.43
X162.049Y-118.11
X165.149Y-118.11
X173.449Y-118.11
X78.61Y-128.27
X81.71Y-128.27
X90.01Y-128.27
X78.61Y-138.43
X81.71Y-138.43
X90.01Y-138.43
X162.049Y-128.27
X165.149Y-128.27
X173.449Y-128.27
X162.049Y-138.43
X165.149Y-138.43
X173.449Y-138.43
X119.758Y-118.11
X122.858Y-118.11
X131.158Y-118.11
X203.989Y-118.11
X207.089Y-118.11
X215.389Y-118.11
X119.758Y-128.27
X122.858Y-128.27
X131.158Y-128.27
X78.61Y-118.11
X81.71Y-118.11
X90.01Y-118.11
X203.989Y-128.27
X207.089Y-128.27
X215.389Y-128.27
X119.758Y-138.43
X122.858Y-138.43
X131.158Y-138.43
T6
X132.36Y-81.28
X141.96Y-81.28
X110.77Y-57.15
X120.37Y-57.15
X216.18Y-81.28
X225.78Y-81.28
X152.68Y-81.28
X162.28Y-81.28
X174.27Y-57.15
X183.87Y-57.15
X132.36Y-57.15
X141.96Y-57.15
X69.622Y-57.15
X79.222Y-57.15
X174.27Y-81.28
X183.87Y-81.28
X110.77Y-81.28
X120.37Y-81.28
X195.08Y-57.15
X204.68Y-57.15
X90.831Y-81.28
X100.431Y-81.28
X90.831Y-57.15
X100.431Y-57.15
X152.68Y-57.15
X162.28Y-57.15
X195.08Y-81.28
X204.68Y-81.28
X69.622Y-81.28
X79.222Y-81.28
X216.18Y-57.15
X225.78Y-57.15
T7
X121.538Y-107.703
X126.238Y-107.703
X130.938Y-107.703
X205.739Y-107.703
X210.439Y-107.703
X215.139Y-107.703
X163.829Y-107.703
X168.529Y-107.703
X173.229Y-107.703
X80.39Y-107.703
X85.09Y-107.703
X89.79Y-107.703
T0
M30
