G04 #@! TF.GenerationSoftware,KiCad,Pcbnew,(5.1.6-0-10_14)*
G04 #@! TF.CreationDate,2022-01-01T22:04:21+00:00*
G04 #@! TF.ProjectId,Quad Tube VCA,51756164-2054-4756-9265-205643412e6b,rev?*
G04 #@! TF.SameCoordinates,Original*
G04 #@! TF.FileFunction,Legend,Top*
G04 #@! TF.FilePolarity,Positive*
%FSLAX46Y46*%
G04 Gerber Fmt 4.6, Leading zero omitted, Abs format (unit mm)*
G04 Created by KiCad (PCBNEW (5.1.6-0-10_14)) date 2022-01-01 22:04:21*
%MOMM*%
%LPD*%
G01*
G04 APERTURE LIST*
%ADD10C,0.150000*%
%ADD11C,0.120000*%
%ADD12C,0.127000*%
%ADD13C,0.200000*%
%ADD14C,1.700000*%
%ADD15R,1.700000X1.700000*%
%ADD16C,1.900000*%
%ADD17R,1.900000X1.900000*%
%ADD18C,2.875000*%
%ADD19R,2.875000X2.875000*%
%ADD20C,2.100000*%
%ADD21C,1.400000*%
%ADD22C,1.540000*%
%ADD23O,1.800000X1.800000*%
%ADD24R,1.800000X1.800000*%
G04 APERTURE END LIST*
D10*
X208641428Y-71572380D02*
X208070000Y-71572380D01*
X208355714Y-71572380D02*
X208355714Y-70572380D01*
X208260476Y-70715238D01*
X208165238Y-70810476D01*
X208070000Y-70858095D01*
X209450952Y-71000952D02*
X209022380Y-71572380D01*
X209593809Y-71572380D02*
X209593809Y-70572380D01*
X209593809Y-71143809D02*
X209022380Y-70572380D01*
X210165238Y-71572380D02*
X209736666Y-71000952D01*
X210165238Y-70572380D02*
X209593809Y-71143809D01*
X210546190Y-70667619D02*
X210593809Y-70620000D01*
X210689047Y-70572380D01*
X210927142Y-70572380D01*
X211022380Y-70620000D01*
X211070000Y-70667619D01*
X211117619Y-70762857D01*
X211117619Y-70858095D01*
X211070000Y-71000952D01*
X210498571Y-71572380D01*
X211117619Y-71572380D01*
X211974761Y-70905714D02*
X211974761Y-71572380D01*
X211736666Y-70524761D02*
X211498571Y-71239047D01*
X212117619Y-71239047D01*
X212974761Y-70572380D02*
X212498571Y-70572380D01*
X212498571Y-71572380D01*
X212784285Y-71572380D01*
X212927142Y-71524761D01*
X213022380Y-71429523D01*
X213070000Y-71334285D01*
X213070000Y-71191428D01*
X213022380Y-71096190D01*
X212927142Y-71000952D01*
X212784285Y-70953333D01*
X212498571Y-70953333D01*
X166571428Y-71552380D02*
X166000000Y-71552380D01*
X166285714Y-71552380D02*
X166285714Y-70552380D01*
X166190476Y-70695238D01*
X166095238Y-70790476D01*
X166000000Y-70838095D01*
X167380952Y-70980952D02*
X166952380Y-71552380D01*
X167523809Y-71552380D02*
X167523809Y-70552380D01*
X167523809Y-71123809D02*
X166952380Y-70552380D01*
X168095238Y-71552380D02*
X167666666Y-70980952D01*
X168095238Y-70552380D02*
X167523809Y-71123809D01*
X168476190Y-70647619D02*
X168523809Y-70600000D01*
X168619047Y-70552380D01*
X168857142Y-70552380D01*
X168952380Y-70600000D01*
X169000000Y-70647619D01*
X169047619Y-70742857D01*
X169047619Y-70838095D01*
X169000000Y-70980952D01*
X168428571Y-71552380D01*
X169047619Y-71552380D01*
X169904761Y-70885714D02*
X169904761Y-71552380D01*
X169666666Y-70504761D02*
X169428571Y-71219047D01*
X170047619Y-71219047D01*
X170904761Y-70552380D02*
X170428571Y-70552380D01*
X170428571Y-71552380D01*
X170714285Y-71552380D01*
X170857142Y-71504761D01*
X170952380Y-71409523D01*
X171000000Y-71314285D01*
X171000000Y-71171428D01*
X170952380Y-71076190D01*
X170857142Y-70980952D01*
X170714285Y-70933333D01*
X170428571Y-70933333D01*
X124161428Y-71562380D02*
X123590000Y-71562380D01*
X123875714Y-71562380D02*
X123875714Y-70562380D01*
X123780476Y-70705238D01*
X123685238Y-70800476D01*
X123590000Y-70848095D01*
X124970952Y-70990952D02*
X124542380Y-71562380D01*
X125113809Y-71562380D02*
X125113809Y-70562380D01*
X125113809Y-71133809D02*
X124542380Y-70562380D01*
X125685238Y-71562380D02*
X125256666Y-70990952D01*
X125685238Y-70562380D02*
X125113809Y-71133809D01*
X126066190Y-70657619D02*
X126113809Y-70610000D01*
X126209047Y-70562380D01*
X126447142Y-70562380D01*
X126542380Y-70610000D01*
X126590000Y-70657619D01*
X126637619Y-70752857D01*
X126637619Y-70848095D01*
X126590000Y-70990952D01*
X126018571Y-71562380D01*
X126637619Y-71562380D01*
X127494761Y-70895714D02*
X127494761Y-71562380D01*
X127256666Y-70514761D02*
X127018571Y-71229047D01*
X127637619Y-71229047D01*
X128494761Y-70562380D02*
X128018571Y-70562380D01*
X128018571Y-71562380D01*
X128304285Y-71562380D01*
X128447142Y-71514761D01*
X128542380Y-71419523D01*
X128590000Y-71324285D01*
X128590000Y-71181428D01*
X128542380Y-71086190D01*
X128447142Y-70990952D01*
X128304285Y-70943333D01*
X128018571Y-70943333D01*
X83161428Y-71572380D02*
X82590000Y-71572380D01*
X82875714Y-71572380D02*
X82875714Y-70572380D01*
X82780476Y-70715238D01*
X82685238Y-70810476D01*
X82590000Y-70858095D01*
X83970952Y-71000952D02*
X83542380Y-71572380D01*
X84113809Y-71572380D02*
X84113809Y-70572380D01*
X84113809Y-71143809D02*
X83542380Y-70572380D01*
X84685238Y-71572380D02*
X84256666Y-71000952D01*
X84685238Y-70572380D02*
X84113809Y-71143809D01*
X85066190Y-70667619D02*
X85113809Y-70620000D01*
X85209047Y-70572380D01*
X85447142Y-70572380D01*
X85542380Y-70620000D01*
X85590000Y-70667619D01*
X85637619Y-70762857D01*
X85637619Y-70858095D01*
X85590000Y-71000952D01*
X85018571Y-71572380D01*
X85637619Y-71572380D01*
X86494761Y-70905714D02*
X86494761Y-71572380D01*
X86256666Y-70524761D02*
X86018571Y-71239047D01*
X86637619Y-71239047D01*
X87494761Y-70572380D02*
X87018571Y-70572380D01*
X87018571Y-71572380D01*
X87304285Y-71572380D01*
X87447142Y-71524761D01*
X87542380Y-71429523D01*
X87590000Y-71334285D01*
X87590000Y-71191428D01*
X87542380Y-71096190D01*
X87447142Y-71000952D01*
X87304285Y-70953333D01*
X87018571Y-70953333D01*
D11*
X126153333Y-92710000D02*
X129963333Y-91440000D01*
X122343333Y-91440000D02*
X126153333Y-92710000D01*
X129963333Y-50800000D02*
X126153333Y-49530000D01*
X122343333Y-50800000D02*
X126153333Y-49530000D01*
X127423333Y-48260000D02*
G75*
G03*
X127423333Y-48260000I-1270000J0D01*
G01*
X122343333Y-50800000D02*
X122343333Y-91440000D01*
X123613333Y-50800000D02*
X122343333Y-50800000D01*
X129963333Y-50800000D02*
X123613333Y-50800000D01*
X129963333Y-91440000D02*
X129963333Y-50800000D01*
X122343333Y-91440000D02*
X129963333Y-91440000D01*
X85090000Y-92710000D02*
X88900000Y-91440000D01*
X81280000Y-91440000D02*
X85090000Y-92710000D01*
X88900000Y-50800000D02*
X85090000Y-49530000D01*
X81280000Y-50800000D02*
X85090000Y-49530000D01*
X86360000Y-48260000D02*
G75*
G03*
X86360000Y-48260000I-1270000J0D01*
G01*
X81280000Y-50800000D02*
X81280000Y-91440000D01*
X82550000Y-50800000D02*
X81280000Y-50800000D01*
X88900000Y-50800000D02*
X82550000Y-50800000D01*
X88900000Y-91440000D02*
X88900000Y-50800000D01*
X81280000Y-91440000D02*
X88900000Y-91440000D01*
X210550000Y-92710000D02*
X214360000Y-91440000D01*
X206740000Y-91440000D02*
X210550000Y-92710000D01*
X214360000Y-50800000D02*
X210550000Y-49530000D01*
X206740000Y-50800000D02*
X210550000Y-49530000D01*
X211820000Y-48260000D02*
G75*
G03*
X211820000Y-48260000I-1270000J0D01*
G01*
X206740000Y-50800000D02*
X206740000Y-91440000D01*
X208010000Y-50800000D02*
X206740000Y-50800000D01*
X214360000Y-50800000D02*
X208010000Y-50800000D01*
X214360000Y-91440000D02*
X214360000Y-50800000D01*
X206740000Y-91440000D02*
X214360000Y-91440000D01*
X168486666Y-92710000D02*
X172296666Y-91440000D01*
X164676666Y-91440000D02*
X168486666Y-92710000D01*
X172296666Y-50800000D02*
X168486666Y-49530000D01*
X164676666Y-50800000D02*
X168486666Y-49530000D01*
X169756666Y-48260000D02*
G75*
G03*
X169756666Y-48260000I-1270000J0D01*
G01*
X164676666Y-50800000D02*
X164676666Y-91440000D01*
X165946666Y-50800000D02*
X164676666Y-50800000D01*
X172296666Y-50800000D02*
X165946666Y-50800000D01*
X172296666Y-91440000D02*
X172296666Y-50800000D01*
X164676666Y-91440000D02*
X172296666Y-91440000D01*
D12*
X204470000Y-104520000D02*
X217170000Y-104520000D01*
X217170000Y-104520000D02*
X217170000Y-106240000D01*
X217170000Y-109660000D02*
X217170000Y-111380000D01*
X217170000Y-111380000D02*
X204470000Y-111380000D01*
X204470000Y-104520000D02*
X204470000Y-106240000D01*
X204470000Y-109660000D02*
X204470000Y-111380000D01*
D13*
X206220000Y-111950000D02*
G75*
G03*
X206220000Y-111950000I-100000J0D01*
G01*
D12*
X162560000Y-104520000D02*
X175260000Y-104520000D01*
X175260000Y-104520000D02*
X175260000Y-106240000D01*
X175260000Y-109660000D02*
X175260000Y-111380000D01*
X175260000Y-111380000D02*
X162560000Y-111380000D01*
X162560000Y-104520000D02*
X162560000Y-106240000D01*
X162560000Y-109660000D02*
X162560000Y-111380000D01*
D13*
X164310000Y-111950000D02*
G75*
G03*
X164310000Y-111950000I-100000J0D01*
G01*
D12*
X120650000Y-104520000D02*
X133350000Y-104520000D01*
X133350000Y-104520000D02*
X133350000Y-106240000D01*
X133350000Y-109660000D02*
X133350000Y-111380000D01*
X133350000Y-111380000D02*
X120650000Y-111380000D01*
X120650000Y-104520000D02*
X120650000Y-106240000D01*
X120650000Y-109660000D02*
X120650000Y-111380000D01*
D13*
X122400000Y-111950000D02*
G75*
G03*
X122400000Y-111950000I-100000J0D01*
G01*
D12*
X78740000Y-104520000D02*
X91440000Y-104520000D01*
X91440000Y-104520000D02*
X91440000Y-106240000D01*
X91440000Y-109660000D02*
X91440000Y-111380000D01*
X91440000Y-111380000D02*
X78740000Y-111380000D01*
X78740000Y-104520000D02*
X78740000Y-106240000D01*
X78740000Y-109660000D02*
X78740000Y-111380000D01*
D13*
X80490000Y-111950000D02*
G75*
G03*
X80490000Y-111950000I-100000J0D01*
G01*
D10*
X198610000Y-57070000D02*
X201150000Y-57070000D01*
X199880000Y-55800000D02*
X199880000Y-58340000D01*
X203055000Y-57070000D02*
G75*
G03*
X203055000Y-57070000I-3175000J0D01*
G01*
X195130000Y-52220000D02*
X195130000Y-63570000D01*
X204630000Y-52220000D02*
X204630000Y-63570000D01*
X195130000Y-63570000D02*
X204630000Y-63570000D01*
X195130000Y-52220000D02*
X204630000Y-52220000D01*
X156210000Y-57150000D02*
X158750000Y-57150000D01*
X157480000Y-55880000D02*
X157480000Y-58420000D01*
X160655000Y-57150000D02*
G75*
G03*
X160655000Y-57150000I-3175000J0D01*
G01*
X152730000Y-52300000D02*
X152730000Y-63650000D01*
X162230000Y-52300000D02*
X162230000Y-63650000D01*
X152730000Y-63650000D02*
X162230000Y-63650000D01*
X152730000Y-52300000D02*
X162230000Y-52300000D01*
X114300000Y-57150000D02*
X116840000Y-57150000D01*
X115570000Y-55880000D02*
X115570000Y-58420000D01*
X118745000Y-57150000D02*
G75*
G03*
X118745000Y-57150000I-3175000J0D01*
G01*
X110820000Y-52300000D02*
X110820000Y-63650000D01*
X120320000Y-52300000D02*
X120320000Y-63650000D01*
X110820000Y-63650000D02*
X120320000Y-63650000D01*
X110820000Y-52300000D02*
X120320000Y-52300000D01*
X73660000Y-57150000D02*
X76200000Y-57150000D01*
X74930000Y-55880000D02*
X74930000Y-58420000D01*
X78105000Y-57150000D02*
G75*
G03*
X78105000Y-57150000I-3175000J0D01*
G01*
X70180000Y-52300000D02*
X70180000Y-63650000D01*
X79680000Y-52300000D02*
X79680000Y-63650000D01*
X70180000Y-63650000D02*
X79680000Y-63650000D01*
X70180000Y-52300000D02*
X79680000Y-52300000D01*
X198610000Y-81320000D02*
X201150000Y-81320000D01*
X199880000Y-80050000D02*
X199880000Y-82590000D01*
X203055000Y-81320000D02*
G75*
G03*
X203055000Y-81320000I-3175000J0D01*
G01*
X195130000Y-76470000D02*
X195130000Y-87820000D01*
X204630000Y-76470000D02*
X204630000Y-87820000D01*
X195130000Y-87820000D02*
X204630000Y-87820000D01*
X195130000Y-76470000D02*
X204630000Y-76470000D01*
X156210000Y-81280000D02*
X158750000Y-81280000D01*
X157480000Y-80010000D02*
X157480000Y-82550000D01*
X160655000Y-81280000D02*
G75*
G03*
X160655000Y-81280000I-3175000J0D01*
G01*
X152730000Y-76430000D02*
X152730000Y-87780000D01*
X162230000Y-76430000D02*
X162230000Y-87780000D01*
X152730000Y-87780000D02*
X162230000Y-87780000D01*
X152730000Y-76430000D02*
X162230000Y-76430000D01*
X114300000Y-81280000D02*
X116840000Y-81280000D01*
X115570000Y-80010000D02*
X115570000Y-82550000D01*
X118745000Y-81280000D02*
G75*
G03*
X118745000Y-81280000I-3175000J0D01*
G01*
X110820000Y-76430000D02*
X110820000Y-87780000D01*
X120320000Y-76430000D02*
X120320000Y-87780000D01*
X110820000Y-87780000D02*
X120320000Y-87780000D01*
X110820000Y-76430000D02*
X120320000Y-76430000D01*
X73660000Y-81280000D02*
X76200000Y-81280000D01*
X74930000Y-80010000D02*
X74930000Y-82550000D01*
X78105000Y-81280000D02*
G75*
G03*
X78105000Y-81280000I-3175000J0D01*
G01*
X70180000Y-76430000D02*
X70180000Y-87780000D01*
X79680000Y-76430000D02*
X79680000Y-87780000D01*
X70180000Y-87780000D02*
X79680000Y-87780000D01*
X70180000Y-76430000D02*
X79680000Y-76430000D01*
X219710000Y-57150000D02*
X222250000Y-57150000D01*
X220980000Y-55880000D02*
X220980000Y-58420000D01*
X224155000Y-57150000D02*
G75*
G03*
X224155000Y-57150000I-3175000J0D01*
G01*
X216230000Y-52300000D02*
X216230000Y-63650000D01*
X225730000Y-52300000D02*
X225730000Y-63650000D01*
X216230000Y-63650000D02*
X225730000Y-63650000D01*
X216230000Y-52300000D02*
X225730000Y-52300000D01*
X177800000Y-57150000D02*
X180340000Y-57150000D01*
X179070000Y-55880000D02*
X179070000Y-58420000D01*
X182245000Y-57150000D02*
G75*
G03*
X182245000Y-57150000I-3175000J0D01*
G01*
X174320000Y-52300000D02*
X174320000Y-63650000D01*
X183820000Y-52300000D02*
X183820000Y-63650000D01*
X174320000Y-63650000D02*
X183820000Y-63650000D01*
X174320000Y-52300000D02*
X183820000Y-52300000D01*
X135890000Y-57030000D02*
X138430000Y-57030000D01*
X137160000Y-55760000D02*
X137160000Y-58300000D01*
X140335000Y-57030000D02*
G75*
G03*
X140335000Y-57030000I-3175000J0D01*
G01*
X132410000Y-52180000D02*
X132410000Y-63530000D01*
X141910000Y-52180000D02*
X141910000Y-63530000D01*
X132410000Y-63530000D02*
X141910000Y-63530000D01*
X132410000Y-52180000D02*
X141910000Y-52180000D01*
X94340000Y-57130000D02*
X96880000Y-57130000D01*
X95610000Y-55860000D02*
X95610000Y-58400000D01*
X98785000Y-57130000D02*
G75*
G03*
X98785000Y-57130000I-3175000J0D01*
G01*
X90860000Y-52280000D02*
X90860000Y-63630000D01*
X100360000Y-52280000D02*
X100360000Y-63630000D01*
X90860000Y-63630000D02*
X100360000Y-63630000D01*
X90860000Y-52280000D02*
X100360000Y-52280000D01*
X219710000Y-81280000D02*
X222250000Y-81280000D01*
X220980000Y-80010000D02*
X220980000Y-82550000D01*
X224155000Y-81280000D02*
G75*
G03*
X224155000Y-81280000I-3175000J0D01*
G01*
X216230000Y-76430000D02*
X216230000Y-87780000D01*
X225730000Y-76430000D02*
X225730000Y-87780000D01*
X216230000Y-87780000D02*
X225730000Y-87780000D01*
X216230000Y-76430000D02*
X225730000Y-76430000D01*
X177800000Y-81280000D02*
X180340000Y-81280000D01*
X179070000Y-80010000D02*
X179070000Y-82550000D01*
X182245000Y-81280000D02*
G75*
G03*
X182245000Y-81280000I-3175000J0D01*
G01*
X174320000Y-76430000D02*
X174320000Y-87780000D01*
X183820000Y-76430000D02*
X183820000Y-87780000D01*
X174320000Y-87780000D02*
X183820000Y-87780000D01*
X174320000Y-76430000D02*
X183820000Y-76430000D01*
X135890000Y-81280000D02*
X138430000Y-81280000D01*
X137160000Y-80010000D02*
X137160000Y-82550000D01*
X140335000Y-81280000D02*
G75*
G03*
X140335000Y-81280000I-3175000J0D01*
G01*
X132410000Y-76430000D02*
X132410000Y-87780000D01*
X141910000Y-76430000D02*
X141910000Y-87780000D01*
X132410000Y-87780000D02*
X141910000Y-87780000D01*
X132410000Y-76430000D02*
X141910000Y-76430000D01*
X93070000Y-81260000D02*
X95610000Y-81260000D01*
X94340000Y-79990000D02*
X94340000Y-82530000D01*
X97515000Y-81260000D02*
G75*
G03*
X97515000Y-81260000I-3175000J0D01*
G01*
X89590000Y-76410000D02*
X89590000Y-87760000D01*
X99090000Y-76410000D02*
X99090000Y-87760000D01*
X89590000Y-87760000D02*
X99090000Y-87760000D01*
X89590000Y-76410000D02*
X99090000Y-76410000D01*
X210850000Y-136630000D02*
X210850000Y-140230000D01*
X212650000Y-138430000D02*
X209050000Y-138430000D01*
X212650000Y-138430000D02*
G75*
G03*
X212650000Y-138430000I-1800000J0D01*
G01*
X217050000Y-142930000D02*
X206150000Y-142930000D01*
X217050000Y-133930000D02*
X206150000Y-133930000D01*
X206150000Y-133930000D02*
X206150000Y-142930000D01*
X217050000Y-133930000D02*
X217050000Y-142930000D01*
X168910000Y-136630000D02*
X168910000Y-140230000D01*
X170710000Y-138430000D02*
X167110000Y-138430000D01*
X170710000Y-138430000D02*
G75*
G03*
X170710000Y-138430000I-1800000J0D01*
G01*
X175110000Y-142930000D02*
X164210000Y-142930000D01*
X175110000Y-133930000D02*
X164210000Y-133930000D01*
X164210000Y-133930000D02*
X164210000Y-142930000D01*
X175110000Y-133930000D02*
X175110000Y-142930000D01*
X127000000Y-136630000D02*
X127000000Y-140230000D01*
X128800000Y-138430000D02*
X125200000Y-138430000D01*
X128800000Y-138430000D02*
G75*
G03*
X128800000Y-138430000I-1800000J0D01*
G01*
X133200000Y-142930000D02*
X122300000Y-142930000D01*
X133200000Y-133930000D02*
X122300000Y-133930000D01*
X122300000Y-133930000D02*
X122300000Y-142930000D01*
X133200000Y-133930000D02*
X133200000Y-142930000D01*
X85090000Y-136630000D02*
X85090000Y-140230000D01*
X86890000Y-138430000D02*
X83290000Y-138430000D01*
X86890000Y-138430000D02*
G75*
G03*
X86890000Y-138430000I-1800000J0D01*
G01*
X91290000Y-142930000D02*
X80390000Y-142930000D01*
X91290000Y-133930000D02*
X80390000Y-133930000D01*
X80390000Y-133930000D02*
X80390000Y-142930000D01*
X91290000Y-133930000D02*
X91290000Y-142930000D01*
X210820000Y-116310000D02*
X210820000Y-119910000D01*
X212620000Y-118110000D02*
X209020000Y-118110000D01*
X212620000Y-118110000D02*
G75*
G03*
X212620000Y-118110000I-1800000J0D01*
G01*
X217020000Y-122610000D02*
X206120000Y-122610000D01*
X217020000Y-113610000D02*
X206120000Y-113610000D01*
X206120000Y-113610000D02*
X206120000Y-122610000D01*
X217020000Y-113610000D02*
X217020000Y-122610000D01*
X168910000Y-116310000D02*
X168910000Y-119910000D01*
X170710000Y-118110000D02*
X167110000Y-118110000D01*
X170710000Y-118110000D02*
G75*
G03*
X170710000Y-118110000I-1800000J0D01*
G01*
X175110000Y-122610000D02*
X164210000Y-122610000D01*
X175110000Y-113610000D02*
X164210000Y-113610000D01*
X164210000Y-113610000D02*
X164210000Y-122610000D01*
X175110000Y-113610000D02*
X175110000Y-122610000D01*
X127000000Y-116310000D02*
X127000000Y-119910000D01*
X128800000Y-118110000D02*
X125200000Y-118110000D01*
X128800000Y-118110000D02*
G75*
G03*
X128800000Y-118110000I-1800000J0D01*
G01*
X133200000Y-122610000D02*
X122300000Y-122610000D01*
X133200000Y-113610000D02*
X122300000Y-113610000D01*
X122300000Y-113610000D02*
X122300000Y-122610000D01*
X133200000Y-113610000D02*
X133200000Y-122610000D01*
X85090000Y-116310000D02*
X85090000Y-119910000D01*
X86890000Y-118110000D02*
X83290000Y-118110000D01*
X86890000Y-118110000D02*
G75*
G03*
X86890000Y-118110000I-1800000J0D01*
G01*
X91290000Y-122610000D02*
X80390000Y-122610000D01*
X91290000Y-113610000D02*
X80390000Y-113610000D01*
X80390000Y-113610000D02*
X80390000Y-122610000D01*
X91290000Y-113610000D02*
X91290000Y-122610000D01*
X210850000Y-126470000D02*
X210850000Y-130070000D01*
X212650000Y-128270000D02*
X209050000Y-128270000D01*
X212650000Y-128270000D02*
G75*
G03*
X212650000Y-128270000I-1800000J0D01*
G01*
X217050000Y-132770000D02*
X206150000Y-132770000D01*
X217050000Y-123770000D02*
X206150000Y-123770000D01*
X206150000Y-123770000D02*
X206150000Y-132770000D01*
X217050000Y-123770000D02*
X217050000Y-132770000D01*
X168910000Y-126470000D02*
X168910000Y-130070000D01*
X170710000Y-128270000D02*
X167110000Y-128270000D01*
X170710000Y-128270000D02*
G75*
G03*
X170710000Y-128270000I-1800000J0D01*
G01*
X175110000Y-132770000D02*
X164210000Y-132770000D01*
X175110000Y-123770000D02*
X164210000Y-123770000D01*
X164210000Y-123770000D02*
X164210000Y-132770000D01*
X175110000Y-123770000D02*
X175110000Y-132770000D01*
X127000000Y-126470000D02*
X127000000Y-130070000D01*
X128800000Y-128270000D02*
X125200000Y-128270000D01*
X128800000Y-128270000D02*
G75*
G03*
X128800000Y-128270000I-1800000J0D01*
G01*
X133200000Y-132770000D02*
X122300000Y-132770000D01*
X133200000Y-123770000D02*
X122300000Y-123770000D01*
X122300000Y-123770000D02*
X122300000Y-132770000D01*
X133200000Y-123770000D02*
X133200000Y-132770000D01*
X85090000Y-126470000D02*
X85090000Y-130070000D01*
X86890000Y-128270000D02*
X83290000Y-128270000D01*
X86890000Y-128270000D02*
G75*
G03*
X86890000Y-128270000I-1800000J0D01*
G01*
X91290000Y-132770000D02*
X80390000Y-132770000D01*
X91290000Y-123770000D02*
X80390000Y-123770000D01*
X80390000Y-123770000D02*
X80390000Y-132770000D01*
X91290000Y-123770000D02*
X91290000Y-132770000D01*
D11*
X216880000Y-67344000D02*
X216880000Y-67500000D01*
X216880000Y-69660000D02*
X216880000Y-69816000D01*
X219481130Y-69659837D02*
G75*
G02*
X217399039Y-69660000I-1041130J1079837D01*
G01*
X219481130Y-67500163D02*
G75*
G03*
X217399039Y-67500000I-1041130J-1079837D01*
G01*
X220112335Y-69658608D02*
G75*
G02*
X216880000Y-69815516I-1672335J1078608D01*
G01*
X220112335Y-67501392D02*
G75*
G03*
X216880000Y-67344484I-1672335J-1078608D01*
G01*
X200960000Y-67224000D02*
X200960000Y-67380000D01*
X200960000Y-69540000D02*
X200960000Y-69696000D01*
X203561130Y-69539837D02*
G75*
G02*
X201479039Y-69540000I-1041130J1079837D01*
G01*
X203561130Y-67380163D02*
G75*
G03*
X201479039Y-67380000I-1041130J-1079837D01*
G01*
X204192335Y-69538608D02*
G75*
G02*
X200960000Y-69695516I-1672335J1078608D01*
G01*
X204192335Y-67381392D02*
G75*
G03*
X200960000Y-67224484I-1672335J-1078608D01*
G01*
X174970000Y-67344000D02*
X174970000Y-67500000D01*
X174970000Y-69660000D02*
X174970000Y-69816000D01*
X177571130Y-69659837D02*
G75*
G02*
X175489039Y-69660000I-1041130J1079837D01*
G01*
X177571130Y-67500163D02*
G75*
G03*
X175489039Y-67500000I-1041130J-1079837D01*
G01*
X178202335Y-69658608D02*
G75*
G02*
X174970000Y-69815516I-1672335J1078608D01*
G01*
X178202335Y-67501392D02*
G75*
G03*
X174970000Y-67344484I-1672335J-1078608D01*
G01*
X158460000Y-67344000D02*
X158460000Y-67500000D01*
X158460000Y-69660000D02*
X158460000Y-69816000D01*
X161061130Y-69659837D02*
G75*
G02*
X158979039Y-69660000I-1041130J1079837D01*
G01*
X161061130Y-67500163D02*
G75*
G03*
X158979039Y-67500000I-1041130J-1079837D01*
G01*
X161692335Y-69658608D02*
G75*
G02*
X158460000Y-69815516I-1672335J1078608D01*
G01*
X161692335Y-67501392D02*
G75*
G03*
X158460000Y-67344484I-1672335J-1078608D01*
G01*
X133060000Y-67344000D02*
X133060000Y-67500000D01*
X133060000Y-69660000D02*
X133060000Y-69816000D01*
X135661130Y-69659837D02*
G75*
G02*
X133579039Y-69660000I-1041130J1079837D01*
G01*
X135661130Y-67500163D02*
G75*
G03*
X133579039Y-67500000I-1041130J-1079837D01*
G01*
X136292335Y-69658608D02*
G75*
G02*
X133060000Y-69815516I-1672335J1078608D01*
G01*
X136292335Y-67501392D02*
G75*
G03*
X133060000Y-67344484I-1672335J-1078608D01*
G01*
X116550000Y-67344000D02*
X116550000Y-67500000D01*
X116550000Y-69660000D02*
X116550000Y-69816000D01*
X119151130Y-69659837D02*
G75*
G02*
X117069039Y-69660000I-1041130J1079837D01*
G01*
X119151130Y-67500163D02*
G75*
G03*
X117069039Y-67500000I-1041130J-1079837D01*
G01*
X119782335Y-69658608D02*
G75*
G02*
X116550000Y-69815516I-1672335J1078608D01*
G01*
X119782335Y-67501392D02*
G75*
G03*
X116550000Y-67344484I-1672335J-1078608D01*
G01*
X92420000Y-67344000D02*
X92420000Y-67500000D01*
X92420000Y-69660000D02*
X92420000Y-69816000D01*
X95021130Y-69659837D02*
G75*
G02*
X92939039Y-69660000I-1041130J1079837D01*
G01*
X95021130Y-67500163D02*
G75*
G03*
X92939039Y-67500000I-1041130J-1079837D01*
G01*
X95652335Y-69658608D02*
G75*
G02*
X92420000Y-69815516I-1672335J1078608D01*
G01*
X95652335Y-67501392D02*
G75*
G03*
X92420000Y-67344484I-1672335J-1078608D01*
G01*
X74640000Y-67344000D02*
X74640000Y-67500000D01*
X74640000Y-69660000D02*
X74640000Y-69816000D01*
X77241130Y-69659837D02*
G75*
G02*
X75159039Y-69660000I-1041130J1079837D01*
G01*
X77241130Y-67500163D02*
G75*
G03*
X75159039Y-67500000I-1041130J-1079837D01*
G01*
X77872335Y-69658608D02*
G75*
G02*
X74640000Y-69815516I-1672335J1078608D01*
G01*
X77872335Y-67501392D02*
G75*
G03*
X74640000Y-67344484I-1672335J-1078608D01*
G01*
X226160000Y-67360000D02*
X226160000Y-74800000D01*
X223420000Y-67360000D02*
X223420000Y-74800000D01*
X226160000Y-67360000D02*
X223420000Y-67360000D01*
X226160000Y-74800000D02*
X223420000Y-74800000D01*
X196950000Y-67360000D02*
X196950000Y-74800000D01*
X194210000Y-67360000D02*
X194210000Y-74800000D01*
X196950000Y-67360000D02*
X194210000Y-67360000D01*
X196950000Y-74800000D02*
X194210000Y-74800000D01*
X184250000Y-67360000D02*
X184250000Y-74800000D01*
X181510000Y-67360000D02*
X181510000Y-74800000D01*
X184250000Y-67360000D02*
X181510000Y-67360000D01*
X184250000Y-74800000D02*
X181510000Y-74800000D01*
X155040000Y-67360000D02*
X155040000Y-74800000D01*
X152300000Y-67360000D02*
X152300000Y-74800000D01*
X155040000Y-67360000D02*
X152300000Y-67360000D01*
X155040000Y-74800000D02*
X152300000Y-74800000D01*
X142340000Y-67360000D02*
X142340000Y-74800000D01*
X139600000Y-67360000D02*
X139600000Y-74800000D01*
X142340000Y-67360000D02*
X139600000Y-67360000D01*
X142340000Y-74800000D02*
X139600000Y-74800000D01*
X113130000Y-67360000D02*
X113130000Y-74800000D01*
X110390000Y-67360000D02*
X110390000Y-74800000D01*
X113130000Y-67360000D02*
X110390000Y-67360000D01*
X113130000Y-74800000D02*
X110390000Y-74800000D01*
X98960000Y-74880000D02*
X98960000Y-67440000D01*
X101700000Y-74880000D02*
X101700000Y-67440000D01*
X98960000Y-74880000D02*
X101700000Y-74880000D01*
X98960000Y-67440000D02*
X101700000Y-67440000D01*
X71220000Y-67360000D02*
X71220000Y-74800000D01*
X68480000Y-67360000D02*
X68480000Y-74800000D01*
X71220000Y-67360000D02*
X68480000Y-67360000D01*
X71220000Y-74800000D02*
X68480000Y-74800000D01*
D10*
X125343809Y-74382380D02*
X125677142Y-75382380D01*
X126010475Y-74382380D01*
X126296190Y-74477619D02*
X126343809Y-74430000D01*
X126439047Y-74382380D01*
X126677142Y-74382380D01*
X126772380Y-74430000D01*
X126819999Y-74477619D01*
X126867618Y-74572857D01*
X126867618Y-74668095D01*
X126819999Y-74810952D01*
X126248571Y-75382380D01*
X126867618Y-75382380D01*
X128359999Y-47712380D02*
X129026666Y-47712380D01*
X128598094Y-48712380D01*
X128883809Y-95972380D02*
X128693333Y-95972380D01*
X128598094Y-96020000D01*
X128550475Y-96067619D01*
X128455237Y-96210476D01*
X128407618Y-96400952D01*
X128407618Y-96781904D01*
X128455237Y-96877142D01*
X128502856Y-96924761D01*
X128598094Y-96972380D01*
X128788571Y-96972380D01*
X128883809Y-96924761D01*
X128931428Y-96877142D01*
X128979047Y-96781904D01*
X128979047Y-96543809D01*
X128931428Y-96448571D01*
X128883809Y-96400952D01*
X128788571Y-96353333D01*
X128598094Y-96353333D01*
X128502856Y-96400952D01*
X128455237Y-96448571D01*
X128407618Y-96543809D01*
X128883809Y-92495714D02*
X128883809Y-93162380D01*
X128645713Y-92114761D02*
X128407618Y-92829047D01*
X129026666Y-92829047D01*
X123851428Y-92162380D02*
X123375237Y-92162380D01*
X123327618Y-92638571D01*
X123375237Y-92590952D01*
X123470475Y-92543333D01*
X123708571Y-92543333D01*
X123803809Y-92590952D01*
X123851428Y-92638571D01*
X123899047Y-92733809D01*
X123899047Y-92971904D01*
X123851428Y-93067142D01*
X123803809Y-93114761D01*
X123708571Y-93162380D01*
X123470475Y-93162380D01*
X123375237Y-93114761D01*
X123327618Y-93067142D01*
X129629999Y-99782380D02*
X130249047Y-99782380D01*
X129915713Y-100163333D01*
X130058571Y-100163333D01*
X130153809Y-100210952D01*
X130201428Y-100258571D01*
X130249047Y-100353809D01*
X130249047Y-100591904D01*
X130201428Y-100687142D01*
X130153809Y-100734761D01*
X130058571Y-100782380D01*
X129772856Y-100782380D01*
X129677618Y-100734761D01*
X129629999Y-100687142D01*
X125867618Y-101147619D02*
X125915237Y-101100000D01*
X126010475Y-101052380D01*
X126248571Y-101052380D01*
X126343809Y-101100000D01*
X126391428Y-101147619D01*
X126439047Y-101242857D01*
X126439047Y-101338095D01*
X126391428Y-101480952D01*
X125819999Y-102052380D01*
X126439047Y-102052380D01*
X122629047Y-100782380D02*
X122057618Y-100782380D01*
X122343333Y-100782380D02*
X122343333Y-99782380D01*
X122248094Y-99925238D01*
X122152856Y-100020476D01*
X122057618Y-100068095D01*
X84280476Y-74382380D02*
X84613809Y-75382380D01*
X84947142Y-74382380D01*
X85804285Y-75382380D02*
X85232857Y-75382380D01*
X85518571Y-75382380D02*
X85518571Y-74382380D01*
X85423333Y-74525238D01*
X85328095Y-74620476D01*
X85232857Y-74668095D01*
X87296666Y-47712380D02*
X87963333Y-47712380D01*
X87534761Y-48712380D01*
X87820476Y-95972380D02*
X87630000Y-95972380D01*
X87534761Y-96020000D01*
X87487142Y-96067619D01*
X87391904Y-96210476D01*
X87344285Y-96400952D01*
X87344285Y-96781904D01*
X87391904Y-96877142D01*
X87439523Y-96924761D01*
X87534761Y-96972380D01*
X87725238Y-96972380D01*
X87820476Y-96924761D01*
X87868095Y-96877142D01*
X87915714Y-96781904D01*
X87915714Y-96543809D01*
X87868095Y-96448571D01*
X87820476Y-96400952D01*
X87725238Y-96353333D01*
X87534761Y-96353333D01*
X87439523Y-96400952D01*
X87391904Y-96448571D01*
X87344285Y-96543809D01*
X87820476Y-92495714D02*
X87820476Y-93162380D01*
X87582380Y-92114761D02*
X87344285Y-92829047D01*
X87963333Y-92829047D01*
X82788095Y-92162380D02*
X82311904Y-92162380D01*
X82264285Y-92638571D01*
X82311904Y-92590952D01*
X82407142Y-92543333D01*
X82645238Y-92543333D01*
X82740476Y-92590952D01*
X82788095Y-92638571D01*
X82835714Y-92733809D01*
X82835714Y-92971904D01*
X82788095Y-93067142D01*
X82740476Y-93114761D01*
X82645238Y-93162380D01*
X82407142Y-93162380D01*
X82311904Y-93114761D01*
X82264285Y-93067142D01*
X88566666Y-99782380D02*
X89185714Y-99782380D01*
X88852380Y-100163333D01*
X88995238Y-100163333D01*
X89090476Y-100210952D01*
X89138095Y-100258571D01*
X89185714Y-100353809D01*
X89185714Y-100591904D01*
X89138095Y-100687142D01*
X89090476Y-100734761D01*
X88995238Y-100782380D01*
X88709523Y-100782380D01*
X88614285Y-100734761D01*
X88566666Y-100687142D01*
X84804285Y-101147619D02*
X84851904Y-101100000D01*
X84947142Y-101052380D01*
X85185238Y-101052380D01*
X85280476Y-101100000D01*
X85328095Y-101147619D01*
X85375714Y-101242857D01*
X85375714Y-101338095D01*
X85328095Y-101480952D01*
X84756666Y-102052380D01*
X85375714Y-102052380D01*
X81565714Y-100782380D02*
X80994285Y-100782380D01*
X81280000Y-100782380D02*
X81280000Y-99782380D01*
X81184761Y-99925238D01*
X81089523Y-100020476D01*
X80994285Y-100068095D01*
X209740476Y-74382380D02*
X210073809Y-75382380D01*
X210407142Y-74382380D01*
X211169047Y-74715714D02*
X211169047Y-75382380D01*
X210930952Y-74334761D02*
X210692857Y-75049047D01*
X211311904Y-75049047D01*
X212756666Y-47712380D02*
X213423333Y-47712380D01*
X212994761Y-48712380D01*
X213280476Y-95972380D02*
X213090000Y-95972380D01*
X212994761Y-96020000D01*
X212947142Y-96067619D01*
X212851904Y-96210476D01*
X212804285Y-96400952D01*
X212804285Y-96781904D01*
X212851904Y-96877142D01*
X212899523Y-96924761D01*
X212994761Y-96972380D01*
X213185238Y-96972380D01*
X213280476Y-96924761D01*
X213328095Y-96877142D01*
X213375714Y-96781904D01*
X213375714Y-96543809D01*
X213328095Y-96448571D01*
X213280476Y-96400952D01*
X213185238Y-96353333D01*
X212994761Y-96353333D01*
X212899523Y-96400952D01*
X212851904Y-96448571D01*
X212804285Y-96543809D01*
X213280476Y-92495714D02*
X213280476Y-93162380D01*
X213042380Y-92114761D02*
X212804285Y-92829047D01*
X213423333Y-92829047D01*
X208248095Y-92162380D02*
X207771904Y-92162380D01*
X207724285Y-92638571D01*
X207771904Y-92590952D01*
X207867142Y-92543333D01*
X208105238Y-92543333D01*
X208200476Y-92590952D01*
X208248095Y-92638571D01*
X208295714Y-92733809D01*
X208295714Y-92971904D01*
X208248095Y-93067142D01*
X208200476Y-93114761D01*
X208105238Y-93162380D01*
X207867142Y-93162380D01*
X207771904Y-93114761D01*
X207724285Y-93067142D01*
X214026666Y-99782380D02*
X214645714Y-99782380D01*
X214312380Y-100163333D01*
X214455238Y-100163333D01*
X214550476Y-100210952D01*
X214598095Y-100258571D01*
X214645714Y-100353809D01*
X214645714Y-100591904D01*
X214598095Y-100687142D01*
X214550476Y-100734761D01*
X214455238Y-100782380D01*
X214169523Y-100782380D01*
X214074285Y-100734761D01*
X214026666Y-100687142D01*
X210264285Y-101147619D02*
X210311904Y-101100000D01*
X210407142Y-101052380D01*
X210645238Y-101052380D01*
X210740476Y-101100000D01*
X210788095Y-101147619D01*
X210835714Y-101242857D01*
X210835714Y-101338095D01*
X210788095Y-101480952D01*
X210216666Y-102052380D01*
X210835714Y-102052380D01*
X207025714Y-100782380D02*
X206454285Y-100782380D01*
X206740000Y-100782380D02*
X206740000Y-99782380D01*
X206644761Y-99925238D01*
X206549523Y-100020476D01*
X206454285Y-100068095D01*
X167677142Y-74382380D02*
X168010475Y-75382380D01*
X168343808Y-74382380D01*
X168581904Y-74382380D02*
X169200951Y-74382380D01*
X168867618Y-74763333D01*
X169010475Y-74763333D01*
X169105713Y-74810952D01*
X169153332Y-74858571D01*
X169200951Y-74953809D01*
X169200951Y-75191904D01*
X169153332Y-75287142D01*
X169105713Y-75334761D01*
X169010475Y-75382380D01*
X168724761Y-75382380D01*
X168629523Y-75334761D01*
X168581904Y-75287142D01*
X170693332Y-47712380D02*
X171359999Y-47712380D01*
X170931427Y-48712380D01*
X171217142Y-95972380D02*
X171026666Y-95972380D01*
X170931427Y-96020000D01*
X170883808Y-96067619D01*
X170788570Y-96210476D01*
X170740951Y-96400952D01*
X170740951Y-96781904D01*
X170788570Y-96877142D01*
X170836189Y-96924761D01*
X170931427Y-96972380D01*
X171121904Y-96972380D01*
X171217142Y-96924761D01*
X171264761Y-96877142D01*
X171312380Y-96781904D01*
X171312380Y-96543809D01*
X171264761Y-96448571D01*
X171217142Y-96400952D01*
X171121904Y-96353333D01*
X170931427Y-96353333D01*
X170836189Y-96400952D01*
X170788570Y-96448571D01*
X170740951Y-96543809D01*
X171217142Y-92495714D02*
X171217142Y-93162380D01*
X170979046Y-92114761D02*
X170740951Y-92829047D01*
X171359999Y-92829047D01*
X166184761Y-92162380D02*
X165708570Y-92162380D01*
X165660951Y-92638571D01*
X165708570Y-92590952D01*
X165803808Y-92543333D01*
X166041904Y-92543333D01*
X166137142Y-92590952D01*
X166184761Y-92638571D01*
X166232380Y-92733809D01*
X166232380Y-92971904D01*
X166184761Y-93067142D01*
X166137142Y-93114761D01*
X166041904Y-93162380D01*
X165803808Y-93162380D01*
X165708570Y-93114761D01*
X165660951Y-93067142D01*
X171963332Y-99782380D02*
X172582380Y-99782380D01*
X172249046Y-100163333D01*
X172391904Y-100163333D01*
X172487142Y-100210952D01*
X172534761Y-100258571D01*
X172582380Y-100353809D01*
X172582380Y-100591904D01*
X172534761Y-100687142D01*
X172487142Y-100734761D01*
X172391904Y-100782380D01*
X172106189Y-100782380D01*
X172010951Y-100734761D01*
X171963332Y-100687142D01*
X168200951Y-101147619D02*
X168248570Y-101100000D01*
X168343808Y-101052380D01*
X168581904Y-101052380D01*
X168677142Y-101100000D01*
X168724761Y-101147619D01*
X168772380Y-101242857D01*
X168772380Y-101338095D01*
X168724761Y-101480952D01*
X168153332Y-102052380D01*
X168772380Y-102052380D01*
X164962380Y-100782380D02*
X164390951Y-100782380D01*
X164676666Y-100782380D02*
X164676666Y-99782380D01*
X164581427Y-99925238D01*
X164486189Y-100020476D01*
X164390951Y-100068095D01*
X210420476Y-113044761D02*
X210563333Y-113092380D01*
X210801428Y-113092380D01*
X210896666Y-113044761D01*
X210944285Y-112997142D01*
X210991904Y-112901904D01*
X210991904Y-112806666D01*
X210944285Y-112711428D01*
X210896666Y-112663809D01*
X210801428Y-112616190D01*
X210610952Y-112568571D01*
X210515714Y-112520952D01*
X210468095Y-112473333D01*
X210420476Y-112378095D01*
X210420476Y-112282857D01*
X210468095Y-112187619D01*
X210515714Y-112140000D01*
X210610952Y-112092380D01*
X210849047Y-112092380D01*
X210991904Y-112140000D01*
X211325238Y-112092380D02*
X211563333Y-113092380D01*
X211753809Y-112378095D01*
X211944285Y-113092380D01*
X212182380Y-112092380D01*
X212325238Y-113187619D02*
X213087142Y-113187619D01*
X213325238Y-113092380D02*
X213325238Y-112092380D01*
X213563333Y-112092380D01*
X213706190Y-112140000D01*
X213801428Y-112235238D01*
X213849047Y-112330476D01*
X213896666Y-112520952D01*
X213896666Y-112663809D01*
X213849047Y-112854285D01*
X213801428Y-112949523D01*
X213706190Y-113044761D01*
X213563333Y-113092380D01*
X213325238Y-113092380D01*
X214325238Y-113092380D02*
X214325238Y-112092380D01*
X214753809Y-113044761D02*
X214896666Y-113092380D01*
X215134761Y-113092380D01*
X215230000Y-113044761D01*
X215277619Y-112997142D01*
X215325238Y-112901904D01*
X215325238Y-112806666D01*
X215277619Y-112711428D01*
X215230000Y-112663809D01*
X215134761Y-112616190D01*
X214944285Y-112568571D01*
X214849047Y-112520952D01*
X214801428Y-112473333D01*
X214753809Y-112378095D01*
X214753809Y-112282857D01*
X214801428Y-112187619D01*
X214849047Y-112140000D01*
X214944285Y-112092380D01*
X215182380Y-112092380D01*
X215325238Y-112140000D01*
X215610952Y-112092380D02*
X216182380Y-112092380D01*
X215896666Y-113092380D02*
X215896666Y-112092380D01*
X216944285Y-112425714D02*
X216944285Y-113092380D01*
X216706190Y-112044761D02*
X216468095Y-112759047D01*
X217087142Y-112759047D01*
X162440476Y-113244761D02*
X162583333Y-113292380D01*
X162821428Y-113292380D01*
X162916666Y-113244761D01*
X162964285Y-113197142D01*
X163011904Y-113101904D01*
X163011904Y-113006666D01*
X162964285Y-112911428D01*
X162916666Y-112863809D01*
X162821428Y-112816190D01*
X162630952Y-112768571D01*
X162535714Y-112720952D01*
X162488095Y-112673333D01*
X162440476Y-112578095D01*
X162440476Y-112482857D01*
X162488095Y-112387619D01*
X162535714Y-112340000D01*
X162630952Y-112292380D01*
X162869047Y-112292380D01*
X163011904Y-112340000D01*
X163345238Y-112292380D02*
X163583333Y-113292380D01*
X163773809Y-112578095D01*
X163964285Y-113292380D01*
X164202380Y-112292380D01*
X164345238Y-113387619D02*
X165107142Y-113387619D01*
X165345238Y-113292380D02*
X165345238Y-112292380D01*
X165583333Y-112292380D01*
X165726190Y-112340000D01*
X165821428Y-112435238D01*
X165869047Y-112530476D01*
X165916666Y-112720952D01*
X165916666Y-112863809D01*
X165869047Y-113054285D01*
X165821428Y-113149523D01*
X165726190Y-113244761D01*
X165583333Y-113292380D01*
X165345238Y-113292380D01*
X166345238Y-113292380D02*
X166345238Y-112292380D01*
X166773809Y-113244761D02*
X166916666Y-113292380D01*
X167154761Y-113292380D01*
X167250000Y-113244761D01*
X167297619Y-113197142D01*
X167345238Y-113101904D01*
X167345238Y-113006666D01*
X167297619Y-112911428D01*
X167250000Y-112863809D01*
X167154761Y-112816190D01*
X166964285Y-112768571D01*
X166869047Y-112720952D01*
X166821428Y-112673333D01*
X166773809Y-112578095D01*
X166773809Y-112482857D01*
X166821428Y-112387619D01*
X166869047Y-112340000D01*
X166964285Y-112292380D01*
X167202380Y-112292380D01*
X167345238Y-112340000D01*
X167630952Y-112292380D02*
X168202380Y-112292380D01*
X167916666Y-113292380D02*
X167916666Y-112292380D01*
X168440476Y-112292380D02*
X169059523Y-112292380D01*
X168726190Y-112673333D01*
X168869047Y-112673333D01*
X168964285Y-112720952D01*
X169011904Y-112768571D01*
X169059523Y-112863809D01*
X169059523Y-113101904D01*
X169011904Y-113197142D01*
X168964285Y-113244761D01*
X168869047Y-113292380D01*
X168583333Y-113292380D01*
X168488095Y-113244761D01*
X168440476Y-113197142D01*
X126570476Y-113004761D02*
X126713333Y-113052380D01*
X126951428Y-113052380D01*
X127046666Y-113004761D01*
X127094285Y-112957142D01*
X127141904Y-112861904D01*
X127141904Y-112766666D01*
X127094285Y-112671428D01*
X127046666Y-112623809D01*
X126951428Y-112576190D01*
X126760952Y-112528571D01*
X126665714Y-112480952D01*
X126618095Y-112433333D01*
X126570476Y-112338095D01*
X126570476Y-112242857D01*
X126618095Y-112147619D01*
X126665714Y-112100000D01*
X126760952Y-112052380D01*
X126999047Y-112052380D01*
X127141904Y-112100000D01*
X127475238Y-112052380D02*
X127713333Y-113052380D01*
X127903809Y-112338095D01*
X128094285Y-113052380D01*
X128332380Y-112052380D01*
X128475238Y-113147619D02*
X129237142Y-113147619D01*
X129475238Y-113052380D02*
X129475238Y-112052380D01*
X129713333Y-112052380D01*
X129856190Y-112100000D01*
X129951428Y-112195238D01*
X129999047Y-112290476D01*
X130046666Y-112480952D01*
X130046666Y-112623809D01*
X129999047Y-112814285D01*
X129951428Y-112909523D01*
X129856190Y-113004761D01*
X129713333Y-113052380D01*
X129475238Y-113052380D01*
X130475238Y-113052380D02*
X130475238Y-112052380D01*
X130903809Y-113004761D02*
X131046666Y-113052380D01*
X131284761Y-113052380D01*
X131380000Y-113004761D01*
X131427619Y-112957142D01*
X131475238Y-112861904D01*
X131475238Y-112766666D01*
X131427619Y-112671428D01*
X131380000Y-112623809D01*
X131284761Y-112576190D01*
X131094285Y-112528571D01*
X130999047Y-112480952D01*
X130951428Y-112433333D01*
X130903809Y-112338095D01*
X130903809Y-112242857D01*
X130951428Y-112147619D01*
X130999047Y-112100000D01*
X131094285Y-112052380D01*
X131332380Y-112052380D01*
X131475238Y-112100000D01*
X131760952Y-112052380D02*
X132332380Y-112052380D01*
X132046666Y-113052380D02*
X132046666Y-112052380D01*
X132618095Y-112147619D02*
X132665714Y-112100000D01*
X132760952Y-112052380D01*
X132999047Y-112052380D01*
X133094285Y-112100000D01*
X133141904Y-112147619D01*
X133189523Y-112242857D01*
X133189523Y-112338095D01*
X133141904Y-112480952D01*
X132570476Y-113052380D01*
X133189523Y-113052380D01*
X78770476Y-113044761D02*
X78913333Y-113092380D01*
X79151428Y-113092380D01*
X79246666Y-113044761D01*
X79294285Y-112997142D01*
X79341904Y-112901904D01*
X79341904Y-112806666D01*
X79294285Y-112711428D01*
X79246666Y-112663809D01*
X79151428Y-112616190D01*
X78960952Y-112568571D01*
X78865714Y-112520952D01*
X78818095Y-112473333D01*
X78770476Y-112378095D01*
X78770476Y-112282857D01*
X78818095Y-112187619D01*
X78865714Y-112140000D01*
X78960952Y-112092380D01*
X79199047Y-112092380D01*
X79341904Y-112140000D01*
X79675238Y-112092380D02*
X79913333Y-113092380D01*
X80103809Y-112378095D01*
X80294285Y-113092380D01*
X80532380Y-112092380D01*
X80675238Y-113187619D02*
X81437142Y-113187619D01*
X81675238Y-113092380D02*
X81675238Y-112092380D01*
X81913333Y-112092380D01*
X82056190Y-112140000D01*
X82151428Y-112235238D01*
X82199047Y-112330476D01*
X82246666Y-112520952D01*
X82246666Y-112663809D01*
X82199047Y-112854285D01*
X82151428Y-112949523D01*
X82056190Y-113044761D01*
X81913333Y-113092380D01*
X81675238Y-113092380D01*
X82675238Y-113092380D02*
X82675238Y-112092380D01*
X83103809Y-113044761D02*
X83246666Y-113092380D01*
X83484761Y-113092380D01*
X83580000Y-113044761D01*
X83627619Y-112997142D01*
X83675238Y-112901904D01*
X83675238Y-112806666D01*
X83627619Y-112711428D01*
X83580000Y-112663809D01*
X83484761Y-112616190D01*
X83294285Y-112568571D01*
X83199047Y-112520952D01*
X83151428Y-112473333D01*
X83103809Y-112378095D01*
X83103809Y-112282857D01*
X83151428Y-112187619D01*
X83199047Y-112140000D01*
X83294285Y-112092380D01*
X83532380Y-112092380D01*
X83675238Y-112140000D01*
X83960952Y-112092380D02*
X84532380Y-112092380D01*
X84246666Y-113092380D02*
X84246666Y-112092380D01*
X85389523Y-113092380D02*
X84818095Y-113092380D01*
X85103809Y-113092380D02*
X85103809Y-112092380D01*
X85008571Y-112235238D01*
X84913333Y-112330476D01*
X84818095Y-112378095D01*
X196410000Y-53712380D02*
X196410000Y-52712380D01*
X196886190Y-53712380D02*
X196886190Y-52712380D01*
X197457619Y-53712380D01*
X197457619Y-52712380D01*
X197695714Y-53807619D02*
X198457619Y-53807619D01*
X198695714Y-53712380D02*
X198695714Y-52712380D01*
X198933809Y-52712380D01*
X199076666Y-52760000D01*
X199171904Y-52855238D01*
X199219523Y-52950476D01*
X199267142Y-53140952D01*
X199267142Y-53283809D01*
X199219523Y-53474285D01*
X199171904Y-53569523D01*
X199076666Y-53664761D01*
X198933809Y-53712380D01*
X198695714Y-53712380D01*
X200267142Y-53712380D02*
X199933809Y-53236190D01*
X199695714Y-53712380D02*
X199695714Y-52712380D01*
X200076666Y-52712380D01*
X200171904Y-52760000D01*
X200219523Y-52807619D01*
X200267142Y-52902857D01*
X200267142Y-53045714D01*
X200219523Y-53140952D01*
X200171904Y-53188571D01*
X200076666Y-53236190D01*
X199695714Y-53236190D01*
X200695714Y-53712380D02*
X200695714Y-52712380D01*
X201029047Y-52712380D02*
X201362380Y-53712380D01*
X201695714Y-52712380D01*
X202029047Y-53188571D02*
X202362380Y-53188571D01*
X202505238Y-53712380D02*
X202029047Y-53712380D01*
X202029047Y-52712380D01*
X202505238Y-52712380D01*
X203362380Y-53045714D02*
X203362380Y-53712380D01*
X203124285Y-52664761D02*
X202886190Y-53379047D01*
X203505238Y-53379047D01*
X153860000Y-53752380D02*
X153860000Y-52752380D01*
X154336190Y-53752380D02*
X154336190Y-52752380D01*
X154907619Y-53752380D01*
X154907619Y-52752380D01*
X155145714Y-53847619D02*
X155907619Y-53847619D01*
X156145714Y-53752380D02*
X156145714Y-52752380D01*
X156383809Y-52752380D01*
X156526666Y-52800000D01*
X156621904Y-52895238D01*
X156669523Y-52990476D01*
X156717142Y-53180952D01*
X156717142Y-53323809D01*
X156669523Y-53514285D01*
X156621904Y-53609523D01*
X156526666Y-53704761D01*
X156383809Y-53752380D01*
X156145714Y-53752380D01*
X157717142Y-53752380D02*
X157383809Y-53276190D01*
X157145714Y-53752380D02*
X157145714Y-52752380D01*
X157526666Y-52752380D01*
X157621904Y-52800000D01*
X157669523Y-52847619D01*
X157717142Y-52942857D01*
X157717142Y-53085714D01*
X157669523Y-53180952D01*
X157621904Y-53228571D01*
X157526666Y-53276190D01*
X157145714Y-53276190D01*
X158145714Y-53752380D02*
X158145714Y-52752380D01*
X158479047Y-52752380D02*
X158812380Y-53752380D01*
X159145714Y-52752380D01*
X159479047Y-53228571D02*
X159812380Y-53228571D01*
X159955238Y-53752380D02*
X159479047Y-53752380D01*
X159479047Y-52752380D01*
X159955238Y-52752380D01*
X160288571Y-52752380D02*
X160907619Y-52752380D01*
X160574285Y-53133333D01*
X160717142Y-53133333D01*
X160812380Y-53180952D01*
X160860000Y-53228571D01*
X160907619Y-53323809D01*
X160907619Y-53561904D01*
X160860000Y-53657142D01*
X160812380Y-53704761D01*
X160717142Y-53752380D01*
X160431428Y-53752380D01*
X160336190Y-53704761D01*
X160288571Y-53657142D01*
X112310000Y-53722380D02*
X112310000Y-52722380D01*
X112786190Y-53722380D02*
X112786190Y-52722380D01*
X113357619Y-53722380D01*
X113357619Y-52722380D01*
X113595714Y-53817619D02*
X114357619Y-53817619D01*
X114595714Y-53722380D02*
X114595714Y-52722380D01*
X114833809Y-52722380D01*
X114976666Y-52770000D01*
X115071904Y-52865238D01*
X115119523Y-52960476D01*
X115167142Y-53150952D01*
X115167142Y-53293809D01*
X115119523Y-53484285D01*
X115071904Y-53579523D01*
X114976666Y-53674761D01*
X114833809Y-53722380D01*
X114595714Y-53722380D01*
X116167142Y-53722380D02*
X115833809Y-53246190D01*
X115595714Y-53722380D02*
X115595714Y-52722380D01*
X115976666Y-52722380D01*
X116071904Y-52770000D01*
X116119523Y-52817619D01*
X116167142Y-52912857D01*
X116167142Y-53055714D01*
X116119523Y-53150952D01*
X116071904Y-53198571D01*
X115976666Y-53246190D01*
X115595714Y-53246190D01*
X116595714Y-53722380D02*
X116595714Y-52722380D01*
X116929047Y-52722380D02*
X117262380Y-53722380D01*
X117595714Y-52722380D01*
X117929047Y-53198571D02*
X118262380Y-53198571D01*
X118405238Y-53722380D02*
X117929047Y-53722380D01*
X117929047Y-52722380D01*
X118405238Y-52722380D01*
X118786190Y-52817619D02*
X118833809Y-52770000D01*
X118929047Y-52722380D01*
X119167142Y-52722380D01*
X119262380Y-52770000D01*
X119310000Y-52817619D01*
X119357619Y-52912857D01*
X119357619Y-53008095D01*
X119310000Y-53150952D01*
X118738571Y-53722380D01*
X119357619Y-53722380D01*
X71440000Y-53922380D02*
X71440000Y-52922380D01*
X71916190Y-53922380D02*
X71916190Y-52922380D01*
X72487619Y-53922380D01*
X72487619Y-52922380D01*
X72725714Y-54017619D02*
X73487619Y-54017619D01*
X73725714Y-53922380D02*
X73725714Y-52922380D01*
X73963809Y-52922380D01*
X74106666Y-52970000D01*
X74201904Y-53065238D01*
X74249523Y-53160476D01*
X74297142Y-53350952D01*
X74297142Y-53493809D01*
X74249523Y-53684285D01*
X74201904Y-53779523D01*
X74106666Y-53874761D01*
X73963809Y-53922380D01*
X73725714Y-53922380D01*
X75297142Y-53922380D02*
X74963809Y-53446190D01*
X74725714Y-53922380D02*
X74725714Y-52922380D01*
X75106666Y-52922380D01*
X75201904Y-52970000D01*
X75249523Y-53017619D01*
X75297142Y-53112857D01*
X75297142Y-53255714D01*
X75249523Y-53350952D01*
X75201904Y-53398571D01*
X75106666Y-53446190D01*
X74725714Y-53446190D01*
X75725714Y-53922380D02*
X75725714Y-52922380D01*
X76059047Y-52922380D02*
X76392380Y-53922380D01*
X76725714Y-52922380D01*
X77059047Y-53398571D02*
X77392380Y-53398571D01*
X77535238Y-53922380D02*
X77059047Y-53922380D01*
X77059047Y-52922380D01*
X77535238Y-52922380D01*
X78487619Y-53922380D02*
X77916190Y-53922380D01*
X78201904Y-53922380D02*
X78201904Y-52922380D01*
X78106666Y-53065238D01*
X78011428Y-53160476D01*
X77916190Y-53208095D01*
X198235238Y-76920000D02*
X198140000Y-76872380D01*
X197997142Y-76872380D01*
X197854285Y-76920000D01*
X197759047Y-77015238D01*
X197711428Y-77110476D01*
X197663809Y-77300952D01*
X197663809Y-77443809D01*
X197711428Y-77634285D01*
X197759047Y-77729523D01*
X197854285Y-77824761D01*
X197997142Y-77872380D01*
X198092380Y-77872380D01*
X198235238Y-77824761D01*
X198282857Y-77777142D01*
X198282857Y-77443809D01*
X198092380Y-77443809D01*
X198663809Y-77586666D02*
X199140000Y-77586666D01*
X198568571Y-77872380D02*
X198901904Y-76872380D01*
X199235238Y-77872380D01*
X199568571Y-77872380D02*
X199568571Y-76872380D01*
X200044761Y-77872380D02*
X200044761Y-76872380D01*
X200616190Y-77872380D01*
X200616190Y-76872380D01*
X201520952Y-77205714D02*
X201520952Y-77872380D01*
X201282857Y-76824761D02*
X201044761Y-77539047D01*
X201663809Y-77539047D01*
X156225238Y-76820000D02*
X156130000Y-76772380D01*
X155987142Y-76772380D01*
X155844285Y-76820000D01*
X155749047Y-76915238D01*
X155701428Y-77010476D01*
X155653809Y-77200952D01*
X155653809Y-77343809D01*
X155701428Y-77534285D01*
X155749047Y-77629523D01*
X155844285Y-77724761D01*
X155987142Y-77772380D01*
X156082380Y-77772380D01*
X156225238Y-77724761D01*
X156272857Y-77677142D01*
X156272857Y-77343809D01*
X156082380Y-77343809D01*
X156653809Y-77486666D02*
X157130000Y-77486666D01*
X156558571Y-77772380D02*
X156891904Y-76772380D01*
X157225238Y-77772380D01*
X157558571Y-77772380D02*
X157558571Y-76772380D01*
X158034761Y-77772380D02*
X158034761Y-76772380D01*
X158606190Y-77772380D01*
X158606190Y-76772380D01*
X158987142Y-76772380D02*
X159606190Y-76772380D01*
X159272857Y-77153333D01*
X159415714Y-77153333D01*
X159510952Y-77200952D01*
X159558571Y-77248571D01*
X159606190Y-77343809D01*
X159606190Y-77581904D01*
X159558571Y-77677142D01*
X159510952Y-77724761D01*
X159415714Y-77772380D01*
X159130000Y-77772380D01*
X159034761Y-77724761D01*
X158987142Y-77677142D01*
X114215238Y-76900000D02*
X114120000Y-76852380D01*
X113977142Y-76852380D01*
X113834285Y-76900000D01*
X113739047Y-76995238D01*
X113691428Y-77090476D01*
X113643809Y-77280952D01*
X113643809Y-77423809D01*
X113691428Y-77614285D01*
X113739047Y-77709523D01*
X113834285Y-77804761D01*
X113977142Y-77852380D01*
X114072380Y-77852380D01*
X114215238Y-77804761D01*
X114262857Y-77757142D01*
X114262857Y-77423809D01*
X114072380Y-77423809D01*
X114643809Y-77566666D02*
X115120000Y-77566666D01*
X114548571Y-77852380D02*
X114881904Y-76852380D01*
X115215238Y-77852380D01*
X115548571Y-77852380D02*
X115548571Y-76852380D01*
X116024761Y-77852380D02*
X116024761Y-76852380D01*
X116596190Y-77852380D01*
X116596190Y-76852380D01*
X117024761Y-76947619D02*
X117072380Y-76900000D01*
X117167619Y-76852380D01*
X117405714Y-76852380D01*
X117500952Y-76900000D01*
X117548571Y-76947619D01*
X117596190Y-77042857D01*
X117596190Y-77138095D01*
X117548571Y-77280952D01*
X116977142Y-77852380D01*
X117596190Y-77852380D01*
X73415238Y-77110000D02*
X73320000Y-77062380D01*
X73177142Y-77062380D01*
X73034285Y-77110000D01*
X72939047Y-77205238D01*
X72891428Y-77300476D01*
X72843809Y-77490952D01*
X72843809Y-77633809D01*
X72891428Y-77824285D01*
X72939047Y-77919523D01*
X73034285Y-78014761D01*
X73177142Y-78062380D01*
X73272380Y-78062380D01*
X73415238Y-78014761D01*
X73462857Y-77967142D01*
X73462857Y-77633809D01*
X73272380Y-77633809D01*
X73843809Y-77776666D02*
X74320000Y-77776666D01*
X73748571Y-78062380D02*
X74081904Y-77062380D01*
X74415238Y-78062380D01*
X74748571Y-78062380D02*
X74748571Y-77062380D01*
X75224761Y-78062380D02*
X75224761Y-77062380D01*
X75796190Y-78062380D01*
X75796190Y-77062380D01*
X76796190Y-78062380D02*
X76224761Y-78062380D01*
X76510476Y-78062380D02*
X76510476Y-77062380D01*
X76415238Y-77205238D01*
X76320000Y-77300476D01*
X76224761Y-77348095D01*
X217393333Y-53208571D02*
X217060000Y-53208571D01*
X217060000Y-53732380D02*
X217060000Y-52732380D01*
X217536190Y-52732380D01*
X217917142Y-53208571D02*
X218250476Y-53208571D01*
X218393333Y-53732380D02*
X217917142Y-53732380D01*
X217917142Y-52732380D01*
X218393333Y-52732380D01*
X218821904Y-53208571D02*
X219155238Y-53208571D01*
X219298095Y-53732380D02*
X218821904Y-53732380D01*
X218821904Y-52732380D01*
X219298095Y-52732380D01*
X219726666Y-53732380D02*
X219726666Y-52732380D01*
X219964761Y-52732380D01*
X220107619Y-52780000D01*
X220202857Y-52875238D01*
X220250476Y-52970476D01*
X220298095Y-53160952D01*
X220298095Y-53303809D01*
X220250476Y-53494285D01*
X220202857Y-53589523D01*
X220107619Y-53684761D01*
X219964761Y-53732380D01*
X219726666Y-53732380D01*
X221060000Y-53208571D02*
X221202857Y-53256190D01*
X221250476Y-53303809D01*
X221298095Y-53399047D01*
X221298095Y-53541904D01*
X221250476Y-53637142D01*
X221202857Y-53684761D01*
X221107619Y-53732380D01*
X220726666Y-53732380D01*
X220726666Y-52732380D01*
X221060000Y-52732380D01*
X221155238Y-52780000D01*
X221202857Y-52827619D01*
X221250476Y-52922857D01*
X221250476Y-53018095D01*
X221202857Y-53113333D01*
X221155238Y-53160952D01*
X221060000Y-53208571D01*
X220726666Y-53208571D01*
X221679047Y-53446666D02*
X222155238Y-53446666D01*
X221583809Y-53732380D02*
X221917142Y-52732380D01*
X222250476Y-53732380D01*
X223155238Y-53637142D02*
X223107619Y-53684761D01*
X222964761Y-53732380D01*
X222869523Y-53732380D01*
X222726666Y-53684761D01*
X222631428Y-53589523D01*
X222583809Y-53494285D01*
X222536190Y-53303809D01*
X222536190Y-53160952D01*
X222583809Y-52970476D01*
X222631428Y-52875238D01*
X222726666Y-52780000D01*
X222869523Y-52732380D01*
X222964761Y-52732380D01*
X223107619Y-52780000D01*
X223155238Y-52827619D01*
X223583809Y-53732380D02*
X223583809Y-52732380D01*
X224155238Y-53732380D02*
X223726666Y-53160952D01*
X224155238Y-52732380D02*
X223583809Y-53303809D01*
X225012380Y-53065714D02*
X225012380Y-53732380D01*
X224774285Y-52684761D02*
X224536190Y-53399047D01*
X225155238Y-53399047D01*
X175473333Y-53318571D02*
X175140000Y-53318571D01*
X175140000Y-53842380D02*
X175140000Y-52842380D01*
X175616190Y-52842380D01*
X175997142Y-53318571D02*
X176330476Y-53318571D01*
X176473333Y-53842380D02*
X175997142Y-53842380D01*
X175997142Y-52842380D01*
X176473333Y-52842380D01*
X176901904Y-53318571D02*
X177235238Y-53318571D01*
X177378095Y-53842380D02*
X176901904Y-53842380D01*
X176901904Y-52842380D01*
X177378095Y-52842380D01*
X177806666Y-53842380D02*
X177806666Y-52842380D01*
X178044761Y-52842380D01*
X178187619Y-52890000D01*
X178282857Y-52985238D01*
X178330476Y-53080476D01*
X178378095Y-53270952D01*
X178378095Y-53413809D01*
X178330476Y-53604285D01*
X178282857Y-53699523D01*
X178187619Y-53794761D01*
X178044761Y-53842380D01*
X177806666Y-53842380D01*
X179140000Y-53318571D02*
X179282857Y-53366190D01*
X179330476Y-53413809D01*
X179378095Y-53509047D01*
X179378095Y-53651904D01*
X179330476Y-53747142D01*
X179282857Y-53794761D01*
X179187619Y-53842380D01*
X178806666Y-53842380D01*
X178806666Y-52842380D01*
X179140000Y-52842380D01*
X179235238Y-52890000D01*
X179282857Y-52937619D01*
X179330476Y-53032857D01*
X179330476Y-53128095D01*
X179282857Y-53223333D01*
X179235238Y-53270952D01*
X179140000Y-53318571D01*
X178806666Y-53318571D01*
X179759047Y-53556666D02*
X180235238Y-53556666D01*
X179663809Y-53842380D02*
X179997142Y-52842380D01*
X180330476Y-53842380D01*
X181235238Y-53747142D02*
X181187619Y-53794761D01*
X181044761Y-53842380D01*
X180949523Y-53842380D01*
X180806666Y-53794761D01*
X180711428Y-53699523D01*
X180663809Y-53604285D01*
X180616190Y-53413809D01*
X180616190Y-53270952D01*
X180663809Y-53080476D01*
X180711428Y-52985238D01*
X180806666Y-52890000D01*
X180949523Y-52842380D01*
X181044761Y-52842380D01*
X181187619Y-52890000D01*
X181235238Y-52937619D01*
X181663809Y-53842380D02*
X181663809Y-52842380D01*
X182235238Y-53842380D02*
X181806666Y-53270952D01*
X182235238Y-52842380D02*
X181663809Y-53413809D01*
X182568571Y-52842380D02*
X183187619Y-52842380D01*
X182854285Y-53223333D01*
X182997142Y-53223333D01*
X183092380Y-53270952D01*
X183140000Y-53318571D01*
X183187619Y-53413809D01*
X183187619Y-53651904D01*
X183140000Y-53747142D01*
X183092380Y-53794761D01*
X182997142Y-53842380D01*
X182711428Y-53842380D01*
X182616190Y-53794761D01*
X182568571Y-53747142D01*
X133413333Y-53198571D02*
X133080000Y-53198571D01*
X133080000Y-53722380D02*
X133080000Y-52722380D01*
X133556190Y-52722380D01*
X133937142Y-53198571D02*
X134270476Y-53198571D01*
X134413333Y-53722380D02*
X133937142Y-53722380D01*
X133937142Y-52722380D01*
X134413333Y-52722380D01*
X134841904Y-53198571D02*
X135175238Y-53198571D01*
X135318095Y-53722380D02*
X134841904Y-53722380D01*
X134841904Y-52722380D01*
X135318095Y-52722380D01*
X135746666Y-53722380D02*
X135746666Y-52722380D01*
X135984761Y-52722380D01*
X136127619Y-52770000D01*
X136222857Y-52865238D01*
X136270476Y-52960476D01*
X136318095Y-53150952D01*
X136318095Y-53293809D01*
X136270476Y-53484285D01*
X136222857Y-53579523D01*
X136127619Y-53674761D01*
X135984761Y-53722380D01*
X135746666Y-53722380D01*
X137080000Y-53198571D02*
X137222857Y-53246190D01*
X137270476Y-53293809D01*
X137318095Y-53389047D01*
X137318095Y-53531904D01*
X137270476Y-53627142D01*
X137222857Y-53674761D01*
X137127619Y-53722380D01*
X136746666Y-53722380D01*
X136746666Y-52722380D01*
X137080000Y-52722380D01*
X137175238Y-52770000D01*
X137222857Y-52817619D01*
X137270476Y-52912857D01*
X137270476Y-53008095D01*
X137222857Y-53103333D01*
X137175238Y-53150952D01*
X137080000Y-53198571D01*
X136746666Y-53198571D01*
X137699047Y-53436666D02*
X138175238Y-53436666D01*
X137603809Y-53722380D02*
X137937142Y-52722380D01*
X138270476Y-53722380D01*
X139175238Y-53627142D02*
X139127619Y-53674761D01*
X138984761Y-53722380D01*
X138889523Y-53722380D01*
X138746666Y-53674761D01*
X138651428Y-53579523D01*
X138603809Y-53484285D01*
X138556190Y-53293809D01*
X138556190Y-53150952D01*
X138603809Y-52960476D01*
X138651428Y-52865238D01*
X138746666Y-52770000D01*
X138889523Y-52722380D01*
X138984761Y-52722380D01*
X139127619Y-52770000D01*
X139175238Y-52817619D01*
X139603809Y-53722380D02*
X139603809Y-52722380D01*
X140175238Y-53722380D02*
X139746666Y-53150952D01*
X140175238Y-52722380D02*
X139603809Y-53293809D01*
X140556190Y-52817619D02*
X140603809Y-52770000D01*
X140699047Y-52722380D01*
X140937142Y-52722380D01*
X141032380Y-52770000D01*
X141080000Y-52817619D01*
X141127619Y-52912857D01*
X141127619Y-53008095D01*
X141080000Y-53150952D01*
X140508571Y-53722380D01*
X141127619Y-53722380D01*
X91933333Y-53198571D02*
X91600000Y-53198571D01*
X91600000Y-53722380D02*
X91600000Y-52722380D01*
X92076190Y-52722380D01*
X92457142Y-53198571D02*
X92790476Y-53198571D01*
X92933333Y-53722380D02*
X92457142Y-53722380D01*
X92457142Y-52722380D01*
X92933333Y-52722380D01*
X93361904Y-53198571D02*
X93695238Y-53198571D01*
X93838095Y-53722380D02*
X93361904Y-53722380D01*
X93361904Y-52722380D01*
X93838095Y-52722380D01*
X94266666Y-53722380D02*
X94266666Y-52722380D01*
X94504761Y-52722380D01*
X94647619Y-52770000D01*
X94742857Y-52865238D01*
X94790476Y-52960476D01*
X94838095Y-53150952D01*
X94838095Y-53293809D01*
X94790476Y-53484285D01*
X94742857Y-53579523D01*
X94647619Y-53674761D01*
X94504761Y-53722380D01*
X94266666Y-53722380D01*
X95600000Y-53198571D02*
X95742857Y-53246190D01*
X95790476Y-53293809D01*
X95838095Y-53389047D01*
X95838095Y-53531904D01*
X95790476Y-53627142D01*
X95742857Y-53674761D01*
X95647619Y-53722380D01*
X95266666Y-53722380D01*
X95266666Y-52722380D01*
X95600000Y-52722380D01*
X95695238Y-52770000D01*
X95742857Y-52817619D01*
X95790476Y-52912857D01*
X95790476Y-53008095D01*
X95742857Y-53103333D01*
X95695238Y-53150952D01*
X95600000Y-53198571D01*
X95266666Y-53198571D01*
X96219047Y-53436666D02*
X96695238Y-53436666D01*
X96123809Y-53722380D02*
X96457142Y-52722380D01*
X96790476Y-53722380D01*
X97695238Y-53627142D02*
X97647619Y-53674761D01*
X97504761Y-53722380D01*
X97409523Y-53722380D01*
X97266666Y-53674761D01*
X97171428Y-53579523D01*
X97123809Y-53484285D01*
X97076190Y-53293809D01*
X97076190Y-53150952D01*
X97123809Y-52960476D01*
X97171428Y-52865238D01*
X97266666Y-52770000D01*
X97409523Y-52722380D01*
X97504761Y-52722380D01*
X97647619Y-52770000D01*
X97695238Y-52817619D01*
X98123809Y-53722380D02*
X98123809Y-52722380D01*
X98695238Y-53722380D02*
X98266666Y-53150952D01*
X98695238Y-52722380D02*
X98123809Y-53293809D01*
X99647619Y-53722380D02*
X99076190Y-53722380D01*
X99361904Y-53722380D02*
X99361904Y-52722380D01*
X99266666Y-52865238D01*
X99171428Y-52960476D01*
X99076190Y-53008095D01*
X218220952Y-78267142D02*
X218173333Y-78314761D01*
X218030476Y-78362380D01*
X217935238Y-78362380D01*
X217792380Y-78314761D01*
X217697142Y-78219523D01*
X217649523Y-78124285D01*
X217601904Y-77933809D01*
X217601904Y-77790952D01*
X217649523Y-77600476D01*
X217697142Y-77505238D01*
X217792380Y-77410000D01*
X217935238Y-77362380D01*
X218030476Y-77362380D01*
X218173333Y-77410000D01*
X218220952Y-77457619D01*
X218506666Y-77362380D02*
X218840000Y-78362380D01*
X219173333Y-77362380D01*
X219268571Y-78457619D02*
X220030476Y-78457619D01*
X220744761Y-78362380D02*
X220268571Y-78362380D01*
X220268571Y-77362380D01*
X221078095Y-77838571D02*
X221411428Y-77838571D01*
X221554285Y-78362380D02*
X221078095Y-78362380D01*
X221078095Y-77362380D01*
X221554285Y-77362380D01*
X221840000Y-77362380D02*
X222173333Y-78362380D01*
X222506666Y-77362380D01*
X222840000Y-77838571D02*
X223173333Y-77838571D01*
X223316190Y-78362380D02*
X222840000Y-78362380D01*
X222840000Y-77362380D01*
X223316190Y-77362380D01*
X224220952Y-78362380D02*
X223744761Y-78362380D01*
X223744761Y-77362380D01*
X224982857Y-77695714D02*
X224982857Y-78362380D01*
X224744761Y-77314761D02*
X224506666Y-78029047D01*
X225125714Y-78029047D01*
X176150952Y-77847142D02*
X176103333Y-77894761D01*
X175960476Y-77942380D01*
X175865238Y-77942380D01*
X175722380Y-77894761D01*
X175627142Y-77799523D01*
X175579523Y-77704285D01*
X175531904Y-77513809D01*
X175531904Y-77370952D01*
X175579523Y-77180476D01*
X175627142Y-77085238D01*
X175722380Y-76990000D01*
X175865238Y-76942380D01*
X175960476Y-76942380D01*
X176103333Y-76990000D01*
X176150952Y-77037619D01*
X176436666Y-76942380D02*
X176770000Y-77942380D01*
X177103333Y-76942380D01*
X177198571Y-78037619D02*
X177960476Y-78037619D01*
X178674761Y-77942380D02*
X178198571Y-77942380D01*
X178198571Y-76942380D01*
X179008095Y-77418571D02*
X179341428Y-77418571D01*
X179484285Y-77942380D02*
X179008095Y-77942380D01*
X179008095Y-76942380D01*
X179484285Y-76942380D01*
X179770000Y-76942380D02*
X180103333Y-77942380D01*
X180436666Y-76942380D01*
X180770000Y-77418571D02*
X181103333Y-77418571D01*
X181246190Y-77942380D02*
X180770000Y-77942380D01*
X180770000Y-76942380D01*
X181246190Y-76942380D01*
X182150952Y-77942380D02*
X181674761Y-77942380D01*
X181674761Y-76942380D01*
X182389047Y-76942380D02*
X183008095Y-76942380D01*
X182674761Y-77323333D01*
X182817619Y-77323333D01*
X182912857Y-77370952D01*
X182960476Y-77418571D01*
X183008095Y-77513809D01*
X183008095Y-77751904D01*
X182960476Y-77847142D01*
X182912857Y-77894761D01*
X182817619Y-77942380D01*
X182531904Y-77942380D01*
X182436666Y-77894761D01*
X182389047Y-77847142D01*
X134170952Y-77767142D02*
X134123333Y-77814761D01*
X133980476Y-77862380D01*
X133885238Y-77862380D01*
X133742380Y-77814761D01*
X133647142Y-77719523D01*
X133599523Y-77624285D01*
X133551904Y-77433809D01*
X133551904Y-77290952D01*
X133599523Y-77100476D01*
X133647142Y-77005238D01*
X133742380Y-76910000D01*
X133885238Y-76862380D01*
X133980476Y-76862380D01*
X134123333Y-76910000D01*
X134170952Y-76957619D01*
X134456666Y-76862380D02*
X134790000Y-77862380D01*
X135123333Y-76862380D01*
X135218571Y-77957619D02*
X135980476Y-77957619D01*
X136694761Y-77862380D02*
X136218571Y-77862380D01*
X136218571Y-76862380D01*
X137028095Y-77338571D02*
X137361428Y-77338571D01*
X137504285Y-77862380D02*
X137028095Y-77862380D01*
X137028095Y-76862380D01*
X137504285Y-76862380D01*
X137790000Y-76862380D02*
X138123333Y-77862380D01*
X138456666Y-76862380D01*
X138790000Y-77338571D02*
X139123333Y-77338571D01*
X139266190Y-77862380D02*
X138790000Y-77862380D01*
X138790000Y-76862380D01*
X139266190Y-76862380D01*
X140170952Y-77862380D02*
X139694761Y-77862380D01*
X139694761Y-76862380D01*
X140456666Y-76957619D02*
X140504285Y-76910000D01*
X140599523Y-76862380D01*
X140837619Y-76862380D01*
X140932857Y-76910000D01*
X140980476Y-76957619D01*
X141028095Y-77052857D01*
X141028095Y-77148095D01*
X140980476Y-77290952D01*
X140409047Y-77862380D01*
X141028095Y-77862380D01*
X91070952Y-77827142D02*
X91023333Y-77874761D01*
X90880476Y-77922380D01*
X90785238Y-77922380D01*
X90642380Y-77874761D01*
X90547142Y-77779523D01*
X90499523Y-77684285D01*
X90451904Y-77493809D01*
X90451904Y-77350952D01*
X90499523Y-77160476D01*
X90547142Y-77065238D01*
X90642380Y-76970000D01*
X90785238Y-76922380D01*
X90880476Y-76922380D01*
X91023333Y-76970000D01*
X91070952Y-77017619D01*
X91356666Y-76922380D02*
X91690000Y-77922380D01*
X92023333Y-76922380D01*
X92118571Y-78017619D02*
X92880476Y-78017619D01*
X93594761Y-77922380D02*
X93118571Y-77922380D01*
X93118571Y-76922380D01*
X93928095Y-77398571D02*
X94261428Y-77398571D01*
X94404285Y-77922380D02*
X93928095Y-77922380D01*
X93928095Y-76922380D01*
X94404285Y-76922380D01*
X94690000Y-76922380D02*
X95023333Y-77922380D01*
X95356666Y-76922380D01*
X95690000Y-77398571D02*
X96023333Y-77398571D01*
X96166190Y-77922380D02*
X95690000Y-77922380D01*
X95690000Y-76922380D01*
X96166190Y-76922380D01*
X97070952Y-77922380D02*
X96594761Y-77922380D01*
X96594761Y-76922380D01*
X97928095Y-77922380D02*
X97356666Y-77922380D01*
X97642380Y-77922380D02*
X97642380Y-76922380D01*
X97547142Y-77065238D01*
X97451904Y-77160476D01*
X97356666Y-77208095D01*
X209247142Y-141182380D02*
X209247142Y-141896666D01*
X209199523Y-142039523D01*
X209104285Y-142134761D01*
X208961428Y-142182380D01*
X208866190Y-142182380D01*
X209485238Y-142277619D02*
X210247142Y-142277619D01*
X210675714Y-141182380D02*
X210866190Y-141182380D01*
X210961428Y-141230000D01*
X211056666Y-141325238D01*
X211104285Y-141515714D01*
X211104285Y-141849047D01*
X211056666Y-142039523D01*
X210961428Y-142134761D01*
X210866190Y-142182380D01*
X210675714Y-142182380D01*
X210580476Y-142134761D01*
X210485238Y-142039523D01*
X210437619Y-141849047D01*
X210437619Y-141515714D01*
X210485238Y-141325238D01*
X210580476Y-141230000D01*
X210675714Y-141182380D01*
X211532857Y-141182380D02*
X211532857Y-141991904D01*
X211580476Y-142087142D01*
X211628095Y-142134761D01*
X211723333Y-142182380D01*
X211913809Y-142182380D01*
X212009047Y-142134761D01*
X212056666Y-142087142D01*
X212104285Y-141991904D01*
X212104285Y-141182380D01*
X212437619Y-141182380D02*
X213009047Y-141182380D01*
X212723333Y-142182380D02*
X212723333Y-141182380D01*
X213770952Y-141515714D02*
X213770952Y-142182380D01*
X213532857Y-141134761D02*
X213294761Y-141849047D01*
X213913809Y-141849047D01*
X167317142Y-141012380D02*
X167317142Y-141726666D01*
X167269523Y-141869523D01*
X167174285Y-141964761D01*
X167031428Y-142012380D01*
X166936190Y-142012380D01*
X167555238Y-142107619D02*
X168317142Y-142107619D01*
X168745714Y-141012380D02*
X168936190Y-141012380D01*
X169031428Y-141060000D01*
X169126666Y-141155238D01*
X169174285Y-141345714D01*
X169174285Y-141679047D01*
X169126666Y-141869523D01*
X169031428Y-141964761D01*
X168936190Y-142012380D01*
X168745714Y-142012380D01*
X168650476Y-141964761D01*
X168555238Y-141869523D01*
X168507619Y-141679047D01*
X168507619Y-141345714D01*
X168555238Y-141155238D01*
X168650476Y-141060000D01*
X168745714Y-141012380D01*
X169602857Y-141012380D02*
X169602857Y-141821904D01*
X169650476Y-141917142D01*
X169698095Y-141964761D01*
X169793333Y-142012380D01*
X169983809Y-142012380D01*
X170079047Y-141964761D01*
X170126666Y-141917142D01*
X170174285Y-141821904D01*
X170174285Y-141012380D01*
X170507619Y-141012380D02*
X171079047Y-141012380D01*
X170793333Y-142012380D02*
X170793333Y-141012380D01*
X171317142Y-141012380D02*
X171936190Y-141012380D01*
X171602857Y-141393333D01*
X171745714Y-141393333D01*
X171840952Y-141440952D01*
X171888571Y-141488571D01*
X171936190Y-141583809D01*
X171936190Y-141821904D01*
X171888571Y-141917142D01*
X171840952Y-141964761D01*
X171745714Y-142012380D01*
X171460000Y-142012380D01*
X171364761Y-141964761D01*
X171317142Y-141917142D01*
X125517142Y-141082380D02*
X125517142Y-141796666D01*
X125469523Y-141939523D01*
X125374285Y-142034761D01*
X125231428Y-142082380D01*
X125136190Y-142082380D01*
X125755238Y-142177619D02*
X126517142Y-142177619D01*
X126945714Y-141082380D02*
X127136190Y-141082380D01*
X127231428Y-141130000D01*
X127326666Y-141225238D01*
X127374285Y-141415714D01*
X127374285Y-141749047D01*
X127326666Y-141939523D01*
X127231428Y-142034761D01*
X127136190Y-142082380D01*
X126945714Y-142082380D01*
X126850476Y-142034761D01*
X126755238Y-141939523D01*
X126707619Y-141749047D01*
X126707619Y-141415714D01*
X126755238Y-141225238D01*
X126850476Y-141130000D01*
X126945714Y-141082380D01*
X127802857Y-141082380D02*
X127802857Y-141891904D01*
X127850476Y-141987142D01*
X127898095Y-142034761D01*
X127993333Y-142082380D01*
X128183809Y-142082380D01*
X128279047Y-142034761D01*
X128326666Y-141987142D01*
X128374285Y-141891904D01*
X128374285Y-141082380D01*
X128707619Y-141082380D02*
X129279047Y-141082380D01*
X128993333Y-142082380D02*
X128993333Y-141082380D01*
X129564761Y-141177619D02*
X129612380Y-141130000D01*
X129707619Y-141082380D01*
X129945714Y-141082380D01*
X130040952Y-141130000D01*
X130088571Y-141177619D01*
X130136190Y-141272857D01*
X130136190Y-141368095D01*
X130088571Y-141510952D01*
X129517142Y-142082380D01*
X130136190Y-142082380D01*
X83247142Y-140882380D02*
X83247142Y-141596666D01*
X83199523Y-141739523D01*
X83104285Y-141834761D01*
X82961428Y-141882380D01*
X82866190Y-141882380D01*
X83485238Y-141977619D02*
X84247142Y-141977619D01*
X84675714Y-140882380D02*
X84866190Y-140882380D01*
X84961428Y-140930000D01*
X85056666Y-141025238D01*
X85104285Y-141215714D01*
X85104285Y-141549047D01*
X85056666Y-141739523D01*
X84961428Y-141834761D01*
X84866190Y-141882380D01*
X84675714Y-141882380D01*
X84580476Y-141834761D01*
X84485238Y-141739523D01*
X84437619Y-141549047D01*
X84437619Y-141215714D01*
X84485238Y-141025238D01*
X84580476Y-140930000D01*
X84675714Y-140882380D01*
X85532857Y-140882380D02*
X85532857Y-141691904D01*
X85580476Y-141787142D01*
X85628095Y-141834761D01*
X85723333Y-141882380D01*
X85913809Y-141882380D01*
X86009047Y-141834761D01*
X86056666Y-141787142D01*
X86104285Y-141691904D01*
X86104285Y-140882380D01*
X86437619Y-140882380D02*
X87009047Y-140882380D01*
X86723333Y-141882380D02*
X86723333Y-140882380D01*
X87866190Y-141882380D02*
X87294761Y-141882380D01*
X87580476Y-141882380D02*
X87580476Y-140882380D01*
X87485238Y-141025238D01*
X87390000Y-141120476D01*
X87294761Y-141168095D01*
X209763809Y-120872380D02*
X209763809Y-121586666D01*
X209716190Y-121729523D01*
X209620952Y-121824761D01*
X209478095Y-121872380D01*
X209382857Y-121872380D01*
X210001904Y-121967619D02*
X210763809Y-121967619D01*
X211001904Y-121872380D02*
X211001904Y-120872380D01*
X211478095Y-121872380D02*
X211478095Y-120872380D01*
X212049523Y-121872380D01*
X212049523Y-120872380D01*
X212954285Y-121205714D02*
X212954285Y-121872380D01*
X212716190Y-120824761D02*
X212478095Y-121539047D01*
X213097142Y-121539047D01*
X167653809Y-121142380D02*
X167653809Y-121856666D01*
X167606190Y-121999523D01*
X167510952Y-122094761D01*
X167368095Y-122142380D01*
X167272857Y-122142380D01*
X167891904Y-122237619D02*
X168653809Y-122237619D01*
X168891904Y-122142380D02*
X168891904Y-121142380D01*
X169368095Y-122142380D02*
X169368095Y-121142380D01*
X169939523Y-122142380D01*
X169939523Y-121142380D01*
X170320476Y-121142380D02*
X170939523Y-121142380D01*
X170606190Y-121523333D01*
X170749047Y-121523333D01*
X170844285Y-121570952D01*
X170891904Y-121618571D01*
X170939523Y-121713809D01*
X170939523Y-121951904D01*
X170891904Y-122047142D01*
X170844285Y-122094761D01*
X170749047Y-122142380D01*
X170463333Y-122142380D01*
X170368095Y-122094761D01*
X170320476Y-122047142D01*
X125893809Y-120942380D02*
X125893809Y-121656666D01*
X125846190Y-121799523D01*
X125750952Y-121894761D01*
X125608095Y-121942380D01*
X125512857Y-121942380D01*
X126131904Y-122037619D02*
X126893809Y-122037619D01*
X127131904Y-121942380D02*
X127131904Y-120942380D01*
X127608095Y-121942380D02*
X127608095Y-120942380D01*
X128179523Y-121942380D01*
X128179523Y-120942380D01*
X128608095Y-121037619D02*
X128655714Y-120990000D01*
X128750952Y-120942380D01*
X128989047Y-120942380D01*
X129084285Y-120990000D01*
X129131904Y-121037619D01*
X129179523Y-121132857D01*
X129179523Y-121228095D01*
X129131904Y-121370952D01*
X128560476Y-121942380D01*
X129179523Y-121942380D01*
X82263809Y-120892380D02*
X82263809Y-121606666D01*
X82216190Y-121749523D01*
X82120952Y-121844761D01*
X81978095Y-121892380D01*
X81882857Y-121892380D01*
X82501904Y-121987619D02*
X83263809Y-121987619D01*
X83501904Y-121892380D02*
X83501904Y-120892380D01*
X83978095Y-121892380D02*
X83978095Y-120892380D01*
X84549523Y-121892380D01*
X84549523Y-120892380D01*
X85549523Y-121892380D02*
X84978095Y-121892380D01*
X85263809Y-121892380D02*
X85263809Y-120892380D01*
X85168571Y-121035238D01*
X85073333Y-121130476D01*
X84978095Y-121178095D01*
X208834285Y-131062380D02*
X208834285Y-131776666D01*
X208786666Y-131919523D01*
X208691428Y-132014761D01*
X208548571Y-132062380D01*
X208453333Y-132062380D01*
X209072380Y-132157619D02*
X209834285Y-132157619D01*
X210643809Y-131967142D02*
X210596190Y-132014761D01*
X210453333Y-132062380D01*
X210358095Y-132062380D01*
X210215238Y-132014761D01*
X210120000Y-131919523D01*
X210072380Y-131824285D01*
X210024761Y-131633809D01*
X210024761Y-131490952D01*
X210072380Y-131300476D01*
X210120000Y-131205238D01*
X210215238Y-131110000D01*
X210358095Y-131062380D01*
X210453333Y-131062380D01*
X210596190Y-131110000D01*
X210643809Y-131157619D01*
X210929523Y-131062380D02*
X211262857Y-132062380D01*
X211596190Y-131062380D01*
X211691428Y-132157619D02*
X212453333Y-132157619D01*
X212691428Y-132062380D02*
X212691428Y-131062380D01*
X213167619Y-132062380D02*
X213167619Y-131062380D01*
X213739047Y-132062380D01*
X213739047Y-131062380D01*
X214643809Y-131395714D02*
X214643809Y-132062380D01*
X214405714Y-131014761D02*
X214167619Y-131729047D01*
X214786666Y-131729047D01*
X166564285Y-130932380D02*
X166564285Y-131646666D01*
X166516666Y-131789523D01*
X166421428Y-131884761D01*
X166278571Y-131932380D01*
X166183333Y-131932380D01*
X166802380Y-132027619D02*
X167564285Y-132027619D01*
X168373809Y-131837142D02*
X168326190Y-131884761D01*
X168183333Y-131932380D01*
X168088095Y-131932380D01*
X167945238Y-131884761D01*
X167850000Y-131789523D01*
X167802380Y-131694285D01*
X167754761Y-131503809D01*
X167754761Y-131360952D01*
X167802380Y-131170476D01*
X167850000Y-131075238D01*
X167945238Y-130980000D01*
X168088095Y-130932380D01*
X168183333Y-130932380D01*
X168326190Y-130980000D01*
X168373809Y-131027619D01*
X168659523Y-130932380D02*
X168992857Y-131932380D01*
X169326190Y-130932380D01*
X169421428Y-132027619D02*
X170183333Y-132027619D01*
X170421428Y-131932380D02*
X170421428Y-130932380D01*
X170897619Y-131932380D02*
X170897619Y-130932380D01*
X171469047Y-131932380D01*
X171469047Y-130932380D01*
X171850000Y-130932380D02*
X172469047Y-130932380D01*
X172135714Y-131313333D01*
X172278571Y-131313333D01*
X172373809Y-131360952D01*
X172421428Y-131408571D01*
X172469047Y-131503809D01*
X172469047Y-131741904D01*
X172421428Y-131837142D01*
X172373809Y-131884761D01*
X172278571Y-131932380D01*
X171992857Y-131932380D01*
X171897619Y-131884761D01*
X171850000Y-131837142D01*
X124774285Y-131182380D02*
X124774285Y-131896666D01*
X124726666Y-132039523D01*
X124631428Y-132134761D01*
X124488571Y-132182380D01*
X124393333Y-132182380D01*
X125012380Y-132277619D02*
X125774285Y-132277619D01*
X126583809Y-132087142D02*
X126536190Y-132134761D01*
X126393333Y-132182380D01*
X126298095Y-132182380D01*
X126155238Y-132134761D01*
X126060000Y-132039523D01*
X126012380Y-131944285D01*
X125964761Y-131753809D01*
X125964761Y-131610952D01*
X126012380Y-131420476D01*
X126060000Y-131325238D01*
X126155238Y-131230000D01*
X126298095Y-131182380D01*
X126393333Y-131182380D01*
X126536190Y-131230000D01*
X126583809Y-131277619D01*
X126869523Y-131182380D02*
X127202857Y-132182380D01*
X127536190Y-131182380D01*
X127631428Y-132277619D02*
X128393333Y-132277619D01*
X128631428Y-132182380D02*
X128631428Y-131182380D01*
X129107619Y-132182380D02*
X129107619Y-131182380D01*
X129679047Y-132182380D01*
X129679047Y-131182380D01*
X130107619Y-131277619D02*
X130155238Y-131230000D01*
X130250476Y-131182380D01*
X130488571Y-131182380D01*
X130583809Y-131230000D01*
X130631428Y-131277619D01*
X130679047Y-131372857D01*
X130679047Y-131468095D01*
X130631428Y-131610952D01*
X130060000Y-132182380D01*
X130679047Y-132182380D01*
X83734285Y-131112380D02*
X83734285Y-131826666D01*
X83686666Y-131969523D01*
X83591428Y-132064761D01*
X83448571Y-132112380D01*
X83353333Y-132112380D01*
X83972380Y-132207619D02*
X84734285Y-132207619D01*
X85543809Y-132017142D02*
X85496190Y-132064761D01*
X85353333Y-132112380D01*
X85258095Y-132112380D01*
X85115238Y-132064761D01*
X85020000Y-131969523D01*
X84972380Y-131874285D01*
X84924761Y-131683809D01*
X84924761Y-131540952D01*
X84972380Y-131350476D01*
X85020000Y-131255238D01*
X85115238Y-131160000D01*
X85258095Y-131112380D01*
X85353333Y-131112380D01*
X85496190Y-131160000D01*
X85543809Y-131207619D01*
X85829523Y-131112380D02*
X86162857Y-132112380D01*
X86496190Y-131112380D01*
X86591428Y-132207619D02*
X87353333Y-132207619D01*
X87591428Y-132112380D02*
X87591428Y-131112380D01*
X88067619Y-132112380D02*
X88067619Y-131112380D01*
X88639047Y-132112380D01*
X88639047Y-131112380D01*
X89639047Y-132112380D02*
X89067619Y-132112380D01*
X89353333Y-132112380D02*
X89353333Y-131112380D01*
X89258095Y-131255238D01*
X89162857Y-131350476D01*
X89067619Y-131398095D01*
X217225714Y-66072380D02*
X217225714Y-65072380D01*
X217463809Y-65072380D01*
X217606666Y-65120000D01*
X217701904Y-65215238D01*
X217749523Y-65310476D01*
X217797142Y-65500952D01*
X217797142Y-65643809D01*
X217749523Y-65834285D01*
X217701904Y-65929523D01*
X217606666Y-66024761D01*
X217463809Y-66072380D01*
X217225714Y-66072380D01*
X218749523Y-66072380D02*
X218178095Y-66072380D01*
X218463809Y-66072380D02*
X218463809Y-65072380D01*
X218368571Y-65215238D01*
X218273333Y-65310476D01*
X218178095Y-65358095D01*
X219606666Y-65072380D02*
X219416190Y-65072380D01*
X219320952Y-65120000D01*
X219273333Y-65167619D01*
X219178095Y-65310476D01*
X219130476Y-65500952D01*
X219130476Y-65881904D01*
X219178095Y-65977142D01*
X219225714Y-66024761D01*
X219320952Y-66072380D01*
X219511428Y-66072380D01*
X219606666Y-66024761D01*
X219654285Y-65977142D01*
X219701904Y-65881904D01*
X219701904Y-65643809D01*
X219654285Y-65548571D01*
X219606666Y-65500952D01*
X219511428Y-65453333D01*
X219320952Y-65453333D01*
X219225714Y-65500952D01*
X219178095Y-65548571D01*
X219130476Y-65643809D01*
X201305714Y-65952380D02*
X201305714Y-64952380D01*
X201543809Y-64952380D01*
X201686666Y-65000000D01*
X201781904Y-65095238D01*
X201829523Y-65190476D01*
X201877142Y-65380952D01*
X201877142Y-65523809D01*
X201829523Y-65714285D01*
X201781904Y-65809523D01*
X201686666Y-65904761D01*
X201543809Y-65952380D01*
X201305714Y-65952380D01*
X202829523Y-65952380D02*
X202258095Y-65952380D01*
X202543809Y-65952380D02*
X202543809Y-64952380D01*
X202448571Y-65095238D01*
X202353333Y-65190476D01*
X202258095Y-65238095D01*
X203734285Y-64952380D02*
X203258095Y-64952380D01*
X203210476Y-65428571D01*
X203258095Y-65380952D01*
X203353333Y-65333333D01*
X203591428Y-65333333D01*
X203686666Y-65380952D01*
X203734285Y-65428571D01*
X203781904Y-65523809D01*
X203781904Y-65761904D01*
X203734285Y-65857142D01*
X203686666Y-65904761D01*
X203591428Y-65952380D01*
X203353333Y-65952380D01*
X203258095Y-65904761D01*
X203210476Y-65857142D01*
X175315714Y-66072380D02*
X175315714Y-65072380D01*
X175553809Y-65072380D01*
X175696666Y-65120000D01*
X175791904Y-65215238D01*
X175839523Y-65310476D01*
X175887142Y-65500952D01*
X175887142Y-65643809D01*
X175839523Y-65834285D01*
X175791904Y-65929523D01*
X175696666Y-66024761D01*
X175553809Y-66072380D01*
X175315714Y-66072380D01*
X176839523Y-66072380D02*
X176268095Y-66072380D01*
X176553809Y-66072380D02*
X176553809Y-65072380D01*
X176458571Y-65215238D01*
X176363333Y-65310476D01*
X176268095Y-65358095D01*
X177220476Y-65167619D02*
X177268095Y-65120000D01*
X177363333Y-65072380D01*
X177601428Y-65072380D01*
X177696666Y-65120000D01*
X177744285Y-65167619D01*
X177791904Y-65262857D01*
X177791904Y-65358095D01*
X177744285Y-65500952D01*
X177172857Y-66072380D01*
X177791904Y-66072380D01*
X158805714Y-66072380D02*
X158805714Y-65072380D01*
X159043809Y-65072380D01*
X159186666Y-65120000D01*
X159281904Y-65215238D01*
X159329523Y-65310476D01*
X159377142Y-65500952D01*
X159377142Y-65643809D01*
X159329523Y-65834285D01*
X159281904Y-65929523D01*
X159186666Y-66024761D01*
X159043809Y-66072380D01*
X158805714Y-66072380D01*
X160329523Y-66072380D02*
X159758095Y-66072380D01*
X160043809Y-66072380D02*
X160043809Y-65072380D01*
X159948571Y-65215238D01*
X159853333Y-65310476D01*
X159758095Y-65358095D01*
X161281904Y-66072380D02*
X160710476Y-66072380D01*
X160996190Y-66072380D02*
X160996190Y-65072380D01*
X160900952Y-65215238D01*
X160805714Y-65310476D01*
X160710476Y-65358095D01*
X133881904Y-66072380D02*
X133881904Y-65072380D01*
X134120000Y-65072380D01*
X134262857Y-65120000D01*
X134358095Y-65215238D01*
X134405714Y-65310476D01*
X134453333Y-65500952D01*
X134453333Y-65643809D01*
X134405714Y-65834285D01*
X134358095Y-65929523D01*
X134262857Y-66024761D01*
X134120000Y-66072380D01*
X133881904Y-66072380D01*
X135024761Y-65500952D02*
X134929523Y-65453333D01*
X134881904Y-65405714D01*
X134834285Y-65310476D01*
X134834285Y-65262857D01*
X134881904Y-65167619D01*
X134929523Y-65120000D01*
X135024761Y-65072380D01*
X135215238Y-65072380D01*
X135310476Y-65120000D01*
X135358095Y-65167619D01*
X135405714Y-65262857D01*
X135405714Y-65310476D01*
X135358095Y-65405714D01*
X135310476Y-65453333D01*
X135215238Y-65500952D01*
X135024761Y-65500952D01*
X134929523Y-65548571D01*
X134881904Y-65596190D01*
X134834285Y-65691428D01*
X134834285Y-65881904D01*
X134881904Y-65977142D01*
X134929523Y-66024761D01*
X135024761Y-66072380D01*
X135215238Y-66072380D01*
X135310476Y-66024761D01*
X135358095Y-65977142D01*
X135405714Y-65881904D01*
X135405714Y-65691428D01*
X135358095Y-65596190D01*
X135310476Y-65548571D01*
X135215238Y-65500952D01*
X117371904Y-66072380D02*
X117371904Y-65072380D01*
X117610000Y-65072380D01*
X117752857Y-65120000D01*
X117848095Y-65215238D01*
X117895714Y-65310476D01*
X117943333Y-65500952D01*
X117943333Y-65643809D01*
X117895714Y-65834285D01*
X117848095Y-65929523D01*
X117752857Y-66024761D01*
X117610000Y-66072380D01*
X117371904Y-66072380D01*
X118276666Y-65072380D02*
X118943333Y-65072380D01*
X118514761Y-66072380D01*
X93241904Y-66072380D02*
X93241904Y-65072380D01*
X93480000Y-65072380D01*
X93622857Y-65120000D01*
X93718095Y-65215238D01*
X93765714Y-65310476D01*
X93813333Y-65500952D01*
X93813333Y-65643809D01*
X93765714Y-65834285D01*
X93718095Y-65929523D01*
X93622857Y-66024761D01*
X93480000Y-66072380D01*
X93241904Y-66072380D01*
X94670476Y-65405714D02*
X94670476Y-66072380D01*
X94432380Y-65024761D02*
X94194285Y-65739047D01*
X94813333Y-65739047D01*
X75461904Y-66072380D02*
X75461904Y-65072380D01*
X75700000Y-65072380D01*
X75842857Y-65120000D01*
X75938095Y-65215238D01*
X75985714Y-65310476D01*
X76033333Y-65500952D01*
X76033333Y-65643809D01*
X75985714Y-65834285D01*
X75938095Y-65929523D01*
X75842857Y-66024761D01*
X75700000Y-66072380D01*
X75461904Y-66072380D01*
X76366666Y-65072380D02*
X76985714Y-65072380D01*
X76652380Y-65453333D01*
X76795238Y-65453333D01*
X76890476Y-65500952D01*
X76938095Y-65548571D01*
X76985714Y-65643809D01*
X76985714Y-65881904D01*
X76938095Y-65977142D01*
X76890476Y-66024761D01*
X76795238Y-66072380D01*
X76509523Y-66072380D01*
X76414285Y-66024761D01*
X76366666Y-65977142D01*
X227647142Y-71722857D02*
X227694761Y-71770476D01*
X227742380Y-71913333D01*
X227742380Y-72008571D01*
X227694761Y-72151428D01*
X227599523Y-72246666D01*
X227504285Y-72294285D01*
X227313809Y-72341904D01*
X227170952Y-72341904D01*
X226980476Y-72294285D01*
X226885238Y-72246666D01*
X226790000Y-72151428D01*
X226742380Y-72008571D01*
X226742380Y-71913333D01*
X226790000Y-71770476D01*
X226837619Y-71722857D01*
X227075714Y-70865714D02*
X227742380Y-70865714D01*
X226694761Y-71103809D02*
X227409047Y-71341904D01*
X227409047Y-70722857D01*
X226837619Y-70389523D02*
X226790000Y-70341904D01*
X226742380Y-70246666D01*
X226742380Y-70008571D01*
X226790000Y-69913333D01*
X226837619Y-69865714D01*
X226932857Y-69818095D01*
X227028095Y-69818095D01*
X227170952Y-69865714D01*
X227742380Y-70437142D01*
X227742380Y-69818095D01*
X198437142Y-71722857D02*
X198484761Y-71770476D01*
X198532380Y-71913333D01*
X198532380Y-72008571D01*
X198484761Y-72151428D01*
X198389523Y-72246666D01*
X198294285Y-72294285D01*
X198103809Y-72341904D01*
X197960952Y-72341904D01*
X197770476Y-72294285D01*
X197675238Y-72246666D01*
X197580000Y-72151428D01*
X197532380Y-72008571D01*
X197532380Y-71913333D01*
X197580000Y-71770476D01*
X197627619Y-71722857D01*
X197865714Y-70865714D02*
X198532380Y-70865714D01*
X197484761Y-71103809D02*
X198199047Y-71341904D01*
X198199047Y-70722857D01*
X198532380Y-69818095D02*
X198532380Y-70389523D01*
X198532380Y-70103809D02*
X197532380Y-70103809D01*
X197675238Y-70199047D01*
X197770476Y-70294285D01*
X197818095Y-70389523D01*
X185737142Y-71722857D02*
X185784761Y-71770476D01*
X185832380Y-71913333D01*
X185832380Y-72008571D01*
X185784761Y-72151428D01*
X185689523Y-72246666D01*
X185594285Y-72294285D01*
X185403809Y-72341904D01*
X185260952Y-72341904D01*
X185070476Y-72294285D01*
X184975238Y-72246666D01*
X184880000Y-72151428D01*
X184832380Y-72008571D01*
X184832380Y-71913333D01*
X184880000Y-71770476D01*
X184927619Y-71722857D01*
X184832380Y-71389523D02*
X184832380Y-70770476D01*
X185213333Y-71103809D01*
X185213333Y-70960952D01*
X185260952Y-70865714D01*
X185308571Y-70818095D01*
X185403809Y-70770476D01*
X185641904Y-70770476D01*
X185737142Y-70818095D01*
X185784761Y-70865714D01*
X185832380Y-70960952D01*
X185832380Y-71246666D01*
X185784761Y-71341904D01*
X185737142Y-71389523D01*
X184832380Y-70151428D02*
X184832380Y-70056190D01*
X184880000Y-69960952D01*
X184927619Y-69913333D01*
X185022857Y-69865714D01*
X185213333Y-69818095D01*
X185451428Y-69818095D01*
X185641904Y-69865714D01*
X185737142Y-69913333D01*
X185784761Y-69960952D01*
X185832380Y-70056190D01*
X185832380Y-70151428D01*
X185784761Y-70246666D01*
X185737142Y-70294285D01*
X185641904Y-70341904D01*
X185451428Y-70389523D01*
X185213333Y-70389523D01*
X185022857Y-70341904D01*
X184927619Y-70294285D01*
X184880000Y-70246666D01*
X184832380Y-70151428D01*
X156527142Y-71722857D02*
X156574761Y-71770476D01*
X156622380Y-71913333D01*
X156622380Y-72008571D01*
X156574761Y-72151428D01*
X156479523Y-72246666D01*
X156384285Y-72294285D01*
X156193809Y-72341904D01*
X156050952Y-72341904D01*
X155860476Y-72294285D01*
X155765238Y-72246666D01*
X155670000Y-72151428D01*
X155622380Y-72008571D01*
X155622380Y-71913333D01*
X155670000Y-71770476D01*
X155717619Y-71722857D01*
X155717619Y-71341904D02*
X155670000Y-71294285D01*
X155622380Y-71199047D01*
X155622380Y-70960952D01*
X155670000Y-70865714D01*
X155717619Y-70818095D01*
X155812857Y-70770476D01*
X155908095Y-70770476D01*
X156050952Y-70818095D01*
X156622380Y-71389523D01*
X156622380Y-70770476D01*
X156622380Y-70294285D02*
X156622380Y-70103809D01*
X156574761Y-70008571D01*
X156527142Y-69960952D01*
X156384285Y-69865714D01*
X156193809Y-69818095D01*
X155812857Y-69818095D01*
X155717619Y-69865714D01*
X155670000Y-69913333D01*
X155622380Y-70008571D01*
X155622380Y-70199047D01*
X155670000Y-70294285D01*
X155717619Y-70341904D01*
X155812857Y-70389523D01*
X156050952Y-70389523D01*
X156146190Y-70341904D01*
X156193809Y-70294285D01*
X156241428Y-70199047D01*
X156241428Y-70008571D01*
X156193809Y-69913333D01*
X156146190Y-69865714D01*
X156050952Y-69818095D01*
X143827142Y-71722857D02*
X143874761Y-71770476D01*
X143922380Y-71913333D01*
X143922380Y-72008571D01*
X143874761Y-72151428D01*
X143779523Y-72246666D01*
X143684285Y-72294285D01*
X143493809Y-72341904D01*
X143350952Y-72341904D01*
X143160476Y-72294285D01*
X143065238Y-72246666D01*
X142970000Y-72151428D01*
X142922380Y-72008571D01*
X142922380Y-71913333D01*
X142970000Y-71770476D01*
X143017619Y-71722857D01*
X143922380Y-70770476D02*
X143922380Y-71341904D01*
X143922380Y-71056190D02*
X142922380Y-71056190D01*
X143065238Y-71151428D01*
X143160476Y-71246666D01*
X143208095Y-71341904D01*
X143350952Y-70199047D02*
X143303333Y-70294285D01*
X143255714Y-70341904D01*
X143160476Y-70389523D01*
X143112857Y-70389523D01*
X143017619Y-70341904D01*
X142970000Y-70294285D01*
X142922380Y-70199047D01*
X142922380Y-70008571D01*
X142970000Y-69913333D01*
X143017619Y-69865714D01*
X143112857Y-69818095D01*
X143160476Y-69818095D01*
X143255714Y-69865714D01*
X143303333Y-69913333D01*
X143350952Y-70008571D01*
X143350952Y-70199047D01*
X143398571Y-70294285D01*
X143446190Y-70341904D01*
X143541428Y-70389523D01*
X143731904Y-70389523D01*
X143827142Y-70341904D01*
X143874761Y-70294285D01*
X143922380Y-70199047D01*
X143922380Y-70008571D01*
X143874761Y-69913333D01*
X143827142Y-69865714D01*
X143731904Y-69818095D01*
X143541428Y-69818095D01*
X143446190Y-69865714D01*
X143398571Y-69913333D01*
X143350952Y-70008571D01*
X114617142Y-71722857D02*
X114664761Y-71770476D01*
X114712380Y-71913333D01*
X114712380Y-72008571D01*
X114664761Y-72151428D01*
X114569523Y-72246666D01*
X114474285Y-72294285D01*
X114283809Y-72341904D01*
X114140952Y-72341904D01*
X113950476Y-72294285D01*
X113855238Y-72246666D01*
X113760000Y-72151428D01*
X113712380Y-72008571D01*
X113712380Y-71913333D01*
X113760000Y-71770476D01*
X113807619Y-71722857D01*
X114712380Y-70770476D02*
X114712380Y-71341904D01*
X114712380Y-71056190D02*
X113712380Y-71056190D01*
X113855238Y-71151428D01*
X113950476Y-71246666D01*
X113998095Y-71341904D01*
X113712380Y-70437142D02*
X113712380Y-69770476D01*
X114712380Y-70199047D01*
X98187142Y-71326666D02*
X98234761Y-71374285D01*
X98282380Y-71517142D01*
X98282380Y-71612380D01*
X98234761Y-71755238D01*
X98139523Y-71850476D01*
X98044285Y-71898095D01*
X97853809Y-71945714D01*
X97710952Y-71945714D01*
X97520476Y-71898095D01*
X97425238Y-71850476D01*
X97330000Y-71755238D01*
X97282380Y-71612380D01*
X97282380Y-71517142D01*
X97330000Y-71374285D01*
X97377619Y-71326666D01*
X97282380Y-70469523D02*
X97282380Y-70660000D01*
X97330000Y-70755238D01*
X97377619Y-70802857D01*
X97520476Y-70898095D01*
X97710952Y-70945714D01*
X98091904Y-70945714D01*
X98187142Y-70898095D01*
X98234761Y-70850476D01*
X98282380Y-70755238D01*
X98282380Y-70564761D01*
X98234761Y-70469523D01*
X98187142Y-70421904D01*
X98091904Y-70374285D01*
X97853809Y-70374285D01*
X97758571Y-70421904D01*
X97710952Y-70469523D01*
X97663333Y-70564761D01*
X97663333Y-70755238D01*
X97710952Y-70850476D01*
X97758571Y-70898095D01*
X97853809Y-70945714D01*
X72707142Y-71246666D02*
X72754761Y-71294285D01*
X72802380Y-71437142D01*
X72802380Y-71532380D01*
X72754761Y-71675238D01*
X72659523Y-71770476D01*
X72564285Y-71818095D01*
X72373809Y-71865714D01*
X72230952Y-71865714D01*
X72040476Y-71818095D01*
X71945238Y-71770476D01*
X71850000Y-71675238D01*
X71802380Y-71532380D01*
X71802380Y-71437142D01*
X71850000Y-71294285D01*
X71897619Y-71246666D01*
X71802380Y-70341904D02*
X71802380Y-70818095D01*
X72278571Y-70865714D01*
X72230952Y-70818095D01*
X72183333Y-70722857D01*
X72183333Y-70484761D01*
X72230952Y-70389523D01*
X72278571Y-70341904D01*
X72373809Y-70294285D01*
X72611904Y-70294285D01*
X72707142Y-70341904D01*
X72754761Y-70389523D01*
X72802380Y-70484761D01*
X72802380Y-70722857D01*
X72754761Y-70818095D01*
X72707142Y-70865714D01*
%LPC*%
D14*
X220940000Y-99060000D03*
D15*
X218440000Y-99060000D03*
D14*
X179030000Y-99060000D03*
D15*
X176530000Y-99060000D03*
D14*
X137120000Y-99060000D03*
D15*
X134620000Y-99060000D03*
D14*
X95210000Y-99060000D03*
D15*
X92710000Y-99060000D03*
D14*
X72350000Y-116840000D03*
D15*
X69850000Y-116840000D03*
D14*
X71080000Y-123190000D03*
D15*
X68580000Y-123190000D03*
D16*
X126153333Y-48260000D03*
X126153333Y-96520000D03*
X124883333Y-93980000D03*
X127423333Y-93980000D03*
X128693333Y-99060000D03*
X126153333Y-99060000D03*
D17*
X123613333Y-99060000D03*
D16*
X85090000Y-48260000D03*
X85090000Y-96520000D03*
X83820000Y-93980000D03*
X86360000Y-93980000D03*
X87630000Y-99060000D03*
X85090000Y-99060000D03*
D17*
X82550000Y-99060000D03*
D16*
X210550000Y-48260000D03*
X210550000Y-96520000D03*
X209280000Y-93980000D03*
X211820000Y-93980000D03*
X213090000Y-99060000D03*
X210550000Y-99060000D03*
D17*
X208010000Y-99060000D03*
D16*
X168486666Y-48260000D03*
X168486666Y-96520000D03*
X167216666Y-93980000D03*
X169756666Y-93980000D03*
X171026666Y-99060000D03*
X168486666Y-99060000D03*
D17*
X165946666Y-99060000D03*
D18*
X215520000Y-107950000D03*
X210820000Y-107950000D03*
D19*
X206120000Y-107950000D03*
D18*
X173610000Y-107950000D03*
X168910000Y-107950000D03*
D19*
X164210000Y-107950000D03*
D18*
X131700000Y-107950000D03*
X127000000Y-107950000D03*
D19*
X122300000Y-107950000D03*
D18*
X89790000Y-107950000D03*
X85090000Y-107950000D03*
D19*
X80390000Y-107950000D03*
D20*
X204680000Y-57070000D03*
X195080000Y-57070000D03*
D21*
X202380000Y-64570000D03*
X199880000Y-64570000D03*
X197380000Y-64570000D03*
D20*
X162280000Y-57150000D03*
X152680000Y-57150000D03*
D21*
X159980000Y-64650000D03*
X157480000Y-64650000D03*
X154980000Y-64650000D03*
D20*
X120370000Y-57150000D03*
X110770000Y-57150000D03*
D21*
X118070000Y-64650000D03*
X115570000Y-64650000D03*
X113070000Y-64650000D03*
D20*
X79730000Y-57150000D03*
X70130000Y-57150000D03*
D21*
X77430000Y-64650000D03*
X74930000Y-64650000D03*
X72430000Y-64650000D03*
D20*
X204680000Y-81320000D03*
X195080000Y-81320000D03*
D21*
X202380000Y-88820000D03*
X199880000Y-88820000D03*
X197380000Y-88820000D03*
D20*
X162280000Y-81280000D03*
X152680000Y-81280000D03*
D21*
X159980000Y-88780000D03*
X157480000Y-88780000D03*
X154980000Y-88780000D03*
D20*
X120370000Y-81280000D03*
X110770000Y-81280000D03*
D21*
X118070000Y-88780000D03*
X115570000Y-88780000D03*
X113070000Y-88780000D03*
D20*
X79730000Y-81280000D03*
X70130000Y-81280000D03*
D21*
X77430000Y-88780000D03*
X74930000Y-88780000D03*
X72430000Y-88780000D03*
D20*
X225780000Y-57150000D03*
X216180000Y-57150000D03*
D21*
X223480000Y-64650000D03*
X220980000Y-64650000D03*
X218480000Y-64650000D03*
D20*
X183870000Y-57150000D03*
X174270000Y-57150000D03*
D21*
X181570000Y-64650000D03*
X179070000Y-64650000D03*
X176570000Y-64650000D03*
D20*
X141960000Y-57030000D03*
X132360000Y-57030000D03*
D21*
X139660000Y-64530000D03*
X137160000Y-64530000D03*
X134660000Y-64530000D03*
D20*
X100410000Y-57130000D03*
X90810000Y-57130000D03*
D21*
X98110000Y-64630000D03*
X95610000Y-64630000D03*
X93110000Y-64630000D03*
D20*
X225780000Y-81280000D03*
X216180000Y-81280000D03*
D21*
X223480000Y-88780000D03*
X220980000Y-88780000D03*
X218480000Y-88780000D03*
D20*
X183870000Y-81280000D03*
X174270000Y-81280000D03*
D21*
X181570000Y-88780000D03*
X179070000Y-88780000D03*
X176570000Y-88780000D03*
D20*
X141960000Y-81280000D03*
X132360000Y-81280000D03*
D21*
X139660000Y-88780000D03*
X137160000Y-88780000D03*
X134660000Y-88780000D03*
D20*
X99140000Y-81260000D03*
X89540000Y-81260000D03*
D21*
X96840000Y-88760000D03*
X94340000Y-88760000D03*
X91840000Y-88760000D03*
D16*
X215770000Y-138430000D03*
X204370000Y-138430000D03*
X207470000Y-138430000D03*
X173830000Y-138430000D03*
X162430000Y-138430000D03*
X165530000Y-138430000D03*
X131920000Y-138430000D03*
X120520000Y-138430000D03*
X123620000Y-138430000D03*
X90010000Y-138430000D03*
X78610000Y-138430000D03*
X81710000Y-138430000D03*
X215740000Y-118110000D03*
X204340000Y-118110000D03*
X207440000Y-118110000D03*
X173830000Y-118110000D03*
X162430000Y-118110000D03*
X165530000Y-118110000D03*
X131920000Y-118110000D03*
X120520000Y-118110000D03*
X123620000Y-118110000D03*
X90010000Y-118110000D03*
X78610000Y-118110000D03*
X81710000Y-118110000D03*
X215770000Y-128270000D03*
X204370000Y-128270000D03*
X207470000Y-128270000D03*
X173830000Y-128270000D03*
X162430000Y-128270000D03*
X165530000Y-128270000D03*
X131920000Y-128270000D03*
X120520000Y-128270000D03*
X123620000Y-128270000D03*
X90010000Y-128270000D03*
X78610000Y-128270000D03*
X81710000Y-128270000D03*
D22*
X195580000Y-48260000D03*
X198120000Y-48260000D03*
X200660000Y-48260000D03*
X152400000Y-48260000D03*
X154940000Y-48260000D03*
X157480000Y-48260000D03*
X110490000Y-48260000D03*
X113030000Y-48260000D03*
X115570000Y-48260000D03*
X68580000Y-48260000D03*
X71120000Y-48260000D03*
X73660000Y-48260000D03*
X220980000Y-107950000D03*
X223520000Y-107950000D03*
X226060000Y-107950000D03*
X179070000Y-107950000D03*
X181610000Y-107950000D03*
X184150000Y-107950000D03*
X137160000Y-107950000D03*
X139700000Y-107950000D03*
X142240000Y-107950000D03*
X95250000Y-107950000D03*
X97790000Y-107950000D03*
X100330000Y-107950000D03*
X218440000Y-92710000D03*
X220980000Y-92710000D03*
X223520000Y-92710000D03*
X176530000Y-92710000D03*
X179070000Y-92710000D03*
X181610000Y-92710000D03*
X134620000Y-92710000D03*
X137160000Y-92710000D03*
X139700000Y-92710000D03*
X92710000Y-92710000D03*
X95250000Y-92710000D03*
X97790000Y-92710000D03*
X195580000Y-107950000D03*
X198120000Y-107950000D03*
X200660000Y-107950000D03*
X153670000Y-107950000D03*
X156210000Y-107950000D03*
X158750000Y-107950000D03*
X111760000Y-107950000D03*
X114300000Y-107950000D03*
X116840000Y-107950000D03*
X69850000Y-107950000D03*
X72390000Y-107950000D03*
X74930000Y-107950000D03*
D23*
X72390000Y-129540000D03*
X69850000Y-129540000D03*
X72390000Y-132080000D03*
X69850000Y-132080000D03*
X72390000Y-134620000D03*
X69850000Y-134620000D03*
X72390000Y-137160000D03*
X69850000Y-137160000D03*
X72390000Y-139700000D03*
D24*
X69850000Y-139700000D03*
D16*
X219710000Y-68580000D03*
D17*
X217170000Y-68580000D03*
D16*
X203790000Y-68460000D03*
D17*
X201250000Y-68460000D03*
D16*
X177800000Y-68580000D03*
D17*
X175260000Y-68580000D03*
D16*
X161290000Y-68580000D03*
D17*
X158750000Y-68580000D03*
D16*
X135890000Y-68580000D03*
D17*
X133350000Y-68580000D03*
D16*
X119380000Y-68580000D03*
D17*
X116840000Y-68580000D03*
D16*
X95250000Y-68580000D03*
D17*
X92710000Y-68580000D03*
D16*
X77470000Y-68580000D03*
D17*
X74930000Y-68580000D03*
D14*
X224790000Y-73580000D03*
X224790000Y-68580000D03*
X195580000Y-73580000D03*
X195580000Y-68580000D03*
X182880000Y-73580000D03*
X182880000Y-68580000D03*
X153670000Y-73580000D03*
X153670000Y-68580000D03*
X140970000Y-73580000D03*
X140970000Y-68580000D03*
X111760000Y-73580000D03*
X111760000Y-68580000D03*
X100330000Y-68660000D03*
X100330000Y-73660000D03*
X69850000Y-73580000D03*
X69850000Y-68580000D03*
M02*
